G04 #@! TF.GenerationSoftware,KiCad,Pcbnew,5.1.5-52549c5~84~ubuntu18.04.1*
G04 #@! TF.CreationDate,2020-03-09T21:44:41-04:00*
G04 #@! TF.ProjectId,landfill_board_rev4,6c616e64-6669-46c6-9c5f-626f6172645f,rev?*
G04 #@! TF.SameCoordinates,Original*
G04 #@! TF.FileFunction,Paste,Bot*
G04 #@! TF.FilePolarity,Positive*
%FSLAX46Y46*%
G04 Gerber Fmt 4.6, Leading zero omitted, Abs format (unit mm)*
G04 Created by KiCad (PCBNEW 5.1.5-52549c5~84~ubuntu18.04.1) date 2020-03-09 21:44:41*
%MOMM*%
%LPD*%
G04 APERTURE LIST*
%ADD10C,0.100000*%
G04 APERTURE END LIST*
D10*
G36*
X148850779Y-64246144D02*
G01*
X148873834Y-64249563D01*
X148896443Y-64255227D01*
X148918387Y-64263079D01*
X148939457Y-64273044D01*
X148959448Y-64285026D01*
X148978168Y-64298910D01*
X148995438Y-64314562D01*
X149011090Y-64331832D01*
X149024974Y-64350552D01*
X149036956Y-64370543D01*
X149046921Y-64391613D01*
X149054773Y-64413557D01*
X149060437Y-64436166D01*
X149063856Y-64459221D01*
X149065000Y-64482500D01*
X149065000Y-65057500D01*
X149063856Y-65080779D01*
X149060437Y-65103834D01*
X149054773Y-65126443D01*
X149046921Y-65148387D01*
X149036956Y-65169457D01*
X149024974Y-65189448D01*
X149011090Y-65208168D01*
X148995438Y-65225438D01*
X148978168Y-65241090D01*
X148959448Y-65254974D01*
X148939457Y-65266956D01*
X148918387Y-65276921D01*
X148896443Y-65284773D01*
X148873834Y-65290437D01*
X148850779Y-65293856D01*
X148827500Y-65295000D01*
X148352500Y-65295000D01*
X148329221Y-65293856D01*
X148306166Y-65290437D01*
X148283557Y-65284773D01*
X148261613Y-65276921D01*
X148240543Y-65266956D01*
X148220552Y-65254974D01*
X148201832Y-65241090D01*
X148184562Y-65225438D01*
X148168910Y-65208168D01*
X148155026Y-65189448D01*
X148143044Y-65169457D01*
X148133079Y-65148387D01*
X148125227Y-65126443D01*
X148119563Y-65103834D01*
X148116144Y-65080779D01*
X148115000Y-65057500D01*
X148115000Y-64482500D01*
X148116144Y-64459221D01*
X148119563Y-64436166D01*
X148125227Y-64413557D01*
X148133079Y-64391613D01*
X148143044Y-64370543D01*
X148155026Y-64350552D01*
X148168910Y-64331832D01*
X148184562Y-64314562D01*
X148201832Y-64298910D01*
X148220552Y-64285026D01*
X148240543Y-64273044D01*
X148261613Y-64263079D01*
X148283557Y-64255227D01*
X148306166Y-64249563D01*
X148329221Y-64246144D01*
X148352500Y-64245000D01*
X148827500Y-64245000D01*
X148850779Y-64246144D01*
G37*
G36*
X148850779Y-62496144D02*
G01*
X148873834Y-62499563D01*
X148896443Y-62505227D01*
X148918387Y-62513079D01*
X148939457Y-62523044D01*
X148959448Y-62535026D01*
X148978168Y-62548910D01*
X148995438Y-62564562D01*
X149011090Y-62581832D01*
X149024974Y-62600552D01*
X149036956Y-62620543D01*
X149046921Y-62641613D01*
X149054773Y-62663557D01*
X149060437Y-62686166D01*
X149063856Y-62709221D01*
X149065000Y-62732500D01*
X149065000Y-63307500D01*
X149063856Y-63330779D01*
X149060437Y-63353834D01*
X149054773Y-63376443D01*
X149046921Y-63398387D01*
X149036956Y-63419457D01*
X149024974Y-63439448D01*
X149011090Y-63458168D01*
X148995438Y-63475438D01*
X148978168Y-63491090D01*
X148959448Y-63504974D01*
X148939457Y-63516956D01*
X148918387Y-63526921D01*
X148896443Y-63534773D01*
X148873834Y-63540437D01*
X148850779Y-63543856D01*
X148827500Y-63545000D01*
X148352500Y-63545000D01*
X148329221Y-63543856D01*
X148306166Y-63540437D01*
X148283557Y-63534773D01*
X148261613Y-63526921D01*
X148240543Y-63516956D01*
X148220552Y-63504974D01*
X148201832Y-63491090D01*
X148184562Y-63475438D01*
X148168910Y-63458168D01*
X148155026Y-63439448D01*
X148143044Y-63419457D01*
X148133079Y-63398387D01*
X148125227Y-63376443D01*
X148119563Y-63353834D01*
X148116144Y-63330779D01*
X148115000Y-63307500D01*
X148115000Y-62732500D01*
X148116144Y-62709221D01*
X148119563Y-62686166D01*
X148125227Y-62663557D01*
X148133079Y-62641613D01*
X148143044Y-62620543D01*
X148155026Y-62600552D01*
X148168910Y-62581832D01*
X148184562Y-62564562D01*
X148201832Y-62548910D01*
X148220552Y-62535026D01*
X148240543Y-62523044D01*
X148261613Y-62513079D01*
X148283557Y-62505227D01*
X148306166Y-62499563D01*
X148329221Y-62496144D01*
X148352500Y-62495000D01*
X148827500Y-62495000D01*
X148850779Y-62496144D01*
G37*
G36*
X150755779Y-64246144D02*
G01*
X150778834Y-64249563D01*
X150801443Y-64255227D01*
X150823387Y-64263079D01*
X150844457Y-64273044D01*
X150864448Y-64285026D01*
X150883168Y-64298910D01*
X150900438Y-64314562D01*
X150916090Y-64331832D01*
X150929974Y-64350552D01*
X150941956Y-64370543D01*
X150951921Y-64391613D01*
X150959773Y-64413557D01*
X150965437Y-64436166D01*
X150968856Y-64459221D01*
X150970000Y-64482500D01*
X150970000Y-65057500D01*
X150968856Y-65080779D01*
X150965437Y-65103834D01*
X150959773Y-65126443D01*
X150951921Y-65148387D01*
X150941956Y-65169457D01*
X150929974Y-65189448D01*
X150916090Y-65208168D01*
X150900438Y-65225438D01*
X150883168Y-65241090D01*
X150864448Y-65254974D01*
X150844457Y-65266956D01*
X150823387Y-65276921D01*
X150801443Y-65284773D01*
X150778834Y-65290437D01*
X150755779Y-65293856D01*
X150732500Y-65295000D01*
X150257500Y-65295000D01*
X150234221Y-65293856D01*
X150211166Y-65290437D01*
X150188557Y-65284773D01*
X150166613Y-65276921D01*
X150145543Y-65266956D01*
X150125552Y-65254974D01*
X150106832Y-65241090D01*
X150089562Y-65225438D01*
X150073910Y-65208168D01*
X150060026Y-65189448D01*
X150048044Y-65169457D01*
X150038079Y-65148387D01*
X150030227Y-65126443D01*
X150024563Y-65103834D01*
X150021144Y-65080779D01*
X150020000Y-65057500D01*
X150020000Y-64482500D01*
X150021144Y-64459221D01*
X150024563Y-64436166D01*
X150030227Y-64413557D01*
X150038079Y-64391613D01*
X150048044Y-64370543D01*
X150060026Y-64350552D01*
X150073910Y-64331832D01*
X150089562Y-64314562D01*
X150106832Y-64298910D01*
X150125552Y-64285026D01*
X150145543Y-64273044D01*
X150166613Y-64263079D01*
X150188557Y-64255227D01*
X150211166Y-64249563D01*
X150234221Y-64246144D01*
X150257500Y-64245000D01*
X150732500Y-64245000D01*
X150755779Y-64246144D01*
G37*
G36*
X150755779Y-62496144D02*
G01*
X150778834Y-62499563D01*
X150801443Y-62505227D01*
X150823387Y-62513079D01*
X150844457Y-62523044D01*
X150864448Y-62535026D01*
X150883168Y-62548910D01*
X150900438Y-62564562D01*
X150916090Y-62581832D01*
X150929974Y-62600552D01*
X150941956Y-62620543D01*
X150951921Y-62641613D01*
X150959773Y-62663557D01*
X150965437Y-62686166D01*
X150968856Y-62709221D01*
X150970000Y-62732500D01*
X150970000Y-63307500D01*
X150968856Y-63330779D01*
X150965437Y-63353834D01*
X150959773Y-63376443D01*
X150951921Y-63398387D01*
X150941956Y-63419457D01*
X150929974Y-63439448D01*
X150916090Y-63458168D01*
X150900438Y-63475438D01*
X150883168Y-63491090D01*
X150864448Y-63504974D01*
X150844457Y-63516956D01*
X150823387Y-63526921D01*
X150801443Y-63534773D01*
X150778834Y-63540437D01*
X150755779Y-63543856D01*
X150732500Y-63545000D01*
X150257500Y-63545000D01*
X150234221Y-63543856D01*
X150211166Y-63540437D01*
X150188557Y-63534773D01*
X150166613Y-63526921D01*
X150145543Y-63516956D01*
X150125552Y-63504974D01*
X150106832Y-63491090D01*
X150089562Y-63475438D01*
X150073910Y-63458168D01*
X150060026Y-63439448D01*
X150048044Y-63419457D01*
X150038079Y-63398387D01*
X150030227Y-63376443D01*
X150024563Y-63353834D01*
X150021144Y-63330779D01*
X150020000Y-63307500D01*
X150020000Y-62732500D01*
X150021144Y-62709221D01*
X150024563Y-62686166D01*
X150030227Y-62663557D01*
X150038079Y-62641613D01*
X150048044Y-62620543D01*
X150060026Y-62600552D01*
X150073910Y-62581832D01*
X150089562Y-62564562D01*
X150106832Y-62548910D01*
X150125552Y-62535026D01*
X150145543Y-62523044D01*
X150166613Y-62513079D01*
X150188557Y-62505227D01*
X150211166Y-62499563D01*
X150234221Y-62496144D01*
X150257500Y-62495000D01*
X150732500Y-62495000D01*
X150755779Y-62496144D01*
G37*
G36*
X150755779Y-71852144D02*
G01*
X150778834Y-71855563D01*
X150801443Y-71861227D01*
X150823387Y-71869079D01*
X150844457Y-71879044D01*
X150864448Y-71891026D01*
X150883168Y-71904910D01*
X150900438Y-71920562D01*
X150916090Y-71937832D01*
X150929974Y-71956552D01*
X150941956Y-71976543D01*
X150951921Y-71997613D01*
X150959773Y-72019557D01*
X150965437Y-72042166D01*
X150968856Y-72065221D01*
X150970000Y-72088500D01*
X150970000Y-72663500D01*
X150968856Y-72686779D01*
X150965437Y-72709834D01*
X150959773Y-72732443D01*
X150951921Y-72754387D01*
X150941956Y-72775457D01*
X150929974Y-72795448D01*
X150916090Y-72814168D01*
X150900438Y-72831438D01*
X150883168Y-72847090D01*
X150864448Y-72860974D01*
X150844457Y-72872956D01*
X150823387Y-72882921D01*
X150801443Y-72890773D01*
X150778834Y-72896437D01*
X150755779Y-72899856D01*
X150732500Y-72901000D01*
X150257500Y-72901000D01*
X150234221Y-72899856D01*
X150211166Y-72896437D01*
X150188557Y-72890773D01*
X150166613Y-72882921D01*
X150145543Y-72872956D01*
X150125552Y-72860974D01*
X150106832Y-72847090D01*
X150089562Y-72831438D01*
X150073910Y-72814168D01*
X150060026Y-72795448D01*
X150048044Y-72775457D01*
X150038079Y-72754387D01*
X150030227Y-72732443D01*
X150024563Y-72709834D01*
X150021144Y-72686779D01*
X150020000Y-72663500D01*
X150020000Y-72088500D01*
X150021144Y-72065221D01*
X150024563Y-72042166D01*
X150030227Y-72019557D01*
X150038079Y-71997613D01*
X150048044Y-71976543D01*
X150060026Y-71956552D01*
X150073910Y-71937832D01*
X150089562Y-71920562D01*
X150106832Y-71904910D01*
X150125552Y-71891026D01*
X150145543Y-71879044D01*
X150166613Y-71869079D01*
X150188557Y-71861227D01*
X150211166Y-71855563D01*
X150234221Y-71852144D01*
X150257500Y-71851000D01*
X150732500Y-71851000D01*
X150755779Y-71852144D01*
G37*
G36*
X150755779Y-70102144D02*
G01*
X150778834Y-70105563D01*
X150801443Y-70111227D01*
X150823387Y-70119079D01*
X150844457Y-70129044D01*
X150864448Y-70141026D01*
X150883168Y-70154910D01*
X150900438Y-70170562D01*
X150916090Y-70187832D01*
X150929974Y-70206552D01*
X150941956Y-70226543D01*
X150951921Y-70247613D01*
X150959773Y-70269557D01*
X150965437Y-70292166D01*
X150968856Y-70315221D01*
X150970000Y-70338500D01*
X150970000Y-70913500D01*
X150968856Y-70936779D01*
X150965437Y-70959834D01*
X150959773Y-70982443D01*
X150951921Y-71004387D01*
X150941956Y-71025457D01*
X150929974Y-71045448D01*
X150916090Y-71064168D01*
X150900438Y-71081438D01*
X150883168Y-71097090D01*
X150864448Y-71110974D01*
X150844457Y-71122956D01*
X150823387Y-71132921D01*
X150801443Y-71140773D01*
X150778834Y-71146437D01*
X150755779Y-71149856D01*
X150732500Y-71151000D01*
X150257500Y-71151000D01*
X150234221Y-71149856D01*
X150211166Y-71146437D01*
X150188557Y-71140773D01*
X150166613Y-71132921D01*
X150145543Y-71122956D01*
X150125552Y-71110974D01*
X150106832Y-71097090D01*
X150089562Y-71081438D01*
X150073910Y-71064168D01*
X150060026Y-71045448D01*
X150048044Y-71025457D01*
X150038079Y-71004387D01*
X150030227Y-70982443D01*
X150024563Y-70959834D01*
X150021144Y-70936779D01*
X150020000Y-70913500D01*
X150020000Y-70338500D01*
X150021144Y-70315221D01*
X150024563Y-70292166D01*
X150030227Y-70269557D01*
X150038079Y-70247613D01*
X150048044Y-70226543D01*
X150060026Y-70206552D01*
X150073910Y-70187832D01*
X150089562Y-70170562D01*
X150106832Y-70154910D01*
X150125552Y-70141026D01*
X150145543Y-70129044D01*
X150166613Y-70119079D01*
X150188557Y-70111227D01*
X150211166Y-70105563D01*
X150234221Y-70102144D01*
X150257500Y-70101000D01*
X150732500Y-70101000D01*
X150755779Y-70102144D01*
G37*
G36*
X148850779Y-71866144D02*
G01*
X148873834Y-71869563D01*
X148896443Y-71875227D01*
X148918387Y-71883079D01*
X148939457Y-71893044D01*
X148959448Y-71905026D01*
X148978168Y-71918910D01*
X148995438Y-71934562D01*
X149011090Y-71951832D01*
X149024974Y-71970552D01*
X149036956Y-71990543D01*
X149046921Y-72011613D01*
X149054773Y-72033557D01*
X149060437Y-72056166D01*
X149063856Y-72079221D01*
X149065000Y-72102500D01*
X149065000Y-72677500D01*
X149063856Y-72700779D01*
X149060437Y-72723834D01*
X149054773Y-72746443D01*
X149046921Y-72768387D01*
X149036956Y-72789457D01*
X149024974Y-72809448D01*
X149011090Y-72828168D01*
X148995438Y-72845438D01*
X148978168Y-72861090D01*
X148959448Y-72874974D01*
X148939457Y-72886956D01*
X148918387Y-72896921D01*
X148896443Y-72904773D01*
X148873834Y-72910437D01*
X148850779Y-72913856D01*
X148827500Y-72915000D01*
X148352500Y-72915000D01*
X148329221Y-72913856D01*
X148306166Y-72910437D01*
X148283557Y-72904773D01*
X148261613Y-72896921D01*
X148240543Y-72886956D01*
X148220552Y-72874974D01*
X148201832Y-72861090D01*
X148184562Y-72845438D01*
X148168910Y-72828168D01*
X148155026Y-72809448D01*
X148143044Y-72789457D01*
X148133079Y-72768387D01*
X148125227Y-72746443D01*
X148119563Y-72723834D01*
X148116144Y-72700779D01*
X148115000Y-72677500D01*
X148115000Y-72102500D01*
X148116144Y-72079221D01*
X148119563Y-72056166D01*
X148125227Y-72033557D01*
X148133079Y-72011613D01*
X148143044Y-71990543D01*
X148155026Y-71970552D01*
X148168910Y-71951832D01*
X148184562Y-71934562D01*
X148201832Y-71918910D01*
X148220552Y-71905026D01*
X148240543Y-71893044D01*
X148261613Y-71883079D01*
X148283557Y-71875227D01*
X148306166Y-71869563D01*
X148329221Y-71866144D01*
X148352500Y-71865000D01*
X148827500Y-71865000D01*
X148850779Y-71866144D01*
G37*
G36*
X148850779Y-70116144D02*
G01*
X148873834Y-70119563D01*
X148896443Y-70125227D01*
X148918387Y-70133079D01*
X148939457Y-70143044D01*
X148959448Y-70155026D01*
X148978168Y-70168910D01*
X148995438Y-70184562D01*
X149011090Y-70201832D01*
X149024974Y-70220552D01*
X149036956Y-70240543D01*
X149046921Y-70261613D01*
X149054773Y-70283557D01*
X149060437Y-70306166D01*
X149063856Y-70329221D01*
X149065000Y-70352500D01*
X149065000Y-70927500D01*
X149063856Y-70950779D01*
X149060437Y-70973834D01*
X149054773Y-70996443D01*
X149046921Y-71018387D01*
X149036956Y-71039457D01*
X149024974Y-71059448D01*
X149011090Y-71078168D01*
X148995438Y-71095438D01*
X148978168Y-71111090D01*
X148959448Y-71124974D01*
X148939457Y-71136956D01*
X148918387Y-71146921D01*
X148896443Y-71154773D01*
X148873834Y-71160437D01*
X148850779Y-71163856D01*
X148827500Y-71165000D01*
X148352500Y-71165000D01*
X148329221Y-71163856D01*
X148306166Y-71160437D01*
X148283557Y-71154773D01*
X148261613Y-71146921D01*
X148240543Y-71136956D01*
X148220552Y-71124974D01*
X148201832Y-71111090D01*
X148184562Y-71095438D01*
X148168910Y-71078168D01*
X148155026Y-71059448D01*
X148143044Y-71039457D01*
X148133079Y-71018387D01*
X148125227Y-70996443D01*
X148119563Y-70973834D01*
X148116144Y-70950779D01*
X148115000Y-70927500D01*
X148115000Y-70352500D01*
X148116144Y-70329221D01*
X148119563Y-70306166D01*
X148125227Y-70283557D01*
X148133079Y-70261613D01*
X148143044Y-70240543D01*
X148155026Y-70220552D01*
X148168910Y-70201832D01*
X148184562Y-70184562D01*
X148201832Y-70168910D01*
X148220552Y-70155026D01*
X148240543Y-70143044D01*
X148261613Y-70133079D01*
X148283557Y-70125227D01*
X148306166Y-70119563D01*
X148329221Y-70116144D01*
X148352500Y-70115000D01*
X148827500Y-70115000D01*
X148850779Y-70116144D01*
G37*
G36*
X150628779Y-55723144D02*
G01*
X150651834Y-55726563D01*
X150674443Y-55732227D01*
X150696387Y-55740079D01*
X150717457Y-55750044D01*
X150737448Y-55762026D01*
X150756168Y-55775910D01*
X150773438Y-55791562D01*
X150789090Y-55808832D01*
X150802974Y-55827552D01*
X150814956Y-55847543D01*
X150824921Y-55868613D01*
X150832773Y-55890557D01*
X150838437Y-55913166D01*
X150841856Y-55936221D01*
X150843000Y-55959500D01*
X150843000Y-56534500D01*
X150841856Y-56557779D01*
X150838437Y-56580834D01*
X150832773Y-56603443D01*
X150824921Y-56625387D01*
X150814956Y-56646457D01*
X150802974Y-56666448D01*
X150789090Y-56685168D01*
X150773438Y-56702438D01*
X150756168Y-56718090D01*
X150737448Y-56731974D01*
X150717457Y-56743956D01*
X150696387Y-56753921D01*
X150674443Y-56761773D01*
X150651834Y-56767437D01*
X150628779Y-56770856D01*
X150605500Y-56772000D01*
X150130500Y-56772000D01*
X150107221Y-56770856D01*
X150084166Y-56767437D01*
X150061557Y-56761773D01*
X150039613Y-56753921D01*
X150018543Y-56743956D01*
X149998552Y-56731974D01*
X149979832Y-56718090D01*
X149962562Y-56702438D01*
X149946910Y-56685168D01*
X149933026Y-56666448D01*
X149921044Y-56646457D01*
X149911079Y-56625387D01*
X149903227Y-56603443D01*
X149897563Y-56580834D01*
X149894144Y-56557779D01*
X149893000Y-56534500D01*
X149893000Y-55959500D01*
X149894144Y-55936221D01*
X149897563Y-55913166D01*
X149903227Y-55890557D01*
X149911079Y-55868613D01*
X149921044Y-55847543D01*
X149933026Y-55827552D01*
X149946910Y-55808832D01*
X149962562Y-55791562D01*
X149979832Y-55775910D01*
X149998552Y-55762026D01*
X150018543Y-55750044D01*
X150039613Y-55740079D01*
X150061557Y-55732227D01*
X150084166Y-55726563D01*
X150107221Y-55723144D01*
X150130500Y-55722000D01*
X150605500Y-55722000D01*
X150628779Y-55723144D01*
G37*
G36*
X150628779Y-53973144D02*
G01*
X150651834Y-53976563D01*
X150674443Y-53982227D01*
X150696387Y-53990079D01*
X150717457Y-54000044D01*
X150737448Y-54012026D01*
X150756168Y-54025910D01*
X150773438Y-54041562D01*
X150789090Y-54058832D01*
X150802974Y-54077552D01*
X150814956Y-54097543D01*
X150824921Y-54118613D01*
X150832773Y-54140557D01*
X150838437Y-54163166D01*
X150841856Y-54186221D01*
X150843000Y-54209500D01*
X150843000Y-54784500D01*
X150841856Y-54807779D01*
X150838437Y-54830834D01*
X150832773Y-54853443D01*
X150824921Y-54875387D01*
X150814956Y-54896457D01*
X150802974Y-54916448D01*
X150789090Y-54935168D01*
X150773438Y-54952438D01*
X150756168Y-54968090D01*
X150737448Y-54981974D01*
X150717457Y-54993956D01*
X150696387Y-55003921D01*
X150674443Y-55011773D01*
X150651834Y-55017437D01*
X150628779Y-55020856D01*
X150605500Y-55022000D01*
X150130500Y-55022000D01*
X150107221Y-55020856D01*
X150084166Y-55017437D01*
X150061557Y-55011773D01*
X150039613Y-55003921D01*
X150018543Y-54993956D01*
X149998552Y-54981974D01*
X149979832Y-54968090D01*
X149962562Y-54952438D01*
X149946910Y-54935168D01*
X149933026Y-54916448D01*
X149921044Y-54896457D01*
X149911079Y-54875387D01*
X149903227Y-54853443D01*
X149897563Y-54830834D01*
X149894144Y-54807779D01*
X149893000Y-54784500D01*
X149893000Y-54209500D01*
X149894144Y-54186221D01*
X149897563Y-54163166D01*
X149903227Y-54140557D01*
X149911079Y-54118613D01*
X149921044Y-54097543D01*
X149933026Y-54077552D01*
X149946910Y-54058832D01*
X149962562Y-54041562D01*
X149979832Y-54025910D01*
X149998552Y-54012026D01*
X150018543Y-54000044D01*
X150039613Y-53990079D01*
X150061557Y-53982227D01*
X150084166Y-53976563D01*
X150107221Y-53973144D01*
X150130500Y-53972000D01*
X150605500Y-53972000D01*
X150628779Y-53973144D01*
G37*
G36*
X148596779Y-55723144D02*
G01*
X148619834Y-55726563D01*
X148642443Y-55732227D01*
X148664387Y-55740079D01*
X148685457Y-55750044D01*
X148705448Y-55762026D01*
X148724168Y-55775910D01*
X148741438Y-55791562D01*
X148757090Y-55808832D01*
X148770974Y-55827552D01*
X148782956Y-55847543D01*
X148792921Y-55868613D01*
X148800773Y-55890557D01*
X148806437Y-55913166D01*
X148809856Y-55936221D01*
X148811000Y-55959500D01*
X148811000Y-56534500D01*
X148809856Y-56557779D01*
X148806437Y-56580834D01*
X148800773Y-56603443D01*
X148792921Y-56625387D01*
X148782956Y-56646457D01*
X148770974Y-56666448D01*
X148757090Y-56685168D01*
X148741438Y-56702438D01*
X148724168Y-56718090D01*
X148705448Y-56731974D01*
X148685457Y-56743956D01*
X148664387Y-56753921D01*
X148642443Y-56761773D01*
X148619834Y-56767437D01*
X148596779Y-56770856D01*
X148573500Y-56772000D01*
X148098500Y-56772000D01*
X148075221Y-56770856D01*
X148052166Y-56767437D01*
X148029557Y-56761773D01*
X148007613Y-56753921D01*
X147986543Y-56743956D01*
X147966552Y-56731974D01*
X147947832Y-56718090D01*
X147930562Y-56702438D01*
X147914910Y-56685168D01*
X147901026Y-56666448D01*
X147889044Y-56646457D01*
X147879079Y-56625387D01*
X147871227Y-56603443D01*
X147865563Y-56580834D01*
X147862144Y-56557779D01*
X147861000Y-56534500D01*
X147861000Y-55959500D01*
X147862144Y-55936221D01*
X147865563Y-55913166D01*
X147871227Y-55890557D01*
X147879079Y-55868613D01*
X147889044Y-55847543D01*
X147901026Y-55827552D01*
X147914910Y-55808832D01*
X147930562Y-55791562D01*
X147947832Y-55775910D01*
X147966552Y-55762026D01*
X147986543Y-55750044D01*
X148007613Y-55740079D01*
X148029557Y-55732227D01*
X148052166Y-55726563D01*
X148075221Y-55723144D01*
X148098500Y-55722000D01*
X148573500Y-55722000D01*
X148596779Y-55723144D01*
G37*
G36*
X148596779Y-53973144D02*
G01*
X148619834Y-53976563D01*
X148642443Y-53982227D01*
X148664387Y-53990079D01*
X148685457Y-54000044D01*
X148705448Y-54012026D01*
X148724168Y-54025910D01*
X148741438Y-54041562D01*
X148757090Y-54058832D01*
X148770974Y-54077552D01*
X148782956Y-54097543D01*
X148792921Y-54118613D01*
X148800773Y-54140557D01*
X148806437Y-54163166D01*
X148809856Y-54186221D01*
X148811000Y-54209500D01*
X148811000Y-54784500D01*
X148809856Y-54807779D01*
X148806437Y-54830834D01*
X148800773Y-54853443D01*
X148792921Y-54875387D01*
X148782956Y-54896457D01*
X148770974Y-54916448D01*
X148757090Y-54935168D01*
X148741438Y-54952438D01*
X148724168Y-54968090D01*
X148705448Y-54981974D01*
X148685457Y-54993956D01*
X148664387Y-55003921D01*
X148642443Y-55011773D01*
X148619834Y-55017437D01*
X148596779Y-55020856D01*
X148573500Y-55022000D01*
X148098500Y-55022000D01*
X148075221Y-55020856D01*
X148052166Y-55017437D01*
X148029557Y-55011773D01*
X148007613Y-55003921D01*
X147986543Y-54993956D01*
X147966552Y-54981974D01*
X147947832Y-54968090D01*
X147930562Y-54952438D01*
X147914910Y-54935168D01*
X147901026Y-54916448D01*
X147889044Y-54896457D01*
X147879079Y-54875387D01*
X147871227Y-54853443D01*
X147865563Y-54830834D01*
X147862144Y-54807779D01*
X147861000Y-54784500D01*
X147861000Y-54209500D01*
X147862144Y-54186221D01*
X147865563Y-54163166D01*
X147871227Y-54140557D01*
X147879079Y-54118613D01*
X147889044Y-54097543D01*
X147901026Y-54077552D01*
X147914910Y-54058832D01*
X147930562Y-54041562D01*
X147947832Y-54025910D01*
X147966552Y-54012026D01*
X147986543Y-54000044D01*
X148007613Y-53990079D01*
X148029557Y-53982227D01*
X148052166Y-53976563D01*
X148075221Y-53973144D01*
X148098500Y-53972000D01*
X148573500Y-53972000D01*
X148596779Y-53973144D01*
G37*
G36*
X150120779Y-47976144D02*
G01*
X150143834Y-47979563D01*
X150166443Y-47985227D01*
X150188387Y-47993079D01*
X150209457Y-48003044D01*
X150229448Y-48015026D01*
X150248168Y-48028910D01*
X150265438Y-48044562D01*
X150281090Y-48061832D01*
X150294974Y-48080552D01*
X150306956Y-48100543D01*
X150316921Y-48121613D01*
X150324773Y-48143557D01*
X150330437Y-48166166D01*
X150333856Y-48189221D01*
X150335000Y-48212500D01*
X150335000Y-48787500D01*
X150333856Y-48810779D01*
X150330437Y-48833834D01*
X150324773Y-48856443D01*
X150316921Y-48878387D01*
X150306956Y-48899457D01*
X150294974Y-48919448D01*
X150281090Y-48938168D01*
X150265438Y-48955438D01*
X150248168Y-48971090D01*
X150229448Y-48984974D01*
X150209457Y-48996956D01*
X150188387Y-49006921D01*
X150166443Y-49014773D01*
X150143834Y-49020437D01*
X150120779Y-49023856D01*
X150097500Y-49025000D01*
X149622500Y-49025000D01*
X149599221Y-49023856D01*
X149576166Y-49020437D01*
X149553557Y-49014773D01*
X149531613Y-49006921D01*
X149510543Y-48996956D01*
X149490552Y-48984974D01*
X149471832Y-48971090D01*
X149454562Y-48955438D01*
X149438910Y-48938168D01*
X149425026Y-48919448D01*
X149413044Y-48899457D01*
X149403079Y-48878387D01*
X149395227Y-48856443D01*
X149389563Y-48833834D01*
X149386144Y-48810779D01*
X149385000Y-48787500D01*
X149385000Y-48212500D01*
X149386144Y-48189221D01*
X149389563Y-48166166D01*
X149395227Y-48143557D01*
X149403079Y-48121613D01*
X149413044Y-48100543D01*
X149425026Y-48080552D01*
X149438910Y-48061832D01*
X149454562Y-48044562D01*
X149471832Y-48028910D01*
X149490552Y-48015026D01*
X149510543Y-48003044D01*
X149531613Y-47993079D01*
X149553557Y-47985227D01*
X149576166Y-47979563D01*
X149599221Y-47976144D01*
X149622500Y-47975000D01*
X150097500Y-47975000D01*
X150120779Y-47976144D01*
G37*
G36*
X150120779Y-46226144D02*
G01*
X150143834Y-46229563D01*
X150166443Y-46235227D01*
X150188387Y-46243079D01*
X150209457Y-46253044D01*
X150229448Y-46265026D01*
X150248168Y-46278910D01*
X150265438Y-46294562D01*
X150281090Y-46311832D01*
X150294974Y-46330552D01*
X150306956Y-46350543D01*
X150316921Y-46371613D01*
X150324773Y-46393557D01*
X150330437Y-46416166D01*
X150333856Y-46439221D01*
X150335000Y-46462500D01*
X150335000Y-47037500D01*
X150333856Y-47060779D01*
X150330437Y-47083834D01*
X150324773Y-47106443D01*
X150316921Y-47128387D01*
X150306956Y-47149457D01*
X150294974Y-47169448D01*
X150281090Y-47188168D01*
X150265438Y-47205438D01*
X150248168Y-47221090D01*
X150229448Y-47234974D01*
X150209457Y-47246956D01*
X150188387Y-47256921D01*
X150166443Y-47264773D01*
X150143834Y-47270437D01*
X150120779Y-47273856D01*
X150097500Y-47275000D01*
X149622500Y-47275000D01*
X149599221Y-47273856D01*
X149576166Y-47270437D01*
X149553557Y-47264773D01*
X149531613Y-47256921D01*
X149510543Y-47246956D01*
X149490552Y-47234974D01*
X149471832Y-47221090D01*
X149454562Y-47205438D01*
X149438910Y-47188168D01*
X149425026Y-47169448D01*
X149413044Y-47149457D01*
X149403079Y-47128387D01*
X149395227Y-47106443D01*
X149389563Y-47083834D01*
X149386144Y-47060779D01*
X149385000Y-47037500D01*
X149385000Y-46462500D01*
X149386144Y-46439221D01*
X149389563Y-46416166D01*
X149395227Y-46393557D01*
X149403079Y-46371613D01*
X149413044Y-46350543D01*
X149425026Y-46330552D01*
X149438910Y-46311832D01*
X149454562Y-46294562D01*
X149471832Y-46278910D01*
X149490552Y-46265026D01*
X149510543Y-46253044D01*
X149531613Y-46243079D01*
X149553557Y-46235227D01*
X149576166Y-46229563D01*
X149599221Y-46226144D01*
X149622500Y-46225000D01*
X150097500Y-46225000D01*
X150120779Y-46226144D01*
G37*
G36*
X148215779Y-47976144D02*
G01*
X148238834Y-47979563D01*
X148261443Y-47985227D01*
X148283387Y-47993079D01*
X148304457Y-48003044D01*
X148324448Y-48015026D01*
X148343168Y-48028910D01*
X148360438Y-48044562D01*
X148376090Y-48061832D01*
X148389974Y-48080552D01*
X148401956Y-48100543D01*
X148411921Y-48121613D01*
X148419773Y-48143557D01*
X148425437Y-48166166D01*
X148428856Y-48189221D01*
X148430000Y-48212500D01*
X148430000Y-48787500D01*
X148428856Y-48810779D01*
X148425437Y-48833834D01*
X148419773Y-48856443D01*
X148411921Y-48878387D01*
X148401956Y-48899457D01*
X148389974Y-48919448D01*
X148376090Y-48938168D01*
X148360438Y-48955438D01*
X148343168Y-48971090D01*
X148324448Y-48984974D01*
X148304457Y-48996956D01*
X148283387Y-49006921D01*
X148261443Y-49014773D01*
X148238834Y-49020437D01*
X148215779Y-49023856D01*
X148192500Y-49025000D01*
X147717500Y-49025000D01*
X147694221Y-49023856D01*
X147671166Y-49020437D01*
X147648557Y-49014773D01*
X147626613Y-49006921D01*
X147605543Y-48996956D01*
X147585552Y-48984974D01*
X147566832Y-48971090D01*
X147549562Y-48955438D01*
X147533910Y-48938168D01*
X147520026Y-48919448D01*
X147508044Y-48899457D01*
X147498079Y-48878387D01*
X147490227Y-48856443D01*
X147484563Y-48833834D01*
X147481144Y-48810779D01*
X147480000Y-48787500D01*
X147480000Y-48212500D01*
X147481144Y-48189221D01*
X147484563Y-48166166D01*
X147490227Y-48143557D01*
X147498079Y-48121613D01*
X147508044Y-48100543D01*
X147520026Y-48080552D01*
X147533910Y-48061832D01*
X147549562Y-48044562D01*
X147566832Y-48028910D01*
X147585552Y-48015026D01*
X147605543Y-48003044D01*
X147626613Y-47993079D01*
X147648557Y-47985227D01*
X147671166Y-47979563D01*
X147694221Y-47976144D01*
X147717500Y-47975000D01*
X148192500Y-47975000D01*
X148215779Y-47976144D01*
G37*
G36*
X148215779Y-46226144D02*
G01*
X148238834Y-46229563D01*
X148261443Y-46235227D01*
X148283387Y-46243079D01*
X148304457Y-46253044D01*
X148324448Y-46265026D01*
X148343168Y-46278910D01*
X148360438Y-46294562D01*
X148376090Y-46311832D01*
X148389974Y-46330552D01*
X148401956Y-46350543D01*
X148411921Y-46371613D01*
X148419773Y-46393557D01*
X148425437Y-46416166D01*
X148428856Y-46439221D01*
X148430000Y-46462500D01*
X148430000Y-47037500D01*
X148428856Y-47060779D01*
X148425437Y-47083834D01*
X148419773Y-47106443D01*
X148411921Y-47128387D01*
X148401956Y-47149457D01*
X148389974Y-47169448D01*
X148376090Y-47188168D01*
X148360438Y-47205438D01*
X148343168Y-47221090D01*
X148324448Y-47234974D01*
X148304457Y-47246956D01*
X148283387Y-47256921D01*
X148261443Y-47264773D01*
X148238834Y-47270437D01*
X148215779Y-47273856D01*
X148192500Y-47275000D01*
X147717500Y-47275000D01*
X147694221Y-47273856D01*
X147671166Y-47270437D01*
X147648557Y-47264773D01*
X147626613Y-47256921D01*
X147605543Y-47246956D01*
X147585552Y-47234974D01*
X147566832Y-47221090D01*
X147549562Y-47205438D01*
X147533910Y-47188168D01*
X147520026Y-47169448D01*
X147508044Y-47149457D01*
X147498079Y-47128387D01*
X147490227Y-47106443D01*
X147484563Y-47083834D01*
X147481144Y-47060779D01*
X147480000Y-47037500D01*
X147480000Y-46462500D01*
X147481144Y-46439221D01*
X147484563Y-46416166D01*
X147490227Y-46393557D01*
X147498079Y-46371613D01*
X147508044Y-46350543D01*
X147520026Y-46330552D01*
X147533910Y-46311832D01*
X147549562Y-46294562D01*
X147566832Y-46278910D01*
X147585552Y-46265026D01*
X147605543Y-46253044D01*
X147626613Y-46243079D01*
X147648557Y-46235227D01*
X147671166Y-46229563D01*
X147694221Y-46226144D01*
X147717500Y-46225000D01*
X148192500Y-46225000D01*
X148215779Y-46226144D01*
G37*
G36*
X152710779Y-42706144D02*
G01*
X152733834Y-42709563D01*
X152756443Y-42715227D01*
X152778387Y-42723079D01*
X152799457Y-42733044D01*
X152819448Y-42745026D01*
X152838168Y-42758910D01*
X152855438Y-42774562D01*
X152871090Y-42791832D01*
X152884974Y-42810552D01*
X152896956Y-42830543D01*
X152906921Y-42851613D01*
X152914773Y-42873557D01*
X152920437Y-42896166D01*
X152923856Y-42919221D01*
X152925000Y-42942500D01*
X152925000Y-43417500D01*
X152923856Y-43440779D01*
X152920437Y-43463834D01*
X152914773Y-43486443D01*
X152906921Y-43508387D01*
X152896956Y-43529457D01*
X152884974Y-43549448D01*
X152871090Y-43568168D01*
X152855438Y-43585438D01*
X152838168Y-43601090D01*
X152819448Y-43614974D01*
X152799457Y-43626956D01*
X152778387Y-43636921D01*
X152756443Y-43644773D01*
X152733834Y-43650437D01*
X152710779Y-43653856D01*
X152687500Y-43655000D01*
X152112500Y-43655000D01*
X152089221Y-43653856D01*
X152066166Y-43650437D01*
X152043557Y-43644773D01*
X152021613Y-43636921D01*
X152000543Y-43626956D01*
X151980552Y-43614974D01*
X151961832Y-43601090D01*
X151944562Y-43585438D01*
X151928910Y-43568168D01*
X151915026Y-43549448D01*
X151903044Y-43529457D01*
X151893079Y-43508387D01*
X151885227Y-43486443D01*
X151879563Y-43463834D01*
X151876144Y-43440779D01*
X151875000Y-43417500D01*
X151875000Y-42942500D01*
X151876144Y-42919221D01*
X151879563Y-42896166D01*
X151885227Y-42873557D01*
X151893079Y-42851613D01*
X151903044Y-42830543D01*
X151915026Y-42810552D01*
X151928910Y-42791832D01*
X151944562Y-42774562D01*
X151961832Y-42758910D01*
X151980552Y-42745026D01*
X152000543Y-42733044D01*
X152021613Y-42723079D01*
X152043557Y-42715227D01*
X152066166Y-42709563D01*
X152089221Y-42706144D01*
X152112500Y-42705000D01*
X152687500Y-42705000D01*
X152710779Y-42706144D01*
G37*
G36*
X150960779Y-42706144D02*
G01*
X150983834Y-42709563D01*
X151006443Y-42715227D01*
X151028387Y-42723079D01*
X151049457Y-42733044D01*
X151069448Y-42745026D01*
X151088168Y-42758910D01*
X151105438Y-42774562D01*
X151121090Y-42791832D01*
X151134974Y-42810552D01*
X151146956Y-42830543D01*
X151156921Y-42851613D01*
X151164773Y-42873557D01*
X151170437Y-42896166D01*
X151173856Y-42919221D01*
X151175000Y-42942500D01*
X151175000Y-43417500D01*
X151173856Y-43440779D01*
X151170437Y-43463834D01*
X151164773Y-43486443D01*
X151156921Y-43508387D01*
X151146956Y-43529457D01*
X151134974Y-43549448D01*
X151121090Y-43568168D01*
X151105438Y-43585438D01*
X151088168Y-43601090D01*
X151069448Y-43614974D01*
X151049457Y-43626956D01*
X151028387Y-43636921D01*
X151006443Y-43644773D01*
X150983834Y-43650437D01*
X150960779Y-43653856D01*
X150937500Y-43655000D01*
X150362500Y-43655000D01*
X150339221Y-43653856D01*
X150316166Y-43650437D01*
X150293557Y-43644773D01*
X150271613Y-43636921D01*
X150250543Y-43626956D01*
X150230552Y-43614974D01*
X150211832Y-43601090D01*
X150194562Y-43585438D01*
X150178910Y-43568168D01*
X150165026Y-43549448D01*
X150153044Y-43529457D01*
X150143079Y-43508387D01*
X150135227Y-43486443D01*
X150129563Y-43463834D01*
X150126144Y-43440779D01*
X150125000Y-43417500D01*
X150125000Y-42942500D01*
X150126144Y-42919221D01*
X150129563Y-42896166D01*
X150135227Y-42873557D01*
X150143079Y-42851613D01*
X150153044Y-42830543D01*
X150165026Y-42810552D01*
X150178910Y-42791832D01*
X150194562Y-42774562D01*
X150211832Y-42758910D01*
X150230552Y-42745026D01*
X150250543Y-42733044D01*
X150271613Y-42723079D01*
X150293557Y-42715227D01*
X150316166Y-42709563D01*
X150339221Y-42706144D01*
X150362500Y-42705000D01*
X150937500Y-42705000D01*
X150960779Y-42706144D01*
G37*
G36*
X146840779Y-42706144D02*
G01*
X146863834Y-42709563D01*
X146886443Y-42715227D01*
X146908387Y-42723079D01*
X146929457Y-42733044D01*
X146949448Y-42745026D01*
X146968168Y-42758910D01*
X146985438Y-42774562D01*
X147001090Y-42791832D01*
X147014974Y-42810552D01*
X147026956Y-42830543D01*
X147036921Y-42851613D01*
X147044773Y-42873557D01*
X147050437Y-42896166D01*
X147053856Y-42919221D01*
X147055000Y-42942500D01*
X147055000Y-43417500D01*
X147053856Y-43440779D01*
X147050437Y-43463834D01*
X147044773Y-43486443D01*
X147036921Y-43508387D01*
X147026956Y-43529457D01*
X147014974Y-43549448D01*
X147001090Y-43568168D01*
X146985438Y-43585438D01*
X146968168Y-43601090D01*
X146949448Y-43614974D01*
X146929457Y-43626956D01*
X146908387Y-43636921D01*
X146886443Y-43644773D01*
X146863834Y-43650437D01*
X146840779Y-43653856D01*
X146817500Y-43655000D01*
X146242500Y-43655000D01*
X146219221Y-43653856D01*
X146196166Y-43650437D01*
X146173557Y-43644773D01*
X146151613Y-43636921D01*
X146130543Y-43626956D01*
X146110552Y-43614974D01*
X146091832Y-43601090D01*
X146074562Y-43585438D01*
X146058910Y-43568168D01*
X146045026Y-43549448D01*
X146033044Y-43529457D01*
X146023079Y-43508387D01*
X146015227Y-43486443D01*
X146009563Y-43463834D01*
X146006144Y-43440779D01*
X146005000Y-43417500D01*
X146005000Y-42942500D01*
X146006144Y-42919221D01*
X146009563Y-42896166D01*
X146015227Y-42873557D01*
X146023079Y-42851613D01*
X146033044Y-42830543D01*
X146045026Y-42810552D01*
X146058910Y-42791832D01*
X146074562Y-42774562D01*
X146091832Y-42758910D01*
X146110552Y-42745026D01*
X146130543Y-42733044D01*
X146151613Y-42723079D01*
X146173557Y-42715227D01*
X146196166Y-42709563D01*
X146219221Y-42706144D01*
X146242500Y-42705000D01*
X146817500Y-42705000D01*
X146840779Y-42706144D01*
G37*
G36*
X145090779Y-42706144D02*
G01*
X145113834Y-42709563D01*
X145136443Y-42715227D01*
X145158387Y-42723079D01*
X145179457Y-42733044D01*
X145199448Y-42745026D01*
X145218168Y-42758910D01*
X145235438Y-42774562D01*
X145251090Y-42791832D01*
X145264974Y-42810552D01*
X145276956Y-42830543D01*
X145286921Y-42851613D01*
X145294773Y-42873557D01*
X145300437Y-42896166D01*
X145303856Y-42919221D01*
X145305000Y-42942500D01*
X145305000Y-43417500D01*
X145303856Y-43440779D01*
X145300437Y-43463834D01*
X145294773Y-43486443D01*
X145286921Y-43508387D01*
X145276956Y-43529457D01*
X145264974Y-43549448D01*
X145251090Y-43568168D01*
X145235438Y-43585438D01*
X145218168Y-43601090D01*
X145199448Y-43614974D01*
X145179457Y-43626956D01*
X145158387Y-43636921D01*
X145136443Y-43644773D01*
X145113834Y-43650437D01*
X145090779Y-43653856D01*
X145067500Y-43655000D01*
X144492500Y-43655000D01*
X144469221Y-43653856D01*
X144446166Y-43650437D01*
X144423557Y-43644773D01*
X144401613Y-43636921D01*
X144380543Y-43626956D01*
X144360552Y-43614974D01*
X144341832Y-43601090D01*
X144324562Y-43585438D01*
X144308910Y-43568168D01*
X144295026Y-43549448D01*
X144283044Y-43529457D01*
X144273079Y-43508387D01*
X144265227Y-43486443D01*
X144259563Y-43463834D01*
X144256144Y-43440779D01*
X144255000Y-43417500D01*
X144255000Y-42942500D01*
X144256144Y-42919221D01*
X144259563Y-42896166D01*
X144265227Y-42873557D01*
X144273079Y-42851613D01*
X144283044Y-42830543D01*
X144295026Y-42810552D01*
X144308910Y-42791832D01*
X144324562Y-42774562D01*
X144341832Y-42758910D01*
X144360552Y-42745026D01*
X144380543Y-42733044D01*
X144401613Y-42723079D01*
X144423557Y-42715227D01*
X144446166Y-42709563D01*
X144469221Y-42706144D01*
X144492500Y-42705000D01*
X145067500Y-42705000D01*
X145090779Y-42706144D01*
G37*
G36*
X107575779Y-70991144D02*
G01*
X107598834Y-70994563D01*
X107621443Y-71000227D01*
X107643387Y-71008079D01*
X107664457Y-71018044D01*
X107684448Y-71030026D01*
X107703168Y-71043910D01*
X107720438Y-71059562D01*
X107736090Y-71076832D01*
X107749974Y-71095552D01*
X107761956Y-71115543D01*
X107771921Y-71136613D01*
X107779773Y-71158557D01*
X107785437Y-71181166D01*
X107788856Y-71204221D01*
X107790000Y-71227500D01*
X107790000Y-71802500D01*
X107788856Y-71825779D01*
X107785437Y-71848834D01*
X107779773Y-71871443D01*
X107771921Y-71893387D01*
X107761956Y-71914457D01*
X107749974Y-71934448D01*
X107736090Y-71953168D01*
X107720438Y-71970438D01*
X107703168Y-71986090D01*
X107684448Y-71999974D01*
X107664457Y-72011956D01*
X107643387Y-72021921D01*
X107621443Y-72029773D01*
X107598834Y-72035437D01*
X107575779Y-72038856D01*
X107552500Y-72040000D01*
X107077500Y-72040000D01*
X107054221Y-72038856D01*
X107031166Y-72035437D01*
X107008557Y-72029773D01*
X106986613Y-72021921D01*
X106965543Y-72011956D01*
X106945552Y-71999974D01*
X106926832Y-71986090D01*
X106909562Y-71970438D01*
X106893910Y-71953168D01*
X106880026Y-71934448D01*
X106868044Y-71914457D01*
X106858079Y-71893387D01*
X106850227Y-71871443D01*
X106844563Y-71848834D01*
X106841144Y-71825779D01*
X106840000Y-71802500D01*
X106840000Y-71227500D01*
X106841144Y-71204221D01*
X106844563Y-71181166D01*
X106850227Y-71158557D01*
X106858079Y-71136613D01*
X106868044Y-71115543D01*
X106880026Y-71095552D01*
X106893910Y-71076832D01*
X106909562Y-71059562D01*
X106926832Y-71043910D01*
X106945552Y-71030026D01*
X106965543Y-71018044D01*
X106986613Y-71008079D01*
X107008557Y-71000227D01*
X107031166Y-70994563D01*
X107054221Y-70991144D01*
X107077500Y-70990000D01*
X107552500Y-70990000D01*
X107575779Y-70991144D01*
G37*
G36*
X107575779Y-72741144D02*
G01*
X107598834Y-72744563D01*
X107621443Y-72750227D01*
X107643387Y-72758079D01*
X107664457Y-72768044D01*
X107684448Y-72780026D01*
X107703168Y-72793910D01*
X107720438Y-72809562D01*
X107736090Y-72826832D01*
X107749974Y-72845552D01*
X107761956Y-72865543D01*
X107771921Y-72886613D01*
X107779773Y-72908557D01*
X107785437Y-72931166D01*
X107788856Y-72954221D01*
X107790000Y-72977500D01*
X107790000Y-73552500D01*
X107788856Y-73575779D01*
X107785437Y-73598834D01*
X107779773Y-73621443D01*
X107771921Y-73643387D01*
X107761956Y-73664457D01*
X107749974Y-73684448D01*
X107736090Y-73703168D01*
X107720438Y-73720438D01*
X107703168Y-73736090D01*
X107684448Y-73749974D01*
X107664457Y-73761956D01*
X107643387Y-73771921D01*
X107621443Y-73779773D01*
X107598834Y-73785437D01*
X107575779Y-73788856D01*
X107552500Y-73790000D01*
X107077500Y-73790000D01*
X107054221Y-73788856D01*
X107031166Y-73785437D01*
X107008557Y-73779773D01*
X106986613Y-73771921D01*
X106965543Y-73761956D01*
X106945552Y-73749974D01*
X106926832Y-73736090D01*
X106909562Y-73720438D01*
X106893910Y-73703168D01*
X106880026Y-73684448D01*
X106868044Y-73664457D01*
X106858079Y-73643387D01*
X106850227Y-73621443D01*
X106844563Y-73598834D01*
X106841144Y-73575779D01*
X106840000Y-73552500D01*
X106840000Y-72977500D01*
X106841144Y-72954221D01*
X106844563Y-72931166D01*
X106850227Y-72908557D01*
X106858079Y-72886613D01*
X106868044Y-72865543D01*
X106880026Y-72845552D01*
X106893910Y-72826832D01*
X106909562Y-72809562D01*
X106926832Y-72793910D01*
X106945552Y-72780026D01*
X106965543Y-72768044D01*
X106986613Y-72758079D01*
X107008557Y-72750227D01*
X107031166Y-72744563D01*
X107054221Y-72741144D01*
X107077500Y-72740000D01*
X107552500Y-72740000D01*
X107575779Y-72741144D01*
G37*
G36*
X105289779Y-71076144D02*
G01*
X105312834Y-71079563D01*
X105335443Y-71085227D01*
X105357387Y-71093079D01*
X105378457Y-71103044D01*
X105398448Y-71115026D01*
X105417168Y-71128910D01*
X105434438Y-71144562D01*
X105450090Y-71161832D01*
X105463974Y-71180552D01*
X105475956Y-71200543D01*
X105485921Y-71221613D01*
X105493773Y-71243557D01*
X105499437Y-71266166D01*
X105502856Y-71289221D01*
X105504000Y-71312500D01*
X105504000Y-71887500D01*
X105502856Y-71910779D01*
X105499437Y-71933834D01*
X105493773Y-71956443D01*
X105485921Y-71978387D01*
X105475956Y-71999457D01*
X105463974Y-72019448D01*
X105450090Y-72038168D01*
X105434438Y-72055438D01*
X105417168Y-72071090D01*
X105398448Y-72084974D01*
X105378457Y-72096956D01*
X105357387Y-72106921D01*
X105335443Y-72114773D01*
X105312834Y-72120437D01*
X105289779Y-72123856D01*
X105266500Y-72125000D01*
X104791500Y-72125000D01*
X104768221Y-72123856D01*
X104745166Y-72120437D01*
X104722557Y-72114773D01*
X104700613Y-72106921D01*
X104679543Y-72096956D01*
X104659552Y-72084974D01*
X104640832Y-72071090D01*
X104623562Y-72055438D01*
X104607910Y-72038168D01*
X104594026Y-72019448D01*
X104582044Y-71999457D01*
X104572079Y-71978387D01*
X104564227Y-71956443D01*
X104558563Y-71933834D01*
X104555144Y-71910779D01*
X104554000Y-71887500D01*
X104554000Y-71312500D01*
X104555144Y-71289221D01*
X104558563Y-71266166D01*
X104564227Y-71243557D01*
X104572079Y-71221613D01*
X104582044Y-71200543D01*
X104594026Y-71180552D01*
X104607910Y-71161832D01*
X104623562Y-71144562D01*
X104640832Y-71128910D01*
X104659552Y-71115026D01*
X104679543Y-71103044D01*
X104700613Y-71093079D01*
X104722557Y-71085227D01*
X104745166Y-71079563D01*
X104768221Y-71076144D01*
X104791500Y-71075000D01*
X105266500Y-71075000D01*
X105289779Y-71076144D01*
G37*
G36*
X105289779Y-69326144D02*
G01*
X105312834Y-69329563D01*
X105335443Y-69335227D01*
X105357387Y-69343079D01*
X105378457Y-69353044D01*
X105398448Y-69365026D01*
X105417168Y-69378910D01*
X105434438Y-69394562D01*
X105450090Y-69411832D01*
X105463974Y-69430552D01*
X105475956Y-69450543D01*
X105485921Y-69471613D01*
X105493773Y-69493557D01*
X105499437Y-69516166D01*
X105502856Y-69539221D01*
X105504000Y-69562500D01*
X105504000Y-70137500D01*
X105502856Y-70160779D01*
X105499437Y-70183834D01*
X105493773Y-70206443D01*
X105485921Y-70228387D01*
X105475956Y-70249457D01*
X105463974Y-70269448D01*
X105450090Y-70288168D01*
X105434438Y-70305438D01*
X105417168Y-70321090D01*
X105398448Y-70334974D01*
X105378457Y-70346956D01*
X105357387Y-70356921D01*
X105335443Y-70364773D01*
X105312834Y-70370437D01*
X105289779Y-70373856D01*
X105266500Y-70375000D01*
X104791500Y-70375000D01*
X104768221Y-70373856D01*
X104745166Y-70370437D01*
X104722557Y-70364773D01*
X104700613Y-70356921D01*
X104679543Y-70346956D01*
X104659552Y-70334974D01*
X104640832Y-70321090D01*
X104623562Y-70305438D01*
X104607910Y-70288168D01*
X104594026Y-70269448D01*
X104582044Y-70249457D01*
X104572079Y-70228387D01*
X104564227Y-70206443D01*
X104558563Y-70183834D01*
X104555144Y-70160779D01*
X104554000Y-70137500D01*
X104554000Y-69562500D01*
X104555144Y-69539221D01*
X104558563Y-69516166D01*
X104564227Y-69493557D01*
X104572079Y-69471613D01*
X104582044Y-69450543D01*
X104594026Y-69430552D01*
X104607910Y-69411832D01*
X104623562Y-69394562D01*
X104640832Y-69378910D01*
X104659552Y-69365026D01*
X104679543Y-69353044D01*
X104700613Y-69343079D01*
X104722557Y-69335227D01*
X104745166Y-69329563D01*
X104768221Y-69326144D01*
X104791500Y-69325000D01*
X105266500Y-69325000D01*
X105289779Y-69326144D01*
G37*
G36*
X119005779Y-74011144D02*
G01*
X119028834Y-74014563D01*
X119051443Y-74020227D01*
X119073387Y-74028079D01*
X119094457Y-74038044D01*
X119114448Y-74050026D01*
X119133168Y-74063910D01*
X119150438Y-74079562D01*
X119166090Y-74096832D01*
X119179974Y-74115552D01*
X119191956Y-74135543D01*
X119201921Y-74156613D01*
X119209773Y-74178557D01*
X119215437Y-74201166D01*
X119218856Y-74224221D01*
X119220000Y-74247500D01*
X119220000Y-74822500D01*
X119218856Y-74845779D01*
X119215437Y-74868834D01*
X119209773Y-74891443D01*
X119201921Y-74913387D01*
X119191956Y-74934457D01*
X119179974Y-74954448D01*
X119166090Y-74973168D01*
X119150438Y-74990438D01*
X119133168Y-75006090D01*
X119114448Y-75019974D01*
X119094457Y-75031956D01*
X119073387Y-75041921D01*
X119051443Y-75049773D01*
X119028834Y-75055437D01*
X119005779Y-75058856D01*
X118982500Y-75060000D01*
X118507500Y-75060000D01*
X118484221Y-75058856D01*
X118461166Y-75055437D01*
X118438557Y-75049773D01*
X118416613Y-75041921D01*
X118395543Y-75031956D01*
X118375552Y-75019974D01*
X118356832Y-75006090D01*
X118339562Y-74990438D01*
X118323910Y-74973168D01*
X118310026Y-74954448D01*
X118298044Y-74934457D01*
X118288079Y-74913387D01*
X118280227Y-74891443D01*
X118274563Y-74868834D01*
X118271144Y-74845779D01*
X118270000Y-74822500D01*
X118270000Y-74247500D01*
X118271144Y-74224221D01*
X118274563Y-74201166D01*
X118280227Y-74178557D01*
X118288079Y-74156613D01*
X118298044Y-74135543D01*
X118310026Y-74115552D01*
X118323910Y-74096832D01*
X118339562Y-74079562D01*
X118356832Y-74063910D01*
X118375552Y-74050026D01*
X118395543Y-74038044D01*
X118416613Y-74028079D01*
X118438557Y-74020227D01*
X118461166Y-74014563D01*
X118484221Y-74011144D01*
X118507500Y-74010000D01*
X118982500Y-74010000D01*
X119005779Y-74011144D01*
G37*
G36*
X119005779Y-72261144D02*
G01*
X119028834Y-72264563D01*
X119051443Y-72270227D01*
X119073387Y-72278079D01*
X119094457Y-72288044D01*
X119114448Y-72300026D01*
X119133168Y-72313910D01*
X119150438Y-72329562D01*
X119166090Y-72346832D01*
X119179974Y-72365552D01*
X119191956Y-72385543D01*
X119201921Y-72406613D01*
X119209773Y-72428557D01*
X119215437Y-72451166D01*
X119218856Y-72474221D01*
X119220000Y-72497500D01*
X119220000Y-73072500D01*
X119218856Y-73095779D01*
X119215437Y-73118834D01*
X119209773Y-73141443D01*
X119201921Y-73163387D01*
X119191956Y-73184457D01*
X119179974Y-73204448D01*
X119166090Y-73223168D01*
X119150438Y-73240438D01*
X119133168Y-73256090D01*
X119114448Y-73269974D01*
X119094457Y-73281956D01*
X119073387Y-73291921D01*
X119051443Y-73299773D01*
X119028834Y-73305437D01*
X119005779Y-73308856D01*
X118982500Y-73310000D01*
X118507500Y-73310000D01*
X118484221Y-73308856D01*
X118461166Y-73305437D01*
X118438557Y-73299773D01*
X118416613Y-73291921D01*
X118395543Y-73281956D01*
X118375552Y-73269974D01*
X118356832Y-73256090D01*
X118339562Y-73240438D01*
X118323910Y-73223168D01*
X118310026Y-73204448D01*
X118298044Y-73184457D01*
X118288079Y-73163387D01*
X118280227Y-73141443D01*
X118274563Y-73118834D01*
X118271144Y-73095779D01*
X118270000Y-73072500D01*
X118270000Y-72497500D01*
X118271144Y-72474221D01*
X118274563Y-72451166D01*
X118280227Y-72428557D01*
X118288079Y-72406613D01*
X118298044Y-72385543D01*
X118310026Y-72365552D01*
X118323910Y-72346832D01*
X118339562Y-72329562D01*
X118356832Y-72313910D01*
X118375552Y-72300026D01*
X118395543Y-72288044D01*
X118416613Y-72278079D01*
X118438557Y-72270227D01*
X118461166Y-72264563D01*
X118484221Y-72261144D01*
X118507500Y-72260000D01*
X118982500Y-72260000D01*
X119005779Y-72261144D01*
G37*
G36*
X119005779Y-68451144D02*
G01*
X119028834Y-68454563D01*
X119051443Y-68460227D01*
X119073387Y-68468079D01*
X119094457Y-68478044D01*
X119114448Y-68490026D01*
X119133168Y-68503910D01*
X119150438Y-68519562D01*
X119166090Y-68536832D01*
X119179974Y-68555552D01*
X119191956Y-68575543D01*
X119201921Y-68596613D01*
X119209773Y-68618557D01*
X119215437Y-68641166D01*
X119218856Y-68664221D01*
X119220000Y-68687500D01*
X119220000Y-69262500D01*
X119218856Y-69285779D01*
X119215437Y-69308834D01*
X119209773Y-69331443D01*
X119201921Y-69353387D01*
X119191956Y-69374457D01*
X119179974Y-69394448D01*
X119166090Y-69413168D01*
X119150438Y-69430438D01*
X119133168Y-69446090D01*
X119114448Y-69459974D01*
X119094457Y-69471956D01*
X119073387Y-69481921D01*
X119051443Y-69489773D01*
X119028834Y-69495437D01*
X119005779Y-69498856D01*
X118982500Y-69500000D01*
X118507500Y-69500000D01*
X118484221Y-69498856D01*
X118461166Y-69495437D01*
X118438557Y-69489773D01*
X118416613Y-69481921D01*
X118395543Y-69471956D01*
X118375552Y-69459974D01*
X118356832Y-69446090D01*
X118339562Y-69430438D01*
X118323910Y-69413168D01*
X118310026Y-69394448D01*
X118298044Y-69374457D01*
X118288079Y-69353387D01*
X118280227Y-69331443D01*
X118274563Y-69308834D01*
X118271144Y-69285779D01*
X118270000Y-69262500D01*
X118270000Y-68687500D01*
X118271144Y-68664221D01*
X118274563Y-68641166D01*
X118280227Y-68618557D01*
X118288079Y-68596613D01*
X118298044Y-68575543D01*
X118310026Y-68555552D01*
X118323910Y-68536832D01*
X118339562Y-68519562D01*
X118356832Y-68503910D01*
X118375552Y-68490026D01*
X118395543Y-68478044D01*
X118416613Y-68468079D01*
X118438557Y-68460227D01*
X118461166Y-68454563D01*
X118484221Y-68451144D01*
X118507500Y-68450000D01*
X118982500Y-68450000D01*
X119005779Y-68451144D01*
G37*
G36*
X119005779Y-70201144D02*
G01*
X119028834Y-70204563D01*
X119051443Y-70210227D01*
X119073387Y-70218079D01*
X119094457Y-70228044D01*
X119114448Y-70240026D01*
X119133168Y-70253910D01*
X119150438Y-70269562D01*
X119166090Y-70286832D01*
X119179974Y-70305552D01*
X119191956Y-70325543D01*
X119201921Y-70346613D01*
X119209773Y-70368557D01*
X119215437Y-70391166D01*
X119218856Y-70414221D01*
X119220000Y-70437500D01*
X119220000Y-71012500D01*
X119218856Y-71035779D01*
X119215437Y-71058834D01*
X119209773Y-71081443D01*
X119201921Y-71103387D01*
X119191956Y-71124457D01*
X119179974Y-71144448D01*
X119166090Y-71163168D01*
X119150438Y-71180438D01*
X119133168Y-71196090D01*
X119114448Y-71209974D01*
X119094457Y-71221956D01*
X119073387Y-71231921D01*
X119051443Y-71239773D01*
X119028834Y-71245437D01*
X119005779Y-71248856D01*
X118982500Y-71250000D01*
X118507500Y-71250000D01*
X118484221Y-71248856D01*
X118461166Y-71245437D01*
X118438557Y-71239773D01*
X118416613Y-71231921D01*
X118395543Y-71221956D01*
X118375552Y-71209974D01*
X118356832Y-71196090D01*
X118339562Y-71180438D01*
X118323910Y-71163168D01*
X118310026Y-71144448D01*
X118298044Y-71124457D01*
X118288079Y-71103387D01*
X118280227Y-71081443D01*
X118274563Y-71058834D01*
X118271144Y-71035779D01*
X118270000Y-71012500D01*
X118270000Y-70437500D01*
X118271144Y-70414221D01*
X118274563Y-70391166D01*
X118280227Y-70368557D01*
X118288079Y-70346613D01*
X118298044Y-70325543D01*
X118310026Y-70305552D01*
X118323910Y-70286832D01*
X118339562Y-70269562D01*
X118356832Y-70253910D01*
X118375552Y-70240026D01*
X118395543Y-70228044D01*
X118416613Y-70218079D01*
X118438557Y-70210227D01*
X118461166Y-70204563D01*
X118484221Y-70201144D01*
X118507500Y-70200000D01*
X118982500Y-70200000D01*
X119005779Y-70201144D01*
G37*
G36*
X138055779Y-58686144D02*
G01*
X138078834Y-58689563D01*
X138101443Y-58695227D01*
X138123387Y-58703079D01*
X138144457Y-58713044D01*
X138164448Y-58725026D01*
X138183168Y-58738910D01*
X138200438Y-58754562D01*
X138216090Y-58771832D01*
X138229974Y-58790552D01*
X138241956Y-58810543D01*
X138251921Y-58831613D01*
X138259773Y-58853557D01*
X138265437Y-58876166D01*
X138268856Y-58899221D01*
X138270000Y-58922500D01*
X138270000Y-59497500D01*
X138268856Y-59520779D01*
X138265437Y-59543834D01*
X138259773Y-59566443D01*
X138251921Y-59588387D01*
X138241956Y-59609457D01*
X138229974Y-59629448D01*
X138216090Y-59648168D01*
X138200438Y-59665438D01*
X138183168Y-59681090D01*
X138164448Y-59694974D01*
X138144457Y-59706956D01*
X138123387Y-59716921D01*
X138101443Y-59724773D01*
X138078834Y-59730437D01*
X138055779Y-59733856D01*
X138032500Y-59735000D01*
X137557500Y-59735000D01*
X137534221Y-59733856D01*
X137511166Y-59730437D01*
X137488557Y-59724773D01*
X137466613Y-59716921D01*
X137445543Y-59706956D01*
X137425552Y-59694974D01*
X137406832Y-59681090D01*
X137389562Y-59665438D01*
X137373910Y-59648168D01*
X137360026Y-59629448D01*
X137348044Y-59609457D01*
X137338079Y-59588387D01*
X137330227Y-59566443D01*
X137324563Y-59543834D01*
X137321144Y-59520779D01*
X137320000Y-59497500D01*
X137320000Y-58922500D01*
X137321144Y-58899221D01*
X137324563Y-58876166D01*
X137330227Y-58853557D01*
X137338079Y-58831613D01*
X137348044Y-58810543D01*
X137360026Y-58790552D01*
X137373910Y-58771832D01*
X137389562Y-58754562D01*
X137406832Y-58738910D01*
X137425552Y-58725026D01*
X137445543Y-58713044D01*
X137466613Y-58703079D01*
X137488557Y-58695227D01*
X137511166Y-58689563D01*
X137534221Y-58686144D01*
X137557500Y-58685000D01*
X138032500Y-58685000D01*
X138055779Y-58686144D01*
G37*
G36*
X138055779Y-60436144D02*
G01*
X138078834Y-60439563D01*
X138101443Y-60445227D01*
X138123387Y-60453079D01*
X138144457Y-60463044D01*
X138164448Y-60475026D01*
X138183168Y-60488910D01*
X138200438Y-60504562D01*
X138216090Y-60521832D01*
X138229974Y-60540552D01*
X138241956Y-60560543D01*
X138251921Y-60581613D01*
X138259773Y-60603557D01*
X138265437Y-60626166D01*
X138268856Y-60649221D01*
X138270000Y-60672500D01*
X138270000Y-61247500D01*
X138268856Y-61270779D01*
X138265437Y-61293834D01*
X138259773Y-61316443D01*
X138251921Y-61338387D01*
X138241956Y-61359457D01*
X138229974Y-61379448D01*
X138216090Y-61398168D01*
X138200438Y-61415438D01*
X138183168Y-61431090D01*
X138164448Y-61444974D01*
X138144457Y-61456956D01*
X138123387Y-61466921D01*
X138101443Y-61474773D01*
X138078834Y-61480437D01*
X138055779Y-61483856D01*
X138032500Y-61485000D01*
X137557500Y-61485000D01*
X137534221Y-61483856D01*
X137511166Y-61480437D01*
X137488557Y-61474773D01*
X137466613Y-61466921D01*
X137445543Y-61456956D01*
X137425552Y-61444974D01*
X137406832Y-61431090D01*
X137389562Y-61415438D01*
X137373910Y-61398168D01*
X137360026Y-61379448D01*
X137348044Y-61359457D01*
X137338079Y-61338387D01*
X137330227Y-61316443D01*
X137324563Y-61293834D01*
X137321144Y-61270779D01*
X137320000Y-61247500D01*
X137320000Y-60672500D01*
X137321144Y-60649221D01*
X137324563Y-60626166D01*
X137330227Y-60603557D01*
X137338079Y-60581613D01*
X137348044Y-60560543D01*
X137360026Y-60540552D01*
X137373910Y-60521832D01*
X137389562Y-60504562D01*
X137406832Y-60488910D01*
X137425552Y-60475026D01*
X137445543Y-60463044D01*
X137466613Y-60453079D01*
X137488557Y-60445227D01*
X137511166Y-60439563D01*
X137534221Y-60436144D01*
X137557500Y-60435000D01*
X138032500Y-60435000D01*
X138055779Y-60436144D01*
G37*
G36*
X125355779Y-61071144D02*
G01*
X125378834Y-61074563D01*
X125401443Y-61080227D01*
X125423387Y-61088079D01*
X125444457Y-61098044D01*
X125464448Y-61110026D01*
X125483168Y-61123910D01*
X125500438Y-61139562D01*
X125516090Y-61156832D01*
X125529974Y-61175552D01*
X125541956Y-61195543D01*
X125551921Y-61216613D01*
X125559773Y-61238557D01*
X125565437Y-61261166D01*
X125568856Y-61284221D01*
X125570000Y-61307500D01*
X125570000Y-61882500D01*
X125568856Y-61905779D01*
X125565437Y-61928834D01*
X125559773Y-61951443D01*
X125551921Y-61973387D01*
X125541956Y-61994457D01*
X125529974Y-62014448D01*
X125516090Y-62033168D01*
X125500438Y-62050438D01*
X125483168Y-62066090D01*
X125464448Y-62079974D01*
X125444457Y-62091956D01*
X125423387Y-62101921D01*
X125401443Y-62109773D01*
X125378834Y-62115437D01*
X125355779Y-62118856D01*
X125332500Y-62120000D01*
X124857500Y-62120000D01*
X124834221Y-62118856D01*
X124811166Y-62115437D01*
X124788557Y-62109773D01*
X124766613Y-62101921D01*
X124745543Y-62091956D01*
X124725552Y-62079974D01*
X124706832Y-62066090D01*
X124689562Y-62050438D01*
X124673910Y-62033168D01*
X124660026Y-62014448D01*
X124648044Y-61994457D01*
X124638079Y-61973387D01*
X124630227Y-61951443D01*
X124624563Y-61928834D01*
X124621144Y-61905779D01*
X124620000Y-61882500D01*
X124620000Y-61307500D01*
X124621144Y-61284221D01*
X124624563Y-61261166D01*
X124630227Y-61238557D01*
X124638079Y-61216613D01*
X124648044Y-61195543D01*
X124660026Y-61175552D01*
X124673910Y-61156832D01*
X124689562Y-61139562D01*
X124706832Y-61123910D01*
X124725552Y-61110026D01*
X124745543Y-61098044D01*
X124766613Y-61088079D01*
X124788557Y-61080227D01*
X124811166Y-61074563D01*
X124834221Y-61071144D01*
X124857500Y-61070000D01*
X125332500Y-61070000D01*
X125355779Y-61071144D01*
G37*
G36*
X125355779Y-62821144D02*
G01*
X125378834Y-62824563D01*
X125401443Y-62830227D01*
X125423387Y-62838079D01*
X125444457Y-62848044D01*
X125464448Y-62860026D01*
X125483168Y-62873910D01*
X125500438Y-62889562D01*
X125516090Y-62906832D01*
X125529974Y-62925552D01*
X125541956Y-62945543D01*
X125551921Y-62966613D01*
X125559773Y-62988557D01*
X125565437Y-63011166D01*
X125568856Y-63034221D01*
X125570000Y-63057500D01*
X125570000Y-63632500D01*
X125568856Y-63655779D01*
X125565437Y-63678834D01*
X125559773Y-63701443D01*
X125551921Y-63723387D01*
X125541956Y-63744457D01*
X125529974Y-63764448D01*
X125516090Y-63783168D01*
X125500438Y-63800438D01*
X125483168Y-63816090D01*
X125464448Y-63829974D01*
X125444457Y-63841956D01*
X125423387Y-63851921D01*
X125401443Y-63859773D01*
X125378834Y-63865437D01*
X125355779Y-63868856D01*
X125332500Y-63870000D01*
X124857500Y-63870000D01*
X124834221Y-63868856D01*
X124811166Y-63865437D01*
X124788557Y-63859773D01*
X124766613Y-63851921D01*
X124745543Y-63841956D01*
X124725552Y-63829974D01*
X124706832Y-63816090D01*
X124689562Y-63800438D01*
X124673910Y-63783168D01*
X124660026Y-63764448D01*
X124648044Y-63744457D01*
X124638079Y-63723387D01*
X124630227Y-63701443D01*
X124624563Y-63678834D01*
X124621144Y-63655779D01*
X124620000Y-63632500D01*
X124620000Y-63057500D01*
X124621144Y-63034221D01*
X124624563Y-63011166D01*
X124630227Y-62988557D01*
X124638079Y-62966613D01*
X124648044Y-62945543D01*
X124660026Y-62925552D01*
X124673910Y-62906832D01*
X124689562Y-62889562D01*
X124706832Y-62873910D01*
X124725552Y-62860026D01*
X124745543Y-62848044D01*
X124766613Y-62838079D01*
X124788557Y-62830227D01*
X124811166Y-62824563D01*
X124834221Y-62821144D01*
X124857500Y-62820000D01*
X125332500Y-62820000D01*
X125355779Y-62821144D01*
G37*
G36*
X125391779Y-58200144D02*
G01*
X125414834Y-58203563D01*
X125437443Y-58209227D01*
X125459387Y-58217079D01*
X125480457Y-58227044D01*
X125500448Y-58239026D01*
X125519168Y-58252910D01*
X125536438Y-58268562D01*
X125552090Y-58285832D01*
X125565974Y-58304552D01*
X125577956Y-58324543D01*
X125587921Y-58345613D01*
X125595773Y-58367557D01*
X125601437Y-58390166D01*
X125604856Y-58413221D01*
X125606000Y-58436500D01*
X125606000Y-58911500D01*
X125604856Y-58934779D01*
X125601437Y-58957834D01*
X125595773Y-58980443D01*
X125587921Y-59002387D01*
X125577956Y-59023457D01*
X125565974Y-59043448D01*
X125552090Y-59062168D01*
X125536438Y-59079438D01*
X125519168Y-59095090D01*
X125500448Y-59108974D01*
X125480457Y-59120956D01*
X125459387Y-59130921D01*
X125437443Y-59138773D01*
X125414834Y-59144437D01*
X125391779Y-59147856D01*
X125368500Y-59149000D01*
X124793500Y-59149000D01*
X124770221Y-59147856D01*
X124747166Y-59144437D01*
X124724557Y-59138773D01*
X124702613Y-59130921D01*
X124681543Y-59120956D01*
X124661552Y-59108974D01*
X124642832Y-59095090D01*
X124625562Y-59079438D01*
X124609910Y-59062168D01*
X124596026Y-59043448D01*
X124584044Y-59023457D01*
X124574079Y-59002387D01*
X124566227Y-58980443D01*
X124560563Y-58957834D01*
X124557144Y-58934779D01*
X124556000Y-58911500D01*
X124556000Y-58436500D01*
X124557144Y-58413221D01*
X124560563Y-58390166D01*
X124566227Y-58367557D01*
X124574079Y-58345613D01*
X124584044Y-58324543D01*
X124596026Y-58304552D01*
X124609910Y-58285832D01*
X124625562Y-58268562D01*
X124642832Y-58252910D01*
X124661552Y-58239026D01*
X124681543Y-58227044D01*
X124702613Y-58217079D01*
X124724557Y-58209227D01*
X124747166Y-58203563D01*
X124770221Y-58200144D01*
X124793500Y-58199000D01*
X125368500Y-58199000D01*
X125391779Y-58200144D01*
G37*
G36*
X123641779Y-58200144D02*
G01*
X123664834Y-58203563D01*
X123687443Y-58209227D01*
X123709387Y-58217079D01*
X123730457Y-58227044D01*
X123750448Y-58239026D01*
X123769168Y-58252910D01*
X123786438Y-58268562D01*
X123802090Y-58285832D01*
X123815974Y-58304552D01*
X123827956Y-58324543D01*
X123837921Y-58345613D01*
X123845773Y-58367557D01*
X123851437Y-58390166D01*
X123854856Y-58413221D01*
X123856000Y-58436500D01*
X123856000Y-58911500D01*
X123854856Y-58934779D01*
X123851437Y-58957834D01*
X123845773Y-58980443D01*
X123837921Y-59002387D01*
X123827956Y-59023457D01*
X123815974Y-59043448D01*
X123802090Y-59062168D01*
X123786438Y-59079438D01*
X123769168Y-59095090D01*
X123750448Y-59108974D01*
X123730457Y-59120956D01*
X123709387Y-59130921D01*
X123687443Y-59138773D01*
X123664834Y-59144437D01*
X123641779Y-59147856D01*
X123618500Y-59149000D01*
X123043500Y-59149000D01*
X123020221Y-59147856D01*
X122997166Y-59144437D01*
X122974557Y-59138773D01*
X122952613Y-59130921D01*
X122931543Y-59120956D01*
X122911552Y-59108974D01*
X122892832Y-59095090D01*
X122875562Y-59079438D01*
X122859910Y-59062168D01*
X122846026Y-59043448D01*
X122834044Y-59023457D01*
X122824079Y-59002387D01*
X122816227Y-58980443D01*
X122810563Y-58957834D01*
X122807144Y-58934779D01*
X122806000Y-58911500D01*
X122806000Y-58436500D01*
X122807144Y-58413221D01*
X122810563Y-58390166D01*
X122816227Y-58367557D01*
X122824079Y-58345613D01*
X122834044Y-58324543D01*
X122846026Y-58304552D01*
X122859910Y-58285832D01*
X122875562Y-58268562D01*
X122892832Y-58252910D01*
X122911552Y-58239026D01*
X122931543Y-58227044D01*
X122952613Y-58217079D01*
X122974557Y-58209227D01*
X122997166Y-58203563D01*
X123020221Y-58200144D01*
X123043500Y-58199000D01*
X123618500Y-58199000D01*
X123641779Y-58200144D01*
G37*
M02*
