G04 #@! TF.GenerationSoftware,KiCad,Pcbnew,5.1.5-52549c5~84~ubuntu18.04.1*
G04 #@! TF.CreationDate,2020-03-09T21:44:41-04:00*
G04 #@! TF.ProjectId,landfill_board_rev4,6c616e64-6669-46c6-9c5f-626f6172645f,rev?*
G04 #@! TF.SameCoordinates,Original*
G04 #@! TF.FileFunction,Soldermask,Top*
G04 #@! TF.FilePolarity,Negative*
%FSLAX46Y46*%
G04 Gerber Fmt 4.6, Leading zero omitted, Abs format (unit mm)*
G04 Created by KiCad (PCBNEW 5.1.5-52549c5~84~ubuntu18.04.1) date 2020-03-09 21:44:41*
%MOMM*%
%LPD*%
G04 APERTURE LIST*
%ADD10O,1.700000X1.700000*%
%ADD11R,1.700000X1.700000*%
%ADD12O,1.200000X1.750000*%
%ADD13C,0.100000*%
%ADD14O,2.300000X1.500000*%
%ADD15R,2.300000X1.500000*%
%ADD16R,0.550000X1.600000*%
%ADD17R,1.600000X0.550000*%
%ADD18O,1.750000X1.200000*%
%ADD19C,1.700000*%
%ADD20R,2.800000X2.800000*%
%ADD21R,2.200000X2.800000*%
%ADD22C,1.500000*%
%ADD23C,2.000000*%
%ADD24R,6.200000X3.900000*%
%ADD25R,4.400000X3.300000*%
%ADD26C,3.500000*%
G04 APERTURE END LIST*
D10*
X120650000Y-62865000D03*
X120650000Y-60325000D03*
D11*
X120650000Y-57785000D03*
D12*
X111792000Y-68961000D03*
D13*
G36*
X114166505Y-68087204D02*
G01*
X114190773Y-68090804D01*
X114214572Y-68096765D01*
X114237671Y-68105030D01*
X114259850Y-68115520D01*
X114280893Y-68128132D01*
X114300599Y-68142747D01*
X114318777Y-68159223D01*
X114335253Y-68177401D01*
X114349868Y-68197107D01*
X114362480Y-68218150D01*
X114372970Y-68240329D01*
X114381235Y-68263428D01*
X114387196Y-68287227D01*
X114390796Y-68311495D01*
X114392000Y-68335999D01*
X114392000Y-69586001D01*
X114390796Y-69610505D01*
X114387196Y-69634773D01*
X114381235Y-69658572D01*
X114372970Y-69681671D01*
X114362480Y-69703850D01*
X114349868Y-69724893D01*
X114335253Y-69744599D01*
X114318777Y-69762777D01*
X114300599Y-69779253D01*
X114280893Y-69793868D01*
X114259850Y-69806480D01*
X114237671Y-69816970D01*
X114214572Y-69825235D01*
X114190773Y-69831196D01*
X114166505Y-69834796D01*
X114142001Y-69836000D01*
X113441999Y-69836000D01*
X113417495Y-69834796D01*
X113393227Y-69831196D01*
X113369428Y-69825235D01*
X113346329Y-69816970D01*
X113324150Y-69806480D01*
X113303107Y-69793868D01*
X113283401Y-69779253D01*
X113265223Y-69762777D01*
X113248747Y-69744599D01*
X113234132Y-69724893D01*
X113221520Y-69703850D01*
X113211030Y-69681671D01*
X113202765Y-69658572D01*
X113196804Y-69634773D01*
X113193204Y-69610505D01*
X113192000Y-69586001D01*
X113192000Y-68335999D01*
X113193204Y-68311495D01*
X113196804Y-68287227D01*
X113202765Y-68263428D01*
X113211030Y-68240329D01*
X113221520Y-68218150D01*
X113234132Y-68197107D01*
X113248747Y-68177401D01*
X113265223Y-68159223D01*
X113283401Y-68142747D01*
X113303107Y-68128132D01*
X113324150Y-68115520D01*
X113346329Y-68105030D01*
X113369428Y-68096765D01*
X113393227Y-68090804D01*
X113417495Y-68087204D01*
X113441999Y-68086000D01*
X114142001Y-68086000D01*
X114166505Y-68087204D01*
G37*
D14*
X101600000Y-74930000D03*
X101600000Y-72390000D03*
D15*
X101600000Y-69850000D03*
D16*
X128205000Y-56640000D03*
X129005000Y-56640000D03*
X129805000Y-56640000D03*
X130605000Y-56640000D03*
X131405000Y-56640000D03*
X132205000Y-56640000D03*
X133005000Y-56640000D03*
X133805000Y-56640000D03*
D17*
X135255000Y-58090000D03*
X135255000Y-58890000D03*
X135255000Y-59690000D03*
X135255000Y-60490000D03*
X135255000Y-61290000D03*
X135255000Y-62090000D03*
X135255000Y-62890000D03*
X135255000Y-63690000D03*
D16*
X133805000Y-65140000D03*
X133005000Y-65140000D03*
X132205000Y-65140000D03*
X131405000Y-65140000D03*
X130605000Y-65140000D03*
X129805000Y-65140000D03*
X129005000Y-65140000D03*
X128205000Y-65140000D03*
D17*
X126755000Y-63690000D03*
X126755000Y-62890000D03*
X126755000Y-62090000D03*
X126755000Y-61290000D03*
X126755000Y-60490000D03*
X126755000Y-59690000D03*
X126755000Y-58890000D03*
X126755000Y-58090000D03*
D18*
X144145000Y-64040000D03*
D13*
G36*
X144794505Y-65441204D02*
G01*
X144818773Y-65444804D01*
X144842572Y-65450765D01*
X144865671Y-65459030D01*
X144887850Y-65469520D01*
X144908893Y-65482132D01*
X144928599Y-65496747D01*
X144946777Y-65513223D01*
X144963253Y-65531401D01*
X144977868Y-65551107D01*
X144990480Y-65572150D01*
X145000970Y-65594329D01*
X145009235Y-65617428D01*
X145015196Y-65641227D01*
X145018796Y-65665495D01*
X145020000Y-65689999D01*
X145020000Y-66390001D01*
X145018796Y-66414505D01*
X145015196Y-66438773D01*
X145009235Y-66462572D01*
X145000970Y-66485671D01*
X144990480Y-66507850D01*
X144977868Y-66528893D01*
X144963253Y-66548599D01*
X144946777Y-66566777D01*
X144928599Y-66583253D01*
X144908893Y-66597868D01*
X144887850Y-66610480D01*
X144865671Y-66620970D01*
X144842572Y-66629235D01*
X144818773Y-66635196D01*
X144794505Y-66638796D01*
X144770001Y-66640000D01*
X143519999Y-66640000D01*
X143495495Y-66638796D01*
X143471227Y-66635196D01*
X143447428Y-66629235D01*
X143424329Y-66620970D01*
X143402150Y-66610480D01*
X143381107Y-66597868D01*
X143361401Y-66583253D01*
X143343223Y-66566777D01*
X143326747Y-66548599D01*
X143312132Y-66528893D01*
X143299520Y-66507850D01*
X143289030Y-66485671D01*
X143280765Y-66462572D01*
X143274804Y-66438773D01*
X143271204Y-66414505D01*
X143270000Y-66390001D01*
X143270000Y-65689999D01*
X143271204Y-65665495D01*
X143274804Y-65641227D01*
X143280765Y-65617428D01*
X143289030Y-65594329D01*
X143299520Y-65572150D01*
X143312132Y-65551107D01*
X143326747Y-65531401D01*
X143343223Y-65513223D01*
X143361401Y-65496747D01*
X143381107Y-65482132D01*
X143402150Y-65469520D01*
X143424329Y-65459030D01*
X143447428Y-65450765D01*
X143471227Y-65444804D01*
X143495495Y-65441204D01*
X143519999Y-65440000D01*
X144770001Y-65440000D01*
X144794505Y-65441204D01*
G37*
D18*
X153078000Y-64040000D03*
D13*
G36*
X153727505Y-65441204D02*
G01*
X153751773Y-65444804D01*
X153775572Y-65450765D01*
X153798671Y-65459030D01*
X153820850Y-65469520D01*
X153841893Y-65482132D01*
X153861599Y-65496747D01*
X153879777Y-65513223D01*
X153896253Y-65531401D01*
X153910868Y-65551107D01*
X153923480Y-65572150D01*
X153933970Y-65594329D01*
X153942235Y-65617428D01*
X153948196Y-65641227D01*
X153951796Y-65665495D01*
X153953000Y-65689999D01*
X153953000Y-66390001D01*
X153951796Y-66414505D01*
X153948196Y-66438773D01*
X153942235Y-66462572D01*
X153933970Y-66485671D01*
X153923480Y-66507850D01*
X153910868Y-66528893D01*
X153896253Y-66548599D01*
X153879777Y-66566777D01*
X153861599Y-66583253D01*
X153841893Y-66597868D01*
X153820850Y-66610480D01*
X153798671Y-66620970D01*
X153775572Y-66629235D01*
X153751773Y-66635196D01*
X153727505Y-66638796D01*
X153703001Y-66640000D01*
X152452999Y-66640000D01*
X152428495Y-66638796D01*
X152404227Y-66635196D01*
X152380428Y-66629235D01*
X152357329Y-66620970D01*
X152335150Y-66610480D01*
X152314107Y-66597868D01*
X152294401Y-66583253D01*
X152276223Y-66566777D01*
X152259747Y-66548599D01*
X152245132Y-66528893D01*
X152232520Y-66507850D01*
X152222030Y-66485671D01*
X152213765Y-66462572D01*
X152207804Y-66438773D01*
X152204204Y-66414505D01*
X152203000Y-66390001D01*
X152203000Y-65689999D01*
X152204204Y-65665495D01*
X152207804Y-65641227D01*
X152213765Y-65617428D01*
X152222030Y-65594329D01*
X152232520Y-65572150D01*
X152245132Y-65551107D01*
X152259747Y-65531401D01*
X152276223Y-65513223D01*
X152294401Y-65496747D01*
X152314107Y-65482132D01*
X152335150Y-65469520D01*
X152357329Y-65459030D01*
X152380428Y-65450765D01*
X152404227Y-65444804D01*
X152428495Y-65441204D01*
X152452999Y-65440000D01*
X153703001Y-65440000D01*
X153727505Y-65441204D01*
G37*
D18*
X154178000Y-74644000D03*
D13*
G36*
X154827505Y-72045204D02*
G01*
X154851773Y-72048804D01*
X154875572Y-72054765D01*
X154898671Y-72063030D01*
X154920850Y-72073520D01*
X154941893Y-72086132D01*
X154961599Y-72100747D01*
X154979777Y-72117223D01*
X154996253Y-72135401D01*
X155010868Y-72155107D01*
X155023480Y-72176150D01*
X155033970Y-72198329D01*
X155042235Y-72221428D01*
X155048196Y-72245227D01*
X155051796Y-72269495D01*
X155053000Y-72293999D01*
X155053000Y-72994001D01*
X155051796Y-73018505D01*
X155048196Y-73042773D01*
X155042235Y-73066572D01*
X155033970Y-73089671D01*
X155023480Y-73111850D01*
X155010868Y-73132893D01*
X154996253Y-73152599D01*
X154979777Y-73170777D01*
X154961599Y-73187253D01*
X154941893Y-73201868D01*
X154920850Y-73214480D01*
X154898671Y-73224970D01*
X154875572Y-73233235D01*
X154851773Y-73239196D01*
X154827505Y-73242796D01*
X154803001Y-73244000D01*
X153552999Y-73244000D01*
X153528495Y-73242796D01*
X153504227Y-73239196D01*
X153480428Y-73233235D01*
X153457329Y-73224970D01*
X153435150Y-73214480D01*
X153414107Y-73201868D01*
X153394401Y-73187253D01*
X153376223Y-73170777D01*
X153359747Y-73152599D01*
X153345132Y-73132893D01*
X153332520Y-73111850D01*
X153322030Y-73089671D01*
X153313765Y-73066572D01*
X153307804Y-73042773D01*
X153304204Y-73018505D01*
X153303000Y-72994001D01*
X153303000Y-72293999D01*
X153304204Y-72269495D01*
X153307804Y-72245227D01*
X153313765Y-72221428D01*
X153322030Y-72198329D01*
X153332520Y-72176150D01*
X153345132Y-72155107D01*
X153359747Y-72135401D01*
X153376223Y-72117223D01*
X153394401Y-72100747D01*
X153414107Y-72086132D01*
X153435150Y-72073520D01*
X153457329Y-72063030D01*
X153480428Y-72054765D01*
X153504227Y-72048804D01*
X153528495Y-72045204D01*
X153552999Y-72044000D01*
X154803001Y-72044000D01*
X154827505Y-72045204D01*
G37*
D18*
X145245000Y-74644000D03*
D13*
G36*
X145894505Y-72045204D02*
G01*
X145918773Y-72048804D01*
X145942572Y-72054765D01*
X145965671Y-72063030D01*
X145987850Y-72073520D01*
X146008893Y-72086132D01*
X146028599Y-72100747D01*
X146046777Y-72117223D01*
X146063253Y-72135401D01*
X146077868Y-72155107D01*
X146090480Y-72176150D01*
X146100970Y-72198329D01*
X146109235Y-72221428D01*
X146115196Y-72245227D01*
X146118796Y-72269495D01*
X146120000Y-72293999D01*
X146120000Y-72994001D01*
X146118796Y-73018505D01*
X146115196Y-73042773D01*
X146109235Y-73066572D01*
X146100970Y-73089671D01*
X146090480Y-73111850D01*
X146077868Y-73132893D01*
X146063253Y-73152599D01*
X146046777Y-73170777D01*
X146028599Y-73187253D01*
X146008893Y-73201868D01*
X145987850Y-73214480D01*
X145965671Y-73224970D01*
X145942572Y-73233235D01*
X145918773Y-73239196D01*
X145894505Y-73242796D01*
X145870001Y-73244000D01*
X144619999Y-73244000D01*
X144595495Y-73242796D01*
X144571227Y-73239196D01*
X144547428Y-73233235D01*
X144524329Y-73224970D01*
X144502150Y-73214480D01*
X144481107Y-73201868D01*
X144461401Y-73187253D01*
X144443223Y-73170777D01*
X144426747Y-73152599D01*
X144412132Y-73132893D01*
X144399520Y-73111850D01*
X144389030Y-73089671D01*
X144380765Y-73066572D01*
X144374804Y-73042773D01*
X144371204Y-73018505D01*
X144370000Y-72994001D01*
X144370000Y-72293999D01*
X144371204Y-72269495D01*
X144374804Y-72245227D01*
X144380765Y-72221428D01*
X144389030Y-72198329D01*
X144399520Y-72176150D01*
X144412132Y-72155107D01*
X144426747Y-72135401D01*
X144443223Y-72117223D01*
X144461401Y-72100747D01*
X144481107Y-72086132D01*
X144502150Y-72073520D01*
X144524329Y-72063030D01*
X144547428Y-72054765D01*
X144571227Y-72048804D01*
X144595495Y-72045204D01*
X144619999Y-72044000D01*
X145870001Y-72044000D01*
X145894505Y-72045204D01*
G37*
D18*
X154178000Y-57880000D03*
D13*
G36*
X154827505Y-55281204D02*
G01*
X154851773Y-55284804D01*
X154875572Y-55290765D01*
X154898671Y-55299030D01*
X154920850Y-55309520D01*
X154941893Y-55322132D01*
X154961599Y-55336747D01*
X154979777Y-55353223D01*
X154996253Y-55371401D01*
X155010868Y-55391107D01*
X155023480Y-55412150D01*
X155033970Y-55434329D01*
X155042235Y-55457428D01*
X155048196Y-55481227D01*
X155051796Y-55505495D01*
X155053000Y-55529999D01*
X155053000Y-56230001D01*
X155051796Y-56254505D01*
X155048196Y-56278773D01*
X155042235Y-56302572D01*
X155033970Y-56325671D01*
X155023480Y-56347850D01*
X155010868Y-56368893D01*
X154996253Y-56388599D01*
X154979777Y-56406777D01*
X154961599Y-56423253D01*
X154941893Y-56437868D01*
X154920850Y-56450480D01*
X154898671Y-56460970D01*
X154875572Y-56469235D01*
X154851773Y-56475196D01*
X154827505Y-56478796D01*
X154803001Y-56480000D01*
X153552999Y-56480000D01*
X153528495Y-56478796D01*
X153504227Y-56475196D01*
X153480428Y-56469235D01*
X153457329Y-56460970D01*
X153435150Y-56450480D01*
X153414107Y-56437868D01*
X153394401Y-56423253D01*
X153376223Y-56406777D01*
X153359747Y-56388599D01*
X153345132Y-56368893D01*
X153332520Y-56347850D01*
X153322030Y-56325671D01*
X153313765Y-56302572D01*
X153307804Y-56278773D01*
X153304204Y-56254505D01*
X153303000Y-56230001D01*
X153303000Y-55529999D01*
X153304204Y-55505495D01*
X153307804Y-55481227D01*
X153313765Y-55457428D01*
X153322030Y-55434329D01*
X153332520Y-55412150D01*
X153345132Y-55391107D01*
X153359747Y-55371401D01*
X153376223Y-55353223D01*
X153394401Y-55336747D01*
X153414107Y-55322132D01*
X153435150Y-55309520D01*
X153457329Y-55299030D01*
X153480428Y-55290765D01*
X153504227Y-55284804D01*
X153528495Y-55281204D01*
X153552999Y-55280000D01*
X154803001Y-55280000D01*
X154827505Y-55281204D01*
G37*
D18*
X145245000Y-57880000D03*
D13*
G36*
X145894505Y-55281204D02*
G01*
X145918773Y-55284804D01*
X145942572Y-55290765D01*
X145965671Y-55299030D01*
X145987850Y-55309520D01*
X146008893Y-55322132D01*
X146028599Y-55336747D01*
X146046777Y-55353223D01*
X146063253Y-55371401D01*
X146077868Y-55391107D01*
X146090480Y-55412150D01*
X146100970Y-55434329D01*
X146109235Y-55457428D01*
X146115196Y-55481227D01*
X146118796Y-55505495D01*
X146120000Y-55529999D01*
X146120000Y-56230001D01*
X146118796Y-56254505D01*
X146115196Y-56278773D01*
X146109235Y-56302572D01*
X146100970Y-56325671D01*
X146090480Y-56347850D01*
X146077868Y-56368893D01*
X146063253Y-56388599D01*
X146046777Y-56406777D01*
X146028599Y-56423253D01*
X146008893Y-56437868D01*
X145987850Y-56450480D01*
X145965671Y-56460970D01*
X145942572Y-56469235D01*
X145918773Y-56475196D01*
X145894505Y-56478796D01*
X145870001Y-56480000D01*
X144619999Y-56480000D01*
X144595495Y-56478796D01*
X144571227Y-56475196D01*
X144547428Y-56469235D01*
X144524329Y-56460970D01*
X144502150Y-56450480D01*
X144481107Y-56437868D01*
X144461401Y-56423253D01*
X144443223Y-56406777D01*
X144426747Y-56388599D01*
X144412132Y-56368893D01*
X144399520Y-56347850D01*
X144389030Y-56325671D01*
X144380765Y-56302572D01*
X144374804Y-56278773D01*
X144371204Y-56254505D01*
X144370000Y-56230001D01*
X144370000Y-55529999D01*
X144371204Y-55505495D01*
X144374804Y-55481227D01*
X144380765Y-55457428D01*
X144389030Y-55434329D01*
X144399520Y-55412150D01*
X144412132Y-55391107D01*
X144426747Y-55371401D01*
X144443223Y-55353223D01*
X144461401Y-55336747D01*
X144481107Y-55322132D01*
X144502150Y-55309520D01*
X144524329Y-55299030D01*
X144547428Y-55290765D01*
X144571227Y-55284804D01*
X144595495Y-55281204D01*
X144619999Y-55280000D01*
X145870001Y-55280000D01*
X145894505Y-55281204D01*
G37*
D18*
X153078000Y-47530000D03*
D13*
G36*
X153727505Y-48931204D02*
G01*
X153751773Y-48934804D01*
X153775572Y-48940765D01*
X153798671Y-48949030D01*
X153820850Y-48959520D01*
X153841893Y-48972132D01*
X153861599Y-48986747D01*
X153879777Y-49003223D01*
X153896253Y-49021401D01*
X153910868Y-49041107D01*
X153923480Y-49062150D01*
X153933970Y-49084329D01*
X153942235Y-49107428D01*
X153948196Y-49131227D01*
X153951796Y-49155495D01*
X153953000Y-49179999D01*
X153953000Y-49880001D01*
X153951796Y-49904505D01*
X153948196Y-49928773D01*
X153942235Y-49952572D01*
X153933970Y-49975671D01*
X153923480Y-49997850D01*
X153910868Y-50018893D01*
X153896253Y-50038599D01*
X153879777Y-50056777D01*
X153861599Y-50073253D01*
X153841893Y-50087868D01*
X153820850Y-50100480D01*
X153798671Y-50110970D01*
X153775572Y-50119235D01*
X153751773Y-50125196D01*
X153727505Y-50128796D01*
X153703001Y-50130000D01*
X152452999Y-50130000D01*
X152428495Y-50128796D01*
X152404227Y-50125196D01*
X152380428Y-50119235D01*
X152357329Y-50110970D01*
X152335150Y-50100480D01*
X152314107Y-50087868D01*
X152294401Y-50073253D01*
X152276223Y-50056777D01*
X152259747Y-50038599D01*
X152245132Y-50018893D01*
X152232520Y-49997850D01*
X152222030Y-49975671D01*
X152213765Y-49952572D01*
X152207804Y-49928773D01*
X152204204Y-49904505D01*
X152203000Y-49880001D01*
X152203000Y-49179999D01*
X152204204Y-49155495D01*
X152207804Y-49131227D01*
X152213765Y-49107428D01*
X152222030Y-49084329D01*
X152232520Y-49062150D01*
X152245132Y-49041107D01*
X152259747Y-49021401D01*
X152276223Y-49003223D01*
X152294401Y-48986747D01*
X152314107Y-48972132D01*
X152335150Y-48959520D01*
X152357329Y-48949030D01*
X152380428Y-48940765D01*
X152404227Y-48934804D01*
X152428495Y-48931204D01*
X152452999Y-48930000D01*
X153703001Y-48930000D01*
X153727505Y-48931204D01*
G37*
D18*
X144145000Y-47530000D03*
D13*
G36*
X144794505Y-48931204D02*
G01*
X144818773Y-48934804D01*
X144842572Y-48940765D01*
X144865671Y-48949030D01*
X144887850Y-48959520D01*
X144908893Y-48972132D01*
X144928599Y-48986747D01*
X144946777Y-49003223D01*
X144963253Y-49021401D01*
X144977868Y-49041107D01*
X144990480Y-49062150D01*
X145000970Y-49084329D01*
X145009235Y-49107428D01*
X145015196Y-49131227D01*
X145018796Y-49155495D01*
X145020000Y-49179999D01*
X145020000Y-49880001D01*
X145018796Y-49904505D01*
X145015196Y-49928773D01*
X145009235Y-49952572D01*
X145000970Y-49975671D01*
X144990480Y-49997850D01*
X144977868Y-50018893D01*
X144963253Y-50038599D01*
X144946777Y-50056777D01*
X144928599Y-50073253D01*
X144908893Y-50087868D01*
X144887850Y-50100480D01*
X144865671Y-50110970D01*
X144842572Y-50119235D01*
X144818773Y-50125196D01*
X144794505Y-50128796D01*
X144770001Y-50130000D01*
X143519999Y-50130000D01*
X143495495Y-50128796D01*
X143471227Y-50125196D01*
X143447428Y-50119235D01*
X143424329Y-50110970D01*
X143402150Y-50100480D01*
X143381107Y-50087868D01*
X143361401Y-50073253D01*
X143343223Y-50056777D01*
X143326747Y-50038599D01*
X143312132Y-50018893D01*
X143299520Y-49997850D01*
X143289030Y-49975671D01*
X143280765Y-49952572D01*
X143274804Y-49928773D01*
X143271204Y-49904505D01*
X143270000Y-49880001D01*
X143270000Y-49179999D01*
X143271204Y-49155495D01*
X143274804Y-49131227D01*
X143280765Y-49107428D01*
X143289030Y-49084329D01*
X143299520Y-49062150D01*
X143312132Y-49041107D01*
X143326747Y-49021401D01*
X143343223Y-49003223D01*
X143361401Y-48986747D01*
X143381107Y-48972132D01*
X143402150Y-48959520D01*
X143424329Y-48949030D01*
X143447428Y-48940765D01*
X143471227Y-48934804D01*
X143495495Y-48931204D01*
X143519999Y-48930000D01*
X144770001Y-48930000D01*
X144794505Y-48931204D01*
G37*
D18*
X132207000Y-49720000D03*
X132207000Y-47720000D03*
D13*
G36*
X132856505Y-45121204D02*
G01*
X132880773Y-45124804D01*
X132904572Y-45130765D01*
X132927671Y-45139030D01*
X132949850Y-45149520D01*
X132970893Y-45162132D01*
X132990599Y-45176747D01*
X133008777Y-45193223D01*
X133025253Y-45211401D01*
X133039868Y-45231107D01*
X133052480Y-45252150D01*
X133062970Y-45274329D01*
X133071235Y-45297428D01*
X133077196Y-45321227D01*
X133080796Y-45345495D01*
X133082000Y-45369999D01*
X133082000Y-46070001D01*
X133080796Y-46094505D01*
X133077196Y-46118773D01*
X133071235Y-46142572D01*
X133062970Y-46165671D01*
X133052480Y-46187850D01*
X133039868Y-46208893D01*
X133025253Y-46228599D01*
X133008777Y-46246777D01*
X132990599Y-46263253D01*
X132970893Y-46277868D01*
X132949850Y-46290480D01*
X132927671Y-46300970D01*
X132904572Y-46309235D01*
X132880773Y-46315196D01*
X132856505Y-46318796D01*
X132832001Y-46320000D01*
X131581999Y-46320000D01*
X131557495Y-46318796D01*
X131533227Y-46315196D01*
X131509428Y-46309235D01*
X131486329Y-46300970D01*
X131464150Y-46290480D01*
X131443107Y-46277868D01*
X131423401Y-46263253D01*
X131405223Y-46246777D01*
X131388747Y-46228599D01*
X131374132Y-46208893D01*
X131361520Y-46187850D01*
X131351030Y-46165671D01*
X131342765Y-46142572D01*
X131336804Y-46118773D01*
X131333204Y-46094505D01*
X131332000Y-46070001D01*
X131332000Y-45369999D01*
X131333204Y-45345495D01*
X131336804Y-45321227D01*
X131342765Y-45297428D01*
X131351030Y-45274329D01*
X131361520Y-45252150D01*
X131374132Y-45231107D01*
X131388747Y-45211401D01*
X131405223Y-45193223D01*
X131423401Y-45176747D01*
X131443107Y-45162132D01*
X131464150Y-45149520D01*
X131486329Y-45139030D01*
X131509428Y-45130765D01*
X131533227Y-45124804D01*
X131557495Y-45121204D01*
X131581999Y-45120000D01*
X132832001Y-45120000D01*
X132856505Y-45121204D01*
G37*
D18*
X153670000Y-38640000D03*
D13*
G36*
X154319505Y-40041204D02*
G01*
X154343773Y-40044804D01*
X154367572Y-40050765D01*
X154390671Y-40059030D01*
X154412850Y-40069520D01*
X154433893Y-40082132D01*
X154453599Y-40096747D01*
X154471777Y-40113223D01*
X154488253Y-40131401D01*
X154502868Y-40151107D01*
X154515480Y-40172150D01*
X154525970Y-40194329D01*
X154534235Y-40217428D01*
X154540196Y-40241227D01*
X154543796Y-40265495D01*
X154545000Y-40289999D01*
X154545000Y-40990001D01*
X154543796Y-41014505D01*
X154540196Y-41038773D01*
X154534235Y-41062572D01*
X154525970Y-41085671D01*
X154515480Y-41107850D01*
X154502868Y-41128893D01*
X154488253Y-41148599D01*
X154471777Y-41166777D01*
X154453599Y-41183253D01*
X154433893Y-41197868D01*
X154412850Y-41210480D01*
X154390671Y-41220970D01*
X154367572Y-41229235D01*
X154343773Y-41235196D01*
X154319505Y-41238796D01*
X154295001Y-41240000D01*
X153044999Y-41240000D01*
X153020495Y-41238796D01*
X152996227Y-41235196D01*
X152972428Y-41229235D01*
X152949329Y-41220970D01*
X152927150Y-41210480D01*
X152906107Y-41197868D01*
X152886401Y-41183253D01*
X152868223Y-41166777D01*
X152851747Y-41148599D01*
X152837132Y-41128893D01*
X152824520Y-41107850D01*
X152814030Y-41085671D01*
X152805765Y-41062572D01*
X152799804Y-41038773D01*
X152796204Y-41014505D01*
X152795000Y-40990001D01*
X152795000Y-40289999D01*
X152796204Y-40265495D01*
X152799804Y-40241227D01*
X152805765Y-40217428D01*
X152814030Y-40194329D01*
X152824520Y-40172150D01*
X152837132Y-40151107D01*
X152851747Y-40131401D01*
X152868223Y-40113223D01*
X152886401Y-40096747D01*
X152906107Y-40082132D01*
X152927150Y-40069520D01*
X152949329Y-40059030D01*
X152972428Y-40050765D01*
X152996227Y-40044804D01*
X153020495Y-40041204D01*
X153044999Y-40040000D01*
X154295001Y-40040000D01*
X154319505Y-40041204D01*
G37*
D18*
X146685000Y-38640000D03*
D13*
G36*
X147334505Y-40041204D02*
G01*
X147358773Y-40044804D01*
X147382572Y-40050765D01*
X147405671Y-40059030D01*
X147427850Y-40069520D01*
X147448893Y-40082132D01*
X147468599Y-40096747D01*
X147486777Y-40113223D01*
X147503253Y-40131401D01*
X147517868Y-40151107D01*
X147530480Y-40172150D01*
X147540970Y-40194329D01*
X147549235Y-40217428D01*
X147555196Y-40241227D01*
X147558796Y-40265495D01*
X147560000Y-40289999D01*
X147560000Y-40990001D01*
X147558796Y-41014505D01*
X147555196Y-41038773D01*
X147549235Y-41062572D01*
X147540970Y-41085671D01*
X147530480Y-41107850D01*
X147517868Y-41128893D01*
X147503253Y-41148599D01*
X147486777Y-41166777D01*
X147468599Y-41183253D01*
X147448893Y-41197868D01*
X147427850Y-41210480D01*
X147405671Y-41220970D01*
X147382572Y-41229235D01*
X147358773Y-41235196D01*
X147334505Y-41238796D01*
X147310001Y-41240000D01*
X146059999Y-41240000D01*
X146035495Y-41238796D01*
X146011227Y-41235196D01*
X145987428Y-41229235D01*
X145964329Y-41220970D01*
X145942150Y-41210480D01*
X145921107Y-41197868D01*
X145901401Y-41183253D01*
X145883223Y-41166777D01*
X145866747Y-41148599D01*
X145852132Y-41128893D01*
X145839520Y-41107850D01*
X145829030Y-41085671D01*
X145820765Y-41062572D01*
X145814804Y-41038773D01*
X145811204Y-41014505D01*
X145810000Y-40990001D01*
X145810000Y-40289999D01*
X145811204Y-40265495D01*
X145814804Y-40241227D01*
X145820765Y-40217428D01*
X145829030Y-40194329D01*
X145839520Y-40172150D01*
X145852132Y-40151107D01*
X145866747Y-40131401D01*
X145883223Y-40113223D01*
X145901401Y-40096747D01*
X145921107Y-40082132D01*
X145942150Y-40069520D01*
X145964329Y-40059030D01*
X145987428Y-40050765D01*
X146011227Y-40044804D01*
X146035495Y-40041204D01*
X146059999Y-40040000D01*
X147310001Y-40040000D01*
X147334505Y-40041204D01*
G37*
D19*
X109910000Y-41275000D03*
X102910000Y-41275000D03*
D20*
X111210000Y-44975000D03*
D21*
X101810000Y-44975000D03*
X103810000Y-37575000D03*
D22*
X121285000Y-74095000D03*
X121285000Y-69215000D03*
D13*
G36*
X136054703Y-75160722D02*
G01*
X136069264Y-75162882D01*
X136083543Y-75166459D01*
X136097403Y-75171418D01*
X136110710Y-75177712D01*
X136123336Y-75185280D01*
X136135159Y-75194048D01*
X136146066Y-75203934D01*
X136155952Y-75214841D01*
X136164720Y-75226664D01*
X136172288Y-75239290D01*
X136178582Y-75252597D01*
X136183541Y-75266457D01*
X136187118Y-75280736D01*
X136189278Y-75295297D01*
X136190000Y-75310000D01*
X136190000Y-76960000D01*
X136189278Y-76974703D01*
X136187118Y-76989264D01*
X136183541Y-77003543D01*
X136178582Y-77017403D01*
X136172288Y-77030710D01*
X136164720Y-77043336D01*
X136155952Y-77055159D01*
X136146066Y-77066066D01*
X136135159Y-77075952D01*
X136123336Y-77084720D01*
X136110710Y-77092288D01*
X136097403Y-77098582D01*
X136083543Y-77103541D01*
X136069264Y-77107118D01*
X136054703Y-77109278D01*
X136040000Y-77110000D01*
X135740000Y-77110000D01*
X135725297Y-77109278D01*
X135710736Y-77107118D01*
X135696457Y-77103541D01*
X135682597Y-77098582D01*
X135669290Y-77092288D01*
X135656664Y-77084720D01*
X135644841Y-77075952D01*
X135633934Y-77066066D01*
X135624048Y-77055159D01*
X135615280Y-77043336D01*
X135607712Y-77030710D01*
X135601418Y-77017403D01*
X135596459Y-77003543D01*
X135592882Y-76989264D01*
X135590722Y-76974703D01*
X135590000Y-76960000D01*
X135590000Y-75310000D01*
X135590722Y-75295297D01*
X135592882Y-75280736D01*
X135596459Y-75266457D01*
X135601418Y-75252597D01*
X135607712Y-75239290D01*
X135615280Y-75226664D01*
X135624048Y-75214841D01*
X135633934Y-75203934D01*
X135644841Y-75194048D01*
X135656664Y-75185280D01*
X135669290Y-75177712D01*
X135682597Y-75171418D01*
X135696457Y-75166459D01*
X135710736Y-75162882D01*
X135725297Y-75160722D01*
X135740000Y-75160000D01*
X136040000Y-75160000D01*
X136054703Y-75160722D01*
G37*
G36*
X134784703Y-75160722D02*
G01*
X134799264Y-75162882D01*
X134813543Y-75166459D01*
X134827403Y-75171418D01*
X134840710Y-75177712D01*
X134853336Y-75185280D01*
X134865159Y-75194048D01*
X134876066Y-75203934D01*
X134885952Y-75214841D01*
X134894720Y-75226664D01*
X134902288Y-75239290D01*
X134908582Y-75252597D01*
X134913541Y-75266457D01*
X134917118Y-75280736D01*
X134919278Y-75295297D01*
X134920000Y-75310000D01*
X134920000Y-76960000D01*
X134919278Y-76974703D01*
X134917118Y-76989264D01*
X134913541Y-77003543D01*
X134908582Y-77017403D01*
X134902288Y-77030710D01*
X134894720Y-77043336D01*
X134885952Y-77055159D01*
X134876066Y-77066066D01*
X134865159Y-77075952D01*
X134853336Y-77084720D01*
X134840710Y-77092288D01*
X134827403Y-77098582D01*
X134813543Y-77103541D01*
X134799264Y-77107118D01*
X134784703Y-77109278D01*
X134770000Y-77110000D01*
X134470000Y-77110000D01*
X134455297Y-77109278D01*
X134440736Y-77107118D01*
X134426457Y-77103541D01*
X134412597Y-77098582D01*
X134399290Y-77092288D01*
X134386664Y-77084720D01*
X134374841Y-77075952D01*
X134363934Y-77066066D01*
X134354048Y-77055159D01*
X134345280Y-77043336D01*
X134337712Y-77030710D01*
X134331418Y-77017403D01*
X134326459Y-77003543D01*
X134322882Y-76989264D01*
X134320722Y-76974703D01*
X134320000Y-76960000D01*
X134320000Y-75310000D01*
X134320722Y-75295297D01*
X134322882Y-75280736D01*
X134326459Y-75266457D01*
X134331418Y-75252597D01*
X134337712Y-75239290D01*
X134345280Y-75226664D01*
X134354048Y-75214841D01*
X134363934Y-75203934D01*
X134374841Y-75194048D01*
X134386664Y-75185280D01*
X134399290Y-75177712D01*
X134412597Y-75171418D01*
X134426457Y-75166459D01*
X134440736Y-75162882D01*
X134455297Y-75160722D01*
X134470000Y-75160000D01*
X134770000Y-75160000D01*
X134784703Y-75160722D01*
G37*
G36*
X133514703Y-75160722D02*
G01*
X133529264Y-75162882D01*
X133543543Y-75166459D01*
X133557403Y-75171418D01*
X133570710Y-75177712D01*
X133583336Y-75185280D01*
X133595159Y-75194048D01*
X133606066Y-75203934D01*
X133615952Y-75214841D01*
X133624720Y-75226664D01*
X133632288Y-75239290D01*
X133638582Y-75252597D01*
X133643541Y-75266457D01*
X133647118Y-75280736D01*
X133649278Y-75295297D01*
X133650000Y-75310000D01*
X133650000Y-76960000D01*
X133649278Y-76974703D01*
X133647118Y-76989264D01*
X133643541Y-77003543D01*
X133638582Y-77017403D01*
X133632288Y-77030710D01*
X133624720Y-77043336D01*
X133615952Y-77055159D01*
X133606066Y-77066066D01*
X133595159Y-77075952D01*
X133583336Y-77084720D01*
X133570710Y-77092288D01*
X133557403Y-77098582D01*
X133543543Y-77103541D01*
X133529264Y-77107118D01*
X133514703Y-77109278D01*
X133500000Y-77110000D01*
X133200000Y-77110000D01*
X133185297Y-77109278D01*
X133170736Y-77107118D01*
X133156457Y-77103541D01*
X133142597Y-77098582D01*
X133129290Y-77092288D01*
X133116664Y-77084720D01*
X133104841Y-77075952D01*
X133093934Y-77066066D01*
X133084048Y-77055159D01*
X133075280Y-77043336D01*
X133067712Y-77030710D01*
X133061418Y-77017403D01*
X133056459Y-77003543D01*
X133052882Y-76989264D01*
X133050722Y-76974703D01*
X133050000Y-76960000D01*
X133050000Y-75310000D01*
X133050722Y-75295297D01*
X133052882Y-75280736D01*
X133056459Y-75266457D01*
X133061418Y-75252597D01*
X133067712Y-75239290D01*
X133075280Y-75226664D01*
X133084048Y-75214841D01*
X133093934Y-75203934D01*
X133104841Y-75194048D01*
X133116664Y-75185280D01*
X133129290Y-75177712D01*
X133142597Y-75171418D01*
X133156457Y-75166459D01*
X133170736Y-75162882D01*
X133185297Y-75160722D01*
X133200000Y-75160000D01*
X133500000Y-75160000D01*
X133514703Y-75160722D01*
G37*
G36*
X132244703Y-75160722D02*
G01*
X132259264Y-75162882D01*
X132273543Y-75166459D01*
X132287403Y-75171418D01*
X132300710Y-75177712D01*
X132313336Y-75185280D01*
X132325159Y-75194048D01*
X132336066Y-75203934D01*
X132345952Y-75214841D01*
X132354720Y-75226664D01*
X132362288Y-75239290D01*
X132368582Y-75252597D01*
X132373541Y-75266457D01*
X132377118Y-75280736D01*
X132379278Y-75295297D01*
X132380000Y-75310000D01*
X132380000Y-76960000D01*
X132379278Y-76974703D01*
X132377118Y-76989264D01*
X132373541Y-77003543D01*
X132368582Y-77017403D01*
X132362288Y-77030710D01*
X132354720Y-77043336D01*
X132345952Y-77055159D01*
X132336066Y-77066066D01*
X132325159Y-77075952D01*
X132313336Y-77084720D01*
X132300710Y-77092288D01*
X132287403Y-77098582D01*
X132273543Y-77103541D01*
X132259264Y-77107118D01*
X132244703Y-77109278D01*
X132230000Y-77110000D01*
X131930000Y-77110000D01*
X131915297Y-77109278D01*
X131900736Y-77107118D01*
X131886457Y-77103541D01*
X131872597Y-77098582D01*
X131859290Y-77092288D01*
X131846664Y-77084720D01*
X131834841Y-77075952D01*
X131823934Y-77066066D01*
X131814048Y-77055159D01*
X131805280Y-77043336D01*
X131797712Y-77030710D01*
X131791418Y-77017403D01*
X131786459Y-77003543D01*
X131782882Y-76989264D01*
X131780722Y-76974703D01*
X131780000Y-76960000D01*
X131780000Y-75310000D01*
X131780722Y-75295297D01*
X131782882Y-75280736D01*
X131786459Y-75266457D01*
X131791418Y-75252597D01*
X131797712Y-75239290D01*
X131805280Y-75226664D01*
X131814048Y-75214841D01*
X131823934Y-75203934D01*
X131834841Y-75194048D01*
X131846664Y-75185280D01*
X131859290Y-75177712D01*
X131872597Y-75171418D01*
X131886457Y-75166459D01*
X131900736Y-75162882D01*
X131915297Y-75160722D01*
X131930000Y-75160000D01*
X132230000Y-75160000D01*
X132244703Y-75160722D01*
G37*
G36*
X130974703Y-75160722D02*
G01*
X130989264Y-75162882D01*
X131003543Y-75166459D01*
X131017403Y-75171418D01*
X131030710Y-75177712D01*
X131043336Y-75185280D01*
X131055159Y-75194048D01*
X131066066Y-75203934D01*
X131075952Y-75214841D01*
X131084720Y-75226664D01*
X131092288Y-75239290D01*
X131098582Y-75252597D01*
X131103541Y-75266457D01*
X131107118Y-75280736D01*
X131109278Y-75295297D01*
X131110000Y-75310000D01*
X131110000Y-76960000D01*
X131109278Y-76974703D01*
X131107118Y-76989264D01*
X131103541Y-77003543D01*
X131098582Y-77017403D01*
X131092288Y-77030710D01*
X131084720Y-77043336D01*
X131075952Y-77055159D01*
X131066066Y-77066066D01*
X131055159Y-77075952D01*
X131043336Y-77084720D01*
X131030710Y-77092288D01*
X131017403Y-77098582D01*
X131003543Y-77103541D01*
X130989264Y-77107118D01*
X130974703Y-77109278D01*
X130960000Y-77110000D01*
X130660000Y-77110000D01*
X130645297Y-77109278D01*
X130630736Y-77107118D01*
X130616457Y-77103541D01*
X130602597Y-77098582D01*
X130589290Y-77092288D01*
X130576664Y-77084720D01*
X130564841Y-77075952D01*
X130553934Y-77066066D01*
X130544048Y-77055159D01*
X130535280Y-77043336D01*
X130527712Y-77030710D01*
X130521418Y-77017403D01*
X130516459Y-77003543D01*
X130512882Y-76989264D01*
X130510722Y-76974703D01*
X130510000Y-76960000D01*
X130510000Y-75310000D01*
X130510722Y-75295297D01*
X130512882Y-75280736D01*
X130516459Y-75266457D01*
X130521418Y-75252597D01*
X130527712Y-75239290D01*
X130535280Y-75226664D01*
X130544048Y-75214841D01*
X130553934Y-75203934D01*
X130564841Y-75194048D01*
X130576664Y-75185280D01*
X130589290Y-75177712D01*
X130602597Y-75171418D01*
X130616457Y-75166459D01*
X130630736Y-75162882D01*
X130645297Y-75160722D01*
X130660000Y-75160000D01*
X130960000Y-75160000D01*
X130974703Y-75160722D01*
G37*
G36*
X129704703Y-75160722D02*
G01*
X129719264Y-75162882D01*
X129733543Y-75166459D01*
X129747403Y-75171418D01*
X129760710Y-75177712D01*
X129773336Y-75185280D01*
X129785159Y-75194048D01*
X129796066Y-75203934D01*
X129805952Y-75214841D01*
X129814720Y-75226664D01*
X129822288Y-75239290D01*
X129828582Y-75252597D01*
X129833541Y-75266457D01*
X129837118Y-75280736D01*
X129839278Y-75295297D01*
X129840000Y-75310000D01*
X129840000Y-76960000D01*
X129839278Y-76974703D01*
X129837118Y-76989264D01*
X129833541Y-77003543D01*
X129828582Y-77017403D01*
X129822288Y-77030710D01*
X129814720Y-77043336D01*
X129805952Y-77055159D01*
X129796066Y-77066066D01*
X129785159Y-77075952D01*
X129773336Y-77084720D01*
X129760710Y-77092288D01*
X129747403Y-77098582D01*
X129733543Y-77103541D01*
X129719264Y-77107118D01*
X129704703Y-77109278D01*
X129690000Y-77110000D01*
X129390000Y-77110000D01*
X129375297Y-77109278D01*
X129360736Y-77107118D01*
X129346457Y-77103541D01*
X129332597Y-77098582D01*
X129319290Y-77092288D01*
X129306664Y-77084720D01*
X129294841Y-77075952D01*
X129283934Y-77066066D01*
X129274048Y-77055159D01*
X129265280Y-77043336D01*
X129257712Y-77030710D01*
X129251418Y-77017403D01*
X129246459Y-77003543D01*
X129242882Y-76989264D01*
X129240722Y-76974703D01*
X129240000Y-76960000D01*
X129240000Y-75310000D01*
X129240722Y-75295297D01*
X129242882Y-75280736D01*
X129246459Y-75266457D01*
X129251418Y-75252597D01*
X129257712Y-75239290D01*
X129265280Y-75226664D01*
X129274048Y-75214841D01*
X129283934Y-75203934D01*
X129294841Y-75194048D01*
X129306664Y-75185280D01*
X129319290Y-75177712D01*
X129332597Y-75171418D01*
X129346457Y-75166459D01*
X129360736Y-75162882D01*
X129375297Y-75160722D01*
X129390000Y-75160000D01*
X129690000Y-75160000D01*
X129704703Y-75160722D01*
G37*
G36*
X128434703Y-75160722D02*
G01*
X128449264Y-75162882D01*
X128463543Y-75166459D01*
X128477403Y-75171418D01*
X128490710Y-75177712D01*
X128503336Y-75185280D01*
X128515159Y-75194048D01*
X128526066Y-75203934D01*
X128535952Y-75214841D01*
X128544720Y-75226664D01*
X128552288Y-75239290D01*
X128558582Y-75252597D01*
X128563541Y-75266457D01*
X128567118Y-75280736D01*
X128569278Y-75295297D01*
X128570000Y-75310000D01*
X128570000Y-76960000D01*
X128569278Y-76974703D01*
X128567118Y-76989264D01*
X128563541Y-77003543D01*
X128558582Y-77017403D01*
X128552288Y-77030710D01*
X128544720Y-77043336D01*
X128535952Y-77055159D01*
X128526066Y-77066066D01*
X128515159Y-77075952D01*
X128503336Y-77084720D01*
X128490710Y-77092288D01*
X128477403Y-77098582D01*
X128463543Y-77103541D01*
X128449264Y-77107118D01*
X128434703Y-77109278D01*
X128420000Y-77110000D01*
X128120000Y-77110000D01*
X128105297Y-77109278D01*
X128090736Y-77107118D01*
X128076457Y-77103541D01*
X128062597Y-77098582D01*
X128049290Y-77092288D01*
X128036664Y-77084720D01*
X128024841Y-77075952D01*
X128013934Y-77066066D01*
X128004048Y-77055159D01*
X127995280Y-77043336D01*
X127987712Y-77030710D01*
X127981418Y-77017403D01*
X127976459Y-77003543D01*
X127972882Y-76989264D01*
X127970722Y-76974703D01*
X127970000Y-76960000D01*
X127970000Y-75310000D01*
X127970722Y-75295297D01*
X127972882Y-75280736D01*
X127976459Y-75266457D01*
X127981418Y-75252597D01*
X127987712Y-75239290D01*
X127995280Y-75226664D01*
X128004048Y-75214841D01*
X128013934Y-75203934D01*
X128024841Y-75194048D01*
X128036664Y-75185280D01*
X128049290Y-75177712D01*
X128062597Y-75171418D01*
X128076457Y-75166459D01*
X128090736Y-75162882D01*
X128105297Y-75160722D01*
X128120000Y-75160000D01*
X128420000Y-75160000D01*
X128434703Y-75160722D01*
G37*
G36*
X127164703Y-75160722D02*
G01*
X127179264Y-75162882D01*
X127193543Y-75166459D01*
X127207403Y-75171418D01*
X127220710Y-75177712D01*
X127233336Y-75185280D01*
X127245159Y-75194048D01*
X127256066Y-75203934D01*
X127265952Y-75214841D01*
X127274720Y-75226664D01*
X127282288Y-75239290D01*
X127288582Y-75252597D01*
X127293541Y-75266457D01*
X127297118Y-75280736D01*
X127299278Y-75295297D01*
X127300000Y-75310000D01*
X127300000Y-76960000D01*
X127299278Y-76974703D01*
X127297118Y-76989264D01*
X127293541Y-77003543D01*
X127288582Y-77017403D01*
X127282288Y-77030710D01*
X127274720Y-77043336D01*
X127265952Y-77055159D01*
X127256066Y-77066066D01*
X127245159Y-77075952D01*
X127233336Y-77084720D01*
X127220710Y-77092288D01*
X127207403Y-77098582D01*
X127193543Y-77103541D01*
X127179264Y-77107118D01*
X127164703Y-77109278D01*
X127150000Y-77110000D01*
X126850000Y-77110000D01*
X126835297Y-77109278D01*
X126820736Y-77107118D01*
X126806457Y-77103541D01*
X126792597Y-77098582D01*
X126779290Y-77092288D01*
X126766664Y-77084720D01*
X126754841Y-77075952D01*
X126743934Y-77066066D01*
X126734048Y-77055159D01*
X126725280Y-77043336D01*
X126717712Y-77030710D01*
X126711418Y-77017403D01*
X126706459Y-77003543D01*
X126702882Y-76989264D01*
X126700722Y-76974703D01*
X126700000Y-76960000D01*
X126700000Y-75310000D01*
X126700722Y-75295297D01*
X126702882Y-75280736D01*
X126706459Y-75266457D01*
X126711418Y-75252597D01*
X126717712Y-75239290D01*
X126725280Y-75226664D01*
X126734048Y-75214841D01*
X126743934Y-75203934D01*
X126754841Y-75194048D01*
X126766664Y-75185280D01*
X126779290Y-75177712D01*
X126792597Y-75171418D01*
X126806457Y-75166459D01*
X126820736Y-75162882D01*
X126835297Y-75160722D01*
X126850000Y-75160000D01*
X127150000Y-75160000D01*
X127164703Y-75160722D01*
G37*
G36*
X127164703Y-70210722D02*
G01*
X127179264Y-70212882D01*
X127193543Y-70216459D01*
X127207403Y-70221418D01*
X127220710Y-70227712D01*
X127233336Y-70235280D01*
X127245159Y-70244048D01*
X127256066Y-70253934D01*
X127265952Y-70264841D01*
X127274720Y-70276664D01*
X127282288Y-70289290D01*
X127288582Y-70302597D01*
X127293541Y-70316457D01*
X127297118Y-70330736D01*
X127299278Y-70345297D01*
X127300000Y-70360000D01*
X127300000Y-72010000D01*
X127299278Y-72024703D01*
X127297118Y-72039264D01*
X127293541Y-72053543D01*
X127288582Y-72067403D01*
X127282288Y-72080710D01*
X127274720Y-72093336D01*
X127265952Y-72105159D01*
X127256066Y-72116066D01*
X127245159Y-72125952D01*
X127233336Y-72134720D01*
X127220710Y-72142288D01*
X127207403Y-72148582D01*
X127193543Y-72153541D01*
X127179264Y-72157118D01*
X127164703Y-72159278D01*
X127150000Y-72160000D01*
X126850000Y-72160000D01*
X126835297Y-72159278D01*
X126820736Y-72157118D01*
X126806457Y-72153541D01*
X126792597Y-72148582D01*
X126779290Y-72142288D01*
X126766664Y-72134720D01*
X126754841Y-72125952D01*
X126743934Y-72116066D01*
X126734048Y-72105159D01*
X126725280Y-72093336D01*
X126717712Y-72080710D01*
X126711418Y-72067403D01*
X126706459Y-72053543D01*
X126702882Y-72039264D01*
X126700722Y-72024703D01*
X126700000Y-72010000D01*
X126700000Y-70360000D01*
X126700722Y-70345297D01*
X126702882Y-70330736D01*
X126706459Y-70316457D01*
X126711418Y-70302597D01*
X126717712Y-70289290D01*
X126725280Y-70276664D01*
X126734048Y-70264841D01*
X126743934Y-70253934D01*
X126754841Y-70244048D01*
X126766664Y-70235280D01*
X126779290Y-70227712D01*
X126792597Y-70221418D01*
X126806457Y-70216459D01*
X126820736Y-70212882D01*
X126835297Y-70210722D01*
X126850000Y-70210000D01*
X127150000Y-70210000D01*
X127164703Y-70210722D01*
G37*
G36*
X128434703Y-70210722D02*
G01*
X128449264Y-70212882D01*
X128463543Y-70216459D01*
X128477403Y-70221418D01*
X128490710Y-70227712D01*
X128503336Y-70235280D01*
X128515159Y-70244048D01*
X128526066Y-70253934D01*
X128535952Y-70264841D01*
X128544720Y-70276664D01*
X128552288Y-70289290D01*
X128558582Y-70302597D01*
X128563541Y-70316457D01*
X128567118Y-70330736D01*
X128569278Y-70345297D01*
X128570000Y-70360000D01*
X128570000Y-72010000D01*
X128569278Y-72024703D01*
X128567118Y-72039264D01*
X128563541Y-72053543D01*
X128558582Y-72067403D01*
X128552288Y-72080710D01*
X128544720Y-72093336D01*
X128535952Y-72105159D01*
X128526066Y-72116066D01*
X128515159Y-72125952D01*
X128503336Y-72134720D01*
X128490710Y-72142288D01*
X128477403Y-72148582D01*
X128463543Y-72153541D01*
X128449264Y-72157118D01*
X128434703Y-72159278D01*
X128420000Y-72160000D01*
X128120000Y-72160000D01*
X128105297Y-72159278D01*
X128090736Y-72157118D01*
X128076457Y-72153541D01*
X128062597Y-72148582D01*
X128049290Y-72142288D01*
X128036664Y-72134720D01*
X128024841Y-72125952D01*
X128013934Y-72116066D01*
X128004048Y-72105159D01*
X127995280Y-72093336D01*
X127987712Y-72080710D01*
X127981418Y-72067403D01*
X127976459Y-72053543D01*
X127972882Y-72039264D01*
X127970722Y-72024703D01*
X127970000Y-72010000D01*
X127970000Y-70360000D01*
X127970722Y-70345297D01*
X127972882Y-70330736D01*
X127976459Y-70316457D01*
X127981418Y-70302597D01*
X127987712Y-70289290D01*
X127995280Y-70276664D01*
X128004048Y-70264841D01*
X128013934Y-70253934D01*
X128024841Y-70244048D01*
X128036664Y-70235280D01*
X128049290Y-70227712D01*
X128062597Y-70221418D01*
X128076457Y-70216459D01*
X128090736Y-70212882D01*
X128105297Y-70210722D01*
X128120000Y-70210000D01*
X128420000Y-70210000D01*
X128434703Y-70210722D01*
G37*
G36*
X129704703Y-70210722D02*
G01*
X129719264Y-70212882D01*
X129733543Y-70216459D01*
X129747403Y-70221418D01*
X129760710Y-70227712D01*
X129773336Y-70235280D01*
X129785159Y-70244048D01*
X129796066Y-70253934D01*
X129805952Y-70264841D01*
X129814720Y-70276664D01*
X129822288Y-70289290D01*
X129828582Y-70302597D01*
X129833541Y-70316457D01*
X129837118Y-70330736D01*
X129839278Y-70345297D01*
X129840000Y-70360000D01*
X129840000Y-72010000D01*
X129839278Y-72024703D01*
X129837118Y-72039264D01*
X129833541Y-72053543D01*
X129828582Y-72067403D01*
X129822288Y-72080710D01*
X129814720Y-72093336D01*
X129805952Y-72105159D01*
X129796066Y-72116066D01*
X129785159Y-72125952D01*
X129773336Y-72134720D01*
X129760710Y-72142288D01*
X129747403Y-72148582D01*
X129733543Y-72153541D01*
X129719264Y-72157118D01*
X129704703Y-72159278D01*
X129690000Y-72160000D01*
X129390000Y-72160000D01*
X129375297Y-72159278D01*
X129360736Y-72157118D01*
X129346457Y-72153541D01*
X129332597Y-72148582D01*
X129319290Y-72142288D01*
X129306664Y-72134720D01*
X129294841Y-72125952D01*
X129283934Y-72116066D01*
X129274048Y-72105159D01*
X129265280Y-72093336D01*
X129257712Y-72080710D01*
X129251418Y-72067403D01*
X129246459Y-72053543D01*
X129242882Y-72039264D01*
X129240722Y-72024703D01*
X129240000Y-72010000D01*
X129240000Y-70360000D01*
X129240722Y-70345297D01*
X129242882Y-70330736D01*
X129246459Y-70316457D01*
X129251418Y-70302597D01*
X129257712Y-70289290D01*
X129265280Y-70276664D01*
X129274048Y-70264841D01*
X129283934Y-70253934D01*
X129294841Y-70244048D01*
X129306664Y-70235280D01*
X129319290Y-70227712D01*
X129332597Y-70221418D01*
X129346457Y-70216459D01*
X129360736Y-70212882D01*
X129375297Y-70210722D01*
X129390000Y-70210000D01*
X129690000Y-70210000D01*
X129704703Y-70210722D01*
G37*
G36*
X130974703Y-70210722D02*
G01*
X130989264Y-70212882D01*
X131003543Y-70216459D01*
X131017403Y-70221418D01*
X131030710Y-70227712D01*
X131043336Y-70235280D01*
X131055159Y-70244048D01*
X131066066Y-70253934D01*
X131075952Y-70264841D01*
X131084720Y-70276664D01*
X131092288Y-70289290D01*
X131098582Y-70302597D01*
X131103541Y-70316457D01*
X131107118Y-70330736D01*
X131109278Y-70345297D01*
X131110000Y-70360000D01*
X131110000Y-72010000D01*
X131109278Y-72024703D01*
X131107118Y-72039264D01*
X131103541Y-72053543D01*
X131098582Y-72067403D01*
X131092288Y-72080710D01*
X131084720Y-72093336D01*
X131075952Y-72105159D01*
X131066066Y-72116066D01*
X131055159Y-72125952D01*
X131043336Y-72134720D01*
X131030710Y-72142288D01*
X131017403Y-72148582D01*
X131003543Y-72153541D01*
X130989264Y-72157118D01*
X130974703Y-72159278D01*
X130960000Y-72160000D01*
X130660000Y-72160000D01*
X130645297Y-72159278D01*
X130630736Y-72157118D01*
X130616457Y-72153541D01*
X130602597Y-72148582D01*
X130589290Y-72142288D01*
X130576664Y-72134720D01*
X130564841Y-72125952D01*
X130553934Y-72116066D01*
X130544048Y-72105159D01*
X130535280Y-72093336D01*
X130527712Y-72080710D01*
X130521418Y-72067403D01*
X130516459Y-72053543D01*
X130512882Y-72039264D01*
X130510722Y-72024703D01*
X130510000Y-72010000D01*
X130510000Y-70360000D01*
X130510722Y-70345297D01*
X130512882Y-70330736D01*
X130516459Y-70316457D01*
X130521418Y-70302597D01*
X130527712Y-70289290D01*
X130535280Y-70276664D01*
X130544048Y-70264841D01*
X130553934Y-70253934D01*
X130564841Y-70244048D01*
X130576664Y-70235280D01*
X130589290Y-70227712D01*
X130602597Y-70221418D01*
X130616457Y-70216459D01*
X130630736Y-70212882D01*
X130645297Y-70210722D01*
X130660000Y-70210000D01*
X130960000Y-70210000D01*
X130974703Y-70210722D01*
G37*
G36*
X132244703Y-70210722D02*
G01*
X132259264Y-70212882D01*
X132273543Y-70216459D01*
X132287403Y-70221418D01*
X132300710Y-70227712D01*
X132313336Y-70235280D01*
X132325159Y-70244048D01*
X132336066Y-70253934D01*
X132345952Y-70264841D01*
X132354720Y-70276664D01*
X132362288Y-70289290D01*
X132368582Y-70302597D01*
X132373541Y-70316457D01*
X132377118Y-70330736D01*
X132379278Y-70345297D01*
X132380000Y-70360000D01*
X132380000Y-72010000D01*
X132379278Y-72024703D01*
X132377118Y-72039264D01*
X132373541Y-72053543D01*
X132368582Y-72067403D01*
X132362288Y-72080710D01*
X132354720Y-72093336D01*
X132345952Y-72105159D01*
X132336066Y-72116066D01*
X132325159Y-72125952D01*
X132313336Y-72134720D01*
X132300710Y-72142288D01*
X132287403Y-72148582D01*
X132273543Y-72153541D01*
X132259264Y-72157118D01*
X132244703Y-72159278D01*
X132230000Y-72160000D01*
X131930000Y-72160000D01*
X131915297Y-72159278D01*
X131900736Y-72157118D01*
X131886457Y-72153541D01*
X131872597Y-72148582D01*
X131859290Y-72142288D01*
X131846664Y-72134720D01*
X131834841Y-72125952D01*
X131823934Y-72116066D01*
X131814048Y-72105159D01*
X131805280Y-72093336D01*
X131797712Y-72080710D01*
X131791418Y-72067403D01*
X131786459Y-72053543D01*
X131782882Y-72039264D01*
X131780722Y-72024703D01*
X131780000Y-72010000D01*
X131780000Y-70360000D01*
X131780722Y-70345297D01*
X131782882Y-70330736D01*
X131786459Y-70316457D01*
X131791418Y-70302597D01*
X131797712Y-70289290D01*
X131805280Y-70276664D01*
X131814048Y-70264841D01*
X131823934Y-70253934D01*
X131834841Y-70244048D01*
X131846664Y-70235280D01*
X131859290Y-70227712D01*
X131872597Y-70221418D01*
X131886457Y-70216459D01*
X131900736Y-70212882D01*
X131915297Y-70210722D01*
X131930000Y-70210000D01*
X132230000Y-70210000D01*
X132244703Y-70210722D01*
G37*
G36*
X133514703Y-70210722D02*
G01*
X133529264Y-70212882D01*
X133543543Y-70216459D01*
X133557403Y-70221418D01*
X133570710Y-70227712D01*
X133583336Y-70235280D01*
X133595159Y-70244048D01*
X133606066Y-70253934D01*
X133615952Y-70264841D01*
X133624720Y-70276664D01*
X133632288Y-70289290D01*
X133638582Y-70302597D01*
X133643541Y-70316457D01*
X133647118Y-70330736D01*
X133649278Y-70345297D01*
X133650000Y-70360000D01*
X133650000Y-72010000D01*
X133649278Y-72024703D01*
X133647118Y-72039264D01*
X133643541Y-72053543D01*
X133638582Y-72067403D01*
X133632288Y-72080710D01*
X133624720Y-72093336D01*
X133615952Y-72105159D01*
X133606066Y-72116066D01*
X133595159Y-72125952D01*
X133583336Y-72134720D01*
X133570710Y-72142288D01*
X133557403Y-72148582D01*
X133543543Y-72153541D01*
X133529264Y-72157118D01*
X133514703Y-72159278D01*
X133500000Y-72160000D01*
X133200000Y-72160000D01*
X133185297Y-72159278D01*
X133170736Y-72157118D01*
X133156457Y-72153541D01*
X133142597Y-72148582D01*
X133129290Y-72142288D01*
X133116664Y-72134720D01*
X133104841Y-72125952D01*
X133093934Y-72116066D01*
X133084048Y-72105159D01*
X133075280Y-72093336D01*
X133067712Y-72080710D01*
X133061418Y-72067403D01*
X133056459Y-72053543D01*
X133052882Y-72039264D01*
X133050722Y-72024703D01*
X133050000Y-72010000D01*
X133050000Y-70360000D01*
X133050722Y-70345297D01*
X133052882Y-70330736D01*
X133056459Y-70316457D01*
X133061418Y-70302597D01*
X133067712Y-70289290D01*
X133075280Y-70276664D01*
X133084048Y-70264841D01*
X133093934Y-70253934D01*
X133104841Y-70244048D01*
X133116664Y-70235280D01*
X133129290Y-70227712D01*
X133142597Y-70221418D01*
X133156457Y-70216459D01*
X133170736Y-70212882D01*
X133185297Y-70210722D01*
X133200000Y-70210000D01*
X133500000Y-70210000D01*
X133514703Y-70210722D01*
G37*
G36*
X134784703Y-70210722D02*
G01*
X134799264Y-70212882D01*
X134813543Y-70216459D01*
X134827403Y-70221418D01*
X134840710Y-70227712D01*
X134853336Y-70235280D01*
X134865159Y-70244048D01*
X134876066Y-70253934D01*
X134885952Y-70264841D01*
X134894720Y-70276664D01*
X134902288Y-70289290D01*
X134908582Y-70302597D01*
X134913541Y-70316457D01*
X134917118Y-70330736D01*
X134919278Y-70345297D01*
X134920000Y-70360000D01*
X134920000Y-72010000D01*
X134919278Y-72024703D01*
X134917118Y-72039264D01*
X134913541Y-72053543D01*
X134908582Y-72067403D01*
X134902288Y-72080710D01*
X134894720Y-72093336D01*
X134885952Y-72105159D01*
X134876066Y-72116066D01*
X134865159Y-72125952D01*
X134853336Y-72134720D01*
X134840710Y-72142288D01*
X134827403Y-72148582D01*
X134813543Y-72153541D01*
X134799264Y-72157118D01*
X134784703Y-72159278D01*
X134770000Y-72160000D01*
X134470000Y-72160000D01*
X134455297Y-72159278D01*
X134440736Y-72157118D01*
X134426457Y-72153541D01*
X134412597Y-72148582D01*
X134399290Y-72142288D01*
X134386664Y-72134720D01*
X134374841Y-72125952D01*
X134363934Y-72116066D01*
X134354048Y-72105159D01*
X134345280Y-72093336D01*
X134337712Y-72080710D01*
X134331418Y-72067403D01*
X134326459Y-72053543D01*
X134322882Y-72039264D01*
X134320722Y-72024703D01*
X134320000Y-72010000D01*
X134320000Y-70360000D01*
X134320722Y-70345297D01*
X134322882Y-70330736D01*
X134326459Y-70316457D01*
X134331418Y-70302597D01*
X134337712Y-70289290D01*
X134345280Y-70276664D01*
X134354048Y-70264841D01*
X134363934Y-70253934D01*
X134374841Y-70244048D01*
X134386664Y-70235280D01*
X134399290Y-70227712D01*
X134412597Y-70221418D01*
X134426457Y-70216459D01*
X134440736Y-70212882D01*
X134455297Y-70210722D01*
X134470000Y-70210000D01*
X134770000Y-70210000D01*
X134784703Y-70210722D01*
G37*
G36*
X136054703Y-70210722D02*
G01*
X136069264Y-70212882D01*
X136083543Y-70216459D01*
X136097403Y-70221418D01*
X136110710Y-70227712D01*
X136123336Y-70235280D01*
X136135159Y-70244048D01*
X136146066Y-70253934D01*
X136155952Y-70264841D01*
X136164720Y-70276664D01*
X136172288Y-70289290D01*
X136178582Y-70302597D01*
X136183541Y-70316457D01*
X136187118Y-70330736D01*
X136189278Y-70345297D01*
X136190000Y-70360000D01*
X136190000Y-72010000D01*
X136189278Y-72024703D01*
X136187118Y-72039264D01*
X136183541Y-72053543D01*
X136178582Y-72067403D01*
X136172288Y-72080710D01*
X136164720Y-72093336D01*
X136155952Y-72105159D01*
X136146066Y-72116066D01*
X136135159Y-72125952D01*
X136123336Y-72134720D01*
X136110710Y-72142288D01*
X136097403Y-72148582D01*
X136083543Y-72153541D01*
X136069264Y-72157118D01*
X136054703Y-72159278D01*
X136040000Y-72160000D01*
X135740000Y-72160000D01*
X135725297Y-72159278D01*
X135710736Y-72157118D01*
X135696457Y-72153541D01*
X135682597Y-72148582D01*
X135669290Y-72142288D01*
X135656664Y-72134720D01*
X135644841Y-72125952D01*
X135633934Y-72116066D01*
X135624048Y-72105159D01*
X135615280Y-72093336D01*
X135607712Y-72080710D01*
X135601418Y-72067403D01*
X135596459Y-72053543D01*
X135592882Y-72039264D01*
X135590722Y-72024703D01*
X135590000Y-72010000D01*
X135590000Y-70360000D01*
X135590722Y-70345297D01*
X135592882Y-70330736D01*
X135596459Y-70316457D01*
X135601418Y-70302597D01*
X135607712Y-70289290D01*
X135615280Y-70276664D01*
X135624048Y-70264841D01*
X135633934Y-70253934D01*
X135644841Y-70244048D01*
X135656664Y-70235280D01*
X135669290Y-70227712D01*
X135682597Y-70221418D01*
X135696457Y-70216459D01*
X135710736Y-70212882D01*
X135725297Y-70210722D01*
X135740000Y-70210000D01*
X136040000Y-70210000D01*
X136054703Y-70210722D01*
G37*
G36*
X112020779Y-72247144D02*
G01*
X112043834Y-72250563D01*
X112066443Y-72256227D01*
X112088387Y-72264079D01*
X112109457Y-72274044D01*
X112129448Y-72286026D01*
X112148168Y-72299910D01*
X112165438Y-72315562D01*
X112181090Y-72332832D01*
X112194974Y-72351552D01*
X112206956Y-72371543D01*
X112216921Y-72392613D01*
X112224773Y-72414557D01*
X112230437Y-72437166D01*
X112233856Y-72460221D01*
X112235000Y-72483500D01*
X112235000Y-73058500D01*
X112233856Y-73081779D01*
X112230437Y-73104834D01*
X112224773Y-73127443D01*
X112216921Y-73149387D01*
X112206956Y-73170457D01*
X112194974Y-73190448D01*
X112181090Y-73209168D01*
X112165438Y-73226438D01*
X112148168Y-73242090D01*
X112129448Y-73255974D01*
X112109457Y-73267956D01*
X112088387Y-73277921D01*
X112066443Y-73285773D01*
X112043834Y-73291437D01*
X112020779Y-73294856D01*
X111997500Y-73296000D01*
X111522500Y-73296000D01*
X111499221Y-73294856D01*
X111476166Y-73291437D01*
X111453557Y-73285773D01*
X111431613Y-73277921D01*
X111410543Y-73267956D01*
X111390552Y-73255974D01*
X111371832Y-73242090D01*
X111354562Y-73226438D01*
X111338910Y-73209168D01*
X111325026Y-73190448D01*
X111313044Y-73170457D01*
X111303079Y-73149387D01*
X111295227Y-73127443D01*
X111289563Y-73104834D01*
X111286144Y-73081779D01*
X111285000Y-73058500D01*
X111285000Y-72483500D01*
X111286144Y-72460221D01*
X111289563Y-72437166D01*
X111295227Y-72414557D01*
X111303079Y-72392613D01*
X111313044Y-72371543D01*
X111325026Y-72351552D01*
X111338910Y-72332832D01*
X111354562Y-72315562D01*
X111371832Y-72299910D01*
X111390552Y-72286026D01*
X111410543Y-72274044D01*
X111431613Y-72264079D01*
X111453557Y-72256227D01*
X111476166Y-72250563D01*
X111499221Y-72247144D01*
X111522500Y-72246000D01*
X111997500Y-72246000D01*
X112020779Y-72247144D01*
G37*
G36*
X112020779Y-73997144D02*
G01*
X112043834Y-74000563D01*
X112066443Y-74006227D01*
X112088387Y-74014079D01*
X112109457Y-74024044D01*
X112129448Y-74036026D01*
X112148168Y-74049910D01*
X112165438Y-74065562D01*
X112181090Y-74082832D01*
X112194974Y-74101552D01*
X112206956Y-74121543D01*
X112216921Y-74142613D01*
X112224773Y-74164557D01*
X112230437Y-74187166D01*
X112233856Y-74210221D01*
X112235000Y-74233500D01*
X112235000Y-74808500D01*
X112233856Y-74831779D01*
X112230437Y-74854834D01*
X112224773Y-74877443D01*
X112216921Y-74899387D01*
X112206956Y-74920457D01*
X112194974Y-74940448D01*
X112181090Y-74959168D01*
X112165438Y-74976438D01*
X112148168Y-74992090D01*
X112129448Y-75005974D01*
X112109457Y-75017956D01*
X112088387Y-75027921D01*
X112066443Y-75035773D01*
X112043834Y-75041437D01*
X112020779Y-75044856D01*
X111997500Y-75046000D01*
X111522500Y-75046000D01*
X111499221Y-75044856D01*
X111476166Y-75041437D01*
X111453557Y-75035773D01*
X111431613Y-75027921D01*
X111410543Y-75017956D01*
X111390552Y-75005974D01*
X111371832Y-74992090D01*
X111354562Y-74976438D01*
X111338910Y-74959168D01*
X111325026Y-74940448D01*
X111313044Y-74920457D01*
X111303079Y-74899387D01*
X111295227Y-74877443D01*
X111289563Y-74854834D01*
X111286144Y-74831779D01*
X111285000Y-74808500D01*
X111285000Y-74233500D01*
X111286144Y-74210221D01*
X111289563Y-74187166D01*
X111295227Y-74164557D01*
X111303079Y-74142613D01*
X111313044Y-74121543D01*
X111325026Y-74101552D01*
X111338910Y-74082832D01*
X111354562Y-74065562D01*
X111371832Y-74049910D01*
X111390552Y-74036026D01*
X111410543Y-74024044D01*
X111431613Y-74014079D01*
X111453557Y-74006227D01*
X111476166Y-74000563D01*
X111499221Y-73997144D01*
X111522500Y-73996000D01*
X111997500Y-73996000D01*
X112020779Y-73997144D01*
G37*
D23*
X100950000Y-56515000D03*
D24*
X104750000Y-62965000D03*
X104750000Y-50065000D03*
D25*
X113750000Y-57215000D03*
D10*
X120650000Y-45720000D03*
X123190000Y-45720000D03*
X120650000Y-48260000D03*
X123190000Y-48260000D03*
X120650000Y-50800000D03*
D11*
X123190000Y-50800000D03*
D10*
X120904000Y-38735000D03*
X123444000Y-38735000D03*
X125984000Y-38735000D03*
X128524000Y-38735000D03*
X131064000Y-38735000D03*
D11*
X133604000Y-38735000D03*
D26*
X139700000Y-40005000D03*
D13*
G36*
X116409504Y-76506204D02*
G01*
X116433773Y-76509804D01*
X116457571Y-76515765D01*
X116480671Y-76524030D01*
X116502849Y-76534520D01*
X116523893Y-76547133D01*
X116543598Y-76561747D01*
X116561777Y-76578223D01*
X116578253Y-76596402D01*
X116592867Y-76616107D01*
X116605480Y-76637151D01*
X116615970Y-76659329D01*
X116624235Y-76682429D01*
X116630196Y-76706227D01*
X116633796Y-76730496D01*
X116635000Y-76755000D01*
X116635000Y-77555000D01*
X116633796Y-77579504D01*
X116630196Y-77603773D01*
X116624235Y-77627571D01*
X116615970Y-77650671D01*
X116605480Y-77672849D01*
X116592867Y-77693893D01*
X116578253Y-77713598D01*
X116561777Y-77731777D01*
X116543598Y-77748253D01*
X116523893Y-77762867D01*
X116502849Y-77775480D01*
X116480671Y-77785970D01*
X116457571Y-77794235D01*
X116433773Y-77800196D01*
X116409504Y-77803796D01*
X116385000Y-77805000D01*
X113485000Y-77805000D01*
X113460496Y-77803796D01*
X113436227Y-77800196D01*
X113412429Y-77794235D01*
X113389329Y-77785970D01*
X113367151Y-77775480D01*
X113346107Y-77762867D01*
X113326402Y-77748253D01*
X113308223Y-77731777D01*
X113291747Y-77713598D01*
X113277133Y-77693893D01*
X113264520Y-77672849D01*
X113254030Y-77650671D01*
X113245765Y-77627571D01*
X113239804Y-77603773D01*
X113236204Y-77579504D01*
X113235000Y-77555000D01*
X113235000Y-76755000D01*
X113236204Y-76730496D01*
X113239804Y-76706227D01*
X113245765Y-76682429D01*
X113254030Y-76659329D01*
X113264520Y-76637151D01*
X113277133Y-76616107D01*
X113291747Y-76596402D01*
X113308223Y-76578223D01*
X113326402Y-76561747D01*
X113346107Y-76547133D01*
X113367151Y-76534520D01*
X113389329Y-76524030D01*
X113412429Y-76515765D01*
X113436227Y-76509804D01*
X113460496Y-76506204D01*
X113485000Y-76505000D01*
X116385000Y-76505000D01*
X116409504Y-76506204D01*
G37*
G36*
X116409504Y-72056204D02*
G01*
X116433773Y-72059804D01*
X116457571Y-72065765D01*
X116480671Y-72074030D01*
X116502849Y-72084520D01*
X116523893Y-72097133D01*
X116543598Y-72111747D01*
X116561777Y-72128223D01*
X116578253Y-72146402D01*
X116592867Y-72166107D01*
X116605480Y-72187151D01*
X116615970Y-72209329D01*
X116624235Y-72232429D01*
X116630196Y-72256227D01*
X116633796Y-72280496D01*
X116635000Y-72305000D01*
X116635000Y-73105000D01*
X116633796Y-73129504D01*
X116630196Y-73153773D01*
X116624235Y-73177571D01*
X116615970Y-73200671D01*
X116605480Y-73222849D01*
X116592867Y-73243893D01*
X116578253Y-73263598D01*
X116561777Y-73281777D01*
X116543598Y-73298253D01*
X116523893Y-73312867D01*
X116502849Y-73325480D01*
X116480671Y-73335970D01*
X116457571Y-73344235D01*
X116433773Y-73350196D01*
X116409504Y-73353796D01*
X116385000Y-73355000D01*
X113485000Y-73355000D01*
X113460496Y-73353796D01*
X113436227Y-73350196D01*
X113412429Y-73344235D01*
X113389329Y-73335970D01*
X113367151Y-73325480D01*
X113346107Y-73312867D01*
X113326402Y-73298253D01*
X113308223Y-73281777D01*
X113291747Y-73263598D01*
X113277133Y-73243893D01*
X113264520Y-73222849D01*
X113254030Y-73200671D01*
X113245765Y-73177571D01*
X113239804Y-73153773D01*
X113236204Y-73129504D01*
X113235000Y-73105000D01*
X113235000Y-72305000D01*
X113236204Y-72280496D01*
X113239804Y-72256227D01*
X113245765Y-72232429D01*
X113254030Y-72209329D01*
X113264520Y-72187151D01*
X113277133Y-72166107D01*
X113291747Y-72146402D01*
X113308223Y-72128223D01*
X113326402Y-72111747D01*
X113346107Y-72097133D01*
X113367151Y-72084520D01*
X113389329Y-72074030D01*
X113412429Y-72065765D01*
X113436227Y-72059804D01*
X113460496Y-72056204D01*
X113485000Y-72055000D01*
X116385000Y-72055000D01*
X116409504Y-72056204D01*
G37*
G36*
X109734779Y-73997144D02*
G01*
X109757834Y-74000563D01*
X109780443Y-74006227D01*
X109802387Y-74014079D01*
X109823457Y-74024044D01*
X109843448Y-74036026D01*
X109862168Y-74049910D01*
X109879438Y-74065562D01*
X109895090Y-74082832D01*
X109908974Y-74101552D01*
X109920956Y-74121543D01*
X109930921Y-74142613D01*
X109938773Y-74164557D01*
X109944437Y-74187166D01*
X109947856Y-74210221D01*
X109949000Y-74233500D01*
X109949000Y-74808500D01*
X109947856Y-74831779D01*
X109944437Y-74854834D01*
X109938773Y-74877443D01*
X109930921Y-74899387D01*
X109920956Y-74920457D01*
X109908974Y-74940448D01*
X109895090Y-74959168D01*
X109879438Y-74976438D01*
X109862168Y-74992090D01*
X109843448Y-75005974D01*
X109823457Y-75017956D01*
X109802387Y-75027921D01*
X109780443Y-75035773D01*
X109757834Y-75041437D01*
X109734779Y-75044856D01*
X109711500Y-75046000D01*
X109236500Y-75046000D01*
X109213221Y-75044856D01*
X109190166Y-75041437D01*
X109167557Y-75035773D01*
X109145613Y-75027921D01*
X109124543Y-75017956D01*
X109104552Y-75005974D01*
X109085832Y-74992090D01*
X109068562Y-74976438D01*
X109052910Y-74959168D01*
X109039026Y-74940448D01*
X109027044Y-74920457D01*
X109017079Y-74899387D01*
X109009227Y-74877443D01*
X109003563Y-74854834D01*
X109000144Y-74831779D01*
X108999000Y-74808500D01*
X108999000Y-74233500D01*
X109000144Y-74210221D01*
X109003563Y-74187166D01*
X109009227Y-74164557D01*
X109017079Y-74142613D01*
X109027044Y-74121543D01*
X109039026Y-74101552D01*
X109052910Y-74082832D01*
X109068562Y-74065562D01*
X109085832Y-74049910D01*
X109104552Y-74036026D01*
X109124543Y-74024044D01*
X109145613Y-74014079D01*
X109167557Y-74006227D01*
X109190166Y-74000563D01*
X109213221Y-73997144D01*
X109236500Y-73996000D01*
X109711500Y-73996000D01*
X109734779Y-73997144D01*
G37*
G36*
X109734779Y-72247144D02*
G01*
X109757834Y-72250563D01*
X109780443Y-72256227D01*
X109802387Y-72264079D01*
X109823457Y-72274044D01*
X109843448Y-72286026D01*
X109862168Y-72299910D01*
X109879438Y-72315562D01*
X109895090Y-72332832D01*
X109908974Y-72351552D01*
X109920956Y-72371543D01*
X109930921Y-72392613D01*
X109938773Y-72414557D01*
X109944437Y-72437166D01*
X109947856Y-72460221D01*
X109949000Y-72483500D01*
X109949000Y-73058500D01*
X109947856Y-73081779D01*
X109944437Y-73104834D01*
X109938773Y-73127443D01*
X109930921Y-73149387D01*
X109920956Y-73170457D01*
X109908974Y-73190448D01*
X109895090Y-73209168D01*
X109879438Y-73226438D01*
X109862168Y-73242090D01*
X109843448Y-73255974D01*
X109823457Y-73267956D01*
X109802387Y-73277921D01*
X109780443Y-73285773D01*
X109757834Y-73291437D01*
X109734779Y-73294856D01*
X109711500Y-73296000D01*
X109236500Y-73296000D01*
X109213221Y-73294856D01*
X109190166Y-73291437D01*
X109167557Y-73285773D01*
X109145613Y-73277921D01*
X109124543Y-73267956D01*
X109104552Y-73255974D01*
X109085832Y-73242090D01*
X109068562Y-73226438D01*
X109052910Y-73209168D01*
X109039026Y-73190448D01*
X109027044Y-73170457D01*
X109017079Y-73149387D01*
X109009227Y-73127443D01*
X109003563Y-73104834D01*
X109000144Y-73081779D01*
X108999000Y-73058500D01*
X108999000Y-72483500D01*
X109000144Y-72460221D01*
X109003563Y-72437166D01*
X109009227Y-72414557D01*
X109017079Y-72392613D01*
X109027044Y-72371543D01*
X109039026Y-72351552D01*
X109052910Y-72332832D01*
X109068562Y-72315562D01*
X109085832Y-72299910D01*
X109104552Y-72286026D01*
X109124543Y-72274044D01*
X109145613Y-72264079D01*
X109167557Y-72256227D01*
X109190166Y-72250563D01*
X109213221Y-72247144D01*
X109236500Y-72246000D01*
X109711500Y-72246000D01*
X109734779Y-72247144D01*
G37*
M02*
