G04 #@! TF.GenerationSoftware,KiCad,Pcbnew,5.1.5-52549c5~84~ubuntu18.04.1*
G04 #@! TF.CreationDate,2020-03-09T21:44:41-04:00*
G04 #@! TF.ProjectId,landfill_board_rev4,6c616e64-6669-46c6-9c5f-626f6172645f,rev?*
G04 #@! TF.SameCoordinates,Original*
G04 #@! TF.FileFunction,Paste,Top*
G04 #@! TF.FilePolarity,Positive*
%FSLAX46Y46*%
G04 Gerber Fmt 4.6, Leading zero omitted, Abs format (unit mm)*
G04 Created by KiCad (PCBNEW 5.1.5-52549c5~84~ubuntu18.04.1) date 2020-03-09 21:44:41*
%MOMM*%
%LPD*%
G04 APERTURE LIST*
%ADD10R,0.550000X1.600000*%
%ADD11R,1.600000X0.550000*%
%ADD12R,2.800000X2.800000*%
%ADD13R,2.200000X2.800000*%
%ADD14C,0.100000*%
%ADD15R,6.200000X3.900000*%
%ADD16R,4.400000X3.300000*%
G04 APERTURE END LIST*
D10*
X128205000Y-56640000D03*
X129005000Y-56640000D03*
X129805000Y-56640000D03*
X130605000Y-56640000D03*
X131405000Y-56640000D03*
X132205000Y-56640000D03*
X133005000Y-56640000D03*
X133805000Y-56640000D03*
D11*
X135255000Y-58090000D03*
X135255000Y-58890000D03*
X135255000Y-59690000D03*
X135255000Y-60490000D03*
X135255000Y-61290000D03*
X135255000Y-62090000D03*
X135255000Y-62890000D03*
X135255000Y-63690000D03*
D10*
X133805000Y-65140000D03*
X133005000Y-65140000D03*
X132205000Y-65140000D03*
X131405000Y-65140000D03*
X130605000Y-65140000D03*
X129805000Y-65140000D03*
X129005000Y-65140000D03*
X128205000Y-65140000D03*
D11*
X126755000Y-63690000D03*
X126755000Y-62890000D03*
X126755000Y-62090000D03*
X126755000Y-61290000D03*
X126755000Y-60490000D03*
X126755000Y-59690000D03*
X126755000Y-58890000D03*
X126755000Y-58090000D03*
D12*
X111210000Y-44975000D03*
D13*
X101810000Y-44975000D03*
X103810000Y-37575000D03*
D14*
G36*
X136054703Y-75160722D02*
G01*
X136069264Y-75162882D01*
X136083543Y-75166459D01*
X136097403Y-75171418D01*
X136110710Y-75177712D01*
X136123336Y-75185280D01*
X136135159Y-75194048D01*
X136146066Y-75203934D01*
X136155952Y-75214841D01*
X136164720Y-75226664D01*
X136172288Y-75239290D01*
X136178582Y-75252597D01*
X136183541Y-75266457D01*
X136187118Y-75280736D01*
X136189278Y-75295297D01*
X136190000Y-75310000D01*
X136190000Y-76960000D01*
X136189278Y-76974703D01*
X136187118Y-76989264D01*
X136183541Y-77003543D01*
X136178582Y-77017403D01*
X136172288Y-77030710D01*
X136164720Y-77043336D01*
X136155952Y-77055159D01*
X136146066Y-77066066D01*
X136135159Y-77075952D01*
X136123336Y-77084720D01*
X136110710Y-77092288D01*
X136097403Y-77098582D01*
X136083543Y-77103541D01*
X136069264Y-77107118D01*
X136054703Y-77109278D01*
X136040000Y-77110000D01*
X135740000Y-77110000D01*
X135725297Y-77109278D01*
X135710736Y-77107118D01*
X135696457Y-77103541D01*
X135682597Y-77098582D01*
X135669290Y-77092288D01*
X135656664Y-77084720D01*
X135644841Y-77075952D01*
X135633934Y-77066066D01*
X135624048Y-77055159D01*
X135615280Y-77043336D01*
X135607712Y-77030710D01*
X135601418Y-77017403D01*
X135596459Y-77003543D01*
X135592882Y-76989264D01*
X135590722Y-76974703D01*
X135590000Y-76960000D01*
X135590000Y-75310000D01*
X135590722Y-75295297D01*
X135592882Y-75280736D01*
X135596459Y-75266457D01*
X135601418Y-75252597D01*
X135607712Y-75239290D01*
X135615280Y-75226664D01*
X135624048Y-75214841D01*
X135633934Y-75203934D01*
X135644841Y-75194048D01*
X135656664Y-75185280D01*
X135669290Y-75177712D01*
X135682597Y-75171418D01*
X135696457Y-75166459D01*
X135710736Y-75162882D01*
X135725297Y-75160722D01*
X135740000Y-75160000D01*
X136040000Y-75160000D01*
X136054703Y-75160722D01*
G37*
G36*
X134784703Y-75160722D02*
G01*
X134799264Y-75162882D01*
X134813543Y-75166459D01*
X134827403Y-75171418D01*
X134840710Y-75177712D01*
X134853336Y-75185280D01*
X134865159Y-75194048D01*
X134876066Y-75203934D01*
X134885952Y-75214841D01*
X134894720Y-75226664D01*
X134902288Y-75239290D01*
X134908582Y-75252597D01*
X134913541Y-75266457D01*
X134917118Y-75280736D01*
X134919278Y-75295297D01*
X134920000Y-75310000D01*
X134920000Y-76960000D01*
X134919278Y-76974703D01*
X134917118Y-76989264D01*
X134913541Y-77003543D01*
X134908582Y-77017403D01*
X134902288Y-77030710D01*
X134894720Y-77043336D01*
X134885952Y-77055159D01*
X134876066Y-77066066D01*
X134865159Y-77075952D01*
X134853336Y-77084720D01*
X134840710Y-77092288D01*
X134827403Y-77098582D01*
X134813543Y-77103541D01*
X134799264Y-77107118D01*
X134784703Y-77109278D01*
X134770000Y-77110000D01*
X134470000Y-77110000D01*
X134455297Y-77109278D01*
X134440736Y-77107118D01*
X134426457Y-77103541D01*
X134412597Y-77098582D01*
X134399290Y-77092288D01*
X134386664Y-77084720D01*
X134374841Y-77075952D01*
X134363934Y-77066066D01*
X134354048Y-77055159D01*
X134345280Y-77043336D01*
X134337712Y-77030710D01*
X134331418Y-77017403D01*
X134326459Y-77003543D01*
X134322882Y-76989264D01*
X134320722Y-76974703D01*
X134320000Y-76960000D01*
X134320000Y-75310000D01*
X134320722Y-75295297D01*
X134322882Y-75280736D01*
X134326459Y-75266457D01*
X134331418Y-75252597D01*
X134337712Y-75239290D01*
X134345280Y-75226664D01*
X134354048Y-75214841D01*
X134363934Y-75203934D01*
X134374841Y-75194048D01*
X134386664Y-75185280D01*
X134399290Y-75177712D01*
X134412597Y-75171418D01*
X134426457Y-75166459D01*
X134440736Y-75162882D01*
X134455297Y-75160722D01*
X134470000Y-75160000D01*
X134770000Y-75160000D01*
X134784703Y-75160722D01*
G37*
G36*
X133514703Y-75160722D02*
G01*
X133529264Y-75162882D01*
X133543543Y-75166459D01*
X133557403Y-75171418D01*
X133570710Y-75177712D01*
X133583336Y-75185280D01*
X133595159Y-75194048D01*
X133606066Y-75203934D01*
X133615952Y-75214841D01*
X133624720Y-75226664D01*
X133632288Y-75239290D01*
X133638582Y-75252597D01*
X133643541Y-75266457D01*
X133647118Y-75280736D01*
X133649278Y-75295297D01*
X133650000Y-75310000D01*
X133650000Y-76960000D01*
X133649278Y-76974703D01*
X133647118Y-76989264D01*
X133643541Y-77003543D01*
X133638582Y-77017403D01*
X133632288Y-77030710D01*
X133624720Y-77043336D01*
X133615952Y-77055159D01*
X133606066Y-77066066D01*
X133595159Y-77075952D01*
X133583336Y-77084720D01*
X133570710Y-77092288D01*
X133557403Y-77098582D01*
X133543543Y-77103541D01*
X133529264Y-77107118D01*
X133514703Y-77109278D01*
X133500000Y-77110000D01*
X133200000Y-77110000D01*
X133185297Y-77109278D01*
X133170736Y-77107118D01*
X133156457Y-77103541D01*
X133142597Y-77098582D01*
X133129290Y-77092288D01*
X133116664Y-77084720D01*
X133104841Y-77075952D01*
X133093934Y-77066066D01*
X133084048Y-77055159D01*
X133075280Y-77043336D01*
X133067712Y-77030710D01*
X133061418Y-77017403D01*
X133056459Y-77003543D01*
X133052882Y-76989264D01*
X133050722Y-76974703D01*
X133050000Y-76960000D01*
X133050000Y-75310000D01*
X133050722Y-75295297D01*
X133052882Y-75280736D01*
X133056459Y-75266457D01*
X133061418Y-75252597D01*
X133067712Y-75239290D01*
X133075280Y-75226664D01*
X133084048Y-75214841D01*
X133093934Y-75203934D01*
X133104841Y-75194048D01*
X133116664Y-75185280D01*
X133129290Y-75177712D01*
X133142597Y-75171418D01*
X133156457Y-75166459D01*
X133170736Y-75162882D01*
X133185297Y-75160722D01*
X133200000Y-75160000D01*
X133500000Y-75160000D01*
X133514703Y-75160722D01*
G37*
G36*
X132244703Y-75160722D02*
G01*
X132259264Y-75162882D01*
X132273543Y-75166459D01*
X132287403Y-75171418D01*
X132300710Y-75177712D01*
X132313336Y-75185280D01*
X132325159Y-75194048D01*
X132336066Y-75203934D01*
X132345952Y-75214841D01*
X132354720Y-75226664D01*
X132362288Y-75239290D01*
X132368582Y-75252597D01*
X132373541Y-75266457D01*
X132377118Y-75280736D01*
X132379278Y-75295297D01*
X132380000Y-75310000D01*
X132380000Y-76960000D01*
X132379278Y-76974703D01*
X132377118Y-76989264D01*
X132373541Y-77003543D01*
X132368582Y-77017403D01*
X132362288Y-77030710D01*
X132354720Y-77043336D01*
X132345952Y-77055159D01*
X132336066Y-77066066D01*
X132325159Y-77075952D01*
X132313336Y-77084720D01*
X132300710Y-77092288D01*
X132287403Y-77098582D01*
X132273543Y-77103541D01*
X132259264Y-77107118D01*
X132244703Y-77109278D01*
X132230000Y-77110000D01*
X131930000Y-77110000D01*
X131915297Y-77109278D01*
X131900736Y-77107118D01*
X131886457Y-77103541D01*
X131872597Y-77098582D01*
X131859290Y-77092288D01*
X131846664Y-77084720D01*
X131834841Y-77075952D01*
X131823934Y-77066066D01*
X131814048Y-77055159D01*
X131805280Y-77043336D01*
X131797712Y-77030710D01*
X131791418Y-77017403D01*
X131786459Y-77003543D01*
X131782882Y-76989264D01*
X131780722Y-76974703D01*
X131780000Y-76960000D01*
X131780000Y-75310000D01*
X131780722Y-75295297D01*
X131782882Y-75280736D01*
X131786459Y-75266457D01*
X131791418Y-75252597D01*
X131797712Y-75239290D01*
X131805280Y-75226664D01*
X131814048Y-75214841D01*
X131823934Y-75203934D01*
X131834841Y-75194048D01*
X131846664Y-75185280D01*
X131859290Y-75177712D01*
X131872597Y-75171418D01*
X131886457Y-75166459D01*
X131900736Y-75162882D01*
X131915297Y-75160722D01*
X131930000Y-75160000D01*
X132230000Y-75160000D01*
X132244703Y-75160722D01*
G37*
G36*
X130974703Y-75160722D02*
G01*
X130989264Y-75162882D01*
X131003543Y-75166459D01*
X131017403Y-75171418D01*
X131030710Y-75177712D01*
X131043336Y-75185280D01*
X131055159Y-75194048D01*
X131066066Y-75203934D01*
X131075952Y-75214841D01*
X131084720Y-75226664D01*
X131092288Y-75239290D01*
X131098582Y-75252597D01*
X131103541Y-75266457D01*
X131107118Y-75280736D01*
X131109278Y-75295297D01*
X131110000Y-75310000D01*
X131110000Y-76960000D01*
X131109278Y-76974703D01*
X131107118Y-76989264D01*
X131103541Y-77003543D01*
X131098582Y-77017403D01*
X131092288Y-77030710D01*
X131084720Y-77043336D01*
X131075952Y-77055159D01*
X131066066Y-77066066D01*
X131055159Y-77075952D01*
X131043336Y-77084720D01*
X131030710Y-77092288D01*
X131017403Y-77098582D01*
X131003543Y-77103541D01*
X130989264Y-77107118D01*
X130974703Y-77109278D01*
X130960000Y-77110000D01*
X130660000Y-77110000D01*
X130645297Y-77109278D01*
X130630736Y-77107118D01*
X130616457Y-77103541D01*
X130602597Y-77098582D01*
X130589290Y-77092288D01*
X130576664Y-77084720D01*
X130564841Y-77075952D01*
X130553934Y-77066066D01*
X130544048Y-77055159D01*
X130535280Y-77043336D01*
X130527712Y-77030710D01*
X130521418Y-77017403D01*
X130516459Y-77003543D01*
X130512882Y-76989264D01*
X130510722Y-76974703D01*
X130510000Y-76960000D01*
X130510000Y-75310000D01*
X130510722Y-75295297D01*
X130512882Y-75280736D01*
X130516459Y-75266457D01*
X130521418Y-75252597D01*
X130527712Y-75239290D01*
X130535280Y-75226664D01*
X130544048Y-75214841D01*
X130553934Y-75203934D01*
X130564841Y-75194048D01*
X130576664Y-75185280D01*
X130589290Y-75177712D01*
X130602597Y-75171418D01*
X130616457Y-75166459D01*
X130630736Y-75162882D01*
X130645297Y-75160722D01*
X130660000Y-75160000D01*
X130960000Y-75160000D01*
X130974703Y-75160722D01*
G37*
G36*
X129704703Y-75160722D02*
G01*
X129719264Y-75162882D01*
X129733543Y-75166459D01*
X129747403Y-75171418D01*
X129760710Y-75177712D01*
X129773336Y-75185280D01*
X129785159Y-75194048D01*
X129796066Y-75203934D01*
X129805952Y-75214841D01*
X129814720Y-75226664D01*
X129822288Y-75239290D01*
X129828582Y-75252597D01*
X129833541Y-75266457D01*
X129837118Y-75280736D01*
X129839278Y-75295297D01*
X129840000Y-75310000D01*
X129840000Y-76960000D01*
X129839278Y-76974703D01*
X129837118Y-76989264D01*
X129833541Y-77003543D01*
X129828582Y-77017403D01*
X129822288Y-77030710D01*
X129814720Y-77043336D01*
X129805952Y-77055159D01*
X129796066Y-77066066D01*
X129785159Y-77075952D01*
X129773336Y-77084720D01*
X129760710Y-77092288D01*
X129747403Y-77098582D01*
X129733543Y-77103541D01*
X129719264Y-77107118D01*
X129704703Y-77109278D01*
X129690000Y-77110000D01*
X129390000Y-77110000D01*
X129375297Y-77109278D01*
X129360736Y-77107118D01*
X129346457Y-77103541D01*
X129332597Y-77098582D01*
X129319290Y-77092288D01*
X129306664Y-77084720D01*
X129294841Y-77075952D01*
X129283934Y-77066066D01*
X129274048Y-77055159D01*
X129265280Y-77043336D01*
X129257712Y-77030710D01*
X129251418Y-77017403D01*
X129246459Y-77003543D01*
X129242882Y-76989264D01*
X129240722Y-76974703D01*
X129240000Y-76960000D01*
X129240000Y-75310000D01*
X129240722Y-75295297D01*
X129242882Y-75280736D01*
X129246459Y-75266457D01*
X129251418Y-75252597D01*
X129257712Y-75239290D01*
X129265280Y-75226664D01*
X129274048Y-75214841D01*
X129283934Y-75203934D01*
X129294841Y-75194048D01*
X129306664Y-75185280D01*
X129319290Y-75177712D01*
X129332597Y-75171418D01*
X129346457Y-75166459D01*
X129360736Y-75162882D01*
X129375297Y-75160722D01*
X129390000Y-75160000D01*
X129690000Y-75160000D01*
X129704703Y-75160722D01*
G37*
G36*
X128434703Y-75160722D02*
G01*
X128449264Y-75162882D01*
X128463543Y-75166459D01*
X128477403Y-75171418D01*
X128490710Y-75177712D01*
X128503336Y-75185280D01*
X128515159Y-75194048D01*
X128526066Y-75203934D01*
X128535952Y-75214841D01*
X128544720Y-75226664D01*
X128552288Y-75239290D01*
X128558582Y-75252597D01*
X128563541Y-75266457D01*
X128567118Y-75280736D01*
X128569278Y-75295297D01*
X128570000Y-75310000D01*
X128570000Y-76960000D01*
X128569278Y-76974703D01*
X128567118Y-76989264D01*
X128563541Y-77003543D01*
X128558582Y-77017403D01*
X128552288Y-77030710D01*
X128544720Y-77043336D01*
X128535952Y-77055159D01*
X128526066Y-77066066D01*
X128515159Y-77075952D01*
X128503336Y-77084720D01*
X128490710Y-77092288D01*
X128477403Y-77098582D01*
X128463543Y-77103541D01*
X128449264Y-77107118D01*
X128434703Y-77109278D01*
X128420000Y-77110000D01*
X128120000Y-77110000D01*
X128105297Y-77109278D01*
X128090736Y-77107118D01*
X128076457Y-77103541D01*
X128062597Y-77098582D01*
X128049290Y-77092288D01*
X128036664Y-77084720D01*
X128024841Y-77075952D01*
X128013934Y-77066066D01*
X128004048Y-77055159D01*
X127995280Y-77043336D01*
X127987712Y-77030710D01*
X127981418Y-77017403D01*
X127976459Y-77003543D01*
X127972882Y-76989264D01*
X127970722Y-76974703D01*
X127970000Y-76960000D01*
X127970000Y-75310000D01*
X127970722Y-75295297D01*
X127972882Y-75280736D01*
X127976459Y-75266457D01*
X127981418Y-75252597D01*
X127987712Y-75239290D01*
X127995280Y-75226664D01*
X128004048Y-75214841D01*
X128013934Y-75203934D01*
X128024841Y-75194048D01*
X128036664Y-75185280D01*
X128049290Y-75177712D01*
X128062597Y-75171418D01*
X128076457Y-75166459D01*
X128090736Y-75162882D01*
X128105297Y-75160722D01*
X128120000Y-75160000D01*
X128420000Y-75160000D01*
X128434703Y-75160722D01*
G37*
G36*
X127164703Y-75160722D02*
G01*
X127179264Y-75162882D01*
X127193543Y-75166459D01*
X127207403Y-75171418D01*
X127220710Y-75177712D01*
X127233336Y-75185280D01*
X127245159Y-75194048D01*
X127256066Y-75203934D01*
X127265952Y-75214841D01*
X127274720Y-75226664D01*
X127282288Y-75239290D01*
X127288582Y-75252597D01*
X127293541Y-75266457D01*
X127297118Y-75280736D01*
X127299278Y-75295297D01*
X127300000Y-75310000D01*
X127300000Y-76960000D01*
X127299278Y-76974703D01*
X127297118Y-76989264D01*
X127293541Y-77003543D01*
X127288582Y-77017403D01*
X127282288Y-77030710D01*
X127274720Y-77043336D01*
X127265952Y-77055159D01*
X127256066Y-77066066D01*
X127245159Y-77075952D01*
X127233336Y-77084720D01*
X127220710Y-77092288D01*
X127207403Y-77098582D01*
X127193543Y-77103541D01*
X127179264Y-77107118D01*
X127164703Y-77109278D01*
X127150000Y-77110000D01*
X126850000Y-77110000D01*
X126835297Y-77109278D01*
X126820736Y-77107118D01*
X126806457Y-77103541D01*
X126792597Y-77098582D01*
X126779290Y-77092288D01*
X126766664Y-77084720D01*
X126754841Y-77075952D01*
X126743934Y-77066066D01*
X126734048Y-77055159D01*
X126725280Y-77043336D01*
X126717712Y-77030710D01*
X126711418Y-77017403D01*
X126706459Y-77003543D01*
X126702882Y-76989264D01*
X126700722Y-76974703D01*
X126700000Y-76960000D01*
X126700000Y-75310000D01*
X126700722Y-75295297D01*
X126702882Y-75280736D01*
X126706459Y-75266457D01*
X126711418Y-75252597D01*
X126717712Y-75239290D01*
X126725280Y-75226664D01*
X126734048Y-75214841D01*
X126743934Y-75203934D01*
X126754841Y-75194048D01*
X126766664Y-75185280D01*
X126779290Y-75177712D01*
X126792597Y-75171418D01*
X126806457Y-75166459D01*
X126820736Y-75162882D01*
X126835297Y-75160722D01*
X126850000Y-75160000D01*
X127150000Y-75160000D01*
X127164703Y-75160722D01*
G37*
G36*
X127164703Y-70210722D02*
G01*
X127179264Y-70212882D01*
X127193543Y-70216459D01*
X127207403Y-70221418D01*
X127220710Y-70227712D01*
X127233336Y-70235280D01*
X127245159Y-70244048D01*
X127256066Y-70253934D01*
X127265952Y-70264841D01*
X127274720Y-70276664D01*
X127282288Y-70289290D01*
X127288582Y-70302597D01*
X127293541Y-70316457D01*
X127297118Y-70330736D01*
X127299278Y-70345297D01*
X127300000Y-70360000D01*
X127300000Y-72010000D01*
X127299278Y-72024703D01*
X127297118Y-72039264D01*
X127293541Y-72053543D01*
X127288582Y-72067403D01*
X127282288Y-72080710D01*
X127274720Y-72093336D01*
X127265952Y-72105159D01*
X127256066Y-72116066D01*
X127245159Y-72125952D01*
X127233336Y-72134720D01*
X127220710Y-72142288D01*
X127207403Y-72148582D01*
X127193543Y-72153541D01*
X127179264Y-72157118D01*
X127164703Y-72159278D01*
X127150000Y-72160000D01*
X126850000Y-72160000D01*
X126835297Y-72159278D01*
X126820736Y-72157118D01*
X126806457Y-72153541D01*
X126792597Y-72148582D01*
X126779290Y-72142288D01*
X126766664Y-72134720D01*
X126754841Y-72125952D01*
X126743934Y-72116066D01*
X126734048Y-72105159D01*
X126725280Y-72093336D01*
X126717712Y-72080710D01*
X126711418Y-72067403D01*
X126706459Y-72053543D01*
X126702882Y-72039264D01*
X126700722Y-72024703D01*
X126700000Y-72010000D01*
X126700000Y-70360000D01*
X126700722Y-70345297D01*
X126702882Y-70330736D01*
X126706459Y-70316457D01*
X126711418Y-70302597D01*
X126717712Y-70289290D01*
X126725280Y-70276664D01*
X126734048Y-70264841D01*
X126743934Y-70253934D01*
X126754841Y-70244048D01*
X126766664Y-70235280D01*
X126779290Y-70227712D01*
X126792597Y-70221418D01*
X126806457Y-70216459D01*
X126820736Y-70212882D01*
X126835297Y-70210722D01*
X126850000Y-70210000D01*
X127150000Y-70210000D01*
X127164703Y-70210722D01*
G37*
G36*
X128434703Y-70210722D02*
G01*
X128449264Y-70212882D01*
X128463543Y-70216459D01*
X128477403Y-70221418D01*
X128490710Y-70227712D01*
X128503336Y-70235280D01*
X128515159Y-70244048D01*
X128526066Y-70253934D01*
X128535952Y-70264841D01*
X128544720Y-70276664D01*
X128552288Y-70289290D01*
X128558582Y-70302597D01*
X128563541Y-70316457D01*
X128567118Y-70330736D01*
X128569278Y-70345297D01*
X128570000Y-70360000D01*
X128570000Y-72010000D01*
X128569278Y-72024703D01*
X128567118Y-72039264D01*
X128563541Y-72053543D01*
X128558582Y-72067403D01*
X128552288Y-72080710D01*
X128544720Y-72093336D01*
X128535952Y-72105159D01*
X128526066Y-72116066D01*
X128515159Y-72125952D01*
X128503336Y-72134720D01*
X128490710Y-72142288D01*
X128477403Y-72148582D01*
X128463543Y-72153541D01*
X128449264Y-72157118D01*
X128434703Y-72159278D01*
X128420000Y-72160000D01*
X128120000Y-72160000D01*
X128105297Y-72159278D01*
X128090736Y-72157118D01*
X128076457Y-72153541D01*
X128062597Y-72148582D01*
X128049290Y-72142288D01*
X128036664Y-72134720D01*
X128024841Y-72125952D01*
X128013934Y-72116066D01*
X128004048Y-72105159D01*
X127995280Y-72093336D01*
X127987712Y-72080710D01*
X127981418Y-72067403D01*
X127976459Y-72053543D01*
X127972882Y-72039264D01*
X127970722Y-72024703D01*
X127970000Y-72010000D01*
X127970000Y-70360000D01*
X127970722Y-70345297D01*
X127972882Y-70330736D01*
X127976459Y-70316457D01*
X127981418Y-70302597D01*
X127987712Y-70289290D01*
X127995280Y-70276664D01*
X128004048Y-70264841D01*
X128013934Y-70253934D01*
X128024841Y-70244048D01*
X128036664Y-70235280D01*
X128049290Y-70227712D01*
X128062597Y-70221418D01*
X128076457Y-70216459D01*
X128090736Y-70212882D01*
X128105297Y-70210722D01*
X128120000Y-70210000D01*
X128420000Y-70210000D01*
X128434703Y-70210722D01*
G37*
G36*
X129704703Y-70210722D02*
G01*
X129719264Y-70212882D01*
X129733543Y-70216459D01*
X129747403Y-70221418D01*
X129760710Y-70227712D01*
X129773336Y-70235280D01*
X129785159Y-70244048D01*
X129796066Y-70253934D01*
X129805952Y-70264841D01*
X129814720Y-70276664D01*
X129822288Y-70289290D01*
X129828582Y-70302597D01*
X129833541Y-70316457D01*
X129837118Y-70330736D01*
X129839278Y-70345297D01*
X129840000Y-70360000D01*
X129840000Y-72010000D01*
X129839278Y-72024703D01*
X129837118Y-72039264D01*
X129833541Y-72053543D01*
X129828582Y-72067403D01*
X129822288Y-72080710D01*
X129814720Y-72093336D01*
X129805952Y-72105159D01*
X129796066Y-72116066D01*
X129785159Y-72125952D01*
X129773336Y-72134720D01*
X129760710Y-72142288D01*
X129747403Y-72148582D01*
X129733543Y-72153541D01*
X129719264Y-72157118D01*
X129704703Y-72159278D01*
X129690000Y-72160000D01*
X129390000Y-72160000D01*
X129375297Y-72159278D01*
X129360736Y-72157118D01*
X129346457Y-72153541D01*
X129332597Y-72148582D01*
X129319290Y-72142288D01*
X129306664Y-72134720D01*
X129294841Y-72125952D01*
X129283934Y-72116066D01*
X129274048Y-72105159D01*
X129265280Y-72093336D01*
X129257712Y-72080710D01*
X129251418Y-72067403D01*
X129246459Y-72053543D01*
X129242882Y-72039264D01*
X129240722Y-72024703D01*
X129240000Y-72010000D01*
X129240000Y-70360000D01*
X129240722Y-70345297D01*
X129242882Y-70330736D01*
X129246459Y-70316457D01*
X129251418Y-70302597D01*
X129257712Y-70289290D01*
X129265280Y-70276664D01*
X129274048Y-70264841D01*
X129283934Y-70253934D01*
X129294841Y-70244048D01*
X129306664Y-70235280D01*
X129319290Y-70227712D01*
X129332597Y-70221418D01*
X129346457Y-70216459D01*
X129360736Y-70212882D01*
X129375297Y-70210722D01*
X129390000Y-70210000D01*
X129690000Y-70210000D01*
X129704703Y-70210722D01*
G37*
G36*
X130974703Y-70210722D02*
G01*
X130989264Y-70212882D01*
X131003543Y-70216459D01*
X131017403Y-70221418D01*
X131030710Y-70227712D01*
X131043336Y-70235280D01*
X131055159Y-70244048D01*
X131066066Y-70253934D01*
X131075952Y-70264841D01*
X131084720Y-70276664D01*
X131092288Y-70289290D01*
X131098582Y-70302597D01*
X131103541Y-70316457D01*
X131107118Y-70330736D01*
X131109278Y-70345297D01*
X131110000Y-70360000D01*
X131110000Y-72010000D01*
X131109278Y-72024703D01*
X131107118Y-72039264D01*
X131103541Y-72053543D01*
X131098582Y-72067403D01*
X131092288Y-72080710D01*
X131084720Y-72093336D01*
X131075952Y-72105159D01*
X131066066Y-72116066D01*
X131055159Y-72125952D01*
X131043336Y-72134720D01*
X131030710Y-72142288D01*
X131017403Y-72148582D01*
X131003543Y-72153541D01*
X130989264Y-72157118D01*
X130974703Y-72159278D01*
X130960000Y-72160000D01*
X130660000Y-72160000D01*
X130645297Y-72159278D01*
X130630736Y-72157118D01*
X130616457Y-72153541D01*
X130602597Y-72148582D01*
X130589290Y-72142288D01*
X130576664Y-72134720D01*
X130564841Y-72125952D01*
X130553934Y-72116066D01*
X130544048Y-72105159D01*
X130535280Y-72093336D01*
X130527712Y-72080710D01*
X130521418Y-72067403D01*
X130516459Y-72053543D01*
X130512882Y-72039264D01*
X130510722Y-72024703D01*
X130510000Y-72010000D01*
X130510000Y-70360000D01*
X130510722Y-70345297D01*
X130512882Y-70330736D01*
X130516459Y-70316457D01*
X130521418Y-70302597D01*
X130527712Y-70289290D01*
X130535280Y-70276664D01*
X130544048Y-70264841D01*
X130553934Y-70253934D01*
X130564841Y-70244048D01*
X130576664Y-70235280D01*
X130589290Y-70227712D01*
X130602597Y-70221418D01*
X130616457Y-70216459D01*
X130630736Y-70212882D01*
X130645297Y-70210722D01*
X130660000Y-70210000D01*
X130960000Y-70210000D01*
X130974703Y-70210722D01*
G37*
G36*
X132244703Y-70210722D02*
G01*
X132259264Y-70212882D01*
X132273543Y-70216459D01*
X132287403Y-70221418D01*
X132300710Y-70227712D01*
X132313336Y-70235280D01*
X132325159Y-70244048D01*
X132336066Y-70253934D01*
X132345952Y-70264841D01*
X132354720Y-70276664D01*
X132362288Y-70289290D01*
X132368582Y-70302597D01*
X132373541Y-70316457D01*
X132377118Y-70330736D01*
X132379278Y-70345297D01*
X132380000Y-70360000D01*
X132380000Y-72010000D01*
X132379278Y-72024703D01*
X132377118Y-72039264D01*
X132373541Y-72053543D01*
X132368582Y-72067403D01*
X132362288Y-72080710D01*
X132354720Y-72093336D01*
X132345952Y-72105159D01*
X132336066Y-72116066D01*
X132325159Y-72125952D01*
X132313336Y-72134720D01*
X132300710Y-72142288D01*
X132287403Y-72148582D01*
X132273543Y-72153541D01*
X132259264Y-72157118D01*
X132244703Y-72159278D01*
X132230000Y-72160000D01*
X131930000Y-72160000D01*
X131915297Y-72159278D01*
X131900736Y-72157118D01*
X131886457Y-72153541D01*
X131872597Y-72148582D01*
X131859290Y-72142288D01*
X131846664Y-72134720D01*
X131834841Y-72125952D01*
X131823934Y-72116066D01*
X131814048Y-72105159D01*
X131805280Y-72093336D01*
X131797712Y-72080710D01*
X131791418Y-72067403D01*
X131786459Y-72053543D01*
X131782882Y-72039264D01*
X131780722Y-72024703D01*
X131780000Y-72010000D01*
X131780000Y-70360000D01*
X131780722Y-70345297D01*
X131782882Y-70330736D01*
X131786459Y-70316457D01*
X131791418Y-70302597D01*
X131797712Y-70289290D01*
X131805280Y-70276664D01*
X131814048Y-70264841D01*
X131823934Y-70253934D01*
X131834841Y-70244048D01*
X131846664Y-70235280D01*
X131859290Y-70227712D01*
X131872597Y-70221418D01*
X131886457Y-70216459D01*
X131900736Y-70212882D01*
X131915297Y-70210722D01*
X131930000Y-70210000D01*
X132230000Y-70210000D01*
X132244703Y-70210722D01*
G37*
G36*
X133514703Y-70210722D02*
G01*
X133529264Y-70212882D01*
X133543543Y-70216459D01*
X133557403Y-70221418D01*
X133570710Y-70227712D01*
X133583336Y-70235280D01*
X133595159Y-70244048D01*
X133606066Y-70253934D01*
X133615952Y-70264841D01*
X133624720Y-70276664D01*
X133632288Y-70289290D01*
X133638582Y-70302597D01*
X133643541Y-70316457D01*
X133647118Y-70330736D01*
X133649278Y-70345297D01*
X133650000Y-70360000D01*
X133650000Y-72010000D01*
X133649278Y-72024703D01*
X133647118Y-72039264D01*
X133643541Y-72053543D01*
X133638582Y-72067403D01*
X133632288Y-72080710D01*
X133624720Y-72093336D01*
X133615952Y-72105159D01*
X133606066Y-72116066D01*
X133595159Y-72125952D01*
X133583336Y-72134720D01*
X133570710Y-72142288D01*
X133557403Y-72148582D01*
X133543543Y-72153541D01*
X133529264Y-72157118D01*
X133514703Y-72159278D01*
X133500000Y-72160000D01*
X133200000Y-72160000D01*
X133185297Y-72159278D01*
X133170736Y-72157118D01*
X133156457Y-72153541D01*
X133142597Y-72148582D01*
X133129290Y-72142288D01*
X133116664Y-72134720D01*
X133104841Y-72125952D01*
X133093934Y-72116066D01*
X133084048Y-72105159D01*
X133075280Y-72093336D01*
X133067712Y-72080710D01*
X133061418Y-72067403D01*
X133056459Y-72053543D01*
X133052882Y-72039264D01*
X133050722Y-72024703D01*
X133050000Y-72010000D01*
X133050000Y-70360000D01*
X133050722Y-70345297D01*
X133052882Y-70330736D01*
X133056459Y-70316457D01*
X133061418Y-70302597D01*
X133067712Y-70289290D01*
X133075280Y-70276664D01*
X133084048Y-70264841D01*
X133093934Y-70253934D01*
X133104841Y-70244048D01*
X133116664Y-70235280D01*
X133129290Y-70227712D01*
X133142597Y-70221418D01*
X133156457Y-70216459D01*
X133170736Y-70212882D01*
X133185297Y-70210722D01*
X133200000Y-70210000D01*
X133500000Y-70210000D01*
X133514703Y-70210722D01*
G37*
G36*
X134784703Y-70210722D02*
G01*
X134799264Y-70212882D01*
X134813543Y-70216459D01*
X134827403Y-70221418D01*
X134840710Y-70227712D01*
X134853336Y-70235280D01*
X134865159Y-70244048D01*
X134876066Y-70253934D01*
X134885952Y-70264841D01*
X134894720Y-70276664D01*
X134902288Y-70289290D01*
X134908582Y-70302597D01*
X134913541Y-70316457D01*
X134917118Y-70330736D01*
X134919278Y-70345297D01*
X134920000Y-70360000D01*
X134920000Y-72010000D01*
X134919278Y-72024703D01*
X134917118Y-72039264D01*
X134913541Y-72053543D01*
X134908582Y-72067403D01*
X134902288Y-72080710D01*
X134894720Y-72093336D01*
X134885952Y-72105159D01*
X134876066Y-72116066D01*
X134865159Y-72125952D01*
X134853336Y-72134720D01*
X134840710Y-72142288D01*
X134827403Y-72148582D01*
X134813543Y-72153541D01*
X134799264Y-72157118D01*
X134784703Y-72159278D01*
X134770000Y-72160000D01*
X134470000Y-72160000D01*
X134455297Y-72159278D01*
X134440736Y-72157118D01*
X134426457Y-72153541D01*
X134412597Y-72148582D01*
X134399290Y-72142288D01*
X134386664Y-72134720D01*
X134374841Y-72125952D01*
X134363934Y-72116066D01*
X134354048Y-72105159D01*
X134345280Y-72093336D01*
X134337712Y-72080710D01*
X134331418Y-72067403D01*
X134326459Y-72053543D01*
X134322882Y-72039264D01*
X134320722Y-72024703D01*
X134320000Y-72010000D01*
X134320000Y-70360000D01*
X134320722Y-70345297D01*
X134322882Y-70330736D01*
X134326459Y-70316457D01*
X134331418Y-70302597D01*
X134337712Y-70289290D01*
X134345280Y-70276664D01*
X134354048Y-70264841D01*
X134363934Y-70253934D01*
X134374841Y-70244048D01*
X134386664Y-70235280D01*
X134399290Y-70227712D01*
X134412597Y-70221418D01*
X134426457Y-70216459D01*
X134440736Y-70212882D01*
X134455297Y-70210722D01*
X134470000Y-70210000D01*
X134770000Y-70210000D01*
X134784703Y-70210722D01*
G37*
G36*
X136054703Y-70210722D02*
G01*
X136069264Y-70212882D01*
X136083543Y-70216459D01*
X136097403Y-70221418D01*
X136110710Y-70227712D01*
X136123336Y-70235280D01*
X136135159Y-70244048D01*
X136146066Y-70253934D01*
X136155952Y-70264841D01*
X136164720Y-70276664D01*
X136172288Y-70289290D01*
X136178582Y-70302597D01*
X136183541Y-70316457D01*
X136187118Y-70330736D01*
X136189278Y-70345297D01*
X136190000Y-70360000D01*
X136190000Y-72010000D01*
X136189278Y-72024703D01*
X136187118Y-72039264D01*
X136183541Y-72053543D01*
X136178582Y-72067403D01*
X136172288Y-72080710D01*
X136164720Y-72093336D01*
X136155952Y-72105159D01*
X136146066Y-72116066D01*
X136135159Y-72125952D01*
X136123336Y-72134720D01*
X136110710Y-72142288D01*
X136097403Y-72148582D01*
X136083543Y-72153541D01*
X136069264Y-72157118D01*
X136054703Y-72159278D01*
X136040000Y-72160000D01*
X135740000Y-72160000D01*
X135725297Y-72159278D01*
X135710736Y-72157118D01*
X135696457Y-72153541D01*
X135682597Y-72148582D01*
X135669290Y-72142288D01*
X135656664Y-72134720D01*
X135644841Y-72125952D01*
X135633934Y-72116066D01*
X135624048Y-72105159D01*
X135615280Y-72093336D01*
X135607712Y-72080710D01*
X135601418Y-72067403D01*
X135596459Y-72053543D01*
X135592882Y-72039264D01*
X135590722Y-72024703D01*
X135590000Y-72010000D01*
X135590000Y-70360000D01*
X135590722Y-70345297D01*
X135592882Y-70330736D01*
X135596459Y-70316457D01*
X135601418Y-70302597D01*
X135607712Y-70289290D01*
X135615280Y-70276664D01*
X135624048Y-70264841D01*
X135633934Y-70253934D01*
X135644841Y-70244048D01*
X135656664Y-70235280D01*
X135669290Y-70227712D01*
X135682597Y-70221418D01*
X135696457Y-70216459D01*
X135710736Y-70212882D01*
X135725297Y-70210722D01*
X135740000Y-70210000D01*
X136040000Y-70210000D01*
X136054703Y-70210722D01*
G37*
G36*
X112020779Y-72247144D02*
G01*
X112043834Y-72250563D01*
X112066443Y-72256227D01*
X112088387Y-72264079D01*
X112109457Y-72274044D01*
X112129448Y-72286026D01*
X112148168Y-72299910D01*
X112165438Y-72315562D01*
X112181090Y-72332832D01*
X112194974Y-72351552D01*
X112206956Y-72371543D01*
X112216921Y-72392613D01*
X112224773Y-72414557D01*
X112230437Y-72437166D01*
X112233856Y-72460221D01*
X112235000Y-72483500D01*
X112235000Y-73058500D01*
X112233856Y-73081779D01*
X112230437Y-73104834D01*
X112224773Y-73127443D01*
X112216921Y-73149387D01*
X112206956Y-73170457D01*
X112194974Y-73190448D01*
X112181090Y-73209168D01*
X112165438Y-73226438D01*
X112148168Y-73242090D01*
X112129448Y-73255974D01*
X112109457Y-73267956D01*
X112088387Y-73277921D01*
X112066443Y-73285773D01*
X112043834Y-73291437D01*
X112020779Y-73294856D01*
X111997500Y-73296000D01*
X111522500Y-73296000D01*
X111499221Y-73294856D01*
X111476166Y-73291437D01*
X111453557Y-73285773D01*
X111431613Y-73277921D01*
X111410543Y-73267956D01*
X111390552Y-73255974D01*
X111371832Y-73242090D01*
X111354562Y-73226438D01*
X111338910Y-73209168D01*
X111325026Y-73190448D01*
X111313044Y-73170457D01*
X111303079Y-73149387D01*
X111295227Y-73127443D01*
X111289563Y-73104834D01*
X111286144Y-73081779D01*
X111285000Y-73058500D01*
X111285000Y-72483500D01*
X111286144Y-72460221D01*
X111289563Y-72437166D01*
X111295227Y-72414557D01*
X111303079Y-72392613D01*
X111313044Y-72371543D01*
X111325026Y-72351552D01*
X111338910Y-72332832D01*
X111354562Y-72315562D01*
X111371832Y-72299910D01*
X111390552Y-72286026D01*
X111410543Y-72274044D01*
X111431613Y-72264079D01*
X111453557Y-72256227D01*
X111476166Y-72250563D01*
X111499221Y-72247144D01*
X111522500Y-72246000D01*
X111997500Y-72246000D01*
X112020779Y-72247144D01*
G37*
G36*
X112020779Y-73997144D02*
G01*
X112043834Y-74000563D01*
X112066443Y-74006227D01*
X112088387Y-74014079D01*
X112109457Y-74024044D01*
X112129448Y-74036026D01*
X112148168Y-74049910D01*
X112165438Y-74065562D01*
X112181090Y-74082832D01*
X112194974Y-74101552D01*
X112206956Y-74121543D01*
X112216921Y-74142613D01*
X112224773Y-74164557D01*
X112230437Y-74187166D01*
X112233856Y-74210221D01*
X112235000Y-74233500D01*
X112235000Y-74808500D01*
X112233856Y-74831779D01*
X112230437Y-74854834D01*
X112224773Y-74877443D01*
X112216921Y-74899387D01*
X112206956Y-74920457D01*
X112194974Y-74940448D01*
X112181090Y-74959168D01*
X112165438Y-74976438D01*
X112148168Y-74992090D01*
X112129448Y-75005974D01*
X112109457Y-75017956D01*
X112088387Y-75027921D01*
X112066443Y-75035773D01*
X112043834Y-75041437D01*
X112020779Y-75044856D01*
X111997500Y-75046000D01*
X111522500Y-75046000D01*
X111499221Y-75044856D01*
X111476166Y-75041437D01*
X111453557Y-75035773D01*
X111431613Y-75027921D01*
X111410543Y-75017956D01*
X111390552Y-75005974D01*
X111371832Y-74992090D01*
X111354562Y-74976438D01*
X111338910Y-74959168D01*
X111325026Y-74940448D01*
X111313044Y-74920457D01*
X111303079Y-74899387D01*
X111295227Y-74877443D01*
X111289563Y-74854834D01*
X111286144Y-74831779D01*
X111285000Y-74808500D01*
X111285000Y-74233500D01*
X111286144Y-74210221D01*
X111289563Y-74187166D01*
X111295227Y-74164557D01*
X111303079Y-74142613D01*
X111313044Y-74121543D01*
X111325026Y-74101552D01*
X111338910Y-74082832D01*
X111354562Y-74065562D01*
X111371832Y-74049910D01*
X111390552Y-74036026D01*
X111410543Y-74024044D01*
X111431613Y-74014079D01*
X111453557Y-74006227D01*
X111476166Y-74000563D01*
X111499221Y-73997144D01*
X111522500Y-73996000D01*
X111997500Y-73996000D01*
X112020779Y-73997144D01*
G37*
D15*
X104750000Y-62965000D03*
X104750000Y-50065000D03*
D16*
X113750000Y-57215000D03*
D14*
G36*
X116409504Y-76506204D02*
G01*
X116433773Y-76509804D01*
X116457571Y-76515765D01*
X116480671Y-76524030D01*
X116502849Y-76534520D01*
X116523893Y-76547133D01*
X116543598Y-76561747D01*
X116561777Y-76578223D01*
X116578253Y-76596402D01*
X116592867Y-76616107D01*
X116605480Y-76637151D01*
X116615970Y-76659329D01*
X116624235Y-76682429D01*
X116630196Y-76706227D01*
X116633796Y-76730496D01*
X116635000Y-76755000D01*
X116635000Y-77555000D01*
X116633796Y-77579504D01*
X116630196Y-77603773D01*
X116624235Y-77627571D01*
X116615970Y-77650671D01*
X116605480Y-77672849D01*
X116592867Y-77693893D01*
X116578253Y-77713598D01*
X116561777Y-77731777D01*
X116543598Y-77748253D01*
X116523893Y-77762867D01*
X116502849Y-77775480D01*
X116480671Y-77785970D01*
X116457571Y-77794235D01*
X116433773Y-77800196D01*
X116409504Y-77803796D01*
X116385000Y-77805000D01*
X113485000Y-77805000D01*
X113460496Y-77803796D01*
X113436227Y-77800196D01*
X113412429Y-77794235D01*
X113389329Y-77785970D01*
X113367151Y-77775480D01*
X113346107Y-77762867D01*
X113326402Y-77748253D01*
X113308223Y-77731777D01*
X113291747Y-77713598D01*
X113277133Y-77693893D01*
X113264520Y-77672849D01*
X113254030Y-77650671D01*
X113245765Y-77627571D01*
X113239804Y-77603773D01*
X113236204Y-77579504D01*
X113235000Y-77555000D01*
X113235000Y-76755000D01*
X113236204Y-76730496D01*
X113239804Y-76706227D01*
X113245765Y-76682429D01*
X113254030Y-76659329D01*
X113264520Y-76637151D01*
X113277133Y-76616107D01*
X113291747Y-76596402D01*
X113308223Y-76578223D01*
X113326402Y-76561747D01*
X113346107Y-76547133D01*
X113367151Y-76534520D01*
X113389329Y-76524030D01*
X113412429Y-76515765D01*
X113436227Y-76509804D01*
X113460496Y-76506204D01*
X113485000Y-76505000D01*
X116385000Y-76505000D01*
X116409504Y-76506204D01*
G37*
G36*
X116409504Y-72056204D02*
G01*
X116433773Y-72059804D01*
X116457571Y-72065765D01*
X116480671Y-72074030D01*
X116502849Y-72084520D01*
X116523893Y-72097133D01*
X116543598Y-72111747D01*
X116561777Y-72128223D01*
X116578253Y-72146402D01*
X116592867Y-72166107D01*
X116605480Y-72187151D01*
X116615970Y-72209329D01*
X116624235Y-72232429D01*
X116630196Y-72256227D01*
X116633796Y-72280496D01*
X116635000Y-72305000D01*
X116635000Y-73105000D01*
X116633796Y-73129504D01*
X116630196Y-73153773D01*
X116624235Y-73177571D01*
X116615970Y-73200671D01*
X116605480Y-73222849D01*
X116592867Y-73243893D01*
X116578253Y-73263598D01*
X116561777Y-73281777D01*
X116543598Y-73298253D01*
X116523893Y-73312867D01*
X116502849Y-73325480D01*
X116480671Y-73335970D01*
X116457571Y-73344235D01*
X116433773Y-73350196D01*
X116409504Y-73353796D01*
X116385000Y-73355000D01*
X113485000Y-73355000D01*
X113460496Y-73353796D01*
X113436227Y-73350196D01*
X113412429Y-73344235D01*
X113389329Y-73335970D01*
X113367151Y-73325480D01*
X113346107Y-73312867D01*
X113326402Y-73298253D01*
X113308223Y-73281777D01*
X113291747Y-73263598D01*
X113277133Y-73243893D01*
X113264520Y-73222849D01*
X113254030Y-73200671D01*
X113245765Y-73177571D01*
X113239804Y-73153773D01*
X113236204Y-73129504D01*
X113235000Y-73105000D01*
X113235000Y-72305000D01*
X113236204Y-72280496D01*
X113239804Y-72256227D01*
X113245765Y-72232429D01*
X113254030Y-72209329D01*
X113264520Y-72187151D01*
X113277133Y-72166107D01*
X113291747Y-72146402D01*
X113308223Y-72128223D01*
X113326402Y-72111747D01*
X113346107Y-72097133D01*
X113367151Y-72084520D01*
X113389329Y-72074030D01*
X113412429Y-72065765D01*
X113436227Y-72059804D01*
X113460496Y-72056204D01*
X113485000Y-72055000D01*
X116385000Y-72055000D01*
X116409504Y-72056204D01*
G37*
G36*
X109734779Y-73997144D02*
G01*
X109757834Y-74000563D01*
X109780443Y-74006227D01*
X109802387Y-74014079D01*
X109823457Y-74024044D01*
X109843448Y-74036026D01*
X109862168Y-74049910D01*
X109879438Y-74065562D01*
X109895090Y-74082832D01*
X109908974Y-74101552D01*
X109920956Y-74121543D01*
X109930921Y-74142613D01*
X109938773Y-74164557D01*
X109944437Y-74187166D01*
X109947856Y-74210221D01*
X109949000Y-74233500D01*
X109949000Y-74808500D01*
X109947856Y-74831779D01*
X109944437Y-74854834D01*
X109938773Y-74877443D01*
X109930921Y-74899387D01*
X109920956Y-74920457D01*
X109908974Y-74940448D01*
X109895090Y-74959168D01*
X109879438Y-74976438D01*
X109862168Y-74992090D01*
X109843448Y-75005974D01*
X109823457Y-75017956D01*
X109802387Y-75027921D01*
X109780443Y-75035773D01*
X109757834Y-75041437D01*
X109734779Y-75044856D01*
X109711500Y-75046000D01*
X109236500Y-75046000D01*
X109213221Y-75044856D01*
X109190166Y-75041437D01*
X109167557Y-75035773D01*
X109145613Y-75027921D01*
X109124543Y-75017956D01*
X109104552Y-75005974D01*
X109085832Y-74992090D01*
X109068562Y-74976438D01*
X109052910Y-74959168D01*
X109039026Y-74940448D01*
X109027044Y-74920457D01*
X109017079Y-74899387D01*
X109009227Y-74877443D01*
X109003563Y-74854834D01*
X109000144Y-74831779D01*
X108999000Y-74808500D01*
X108999000Y-74233500D01*
X109000144Y-74210221D01*
X109003563Y-74187166D01*
X109009227Y-74164557D01*
X109017079Y-74142613D01*
X109027044Y-74121543D01*
X109039026Y-74101552D01*
X109052910Y-74082832D01*
X109068562Y-74065562D01*
X109085832Y-74049910D01*
X109104552Y-74036026D01*
X109124543Y-74024044D01*
X109145613Y-74014079D01*
X109167557Y-74006227D01*
X109190166Y-74000563D01*
X109213221Y-73997144D01*
X109236500Y-73996000D01*
X109711500Y-73996000D01*
X109734779Y-73997144D01*
G37*
G36*
X109734779Y-72247144D02*
G01*
X109757834Y-72250563D01*
X109780443Y-72256227D01*
X109802387Y-72264079D01*
X109823457Y-72274044D01*
X109843448Y-72286026D01*
X109862168Y-72299910D01*
X109879438Y-72315562D01*
X109895090Y-72332832D01*
X109908974Y-72351552D01*
X109920956Y-72371543D01*
X109930921Y-72392613D01*
X109938773Y-72414557D01*
X109944437Y-72437166D01*
X109947856Y-72460221D01*
X109949000Y-72483500D01*
X109949000Y-73058500D01*
X109947856Y-73081779D01*
X109944437Y-73104834D01*
X109938773Y-73127443D01*
X109930921Y-73149387D01*
X109920956Y-73170457D01*
X109908974Y-73190448D01*
X109895090Y-73209168D01*
X109879438Y-73226438D01*
X109862168Y-73242090D01*
X109843448Y-73255974D01*
X109823457Y-73267956D01*
X109802387Y-73277921D01*
X109780443Y-73285773D01*
X109757834Y-73291437D01*
X109734779Y-73294856D01*
X109711500Y-73296000D01*
X109236500Y-73296000D01*
X109213221Y-73294856D01*
X109190166Y-73291437D01*
X109167557Y-73285773D01*
X109145613Y-73277921D01*
X109124543Y-73267956D01*
X109104552Y-73255974D01*
X109085832Y-73242090D01*
X109068562Y-73226438D01*
X109052910Y-73209168D01*
X109039026Y-73190448D01*
X109027044Y-73170457D01*
X109017079Y-73149387D01*
X109009227Y-73127443D01*
X109003563Y-73104834D01*
X109000144Y-73081779D01*
X108999000Y-73058500D01*
X108999000Y-72483500D01*
X109000144Y-72460221D01*
X109003563Y-72437166D01*
X109009227Y-72414557D01*
X109017079Y-72392613D01*
X109027044Y-72371543D01*
X109039026Y-72351552D01*
X109052910Y-72332832D01*
X109068562Y-72315562D01*
X109085832Y-72299910D01*
X109104552Y-72286026D01*
X109124543Y-72274044D01*
X109145613Y-72264079D01*
X109167557Y-72256227D01*
X109190166Y-72250563D01*
X109213221Y-72247144D01*
X109236500Y-72246000D01*
X109711500Y-72246000D01*
X109734779Y-72247144D01*
G37*
M02*
