M48
; DRILL file {KiCad 5.1.5-52549c5~84~ubuntu18.04.1} date Mon 09 Mar 2020 09:44:40 PM EDT
; FORMAT={-:-/ absolute / metric / decimal}
; #@! TF.CreationDate,2020-03-09T21:44:40-04:00
; #@! TF.GenerationSoftware,Kicad,Pcbnew,5.1.5-52549c5~84~ubuntu18.04.1
FMAT,2
METRIC
T1C0.400
T2C0.750
T3C0.800
T4C1.000
T5C1.700
T6C2.000
T7C3.500
%
G90
G05
T1
X104.775Y-57.15
X106.68Y-57.15
X109.22Y-57.15
X114.808Y-46.736
X124.841Y-57.15
X125.095Y-60.325
X127.0Y-73.66
X127.127Y-51.943
X128.225Y-66.802
X129.032Y-67.818
X129.032Y-69.088
X129.54Y-43.815
X129.54Y-63.5
X129.921Y-59.82
X130.247Y-62.72
X131.445Y-66.675
X131.724Y-62.396
X132.925Y-62.493
X132.969Y-59.817
X132.97Y-58.04
X133.731Y-58.928
X134.62Y-74.44
X135.128Y-64.77
X136.398Y-68.834
X136.609Y-60.995
X137.795Y-62.992
X137.795Y-76.2
X137.922Y-71.12
X145.415Y-70.485
X146.685Y-61.595
X152.4Y-52.07
X152.4Y-61.595
X153.67Y-70.485
T2
X146.685Y-38.64
X146.685Y-40.64
X153.67Y-38.64
X153.67Y-40.64
X144.145Y-47.53
X144.145Y-49.53
X154.178Y-72.644
X154.178Y-74.644
X154.178Y-55.88
X154.178Y-57.88
X153.078Y-64.04
X153.078Y-66.04
X144.145Y-64.04
X144.145Y-66.04
X132.207Y-45.72
X132.207Y-47.72
X132.207Y-49.72
X145.245Y-55.88
X145.245Y-57.88
X153.078Y-47.53
X153.078Y-49.53
X145.245Y-72.644
X145.245Y-74.644
X111.792Y-68.961
X113.792Y-68.961
T3
X121.285Y-69.215
X121.285Y-74.095
T4
X120.65Y-45.72
X120.65Y-48.26
X120.65Y-50.8
X123.19Y-45.72
X123.19Y-48.26
X123.19Y-50.8
X120.65Y-57.785
X120.65Y-60.325
X120.65Y-62.865
X101.6Y-69.85
X101.6Y-72.39
X101.6Y-74.93
X120.904Y-38.735
X123.444Y-38.735
X125.984Y-38.735
X128.524Y-38.735
X131.064Y-38.735
X133.604Y-38.735
T5
X102.91Y-41.275
X109.91Y-41.275
T6
X100.95Y-56.515
T7
X139.7Y-40.005
T0
M30
