G04 #@! TF.GenerationSoftware,KiCad,Pcbnew,5.1.5-52549c5~84~ubuntu18.04.1*
G04 #@! TF.CreationDate,2020-03-09T21:44:41-04:00*
G04 #@! TF.ProjectId,landfill_board_rev4,6c616e64-6669-46c6-9c5f-626f6172645f,rev?*
G04 #@! TF.SameCoordinates,Original*
G04 #@! TF.FileFunction,Legend,Top*
G04 #@! TF.FilePolarity,Positive*
%FSLAX46Y46*%
G04 Gerber Fmt 4.6, Leading zero omitted, Abs format (unit mm)*
G04 Created by KiCad (PCBNEW 5.1.5-52549c5~84~ubuntu18.04.1) date 2020-03-09 21:44:41*
%MOMM*%
%LPD*%
G04 APERTURE LIST*
%ADD10C,0.300000*%
%ADD11C,0.120000*%
%ADD12C,0.150000*%
G04 APERTURE END LIST*
D10*
X108962500Y-64996142D02*
X109176785Y-65067571D01*
X109533928Y-65067571D01*
X109676785Y-64996142D01*
X109748214Y-64924714D01*
X109819642Y-64781857D01*
X109819642Y-64639000D01*
X109748214Y-64496142D01*
X109676785Y-64424714D01*
X109533928Y-64353285D01*
X109248214Y-64281857D01*
X109105357Y-64210428D01*
X109033928Y-64139000D01*
X108962500Y-63996142D01*
X108962500Y-63853285D01*
X109033928Y-63710428D01*
X109105357Y-63639000D01*
X109248214Y-63567571D01*
X109605357Y-63567571D01*
X109819642Y-63639000D01*
X110319642Y-63567571D02*
X110676785Y-65067571D01*
X110962500Y-63996142D01*
X111248214Y-65067571D01*
X111605357Y-63567571D01*
X112176785Y-65067571D02*
X112176785Y-63567571D01*
X112676785Y-63567571D02*
X113533928Y-63567571D01*
X113105357Y-65067571D02*
X113105357Y-63567571D01*
X114891071Y-64924714D02*
X114819642Y-64996142D01*
X114605357Y-65067571D01*
X114462500Y-65067571D01*
X114248214Y-64996142D01*
X114105357Y-64853285D01*
X114033928Y-64710428D01*
X113962500Y-64424714D01*
X113962500Y-64210428D01*
X114033928Y-63924714D01*
X114105357Y-63781857D01*
X114248214Y-63639000D01*
X114462500Y-63567571D01*
X114605357Y-63567571D01*
X114819642Y-63639000D01*
X114891071Y-63710428D01*
X115533928Y-65067571D02*
X115533928Y-63567571D01*
X115533928Y-64281857D02*
X116391071Y-64281857D01*
X116391071Y-65067571D02*
X116391071Y-63567571D01*
X144149071Y-78287500D02*
X144149071Y-77358928D01*
X144720500Y-77858928D01*
X144720500Y-77644642D01*
X144791928Y-77501785D01*
X144863357Y-77430357D01*
X145006214Y-77358928D01*
X145363357Y-77358928D01*
X145506214Y-77430357D01*
X145577642Y-77501785D01*
X145649071Y-77644642D01*
X145649071Y-78073214D01*
X145577642Y-78216071D01*
X145506214Y-78287500D01*
X153054928Y-78089071D02*
X152983500Y-78017642D01*
X152912071Y-77874785D01*
X152912071Y-77517642D01*
X152983500Y-77374785D01*
X153054928Y-77303357D01*
X153197785Y-77231928D01*
X153340642Y-77231928D01*
X153554928Y-77303357D01*
X154412071Y-78160500D01*
X154412071Y-77231928D01*
X143768071Y-69159428D02*
X143768071Y-69016571D01*
X143839500Y-68873714D01*
X143910928Y-68802285D01*
X144053785Y-68730857D01*
X144339500Y-68659428D01*
X144696642Y-68659428D01*
X144982357Y-68730857D01*
X145125214Y-68802285D01*
X145196642Y-68873714D01*
X145268071Y-69016571D01*
X145268071Y-69159428D01*
X145196642Y-69302285D01*
X145125214Y-69373714D01*
X144982357Y-69445142D01*
X144696642Y-69516571D01*
X144339500Y-69516571D01*
X144053785Y-69445142D01*
X143910928Y-69373714D01*
X143839500Y-69302285D01*
X143768071Y-69159428D01*
X154539071Y-68786428D02*
X154539071Y-69643571D01*
X154539071Y-69215000D02*
X153039071Y-69215000D01*
X153253357Y-69357857D01*
X153396214Y-69500714D01*
X153467642Y-69643571D01*
X143958571Y-60475857D02*
X143958571Y-61190142D01*
X144672857Y-61261571D01*
X144601428Y-61190142D01*
X144530000Y-61047285D01*
X144530000Y-60690142D01*
X144601428Y-60547285D01*
X144672857Y-60475857D01*
X144815714Y-60404428D01*
X145172857Y-60404428D01*
X145315714Y-60475857D01*
X145387142Y-60547285D01*
X145458571Y-60690142D01*
X145458571Y-61047285D01*
X145387142Y-61190142D01*
X145315714Y-61261571D01*
X153793071Y-60674285D02*
X154793071Y-60674285D01*
X153221642Y-61031428D02*
X154293071Y-61388571D01*
X154293071Y-60460000D01*
X144149071Y-53268500D02*
X144149071Y-52268500D01*
X145649071Y-52911357D01*
X153483571Y-52355785D02*
X153483571Y-52641500D01*
X153555000Y-52784357D01*
X153626428Y-52855785D01*
X153840714Y-52998642D01*
X154126428Y-53070071D01*
X154697857Y-53070071D01*
X154840714Y-52998642D01*
X154912142Y-52927214D01*
X154983571Y-52784357D01*
X154983571Y-52498642D01*
X154912142Y-52355785D01*
X154840714Y-52284357D01*
X154697857Y-52212928D01*
X154340714Y-52212928D01*
X154197857Y-52284357D01*
X154126428Y-52355785D01*
X154055000Y-52498642D01*
X154055000Y-52784357D01*
X154126428Y-52927214D01*
X154197857Y-52998642D01*
X154340714Y-53070071D01*
D11*
X120650000Y-56455000D02*
X121980000Y-56455000D01*
X121980000Y-56455000D02*
X121980000Y-57785000D01*
X121980000Y-59055000D02*
X121980000Y-64195000D01*
X119320000Y-64195000D02*
X121980000Y-64195000D01*
X119320000Y-59055000D02*
X119320000Y-64195000D01*
X119320000Y-59055000D02*
X121980000Y-59055000D01*
X116152000Y-71071000D02*
X116152000Y-69821000D01*
X114902000Y-71071000D02*
X116152000Y-71071000D01*
X112792000Y-66661000D02*
X112792000Y-67161000D01*
X112692000Y-67161000D02*
X112692000Y-66661000D01*
X112892000Y-67161000D02*
X112692000Y-67161000D01*
X112892000Y-66661000D02*
X112892000Y-67161000D01*
X109732000Y-68161000D02*
X110342000Y-68161000D01*
X109732000Y-69461000D02*
X110342000Y-69461000D01*
X115852000Y-68161000D02*
X115242000Y-68161000D01*
X115852000Y-69461000D02*
X115242000Y-69461000D01*
X112292000Y-70161000D02*
X112292000Y-70771000D01*
X110342000Y-70161000D02*
X112292000Y-70161000D01*
X110342000Y-66661000D02*
X110342000Y-70161000D01*
X115242000Y-66661000D02*
X110342000Y-66661000D01*
X115242000Y-70161000D02*
X115242000Y-66661000D01*
X113292000Y-70161000D02*
X115242000Y-70161000D01*
X113292000Y-70771000D02*
X113292000Y-70161000D01*
X114092000Y-70871000D02*
X114392000Y-70871000D01*
X114392000Y-70971000D02*
X114392000Y-70771000D01*
X114092000Y-70971000D02*
X114392000Y-70971000D01*
X114092000Y-70771000D02*
X114092000Y-70971000D01*
X109732000Y-70771000D02*
X115852000Y-70771000D01*
X109732000Y-66051000D02*
X109732000Y-70771000D01*
X115852000Y-66051000D02*
X109732000Y-66051000D01*
X115852000Y-70771000D02*
X115852000Y-66051000D01*
X99300000Y-66239000D02*
X99300000Y-67479000D01*
X100540000Y-66239000D02*
X99300000Y-66239000D01*
X108160000Y-78200000D02*
X99540000Y-78200000D01*
X108160000Y-66479000D02*
X99540000Y-66479000D01*
X99540000Y-66479000D02*
X99540000Y-78200000D01*
X108160000Y-66479000D02*
X108160000Y-78200000D01*
D12*
X127380000Y-57490000D02*
X125955000Y-57490000D01*
X134630000Y-57265000D02*
X134305000Y-57265000D01*
X134630000Y-64515000D02*
X134305000Y-64515000D01*
X127380000Y-64515000D02*
X127705000Y-64515000D01*
X127380000Y-57265000D02*
X127705000Y-57265000D01*
X127380000Y-64515000D02*
X127380000Y-64190000D01*
X134630000Y-64515000D02*
X134630000Y-64190000D01*
X134630000Y-57265000D02*
X134630000Y-57590000D01*
X127380000Y-57265000D02*
X127380000Y-57490000D01*
D11*
X142035000Y-68400000D02*
X143285000Y-68400000D01*
X142035000Y-67150000D02*
X142035000Y-68400000D01*
X146445000Y-65040000D02*
X145945000Y-65040000D01*
X145945000Y-64940000D02*
X146445000Y-64940000D01*
X145945000Y-65140000D02*
X145945000Y-64940000D01*
X146445000Y-65140000D02*
X145945000Y-65140000D01*
X144945000Y-61980000D02*
X144945000Y-62590000D01*
X143645000Y-61980000D02*
X143645000Y-62590000D01*
X144945000Y-68100000D02*
X144945000Y-67490000D01*
X143645000Y-68100000D02*
X143645000Y-67490000D01*
X142945000Y-64540000D02*
X142335000Y-64540000D01*
X142945000Y-62590000D02*
X142945000Y-64540000D01*
X146445000Y-62590000D02*
X142945000Y-62590000D01*
X146445000Y-67490000D02*
X146445000Y-62590000D01*
X142945000Y-67490000D02*
X146445000Y-67490000D01*
X142945000Y-65540000D02*
X142945000Y-67490000D01*
X142335000Y-65540000D02*
X142945000Y-65540000D01*
X142235000Y-66340000D02*
X142235000Y-66640000D01*
X142135000Y-66640000D02*
X142335000Y-66640000D01*
X142135000Y-66340000D02*
X142135000Y-66640000D01*
X142335000Y-66340000D02*
X142135000Y-66340000D01*
X142335000Y-61980000D02*
X142335000Y-68100000D01*
X147055000Y-61980000D02*
X142335000Y-61980000D01*
X147055000Y-68100000D02*
X147055000Y-61980000D01*
X142335000Y-68100000D02*
X147055000Y-68100000D01*
X150968000Y-68400000D02*
X152218000Y-68400000D01*
X150968000Y-67150000D02*
X150968000Y-68400000D01*
X155378000Y-65040000D02*
X154878000Y-65040000D01*
X154878000Y-64940000D02*
X155378000Y-64940000D01*
X154878000Y-65140000D02*
X154878000Y-64940000D01*
X155378000Y-65140000D02*
X154878000Y-65140000D01*
X153878000Y-61980000D02*
X153878000Y-62590000D01*
X152578000Y-61980000D02*
X152578000Y-62590000D01*
X153878000Y-68100000D02*
X153878000Y-67490000D01*
X152578000Y-68100000D02*
X152578000Y-67490000D01*
X151878000Y-64540000D02*
X151268000Y-64540000D01*
X151878000Y-62590000D02*
X151878000Y-64540000D01*
X155378000Y-62590000D02*
X151878000Y-62590000D01*
X155378000Y-67490000D02*
X155378000Y-62590000D01*
X151878000Y-67490000D02*
X155378000Y-67490000D01*
X151878000Y-65540000D02*
X151878000Y-67490000D01*
X151268000Y-65540000D02*
X151878000Y-65540000D01*
X151168000Y-66340000D02*
X151168000Y-66640000D01*
X151068000Y-66640000D02*
X151268000Y-66640000D01*
X151068000Y-66340000D02*
X151068000Y-66640000D01*
X151268000Y-66340000D02*
X151068000Y-66340000D01*
X151268000Y-61980000D02*
X151268000Y-68100000D01*
X155988000Y-61980000D02*
X151268000Y-61980000D01*
X155988000Y-68100000D02*
X155988000Y-61980000D01*
X151268000Y-68100000D02*
X155988000Y-68100000D01*
X156288000Y-70284000D02*
X155038000Y-70284000D01*
X156288000Y-71534000D02*
X156288000Y-70284000D01*
X151878000Y-73644000D02*
X152378000Y-73644000D01*
X152378000Y-73744000D02*
X151878000Y-73744000D01*
X152378000Y-73544000D02*
X152378000Y-73744000D01*
X151878000Y-73544000D02*
X152378000Y-73544000D01*
X153378000Y-76704000D02*
X153378000Y-76094000D01*
X154678000Y-76704000D02*
X154678000Y-76094000D01*
X153378000Y-70584000D02*
X153378000Y-71194000D01*
X154678000Y-70584000D02*
X154678000Y-71194000D01*
X155378000Y-74144000D02*
X155988000Y-74144000D01*
X155378000Y-76094000D02*
X155378000Y-74144000D01*
X151878000Y-76094000D02*
X155378000Y-76094000D01*
X151878000Y-71194000D02*
X151878000Y-76094000D01*
X155378000Y-71194000D02*
X151878000Y-71194000D01*
X155378000Y-73144000D02*
X155378000Y-71194000D01*
X155988000Y-73144000D02*
X155378000Y-73144000D01*
X156088000Y-72344000D02*
X156088000Y-72044000D01*
X156188000Y-72044000D02*
X155988000Y-72044000D01*
X156188000Y-72344000D02*
X156188000Y-72044000D01*
X155988000Y-72344000D02*
X156188000Y-72344000D01*
X155988000Y-76704000D02*
X155988000Y-70584000D01*
X151268000Y-76704000D02*
X155988000Y-76704000D01*
X151268000Y-70584000D02*
X151268000Y-76704000D01*
X155988000Y-70584000D02*
X151268000Y-70584000D01*
X147355000Y-70284000D02*
X146105000Y-70284000D01*
X147355000Y-71534000D02*
X147355000Y-70284000D01*
X142945000Y-73644000D02*
X143445000Y-73644000D01*
X143445000Y-73744000D02*
X142945000Y-73744000D01*
X143445000Y-73544000D02*
X143445000Y-73744000D01*
X142945000Y-73544000D02*
X143445000Y-73544000D01*
X144445000Y-76704000D02*
X144445000Y-76094000D01*
X145745000Y-76704000D02*
X145745000Y-76094000D01*
X144445000Y-70584000D02*
X144445000Y-71194000D01*
X145745000Y-70584000D02*
X145745000Y-71194000D01*
X146445000Y-74144000D02*
X147055000Y-74144000D01*
X146445000Y-76094000D02*
X146445000Y-74144000D01*
X142945000Y-76094000D02*
X146445000Y-76094000D01*
X142945000Y-71194000D02*
X142945000Y-76094000D01*
X146445000Y-71194000D02*
X142945000Y-71194000D01*
X146445000Y-73144000D02*
X146445000Y-71194000D01*
X147055000Y-73144000D02*
X146445000Y-73144000D01*
X147155000Y-72344000D02*
X147155000Y-72044000D01*
X147255000Y-72044000D02*
X147055000Y-72044000D01*
X147255000Y-72344000D02*
X147255000Y-72044000D01*
X147055000Y-72344000D02*
X147255000Y-72344000D01*
X147055000Y-76704000D02*
X147055000Y-70584000D01*
X142335000Y-76704000D02*
X147055000Y-76704000D01*
X142335000Y-70584000D02*
X142335000Y-76704000D01*
X147055000Y-70584000D02*
X142335000Y-70584000D01*
X156288000Y-53520000D02*
X155038000Y-53520000D01*
X156288000Y-54770000D02*
X156288000Y-53520000D01*
X151878000Y-56880000D02*
X152378000Y-56880000D01*
X152378000Y-56980000D02*
X151878000Y-56980000D01*
X152378000Y-56780000D02*
X152378000Y-56980000D01*
X151878000Y-56780000D02*
X152378000Y-56780000D01*
X153378000Y-59940000D02*
X153378000Y-59330000D01*
X154678000Y-59940000D02*
X154678000Y-59330000D01*
X153378000Y-53820000D02*
X153378000Y-54430000D01*
X154678000Y-53820000D02*
X154678000Y-54430000D01*
X155378000Y-57380000D02*
X155988000Y-57380000D01*
X155378000Y-59330000D02*
X155378000Y-57380000D01*
X151878000Y-59330000D02*
X155378000Y-59330000D01*
X151878000Y-54430000D02*
X151878000Y-59330000D01*
X155378000Y-54430000D02*
X151878000Y-54430000D01*
X155378000Y-56380000D02*
X155378000Y-54430000D01*
X155988000Y-56380000D02*
X155378000Y-56380000D01*
X156088000Y-55580000D02*
X156088000Y-55280000D01*
X156188000Y-55280000D02*
X155988000Y-55280000D01*
X156188000Y-55580000D02*
X156188000Y-55280000D01*
X155988000Y-55580000D02*
X156188000Y-55580000D01*
X155988000Y-59940000D02*
X155988000Y-53820000D01*
X151268000Y-59940000D02*
X155988000Y-59940000D01*
X151268000Y-53820000D02*
X151268000Y-59940000D01*
X155988000Y-53820000D02*
X151268000Y-53820000D01*
X147355000Y-53520000D02*
X146105000Y-53520000D01*
X147355000Y-54770000D02*
X147355000Y-53520000D01*
X142945000Y-56880000D02*
X143445000Y-56880000D01*
X143445000Y-56980000D02*
X142945000Y-56980000D01*
X143445000Y-56780000D02*
X143445000Y-56980000D01*
X142945000Y-56780000D02*
X143445000Y-56780000D01*
X144445000Y-59940000D02*
X144445000Y-59330000D01*
X145745000Y-59940000D02*
X145745000Y-59330000D01*
X144445000Y-53820000D02*
X144445000Y-54430000D01*
X145745000Y-53820000D02*
X145745000Y-54430000D01*
X146445000Y-57380000D02*
X147055000Y-57380000D01*
X146445000Y-59330000D02*
X146445000Y-57380000D01*
X142945000Y-59330000D02*
X146445000Y-59330000D01*
X142945000Y-54430000D02*
X142945000Y-59330000D01*
X146445000Y-54430000D02*
X142945000Y-54430000D01*
X146445000Y-56380000D02*
X146445000Y-54430000D01*
X147055000Y-56380000D02*
X146445000Y-56380000D01*
X147155000Y-55580000D02*
X147155000Y-55280000D01*
X147255000Y-55280000D02*
X147055000Y-55280000D01*
X147255000Y-55580000D02*
X147255000Y-55280000D01*
X147055000Y-55580000D02*
X147255000Y-55580000D01*
X147055000Y-59940000D02*
X147055000Y-53820000D01*
X142335000Y-59940000D02*
X147055000Y-59940000D01*
X142335000Y-53820000D02*
X142335000Y-59940000D01*
X147055000Y-53820000D02*
X142335000Y-53820000D01*
X150968000Y-51890000D02*
X152218000Y-51890000D01*
X150968000Y-50640000D02*
X150968000Y-51890000D01*
X155378000Y-48530000D02*
X154878000Y-48530000D01*
X154878000Y-48430000D02*
X155378000Y-48430000D01*
X154878000Y-48630000D02*
X154878000Y-48430000D01*
X155378000Y-48630000D02*
X154878000Y-48630000D01*
X153878000Y-45470000D02*
X153878000Y-46080000D01*
X152578000Y-45470000D02*
X152578000Y-46080000D01*
X153878000Y-51590000D02*
X153878000Y-50980000D01*
X152578000Y-51590000D02*
X152578000Y-50980000D01*
X151878000Y-48030000D02*
X151268000Y-48030000D01*
X151878000Y-46080000D02*
X151878000Y-48030000D01*
X155378000Y-46080000D02*
X151878000Y-46080000D01*
X155378000Y-50980000D02*
X155378000Y-46080000D01*
X151878000Y-50980000D02*
X155378000Y-50980000D01*
X151878000Y-49030000D02*
X151878000Y-50980000D01*
X151268000Y-49030000D02*
X151878000Y-49030000D01*
X151168000Y-49830000D02*
X151168000Y-50130000D01*
X151068000Y-50130000D02*
X151268000Y-50130000D01*
X151068000Y-49830000D02*
X151068000Y-50130000D01*
X151268000Y-49830000D02*
X151068000Y-49830000D01*
X151268000Y-45470000D02*
X151268000Y-51590000D01*
X155988000Y-45470000D02*
X151268000Y-45470000D01*
X155988000Y-51590000D02*
X155988000Y-45470000D01*
X151268000Y-51590000D02*
X155988000Y-51590000D01*
X142035000Y-51890000D02*
X143285000Y-51890000D01*
X142035000Y-50640000D02*
X142035000Y-51890000D01*
X146445000Y-48530000D02*
X145945000Y-48530000D01*
X145945000Y-48430000D02*
X146445000Y-48430000D01*
X145945000Y-48630000D02*
X145945000Y-48430000D01*
X146445000Y-48630000D02*
X145945000Y-48630000D01*
X144945000Y-45470000D02*
X144945000Y-46080000D01*
X143645000Y-45470000D02*
X143645000Y-46080000D01*
X144945000Y-51590000D02*
X144945000Y-50980000D01*
X143645000Y-51590000D02*
X143645000Y-50980000D01*
X142945000Y-48030000D02*
X142335000Y-48030000D01*
X142945000Y-46080000D02*
X142945000Y-48030000D01*
X146445000Y-46080000D02*
X142945000Y-46080000D01*
X146445000Y-50980000D02*
X146445000Y-46080000D01*
X142945000Y-50980000D02*
X146445000Y-50980000D01*
X142945000Y-49030000D02*
X142945000Y-50980000D01*
X142335000Y-49030000D02*
X142945000Y-49030000D01*
X142235000Y-49830000D02*
X142235000Y-50130000D01*
X142135000Y-50130000D02*
X142335000Y-50130000D01*
X142135000Y-49830000D02*
X142135000Y-50130000D01*
X142335000Y-49830000D02*
X142135000Y-49830000D01*
X142335000Y-45470000D02*
X142335000Y-51590000D01*
X147055000Y-45470000D02*
X142335000Y-45470000D01*
X147055000Y-51590000D02*
X147055000Y-45470000D01*
X142335000Y-51590000D02*
X147055000Y-51590000D01*
X134317000Y-43360000D02*
X133067000Y-43360000D01*
X134317000Y-44610000D02*
X134317000Y-43360000D01*
X129907000Y-48720000D02*
X130407000Y-48720000D01*
X130407000Y-48820000D02*
X129907000Y-48820000D01*
X130407000Y-48620000D02*
X130407000Y-48820000D01*
X129907000Y-48620000D02*
X130407000Y-48620000D01*
X129907000Y-46720000D02*
X130407000Y-46720000D01*
X130407000Y-46820000D02*
X129907000Y-46820000D01*
X130407000Y-46620000D02*
X130407000Y-46820000D01*
X129907000Y-46620000D02*
X130407000Y-46620000D01*
X131407000Y-51780000D02*
X131407000Y-51170000D01*
X132707000Y-51780000D02*
X132707000Y-51170000D01*
X131407000Y-43660000D02*
X131407000Y-44270000D01*
X132707000Y-43660000D02*
X132707000Y-44270000D01*
X133407000Y-49220000D02*
X134017000Y-49220000D01*
X133407000Y-51170000D02*
X133407000Y-49220000D01*
X129907000Y-51170000D02*
X133407000Y-51170000D01*
X129907000Y-44270000D02*
X129907000Y-51170000D01*
X133407000Y-44270000D02*
X129907000Y-44270000D01*
X133407000Y-46220000D02*
X133407000Y-44270000D01*
X134017000Y-46220000D02*
X133407000Y-46220000D01*
X134117000Y-45420000D02*
X134117000Y-45120000D01*
X134217000Y-45120000D02*
X134017000Y-45120000D01*
X134217000Y-45420000D02*
X134217000Y-45120000D01*
X134017000Y-45420000D02*
X134217000Y-45420000D01*
X134017000Y-51780000D02*
X134017000Y-43660000D01*
X129297000Y-51780000D02*
X134017000Y-51780000D01*
X129297000Y-43660000D02*
X129297000Y-51780000D01*
X134017000Y-43660000D02*
X129297000Y-43660000D01*
X151560000Y-43000000D02*
X152810000Y-43000000D01*
X151560000Y-41750000D02*
X151560000Y-43000000D01*
X155970000Y-39640000D02*
X155470000Y-39640000D01*
X155470000Y-39540000D02*
X155970000Y-39540000D01*
X155470000Y-39740000D02*
X155470000Y-39540000D01*
X155970000Y-39740000D02*
X155470000Y-39740000D01*
X154470000Y-36580000D02*
X154470000Y-37190000D01*
X153170000Y-36580000D02*
X153170000Y-37190000D01*
X154470000Y-42700000D02*
X154470000Y-42090000D01*
X153170000Y-42700000D02*
X153170000Y-42090000D01*
X152470000Y-39140000D02*
X151860000Y-39140000D01*
X152470000Y-37190000D02*
X152470000Y-39140000D01*
X155970000Y-37190000D02*
X152470000Y-37190000D01*
X155970000Y-42090000D02*
X155970000Y-37190000D01*
X152470000Y-42090000D02*
X155970000Y-42090000D01*
X152470000Y-40140000D02*
X152470000Y-42090000D01*
X151860000Y-40140000D02*
X152470000Y-40140000D01*
X151760000Y-40940000D02*
X151760000Y-41240000D01*
X151660000Y-41240000D02*
X151860000Y-41240000D01*
X151660000Y-40940000D02*
X151660000Y-41240000D01*
X151860000Y-40940000D02*
X151660000Y-40940000D01*
X151860000Y-36580000D02*
X151860000Y-42700000D01*
X156580000Y-36580000D02*
X151860000Y-36580000D01*
X156580000Y-42700000D02*
X156580000Y-36580000D01*
X151860000Y-42700000D02*
X156580000Y-42700000D01*
X144575000Y-43000000D02*
X145825000Y-43000000D01*
X144575000Y-41750000D02*
X144575000Y-43000000D01*
X148985000Y-39640000D02*
X148485000Y-39640000D01*
X148485000Y-39540000D02*
X148985000Y-39540000D01*
X148485000Y-39740000D02*
X148485000Y-39540000D01*
X148985000Y-39740000D02*
X148485000Y-39740000D01*
X147485000Y-36580000D02*
X147485000Y-37190000D01*
X146185000Y-36580000D02*
X146185000Y-37190000D01*
X147485000Y-42700000D02*
X147485000Y-42090000D01*
X146185000Y-42700000D02*
X146185000Y-42090000D01*
X145485000Y-39140000D02*
X144875000Y-39140000D01*
X145485000Y-37190000D02*
X145485000Y-39140000D01*
X148985000Y-37190000D02*
X145485000Y-37190000D01*
X148985000Y-42090000D02*
X148985000Y-37190000D01*
X145485000Y-42090000D02*
X148985000Y-42090000D01*
X145485000Y-40140000D02*
X145485000Y-42090000D01*
X144875000Y-40140000D02*
X145485000Y-40140000D01*
X144775000Y-40940000D02*
X144775000Y-41240000D01*
X144675000Y-41240000D02*
X144875000Y-41240000D01*
X144675000Y-40940000D02*
X144675000Y-41240000D01*
X144875000Y-40940000D02*
X144675000Y-40940000D01*
X144875000Y-36580000D02*
X144875000Y-42700000D01*
X149595000Y-36580000D02*
X144875000Y-36580000D01*
X149595000Y-42700000D02*
X149595000Y-36580000D01*
X144875000Y-42700000D02*
X149595000Y-42700000D01*
X103110000Y-44375000D02*
X103110000Y-46375000D01*
X100510000Y-44375000D02*
X100510000Y-46375000D01*
X109610000Y-44375000D02*
X103110000Y-44375000D01*
X114010000Y-44375000D02*
X112810000Y-44375000D01*
X114010000Y-38175000D02*
X114010000Y-44375000D01*
X105110000Y-38175000D02*
X114010000Y-38175000D01*
X99310000Y-38175000D02*
X102510000Y-38175000D01*
X99310000Y-38675000D02*
X99310000Y-38175000D01*
X96810000Y-38675000D02*
X99310000Y-38675000D01*
X96810000Y-43875000D02*
X96810000Y-38675000D01*
X99310000Y-43875000D02*
X96810000Y-43875000D01*
X99310000Y-44375000D02*
X99310000Y-43875000D01*
X100510000Y-44375000D02*
X99310000Y-44375000D01*
X118760000Y-74780000D02*
G75*
G03X123810000Y-74780000I2525000J0D01*
G01*
X118760000Y-68530000D02*
G75*
G02X123810000Y-68530000I2525000J0D01*
G01*
X118760000Y-68530000D02*
X118760000Y-74780000D01*
X123810000Y-68530000D02*
X123810000Y-74780000D01*
X136505000Y-73660000D02*
X136505000Y-70210000D01*
X136505000Y-73660000D02*
X136505000Y-75610000D01*
X126385000Y-73660000D02*
X126385000Y-71710000D01*
X126385000Y-73660000D02*
X126385000Y-75610000D01*
X112270000Y-73817267D02*
X112270000Y-73474733D01*
X111250000Y-73817267D02*
X111250000Y-73474733D01*
X116190000Y-55325000D02*
X116190000Y-57065000D01*
X114450000Y-55325000D02*
X116190000Y-55325000D01*
X110550000Y-61115000D02*
X108100000Y-61115000D01*
X110550000Y-60715000D02*
X110550000Y-61115000D01*
X112550000Y-60715000D02*
X110550000Y-60715000D01*
X112550000Y-59115000D02*
X112550000Y-60715000D01*
X112550000Y-52315000D02*
X112550000Y-55315000D01*
X110550000Y-52315000D02*
X112550000Y-52315000D01*
X110550000Y-51915000D02*
X110550000Y-52315000D01*
X108100000Y-51915000D02*
X110550000Y-51915000D01*
X97850000Y-51915000D02*
X101400000Y-51915000D01*
X97850000Y-61115000D02*
X97850000Y-51915000D01*
X101400000Y-61115000D02*
X97850000Y-61115000D01*
X124520000Y-52130000D02*
X123190000Y-52130000D01*
X124520000Y-50800000D02*
X124520000Y-52130000D01*
X121920000Y-52130000D02*
X119320000Y-52130000D01*
X121920000Y-49530000D02*
X121920000Y-52130000D01*
X124520000Y-49530000D02*
X121920000Y-49530000D01*
X119320000Y-52130000D02*
X119320000Y-44390000D01*
X124520000Y-49530000D02*
X124520000Y-44390000D01*
X124520000Y-44390000D02*
X119320000Y-44390000D01*
X134934000Y-37405000D02*
X134934000Y-38735000D01*
X133604000Y-37405000D02*
X134934000Y-37405000D01*
X132334000Y-37405000D02*
X132334000Y-40065000D01*
X132334000Y-40065000D02*
X119574000Y-40065000D01*
X132334000Y-37405000D02*
X119574000Y-37405000D01*
X119574000Y-37405000D02*
X119574000Y-40065000D01*
X113225000Y-73543748D02*
X113225000Y-76316252D01*
X116645000Y-73543748D02*
X116645000Y-76316252D01*
X108739000Y-71986000D02*
X108739000Y-74446000D01*
X110209000Y-71986000D02*
X108739000Y-71986000D01*
X110209000Y-74446000D02*
X110209000Y-71986000D01*
D12*
X120316666Y-54467380D02*
X120316666Y-55181666D01*
X120269047Y-55324523D01*
X120173809Y-55419761D01*
X120030952Y-55467380D01*
X119935714Y-55467380D01*
X121221428Y-54800714D02*
X121221428Y-55467380D01*
X120983333Y-54419761D02*
X120745238Y-55134047D01*
X121364285Y-55134047D01*
X116546380Y-67865523D02*
X117260666Y-67865523D01*
X117403523Y-67913142D01*
X117498761Y-68008380D01*
X117546380Y-68151238D01*
X117546380Y-68246476D01*
X117546380Y-66865523D02*
X117546380Y-67436952D01*
X117546380Y-67151238D02*
X116546380Y-67151238D01*
X116689238Y-67246476D01*
X116784476Y-67341714D01*
X116832095Y-67436952D01*
X116546380Y-66532190D02*
X116546380Y-65865523D01*
X117546380Y-66294095D01*
X101052380Y-77977904D02*
X101861904Y-77977904D01*
X101957142Y-77930285D01*
X102004761Y-77882666D01*
X102052380Y-77787428D01*
X102052380Y-77596952D01*
X102004761Y-77501714D01*
X101957142Y-77454095D01*
X101861904Y-77406476D01*
X101052380Y-77406476D01*
X101052380Y-77025523D02*
X101052380Y-76406476D01*
X101433333Y-76739809D01*
X101433333Y-76596952D01*
X101480952Y-76501714D01*
X101528571Y-76454095D01*
X101623809Y-76406476D01*
X101861904Y-76406476D01*
X101957142Y-76454095D01*
X102004761Y-76501714D01*
X102052380Y-76596952D01*
X102052380Y-76882666D01*
X102004761Y-76977904D01*
X101957142Y-77025523D01*
X130243095Y-54292380D02*
X130243095Y-55101904D01*
X130290714Y-55197142D01*
X130338333Y-55244761D01*
X130433571Y-55292380D01*
X130624047Y-55292380D01*
X130719285Y-55244761D01*
X130766904Y-55197142D01*
X130814523Y-55101904D01*
X130814523Y-54292380D01*
X131814523Y-55292380D02*
X131243095Y-55292380D01*
X131528809Y-55292380D02*
X131528809Y-54292380D01*
X131433571Y-54435238D01*
X131338333Y-54530476D01*
X131243095Y-54578095D01*
X140697380Y-65849523D02*
X141411666Y-65849523D01*
X141554523Y-65897142D01*
X141649761Y-65992380D01*
X141697380Y-66135238D01*
X141697380Y-66230476D01*
X141697380Y-64849523D02*
X141697380Y-65420952D01*
X141697380Y-65135238D02*
X140697380Y-65135238D01*
X140840238Y-65230476D01*
X140935476Y-65325714D01*
X140983095Y-65420952D01*
X140697380Y-64516190D02*
X140697380Y-63897142D01*
X141078333Y-64230476D01*
X141078333Y-64087619D01*
X141125952Y-63992380D01*
X141173571Y-63944761D01*
X141268809Y-63897142D01*
X141506904Y-63897142D01*
X141602142Y-63944761D01*
X141649761Y-63992380D01*
X141697380Y-64087619D01*
X141697380Y-64373333D01*
X141649761Y-64468571D01*
X141602142Y-64516190D01*
X149630380Y-65849523D02*
X150344666Y-65849523D01*
X150487523Y-65897142D01*
X150582761Y-65992380D01*
X150630380Y-66135238D01*
X150630380Y-66230476D01*
X150630380Y-64849523D02*
X150630380Y-65420952D01*
X150630380Y-65135238D02*
X149630380Y-65135238D01*
X149773238Y-65230476D01*
X149868476Y-65325714D01*
X149916095Y-65420952D01*
X149725619Y-64468571D02*
X149678000Y-64420952D01*
X149630380Y-64325714D01*
X149630380Y-64087619D01*
X149678000Y-63992380D01*
X149725619Y-63944761D01*
X149820857Y-63897142D01*
X149916095Y-63897142D01*
X150058952Y-63944761D01*
X150630380Y-64516190D01*
X150630380Y-63897142D01*
X156530380Y-74453523D02*
X157244666Y-74453523D01*
X157387523Y-74501142D01*
X157482761Y-74596380D01*
X157530380Y-74739238D01*
X157530380Y-74834476D01*
X157530380Y-73453523D02*
X157530380Y-74024952D01*
X157530380Y-73739238D02*
X156530380Y-73739238D01*
X156673238Y-73834476D01*
X156768476Y-73929714D01*
X156816095Y-74024952D01*
X157530380Y-72501142D02*
X157530380Y-73072571D01*
X157530380Y-72786857D02*
X156530380Y-72786857D01*
X156673238Y-72882095D01*
X156768476Y-72977333D01*
X156816095Y-73072571D01*
X147597380Y-74453523D02*
X148311666Y-74453523D01*
X148454523Y-74501142D01*
X148549761Y-74596380D01*
X148597380Y-74739238D01*
X148597380Y-74834476D01*
X148597380Y-73453523D02*
X148597380Y-74024952D01*
X148597380Y-73739238D02*
X147597380Y-73739238D01*
X147740238Y-73834476D01*
X147835476Y-73929714D01*
X147883095Y-74024952D01*
X147597380Y-72834476D02*
X147597380Y-72739238D01*
X147645000Y-72644000D01*
X147692619Y-72596380D01*
X147787857Y-72548761D01*
X147978333Y-72501142D01*
X148216428Y-72501142D01*
X148406904Y-72548761D01*
X148502142Y-72596380D01*
X148549761Y-72644000D01*
X148597380Y-72739238D01*
X148597380Y-72834476D01*
X148549761Y-72929714D01*
X148502142Y-72977333D01*
X148406904Y-73024952D01*
X148216428Y-73072571D01*
X147978333Y-73072571D01*
X147787857Y-73024952D01*
X147692619Y-72977333D01*
X147645000Y-72929714D01*
X147597380Y-72834476D01*
X156530380Y-57213333D02*
X157244666Y-57213333D01*
X157387523Y-57260952D01*
X157482761Y-57356190D01*
X157530380Y-57499047D01*
X157530380Y-57594285D01*
X157530380Y-56689523D02*
X157530380Y-56499047D01*
X157482761Y-56403809D01*
X157435142Y-56356190D01*
X157292285Y-56260952D01*
X157101809Y-56213333D01*
X156720857Y-56213333D01*
X156625619Y-56260952D01*
X156578000Y-56308571D01*
X156530380Y-56403809D01*
X156530380Y-56594285D01*
X156578000Y-56689523D01*
X156625619Y-56737142D01*
X156720857Y-56784761D01*
X156958952Y-56784761D01*
X157054190Y-56737142D01*
X157101809Y-56689523D01*
X157149428Y-56594285D01*
X157149428Y-56403809D01*
X157101809Y-56308571D01*
X157054190Y-56260952D01*
X156958952Y-56213333D01*
X147597380Y-57213333D02*
X148311666Y-57213333D01*
X148454523Y-57260952D01*
X148549761Y-57356190D01*
X148597380Y-57499047D01*
X148597380Y-57594285D01*
X148025952Y-56594285D02*
X147978333Y-56689523D01*
X147930714Y-56737142D01*
X147835476Y-56784761D01*
X147787857Y-56784761D01*
X147692619Y-56737142D01*
X147645000Y-56689523D01*
X147597380Y-56594285D01*
X147597380Y-56403809D01*
X147645000Y-56308571D01*
X147692619Y-56260952D01*
X147787857Y-56213333D01*
X147835476Y-56213333D01*
X147930714Y-56260952D01*
X147978333Y-56308571D01*
X148025952Y-56403809D01*
X148025952Y-56594285D01*
X148073571Y-56689523D01*
X148121190Y-56737142D01*
X148216428Y-56784761D01*
X148406904Y-56784761D01*
X148502142Y-56737142D01*
X148549761Y-56689523D01*
X148597380Y-56594285D01*
X148597380Y-56403809D01*
X148549761Y-56308571D01*
X148502142Y-56260952D01*
X148406904Y-56213333D01*
X148216428Y-56213333D01*
X148121190Y-56260952D01*
X148073571Y-56308571D01*
X148025952Y-56403809D01*
X149630380Y-48863333D02*
X150344666Y-48863333D01*
X150487523Y-48910952D01*
X150582761Y-49006190D01*
X150630380Y-49149047D01*
X150630380Y-49244285D01*
X149630380Y-48482380D02*
X149630380Y-47815714D01*
X150630380Y-48244285D01*
X140697380Y-48863333D02*
X141411666Y-48863333D01*
X141554523Y-48910952D01*
X141649761Y-49006190D01*
X141697380Y-49149047D01*
X141697380Y-49244285D01*
X140697380Y-47958571D02*
X140697380Y-48149047D01*
X140745000Y-48244285D01*
X140792619Y-48291904D01*
X140935476Y-48387142D01*
X141125952Y-48434761D01*
X141506904Y-48434761D01*
X141602142Y-48387142D01*
X141649761Y-48339523D01*
X141697380Y-48244285D01*
X141697380Y-48053809D01*
X141649761Y-47958571D01*
X141602142Y-47910952D01*
X141506904Y-47863333D01*
X141268809Y-47863333D01*
X141173571Y-47910952D01*
X141125952Y-47958571D01*
X141078333Y-48053809D01*
X141078333Y-48244285D01*
X141125952Y-48339523D01*
X141173571Y-48387142D01*
X141268809Y-48434761D01*
X134559380Y-48053333D02*
X135273666Y-48053333D01*
X135416523Y-48100952D01*
X135511761Y-48196190D01*
X135559380Y-48339047D01*
X135559380Y-48434285D01*
X134559380Y-47672380D02*
X134559380Y-47053333D01*
X134940333Y-47386666D01*
X134940333Y-47243809D01*
X134987952Y-47148571D01*
X135035571Y-47100952D01*
X135130809Y-47053333D01*
X135368904Y-47053333D01*
X135464142Y-47100952D01*
X135511761Y-47148571D01*
X135559380Y-47243809D01*
X135559380Y-47529523D01*
X135511761Y-47624761D01*
X135464142Y-47672380D01*
X150222380Y-39973333D02*
X150936666Y-39973333D01*
X151079523Y-40020952D01*
X151174761Y-40116190D01*
X151222380Y-40259047D01*
X151222380Y-40354285D01*
X150317619Y-39544761D02*
X150270000Y-39497142D01*
X150222380Y-39401904D01*
X150222380Y-39163809D01*
X150270000Y-39068571D01*
X150317619Y-39020952D01*
X150412857Y-38973333D01*
X150508095Y-38973333D01*
X150650952Y-39020952D01*
X151222380Y-39592380D01*
X151222380Y-38973333D01*
X143343380Y-37417333D02*
X144057666Y-37417333D01*
X144200523Y-37464952D01*
X144295761Y-37560190D01*
X144343380Y-37703047D01*
X144343380Y-37798285D01*
X144343380Y-36417333D02*
X144343380Y-36988761D01*
X144343380Y-36703047D02*
X143343380Y-36703047D01*
X143486238Y-36798285D01*
X143581476Y-36893523D01*
X143629095Y-36988761D01*
X114641380Y-38338023D02*
X115355666Y-38338023D01*
X115498523Y-38385642D01*
X115593761Y-38480880D01*
X115641380Y-38623738D01*
X115641380Y-38718976D01*
X115641380Y-37338023D02*
X115641380Y-37909452D01*
X115641380Y-37623738D02*
X114641380Y-37623738D01*
X114784238Y-37718976D01*
X114879476Y-37814214D01*
X114927095Y-37909452D01*
X114641380Y-36433261D02*
X114641380Y-36909452D01*
X115117571Y-36957071D01*
X115069952Y-36909452D01*
X115022333Y-36814214D01*
X115022333Y-36576119D01*
X115069952Y-36480880D01*
X115117571Y-36433261D01*
X115212809Y-36385642D01*
X115450904Y-36385642D01*
X115546142Y-36433261D01*
X115593761Y-36480880D01*
X115641380Y-36576119D01*
X115641380Y-36814214D01*
X115593761Y-36909452D01*
X115546142Y-36957071D01*
X124786190Y-72131190D02*
X125262380Y-72131190D01*
X124262380Y-72464523D02*
X124786190Y-72131190D01*
X124262380Y-71797857D01*
X125262380Y-70940714D02*
X125262380Y-71512142D01*
X125262380Y-71226428D02*
X124262380Y-71226428D01*
X124405238Y-71321666D01*
X124500476Y-71416904D01*
X124548095Y-71512142D01*
X136797380Y-74421904D02*
X137606904Y-74421904D01*
X137702142Y-74374285D01*
X137749761Y-74326666D01*
X137797380Y-74231428D01*
X137797380Y-74040952D01*
X137749761Y-73945714D01*
X137702142Y-73898095D01*
X137606904Y-73850476D01*
X136797380Y-73850476D01*
X136892619Y-73421904D02*
X136845000Y-73374285D01*
X136797380Y-73279047D01*
X136797380Y-73040952D01*
X136845000Y-72945714D01*
X136892619Y-72898095D01*
X136987857Y-72850476D01*
X137083095Y-72850476D01*
X137225952Y-72898095D01*
X137797380Y-73469523D01*
X137797380Y-72850476D01*
X112212380Y-77604857D02*
X111736190Y-77938190D01*
X112212380Y-78176285D02*
X111212380Y-78176285D01*
X111212380Y-77795333D01*
X111260000Y-77700095D01*
X111307619Y-77652476D01*
X111402857Y-77604857D01*
X111545714Y-77604857D01*
X111640952Y-77652476D01*
X111688571Y-77700095D01*
X111736190Y-77795333D01*
X111736190Y-78176285D01*
X112212380Y-76652476D02*
X112212380Y-77223904D01*
X112212380Y-76938190D02*
X111212380Y-76938190D01*
X111355238Y-77033428D01*
X111450476Y-77128666D01*
X111498095Y-77223904D01*
X112212380Y-75700095D02*
X112212380Y-76271523D01*
X112212380Y-75985809D02*
X111212380Y-75985809D01*
X111355238Y-76081047D01*
X111450476Y-76176285D01*
X111498095Y-76271523D01*
X113152380Y-52824523D02*
X113866666Y-52824523D01*
X114009523Y-52872142D01*
X114104761Y-52967380D01*
X114152380Y-53110238D01*
X114152380Y-53205476D01*
X114152380Y-51824523D02*
X114152380Y-52395952D01*
X114152380Y-52110238D02*
X113152380Y-52110238D01*
X113295238Y-52205476D01*
X113390476Y-52300714D01*
X113438095Y-52395952D01*
X113152380Y-50967380D02*
X113152380Y-51157857D01*
X113200000Y-51253095D01*
X113247619Y-51300714D01*
X113390476Y-51395952D01*
X113580952Y-51443571D01*
X113961904Y-51443571D01*
X114057142Y-51395952D01*
X114104761Y-51348333D01*
X114152380Y-51253095D01*
X114152380Y-51062619D01*
X114104761Y-50967380D01*
X114057142Y-50919761D01*
X113961904Y-50872142D01*
X113723809Y-50872142D01*
X113628571Y-50919761D01*
X113580952Y-50967380D01*
X113533333Y-51062619D01*
X113533333Y-51253095D01*
X113580952Y-51348333D01*
X113628571Y-51395952D01*
X113723809Y-51443571D01*
X121110476Y-52582380D02*
X121110476Y-53296666D01*
X121062857Y-53439523D01*
X120967619Y-53534761D01*
X120824761Y-53582380D01*
X120729523Y-53582380D01*
X122110476Y-53582380D02*
X121539047Y-53582380D01*
X121824761Y-53582380D02*
X121824761Y-52582380D01*
X121729523Y-52725238D01*
X121634285Y-52820476D01*
X121539047Y-52868095D01*
X122967619Y-52915714D02*
X122967619Y-53582380D01*
X122729523Y-52534761D02*
X122491428Y-53249047D01*
X123110476Y-53249047D01*
X133905666Y-40790880D02*
X133905666Y-41505166D01*
X133858047Y-41648023D01*
X133762809Y-41743261D01*
X133619952Y-41790880D01*
X133524714Y-41790880D01*
X134858047Y-40790880D02*
X134381857Y-40790880D01*
X134334238Y-41267071D01*
X134381857Y-41219452D01*
X134477095Y-41171833D01*
X134715190Y-41171833D01*
X134810428Y-41219452D01*
X134858047Y-41267071D01*
X134905666Y-41362309D01*
X134905666Y-41600404D01*
X134858047Y-41695642D01*
X134810428Y-41743261D01*
X134715190Y-41790880D01*
X134477095Y-41790880D01*
X134381857Y-41743261D01*
X134334238Y-41695642D01*
X142748095Y-37282380D02*
X142748095Y-36282380D01*
X142748095Y-36758571D02*
X143319523Y-36758571D01*
X143319523Y-37282380D02*
X143319523Y-36282380D01*
X144319523Y-37282380D02*
X143748095Y-37282380D01*
X144033809Y-37282380D02*
X144033809Y-36282380D01*
X143938571Y-36425238D01*
X143843333Y-36520476D01*
X143748095Y-36568095D01*
X114800071Y-75136333D02*
X114800071Y-75469666D01*
X115323880Y-75469666D02*
X114323880Y-75469666D01*
X114323880Y-74993476D01*
X115323880Y-74088714D02*
X115323880Y-74660142D01*
X115323880Y-74374428D02*
X114323880Y-74374428D01*
X114466738Y-74469666D01*
X114561976Y-74564904D01*
X114609595Y-74660142D01*
X109799380Y-77192095D02*
X108799380Y-77192095D01*
X108799380Y-76954000D01*
X108847000Y-76811142D01*
X108942238Y-76715904D01*
X109037476Y-76668285D01*
X109227952Y-76620666D01*
X109370809Y-76620666D01*
X109561285Y-76668285D01*
X109656523Y-76715904D01*
X109751761Y-76811142D01*
X109799380Y-76954000D01*
X109799380Y-77192095D01*
X109799380Y-75668285D02*
X109799380Y-76239714D01*
X109799380Y-75954000D02*
X108799380Y-75954000D01*
X108942238Y-76049238D01*
X109037476Y-76144476D01*
X109085095Y-76239714D01*
M02*
