M48
; DRILL file {KiCad 5.1.5-52549c5~84~ubuntu18.04.1} date Sat 28 Dec 2019 10:58:23 PM EST
; FORMAT={-:-/ absolute / inch / decimal}
; #@! TF.CreationDate,2019-12-28T22:58:23-05:00
; #@! TF.GenerationSoftware,Kicad,Pcbnew,5.1.5-52549c5~84~ubuntu18.04.1
FMAT,2
INCH
T1C0.0157
T2C0.0315
T3C0.0394
T4C0.0669
T5C0.0787
%
G90
G05
T1
X4.259Y-3.896
X4.279Y-3.086
X4.439Y-2.631
X4.494Y-4.071
X4.789Y-4.071
X4.879Y-3.071
X4.959Y-3.466
X5.054Y-4.071
X5.164Y-2.9432
X5.244Y-3.091
X5.264Y-4.161
X5.269Y-4.041
X5.319Y-3.461
X5.324Y-3.921
X5.324Y-4.081
X5.384Y-4.047
X5.464Y-3.686
X5.524Y-4.0165
X5.534Y-3.341
X5.539Y-2.626
X5.564Y-3.921
X5.5745Y-3.061
X5.589Y-4.076
X5.624Y-3.986
X5.654Y-3.3355
X5.659Y-3.116
X5.669Y-3.2233
X5.684Y-3.921
X5.699Y-3.196
X5.7409Y-3.9218
X5.744Y-3.181
X5.7517Y-3.2614
X5.754Y-3.071
X5.7551Y-3.3041
X5.779Y-3.151
X5.784Y-3.1977
X5.859Y-3.106
X5.8633Y-3.4217
X5.874Y-4.061
X5.9013Y-3.921
X5.9013Y-3.961
X5.904Y-3.246
X5.9712Y-3.9751
X5.994Y-3.651
X6.024Y-3.906
X6.034Y-3.411
X6.084Y-3.901
X6.094Y-3.106
X6.094Y-3.731
X6.124Y-3.761
X6.144Y-3.931
X6.184Y-4.071
X6.244Y-3.486
X6.244Y-3.701
X6.249Y-3.181
X6.304Y-3.701
X6.334Y-3.516
X6.359Y-4.156
X6.384Y-3.936
X6.3961Y-3.3712
X6.439Y-3.201
X6.444Y-3.281
X6.464Y-3.861
X6.464Y-4.121
X6.539Y-3.331
X6.6162Y-3.361
X6.644Y-3.751
X6.669Y-2.621
X6.734Y-4.081
X6.744Y-3.181
X6.859Y-3.241
X6.903Y-3.377
X6.904Y-3.121
X7.004Y-4.076
X7.1784Y-3.1165
X7.224Y-3.181
X7.309Y-4.071
X7.414Y-3.771
T2
X5.9053Y-4.191
X5.984Y-4.191
X7.0403Y-4.191
X7.119Y-4.191
X6.1853Y-4.191
X6.264Y-4.191
X4.8003Y-4.191
X4.879Y-4.191
X6.7653Y-2.731
X6.844Y-2.731
X7.3253Y-4.191
X7.404Y-4.191
X7.054Y-2.731
X7.1327Y-2.731
X7.334Y-2.731
X7.4127Y-2.731
X4.814Y-2.731
X4.8927Y-2.731
X4.2553Y-4.191
X4.334Y-4.191
X5.0853Y-2.731
X5.164Y-2.731
X6.7553Y-4.191
X6.834Y-4.191
X5.0753Y-4.191
X5.154Y-4.191
X5.6353Y-2.731
X5.714Y-2.731
X5.9153Y-2.731
X5.994Y-2.731
X4.2653Y-2.731
X4.344Y-2.731
X5.6253Y-4.191
X5.704Y-4.191
X6.4653Y-4.191
X6.544Y-4.191
X5.3553Y-2.731
X5.434Y-2.731
X4.5353Y-2.731
X4.614Y-2.731
X4.5253Y-4.191
X4.604Y-4.191
X6.4753Y-2.731
X6.554Y-2.731
X5.3503Y-4.191
X5.429Y-4.191
X6.1953Y-2.731
X6.274Y-2.731
T3
X7.0003Y-3.1623
X7.0003Y-3.2623
X7.0003Y-3.3623
X7.1003Y-3.1623
X7.1003Y-3.2623
X7.1003Y-3.3623
X7.429Y-3.0335
X7.429Y-3.1335
X7.429Y-3.2335
X7.429Y-3.3335
X7.429Y-3.4335
X7.429Y-3.5335
X5.129Y-3.716
X5.229Y-3.716
X5.329Y-3.716
T4
X6.9518Y-3.716
X7.2274Y-3.716
T5
X4.3104Y-3.477
T0
M30
