G04 #@! TF.GenerationSoftware,KiCad,Pcbnew,5.1.5-52549c5~84~ubuntu18.04.1*
G04 #@! TF.CreationDate,2019-12-28T22:58:30-05:00*
G04 #@! TF.ProjectId,landfill_board_rev1,6c616e64-6669-46c6-9c5f-626f6172645f,rev?*
G04 #@! TF.SameCoordinates,Original*
G04 #@! TF.FileFunction,Legend,Bot*
G04 #@! TF.FilePolarity,Positive*
%FSLAX46Y46*%
G04 Gerber Fmt 4.6, Leading zero omitted, Abs format (unit mm)*
G04 Created by KiCad (PCBNEW 5.1.5-52549c5~84~ubuntu18.04.1) date 2019-12-28 22:58:30*
%MOMM*%
%LPD*%
G04 APERTURE LIST*
%ADD10C,0.150000*%
%ADD11C,0.010000*%
G04 APERTURE END LIST*
D10*
X187632647Y-110281980D02*
X188108838Y-110281980D01*
X188108838Y-109281980D01*
X187346933Y-109996266D02*
X186870742Y-109996266D01*
X187442171Y-110281980D02*
X187108838Y-109281980D01*
X186775504Y-110281980D01*
X186442171Y-110281980D02*
X186442171Y-109281980D01*
X185870742Y-110281980D01*
X185870742Y-109281980D01*
X185394552Y-110281980D02*
X185394552Y-109281980D01*
X185156457Y-109281980D01*
X185013600Y-109329600D01*
X184918361Y-109424838D01*
X184870742Y-109520076D01*
X184823123Y-109710552D01*
X184823123Y-109853409D01*
X184870742Y-110043885D01*
X184918361Y-110139123D01*
X185013600Y-110234361D01*
X185156457Y-110281980D01*
X185394552Y-110281980D01*
X184061219Y-109758171D02*
X184394552Y-109758171D01*
X184394552Y-110281980D02*
X184394552Y-109281980D01*
X183918361Y-109281980D01*
X183537409Y-110281980D02*
X183537409Y-109281980D01*
X182585028Y-110281980D02*
X183061219Y-110281980D01*
X183061219Y-109281980D01*
X181775504Y-110281980D02*
X182251695Y-110281980D01*
X182251695Y-109281980D01*
X122746638Y-97811200D02*
X122841876Y-97763580D01*
X122984733Y-97763580D01*
X123127590Y-97811200D01*
X123222828Y-97906438D01*
X123270447Y-98001676D01*
X123318066Y-98192152D01*
X123318066Y-98335009D01*
X123270447Y-98525485D01*
X123222828Y-98620723D01*
X123127590Y-98715961D01*
X122984733Y-98763580D01*
X122889495Y-98763580D01*
X122746638Y-98715961D01*
X122699019Y-98668342D01*
X122699019Y-98335009D01*
X122889495Y-98335009D01*
X122270447Y-98668342D02*
X122222828Y-98715961D01*
X122270447Y-98763580D01*
X122318066Y-98715961D01*
X122270447Y-98668342D01*
X122270447Y-98763580D01*
X121841876Y-98715961D02*
X121699019Y-98763580D01*
X121460923Y-98763580D01*
X121365685Y-98715961D01*
X121318066Y-98668342D01*
X121270447Y-98573104D01*
X121270447Y-98477866D01*
X121318066Y-98382628D01*
X121365685Y-98335009D01*
X121460923Y-98287390D01*
X121651400Y-98239771D01*
X121746638Y-98192152D01*
X121794257Y-98144533D01*
X121841876Y-98049295D01*
X121841876Y-97954057D01*
X121794257Y-97858819D01*
X121746638Y-97811200D01*
X121651400Y-97763580D01*
X121413304Y-97763580D01*
X121270447Y-97811200D01*
X120841876Y-98763580D02*
X120841876Y-97763580D01*
X120460923Y-97763580D01*
X120365685Y-97811200D01*
X120318066Y-97858819D01*
X120270447Y-97954057D01*
X120270447Y-98096914D01*
X120318066Y-98192152D01*
X120365685Y-98239771D01*
X120460923Y-98287390D01*
X120841876Y-98287390D01*
X119841876Y-98239771D02*
X119508542Y-98239771D01*
X119365685Y-98763580D02*
X119841876Y-98763580D01*
X119841876Y-97763580D01*
X119365685Y-97763580D01*
X118984733Y-98477866D02*
X118508542Y-98477866D01*
X119079971Y-98763580D02*
X118746638Y-97763580D01*
X118413304Y-98763580D01*
X117508542Y-98763580D02*
X117841876Y-98287390D01*
X118079971Y-98763580D02*
X118079971Y-97763580D01*
X117699019Y-97763580D01*
X117603780Y-97811200D01*
X117556161Y-97858819D01*
X117508542Y-97954057D01*
X117508542Y-98096914D01*
X117556161Y-98192152D01*
X117603780Y-98239771D01*
X117699019Y-98287390D01*
X118079971Y-98287390D01*
X117079971Y-98763580D02*
X117079971Y-97763580D01*
X116603780Y-98763580D02*
X116603780Y-97763580D01*
X116032352Y-98763580D01*
X116032352Y-97763580D01*
X115032352Y-97811200D02*
X115127590Y-97763580D01*
X115270447Y-97763580D01*
X115413304Y-97811200D01*
X115508542Y-97906438D01*
X115556161Y-98001676D01*
X115603780Y-98192152D01*
X115603780Y-98335009D01*
X115556161Y-98525485D01*
X115508542Y-98620723D01*
X115413304Y-98715961D01*
X115270447Y-98763580D01*
X115175209Y-98763580D01*
X115032352Y-98715961D01*
X114984733Y-98668342D01*
X114984733Y-98335009D01*
X115175209Y-98335009D01*
X121484733Y-100413580D02*
X122056161Y-100413580D01*
X121770447Y-100413580D02*
X121770447Y-99413580D01*
X121865685Y-99556438D01*
X121960923Y-99651676D01*
X122056161Y-99699295D01*
X121008542Y-100413580D02*
X120818066Y-100413580D01*
X120722828Y-100365961D01*
X120675209Y-100318342D01*
X120579971Y-100175485D01*
X120532352Y-99985009D01*
X120532352Y-99604057D01*
X120579971Y-99508819D01*
X120627590Y-99461200D01*
X120722828Y-99413580D01*
X120913304Y-99413580D01*
X121008542Y-99461200D01*
X121056161Y-99508819D01*
X121103780Y-99604057D01*
X121103780Y-99842152D01*
X121056161Y-99937390D01*
X121008542Y-99985009D01*
X120913304Y-100032628D01*
X120722828Y-100032628D01*
X120627590Y-99985009D01*
X120579971Y-99937390D01*
X120532352Y-99842152D01*
X120103780Y-100318342D02*
X120056161Y-100365961D01*
X120103780Y-100413580D01*
X120151400Y-100365961D01*
X120103780Y-100318342D01*
X120103780Y-100413580D01*
X119103780Y-100413580D02*
X119675209Y-100413580D01*
X119389495Y-100413580D02*
X119389495Y-99413580D01*
X119484733Y-99556438D01*
X119579971Y-99651676D01*
X119675209Y-99699295D01*
X118722828Y-99508819D02*
X118675209Y-99461200D01*
X118579971Y-99413580D01*
X118341876Y-99413580D01*
X118246638Y-99461200D01*
X118199019Y-99508819D01*
X118151400Y-99604057D01*
X118151400Y-99699295D01*
X118199019Y-99842152D01*
X118770447Y-100413580D01*
X118151400Y-100413580D01*
X117770447Y-99508819D02*
X117722828Y-99461200D01*
X117627590Y-99413580D01*
X117389495Y-99413580D01*
X117294257Y-99461200D01*
X117246638Y-99508819D01*
X117199019Y-99604057D01*
X117199019Y-99699295D01*
X117246638Y-99842152D01*
X117818066Y-100413580D01*
X117199019Y-100413580D01*
X116627590Y-99842152D02*
X116722828Y-99794533D01*
X116770447Y-99746914D01*
X116818066Y-99651676D01*
X116818066Y-99604057D01*
X116770447Y-99508819D01*
X116722828Y-99461200D01*
X116627590Y-99413580D01*
X116437114Y-99413580D01*
X116341876Y-99461200D01*
X116294257Y-99508819D01*
X116246638Y-99604057D01*
X116246638Y-99651676D01*
X116294257Y-99746914D01*
X116341876Y-99794533D01*
X116437114Y-99842152D01*
X116627590Y-99842152D01*
X116722828Y-99889771D01*
X116770447Y-99937390D01*
X116818066Y-100032628D01*
X116818066Y-100223104D01*
X116770447Y-100318342D01*
X116722828Y-100365961D01*
X116627590Y-100413580D01*
X116437114Y-100413580D01*
X116341876Y-100365961D01*
X116294257Y-100318342D01*
X116246638Y-100223104D01*
X116246638Y-100032628D01*
X116294257Y-99937390D01*
X116341876Y-99889771D01*
X116437114Y-99842152D01*
D11*
G36*
X119396933Y-87215134D02*
G01*
X119439266Y-87257467D01*
X119481600Y-87215134D01*
X119439266Y-87172800D01*
X119396933Y-87215134D01*
G37*
X119396933Y-87215134D02*
X119439266Y-87257467D01*
X119481600Y-87215134D01*
X119439266Y-87172800D01*
X119396933Y-87215134D01*
G36*
X121513600Y-75192467D02*
G01*
X121555933Y-75234800D01*
X121598266Y-75192467D01*
X121555933Y-75150134D01*
X121513600Y-75192467D01*
G37*
X121513600Y-75192467D02*
X121555933Y-75234800D01*
X121598266Y-75192467D01*
X121555933Y-75150134D01*
X121513600Y-75192467D01*
G36*
X118355682Y-75214144D02*
G01*
X118228497Y-75311560D01*
X118211600Y-75363413D01*
X118234105Y-75461630D01*
X118323242Y-75470219D01*
X118511441Y-75387565D01*
X118592600Y-75344447D01*
X118739481Y-75242164D01*
X118750198Y-75176253D01*
X118737133Y-75170237D01*
X118548796Y-75158373D01*
X118355682Y-75214144D01*
G37*
X118355682Y-75214144D02*
X118228497Y-75311560D01*
X118211600Y-75363413D01*
X118234105Y-75461630D01*
X118323242Y-75470219D01*
X118511441Y-75387565D01*
X118592600Y-75344447D01*
X118739481Y-75242164D01*
X118750198Y-75176253D01*
X118737133Y-75170237D01*
X118548796Y-75158373D01*
X118355682Y-75214144D01*
G36*
X121891897Y-75290474D02*
G01*
X122016867Y-75427089D01*
X122294550Y-75617995D01*
X122601160Y-75796390D01*
X122902095Y-75965745D01*
X123166126Y-76118022D01*
X123339711Y-76222304D01*
X123348392Y-76227845D01*
X123480594Y-76300711D01*
X123516940Y-76264237D01*
X123510454Y-76192643D01*
X123433971Y-76093177D01*
X123390166Y-76057482D01*
X123283015Y-76057482D01*
X123198178Y-76039717D01*
X123182115Y-76033690D01*
X123078437Y-75966618D01*
X123077693Y-75928485D01*
X123167258Y-75937982D01*
X123229511Y-75986294D01*
X123283015Y-76057482D01*
X123390166Y-76057482D01*
X123247871Y-75941532D01*
X122989274Y-75760700D01*
X122695299Y-75573670D01*
X122403065Y-75403434D01*
X122149690Y-75272982D01*
X121972294Y-75205304D01*
X121916265Y-75205240D01*
X121891897Y-75290474D01*
G37*
X121891897Y-75290474D02*
X122016867Y-75427089D01*
X122294550Y-75617995D01*
X122601160Y-75796390D01*
X122902095Y-75965745D01*
X123166126Y-76118022D01*
X123339711Y-76222304D01*
X123348392Y-76227845D01*
X123480594Y-76300711D01*
X123516940Y-76264237D01*
X123510454Y-76192643D01*
X123433971Y-76093177D01*
X123390166Y-76057482D01*
X123283015Y-76057482D01*
X123198178Y-76039717D01*
X123182115Y-76033690D01*
X123078437Y-75966618D01*
X123077693Y-75928485D01*
X123167258Y-75937982D01*
X123229511Y-75986294D01*
X123283015Y-76057482D01*
X123390166Y-76057482D01*
X123247871Y-75941532D01*
X122989274Y-75760700D01*
X122695299Y-75573670D01*
X122403065Y-75403434D01*
X122149690Y-75272982D01*
X121972294Y-75205304D01*
X121916265Y-75205240D01*
X121891897Y-75290474D01*
G36*
X120124966Y-75709195D02*
G01*
X120140109Y-75881795D01*
X120288109Y-76063402D01*
X120439601Y-76227863D01*
X120458299Y-76310792D01*
X120343758Y-76302214D01*
X120298051Y-76286068D01*
X120177988Y-76173042D01*
X120158933Y-76097808D01*
X120133027Y-76012766D01*
X120063372Y-76058495D01*
X120025360Y-76167789D01*
X120108841Y-76331464D01*
X120146885Y-76381713D01*
X120253334Y-76558277D01*
X120276019Y-76687876D01*
X120271698Y-76697167D01*
X120272440Y-76744729D01*
X120309334Y-76728167D01*
X120427520Y-76729667D01*
X120455266Y-76758800D01*
X120556674Y-76809075D01*
X120588117Y-76797518D01*
X120643321Y-76833918D01*
X120666921Y-76989393D01*
X120666933Y-76993692D01*
X120706240Y-77189136D01*
X120795122Y-77238578D01*
X120876330Y-77201979D01*
X120886944Y-77065807D01*
X120867592Y-76941567D01*
X120796386Y-76717592D01*
X120663279Y-76415951D01*
X120497137Y-76102038D01*
X120329442Y-75826959D01*
X120220065Y-75687419D01*
X120153187Y-75666718D01*
X120124966Y-75709195D01*
G37*
X120124966Y-75709195D02*
X120140109Y-75881795D01*
X120288109Y-76063402D01*
X120439601Y-76227863D01*
X120458299Y-76310792D01*
X120343758Y-76302214D01*
X120298051Y-76286068D01*
X120177988Y-76173042D01*
X120158933Y-76097808D01*
X120133027Y-76012766D01*
X120063372Y-76058495D01*
X120025360Y-76167789D01*
X120108841Y-76331464D01*
X120146885Y-76381713D01*
X120253334Y-76558277D01*
X120276019Y-76687876D01*
X120271698Y-76697167D01*
X120272440Y-76744729D01*
X120309334Y-76728167D01*
X120427520Y-76729667D01*
X120455266Y-76758800D01*
X120556674Y-76809075D01*
X120588117Y-76797518D01*
X120643321Y-76833918D01*
X120666921Y-76989393D01*
X120666933Y-76993692D01*
X120706240Y-77189136D01*
X120795122Y-77238578D01*
X120876330Y-77201979D01*
X120886944Y-77065807D01*
X120867592Y-76941567D01*
X120796386Y-76717592D01*
X120663279Y-76415951D01*
X120497137Y-76102038D01*
X120329442Y-75826959D01*
X120220065Y-75687419D01*
X120153187Y-75666718D01*
X120124966Y-75709195D01*
G36*
X118036786Y-75362965D02*
G01*
X117936433Y-75424570D01*
X117803077Y-75505999D01*
X117542402Y-75660108D01*
X117174073Y-75875498D01*
X116717756Y-76140773D01*
X116193119Y-76444535D01*
X115619827Y-76775386D01*
X115017547Y-77121930D01*
X114405944Y-77472769D01*
X114112057Y-77640941D01*
X113793507Y-77829851D01*
X113535036Y-77995926D01*
X113369466Y-78117328D01*
X113326539Y-78163650D01*
X113346234Y-78247440D01*
X113496106Y-78228294D01*
X113777197Y-78105839D01*
X114190550Y-77879704D01*
X114296864Y-77817468D01*
X114774154Y-77536692D01*
X115303188Y-77227581D01*
X115852422Y-76908364D01*
X116390310Y-76597274D01*
X116885309Y-76312543D01*
X117305874Y-76072401D01*
X117620461Y-75895081D01*
X117682347Y-75860776D01*
X117974892Y-75670816D01*
X118115274Y-75509469D01*
X118126847Y-75457896D01*
X118112076Y-75353421D01*
X118036786Y-75362965D01*
G37*
X118036786Y-75362965D02*
X117936433Y-75424570D01*
X117803077Y-75505999D01*
X117542402Y-75660108D01*
X117174073Y-75875498D01*
X116717756Y-76140773D01*
X116193119Y-76444535D01*
X115619827Y-76775386D01*
X115017547Y-77121930D01*
X114405944Y-77472769D01*
X114112057Y-77640941D01*
X113793507Y-77829851D01*
X113535036Y-77995926D01*
X113369466Y-78117328D01*
X113326539Y-78163650D01*
X113346234Y-78247440D01*
X113496106Y-78228294D01*
X113777197Y-78105839D01*
X114190550Y-77879704D01*
X114296864Y-77817468D01*
X114774154Y-77536692D01*
X115303188Y-77227581D01*
X115852422Y-76908364D01*
X116390310Y-76597274D01*
X116885309Y-76312543D01*
X117305874Y-76072401D01*
X117620461Y-75895081D01*
X117682347Y-75860776D01*
X117974892Y-75670816D01*
X118115274Y-75509469D01*
X118126847Y-75457896D01*
X118112076Y-75353421D01*
X118036786Y-75362965D01*
G36*
X112833528Y-78375046D02*
G01*
X112684734Y-78481178D01*
X112622175Y-78577017D01*
X112658822Y-78673949D01*
X112788780Y-78660569D01*
X112970616Y-78546872D01*
X113092544Y-78414095D01*
X113109733Y-78317968D01*
X113107011Y-78314888D01*
X112997716Y-78306949D01*
X112833528Y-78375046D01*
G37*
X112833528Y-78375046D02*
X112684734Y-78481178D01*
X112622175Y-78577017D01*
X112658822Y-78673949D01*
X112788780Y-78660569D01*
X112970616Y-78546872D01*
X113092544Y-78414095D01*
X113109733Y-78317968D01*
X113107011Y-78314888D01*
X112997716Y-78306949D01*
X112833528Y-78375046D01*
G36*
X126004511Y-78697131D02*
G01*
X126049619Y-78788686D01*
X126186034Y-78820462D01*
X126253268Y-78791829D01*
X126327795Y-78721876D01*
X126247145Y-78665515D01*
X126227742Y-78657895D01*
X126072163Y-78637431D01*
X126004511Y-78697131D01*
G37*
X126004511Y-78697131D02*
X126049619Y-78788686D01*
X126186034Y-78820462D01*
X126253268Y-78791829D01*
X126327795Y-78721876D01*
X126247145Y-78665515D01*
X126227742Y-78657895D01*
X126072163Y-78637431D01*
X126004511Y-78697131D01*
G36*
X112259035Y-78722901D02*
G01*
X112162487Y-78851798D01*
X112130500Y-78976455D01*
X112187440Y-78998898D01*
X112358264Y-78924479D01*
X112400104Y-78902748D01*
X112556507Y-78788656D01*
X112563139Y-78696483D01*
X112562428Y-78695762D01*
X112419901Y-78653186D01*
X112259035Y-78722901D01*
G37*
X112259035Y-78722901D02*
X112162487Y-78851798D01*
X112130500Y-78976455D01*
X112187440Y-78998898D01*
X112358264Y-78924479D01*
X112400104Y-78902748D01*
X112556507Y-78788656D01*
X112563139Y-78696483D01*
X112562428Y-78695762D01*
X112419901Y-78653186D01*
X112259035Y-78722901D01*
G36*
X111389387Y-79259138D02*
G01*
X111404018Y-79311882D01*
X111414125Y-79369715D01*
X111365137Y-79348264D01*
X111237012Y-79350708D01*
X111037351Y-79431313D01*
X110967084Y-79471543D01*
X110794618Y-79589079D01*
X110708282Y-79704556D01*
X110681861Y-79878092D01*
X110686852Y-80114209D01*
X110717431Y-80393931D01*
X110775650Y-80601190D01*
X110817825Y-80665549D01*
X110880196Y-80687967D01*
X110914896Y-80607257D01*
X110928875Y-80396982D01*
X110930266Y-80237843D01*
X110943251Y-79918899D01*
X110986614Y-79737836D01*
X111056780Y-79668271D01*
X111138661Y-79582476D01*
X111128365Y-79530847D01*
X111128230Y-79481935D01*
X111163544Y-79497660D01*
X111331374Y-79516914D01*
X111496003Y-79425244D01*
X111556063Y-79334587D01*
X111536162Y-79230268D01*
X111472946Y-79214134D01*
X111389387Y-79259138D01*
G37*
X111389387Y-79259138D02*
X111404018Y-79311882D01*
X111414125Y-79369715D01*
X111365137Y-79348264D01*
X111237012Y-79350708D01*
X111037351Y-79431313D01*
X110967084Y-79471543D01*
X110794618Y-79589079D01*
X110708282Y-79704556D01*
X110681861Y-79878092D01*
X110686852Y-80114209D01*
X110717431Y-80393931D01*
X110775650Y-80601190D01*
X110817825Y-80665549D01*
X110880196Y-80687967D01*
X110914896Y-80607257D01*
X110928875Y-80396982D01*
X110930266Y-80237843D01*
X110943251Y-79918899D01*
X110986614Y-79737836D01*
X111056780Y-79668271D01*
X111138661Y-79582476D01*
X111128365Y-79530847D01*
X111128230Y-79481935D01*
X111163544Y-79497660D01*
X111331374Y-79516914D01*
X111496003Y-79425244D01*
X111556063Y-79334587D01*
X111536162Y-79230268D01*
X111472946Y-79214134D01*
X111389387Y-79259138D01*
G36*
X111522933Y-81711800D02*
G01*
X111565266Y-81754134D01*
X111607600Y-81711800D01*
X111565266Y-81669467D01*
X111522933Y-81711800D01*
G37*
X111522933Y-81711800D02*
X111565266Y-81754134D01*
X111607600Y-81711800D01*
X111565266Y-81669467D01*
X111522933Y-81711800D01*
G36*
X110873822Y-82290356D02*
G01*
X110863689Y-82390835D01*
X110873822Y-82403245D01*
X110924156Y-82391622D01*
X110930266Y-82346800D01*
X110899288Y-82277110D01*
X110873822Y-82290356D01*
G37*
X110873822Y-82290356D02*
X110863689Y-82390835D01*
X110873822Y-82403245D01*
X110924156Y-82391622D01*
X110930266Y-82346800D01*
X110899288Y-82277110D01*
X110873822Y-82290356D01*
G36*
X111522933Y-82812467D02*
G01*
X111565266Y-82854800D01*
X111607600Y-82812467D01*
X111565266Y-82770134D01*
X111522933Y-82812467D01*
G37*
X111522933Y-82812467D02*
X111565266Y-82854800D01*
X111607600Y-82812467D01*
X111565266Y-82770134D01*
X111522933Y-82812467D01*
G36*
X110845600Y-82897134D02*
G01*
X110887933Y-82939467D01*
X110930266Y-82897134D01*
X110887933Y-82854800D01*
X110845600Y-82897134D01*
G37*
X110845600Y-82897134D02*
X110887933Y-82939467D01*
X110930266Y-82897134D01*
X110887933Y-82854800D01*
X110845600Y-82897134D01*
G36*
X110706106Y-83134747D02*
G01*
X110676266Y-83235800D01*
X110721516Y-83378172D01*
X110815705Y-83386001D01*
X110889568Y-83272982D01*
X110916650Y-83114052D01*
X110901297Y-83051608D01*
X110802628Y-83043252D01*
X110706106Y-83134747D01*
G37*
X110706106Y-83134747D02*
X110676266Y-83235800D01*
X110721516Y-83378172D01*
X110815705Y-83386001D01*
X110889568Y-83272982D01*
X110916650Y-83114052D01*
X110901297Y-83051608D01*
X110802628Y-83043252D01*
X110706106Y-83134747D01*
G36*
X119391405Y-75641916D02*
G01*
X119202463Y-75725962D01*
X118990735Y-75847740D01*
X118812004Y-75974587D01*
X118722057Y-76073838D01*
X118719600Y-76086266D01*
X118667787Y-76147695D01*
X118652078Y-76144967D01*
X118536886Y-76169429D01*
X118325278Y-76260654D01*
X118058953Y-76395480D01*
X117779608Y-76550741D01*
X117528940Y-76703273D01*
X117348647Y-76829913D01*
X117280415Y-76906967D01*
X117209884Y-76993924D01*
X117117184Y-77012800D01*
X116998789Y-77053445D01*
X116764246Y-77166532D01*
X116436367Y-77338789D01*
X116037965Y-77556944D01*
X115591853Y-77807725D01*
X115120843Y-78077860D01*
X114647749Y-78354077D01*
X114195381Y-78623104D01*
X113786554Y-78871670D01*
X113444079Y-79086501D01*
X113190769Y-79254326D01*
X113049437Y-79361874D01*
X113027864Y-79391899D01*
X112998840Y-79442021D01*
X112966744Y-79428568D01*
X112857717Y-79442883D01*
X112646865Y-79528484D01*
X112376466Y-79667735D01*
X112329646Y-79694308D01*
X111994443Y-79900363D01*
X111811871Y-80044806D01*
X111783252Y-80126350D01*
X111866597Y-80145467D01*
X111919855Y-80195902D01*
X111909325Y-80221409D01*
X111930479Y-80314713D01*
X112012329Y-80544004D01*
X112147238Y-80890336D01*
X112327569Y-81334762D01*
X112545683Y-81858335D01*
X112793946Y-82442110D01*
X112953284Y-82811285D01*
X114044176Y-85325220D01*
X114506750Y-84534510D01*
X114976969Y-83729689D01*
X113696044Y-83729689D01*
X113684422Y-83780023D01*
X113639600Y-83786134D01*
X113569910Y-83755155D01*
X113583155Y-83729689D01*
X113683635Y-83719556D01*
X113696044Y-83729689D01*
X114976969Y-83729689D01*
X115002661Y-83685716D01*
X115094907Y-83527137D01*
X113554933Y-83527137D01*
X113493473Y-83613355D01*
X113470266Y-83616800D01*
X113387801Y-83587913D01*
X113385600Y-83579464D01*
X113444929Y-83507178D01*
X113470266Y-83489800D01*
X113548285Y-83496513D01*
X113554933Y-83527137D01*
X115094907Y-83527137D01*
X115418658Y-82970587D01*
X115462491Y-82894624D01*
X113350047Y-82894624D01*
X113343266Y-82939467D01*
X113270846Y-83020149D01*
X113258600Y-83024134D01*
X113191286Y-82965082D01*
X113173933Y-82939467D01*
X113194039Y-82867738D01*
X113258600Y-82854800D01*
X113350047Y-82894624D01*
X115462491Y-82894624D01*
X115761126Y-82377095D01*
X115946973Y-82050467D01*
X115840933Y-82050467D01*
X115798600Y-82092800D01*
X115756266Y-82050467D01*
X115798600Y-82008134D01*
X115840933Y-82050467D01*
X115946973Y-82050467D01*
X116036448Y-81893214D01*
X116043157Y-81881134D01*
X115925600Y-81881134D01*
X115883266Y-81923467D01*
X115840933Y-81881134D01*
X115883266Y-81838800D01*
X115925600Y-81881134D01*
X116043157Y-81881134D01*
X116251009Y-81506915D01*
X116277169Y-81457800D01*
X115586933Y-81457800D01*
X115544600Y-81500134D01*
X115502266Y-81457800D01*
X115544600Y-81415467D01*
X115586933Y-81457800D01*
X116277169Y-81457800D01*
X116411194Y-81206171D01*
X116488943Y-81048709D01*
X115920233Y-81048709D01*
X115901545Y-81192260D01*
X115851092Y-81331250D01*
X115797129Y-81393857D01*
X115786321Y-81389077D01*
X115788614Y-81295001D01*
X115817518Y-81203800D01*
X113554933Y-81203800D01*
X113512600Y-81246134D01*
X113470266Y-81203800D01*
X113512600Y-81161467D01*
X113554933Y-81203800D01*
X115817518Y-81203800D01*
X115833748Y-81152592D01*
X115893802Y-81037027D01*
X115920233Y-81048709D01*
X116488943Y-81048709D01*
X116516878Y-80992134D01*
X115756266Y-80992134D01*
X115725288Y-81061824D01*
X115699822Y-81048578D01*
X115694130Y-80992134D01*
X115586933Y-80992134D01*
X115555955Y-81061824D01*
X115530489Y-81048578D01*
X115527643Y-81020356D01*
X113611378Y-81020356D01*
X113599755Y-81070690D01*
X113554933Y-81076800D01*
X113485243Y-81045822D01*
X113498489Y-81020356D01*
X113598968Y-81010223D01*
X113611378Y-81020356D01*
X115527643Y-81020356D01*
X115520356Y-80948098D01*
X115530489Y-80935689D01*
X115580823Y-80947311D01*
X115586933Y-80992134D01*
X115694130Y-80992134D01*
X115689689Y-80948098D01*
X115699822Y-80935689D01*
X115750156Y-80947311D01*
X115756266Y-80992134D01*
X116516878Y-80992134D01*
X116523386Y-80978955D01*
X116593970Y-80813239D01*
X116609434Y-80762403D01*
X115234619Y-80762403D01*
X115214018Y-80809718D01*
X115128768Y-80900612D01*
X115079757Y-80881966D01*
X115078933Y-80870130D01*
X115139070Y-80798518D01*
X115176682Y-80772382D01*
X115234619Y-80762403D01*
X116609434Y-80762403D01*
X116629331Y-80696995D01*
X116629429Y-80695800D01*
X115840933Y-80695800D01*
X115798600Y-80738134D01*
X115784394Y-80723928D01*
X113923649Y-80723928D01*
X113867772Y-80873380D01*
X113789367Y-80980919D01*
X113761525Y-80992134D01*
X113705547Y-80922481D01*
X113631552Y-80759300D01*
X113572284Y-80583008D01*
X113562121Y-80526467D01*
X113300933Y-80526467D01*
X113258600Y-80568800D01*
X113216266Y-80526467D01*
X113258600Y-80484134D01*
X113300933Y-80526467D01*
X113562121Y-80526467D01*
X113556213Y-80493600D01*
X113508501Y-80427124D01*
X113456331Y-80389063D01*
X113399305Y-80331386D01*
X113491433Y-80316097D01*
X113616680Y-80383245D01*
X113639600Y-80479137D01*
X113684855Y-80645560D01*
X113737348Y-80703885D01*
X113795285Y-80713864D01*
X113774685Y-80666549D01*
X113769468Y-80581811D01*
X113854183Y-80577905D01*
X113918843Y-80622266D01*
X113923649Y-80723928D01*
X115784394Y-80723928D01*
X115756266Y-80695800D01*
X115798600Y-80653467D01*
X115840933Y-80695800D01*
X116629429Y-80695800D01*
X116635853Y-80618196D01*
X116633746Y-80611134D01*
X115417600Y-80611134D01*
X115375266Y-80653467D01*
X115332933Y-80611134D01*
X115375266Y-80568800D01*
X115417600Y-80611134D01*
X116633746Y-80611134D01*
X116619920Y-80564815D01*
X116616755Y-80559469D01*
X116552122Y-80434745D01*
X115918916Y-80434745D01*
X115903349Y-80544559D01*
X115874447Y-80545870D01*
X115854236Y-80432553D01*
X115867763Y-80383592D01*
X115898779Y-80357134D01*
X113893600Y-80357134D01*
X113851266Y-80399467D01*
X113808933Y-80357134D01*
X113851266Y-80314800D01*
X113893600Y-80357134D01*
X115898779Y-80357134D01*
X115905358Y-80351522D01*
X115918916Y-80434745D01*
X116552122Y-80434745D01*
X116528687Y-80389524D01*
X116544067Y-80338186D01*
X116659180Y-80415723D01*
X116666433Y-80422215D01*
X116715098Y-80453943D01*
X116769412Y-80450124D01*
X116839802Y-80395717D01*
X116936696Y-80275681D01*
X116995292Y-80187800D01*
X116010266Y-80187800D01*
X115967933Y-80230134D01*
X115925600Y-80187800D01*
X115967933Y-80145467D01*
X116010266Y-80187800D01*
X116995292Y-80187800D01*
X117070521Y-80074975D01*
X117251609Y-79778709D01*
X116512900Y-79778709D01*
X116494212Y-79922260D01*
X116443758Y-80061250D01*
X116389796Y-80123857D01*
X116378988Y-80119077D01*
X116381280Y-80025001D01*
X116426414Y-79882592D01*
X116486468Y-79767027D01*
X116512900Y-79778709D01*
X117251609Y-79778709D01*
X117251702Y-79778558D01*
X117359352Y-79595134D01*
X116602933Y-79595134D01*
X116560600Y-79637467D01*
X116518266Y-79595134D01*
X116560600Y-79552800D01*
X116602933Y-79595134D01*
X117359352Y-79595134D01*
X117422355Y-79487783D01*
X116227472Y-79487783D01*
X116227410Y-79586812D01*
X116169016Y-79753884D01*
X116077285Y-79918096D01*
X116034160Y-79930157D01*
X116039962Y-79891467D01*
X114232266Y-79891467D01*
X114201288Y-79961157D01*
X114175822Y-79947911D01*
X114175035Y-79940105D01*
X113924059Y-79940105D01*
X113875771Y-80009927D01*
X113764570Y-80095796D01*
X113751108Y-80085069D01*
X113371952Y-80085069D01*
X113351351Y-80132385D01*
X113266101Y-80223279D01*
X113217091Y-80204633D01*
X113216266Y-80192797D01*
X113276403Y-80121184D01*
X113314015Y-80095049D01*
X113371952Y-80085069D01*
X113751108Y-80085069D01*
X113726742Y-80065654D01*
X113747203Y-80018467D01*
X113639600Y-80018467D01*
X113597266Y-80060800D01*
X113554933Y-80018467D01*
X113597266Y-79976134D01*
X113639600Y-80018467D01*
X113747203Y-80018467D01*
X113763118Y-79981766D01*
X113824645Y-79933800D01*
X113300933Y-79933800D01*
X113258600Y-79976134D01*
X113216266Y-79933800D01*
X113258600Y-79891467D01*
X113300933Y-79933800D01*
X113824645Y-79933800D01*
X113873080Y-79896041D01*
X113901935Y-79891467D01*
X113924059Y-79940105D01*
X114175035Y-79940105D01*
X114165689Y-79847432D01*
X114175822Y-79835022D01*
X114226156Y-79846645D01*
X114232266Y-79891467D01*
X116039962Y-79891467D01*
X116053145Y-79803572D01*
X116058889Y-79786558D01*
X113941545Y-79786558D01*
X113858322Y-79800116D01*
X113748508Y-79784549D01*
X113747197Y-79755647D01*
X113860514Y-79735436D01*
X113909475Y-79748963D01*
X113941545Y-79786558D01*
X116058889Y-79786558D01*
X116077266Y-79732127D01*
X113216266Y-79732127D01*
X113164101Y-79778030D01*
X113131600Y-79764467D01*
X113050094Y-79652308D01*
X113046933Y-79627473D01*
X113099099Y-79581570D01*
X113131600Y-79595134D01*
X113213106Y-79707293D01*
X113216266Y-79732127D01*
X116077266Y-79732127D01*
X116094933Y-79679800D01*
X116136630Y-79595134D01*
X115502266Y-79595134D01*
X115459933Y-79637467D01*
X115417600Y-79595134D01*
X115459933Y-79552800D01*
X115502266Y-79595134D01*
X116136630Y-79595134D01*
X116169820Y-79527744D01*
X116193828Y-79510467D01*
X113893600Y-79510467D01*
X113851266Y-79552800D01*
X113808933Y-79510467D01*
X113851266Y-79468134D01*
X113893600Y-79510467D01*
X116193828Y-79510467D01*
X116226542Y-79486925D01*
X116227472Y-79487783D01*
X117422355Y-79487783D01*
X117490667Y-79371389D01*
X117532504Y-79298800D01*
X116687600Y-79298800D01*
X116656622Y-79368490D01*
X116631155Y-79355245D01*
X116625463Y-79298800D01*
X116348933Y-79298800D01*
X116317955Y-79368490D01*
X116292489Y-79355245D01*
X116291067Y-79341134D01*
X113385600Y-79341134D01*
X113343266Y-79383467D01*
X113300933Y-79341134D01*
X113343266Y-79298800D01*
X113385600Y-79341134D01*
X116291067Y-79341134D01*
X116282528Y-79256467D01*
X113808933Y-79256467D01*
X113766600Y-79298800D01*
X113724266Y-79256467D01*
X113766600Y-79214134D01*
X113808933Y-79256467D01*
X116282528Y-79256467D01*
X116282356Y-79254765D01*
X116292489Y-79242356D01*
X116342823Y-79253978D01*
X116348933Y-79298800D01*
X116625463Y-79298800D01*
X116621022Y-79254765D01*
X116631155Y-79242356D01*
X116681490Y-79253978D01*
X116687600Y-79298800D01*
X117532504Y-79298800D01*
X117797844Y-78838426D01*
X117957600Y-78559667D01*
X118090718Y-78325134D01*
X116518266Y-78325134D01*
X116475933Y-78367467D01*
X116433600Y-78325134D01*
X116475933Y-78282800D01*
X116518266Y-78325134D01*
X118090718Y-78325134D01*
X118258720Y-78029144D01*
X118337538Y-77887689D01*
X115897378Y-77887689D01*
X115885755Y-77938023D01*
X115840933Y-77944134D01*
X115771243Y-77913155D01*
X115784489Y-77887689D01*
X115884968Y-77877556D01*
X115897378Y-77887689D01*
X118337538Y-77887689D01*
X118529304Y-77543526D01*
X118758510Y-77122996D01*
X118883727Y-76885800D01*
X118042266Y-76885800D01*
X117999933Y-76928134D01*
X117957600Y-76885800D01*
X117999933Y-76843467D01*
X117788266Y-76843467D01*
X117759380Y-76925932D01*
X117750930Y-76928134D01*
X117678644Y-76868805D01*
X117661266Y-76843467D01*
X117667979Y-76765448D01*
X117698603Y-76758800D01*
X117784821Y-76820261D01*
X117788266Y-76843467D01*
X117999933Y-76843467D01*
X118042266Y-76885800D01*
X118883727Y-76885800D01*
X118935497Y-76787735D01*
X119012800Y-76631800D01*
X118042266Y-76631800D01*
X117999933Y-76674134D01*
X117957600Y-76631800D01*
X117999933Y-76589467D01*
X118042266Y-76631800D01*
X119012800Y-76631800D01*
X119049423Y-76557925D01*
X119071753Y-76499803D01*
X118380933Y-76499803D01*
X118319473Y-76586021D01*
X118296266Y-76589467D01*
X118213801Y-76560580D01*
X118211600Y-76552130D01*
X118270929Y-76479844D01*
X118296266Y-76462467D01*
X118374285Y-76469180D01*
X118380933Y-76499803D01*
X119071753Y-76499803D01*
X119089448Y-76453749D01*
X119089394Y-76452784D01*
X119129213Y-76362779D01*
X119164462Y-76359954D01*
X119198605Y-76335467D01*
X118761933Y-76335467D01*
X118755220Y-76413486D01*
X118724597Y-76420134D01*
X118638379Y-76358673D01*
X118634933Y-76335467D01*
X118663820Y-76253001D01*
X118672270Y-76250800D01*
X118744556Y-76310129D01*
X118761933Y-76335467D01*
X119198605Y-76335467D01*
X119245801Y-76301619D01*
X119317960Y-76139554D01*
X119323932Y-76123800D01*
X119142933Y-76123800D01*
X119100600Y-76166134D01*
X119058266Y-76123800D01*
X119100600Y-76081467D01*
X119142933Y-76123800D01*
X119323932Y-76123800D01*
X119399702Y-75923932D01*
X119479836Y-75787258D01*
X119525901Y-75670218D01*
X119501774Y-75628268D01*
X119391405Y-75641916D01*
G37*
X119391405Y-75641916D02*
X119202463Y-75725962D01*
X118990735Y-75847740D01*
X118812004Y-75974587D01*
X118722057Y-76073838D01*
X118719600Y-76086266D01*
X118667787Y-76147695D01*
X118652078Y-76144967D01*
X118536886Y-76169429D01*
X118325278Y-76260654D01*
X118058953Y-76395480D01*
X117779608Y-76550741D01*
X117528940Y-76703273D01*
X117348647Y-76829913D01*
X117280415Y-76906967D01*
X117209884Y-76993924D01*
X117117184Y-77012800D01*
X116998789Y-77053445D01*
X116764246Y-77166532D01*
X116436367Y-77338789D01*
X116037965Y-77556944D01*
X115591853Y-77807725D01*
X115120843Y-78077860D01*
X114647749Y-78354077D01*
X114195381Y-78623104D01*
X113786554Y-78871670D01*
X113444079Y-79086501D01*
X113190769Y-79254326D01*
X113049437Y-79361874D01*
X113027864Y-79391899D01*
X112998840Y-79442021D01*
X112966744Y-79428568D01*
X112857717Y-79442883D01*
X112646865Y-79528484D01*
X112376466Y-79667735D01*
X112329646Y-79694308D01*
X111994443Y-79900363D01*
X111811871Y-80044806D01*
X111783252Y-80126350D01*
X111866597Y-80145467D01*
X111919855Y-80195902D01*
X111909325Y-80221409D01*
X111930479Y-80314713D01*
X112012329Y-80544004D01*
X112147238Y-80890336D01*
X112327569Y-81334762D01*
X112545683Y-81858335D01*
X112793946Y-82442110D01*
X112953284Y-82811285D01*
X114044176Y-85325220D01*
X114506750Y-84534510D01*
X114976969Y-83729689D01*
X113696044Y-83729689D01*
X113684422Y-83780023D01*
X113639600Y-83786134D01*
X113569910Y-83755155D01*
X113583155Y-83729689D01*
X113683635Y-83719556D01*
X113696044Y-83729689D01*
X114976969Y-83729689D01*
X115002661Y-83685716D01*
X115094907Y-83527137D01*
X113554933Y-83527137D01*
X113493473Y-83613355D01*
X113470266Y-83616800D01*
X113387801Y-83587913D01*
X113385600Y-83579464D01*
X113444929Y-83507178D01*
X113470266Y-83489800D01*
X113548285Y-83496513D01*
X113554933Y-83527137D01*
X115094907Y-83527137D01*
X115418658Y-82970587D01*
X115462491Y-82894624D01*
X113350047Y-82894624D01*
X113343266Y-82939467D01*
X113270846Y-83020149D01*
X113258600Y-83024134D01*
X113191286Y-82965082D01*
X113173933Y-82939467D01*
X113194039Y-82867738D01*
X113258600Y-82854800D01*
X113350047Y-82894624D01*
X115462491Y-82894624D01*
X115761126Y-82377095D01*
X115946973Y-82050467D01*
X115840933Y-82050467D01*
X115798600Y-82092800D01*
X115756266Y-82050467D01*
X115798600Y-82008134D01*
X115840933Y-82050467D01*
X115946973Y-82050467D01*
X116036448Y-81893214D01*
X116043157Y-81881134D01*
X115925600Y-81881134D01*
X115883266Y-81923467D01*
X115840933Y-81881134D01*
X115883266Y-81838800D01*
X115925600Y-81881134D01*
X116043157Y-81881134D01*
X116251009Y-81506915D01*
X116277169Y-81457800D01*
X115586933Y-81457800D01*
X115544600Y-81500134D01*
X115502266Y-81457800D01*
X115544600Y-81415467D01*
X115586933Y-81457800D01*
X116277169Y-81457800D01*
X116411194Y-81206171D01*
X116488943Y-81048709D01*
X115920233Y-81048709D01*
X115901545Y-81192260D01*
X115851092Y-81331250D01*
X115797129Y-81393857D01*
X115786321Y-81389077D01*
X115788614Y-81295001D01*
X115817518Y-81203800D01*
X113554933Y-81203800D01*
X113512600Y-81246134D01*
X113470266Y-81203800D01*
X113512600Y-81161467D01*
X113554933Y-81203800D01*
X115817518Y-81203800D01*
X115833748Y-81152592D01*
X115893802Y-81037027D01*
X115920233Y-81048709D01*
X116488943Y-81048709D01*
X116516878Y-80992134D01*
X115756266Y-80992134D01*
X115725288Y-81061824D01*
X115699822Y-81048578D01*
X115694130Y-80992134D01*
X115586933Y-80992134D01*
X115555955Y-81061824D01*
X115530489Y-81048578D01*
X115527643Y-81020356D01*
X113611378Y-81020356D01*
X113599755Y-81070690D01*
X113554933Y-81076800D01*
X113485243Y-81045822D01*
X113498489Y-81020356D01*
X113598968Y-81010223D01*
X113611378Y-81020356D01*
X115527643Y-81020356D01*
X115520356Y-80948098D01*
X115530489Y-80935689D01*
X115580823Y-80947311D01*
X115586933Y-80992134D01*
X115694130Y-80992134D01*
X115689689Y-80948098D01*
X115699822Y-80935689D01*
X115750156Y-80947311D01*
X115756266Y-80992134D01*
X116516878Y-80992134D01*
X116523386Y-80978955D01*
X116593970Y-80813239D01*
X116609434Y-80762403D01*
X115234619Y-80762403D01*
X115214018Y-80809718D01*
X115128768Y-80900612D01*
X115079757Y-80881966D01*
X115078933Y-80870130D01*
X115139070Y-80798518D01*
X115176682Y-80772382D01*
X115234619Y-80762403D01*
X116609434Y-80762403D01*
X116629331Y-80696995D01*
X116629429Y-80695800D01*
X115840933Y-80695800D01*
X115798600Y-80738134D01*
X115784394Y-80723928D01*
X113923649Y-80723928D01*
X113867772Y-80873380D01*
X113789367Y-80980919D01*
X113761525Y-80992134D01*
X113705547Y-80922481D01*
X113631552Y-80759300D01*
X113572284Y-80583008D01*
X113562121Y-80526467D01*
X113300933Y-80526467D01*
X113258600Y-80568800D01*
X113216266Y-80526467D01*
X113258600Y-80484134D01*
X113300933Y-80526467D01*
X113562121Y-80526467D01*
X113556213Y-80493600D01*
X113508501Y-80427124D01*
X113456331Y-80389063D01*
X113399305Y-80331386D01*
X113491433Y-80316097D01*
X113616680Y-80383245D01*
X113639600Y-80479137D01*
X113684855Y-80645560D01*
X113737348Y-80703885D01*
X113795285Y-80713864D01*
X113774685Y-80666549D01*
X113769468Y-80581811D01*
X113854183Y-80577905D01*
X113918843Y-80622266D01*
X113923649Y-80723928D01*
X115784394Y-80723928D01*
X115756266Y-80695800D01*
X115798600Y-80653467D01*
X115840933Y-80695800D01*
X116629429Y-80695800D01*
X116635853Y-80618196D01*
X116633746Y-80611134D01*
X115417600Y-80611134D01*
X115375266Y-80653467D01*
X115332933Y-80611134D01*
X115375266Y-80568800D01*
X115417600Y-80611134D01*
X116633746Y-80611134D01*
X116619920Y-80564815D01*
X116616755Y-80559469D01*
X116552122Y-80434745D01*
X115918916Y-80434745D01*
X115903349Y-80544559D01*
X115874447Y-80545870D01*
X115854236Y-80432553D01*
X115867763Y-80383592D01*
X115898779Y-80357134D01*
X113893600Y-80357134D01*
X113851266Y-80399467D01*
X113808933Y-80357134D01*
X113851266Y-80314800D01*
X113893600Y-80357134D01*
X115898779Y-80357134D01*
X115905358Y-80351522D01*
X115918916Y-80434745D01*
X116552122Y-80434745D01*
X116528687Y-80389524D01*
X116544067Y-80338186D01*
X116659180Y-80415723D01*
X116666433Y-80422215D01*
X116715098Y-80453943D01*
X116769412Y-80450124D01*
X116839802Y-80395717D01*
X116936696Y-80275681D01*
X116995292Y-80187800D01*
X116010266Y-80187800D01*
X115967933Y-80230134D01*
X115925600Y-80187800D01*
X115967933Y-80145467D01*
X116010266Y-80187800D01*
X116995292Y-80187800D01*
X117070521Y-80074975D01*
X117251609Y-79778709D01*
X116512900Y-79778709D01*
X116494212Y-79922260D01*
X116443758Y-80061250D01*
X116389796Y-80123857D01*
X116378988Y-80119077D01*
X116381280Y-80025001D01*
X116426414Y-79882592D01*
X116486468Y-79767027D01*
X116512900Y-79778709D01*
X117251609Y-79778709D01*
X117251702Y-79778558D01*
X117359352Y-79595134D01*
X116602933Y-79595134D01*
X116560600Y-79637467D01*
X116518266Y-79595134D01*
X116560600Y-79552800D01*
X116602933Y-79595134D01*
X117359352Y-79595134D01*
X117422355Y-79487783D01*
X116227472Y-79487783D01*
X116227410Y-79586812D01*
X116169016Y-79753884D01*
X116077285Y-79918096D01*
X116034160Y-79930157D01*
X116039962Y-79891467D01*
X114232266Y-79891467D01*
X114201288Y-79961157D01*
X114175822Y-79947911D01*
X114175035Y-79940105D01*
X113924059Y-79940105D01*
X113875771Y-80009927D01*
X113764570Y-80095796D01*
X113751108Y-80085069D01*
X113371952Y-80085069D01*
X113351351Y-80132385D01*
X113266101Y-80223279D01*
X113217091Y-80204633D01*
X113216266Y-80192797D01*
X113276403Y-80121184D01*
X113314015Y-80095049D01*
X113371952Y-80085069D01*
X113751108Y-80085069D01*
X113726742Y-80065654D01*
X113747203Y-80018467D01*
X113639600Y-80018467D01*
X113597266Y-80060800D01*
X113554933Y-80018467D01*
X113597266Y-79976134D01*
X113639600Y-80018467D01*
X113747203Y-80018467D01*
X113763118Y-79981766D01*
X113824645Y-79933800D01*
X113300933Y-79933800D01*
X113258600Y-79976134D01*
X113216266Y-79933800D01*
X113258600Y-79891467D01*
X113300933Y-79933800D01*
X113824645Y-79933800D01*
X113873080Y-79896041D01*
X113901935Y-79891467D01*
X113924059Y-79940105D01*
X114175035Y-79940105D01*
X114165689Y-79847432D01*
X114175822Y-79835022D01*
X114226156Y-79846645D01*
X114232266Y-79891467D01*
X116039962Y-79891467D01*
X116053145Y-79803572D01*
X116058889Y-79786558D01*
X113941545Y-79786558D01*
X113858322Y-79800116D01*
X113748508Y-79784549D01*
X113747197Y-79755647D01*
X113860514Y-79735436D01*
X113909475Y-79748963D01*
X113941545Y-79786558D01*
X116058889Y-79786558D01*
X116077266Y-79732127D01*
X113216266Y-79732127D01*
X113164101Y-79778030D01*
X113131600Y-79764467D01*
X113050094Y-79652308D01*
X113046933Y-79627473D01*
X113099099Y-79581570D01*
X113131600Y-79595134D01*
X113213106Y-79707293D01*
X113216266Y-79732127D01*
X116077266Y-79732127D01*
X116094933Y-79679800D01*
X116136630Y-79595134D01*
X115502266Y-79595134D01*
X115459933Y-79637467D01*
X115417600Y-79595134D01*
X115459933Y-79552800D01*
X115502266Y-79595134D01*
X116136630Y-79595134D01*
X116169820Y-79527744D01*
X116193828Y-79510467D01*
X113893600Y-79510467D01*
X113851266Y-79552800D01*
X113808933Y-79510467D01*
X113851266Y-79468134D01*
X113893600Y-79510467D01*
X116193828Y-79510467D01*
X116226542Y-79486925D01*
X116227472Y-79487783D01*
X117422355Y-79487783D01*
X117490667Y-79371389D01*
X117532504Y-79298800D01*
X116687600Y-79298800D01*
X116656622Y-79368490D01*
X116631155Y-79355245D01*
X116625463Y-79298800D01*
X116348933Y-79298800D01*
X116317955Y-79368490D01*
X116292489Y-79355245D01*
X116291067Y-79341134D01*
X113385600Y-79341134D01*
X113343266Y-79383467D01*
X113300933Y-79341134D01*
X113343266Y-79298800D01*
X113385600Y-79341134D01*
X116291067Y-79341134D01*
X116282528Y-79256467D01*
X113808933Y-79256467D01*
X113766600Y-79298800D01*
X113724266Y-79256467D01*
X113766600Y-79214134D01*
X113808933Y-79256467D01*
X116282528Y-79256467D01*
X116282356Y-79254765D01*
X116292489Y-79242356D01*
X116342823Y-79253978D01*
X116348933Y-79298800D01*
X116625463Y-79298800D01*
X116621022Y-79254765D01*
X116631155Y-79242356D01*
X116681490Y-79253978D01*
X116687600Y-79298800D01*
X117532504Y-79298800D01*
X117797844Y-78838426D01*
X117957600Y-78559667D01*
X118090718Y-78325134D01*
X116518266Y-78325134D01*
X116475933Y-78367467D01*
X116433600Y-78325134D01*
X116475933Y-78282800D01*
X116518266Y-78325134D01*
X118090718Y-78325134D01*
X118258720Y-78029144D01*
X118337538Y-77887689D01*
X115897378Y-77887689D01*
X115885755Y-77938023D01*
X115840933Y-77944134D01*
X115771243Y-77913155D01*
X115784489Y-77887689D01*
X115884968Y-77877556D01*
X115897378Y-77887689D01*
X118337538Y-77887689D01*
X118529304Y-77543526D01*
X118758510Y-77122996D01*
X118883727Y-76885800D01*
X118042266Y-76885800D01*
X117999933Y-76928134D01*
X117957600Y-76885800D01*
X117999933Y-76843467D01*
X117788266Y-76843467D01*
X117759380Y-76925932D01*
X117750930Y-76928134D01*
X117678644Y-76868805D01*
X117661266Y-76843467D01*
X117667979Y-76765448D01*
X117698603Y-76758800D01*
X117784821Y-76820261D01*
X117788266Y-76843467D01*
X117999933Y-76843467D01*
X118042266Y-76885800D01*
X118883727Y-76885800D01*
X118935497Y-76787735D01*
X119012800Y-76631800D01*
X118042266Y-76631800D01*
X117999933Y-76674134D01*
X117957600Y-76631800D01*
X117999933Y-76589467D01*
X118042266Y-76631800D01*
X119012800Y-76631800D01*
X119049423Y-76557925D01*
X119071753Y-76499803D01*
X118380933Y-76499803D01*
X118319473Y-76586021D01*
X118296266Y-76589467D01*
X118213801Y-76560580D01*
X118211600Y-76552130D01*
X118270929Y-76479844D01*
X118296266Y-76462467D01*
X118374285Y-76469180D01*
X118380933Y-76499803D01*
X119071753Y-76499803D01*
X119089448Y-76453749D01*
X119089394Y-76452784D01*
X119129213Y-76362779D01*
X119164462Y-76359954D01*
X119198605Y-76335467D01*
X118761933Y-76335467D01*
X118755220Y-76413486D01*
X118724597Y-76420134D01*
X118638379Y-76358673D01*
X118634933Y-76335467D01*
X118663820Y-76253001D01*
X118672270Y-76250800D01*
X118744556Y-76310129D01*
X118761933Y-76335467D01*
X119198605Y-76335467D01*
X119245801Y-76301619D01*
X119317960Y-76139554D01*
X119323932Y-76123800D01*
X119142933Y-76123800D01*
X119100600Y-76166134D01*
X119058266Y-76123800D01*
X119100600Y-76081467D01*
X119142933Y-76123800D01*
X119323932Y-76123800D01*
X119399702Y-75923932D01*
X119479836Y-75787258D01*
X119525901Y-75670218D01*
X119501774Y-75628268D01*
X119391405Y-75641916D01*
G36*
X120666933Y-75488208D02*
G01*
X120731462Y-75589857D01*
X120801519Y-75640371D01*
X120907517Y-75731662D01*
X120919752Y-75775210D01*
X120936888Y-75901830D01*
X121007802Y-76083818D01*
X121099395Y-76251317D01*
X121178568Y-76334469D01*
X121185205Y-76335467D01*
X121256170Y-76401332D01*
X121259600Y-76429496D01*
X121300588Y-76516467D01*
X121417541Y-76734176D01*
X121601443Y-77066895D01*
X121843276Y-77498897D01*
X122134024Y-78014454D01*
X122464671Y-78597840D01*
X122826199Y-79233326D01*
X123209593Y-79905186D01*
X123605834Y-80597693D01*
X124005907Y-81295118D01*
X124400795Y-81981736D01*
X124781482Y-82641818D01*
X125138949Y-83259638D01*
X125464182Y-83819467D01*
X125748163Y-84305579D01*
X125981875Y-84702247D01*
X126156302Y-84993743D01*
X126262427Y-85164340D01*
X126288380Y-85200898D01*
X126333357Y-85190013D01*
X126411554Y-85084562D01*
X126528084Y-84874139D01*
X126688063Y-84548333D01*
X126896604Y-84096737D01*
X127158822Y-83508941D01*
X127474030Y-82787898D01*
X127740108Y-82173576D01*
X127799247Y-82036356D01*
X124956711Y-82036356D01*
X124945089Y-82086690D01*
X124900266Y-82092800D01*
X124830576Y-82061822D01*
X124843822Y-82036356D01*
X124944302Y-82026223D01*
X124956711Y-82036356D01*
X127799247Y-82036356D01*
X127984867Y-81605667D01*
X128080432Y-81382670D01*
X127326496Y-81382670D01*
X127313266Y-81415467D01*
X127237184Y-81496237D01*
X127223603Y-81500134D01*
X127187237Y-81434628D01*
X127186266Y-81415467D01*
X127251354Y-81334054D01*
X127275930Y-81330800D01*
X127326496Y-81382670D01*
X128080432Y-81382670D01*
X128193371Y-81119134D01*
X127440266Y-81119134D01*
X127397933Y-81161467D01*
X127270933Y-81161467D01*
X127206504Y-81243673D01*
X127186266Y-81246134D01*
X127146309Y-81214817D01*
X126985374Y-81214817D01*
X126909349Y-81301311D01*
X126789903Y-81330800D01*
X126704200Y-81307838D01*
X126754818Y-81213659D01*
X126762159Y-81204732D01*
X126882016Y-81121314D01*
X126943241Y-81125916D01*
X126985374Y-81214817D01*
X127146309Y-81214817D01*
X127104060Y-81181704D01*
X127101600Y-81161467D01*
X127166029Y-81079260D01*
X127186266Y-81076800D01*
X127268473Y-81141229D01*
X127270933Y-81161467D01*
X127397933Y-81161467D01*
X127355600Y-81119134D01*
X127397933Y-81076800D01*
X127440266Y-81119134D01*
X128193371Y-81119134D01*
X128199994Y-81103680D01*
X128247440Y-80992134D01*
X126593600Y-80992134D01*
X126562622Y-81061824D01*
X126537155Y-81048578D01*
X126529422Y-80971891D01*
X126048878Y-80971891D01*
X125965655Y-80985449D01*
X125855841Y-80969883D01*
X125854931Y-80949800D01*
X124900266Y-80949800D01*
X124857933Y-80992134D01*
X124815600Y-80949800D01*
X124857933Y-80907467D01*
X124900266Y-80949800D01*
X125854931Y-80949800D01*
X125854530Y-80940981D01*
X125967847Y-80920769D01*
X126016808Y-80934297D01*
X126048878Y-80971891D01*
X126529422Y-80971891D01*
X126527022Y-80948098D01*
X126537155Y-80935689D01*
X126587490Y-80947311D01*
X126593600Y-80992134D01*
X128247440Y-80992134D01*
X128372398Y-80698358D01*
X127005380Y-80698358D01*
X126988735Y-80776388D01*
X126929815Y-80826107D01*
X126793451Y-80899614D01*
X126785019Y-80864110D01*
X126849298Y-80778421D01*
X126956984Y-80694031D01*
X127005380Y-80698358D01*
X128372398Y-80698358D01*
X128377177Y-80687123D01*
X128451094Y-80511189D01*
X127567859Y-80511189D01*
X127513671Y-80595218D01*
X127381257Y-80686749D01*
X127321284Y-80642665D01*
X127369996Y-80492773D01*
X127376380Y-80482322D01*
X127484684Y-80380244D01*
X127553884Y-80394551D01*
X127567859Y-80511189D01*
X128451094Y-80511189D01*
X128498034Y-80399467D01*
X128032933Y-80399467D01*
X128001955Y-80469157D01*
X127976489Y-80455911D01*
X127966356Y-80355432D01*
X127976489Y-80343022D01*
X128026823Y-80354645D01*
X128032933Y-80399467D01*
X128498034Y-80399467D01*
X128508102Y-80375504D01*
X128584456Y-80188333D01*
X128600438Y-80144568D01*
X128546035Y-80025663D01*
X128537116Y-80018467D01*
X126339600Y-80018467D01*
X126297266Y-80060800D01*
X126254933Y-80018467D01*
X126297266Y-79976134D01*
X126339600Y-80018467D01*
X128537116Y-80018467D01*
X128432168Y-79933800D01*
X127778933Y-79933800D01*
X127736600Y-79976134D01*
X127694266Y-79933800D01*
X127702248Y-79925818D01*
X124790484Y-79925818D01*
X124730933Y-79976134D01*
X124595837Y-80052283D01*
X124577838Y-80023603D01*
X124603933Y-79976134D01*
X124727582Y-79895635D01*
X124757097Y-79892763D01*
X124790484Y-79925818D01*
X127702248Y-79925818D01*
X127736600Y-79891467D01*
X127778933Y-79933800D01*
X128432168Y-79933800D01*
X128332666Y-79853527D01*
X128058674Y-79683782D01*
X127756570Y-79507968D01*
X127490825Y-79351127D01*
X127313163Y-79243821D01*
X127298592Y-79234697D01*
X127168068Y-79163659D01*
X127141298Y-79206724D01*
X127162148Y-79300381D01*
X127270432Y-79474357D01*
X127374236Y-79543124D01*
X127474566Y-79592658D01*
X127440880Y-79643686D01*
X127312673Y-79706998D01*
X127148469Y-79766037D01*
X127072034Y-79725035D01*
X127040633Y-79634283D01*
X126961338Y-79510311D01*
X126884608Y-79500795D01*
X126816315Y-79473212D01*
X126808505Y-79357030D01*
X126853281Y-79218561D01*
X126928558Y-79131759D01*
X126923883Y-79060187D01*
X126800610Y-78954092D01*
X126776126Y-78939061D01*
X126551114Y-78855430D01*
X126341234Y-78853936D01*
X126199969Y-78928110D01*
X126170266Y-79012342D01*
X126224411Y-79118170D01*
X126327337Y-79106812D01*
X126361001Y-79065967D01*
X126378240Y-79068154D01*
X126370230Y-79109562D01*
X126412592Y-79183642D01*
X126553440Y-79178669D01*
X126724754Y-79178876D01*
X126748696Y-79257030D01*
X126635933Y-79383467D01*
X126528342Y-79527615D01*
X126508933Y-79605500D01*
X126470676Y-79653636D01*
X126349890Y-79562934D01*
X126336512Y-79549712D01*
X126334833Y-79547288D01*
X125556841Y-79547288D01*
X125545260Y-79552800D01*
X125467995Y-79493197D01*
X125450600Y-79468134D01*
X125429025Y-79388979D01*
X125440606Y-79383467D01*
X125517872Y-79443070D01*
X125535266Y-79468134D01*
X125556841Y-79547288D01*
X126334833Y-79547288D01*
X126230482Y-79396697D01*
X126223712Y-79298800D01*
X124561600Y-79298800D01*
X124530622Y-79368490D01*
X124505155Y-79355245D01*
X124495022Y-79254765D01*
X124505155Y-79242356D01*
X124555490Y-79253978D01*
X124561600Y-79298800D01*
X126223712Y-79298800D01*
X126222593Y-79282630D01*
X126229550Y-79226831D01*
X126195821Y-79240673D01*
X126070816Y-79235649D01*
X125955194Y-79171800D01*
X125577600Y-79171800D01*
X125535266Y-79214134D01*
X125492933Y-79171800D01*
X125535266Y-79129467D01*
X125577600Y-79171800D01*
X125955194Y-79171800D01*
X125949906Y-79168880D01*
X125839460Y-79079122D01*
X125863325Y-79071579D01*
X125948986Y-79100417D01*
X126065134Y-79114561D01*
X126065403Y-79037125D01*
X126033826Y-79002467D01*
X124646266Y-79002467D01*
X124603933Y-79044800D01*
X124561600Y-79002467D01*
X124603933Y-78960134D01*
X124646266Y-79002467D01*
X126033826Y-79002467D01*
X125977925Y-78941112D01*
X125933287Y-78936821D01*
X125878425Y-78878925D01*
X125876824Y-78730598D01*
X125153950Y-78730598D01*
X125114123Y-78749584D01*
X125018592Y-78669043D01*
X124904457Y-78531085D01*
X124808820Y-78377819D01*
X124778066Y-78303967D01*
X124762862Y-78222403D01*
X124632619Y-78222403D01*
X124612018Y-78269718D01*
X124526768Y-78360612D01*
X124477757Y-78341966D01*
X124476933Y-78330130D01*
X124537070Y-78258518D01*
X124574682Y-78232382D01*
X124632619Y-78222403D01*
X124762862Y-78222403D01*
X124750912Y-78158305D01*
X124768805Y-78113467D01*
X124839934Y-78178838D01*
X124950580Y-78334858D01*
X125063212Y-78521389D01*
X125140298Y-78678292D01*
X125153950Y-78730598D01*
X125876824Y-78730598D01*
X125876521Y-78702620D01*
X125875460Y-78530309D01*
X125801741Y-78409800D01*
X125662266Y-78409800D01*
X125619933Y-78452134D01*
X125577600Y-78409800D01*
X125619933Y-78367467D01*
X125662266Y-78409800D01*
X125801741Y-78409800D01*
X125795311Y-78399289D01*
X125684410Y-78317151D01*
X125467817Y-78317151D01*
X125408266Y-78367467D01*
X125273170Y-78443617D01*
X125255171Y-78414936D01*
X125281266Y-78367467D01*
X125404915Y-78286968D01*
X125434430Y-78284097D01*
X125467817Y-78317151D01*
X125684410Y-78317151D01*
X125600761Y-78255198D01*
X125575433Y-78239099D01*
X125370711Y-78114442D01*
X125232887Y-78039040D01*
X125205278Y-78028800D01*
X125120888Y-77988546D01*
X124925869Y-77880721D01*
X124654883Y-77724731D01*
X124506163Y-77637359D01*
X124229730Y-77478467D01*
X123884266Y-77478467D01*
X123841933Y-77520800D01*
X123714933Y-77520800D01*
X123686046Y-77603266D01*
X123677597Y-77605467D01*
X123605311Y-77546138D01*
X123602541Y-77542098D01*
X122914243Y-77542098D01*
X122893823Y-77645679D01*
X122829577Y-77661911D01*
X122714796Y-77605390D01*
X122698933Y-77554019D01*
X122730615Y-77478467D01*
X122444933Y-77478467D01*
X122402600Y-77520800D01*
X122360266Y-77478467D01*
X122402600Y-77436134D01*
X122444933Y-77478467D01*
X122730615Y-77478467D01*
X122756866Y-77415867D01*
X122783600Y-77393800D01*
X122862798Y-77371008D01*
X122868266Y-77381879D01*
X122894627Y-77487093D01*
X122914243Y-77542098D01*
X123602541Y-77542098D01*
X123587933Y-77520800D01*
X123594646Y-77442781D01*
X123625270Y-77436134D01*
X123711488Y-77497594D01*
X123714933Y-77520800D01*
X123841933Y-77520800D01*
X123799600Y-77478467D01*
X123841933Y-77436134D01*
X123884266Y-77478467D01*
X124229730Y-77478467D01*
X124129247Y-77420710D01*
X123991769Y-77351467D01*
X123037600Y-77351467D01*
X123006622Y-77421157D01*
X122981155Y-77407911D01*
X122971022Y-77307432D01*
X122981155Y-77295022D01*
X123031490Y-77306645D01*
X123037600Y-77351467D01*
X123991769Y-77351467D01*
X123867237Y-77288745D01*
X123693940Y-77232528D01*
X123583162Y-77243123D01*
X123517089Y-77299959D01*
X123476244Y-77312023D01*
X123487239Y-77206195D01*
X123492755Y-77139800D01*
X122783600Y-77139800D01*
X122741266Y-77182134D01*
X122698933Y-77139800D01*
X122614266Y-77139800D01*
X122571933Y-77182134D01*
X122529600Y-77139800D01*
X122571933Y-77097467D01*
X122360266Y-77097467D01*
X122331380Y-77179932D01*
X122322930Y-77182134D01*
X122250644Y-77122805D01*
X122233266Y-77097467D01*
X122239979Y-77019448D01*
X122270603Y-77012800D01*
X122356821Y-77074261D01*
X122360266Y-77097467D01*
X122571933Y-77097467D01*
X122614266Y-77139800D01*
X122698933Y-77139800D01*
X122741266Y-77097467D01*
X122783600Y-77139800D01*
X123492755Y-77139800D01*
X123498834Y-77066633D01*
X123473416Y-77032614D01*
X123378535Y-76997644D01*
X123188453Y-76892639D01*
X122996068Y-76773316D01*
X122725024Y-76619056D01*
X122573575Y-76584186D01*
X122541925Y-76668670D01*
X122611754Y-76838773D01*
X122662236Y-76973432D01*
X122603243Y-77012398D01*
X122596079Y-77012483D01*
X122502658Y-76940544D01*
X122456507Y-76866768D01*
X122230088Y-76866768D01*
X122156409Y-76880041D01*
X122113200Y-76869812D01*
X121971102Y-76761056D01*
X121917972Y-76641013D01*
X121929666Y-76488276D01*
X122038399Y-76442147D01*
X122145311Y-76465319D01*
X122146514Y-76508174D01*
X122143375Y-76637199D01*
X122185549Y-76748740D01*
X122230088Y-76866768D01*
X122456507Y-76866768D01*
X122388600Y-76758215D01*
X122333584Y-76638425D01*
X122218920Y-76414870D01*
X122096829Y-76256280D01*
X121994726Y-76187956D01*
X121940023Y-76235204D01*
X121936933Y-76272296D01*
X121898250Y-76290242D01*
X121813588Y-76197045D01*
X121697077Y-76080830D01*
X121501545Y-75931429D01*
X121265203Y-75772465D01*
X121026262Y-75627557D01*
X120822933Y-75520328D01*
X120693427Y-75474399D01*
X120666933Y-75488208D01*
G37*
X120666933Y-75488208D02*
X120731462Y-75589857D01*
X120801519Y-75640371D01*
X120907517Y-75731662D01*
X120919752Y-75775210D01*
X120936888Y-75901830D01*
X121007802Y-76083818D01*
X121099395Y-76251317D01*
X121178568Y-76334469D01*
X121185205Y-76335467D01*
X121256170Y-76401332D01*
X121259600Y-76429496D01*
X121300588Y-76516467D01*
X121417541Y-76734176D01*
X121601443Y-77066895D01*
X121843276Y-77498897D01*
X122134024Y-78014454D01*
X122464671Y-78597840D01*
X122826199Y-79233326D01*
X123209593Y-79905186D01*
X123605834Y-80597693D01*
X124005907Y-81295118D01*
X124400795Y-81981736D01*
X124781482Y-82641818D01*
X125138949Y-83259638D01*
X125464182Y-83819467D01*
X125748163Y-84305579D01*
X125981875Y-84702247D01*
X126156302Y-84993743D01*
X126262427Y-85164340D01*
X126288380Y-85200898D01*
X126333357Y-85190013D01*
X126411554Y-85084562D01*
X126528084Y-84874139D01*
X126688063Y-84548333D01*
X126896604Y-84096737D01*
X127158822Y-83508941D01*
X127474030Y-82787898D01*
X127740108Y-82173576D01*
X127799247Y-82036356D01*
X124956711Y-82036356D01*
X124945089Y-82086690D01*
X124900266Y-82092800D01*
X124830576Y-82061822D01*
X124843822Y-82036356D01*
X124944302Y-82026223D01*
X124956711Y-82036356D01*
X127799247Y-82036356D01*
X127984867Y-81605667D01*
X128080432Y-81382670D01*
X127326496Y-81382670D01*
X127313266Y-81415467D01*
X127237184Y-81496237D01*
X127223603Y-81500134D01*
X127187237Y-81434628D01*
X127186266Y-81415467D01*
X127251354Y-81334054D01*
X127275930Y-81330800D01*
X127326496Y-81382670D01*
X128080432Y-81382670D01*
X128193371Y-81119134D01*
X127440266Y-81119134D01*
X127397933Y-81161467D01*
X127270933Y-81161467D01*
X127206504Y-81243673D01*
X127186266Y-81246134D01*
X127146309Y-81214817D01*
X126985374Y-81214817D01*
X126909349Y-81301311D01*
X126789903Y-81330800D01*
X126704200Y-81307838D01*
X126754818Y-81213659D01*
X126762159Y-81204732D01*
X126882016Y-81121314D01*
X126943241Y-81125916D01*
X126985374Y-81214817D01*
X127146309Y-81214817D01*
X127104060Y-81181704D01*
X127101600Y-81161467D01*
X127166029Y-81079260D01*
X127186266Y-81076800D01*
X127268473Y-81141229D01*
X127270933Y-81161467D01*
X127397933Y-81161467D01*
X127355600Y-81119134D01*
X127397933Y-81076800D01*
X127440266Y-81119134D01*
X128193371Y-81119134D01*
X128199994Y-81103680D01*
X128247440Y-80992134D01*
X126593600Y-80992134D01*
X126562622Y-81061824D01*
X126537155Y-81048578D01*
X126529422Y-80971891D01*
X126048878Y-80971891D01*
X125965655Y-80985449D01*
X125855841Y-80969883D01*
X125854931Y-80949800D01*
X124900266Y-80949800D01*
X124857933Y-80992134D01*
X124815600Y-80949800D01*
X124857933Y-80907467D01*
X124900266Y-80949800D01*
X125854931Y-80949800D01*
X125854530Y-80940981D01*
X125967847Y-80920769D01*
X126016808Y-80934297D01*
X126048878Y-80971891D01*
X126529422Y-80971891D01*
X126527022Y-80948098D01*
X126537155Y-80935689D01*
X126587490Y-80947311D01*
X126593600Y-80992134D01*
X128247440Y-80992134D01*
X128372398Y-80698358D01*
X127005380Y-80698358D01*
X126988735Y-80776388D01*
X126929815Y-80826107D01*
X126793451Y-80899614D01*
X126785019Y-80864110D01*
X126849298Y-80778421D01*
X126956984Y-80694031D01*
X127005380Y-80698358D01*
X128372398Y-80698358D01*
X128377177Y-80687123D01*
X128451094Y-80511189D01*
X127567859Y-80511189D01*
X127513671Y-80595218D01*
X127381257Y-80686749D01*
X127321284Y-80642665D01*
X127369996Y-80492773D01*
X127376380Y-80482322D01*
X127484684Y-80380244D01*
X127553884Y-80394551D01*
X127567859Y-80511189D01*
X128451094Y-80511189D01*
X128498034Y-80399467D01*
X128032933Y-80399467D01*
X128001955Y-80469157D01*
X127976489Y-80455911D01*
X127966356Y-80355432D01*
X127976489Y-80343022D01*
X128026823Y-80354645D01*
X128032933Y-80399467D01*
X128498034Y-80399467D01*
X128508102Y-80375504D01*
X128584456Y-80188333D01*
X128600438Y-80144568D01*
X128546035Y-80025663D01*
X128537116Y-80018467D01*
X126339600Y-80018467D01*
X126297266Y-80060800D01*
X126254933Y-80018467D01*
X126297266Y-79976134D01*
X126339600Y-80018467D01*
X128537116Y-80018467D01*
X128432168Y-79933800D01*
X127778933Y-79933800D01*
X127736600Y-79976134D01*
X127694266Y-79933800D01*
X127702248Y-79925818D01*
X124790484Y-79925818D01*
X124730933Y-79976134D01*
X124595837Y-80052283D01*
X124577838Y-80023603D01*
X124603933Y-79976134D01*
X124727582Y-79895635D01*
X124757097Y-79892763D01*
X124790484Y-79925818D01*
X127702248Y-79925818D01*
X127736600Y-79891467D01*
X127778933Y-79933800D01*
X128432168Y-79933800D01*
X128332666Y-79853527D01*
X128058674Y-79683782D01*
X127756570Y-79507968D01*
X127490825Y-79351127D01*
X127313163Y-79243821D01*
X127298592Y-79234697D01*
X127168068Y-79163659D01*
X127141298Y-79206724D01*
X127162148Y-79300381D01*
X127270432Y-79474357D01*
X127374236Y-79543124D01*
X127474566Y-79592658D01*
X127440880Y-79643686D01*
X127312673Y-79706998D01*
X127148469Y-79766037D01*
X127072034Y-79725035D01*
X127040633Y-79634283D01*
X126961338Y-79510311D01*
X126884608Y-79500795D01*
X126816315Y-79473212D01*
X126808505Y-79357030D01*
X126853281Y-79218561D01*
X126928558Y-79131759D01*
X126923883Y-79060187D01*
X126800610Y-78954092D01*
X126776126Y-78939061D01*
X126551114Y-78855430D01*
X126341234Y-78853936D01*
X126199969Y-78928110D01*
X126170266Y-79012342D01*
X126224411Y-79118170D01*
X126327337Y-79106812D01*
X126361001Y-79065967D01*
X126378240Y-79068154D01*
X126370230Y-79109562D01*
X126412592Y-79183642D01*
X126553440Y-79178669D01*
X126724754Y-79178876D01*
X126748696Y-79257030D01*
X126635933Y-79383467D01*
X126528342Y-79527615D01*
X126508933Y-79605500D01*
X126470676Y-79653636D01*
X126349890Y-79562934D01*
X126336512Y-79549712D01*
X126334833Y-79547288D01*
X125556841Y-79547288D01*
X125545260Y-79552800D01*
X125467995Y-79493197D01*
X125450600Y-79468134D01*
X125429025Y-79388979D01*
X125440606Y-79383467D01*
X125517872Y-79443070D01*
X125535266Y-79468134D01*
X125556841Y-79547288D01*
X126334833Y-79547288D01*
X126230482Y-79396697D01*
X126223712Y-79298800D01*
X124561600Y-79298800D01*
X124530622Y-79368490D01*
X124505155Y-79355245D01*
X124495022Y-79254765D01*
X124505155Y-79242356D01*
X124555490Y-79253978D01*
X124561600Y-79298800D01*
X126223712Y-79298800D01*
X126222593Y-79282630D01*
X126229550Y-79226831D01*
X126195821Y-79240673D01*
X126070816Y-79235649D01*
X125955194Y-79171800D01*
X125577600Y-79171800D01*
X125535266Y-79214134D01*
X125492933Y-79171800D01*
X125535266Y-79129467D01*
X125577600Y-79171800D01*
X125955194Y-79171800D01*
X125949906Y-79168880D01*
X125839460Y-79079122D01*
X125863325Y-79071579D01*
X125948986Y-79100417D01*
X126065134Y-79114561D01*
X126065403Y-79037125D01*
X126033826Y-79002467D01*
X124646266Y-79002467D01*
X124603933Y-79044800D01*
X124561600Y-79002467D01*
X124603933Y-78960134D01*
X124646266Y-79002467D01*
X126033826Y-79002467D01*
X125977925Y-78941112D01*
X125933287Y-78936821D01*
X125878425Y-78878925D01*
X125876824Y-78730598D01*
X125153950Y-78730598D01*
X125114123Y-78749584D01*
X125018592Y-78669043D01*
X124904457Y-78531085D01*
X124808820Y-78377819D01*
X124778066Y-78303967D01*
X124762862Y-78222403D01*
X124632619Y-78222403D01*
X124612018Y-78269718D01*
X124526768Y-78360612D01*
X124477757Y-78341966D01*
X124476933Y-78330130D01*
X124537070Y-78258518D01*
X124574682Y-78232382D01*
X124632619Y-78222403D01*
X124762862Y-78222403D01*
X124750912Y-78158305D01*
X124768805Y-78113467D01*
X124839934Y-78178838D01*
X124950580Y-78334858D01*
X125063212Y-78521389D01*
X125140298Y-78678292D01*
X125153950Y-78730598D01*
X125876824Y-78730598D01*
X125876521Y-78702620D01*
X125875460Y-78530309D01*
X125801741Y-78409800D01*
X125662266Y-78409800D01*
X125619933Y-78452134D01*
X125577600Y-78409800D01*
X125619933Y-78367467D01*
X125662266Y-78409800D01*
X125801741Y-78409800D01*
X125795311Y-78399289D01*
X125684410Y-78317151D01*
X125467817Y-78317151D01*
X125408266Y-78367467D01*
X125273170Y-78443617D01*
X125255171Y-78414936D01*
X125281266Y-78367467D01*
X125404915Y-78286968D01*
X125434430Y-78284097D01*
X125467817Y-78317151D01*
X125684410Y-78317151D01*
X125600761Y-78255198D01*
X125575433Y-78239099D01*
X125370711Y-78114442D01*
X125232887Y-78039040D01*
X125205278Y-78028800D01*
X125120888Y-77988546D01*
X124925869Y-77880721D01*
X124654883Y-77724731D01*
X124506163Y-77637359D01*
X124229730Y-77478467D01*
X123884266Y-77478467D01*
X123841933Y-77520800D01*
X123714933Y-77520800D01*
X123686046Y-77603266D01*
X123677597Y-77605467D01*
X123605311Y-77546138D01*
X123602541Y-77542098D01*
X122914243Y-77542098D01*
X122893823Y-77645679D01*
X122829577Y-77661911D01*
X122714796Y-77605390D01*
X122698933Y-77554019D01*
X122730615Y-77478467D01*
X122444933Y-77478467D01*
X122402600Y-77520800D01*
X122360266Y-77478467D01*
X122402600Y-77436134D01*
X122444933Y-77478467D01*
X122730615Y-77478467D01*
X122756866Y-77415867D01*
X122783600Y-77393800D01*
X122862798Y-77371008D01*
X122868266Y-77381879D01*
X122894627Y-77487093D01*
X122914243Y-77542098D01*
X123602541Y-77542098D01*
X123587933Y-77520800D01*
X123594646Y-77442781D01*
X123625270Y-77436134D01*
X123711488Y-77497594D01*
X123714933Y-77520800D01*
X123841933Y-77520800D01*
X123799600Y-77478467D01*
X123841933Y-77436134D01*
X123884266Y-77478467D01*
X124229730Y-77478467D01*
X124129247Y-77420710D01*
X123991769Y-77351467D01*
X123037600Y-77351467D01*
X123006622Y-77421157D01*
X122981155Y-77407911D01*
X122971022Y-77307432D01*
X122981155Y-77295022D01*
X123031490Y-77306645D01*
X123037600Y-77351467D01*
X123991769Y-77351467D01*
X123867237Y-77288745D01*
X123693940Y-77232528D01*
X123583162Y-77243123D01*
X123517089Y-77299959D01*
X123476244Y-77312023D01*
X123487239Y-77206195D01*
X123492755Y-77139800D01*
X122783600Y-77139800D01*
X122741266Y-77182134D01*
X122698933Y-77139800D01*
X122614266Y-77139800D01*
X122571933Y-77182134D01*
X122529600Y-77139800D01*
X122571933Y-77097467D01*
X122360266Y-77097467D01*
X122331380Y-77179932D01*
X122322930Y-77182134D01*
X122250644Y-77122805D01*
X122233266Y-77097467D01*
X122239979Y-77019448D01*
X122270603Y-77012800D01*
X122356821Y-77074261D01*
X122360266Y-77097467D01*
X122571933Y-77097467D01*
X122614266Y-77139800D01*
X122698933Y-77139800D01*
X122741266Y-77097467D01*
X122783600Y-77139800D01*
X123492755Y-77139800D01*
X123498834Y-77066633D01*
X123473416Y-77032614D01*
X123378535Y-76997644D01*
X123188453Y-76892639D01*
X122996068Y-76773316D01*
X122725024Y-76619056D01*
X122573575Y-76584186D01*
X122541925Y-76668670D01*
X122611754Y-76838773D01*
X122662236Y-76973432D01*
X122603243Y-77012398D01*
X122596079Y-77012483D01*
X122502658Y-76940544D01*
X122456507Y-76866768D01*
X122230088Y-76866768D01*
X122156409Y-76880041D01*
X122113200Y-76869812D01*
X121971102Y-76761056D01*
X121917972Y-76641013D01*
X121929666Y-76488276D01*
X122038399Y-76442147D01*
X122145311Y-76465319D01*
X122146514Y-76508174D01*
X122143375Y-76637199D01*
X122185549Y-76748740D01*
X122230088Y-76866768D01*
X122456507Y-76866768D01*
X122388600Y-76758215D01*
X122333584Y-76638425D01*
X122218920Y-76414870D01*
X122096829Y-76256280D01*
X121994726Y-76187956D01*
X121940023Y-76235204D01*
X121936933Y-76272296D01*
X121898250Y-76290242D01*
X121813588Y-76197045D01*
X121697077Y-76080830D01*
X121501545Y-75931429D01*
X121265203Y-75772465D01*
X121026262Y-75627557D01*
X120822933Y-75520328D01*
X120693427Y-75474399D01*
X120666933Y-75488208D01*
G36*
X111555713Y-80891821D02*
G01*
X111549319Y-81042193D01*
X111558376Y-81245387D01*
X111580204Y-81443790D01*
X111612122Y-81579789D01*
X111614343Y-81584800D01*
X111639188Y-81725630D01*
X111642231Y-81943156D01*
X111626829Y-82166595D01*
X111596342Y-82325165D01*
X111577692Y-82357199D01*
X111556291Y-82462243D01*
X111599241Y-82585181D01*
X111645881Y-82758508D01*
X111644449Y-83035269D01*
X111605109Y-83379115D01*
X111564757Y-83768577D01*
X111537863Y-84237054D01*
X111529273Y-84694448D01*
X111530116Y-84773019D01*
X111534124Y-85101437D01*
X111550474Y-85331304D01*
X111604828Y-85479239D01*
X111722851Y-85561863D01*
X111930207Y-85595796D01*
X112252558Y-85597658D01*
X112715569Y-85584071D01*
X112779655Y-85582251D01*
X113196715Y-85564879D01*
X113462473Y-85538527D01*
X113594843Y-85500473D01*
X113615261Y-85455251D01*
X113553875Y-85307702D01*
X113436277Y-85033310D01*
X113274739Y-84660100D01*
X113081535Y-84216094D01*
X112949219Y-83913134D01*
X112369600Y-83913134D01*
X112327266Y-83955467D01*
X112284933Y-83913134D01*
X112327266Y-83870800D01*
X112369600Y-83913134D01*
X112949219Y-83913134D01*
X112868938Y-83729318D01*
X112689822Y-83320467D01*
X112284933Y-83320467D01*
X112242600Y-83362800D01*
X112200266Y-83320467D01*
X112242600Y-83278134D01*
X112284933Y-83320467D01*
X112689822Y-83320467D01*
X112649222Y-83227794D01*
X112609333Y-83137022D01*
X111918044Y-83137022D01*
X111906422Y-83187357D01*
X111861600Y-83193467D01*
X111791910Y-83162489D01*
X111805155Y-83137022D01*
X111905635Y-83126889D01*
X111918044Y-83137022D01*
X112609333Y-83137022D01*
X112541120Y-82981800D01*
X112200266Y-82981800D01*
X112157933Y-83024134D01*
X112115600Y-82981800D01*
X112157933Y-82939467D01*
X112200266Y-82981800D01*
X112541120Y-82981800D01*
X112503913Y-82897134D01*
X111861600Y-82897134D01*
X111819266Y-82939467D01*
X111776933Y-82897134D01*
X111819266Y-82854800D01*
X111861600Y-82897134D01*
X112503913Y-82897134D01*
X112466705Y-82812467D01*
X112284933Y-82812467D01*
X112242600Y-82854800D01*
X112200266Y-82812467D01*
X112242600Y-82770134D01*
X112284933Y-82812467D01*
X112466705Y-82812467D01*
X112434660Y-82739547D01*
X112259001Y-82341288D01*
X111925508Y-82341288D01*
X111913927Y-82346800D01*
X111836661Y-82287197D01*
X111819266Y-82262134D01*
X111797692Y-82182979D01*
X111809273Y-82177467D01*
X111886538Y-82237070D01*
X111903933Y-82262134D01*
X111925508Y-82341288D01*
X112259001Y-82341288D01*
X112237525Y-82292599D01*
X112167707Y-82135134D01*
X112030933Y-82135134D01*
X111988600Y-82177467D01*
X111946266Y-82135134D01*
X111988600Y-82092800D01*
X112030933Y-82135134D01*
X112167707Y-82135134D01*
X112130167Y-82050467D01*
X111776933Y-82050467D01*
X111734600Y-82092800D01*
X111692266Y-82050467D01*
X111734600Y-82008134D01*
X111776933Y-82050467D01*
X112130167Y-82050467D01*
X112070090Y-81914975D01*
X112054942Y-81881134D01*
X111861600Y-81881134D01*
X111819266Y-81923467D01*
X111776933Y-81881134D01*
X111819266Y-81838800D01*
X111861600Y-81881134D01*
X112054942Y-81881134D01*
X111944629Y-81634698D01*
X111941169Y-81627134D01*
X111861600Y-81627134D01*
X111819266Y-81669467D01*
X111776933Y-81627134D01*
X111819266Y-81584800D01*
X111861600Y-81627134D01*
X111941169Y-81627134D01*
X111883074Y-81500134D01*
X111863696Y-81457800D01*
X111776933Y-81457800D01*
X111734600Y-81500134D01*
X111692266Y-81457800D01*
X111734600Y-81415467D01*
X111776933Y-81457800D01*
X111863696Y-81457800D01*
X111766119Y-81244639D01*
X111748583Y-81203800D01*
X111692266Y-81203800D01*
X111649933Y-81246134D01*
X111607600Y-81203800D01*
X111649933Y-81161467D01*
X111692266Y-81203800D01*
X111748583Y-81203800D01*
X111683986Y-81053365D01*
X111657247Y-80978022D01*
X111598244Y-80871515D01*
X111580240Y-80851884D01*
X111555713Y-80891821D01*
G37*
X111555713Y-80891821D02*
X111549319Y-81042193D01*
X111558376Y-81245387D01*
X111580204Y-81443790D01*
X111612122Y-81579789D01*
X111614343Y-81584800D01*
X111639188Y-81725630D01*
X111642231Y-81943156D01*
X111626829Y-82166595D01*
X111596342Y-82325165D01*
X111577692Y-82357199D01*
X111556291Y-82462243D01*
X111599241Y-82585181D01*
X111645881Y-82758508D01*
X111644449Y-83035269D01*
X111605109Y-83379115D01*
X111564757Y-83768577D01*
X111537863Y-84237054D01*
X111529273Y-84694448D01*
X111530116Y-84773019D01*
X111534124Y-85101437D01*
X111550474Y-85331304D01*
X111604828Y-85479239D01*
X111722851Y-85561863D01*
X111930207Y-85595796D01*
X112252558Y-85597658D01*
X112715569Y-85584071D01*
X112779655Y-85582251D01*
X113196715Y-85564879D01*
X113462473Y-85538527D01*
X113594843Y-85500473D01*
X113615261Y-85455251D01*
X113553875Y-85307702D01*
X113436277Y-85033310D01*
X113274739Y-84660100D01*
X113081535Y-84216094D01*
X112949219Y-83913134D01*
X112369600Y-83913134D01*
X112327266Y-83955467D01*
X112284933Y-83913134D01*
X112327266Y-83870800D01*
X112369600Y-83913134D01*
X112949219Y-83913134D01*
X112868938Y-83729318D01*
X112689822Y-83320467D01*
X112284933Y-83320467D01*
X112242600Y-83362800D01*
X112200266Y-83320467D01*
X112242600Y-83278134D01*
X112284933Y-83320467D01*
X112689822Y-83320467D01*
X112649222Y-83227794D01*
X112609333Y-83137022D01*
X111918044Y-83137022D01*
X111906422Y-83187357D01*
X111861600Y-83193467D01*
X111791910Y-83162489D01*
X111805155Y-83137022D01*
X111905635Y-83126889D01*
X111918044Y-83137022D01*
X112609333Y-83137022D01*
X112541120Y-82981800D01*
X112200266Y-82981800D01*
X112157933Y-83024134D01*
X112115600Y-82981800D01*
X112157933Y-82939467D01*
X112200266Y-82981800D01*
X112541120Y-82981800D01*
X112503913Y-82897134D01*
X111861600Y-82897134D01*
X111819266Y-82939467D01*
X111776933Y-82897134D01*
X111819266Y-82854800D01*
X111861600Y-82897134D01*
X112503913Y-82897134D01*
X112466705Y-82812467D01*
X112284933Y-82812467D01*
X112242600Y-82854800D01*
X112200266Y-82812467D01*
X112242600Y-82770134D01*
X112284933Y-82812467D01*
X112466705Y-82812467D01*
X112434660Y-82739547D01*
X112259001Y-82341288D01*
X111925508Y-82341288D01*
X111913927Y-82346800D01*
X111836661Y-82287197D01*
X111819266Y-82262134D01*
X111797692Y-82182979D01*
X111809273Y-82177467D01*
X111886538Y-82237070D01*
X111903933Y-82262134D01*
X111925508Y-82341288D01*
X112259001Y-82341288D01*
X112237525Y-82292599D01*
X112167707Y-82135134D01*
X112030933Y-82135134D01*
X111988600Y-82177467D01*
X111946266Y-82135134D01*
X111988600Y-82092800D01*
X112030933Y-82135134D01*
X112167707Y-82135134D01*
X112130167Y-82050467D01*
X111776933Y-82050467D01*
X111734600Y-82092800D01*
X111692266Y-82050467D01*
X111734600Y-82008134D01*
X111776933Y-82050467D01*
X112130167Y-82050467D01*
X112070090Y-81914975D01*
X112054942Y-81881134D01*
X111861600Y-81881134D01*
X111819266Y-81923467D01*
X111776933Y-81881134D01*
X111819266Y-81838800D01*
X111861600Y-81881134D01*
X112054942Y-81881134D01*
X111944629Y-81634698D01*
X111941169Y-81627134D01*
X111861600Y-81627134D01*
X111819266Y-81669467D01*
X111776933Y-81627134D01*
X111819266Y-81584800D01*
X111861600Y-81627134D01*
X111941169Y-81627134D01*
X111883074Y-81500134D01*
X111863696Y-81457800D01*
X111776933Y-81457800D01*
X111734600Y-81500134D01*
X111692266Y-81457800D01*
X111734600Y-81415467D01*
X111776933Y-81457800D01*
X111863696Y-81457800D01*
X111766119Y-81244639D01*
X111748583Y-81203800D01*
X111692266Y-81203800D01*
X111649933Y-81246134D01*
X111607600Y-81203800D01*
X111649933Y-81161467D01*
X111692266Y-81203800D01*
X111748583Y-81203800D01*
X111683986Y-81053365D01*
X111657247Y-80978022D01*
X111598244Y-80871515D01*
X111580240Y-80851884D01*
X111555713Y-80891821D01*
G36*
X119763370Y-76328167D02*
G01*
X119615349Y-76574708D01*
X119431518Y-76896139D01*
X119228878Y-77261078D01*
X119024432Y-77638143D01*
X118835183Y-77995952D01*
X118678134Y-78303122D01*
X118570285Y-78528272D01*
X118528641Y-78640019D01*
X118528632Y-78642634D01*
X118491273Y-78767723D01*
X118439171Y-78791012D01*
X118367094Y-78861307D01*
X118228261Y-79056447D01*
X118037746Y-79353029D01*
X117810623Y-79727647D01*
X117580354Y-80124512D01*
X117322837Y-80575924D01*
X117081294Y-80996763D01*
X116873387Y-81356449D01*
X116716779Y-81624405D01*
X116639088Y-81754134D01*
X116447953Y-82069880D01*
X116217881Y-82459853D01*
X115961766Y-82901127D01*
X115692503Y-83370779D01*
X115422985Y-83845884D01*
X115166108Y-84303518D01*
X114934765Y-84720756D01*
X114741852Y-85074674D01*
X114600262Y-85342347D01*
X114522890Y-85500852D01*
X114512851Y-85534274D01*
X114607103Y-85549101D01*
X114840715Y-85563590D01*
X115183720Y-85576496D01*
X115606147Y-85586574D01*
X115866451Y-85590521D01*
X116307009Y-85591702D01*
X116672171Y-85584624D01*
X116935959Y-85570460D01*
X117072400Y-85550384D01*
X117081842Y-85535622D01*
X117072295Y-85498874D01*
X117195600Y-85515242D01*
X117365316Y-85537716D01*
X117659344Y-85559159D01*
X118032668Y-85576802D01*
X118347225Y-85586086D01*
X119287183Y-85606467D01*
X119024558Y-85344978D01*
X118717522Y-85075035D01*
X118472275Y-84944895D01*
X118269668Y-84945620D01*
X118217480Y-84968320D01*
X118027005Y-85002034D01*
X117893374Y-84908649D01*
X117860427Y-84766460D01*
X116235839Y-84766460D01*
X116137584Y-84850085D01*
X115947408Y-84978747D01*
X115760276Y-85095546D01*
X115686116Y-85127770D01*
X115696920Y-85084643D01*
X115714305Y-85055531D01*
X115820431Y-84962227D01*
X116010180Y-84846911D01*
X116036802Y-84833097D01*
X116204132Y-84757722D01*
X116235839Y-84766460D01*
X117860427Y-84766460D01*
X117851748Y-84729008D01*
X117889663Y-84587559D01*
X117995553Y-84424898D01*
X116851095Y-84424898D01*
X116764747Y-84500741D01*
X116624100Y-84584373D01*
X116443267Y-84680423D01*
X116366417Y-84709893D01*
X116349147Y-84687780D01*
X116348933Y-84677308D01*
X116415877Y-84615593D01*
X116579407Y-84518138D01*
X116602933Y-84505800D01*
X116795681Y-84421105D01*
X116851095Y-84424898D01*
X117995553Y-84424898D01*
X118005711Y-84409295D01*
X118114541Y-84400069D01*
X118169266Y-84463467D01*
X118150073Y-84535950D01*
X118089597Y-84548134D01*
X117973668Y-84586296D01*
X117957600Y-84621059D01*
X118027315Y-84664121D01*
X118148100Y-84657850D01*
X118350446Y-84691329D01*
X118617668Y-84863048D01*
X118691233Y-84924025D01*
X118925245Y-85101742D01*
X119058021Y-85146359D01*
X119086715Y-85120068D01*
X119124708Y-85080154D01*
X119136249Y-85148845D01*
X119200404Y-85305306D01*
X119309191Y-85434350D01*
X119359141Y-85477607D01*
X119414900Y-85513147D01*
X119492190Y-85541585D01*
X119606734Y-85563536D01*
X119774256Y-85579613D01*
X120010477Y-85590431D01*
X120331122Y-85596605D01*
X120751914Y-85598748D01*
X121288574Y-85597475D01*
X121956827Y-85593401D01*
X122772395Y-85587139D01*
X123143433Y-85584159D01*
X123809387Y-85577682D01*
X124417905Y-85569610D01*
X124949180Y-85560374D01*
X125383405Y-85550408D01*
X125700773Y-85540142D01*
X125881477Y-85530009D01*
X125916266Y-85523704D01*
X125875179Y-85442343D01*
X125778624Y-85267800D01*
X123037600Y-85267800D01*
X122995266Y-85310134D01*
X122952933Y-85267800D01*
X122995266Y-85225467D01*
X123037600Y-85267800D01*
X125778624Y-85267800D01*
X125758070Y-85230645D01*
X125574172Y-84904583D01*
X125332717Y-84480128D01*
X125194115Y-84237689D01*
X117167378Y-84237689D01*
X117155755Y-84288023D01*
X117110933Y-84294134D01*
X117041243Y-84263155D01*
X117054489Y-84237689D01*
X117154968Y-84227556D01*
X117167378Y-84237689D01*
X125194115Y-84237689D01*
X125153778Y-84167134D01*
X120582266Y-84167134D01*
X120539933Y-84209467D01*
X120497600Y-84167134D01*
X120539933Y-84124800D01*
X120582266Y-84167134D01*
X125153778Y-84167134D01*
X125056970Y-83997800D01*
X120412933Y-83997800D01*
X120370600Y-84040134D01*
X120328266Y-83997800D01*
X117534266Y-83997800D01*
X117491933Y-84040134D01*
X117449600Y-83997800D01*
X117491933Y-83955467D01*
X117534266Y-83997800D01*
X120328266Y-83997800D01*
X120370600Y-83955467D01*
X120412933Y-83997800D01*
X125056970Y-83997800D01*
X125042934Y-83973250D01*
X124959883Y-83828467D01*
X117872933Y-83828467D01*
X117830600Y-83870800D01*
X117788266Y-83828467D01*
X117830600Y-83786134D01*
X117872933Y-83828467D01*
X124959883Y-83828467D01*
X124911315Y-83743800D01*
X118042266Y-83743800D01*
X117999933Y-83786134D01*
X117957600Y-83743800D01*
X117999933Y-83701467D01*
X118042266Y-83743800D01*
X124911315Y-83743800D01*
X124754659Y-83470704D01*
X118447384Y-83470704D01*
X118432797Y-83496983D01*
X118343584Y-83569796D01*
X118192545Y-83680826D01*
X118132805Y-83690565D01*
X118126933Y-83662112D01*
X118193430Y-83600073D01*
X118317433Y-83530442D01*
X118447384Y-83470704D01*
X124754659Y-83470704D01*
X124714056Y-83399923D01*
X124692708Y-83362800D01*
X118888933Y-83362800D01*
X118857955Y-83432490D01*
X118832489Y-83419245D01*
X118831066Y-83405134D01*
X118634933Y-83405134D01*
X118592600Y-83447467D01*
X118550266Y-83405134D01*
X118592600Y-83362800D01*
X118634933Y-83405134D01*
X118831066Y-83405134D01*
X118822356Y-83318765D01*
X118832489Y-83306356D01*
X118882823Y-83317978D01*
X118888933Y-83362800D01*
X124692708Y-83362800D01*
X124522292Y-83066467D01*
X124053600Y-83066467D01*
X124011266Y-83108800D01*
X123968933Y-83066467D01*
X119396933Y-83066467D01*
X119354600Y-83108800D01*
X119312266Y-83066467D01*
X119354600Y-83024134D01*
X119396933Y-83066467D01*
X123968933Y-83066467D01*
X124011266Y-83024134D01*
X124053600Y-83066467D01*
X124522292Y-83066467D01*
X124428206Y-82902863D01*
X123934290Y-82902863D01*
X123899043Y-82906266D01*
X123891766Y-82897134D01*
X119227600Y-82897134D01*
X119185266Y-82939467D01*
X119142933Y-82897134D01*
X119185266Y-82854800D01*
X119227600Y-82897134D01*
X123891766Y-82897134D01*
X123823881Y-82811947D01*
X123724032Y-82645691D01*
X119554713Y-82645691D01*
X119538069Y-82723721D01*
X119479148Y-82773441D01*
X119342784Y-82846948D01*
X119334352Y-82811444D01*
X119398631Y-82725754D01*
X119506317Y-82641365D01*
X119554713Y-82645691D01*
X123724032Y-82645691D01*
X123707204Y-82617672D01*
X123633962Y-82480986D01*
X123526234Y-82304467D01*
X120074266Y-82304467D01*
X120031933Y-82346800D01*
X118719600Y-82346800D01*
X118688622Y-82416490D01*
X118663155Y-82403245D01*
X118653022Y-82302765D01*
X118663155Y-82290356D01*
X118713490Y-82301978D01*
X118719600Y-82346800D01*
X120031933Y-82346800D01*
X119989600Y-82304467D01*
X120031933Y-82262134D01*
X120074266Y-82304467D01*
X123526234Y-82304467D01*
X123507487Y-82273750D01*
X123397344Y-82158686D01*
X123351134Y-82150666D01*
X123305495Y-82148301D01*
X123321630Y-82112708D01*
X123321332Y-82092800D01*
X118634933Y-82092800D01*
X118603955Y-82162490D01*
X118578489Y-82149245D01*
X118568356Y-82048765D01*
X118578489Y-82036356D01*
X118628823Y-82047978D01*
X118634933Y-82092800D01*
X123321332Y-82092800D01*
X123319679Y-81982590D01*
X123271211Y-81905852D01*
X123089956Y-81656370D01*
X122977590Y-81399780D01*
X122961241Y-81288467D01*
X117534266Y-81288467D01*
X117491933Y-81330800D01*
X117449600Y-81288467D01*
X117491933Y-81246134D01*
X117534266Y-81288467D01*
X122961241Y-81288467D01*
X122958300Y-81268449D01*
X122973739Y-81186809D01*
X123019044Y-81258230D01*
X123038636Y-81305303D01*
X123157059Y-81508373D01*
X123287270Y-81665137D01*
X123413539Y-81818625D01*
X123460933Y-81925149D01*
X123502630Y-82045109D01*
X123607352Y-82243726D01*
X123657619Y-82327316D01*
X123811031Y-82591414D01*
X123907263Y-82792875D01*
X123934290Y-82902863D01*
X124428206Y-82902863D01*
X124355315Y-82776116D01*
X123975941Y-82117802D01*
X123585167Y-81440951D01*
X123412981Y-81143234D01*
X122854650Y-81143234D01*
X122811892Y-81106953D01*
X122788751Y-81076800D01*
X122702347Y-80949800D01*
X121259600Y-80949800D01*
X121217266Y-80992134D01*
X121174933Y-80949800D01*
X118296266Y-80949800D01*
X118253933Y-80992134D01*
X118211600Y-80949800D01*
X118253933Y-80907467D01*
X118296266Y-80949800D01*
X121174933Y-80949800D01*
X121217266Y-80907467D01*
X121259600Y-80949800D01*
X122702347Y-80949800D01*
X122659590Y-80886956D01*
X122612982Y-80810097D01*
X122596962Y-80738134D01*
X122021600Y-80738134D01*
X121990622Y-80807824D01*
X121965155Y-80794578D01*
X121963732Y-80780467D01*
X121598266Y-80780467D01*
X121555933Y-80822800D01*
X121513600Y-80780467D01*
X121555933Y-80738134D01*
X121598266Y-80780467D01*
X121963732Y-80780467D01*
X121955022Y-80694098D01*
X121965155Y-80681689D01*
X122015490Y-80693311D01*
X122021600Y-80738134D01*
X122596962Y-80738134D01*
X122583086Y-80675809D01*
X122640008Y-80629216D01*
X122733907Y-80659827D01*
X122753218Y-80726586D01*
X122787336Y-80922411D01*
X122821681Y-81034467D01*
X122854650Y-81143234D01*
X123412981Y-81143234D01*
X123192223Y-80761535D01*
X123054885Y-80524497D01*
X122560297Y-80524497D01*
X122540245Y-80571135D01*
X122463217Y-80512209D01*
X122352119Y-80362222D01*
X122265403Y-80208967D01*
X122160267Y-80019385D01*
X118343341Y-80019385D01*
X118326067Y-80067078D01*
X118298479Y-80018467D01*
X118239768Y-79804921D01*
X118217551Y-79602189D01*
X118221999Y-79424323D01*
X118244332Y-79403883D01*
X118279232Y-79530560D01*
X118321382Y-79794045D01*
X118323079Y-79806800D01*
X118343341Y-80019385D01*
X122160267Y-80019385D01*
X122114897Y-79937574D01*
X121916936Y-79611788D01*
X121768545Y-79383467D01*
X121682818Y-79242356D01*
X118606711Y-79242356D01*
X118595089Y-79292690D01*
X118550266Y-79298800D01*
X118480576Y-79267822D01*
X118493822Y-79242356D01*
X118594302Y-79232223D01*
X118606711Y-79242356D01*
X121682818Y-79242356D01*
X121613756Y-79128678D01*
X121515577Y-78917266D01*
X121495112Y-78800182D01*
X121490383Y-78725538D01*
X121426835Y-78749763D01*
X121357921Y-78770214D01*
X121379368Y-78717834D01*
X121476934Y-78657508D01*
X121560510Y-78713955D01*
X121564362Y-78841698D01*
X121568424Y-78945317D01*
X121603652Y-78960134D01*
X121703462Y-79027895D01*
X121751204Y-79108300D01*
X121866709Y-79338199D01*
X122012849Y-79574935D01*
X122157295Y-79771777D01*
X122267716Y-79881994D01*
X122293021Y-79891467D01*
X122342481Y-79953393D01*
X122329649Y-80018467D01*
X122317769Y-80128345D01*
X122341757Y-80146127D01*
X122417897Y-80214560D01*
X122500467Y-80357794D01*
X122560297Y-80524497D01*
X123054885Y-80524497D01*
X122806341Y-80095526D01*
X122436753Y-79458894D01*
X122092690Y-78867611D01*
X121825494Y-78409800D01*
X121513600Y-78409800D01*
X121471266Y-78452134D01*
X121428933Y-78409800D01*
X121471266Y-78367467D01*
X121513600Y-78409800D01*
X121825494Y-78409800D01*
X121783383Y-78337649D01*
X121518064Y-77884978D01*
X121305964Y-77525571D01*
X121156315Y-77275398D01*
X121078348Y-77150431D01*
X121070374Y-77139800D01*
X121041289Y-77139923D01*
X121089211Y-77257237D01*
X121092044Y-77262753D01*
X121153258Y-77429134D01*
X121105717Y-77501490D01*
X121102408Y-77502642D01*
X121019636Y-77589505D01*
X121016155Y-77709673D01*
X121092968Y-77774592D01*
X121099325Y-77774800D01*
X121160599Y-77834480D01*
X121152267Y-77881079D01*
X121165548Y-78007722D01*
X121254946Y-78116272D01*
X121362093Y-78145480D01*
X121389047Y-78129544D01*
X121407043Y-78144535D01*
X121367176Y-78240467D01*
X121314926Y-78431840D01*
X121322155Y-78536800D01*
X121310311Y-78571382D01*
X121227372Y-78481521D01*
X121221143Y-78473152D01*
X121134851Y-78307295D01*
X121132092Y-78198955D01*
X121118291Y-78151008D01*
X121052331Y-78165828D01*
X120953265Y-78160603D01*
X120921222Y-78020845D01*
X120920933Y-77995525D01*
X120893038Y-77832128D01*
X120836266Y-77774800D01*
X120761152Y-77706224D01*
X120751600Y-77647800D01*
X120702154Y-77535188D01*
X120659878Y-77520800D01*
X120598653Y-77460462D01*
X120605928Y-77414967D01*
X120600892Y-77276779D01*
X120536094Y-77100831D01*
X120443024Y-76947959D01*
X120353173Y-76879002D01*
X120331106Y-76884045D01*
X120254844Y-76842342D01*
X120141032Y-76685299D01*
X120066003Y-76548745D01*
X119954873Y-76335919D01*
X119878138Y-76207080D01*
X119858578Y-76187898D01*
X119763370Y-76328167D01*
G37*
X119763370Y-76328167D02*
X119615349Y-76574708D01*
X119431518Y-76896139D01*
X119228878Y-77261078D01*
X119024432Y-77638143D01*
X118835183Y-77995952D01*
X118678134Y-78303122D01*
X118570285Y-78528272D01*
X118528641Y-78640019D01*
X118528632Y-78642634D01*
X118491273Y-78767723D01*
X118439171Y-78791012D01*
X118367094Y-78861307D01*
X118228261Y-79056447D01*
X118037746Y-79353029D01*
X117810623Y-79727647D01*
X117580354Y-80124512D01*
X117322837Y-80575924D01*
X117081294Y-80996763D01*
X116873387Y-81356449D01*
X116716779Y-81624405D01*
X116639088Y-81754134D01*
X116447953Y-82069880D01*
X116217881Y-82459853D01*
X115961766Y-82901127D01*
X115692503Y-83370779D01*
X115422985Y-83845884D01*
X115166108Y-84303518D01*
X114934765Y-84720756D01*
X114741852Y-85074674D01*
X114600262Y-85342347D01*
X114522890Y-85500852D01*
X114512851Y-85534274D01*
X114607103Y-85549101D01*
X114840715Y-85563590D01*
X115183720Y-85576496D01*
X115606147Y-85586574D01*
X115866451Y-85590521D01*
X116307009Y-85591702D01*
X116672171Y-85584624D01*
X116935959Y-85570460D01*
X117072400Y-85550384D01*
X117081842Y-85535622D01*
X117072295Y-85498874D01*
X117195600Y-85515242D01*
X117365316Y-85537716D01*
X117659344Y-85559159D01*
X118032668Y-85576802D01*
X118347225Y-85586086D01*
X119287183Y-85606467D01*
X119024558Y-85344978D01*
X118717522Y-85075035D01*
X118472275Y-84944895D01*
X118269668Y-84945620D01*
X118217480Y-84968320D01*
X118027005Y-85002034D01*
X117893374Y-84908649D01*
X117860427Y-84766460D01*
X116235839Y-84766460D01*
X116137584Y-84850085D01*
X115947408Y-84978747D01*
X115760276Y-85095546D01*
X115686116Y-85127770D01*
X115696920Y-85084643D01*
X115714305Y-85055531D01*
X115820431Y-84962227D01*
X116010180Y-84846911D01*
X116036802Y-84833097D01*
X116204132Y-84757722D01*
X116235839Y-84766460D01*
X117860427Y-84766460D01*
X117851748Y-84729008D01*
X117889663Y-84587559D01*
X117995553Y-84424898D01*
X116851095Y-84424898D01*
X116764747Y-84500741D01*
X116624100Y-84584373D01*
X116443267Y-84680423D01*
X116366417Y-84709893D01*
X116349147Y-84687780D01*
X116348933Y-84677308D01*
X116415877Y-84615593D01*
X116579407Y-84518138D01*
X116602933Y-84505800D01*
X116795681Y-84421105D01*
X116851095Y-84424898D01*
X117995553Y-84424898D01*
X118005711Y-84409295D01*
X118114541Y-84400069D01*
X118169266Y-84463467D01*
X118150073Y-84535950D01*
X118089597Y-84548134D01*
X117973668Y-84586296D01*
X117957600Y-84621059D01*
X118027315Y-84664121D01*
X118148100Y-84657850D01*
X118350446Y-84691329D01*
X118617668Y-84863048D01*
X118691233Y-84924025D01*
X118925245Y-85101742D01*
X119058021Y-85146359D01*
X119086715Y-85120068D01*
X119124708Y-85080154D01*
X119136249Y-85148845D01*
X119200404Y-85305306D01*
X119309191Y-85434350D01*
X119359141Y-85477607D01*
X119414900Y-85513147D01*
X119492190Y-85541585D01*
X119606734Y-85563536D01*
X119774256Y-85579613D01*
X120010477Y-85590431D01*
X120331122Y-85596605D01*
X120751914Y-85598748D01*
X121288574Y-85597475D01*
X121956827Y-85593401D01*
X122772395Y-85587139D01*
X123143433Y-85584159D01*
X123809387Y-85577682D01*
X124417905Y-85569610D01*
X124949180Y-85560374D01*
X125383405Y-85550408D01*
X125700773Y-85540142D01*
X125881477Y-85530009D01*
X125916266Y-85523704D01*
X125875179Y-85442343D01*
X125778624Y-85267800D01*
X123037600Y-85267800D01*
X122995266Y-85310134D01*
X122952933Y-85267800D01*
X122995266Y-85225467D01*
X123037600Y-85267800D01*
X125778624Y-85267800D01*
X125758070Y-85230645D01*
X125574172Y-84904583D01*
X125332717Y-84480128D01*
X125194115Y-84237689D01*
X117167378Y-84237689D01*
X117155755Y-84288023D01*
X117110933Y-84294134D01*
X117041243Y-84263155D01*
X117054489Y-84237689D01*
X117154968Y-84227556D01*
X117167378Y-84237689D01*
X125194115Y-84237689D01*
X125153778Y-84167134D01*
X120582266Y-84167134D01*
X120539933Y-84209467D01*
X120497600Y-84167134D01*
X120539933Y-84124800D01*
X120582266Y-84167134D01*
X125153778Y-84167134D01*
X125056970Y-83997800D01*
X120412933Y-83997800D01*
X120370600Y-84040134D01*
X120328266Y-83997800D01*
X117534266Y-83997800D01*
X117491933Y-84040134D01*
X117449600Y-83997800D01*
X117491933Y-83955467D01*
X117534266Y-83997800D01*
X120328266Y-83997800D01*
X120370600Y-83955467D01*
X120412933Y-83997800D01*
X125056970Y-83997800D01*
X125042934Y-83973250D01*
X124959883Y-83828467D01*
X117872933Y-83828467D01*
X117830600Y-83870800D01*
X117788266Y-83828467D01*
X117830600Y-83786134D01*
X117872933Y-83828467D01*
X124959883Y-83828467D01*
X124911315Y-83743800D01*
X118042266Y-83743800D01*
X117999933Y-83786134D01*
X117957600Y-83743800D01*
X117999933Y-83701467D01*
X118042266Y-83743800D01*
X124911315Y-83743800D01*
X124754659Y-83470704D01*
X118447384Y-83470704D01*
X118432797Y-83496983D01*
X118343584Y-83569796D01*
X118192545Y-83680826D01*
X118132805Y-83690565D01*
X118126933Y-83662112D01*
X118193430Y-83600073D01*
X118317433Y-83530442D01*
X118447384Y-83470704D01*
X124754659Y-83470704D01*
X124714056Y-83399923D01*
X124692708Y-83362800D01*
X118888933Y-83362800D01*
X118857955Y-83432490D01*
X118832489Y-83419245D01*
X118831066Y-83405134D01*
X118634933Y-83405134D01*
X118592600Y-83447467D01*
X118550266Y-83405134D01*
X118592600Y-83362800D01*
X118634933Y-83405134D01*
X118831066Y-83405134D01*
X118822356Y-83318765D01*
X118832489Y-83306356D01*
X118882823Y-83317978D01*
X118888933Y-83362800D01*
X124692708Y-83362800D01*
X124522292Y-83066467D01*
X124053600Y-83066467D01*
X124011266Y-83108800D01*
X123968933Y-83066467D01*
X119396933Y-83066467D01*
X119354600Y-83108800D01*
X119312266Y-83066467D01*
X119354600Y-83024134D01*
X119396933Y-83066467D01*
X123968933Y-83066467D01*
X124011266Y-83024134D01*
X124053600Y-83066467D01*
X124522292Y-83066467D01*
X124428206Y-82902863D01*
X123934290Y-82902863D01*
X123899043Y-82906266D01*
X123891766Y-82897134D01*
X119227600Y-82897134D01*
X119185266Y-82939467D01*
X119142933Y-82897134D01*
X119185266Y-82854800D01*
X119227600Y-82897134D01*
X123891766Y-82897134D01*
X123823881Y-82811947D01*
X123724032Y-82645691D01*
X119554713Y-82645691D01*
X119538069Y-82723721D01*
X119479148Y-82773441D01*
X119342784Y-82846948D01*
X119334352Y-82811444D01*
X119398631Y-82725754D01*
X119506317Y-82641365D01*
X119554713Y-82645691D01*
X123724032Y-82645691D01*
X123707204Y-82617672D01*
X123633962Y-82480986D01*
X123526234Y-82304467D01*
X120074266Y-82304467D01*
X120031933Y-82346800D01*
X118719600Y-82346800D01*
X118688622Y-82416490D01*
X118663155Y-82403245D01*
X118653022Y-82302765D01*
X118663155Y-82290356D01*
X118713490Y-82301978D01*
X118719600Y-82346800D01*
X120031933Y-82346800D01*
X119989600Y-82304467D01*
X120031933Y-82262134D01*
X120074266Y-82304467D01*
X123526234Y-82304467D01*
X123507487Y-82273750D01*
X123397344Y-82158686D01*
X123351134Y-82150666D01*
X123305495Y-82148301D01*
X123321630Y-82112708D01*
X123321332Y-82092800D01*
X118634933Y-82092800D01*
X118603955Y-82162490D01*
X118578489Y-82149245D01*
X118568356Y-82048765D01*
X118578489Y-82036356D01*
X118628823Y-82047978D01*
X118634933Y-82092800D01*
X123321332Y-82092800D01*
X123319679Y-81982590D01*
X123271211Y-81905852D01*
X123089956Y-81656370D01*
X122977590Y-81399780D01*
X122961241Y-81288467D01*
X117534266Y-81288467D01*
X117491933Y-81330800D01*
X117449600Y-81288467D01*
X117491933Y-81246134D01*
X117534266Y-81288467D01*
X122961241Y-81288467D01*
X122958300Y-81268449D01*
X122973739Y-81186809D01*
X123019044Y-81258230D01*
X123038636Y-81305303D01*
X123157059Y-81508373D01*
X123287270Y-81665137D01*
X123413539Y-81818625D01*
X123460933Y-81925149D01*
X123502630Y-82045109D01*
X123607352Y-82243726D01*
X123657619Y-82327316D01*
X123811031Y-82591414D01*
X123907263Y-82792875D01*
X123934290Y-82902863D01*
X124428206Y-82902863D01*
X124355315Y-82776116D01*
X123975941Y-82117802D01*
X123585167Y-81440951D01*
X123412981Y-81143234D01*
X122854650Y-81143234D01*
X122811892Y-81106953D01*
X122788751Y-81076800D01*
X122702347Y-80949800D01*
X121259600Y-80949800D01*
X121217266Y-80992134D01*
X121174933Y-80949800D01*
X118296266Y-80949800D01*
X118253933Y-80992134D01*
X118211600Y-80949800D01*
X118253933Y-80907467D01*
X118296266Y-80949800D01*
X121174933Y-80949800D01*
X121217266Y-80907467D01*
X121259600Y-80949800D01*
X122702347Y-80949800D01*
X122659590Y-80886956D01*
X122612982Y-80810097D01*
X122596962Y-80738134D01*
X122021600Y-80738134D01*
X121990622Y-80807824D01*
X121965155Y-80794578D01*
X121963732Y-80780467D01*
X121598266Y-80780467D01*
X121555933Y-80822800D01*
X121513600Y-80780467D01*
X121555933Y-80738134D01*
X121598266Y-80780467D01*
X121963732Y-80780467D01*
X121955022Y-80694098D01*
X121965155Y-80681689D01*
X122015490Y-80693311D01*
X122021600Y-80738134D01*
X122596962Y-80738134D01*
X122583086Y-80675809D01*
X122640008Y-80629216D01*
X122733907Y-80659827D01*
X122753218Y-80726586D01*
X122787336Y-80922411D01*
X122821681Y-81034467D01*
X122854650Y-81143234D01*
X123412981Y-81143234D01*
X123192223Y-80761535D01*
X123054885Y-80524497D01*
X122560297Y-80524497D01*
X122540245Y-80571135D01*
X122463217Y-80512209D01*
X122352119Y-80362222D01*
X122265403Y-80208967D01*
X122160267Y-80019385D01*
X118343341Y-80019385D01*
X118326067Y-80067078D01*
X118298479Y-80018467D01*
X118239768Y-79804921D01*
X118217551Y-79602189D01*
X118221999Y-79424323D01*
X118244332Y-79403883D01*
X118279232Y-79530560D01*
X118321382Y-79794045D01*
X118323079Y-79806800D01*
X118343341Y-80019385D01*
X122160267Y-80019385D01*
X122114897Y-79937574D01*
X121916936Y-79611788D01*
X121768545Y-79383467D01*
X121682818Y-79242356D01*
X118606711Y-79242356D01*
X118595089Y-79292690D01*
X118550266Y-79298800D01*
X118480576Y-79267822D01*
X118493822Y-79242356D01*
X118594302Y-79232223D01*
X118606711Y-79242356D01*
X121682818Y-79242356D01*
X121613756Y-79128678D01*
X121515577Y-78917266D01*
X121495112Y-78800182D01*
X121490383Y-78725538D01*
X121426835Y-78749763D01*
X121357921Y-78770214D01*
X121379368Y-78717834D01*
X121476934Y-78657508D01*
X121560510Y-78713955D01*
X121564362Y-78841698D01*
X121568424Y-78945317D01*
X121603652Y-78960134D01*
X121703462Y-79027895D01*
X121751204Y-79108300D01*
X121866709Y-79338199D01*
X122012849Y-79574935D01*
X122157295Y-79771777D01*
X122267716Y-79881994D01*
X122293021Y-79891467D01*
X122342481Y-79953393D01*
X122329649Y-80018467D01*
X122317769Y-80128345D01*
X122341757Y-80146127D01*
X122417897Y-80214560D01*
X122500467Y-80357794D01*
X122560297Y-80524497D01*
X123054885Y-80524497D01*
X122806341Y-80095526D01*
X122436753Y-79458894D01*
X122092690Y-78867611D01*
X121825494Y-78409800D01*
X121513600Y-78409800D01*
X121471266Y-78452134D01*
X121428933Y-78409800D01*
X121471266Y-78367467D01*
X121513600Y-78409800D01*
X121825494Y-78409800D01*
X121783383Y-78337649D01*
X121518064Y-77884978D01*
X121305964Y-77525571D01*
X121156315Y-77275398D01*
X121078348Y-77150431D01*
X121070374Y-77139800D01*
X121041289Y-77139923D01*
X121089211Y-77257237D01*
X121092044Y-77262753D01*
X121153258Y-77429134D01*
X121105717Y-77501490D01*
X121102408Y-77502642D01*
X121019636Y-77589505D01*
X121016155Y-77709673D01*
X121092968Y-77774592D01*
X121099325Y-77774800D01*
X121160599Y-77834480D01*
X121152267Y-77881079D01*
X121165548Y-78007722D01*
X121254946Y-78116272D01*
X121362093Y-78145480D01*
X121389047Y-78129544D01*
X121407043Y-78144535D01*
X121367176Y-78240467D01*
X121314926Y-78431840D01*
X121322155Y-78536800D01*
X121310311Y-78571382D01*
X121227372Y-78481521D01*
X121221143Y-78473152D01*
X121134851Y-78307295D01*
X121132092Y-78198955D01*
X121118291Y-78151008D01*
X121052331Y-78165828D01*
X120953265Y-78160603D01*
X120921222Y-78020845D01*
X120920933Y-77995525D01*
X120893038Y-77832128D01*
X120836266Y-77774800D01*
X120761152Y-77706224D01*
X120751600Y-77647800D01*
X120702154Y-77535188D01*
X120659878Y-77520800D01*
X120598653Y-77460462D01*
X120605928Y-77414967D01*
X120600892Y-77276779D01*
X120536094Y-77100831D01*
X120443024Y-76947959D01*
X120353173Y-76879002D01*
X120331106Y-76884045D01*
X120254844Y-76842342D01*
X120141032Y-76685299D01*
X120066003Y-76548745D01*
X119954873Y-76335919D01*
X119878138Y-76207080D01*
X119858578Y-76187898D01*
X119763370Y-76328167D01*
G36*
X128759301Y-80999543D02*
G01*
X128719333Y-81081472D01*
X128622682Y-81295115D01*
X128479646Y-81616838D01*
X128300522Y-82023005D01*
X128095607Y-82489984D01*
X127875199Y-82994138D01*
X127649595Y-83511835D01*
X127429092Y-84019440D01*
X127223989Y-84493318D01*
X127044581Y-84909835D01*
X126901167Y-85245357D01*
X126804044Y-85476250D01*
X126763509Y-85578879D01*
X126762933Y-85581571D01*
X126842137Y-85591195D01*
X127057904Y-85599089D01*
X127377466Y-85604448D01*
X127768056Y-85606466D01*
X127776048Y-85606467D01*
X128789164Y-85606467D01*
X128793303Y-85267800D01*
X128032933Y-85267800D01*
X127990600Y-85310134D01*
X127948266Y-85267800D01*
X127990600Y-85225467D01*
X128032933Y-85267800D01*
X128793303Y-85267800D01*
X128796408Y-85013800D01*
X127440266Y-85013800D01*
X127397933Y-85056134D01*
X127355600Y-85013800D01*
X127397933Y-84971467D01*
X127440266Y-85013800D01*
X128796408Y-85013800D01*
X128801583Y-84590467D01*
X128540933Y-84590467D01*
X128498600Y-84632800D01*
X128456266Y-84590467D01*
X128498600Y-84548134D01*
X128540933Y-84590467D01*
X128801583Y-84590467D01*
X128813215Y-83638903D01*
X128820157Y-83012370D01*
X128822832Y-82535558D01*
X128819974Y-82188883D01*
X128811242Y-81975337D01*
X128681163Y-81975337D01*
X128667933Y-82008134D01*
X128591851Y-82088904D01*
X128578270Y-82092800D01*
X128541904Y-82027294D01*
X128540933Y-82008134D01*
X128606021Y-81926720D01*
X128630597Y-81923467D01*
X128681163Y-81975337D01*
X128811242Y-81975337D01*
X128810318Y-81952758D01*
X128792597Y-81807598D01*
X128765546Y-81733819D01*
X128727899Y-81711834D01*
X128689100Y-81718442D01*
X128566856Y-81717842D01*
X128540933Y-81675172D01*
X128609418Y-81595030D01*
X128667933Y-81584800D01*
X128759857Y-81523630D01*
X128794182Y-81325546D01*
X128794933Y-81274356D01*
X128786550Y-81083261D01*
X128765760Y-80998230D01*
X128759301Y-80999543D01*
G37*
X128759301Y-80999543D02*
X128719333Y-81081472D01*
X128622682Y-81295115D01*
X128479646Y-81616838D01*
X128300522Y-82023005D01*
X128095607Y-82489984D01*
X127875199Y-82994138D01*
X127649595Y-83511835D01*
X127429092Y-84019440D01*
X127223989Y-84493318D01*
X127044581Y-84909835D01*
X126901167Y-85245357D01*
X126804044Y-85476250D01*
X126763509Y-85578879D01*
X126762933Y-85581571D01*
X126842137Y-85591195D01*
X127057904Y-85599089D01*
X127377466Y-85604448D01*
X127768056Y-85606466D01*
X127776048Y-85606467D01*
X128789164Y-85606467D01*
X128793303Y-85267800D01*
X128032933Y-85267800D01*
X127990600Y-85310134D01*
X127948266Y-85267800D01*
X127990600Y-85225467D01*
X128032933Y-85267800D01*
X128793303Y-85267800D01*
X128796408Y-85013800D01*
X127440266Y-85013800D01*
X127397933Y-85056134D01*
X127355600Y-85013800D01*
X127397933Y-84971467D01*
X127440266Y-85013800D01*
X128796408Y-85013800D01*
X128801583Y-84590467D01*
X128540933Y-84590467D01*
X128498600Y-84632800D01*
X128456266Y-84590467D01*
X128498600Y-84548134D01*
X128540933Y-84590467D01*
X128801583Y-84590467D01*
X128813215Y-83638903D01*
X128820157Y-83012370D01*
X128822832Y-82535558D01*
X128819974Y-82188883D01*
X128811242Y-81975337D01*
X128681163Y-81975337D01*
X128667933Y-82008134D01*
X128591851Y-82088904D01*
X128578270Y-82092800D01*
X128541904Y-82027294D01*
X128540933Y-82008134D01*
X128606021Y-81926720D01*
X128630597Y-81923467D01*
X128681163Y-81975337D01*
X128811242Y-81975337D01*
X128810318Y-81952758D01*
X128792597Y-81807598D01*
X128765546Y-81733819D01*
X128727899Y-81711834D01*
X128689100Y-81718442D01*
X128566856Y-81717842D01*
X128540933Y-81675172D01*
X128609418Y-81595030D01*
X128667933Y-81584800D01*
X128759857Y-81523630D01*
X128794182Y-81325546D01*
X128794933Y-81274356D01*
X128786550Y-81083261D01*
X128765760Y-80998230D01*
X128759301Y-80999543D01*
G36*
X119689331Y-86074157D02*
G01*
X119196802Y-86079834D01*
X118789178Y-86088570D01*
X118490096Y-86099773D01*
X118323195Y-86112852D01*
X118296266Y-86120942D01*
X118342875Y-86202009D01*
X118470347Y-86392659D01*
X118660150Y-86667015D01*
X118893751Y-86999198D01*
X119152620Y-87363333D01*
X119418223Y-87733541D01*
X119672030Y-88083946D01*
X119895507Y-88388669D01*
X120070123Y-88621834D01*
X120177346Y-88757563D01*
X120201598Y-88781467D01*
X120268097Y-88720411D01*
X120393606Y-88567893D01*
X120440445Y-88506300D01*
X120561681Y-88341032D01*
X120758203Y-88069844D01*
X121006966Y-87724674D01*
X121078978Y-87624356D01*
X120215378Y-87624356D01*
X120203755Y-87674690D01*
X120158933Y-87680800D01*
X120089243Y-87649822D01*
X120102489Y-87624356D01*
X120202968Y-87614223D01*
X120215378Y-87624356D01*
X121078978Y-87624356D01*
X121276334Y-87349427D01*
X119530665Y-87349427D01*
X119530375Y-87377603D01*
X119506272Y-87568807D01*
X119458466Y-87599631D01*
X119405780Y-87473604D01*
X119383087Y-87350004D01*
X119393857Y-87183041D01*
X119445708Y-87115023D01*
X119507312Y-87166380D01*
X119530665Y-87349427D01*
X121276334Y-87349427D01*
X121284925Y-87337460D01*
X121417949Y-87151634D01*
X121796400Y-86622467D01*
X120582266Y-86622467D01*
X120539933Y-86664800D01*
X120497600Y-86622467D01*
X119312266Y-86622467D01*
X119269933Y-86664800D01*
X119227600Y-86622467D01*
X119269933Y-86580134D01*
X119312266Y-86622467D01*
X120497600Y-86622467D01*
X120539933Y-86580134D01*
X120582266Y-86622467D01*
X121796400Y-86622467D01*
X122189989Y-86072134D01*
X120243128Y-86072134D01*
X119689331Y-86074157D01*
G37*
X119689331Y-86074157D02*
X119196802Y-86079834D01*
X118789178Y-86088570D01*
X118490096Y-86099773D01*
X118323195Y-86112852D01*
X118296266Y-86120942D01*
X118342875Y-86202009D01*
X118470347Y-86392659D01*
X118660150Y-86667015D01*
X118893751Y-86999198D01*
X119152620Y-87363333D01*
X119418223Y-87733541D01*
X119672030Y-88083946D01*
X119895507Y-88388669D01*
X120070123Y-88621834D01*
X120177346Y-88757563D01*
X120201598Y-88781467D01*
X120268097Y-88720411D01*
X120393606Y-88567893D01*
X120440445Y-88506300D01*
X120561681Y-88341032D01*
X120758203Y-88069844D01*
X121006966Y-87724674D01*
X121078978Y-87624356D01*
X120215378Y-87624356D01*
X120203755Y-87674690D01*
X120158933Y-87680800D01*
X120089243Y-87649822D01*
X120102489Y-87624356D01*
X120202968Y-87614223D01*
X120215378Y-87624356D01*
X121078978Y-87624356D01*
X121276334Y-87349427D01*
X119530665Y-87349427D01*
X119530375Y-87377603D01*
X119506272Y-87568807D01*
X119458466Y-87599631D01*
X119405780Y-87473604D01*
X119383087Y-87350004D01*
X119393857Y-87183041D01*
X119445708Y-87115023D01*
X119507312Y-87166380D01*
X119530665Y-87349427D01*
X121276334Y-87349427D01*
X121284925Y-87337460D01*
X121417949Y-87151634D01*
X121796400Y-86622467D01*
X120582266Y-86622467D01*
X120539933Y-86664800D01*
X120497600Y-86622467D01*
X119312266Y-86622467D01*
X119269933Y-86664800D01*
X119227600Y-86622467D01*
X119269933Y-86580134D01*
X119312266Y-86622467D01*
X120497600Y-86622467D01*
X120539933Y-86580134D01*
X120582266Y-86622467D01*
X121796400Y-86622467D01*
X122189989Y-86072134D01*
X120243128Y-86072134D01*
X119689331Y-86074157D01*
G36*
X111535351Y-88843049D02*
G01*
X111522933Y-88903470D01*
X111550836Y-89025799D01*
X111624148Y-88989128D01*
X111646317Y-88956650D01*
X111635700Y-88847911D01*
X111608981Y-88824654D01*
X111535351Y-88843049D01*
G37*
X111535351Y-88843049D02*
X111522933Y-88903470D01*
X111550836Y-89025799D01*
X111624148Y-88989128D01*
X111646317Y-88956650D01*
X111635700Y-88847911D01*
X111608981Y-88824654D01*
X111535351Y-88843049D01*
G36*
X111538089Y-86834134D02*
G01*
X111557299Y-87204855D01*
X111590145Y-87465567D01*
X111632945Y-87590362D01*
X111646544Y-87597430D01*
X111681594Y-87627408D01*
X111641543Y-87660930D01*
X111590561Y-87773787D01*
X111556612Y-87999728D01*
X111548136Y-88203342D01*
X111558225Y-88488997D01*
X111596735Y-88646370D01*
X111675234Y-88715673D01*
X111697553Y-88722715D01*
X111883689Y-88708313D01*
X111959025Y-88665840D01*
X111983203Y-88660170D01*
X111912194Y-88759252D01*
X111860332Y-88823066D01*
X111706599Y-89000234D01*
X111593380Y-89117023D01*
X111579025Y-89128975D01*
X111535031Y-89244335D01*
X111537693Y-89383708D01*
X111567268Y-89585800D01*
X111705452Y-89374134D01*
X111813421Y-89198179D01*
X111971656Y-88927880D01*
X112148653Y-88617175D01*
X112175220Y-88569800D01*
X112271476Y-88400467D01*
X111776933Y-88400467D01*
X111734600Y-88442800D01*
X111692266Y-88400467D01*
X111734600Y-88358134D01*
X111776933Y-88400467D01*
X112271476Y-88400467D01*
X112354955Y-88253612D01*
X112523457Y-87965812D01*
X112647793Y-87762525D01*
X112659606Y-87744300D01*
X112756487Y-87572018D01*
X112747277Y-87521009D01*
X112642042Y-87589332D01*
X112450846Y-87775049D01*
X112439914Y-87786634D01*
X112296272Y-87922897D01*
X112220737Y-87961319D01*
X112218250Y-87934800D01*
X112304218Y-87812217D01*
X112308849Y-87807800D01*
X111692266Y-87807800D01*
X111649933Y-87850134D01*
X111607600Y-87807800D01*
X111649933Y-87765467D01*
X111692266Y-87807800D01*
X112308849Y-87807800D01*
X112480902Y-87643701D01*
X112593223Y-87553800D01*
X112755358Y-87395092D01*
X112954277Y-87149065D01*
X113161771Y-86857852D01*
X113349634Y-86563582D01*
X113489659Y-86308389D01*
X113553637Y-86134401D01*
X113554933Y-86117361D01*
X113475717Y-86099921D01*
X113259853Y-86085604D01*
X112940019Y-86075859D01*
X112548893Y-86072137D01*
X112536311Y-86072134D01*
X111517689Y-86072134D01*
X111538089Y-86834134D01*
G37*
X111538089Y-86834134D02*
X111557299Y-87204855D01*
X111590145Y-87465567D01*
X111632945Y-87590362D01*
X111646544Y-87597430D01*
X111681594Y-87627408D01*
X111641543Y-87660930D01*
X111590561Y-87773787D01*
X111556612Y-87999728D01*
X111548136Y-88203342D01*
X111558225Y-88488997D01*
X111596735Y-88646370D01*
X111675234Y-88715673D01*
X111697553Y-88722715D01*
X111883689Y-88708313D01*
X111959025Y-88665840D01*
X111983203Y-88660170D01*
X111912194Y-88759252D01*
X111860332Y-88823066D01*
X111706599Y-89000234D01*
X111593380Y-89117023D01*
X111579025Y-89128975D01*
X111535031Y-89244335D01*
X111537693Y-89383708D01*
X111567268Y-89585800D01*
X111705452Y-89374134D01*
X111813421Y-89198179D01*
X111971656Y-88927880D01*
X112148653Y-88617175D01*
X112175220Y-88569800D01*
X112271476Y-88400467D01*
X111776933Y-88400467D01*
X111734600Y-88442800D01*
X111692266Y-88400467D01*
X111734600Y-88358134D01*
X111776933Y-88400467D01*
X112271476Y-88400467D01*
X112354955Y-88253612D01*
X112523457Y-87965812D01*
X112647793Y-87762525D01*
X112659606Y-87744300D01*
X112756487Y-87572018D01*
X112747277Y-87521009D01*
X112642042Y-87589332D01*
X112450846Y-87775049D01*
X112439914Y-87786634D01*
X112296272Y-87922897D01*
X112220737Y-87961319D01*
X112218250Y-87934800D01*
X112304218Y-87812217D01*
X112308849Y-87807800D01*
X111692266Y-87807800D01*
X111649933Y-87850134D01*
X111607600Y-87807800D01*
X111649933Y-87765467D01*
X111692266Y-87807800D01*
X112308849Y-87807800D01*
X112480902Y-87643701D01*
X112593223Y-87553800D01*
X112755358Y-87395092D01*
X112954277Y-87149065D01*
X113161771Y-86857852D01*
X113349634Y-86563582D01*
X113489659Y-86308389D01*
X113553637Y-86134401D01*
X113554933Y-86117361D01*
X113475717Y-86099921D01*
X113259853Y-86085604D01*
X112940019Y-86075859D01*
X112548893Y-86072137D01*
X112536311Y-86072134D01*
X111517689Y-86072134D01*
X111538089Y-86834134D01*
G36*
X127047963Y-86558967D02*
G01*
X127345227Y-87078595D01*
X127632923Y-87572267D01*
X127897221Y-88017057D01*
X128124294Y-88390038D01*
X128300314Y-88668283D01*
X128411452Y-88828866D01*
X128430413Y-88851014D01*
X128525870Y-89003162D01*
X128540933Y-89074468D01*
X128590734Y-89219245D01*
X128689100Y-89369061D01*
X128771645Y-89462709D01*
X128814388Y-89464836D01*
X128828249Y-89350350D01*
X128824150Y-89094156D01*
X128823206Y-89060941D01*
X128814107Y-88748088D01*
X128805855Y-88472686D01*
X128802040Y-88350557D01*
X128724864Y-88137093D01*
X128574963Y-88031089D01*
X128419563Y-87916029D01*
X128400874Y-87811302D01*
X128387678Y-87686555D01*
X128345677Y-87655528D01*
X128293550Y-87580358D01*
X128312703Y-87546677D01*
X128405320Y-87542884D01*
X128457782Y-87598585D01*
X128590547Y-87710288D01*
X128731284Y-87700369D01*
X128794933Y-87624006D01*
X128811228Y-87496560D01*
X128817819Y-87246331D01*
X128814373Y-86961134D01*
X128371600Y-86961134D01*
X128329266Y-87003467D01*
X128286933Y-86961134D01*
X128329266Y-86918800D01*
X128371600Y-86961134D01*
X128814373Y-86961134D01*
X128813871Y-86919636D01*
X128809879Y-86796728D01*
X128782492Y-86072134D01*
X126772128Y-86072134D01*
X127047963Y-86558967D01*
G37*
X127047963Y-86558967D02*
X127345227Y-87078595D01*
X127632923Y-87572267D01*
X127897221Y-88017057D01*
X128124294Y-88390038D01*
X128300314Y-88668283D01*
X128411452Y-88828866D01*
X128430413Y-88851014D01*
X128525870Y-89003162D01*
X128540933Y-89074468D01*
X128590734Y-89219245D01*
X128689100Y-89369061D01*
X128771645Y-89462709D01*
X128814388Y-89464836D01*
X128828249Y-89350350D01*
X128824150Y-89094156D01*
X128823206Y-89060941D01*
X128814107Y-88748088D01*
X128805855Y-88472686D01*
X128802040Y-88350557D01*
X128724864Y-88137093D01*
X128574963Y-88031089D01*
X128419563Y-87916029D01*
X128400874Y-87811302D01*
X128387678Y-87686555D01*
X128345677Y-87655528D01*
X128293550Y-87580358D01*
X128312703Y-87546677D01*
X128405320Y-87542884D01*
X128457782Y-87598585D01*
X128590547Y-87710288D01*
X128731284Y-87700369D01*
X128794933Y-87624006D01*
X128811228Y-87496560D01*
X128817819Y-87246331D01*
X128814373Y-86961134D01*
X128371600Y-86961134D01*
X128329266Y-87003467D01*
X128286933Y-86961134D01*
X128329266Y-86918800D01*
X128371600Y-86961134D01*
X128814373Y-86961134D01*
X128813871Y-86919636D01*
X128809879Y-86796728D01*
X128782492Y-86072134D01*
X126772128Y-86072134D01*
X127047963Y-86558967D01*
G36*
X110804547Y-84432358D02*
G01*
X110769682Y-84465570D01*
X110741754Y-84546590D01*
X110720029Y-84691903D01*
X110703776Y-84917991D01*
X110692263Y-85241340D01*
X110684758Y-85678433D01*
X110680530Y-86245755D01*
X110678845Y-86959790D01*
X110678720Y-87266034D01*
X110681189Y-88140931D01*
X110688714Y-88848679D01*
X110701362Y-89391389D01*
X110719201Y-89771169D01*
X110742297Y-89990132D01*
X110767103Y-90051467D01*
X110816576Y-90103406D01*
X110803266Y-90136134D01*
X110809979Y-90214152D01*
X110840603Y-90220800D01*
X110907422Y-90148225D01*
X110930266Y-90004137D01*
X110904076Y-89853189D01*
X110824433Y-89851056D01*
X110761349Y-89875876D01*
X110816983Y-89792874D01*
X110817578Y-89792137D01*
X110848284Y-89671266D01*
X110852552Y-89628134D01*
X110845600Y-89628134D01*
X110814622Y-89697824D01*
X110789155Y-89684578D01*
X110779022Y-89584098D01*
X110789155Y-89571689D01*
X110839490Y-89583311D01*
X110845600Y-89628134D01*
X110852552Y-89628134D01*
X110874310Y-89408302D01*
X110895555Y-89030151D01*
X110911912Y-88563719D01*
X110923280Y-88035914D01*
X110929554Y-87473641D01*
X110930630Y-86903807D01*
X110926404Y-86353318D01*
X110916774Y-85849082D01*
X110901634Y-85418005D01*
X110880881Y-85086992D01*
X110854412Y-84882951D01*
X110836706Y-84833751D01*
X110784187Y-84737081D01*
X110835233Y-84717467D01*
X110912809Y-84646777D01*
X110930266Y-84550791D01*
X110888840Y-84429323D01*
X110804547Y-84432358D01*
G37*
X110804547Y-84432358D02*
X110769682Y-84465570D01*
X110741754Y-84546590D01*
X110720029Y-84691903D01*
X110703776Y-84917991D01*
X110692263Y-85241340D01*
X110684758Y-85678433D01*
X110680530Y-86245755D01*
X110678845Y-86959790D01*
X110678720Y-87266034D01*
X110681189Y-88140931D01*
X110688714Y-88848679D01*
X110701362Y-89391389D01*
X110719201Y-89771169D01*
X110742297Y-89990132D01*
X110767103Y-90051467D01*
X110816576Y-90103406D01*
X110803266Y-90136134D01*
X110809979Y-90214152D01*
X110840603Y-90220800D01*
X110907422Y-90148225D01*
X110930266Y-90004137D01*
X110904076Y-89853189D01*
X110824433Y-89851056D01*
X110761349Y-89875876D01*
X110816983Y-89792874D01*
X110817578Y-89792137D01*
X110848284Y-89671266D01*
X110852552Y-89628134D01*
X110845600Y-89628134D01*
X110814622Y-89697824D01*
X110789155Y-89684578D01*
X110779022Y-89584098D01*
X110789155Y-89571689D01*
X110839490Y-89583311D01*
X110845600Y-89628134D01*
X110852552Y-89628134D01*
X110874310Y-89408302D01*
X110895555Y-89030151D01*
X110911912Y-88563719D01*
X110923280Y-88035914D01*
X110929554Y-87473641D01*
X110930630Y-86903807D01*
X110926404Y-86353318D01*
X110916774Y-85849082D01*
X110901634Y-85418005D01*
X110880881Y-85086992D01*
X110854412Y-84882951D01*
X110836706Y-84833751D01*
X110784187Y-84737081D01*
X110835233Y-84717467D01*
X110912809Y-84646777D01*
X110930266Y-84550791D01*
X110888840Y-84429323D01*
X110804547Y-84432358D01*
G36*
X115538327Y-86074086D02*
G01*
X115095085Y-86079527D01*
X114740929Y-86087831D01*
X114501587Y-86098374D01*
X114402789Y-86110530D01*
X114401600Y-86112053D01*
X114434220Y-86203891D01*
X114519305Y-86403951D01*
X114625845Y-86641219D01*
X114746367Y-86909472D01*
X114836189Y-87119253D01*
X114872518Y-87215134D01*
X114912221Y-87315990D01*
X115009353Y-87546199D01*
X115152929Y-87880214D01*
X115331964Y-88292488D01*
X115535474Y-88757476D01*
X115546014Y-88781467D01*
X115802158Y-89366127D01*
X116083499Y-90011193D01*
X116363849Y-90656439D01*
X116617020Y-91241641D01*
X116740088Y-91527492D01*
X116924148Y-91953981D01*
X117084850Y-92322407D01*
X117210451Y-92606160D01*
X117289207Y-92778628D01*
X117309925Y-92818681D01*
X117366585Y-92767979D01*
X117490367Y-92609323D01*
X117655271Y-92376190D01*
X117667201Y-92358656D01*
X117838807Y-92109653D01*
X117974270Y-91920125D01*
X118044933Y-91830140D01*
X118045673Y-91829467D01*
X117703600Y-91829467D01*
X117672622Y-91899157D01*
X117647155Y-91885911D01*
X117637022Y-91785432D01*
X117647155Y-91773022D01*
X117697490Y-91784645D01*
X117703600Y-91829467D01*
X118045673Y-91829467D01*
X118119458Y-91744800D01*
X117449600Y-91744800D01*
X117418622Y-91814490D01*
X117393155Y-91801245D01*
X117383022Y-91700765D01*
X117393155Y-91688356D01*
X117443490Y-91699978D01*
X117449600Y-91744800D01*
X118119458Y-91744800D01*
X118148150Y-91711877D01*
X118317573Y-91488185D01*
X118535064Y-91186173D01*
X118736608Y-90898134D01*
X118042266Y-90898134D01*
X118011288Y-90967824D01*
X117985822Y-90954578D01*
X117975689Y-90854098D01*
X117985822Y-90841689D01*
X118036156Y-90853311D01*
X118042266Y-90898134D01*
X118736608Y-90898134D01*
X118781747Y-90833624D01*
X118966059Y-90564464D01*
X117110933Y-90564464D01*
X117083725Y-90641392D01*
X117021290Y-90574281D01*
X116993961Y-90512736D01*
X116988044Y-90425337D01*
X117027236Y-90433066D01*
X117107924Y-90541467D01*
X117110933Y-90564464D01*
X118966059Y-90564464D01*
X119038741Y-90458323D01*
X119112895Y-90347800D01*
X118465600Y-90347800D01*
X118423266Y-90390134D01*
X118380933Y-90347800D01*
X118423266Y-90305467D01*
X118465600Y-90347800D01*
X119112895Y-90347800D01*
X119196521Y-90223159D01*
X116836349Y-90223159D01*
X116807577Y-90316830D01*
X116742650Y-90380937D01*
X116705613Y-90317172D01*
X116704979Y-90184996D01*
X116721114Y-90159064D01*
X116802540Y-90139336D01*
X116836349Y-90223159D01*
X119196521Y-90223159D01*
X119283314Y-90093800D01*
X117195600Y-90093800D01*
X117153266Y-90136134D01*
X117110933Y-90093800D01*
X117153266Y-90051467D01*
X117195600Y-90093800D01*
X119283314Y-90093800D01*
X119287171Y-90088052D01*
X119422017Y-89882134D01*
X117534266Y-89882134D01*
X117503288Y-89951824D01*
X117477822Y-89938578D01*
X117474578Y-89906403D01*
X117012619Y-89906403D01*
X116992018Y-89953718D01*
X116906768Y-90044612D01*
X116857757Y-90025966D01*
X116856933Y-90014130D01*
X116917070Y-89942518D01*
X116954682Y-89916382D01*
X117012619Y-89906403D01*
X117474578Y-89906403D01*
X117467689Y-89838098D01*
X117477822Y-89825689D01*
X117528156Y-89837311D01*
X117534266Y-89882134D01*
X119422017Y-89882134D01*
X119490718Y-89777225D01*
X118344212Y-89777225D01*
X118260989Y-89790783D01*
X118151175Y-89775216D01*
X118149864Y-89746314D01*
X118263181Y-89726103D01*
X118312141Y-89739630D01*
X118344212Y-89777225D01*
X119490718Y-89777225D01*
X119508157Y-89750595D01*
X119558707Y-89670467D01*
X117195600Y-89670467D01*
X117153266Y-89712800D01*
X117110933Y-89670467D01*
X117153266Y-89628134D01*
X117195600Y-89670467D01*
X119558707Y-89670467D01*
X119588892Y-89622621D01*
X117767508Y-89622621D01*
X117755927Y-89628134D01*
X117678661Y-89568530D01*
X117661266Y-89543467D01*
X117639692Y-89464313D01*
X117651273Y-89458800D01*
X117728538Y-89518404D01*
X117745933Y-89543467D01*
X117767508Y-89622621D01*
X119588892Y-89622621D01*
X119665535Y-89501134D01*
X118380933Y-89501134D01*
X118338600Y-89543467D01*
X118296266Y-89501134D01*
X118338600Y-89458800D01*
X118380933Y-89501134D01*
X119665535Y-89501134D01*
X119682821Y-89473735D01*
X119713918Y-89420191D01*
X117421378Y-89420191D01*
X117402908Y-89535229D01*
X117341609Y-89488508D01*
X117326216Y-89464650D01*
X117330478Y-89357912D01*
X117349441Y-89341375D01*
X117412466Y-89366451D01*
X117421378Y-89420191D01*
X119713918Y-89420191D01*
X119792286Y-89285255D01*
X119820266Y-89217744D01*
X119796817Y-89162467D01*
X117534266Y-89162467D01*
X117491933Y-89204800D01*
X117449600Y-89162467D01*
X117491933Y-89120134D01*
X117534266Y-89162467D01*
X119796817Y-89162467D01*
X119772787Y-89105821D01*
X119665845Y-88923531D01*
X117141430Y-88923531D01*
X117073401Y-89054306D01*
X116972291Y-89257833D01*
X116941600Y-89406700D01*
X116906073Y-89554345D01*
X116816941Y-89761103D01*
X116700378Y-89980215D01*
X116582559Y-90164922D01*
X116489656Y-90268465D01*
X116457000Y-90272423D01*
X116465046Y-90177412D01*
X116549303Y-90014492D01*
X116656790Y-89815970D01*
X116784360Y-89532706D01*
X116863188Y-89334517D01*
X116969748Y-89084384D01*
X117066970Y-88914443D01*
X117121817Y-88866134D01*
X117141430Y-88923531D01*
X119665845Y-88923531D01*
X119639980Y-88879443D01*
X119550244Y-88739134D01*
X118042266Y-88739134D01*
X117999933Y-88781467D01*
X117957600Y-88739134D01*
X117872933Y-88739134D01*
X117830600Y-88781467D01*
X117788266Y-88739134D01*
X117830600Y-88696800D01*
X117872933Y-88739134D01*
X117957600Y-88739134D01*
X117999933Y-88696800D01*
X118042266Y-88739134D01*
X119550244Y-88739134D01*
X119496094Y-88654467D01*
X117110933Y-88654467D01*
X117068600Y-88696800D01*
X117026266Y-88654467D01*
X117068600Y-88612134D01*
X117110933Y-88654467D01*
X119496094Y-88654467D01*
X119441944Y-88569800D01*
X117957600Y-88569800D01*
X117915266Y-88612134D01*
X117909754Y-88606621D01*
X116920841Y-88606621D01*
X116909260Y-88612134D01*
X116831995Y-88552530D01*
X116814600Y-88527467D01*
X116793025Y-88448313D01*
X116804606Y-88442800D01*
X116881872Y-88502404D01*
X116899266Y-88527467D01*
X116920841Y-88606621D01*
X117909754Y-88606621D01*
X117872933Y-88569800D01*
X117915266Y-88527467D01*
X117957600Y-88569800D01*
X119441944Y-88569800D01*
X119436295Y-88560969D01*
X119352272Y-88435567D01*
X116512089Y-88435567D01*
X116492205Y-88496951D01*
X116388526Y-88433668D01*
X116375140Y-88420626D01*
X116288291Y-88288829D01*
X116295076Y-88214435D01*
X116384519Y-88218856D01*
X116436907Y-88275919D01*
X116512089Y-88435567D01*
X119352272Y-88435567D01*
X119272024Y-88315800D01*
X118296266Y-88315800D01*
X118253933Y-88358134D01*
X118211600Y-88315800D01*
X118126933Y-88315800D01*
X118084600Y-88358134D01*
X118042266Y-88315800D01*
X118084600Y-88273467D01*
X118126933Y-88315800D01*
X118211600Y-88315800D01*
X118253933Y-88273467D01*
X118296266Y-88315800D01*
X119272024Y-88315800D01*
X119176181Y-88172759D01*
X119099228Y-88061800D01*
X116348933Y-88061800D01*
X116306600Y-88104134D01*
X116291511Y-88089045D01*
X116161890Y-88089045D01*
X116131940Y-88097449D01*
X116021650Y-88045325D01*
X115855526Y-87906979D01*
X115798600Y-87850134D01*
X115629901Y-87691323D01*
X115503694Y-87602757D01*
X115480378Y-87596134D01*
X115365496Y-87542341D01*
X115278505Y-87469134D01*
X115187513Y-87360571D01*
X115208901Y-87338567D01*
X115317078Y-87391510D01*
X115486451Y-87507787D01*
X115645202Y-87635514D01*
X115847353Y-87788462D01*
X116001150Y-87868470D01*
X116055016Y-87868347D01*
X116084375Y-87866803D01*
X116065647Y-87906402D01*
X116075372Y-88019825D01*
X116115572Y-88047885D01*
X116161890Y-88089045D01*
X116291511Y-88089045D01*
X116264266Y-88061800D01*
X116306600Y-88019467D01*
X116348933Y-88061800D01*
X119099228Y-88061800D01*
X118923069Y-87807800D01*
X118719600Y-87807800D01*
X118677266Y-87850134D01*
X118634933Y-87807800D01*
X118677266Y-87765467D01*
X118719600Y-87807800D01*
X118923069Y-87807800D01*
X118874087Y-87737174D01*
X118754260Y-87568051D01*
X117688254Y-86072134D01*
X116044927Y-86072134D01*
X115538327Y-86074086D01*
G37*
X115538327Y-86074086D02*
X115095085Y-86079527D01*
X114740929Y-86087831D01*
X114501587Y-86098374D01*
X114402789Y-86110530D01*
X114401600Y-86112053D01*
X114434220Y-86203891D01*
X114519305Y-86403951D01*
X114625845Y-86641219D01*
X114746367Y-86909472D01*
X114836189Y-87119253D01*
X114872518Y-87215134D01*
X114912221Y-87315990D01*
X115009353Y-87546199D01*
X115152929Y-87880214D01*
X115331964Y-88292488D01*
X115535474Y-88757476D01*
X115546014Y-88781467D01*
X115802158Y-89366127D01*
X116083499Y-90011193D01*
X116363849Y-90656439D01*
X116617020Y-91241641D01*
X116740088Y-91527492D01*
X116924148Y-91953981D01*
X117084850Y-92322407D01*
X117210451Y-92606160D01*
X117289207Y-92778628D01*
X117309925Y-92818681D01*
X117366585Y-92767979D01*
X117490367Y-92609323D01*
X117655271Y-92376190D01*
X117667201Y-92358656D01*
X117838807Y-92109653D01*
X117974270Y-91920125D01*
X118044933Y-91830140D01*
X118045673Y-91829467D01*
X117703600Y-91829467D01*
X117672622Y-91899157D01*
X117647155Y-91885911D01*
X117637022Y-91785432D01*
X117647155Y-91773022D01*
X117697490Y-91784645D01*
X117703600Y-91829467D01*
X118045673Y-91829467D01*
X118119458Y-91744800D01*
X117449600Y-91744800D01*
X117418622Y-91814490D01*
X117393155Y-91801245D01*
X117383022Y-91700765D01*
X117393155Y-91688356D01*
X117443490Y-91699978D01*
X117449600Y-91744800D01*
X118119458Y-91744800D01*
X118148150Y-91711877D01*
X118317573Y-91488185D01*
X118535064Y-91186173D01*
X118736608Y-90898134D01*
X118042266Y-90898134D01*
X118011288Y-90967824D01*
X117985822Y-90954578D01*
X117975689Y-90854098D01*
X117985822Y-90841689D01*
X118036156Y-90853311D01*
X118042266Y-90898134D01*
X118736608Y-90898134D01*
X118781747Y-90833624D01*
X118966059Y-90564464D01*
X117110933Y-90564464D01*
X117083725Y-90641392D01*
X117021290Y-90574281D01*
X116993961Y-90512736D01*
X116988044Y-90425337D01*
X117027236Y-90433066D01*
X117107924Y-90541467D01*
X117110933Y-90564464D01*
X118966059Y-90564464D01*
X119038741Y-90458323D01*
X119112895Y-90347800D01*
X118465600Y-90347800D01*
X118423266Y-90390134D01*
X118380933Y-90347800D01*
X118423266Y-90305467D01*
X118465600Y-90347800D01*
X119112895Y-90347800D01*
X119196521Y-90223159D01*
X116836349Y-90223159D01*
X116807577Y-90316830D01*
X116742650Y-90380937D01*
X116705613Y-90317172D01*
X116704979Y-90184996D01*
X116721114Y-90159064D01*
X116802540Y-90139336D01*
X116836349Y-90223159D01*
X119196521Y-90223159D01*
X119283314Y-90093800D01*
X117195600Y-90093800D01*
X117153266Y-90136134D01*
X117110933Y-90093800D01*
X117153266Y-90051467D01*
X117195600Y-90093800D01*
X119283314Y-90093800D01*
X119287171Y-90088052D01*
X119422017Y-89882134D01*
X117534266Y-89882134D01*
X117503288Y-89951824D01*
X117477822Y-89938578D01*
X117474578Y-89906403D01*
X117012619Y-89906403D01*
X116992018Y-89953718D01*
X116906768Y-90044612D01*
X116857757Y-90025966D01*
X116856933Y-90014130D01*
X116917070Y-89942518D01*
X116954682Y-89916382D01*
X117012619Y-89906403D01*
X117474578Y-89906403D01*
X117467689Y-89838098D01*
X117477822Y-89825689D01*
X117528156Y-89837311D01*
X117534266Y-89882134D01*
X119422017Y-89882134D01*
X119490718Y-89777225D01*
X118344212Y-89777225D01*
X118260989Y-89790783D01*
X118151175Y-89775216D01*
X118149864Y-89746314D01*
X118263181Y-89726103D01*
X118312141Y-89739630D01*
X118344212Y-89777225D01*
X119490718Y-89777225D01*
X119508157Y-89750595D01*
X119558707Y-89670467D01*
X117195600Y-89670467D01*
X117153266Y-89712800D01*
X117110933Y-89670467D01*
X117153266Y-89628134D01*
X117195600Y-89670467D01*
X119558707Y-89670467D01*
X119588892Y-89622621D01*
X117767508Y-89622621D01*
X117755927Y-89628134D01*
X117678661Y-89568530D01*
X117661266Y-89543467D01*
X117639692Y-89464313D01*
X117651273Y-89458800D01*
X117728538Y-89518404D01*
X117745933Y-89543467D01*
X117767508Y-89622621D01*
X119588892Y-89622621D01*
X119665535Y-89501134D01*
X118380933Y-89501134D01*
X118338600Y-89543467D01*
X118296266Y-89501134D01*
X118338600Y-89458800D01*
X118380933Y-89501134D01*
X119665535Y-89501134D01*
X119682821Y-89473735D01*
X119713918Y-89420191D01*
X117421378Y-89420191D01*
X117402908Y-89535229D01*
X117341609Y-89488508D01*
X117326216Y-89464650D01*
X117330478Y-89357912D01*
X117349441Y-89341375D01*
X117412466Y-89366451D01*
X117421378Y-89420191D01*
X119713918Y-89420191D01*
X119792286Y-89285255D01*
X119820266Y-89217744D01*
X119796817Y-89162467D01*
X117534266Y-89162467D01*
X117491933Y-89204800D01*
X117449600Y-89162467D01*
X117491933Y-89120134D01*
X117534266Y-89162467D01*
X119796817Y-89162467D01*
X119772787Y-89105821D01*
X119665845Y-88923531D01*
X117141430Y-88923531D01*
X117073401Y-89054306D01*
X116972291Y-89257833D01*
X116941600Y-89406700D01*
X116906073Y-89554345D01*
X116816941Y-89761103D01*
X116700378Y-89980215D01*
X116582559Y-90164922D01*
X116489656Y-90268465D01*
X116457000Y-90272423D01*
X116465046Y-90177412D01*
X116549303Y-90014492D01*
X116656790Y-89815970D01*
X116784360Y-89532706D01*
X116863188Y-89334517D01*
X116969748Y-89084384D01*
X117066970Y-88914443D01*
X117121817Y-88866134D01*
X117141430Y-88923531D01*
X119665845Y-88923531D01*
X119639980Y-88879443D01*
X119550244Y-88739134D01*
X118042266Y-88739134D01*
X117999933Y-88781467D01*
X117957600Y-88739134D01*
X117872933Y-88739134D01*
X117830600Y-88781467D01*
X117788266Y-88739134D01*
X117830600Y-88696800D01*
X117872933Y-88739134D01*
X117957600Y-88739134D01*
X117999933Y-88696800D01*
X118042266Y-88739134D01*
X119550244Y-88739134D01*
X119496094Y-88654467D01*
X117110933Y-88654467D01*
X117068600Y-88696800D01*
X117026266Y-88654467D01*
X117068600Y-88612134D01*
X117110933Y-88654467D01*
X119496094Y-88654467D01*
X119441944Y-88569800D01*
X117957600Y-88569800D01*
X117915266Y-88612134D01*
X117909754Y-88606621D01*
X116920841Y-88606621D01*
X116909260Y-88612134D01*
X116831995Y-88552530D01*
X116814600Y-88527467D01*
X116793025Y-88448313D01*
X116804606Y-88442800D01*
X116881872Y-88502404D01*
X116899266Y-88527467D01*
X116920841Y-88606621D01*
X117909754Y-88606621D01*
X117872933Y-88569800D01*
X117915266Y-88527467D01*
X117957600Y-88569800D01*
X119441944Y-88569800D01*
X119436295Y-88560969D01*
X119352272Y-88435567D01*
X116512089Y-88435567D01*
X116492205Y-88496951D01*
X116388526Y-88433668D01*
X116375140Y-88420626D01*
X116288291Y-88288829D01*
X116295076Y-88214435D01*
X116384519Y-88218856D01*
X116436907Y-88275919D01*
X116512089Y-88435567D01*
X119352272Y-88435567D01*
X119272024Y-88315800D01*
X118296266Y-88315800D01*
X118253933Y-88358134D01*
X118211600Y-88315800D01*
X118126933Y-88315800D01*
X118084600Y-88358134D01*
X118042266Y-88315800D01*
X118084600Y-88273467D01*
X118126933Y-88315800D01*
X118211600Y-88315800D01*
X118253933Y-88273467D01*
X118296266Y-88315800D01*
X119272024Y-88315800D01*
X119176181Y-88172759D01*
X119099228Y-88061800D01*
X116348933Y-88061800D01*
X116306600Y-88104134D01*
X116291511Y-88089045D01*
X116161890Y-88089045D01*
X116131940Y-88097449D01*
X116021650Y-88045325D01*
X115855526Y-87906979D01*
X115798600Y-87850134D01*
X115629901Y-87691323D01*
X115503694Y-87602757D01*
X115480378Y-87596134D01*
X115365496Y-87542341D01*
X115278505Y-87469134D01*
X115187513Y-87360571D01*
X115208901Y-87338567D01*
X115317078Y-87391510D01*
X115486451Y-87507787D01*
X115645202Y-87635514D01*
X115847353Y-87788462D01*
X116001150Y-87868470D01*
X116055016Y-87868347D01*
X116084375Y-87866803D01*
X116065647Y-87906402D01*
X116075372Y-88019825D01*
X116115572Y-88047885D01*
X116161890Y-88089045D01*
X116291511Y-88089045D01*
X116264266Y-88061800D01*
X116306600Y-88019467D01*
X116348933Y-88061800D01*
X119099228Y-88061800D01*
X118923069Y-87807800D01*
X118719600Y-87807800D01*
X118677266Y-87850134D01*
X118634933Y-87807800D01*
X118677266Y-87765467D01*
X118719600Y-87807800D01*
X118923069Y-87807800D01*
X118874087Y-87737174D01*
X118754260Y-87568051D01*
X117688254Y-86072134D01*
X116044927Y-86072134D01*
X115538327Y-86074086D01*
G36*
X124213713Y-86073439D02*
G01*
X123860547Y-86079652D01*
X123622228Y-86094223D01*
X123471517Y-86120599D01*
X123381172Y-86162227D01*
X123323955Y-86222557D01*
X123306100Y-86249712D01*
X123206296Y-86366459D01*
X123146668Y-86378758D01*
X123152647Y-86284024D01*
X123205235Y-86201180D01*
X123254757Y-86114731D01*
X123187057Y-86079826D01*
X123026800Y-86075612D01*
X122871188Y-86092918D01*
X122736905Y-86159409D01*
X122588615Y-86303454D01*
X122390979Y-86553420D01*
X122330779Y-86634352D01*
X122126413Y-86929014D01*
X121958778Y-87203979D01*
X121858978Y-87407503D01*
X121850275Y-87433745D01*
X121825117Y-87568241D01*
X121854219Y-87685574D01*
X121960602Y-87823192D01*
X122167286Y-88018542D01*
X122260763Y-88101474D01*
X122476726Y-88301290D01*
X122617824Y-88450679D01*
X122659694Y-88523227D01*
X122652616Y-88526269D01*
X122548752Y-88470561D01*
X122374737Y-88325763D01*
X122233266Y-88188800D01*
X122052126Y-88018399D01*
X121896345Y-87896255D01*
X121792813Y-87838027D01*
X121768421Y-87859373D01*
X121833409Y-87955967D01*
X121862724Y-88085094D01*
X121787746Y-88183765D01*
X121704892Y-88245072D01*
X121680679Y-88196648D01*
X121703337Y-88011291D01*
X121705996Y-87994817D01*
X121724662Y-87783966D01*
X121706730Y-87657640D01*
X121697969Y-87647759D01*
X121628563Y-87697719D01*
X121483463Y-87860571D01*
X121284198Y-88110562D01*
X121062509Y-88407830D01*
X120485531Y-89204044D01*
X120677637Y-89479589D01*
X120789983Y-89638307D01*
X120980968Y-89905529D01*
X121229999Y-90252547D01*
X121516482Y-90650656D01*
X121756026Y-90982800D01*
X122060979Y-91405331D01*
X122348210Y-91803515D01*
X122596119Y-92147392D01*
X122783105Y-92407003D01*
X122871931Y-92530563D01*
X123101553Y-92850660D01*
X123445639Y-92064897D01*
X123678452Y-91533134D01*
X122614266Y-91533134D01*
X122571933Y-91575467D01*
X122529600Y-91533134D01*
X122571933Y-91490800D01*
X122614266Y-91533134D01*
X123678452Y-91533134D01*
X123708656Y-91464146D01*
X123910645Y-90999363D01*
X124058009Y-90651186D01*
X124157152Y-90400255D01*
X124214476Y-90227208D01*
X124236385Y-90112684D01*
X124229281Y-90037323D01*
X124199568Y-89981763D01*
X124153649Y-89926644D01*
X124153042Y-89925926D01*
X124059845Y-89811584D01*
X124079410Y-89812361D01*
X124161479Y-89874491D01*
X124292226Y-89952802D01*
X124345751Y-89956871D01*
X124388706Y-89871577D01*
X124486464Y-89656690D01*
X124574287Y-89458800D01*
X122614266Y-89458800D01*
X122583288Y-89528490D01*
X122557822Y-89515245D01*
X122547689Y-89414765D01*
X122557822Y-89402356D01*
X122608156Y-89413978D01*
X122614266Y-89458800D01*
X124574287Y-89458800D01*
X124627764Y-89338303D01*
X124704879Y-89162467D01*
X124220528Y-89162467D01*
X124195032Y-89075860D01*
X122402076Y-89075860D01*
X122367972Y-89146295D01*
X122327608Y-89272913D01*
X122367120Y-89340058D01*
X122399399Y-89411725D01*
X122294105Y-89403414D01*
X122279180Y-89399602D01*
X122153740Y-89390514D01*
X122152015Y-89479089D01*
X122156400Y-89490930D01*
X122239125Y-89609154D01*
X122284658Y-89628134D01*
X122355624Y-89694765D01*
X122360266Y-89729734D01*
X122335276Y-89788638D01*
X122258666Y-89729734D01*
X122092669Y-89634591D01*
X121943555Y-89705120D01*
X121853813Y-89836911D01*
X121749754Y-89972523D01*
X121665106Y-89998116D01*
X121654888Y-89916892D01*
X121711010Y-89852839D01*
X121839006Y-89715320D01*
X121981898Y-89512083D01*
X122062925Y-89374134D01*
X121682933Y-89374134D01*
X121651955Y-89443824D01*
X121626489Y-89430578D01*
X121616528Y-89331800D01*
X121174933Y-89331800D01*
X121132600Y-89374134D01*
X121090266Y-89331800D01*
X121132600Y-89289467D01*
X121174933Y-89331800D01*
X121616528Y-89331800D01*
X121616356Y-89330098D01*
X121626489Y-89317689D01*
X121676823Y-89329311D01*
X121682933Y-89374134D01*
X122062925Y-89374134D01*
X122110922Y-89292421D01*
X122197313Y-89105629D01*
X122199915Y-89087468D01*
X121640411Y-89087468D01*
X121630016Y-89137258D01*
X121555933Y-89201326D01*
X121518371Y-89105046D01*
X121514896Y-89014300D01*
X121529120Y-88892056D01*
X121579370Y-88924631D01*
X121593976Y-88946758D01*
X121640411Y-89087468D01*
X122199915Y-89087468D01*
X122212304Y-89001000D01*
X122209871Y-88997960D01*
X122225773Y-88976397D01*
X122305038Y-88999901D01*
X122402076Y-89075860D01*
X124195032Y-89075860D01*
X124108364Y-88781467D01*
X124097287Y-88739134D01*
X121682933Y-88739134D01*
X121640600Y-88781467D01*
X121598266Y-88739134D01*
X121640600Y-88696800D01*
X121682933Y-88739134D01*
X124097287Y-88739134D01*
X124047763Y-88549886D01*
X124021590Y-88395707D01*
X124024900Y-88365189D01*
X124083433Y-88362797D01*
X124134557Y-88515761D01*
X124175520Y-88784645D01*
X124220528Y-89162467D01*
X124704879Y-89162467D01*
X124801344Y-88942512D01*
X124995942Y-88495410D01*
X125110284Y-88231134D01*
X123884266Y-88231134D01*
X123841933Y-88273467D01*
X123799600Y-88231134D01*
X123841933Y-88188800D01*
X123884266Y-88231134D01*
X125110284Y-88231134D01*
X125146916Y-88146467D01*
X123714933Y-88146467D01*
X123672600Y-88188800D01*
X123630266Y-88146467D01*
X123672600Y-88104134D01*
X123714933Y-88146467D01*
X125146916Y-88146467D01*
X125200296Y-88023092D01*
X125256500Y-87892467D01*
X124730933Y-87892467D01*
X124688600Y-87934800D01*
X124646266Y-87892467D01*
X124688600Y-87850134D01*
X124730933Y-87892467D01*
X125256500Y-87892467D01*
X125329360Y-87723134D01*
X124646266Y-87723134D01*
X124603933Y-87765467D01*
X124561600Y-87723134D01*
X124603933Y-87680800D01*
X124646266Y-87723134D01*
X125329360Y-87723134D01*
X125365790Y-87638467D01*
X122868266Y-87638467D01*
X122825933Y-87680800D01*
X122783600Y-87638467D01*
X122797711Y-87624356D01*
X122586044Y-87624356D01*
X122574422Y-87674690D01*
X122529600Y-87680800D01*
X122459910Y-87649822D01*
X122473155Y-87624356D01*
X122573635Y-87614223D01*
X122586044Y-87624356D01*
X122797711Y-87624356D01*
X122825933Y-87596134D01*
X122868266Y-87638467D01*
X125365790Y-87638467D01*
X125403145Y-87551652D01*
X125593227Y-87107184D01*
X125759280Y-86715783D01*
X125890042Y-86403544D01*
X125974252Y-86196559D01*
X126000933Y-86121694D01*
X125921106Y-86104584D01*
X125700967Y-86090031D01*
X125369533Y-86079148D01*
X124955820Y-86073047D01*
X124708966Y-86072134D01*
X124213713Y-86073439D01*
G37*
X124213713Y-86073439D02*
X123860547Y-86079652D01*
X123622228Y-86094223D01*
X123471517Y-86120599D01*
X123381172Y-86162227D01*
X123323955Y-86222557D01*
X123306100Y-86249712D01*
X123206296Y-86366459D01*
X123146668Y-86378758D01*
X123152647Y-86284024D01*
X123205235Y-86201180D01*
X123254757Y-86114731D01*
X123187057Y-86079826D01*
X123026800Y-86075612D01*
X122871188Y-86092918D01*
X122736905Y-86159409D01*
X122588615Y-86303454D01*
X122390979Y-86553420D01*
X122330779Y-86634352D01*
X122126413Y-86929014D01*
X121958778Y-87203979D01*
X121858978Y-87407503D01*
X121850275Y-87433745D01*
X121825117Y-87568241D01*
X121854219Y-87685574D01*
X121960602Y-87823192D01*
X122167286Y-88018542D01*
X122260763Y-88101474D01*
X122476726Y-88301290D01*
X122617824Y-88450679D01*
X122659694Y-88523227D01*
X122652616Y-88526269D01*
X122548752Y-88470561D01*
X122374737Y-88325763D01*
X122233266Y-88188800D01*
X122052126Y-88018399D01*
X121896345Y-87896255D01*
X121792813Y-87838027D01*
X121768421Y-87859373D01*
X121833409Y-87955967D01*
X121862724Y-88085094D01*
X121787746Y-88183765D01*
X121704892Y-88245072D01*
X121680679Y-88196648D01*
X121703337Y-88011291D01*
X121705996Y-87994817D01*
X121724662Y-87783966D01*
X121706730Y-87657640D01*
X121697969Y-87647759D01*
X121628563Y-87697719D01*
X121483463Y-87860571D01*
X121284198Y-88110562D01*
X121062509Y-88407830D01*
X120485531Y-89204044D01*
X120677637Y-89479589D01*
X120789983Y-89638307D01*
X120980968Y-89905529D01*
X121229999Y-90252547D01*
X121516482Y-90650656D01*
X121756026Y-90982800D01*
X122060979Y-91405331D01*
X122348210Y-91803515D01*
X122596119Y-92147392D01*
X122783105Y-92407003D01*
X122871931Y-92530563D01*
X123101553Y-92850660D01*
X123445639Y-92064897D01*
X123678452Y-91533134D01*
X122614266Y-91533134D01*
X122571933Y-91575467D01*
X122529600Y-91533134D01*
X122571933Y-91490800D01*
X122614266Y-91533134D01*
X123678452Y-91533134D01*
X123708656Y-91464146D01*
X123910645Y-90999363D01*
X124058009Y-90651186D01*
X124157152Y-90400255D01*
X124214476Y-90227208D01*
X124236385Y-90112684D01*
X124229281Y-90037323D01*
X124199568Y-89981763D01*
X124153649Y-89926644D01*
X124153042Y-89925926D01*
X124059845Y-89811584D01*
X124079410Y-89812361D01*
X124161479Y-89874491D01*
X124292226Y-89952802D01*
X124345751Y-89956871D01*
X124388706Y-89871577D01*
X124486464Y-89656690D01*
X124574287Y-89458800D01*
X122614266Y-89458800D01*
X122583288Y-89528490D01*
X122557822Y-89515245D01*
X122547689Y-89414765D01*
X122557822Y-89402356D01*
X122608156Y-89413978D01*
X122614266Y-89458800D01*
X124574287Y-89458800D01*
X124627764Y-89338303D01*
X124704879Y-89162467D01*
X124220528Y-89162467D01*
X124195032Y-89075860D01*
X122402076Y-89075860D01*
X122367972Y-89146295D01*
X122327608Y-89272913D01*
X122367120Y-89340058D01*
X122399399Y-89411725D01*
X122294105Y-89403414D01*
X122279180Y-89399602D01*
X122153740Y-89390514D01*
X122152015Y-89479089D01*
X122156400Y-89490930D01*
X122239125Y-89609154D01*
X122284658Y-89628134D01*
X122355624Y-89694765D01*
X122360266Y-89729734D01*
X122335276Y-89788638D01*
X122258666Y-89729734D01*
X122092669Y-89634591D01*
X121943555Y-89705120D01*
X121853813Y-89836911D01*
X121749754Y-89972523D01*
X121665106Y-89998116D01*
X121654888Y-89916892D01*
X121711010Y-89852839D01*
X121839006Y-89715320D01*
X121981898Y-89512083D01*
X122062925Y-89374134D01*
X121682933Y-89374134D01*
X121651955Y-89443824D01*
X121626489Y-89430578D01*
X121616528Y-89331800D01*
X121174933Y-89331800D01*
X121132600Y-89374134D01*
X121090266Y-89331800D01*
X121132600Y-89289467D01*
X121174933Y-89331800D01*
X121616528Y-89331800D01*
X121616356Y-89330098D01*
X121626489Y-89317689D01*
X121676823Y-89329311D01*
X121682933Y-89374134D01*
X122062925Y-89374134D01*
X122110922Y-89292421D01*
X122197313Y-89105629D01*
X122199915Y-89087468D01*
X121640411Y-89087468D01*
X121630016Y-89137258D01*
X121555933Y-89201326D01*
X121518371Y-89105046D01*
X121514896Y-89014300D01*
X121529120Y-88892056D01*
X121579370Y-88924631D01*
X121593976Y-88946758D01*
X121640411Y-89087468D01*
X122199915Y-89087468D01*
X122212304Y-89001000D01*
X122209871Y-88997960D01*
X122225773Y-88976397D01*
X122305038Y-88999901D01*
X122402076Y-89075860D01*
X124195032Y-89075860D01*
X124108364Y-88781467D01*
X124097287Y-88739134D01*
X121682933Y-88739134D01*
X121640600Y-88781467D01*
X121598266Y-88739134D01*
X121640600Y-88696800D01*
X121682933Y-88739134D01*
X124097287Y-88739134D01*
X124047763Y-88549886D01*
X124021590Y-88395707D01*
X124024900Y-88365189D01*
X124083433Y-88362797D01*
X124134557Y-88515761D01*
X124175520Y-88784645D01*
X124220528Y-89162467D01*
X124704879Y-89162467D01*
X124801344Y-88942512D01*
X124995942Y-88495410D01*
X125110284Y-88231134D01*
X123884266Y-88231134D01*
X123841933Y-88273467D01*
X123799600Y-88231134D01*
X123841933Y-88188800D01*
X123884266Y-88231134D01*
X125110284Y-88231134D01*
X125146916Y-88146467D01*
X123714933Y-88146467D01*
X123672600Y-88188800D01*
X123630266Y-88146467D01*
X123672600Y-88104134D01*
X123714933Y-88146467D01*
X125146916Y-88146467D01*
X125200296Y-88023092D01*
X125256500Y-87892467D01*
X124730933Y-87892467D01*
X124688600Y-87934800D01*
X124646266Y-87892467D01*
X124688600Y-87850134D01*
X124730933Y-87892467D01*
X125256500Y-87892467D01*
X125329360Y-87723134D01*
X124646266Y-87723134D01*
X124603933Y-87765467D01*
X124561600Y-87723134D01*
X124603933Y-87680800D01*
X124646266Y-87723134D01*
X125329360Y-87723134D01*
X125365790Y-87638467D01*
X122868266Y-87638467D01*
X122825933Y-87680800D01*
X122783600Y-87638467D01*
X122797711Y-87624356D01*
X122586044Y-87624356D01*
X122574422Y-87674690D01*
X122529600Y-87680800D01*
X122459910Y-87649822D01*
X122473155Y-87624356D01*
X122573635Y-87614223D01*
X122586044Y-87624356D01*
X122797711Y-87624356D01*
X122825933Y-87596134D01*
X122868266Y-87638467D01*
X125365790Y-87638467D01*
X125403145Y-87551652D01*
X125593227Y-87107184D01*
X125759280Y-86715783D01*
X125890042Y-86403544D01*
X125974252Y-86196559D01*
X126000933Y-86121694D01*
X125921106Y-86104584D01*
X125700967Y-86090031D01*
X125369533Y-86079148D01*
X124955820Y-86073047D01*
X124708966Y-86072134D01*
X124213713Y-86073439D01*
G36*
X126353164Y-86468608D02*
G01*
X126354222Y-86474300D01*
X126327631Y-86575568D01*
X126244051Y-86789229D01*
X126119617Y-87074945D01*
X126074826Y-87172800D01*
X125934141Y-87481974D01*
X125747500Y-87899722D01*
X125535744Y-88379018D01*
X125319718Y-88872834D01*
X125240838Y-89054522D01*
X125039900Y-89520708D01*
X124899837Y-89857261D01*
X124813759Y-90089729D01*
X124774775Y-90243661D01*
X124775995Y-90344607D01*
X124810530Y-90418115D01*
X124857833Y-90474690D01*
X124987476Y-90585526D01*
X125074330Y-90561351D01*
X125090979Y-90540301D01*
X125145642Y-90480813D01*
X125134884Y-90552286D01*
X125172302Y-90676545D01*
X125303638Y-90859352D01*
X125403605Y-90965904D01*
X125543945Y-91111489D01*
X125572801Y-91161256D01*
X125509112Y-91127389D01*
X125371814Y-91022072D01*
X125179843Y-90857488D01*
X125048559Y-90737476D01*
X124830642Y-90562089D01*
X124685906Y-90506716D01*
X124652405Y-90521241D01*
X124602275Y-90612053D01*
X124499403Y-90824150D01*
X124358643Y-91124710D01*
X124194853Y-91480913D01*
X124022887Y-91859939D01*
X123857603Y-92228969D01*
X123713855Y-92555182D01*
X123606501Y-92805757D01*
X123550395Y-92947876D01*
X123545600Y-92966417D01*
X123589815Y-92997016D01*
X123727884Y-92963107D01*
X123967941Y-92860595D01*
X124318121Y-92685383D01*
X124786559Y-92433377D01*
X125319107Y-92135337D01*
X124786496Y-92135337D01*
X124773266Y-92168134D01*
X124697184Y-92248904D01*
X124683603Y-92252800D01*
X124647237Y-92187294D01*
X124646266Y-92168134D01*
X124711354Y-92086720D01*
X124735930Y-92083467D01*
X124786496Y-92135337D01*
X125319107Y-92135337D01*
X125381391Y-92100480D01*
X126110750Y-91682598D01*
X126212600Y-91623711D01*
X126785987Y-91289819D01*
X127234620Y-91025134D01*
X126762933Y-91025134D01*
X126720600Y-91067467D01*
X126678266Y-91025134D01*
X126720600Y-90982800D01*
X126762933Y-91025134D01*
X127234620Y-91025134D01*
X127309269Y-90981093D01*
X127659826Y-90771134D01*
X126170266Y-90771134D01*
X126127933Y-90813467D01*
X126085600Y-90771134D01*
X126127933Y-90728800D01*
X126170266Y-90771134D01*
X127659826Y-90771134D01*
X127765146Y-90708055D01*
X127895096Y-90628641D01*
X127303692Y-90628641D01*
X127278616Y-90691666D01*
X127224875Y-90700578D01*
X127114292Y-90687586D01*
X127101600Y-90677352D01*
X127164662Y-90611269D01*
X127273096Y-90605217D01*
X127303692Y-90628641D01*
X127895096Y-90628641D01*
X128136320Y-90481227D01*
X128405492Y-90311130D01*
X128475435Y-90263134D01*
X126847600Y-90263134D01*
X126805266Y-90305467D01*
X126762933Y-90263134D01*
X126805266Y-90220800D01*
X126847600Y-90263134D01*
X128475435Y-90263134D01*
X128555362Y-90208288D01*
X128580823Y-90183244D01*
X128539452Y-90086230D01*
X128426644Y-89870102D01*
X128256205Y-89558759D01*
X128041941Y-89176102D01*
X127797660Y-88746030D01*
X127537168Y-88292445D01*
X127458285Y-88156460D01*
X126085600Y-88156460D01*
X126068888Y-88402785D01*
X126017920Y-88487310D01*
X125991602Y-88479366D01*
X125937089Y-88358141D01*
X125943795Y-88136656D01*
X125944253Y-88133806D01*
X125956725Y-87951076D01*
X125922073Y-87890713D01*
X125912221Y-87894967D01*
X125869202Y-87876542D01*
X125883775Y-87812684D01*
X125955480Y-87711604D01*
X126022025Y-87756510D01*
X126069826Y-87924267D01*
X126085600Y-88156460D01*
X127458285Y-88156460D01*
X127274271Y-87839246D01*
X127022776Y-87410334D01*
X126796489Y-87029609D01*
X126609217Y-86720970D01*
X126474766Y-86508319D01*
X126406943Y-86415554D01*
X126403100Y-86413428D01*
X126353164Y-86468608D01*
G37*
X126353164Y-86468608D02*
X126354222Y-86474300D01*
X126327631Y-86575568D01*
X126244051Y-86789229D01*
X126119617Y-87074945D01*
X126074826Y-87172800D01*
X125934141Y-87481974D01*
X125747500Y-87899722D01*
X125535744Y-88379018D01*
X125319718Y-88872834D01*
X125240838Y-89054522D01*
X125039900Y-89520708D01*
X124899837Y-89857261D01*
X124813759Y-90089729D01*
X124774775Y-90243661D01*
X124775995Y-90344607D01*
X124810530Y-90418115D01*
X124857833Y-90474690D01*
X124987476Y-90585526D01*
X125074330Y-90561351D01*
X125090979Y-90540301D01*
X125145642Y-90480813D01*
X125134884Y-90552286D01*
X125172302Y-90676545D01*
X125303638Y-90859352D01*
X125403605Y-90965904D01*
X125543945Y-91111489D01*
X125572801Y-91161256D01*
X125509112Y-91127389D01*
X125371814Y-91022072D01*
X125179843Y-90857488D01*
X125048559Y-90737476D01*
X124830642Y-90562089D01*
X124685906Y-90506716D01*
X124652405Y-90521241D01*
X124602275Y-90612053D01*
X124499403Y-90824150D01*
X124358643Y-91124710D01*
X124194853Y-91480913D01*
X124022887Y-91859939D01*
X123857603Y-92228969D01*
X123713855Y-92555182D01*
X123606501Y-92805757D01*
X123550395Y-92947876D01*
X123545600Y-92966417D01*
X123589815Y-92997016D01*
X123727884Y-92963107D01*
X123967941Y-92860595D01*
X124318121Y-92685383D01*
X124786559Y-92433377D01*
X125319107Y-92135337D01*
X124786496Y-92135337D01*
X124773266Y-92168134D01*
X124697184Y-92248904D01*
X124683603Y-92252800D01*
X124647237Y-92187294D01*
X124646266Y-92168134D01*
X124711354Y-92086720D01*
X124735930Y-92083467D01*
X124786496Y-92135337D01*
X125319107Y-92135337D01*
X125381391Y-92100480D01*
X126110750Y-91682598D01*
X126212600Y-91623711D01*
X126785987Y-91289819D01*
X127234620Y-91025134D01*
X126762933Y-91025134D01*
X126720600Y-91067467D01*
X126678266Y-91025134D01*
X126720600Y-90982800D01*
X126762933Y-91025134D01*
X127234620Y-91025134D01*
X127309269Y-90981093D01*
X127659826Y-90771134D01*
X126170266Y-90771134D01*
X126127933Y-90813467D01*
X126085600Y-90771134D01*
X126127933Y-90728800D01*
X126170266Y-90771134D01*
X127659826Y-90771134D01*
X127765146Y-90708055D01*
X127895096Y-90628641D01*
X127303692Y-90628641D01*
X127278616Y-90691666D01*
X127224875Y-90700578D01*
X127114292Y-90687586D01*
X127101600Y-90677352D01*
X127164662Y-90611269D01*
X127273096Y-90605217D01*
X127303692Y-90628641D01*
X127895096Y-90628641D01*
X128136320Y-90481227D01*
X128405492Y-90311130D01*
X128475435Y-90263134D01*
X126847600Y-90263134D01*
X126805266Y-90305467D01*
X126762933Y-90263134D01*
X126805266Y-90220800D01*
X126847600Y-90263134D01*
X128475435Y-90263134D01*
X128555362Y-90208288D01*
X128580823Y-90183244D01*
X128539452Y-90086230D01*
X128426644Y-89870102D01*
X128256205Y-89558759D01*
X128041941Y-89176102D01*
X127797660Y-88746030D01*
X127537168Y-88292445D01*
X127458285Y-88156460D01*
X126085600Y-88156460D01*
X126068888Y-88402785D01*
X126017920Y-88487310D01*
X125991602Y-88479366D01*
X125937089Y-88358141D01*
X125943795Y-88136656D01*
X125944253Y-88133806D01*
X125956725Y-87951076D01*
X125922073Y-87890713D01*
X125912221Y-87894967D01*
X125869202Y-87876542D01*
X125883775Y-87812684D01*
X125955480Y-87711604D01*
X126022025Y-87756510D01*
X126069826Y-87924267D01*
X126085600Y-88156460D01*
X127458285Y-88156460D01*
X127274271Y-87839246D01*
X127022776Y-87410334D01*
X126796489Y-87029609D01*
X126609217Y-86720970D01*
X126474766Y-86508319D01*
X126406943Y-86415554D01*
X126403100Y-86413428D01*
X126353164Y-86468608D01*
G36*
X113936246Y-86481535D02*
G01*
X113813114Y-86671593D01*
X113639450Y-86954508D01*
X113431230Y-87302767D01*
X113204431Y-87688857D01*
X112975031Y-88085263D01*
X112759008Y-88464474D01*
X112572338Y-88798975D01*
X112430999Y-89061253D01*
X112350969Y-89223795D01*
X112338875Y-89260055D01*
X112285314Y-89373113D01*
X112205012Y-89474256D01*
X112088120Y-89627988D01*
X111960732Y-89833634D01*
X111850812Y-90039799D01*
X111786322Y-90195085D01*
X111784495Y-90247173D01*
X111867998Y-90296694D01*
X112067359Y-90411270D01*
X112350931Y-90572791D01*
X112623600Y-90727287D01*
X112939491Y-90907072D01*
X113366834Y-91152002D01*
X113870755Y-91441995D01*
X114416382Y-91756973D01*
X114968842Y-92076856D01*
X115151904Y-92183087D01*
X115709096Y-92506348D01*
X116136997Y-92753507D01*
X116452611Y-92933735D01*
X116672942Y-93056202D01*
X116814994Y-93130080D01*
X116895771Y-93164541D01*
X116932276Y-93168754D01*
X116941514Y-93151892D01*
X116941600Y-93148364D01*
X116909187Y-93057763D01*
X116820954Y-92843576D01*
X116690406Y-92536712D01*
X116531047Y-92168076D01*
X116356384Y-91768575D01*
X116179923Y-91369115D01*
X116015169Y-91000604D01*
X115875627Y-90693948D01*
X115789189Y-90510078D01*
X115241582Y-90510078D01*
X115226016Y-90619892D01*
X115197114Y-90621203D01*
X115176902Y-90507886D01*
X115190430Y-90458925D01*
X115228024Y-90426855D01*
X115241582Y-90510078D01*
X115789189Y-90510078D01*
X115782555Y-90495967D01*
X115748255Y-90432467D01*
X115671600Y-90432467D01*
X115629266Y-90474800D01*
X115586933Y-90432467D01*
X115629266Y-90390134D01*
X115671600Y-90432467D01*
X115748255Y-90432467D01*
X115653446Y-90256951D01*
X115540955Y-90095593D01*
X115483272Y-90051467D01*
X115435160Y-89989477D01*
X115448218Y-89924467D01*
X115467838Y-89759200D01*
X115420286Y-89627095D01*
X115331608Y-89589851D01*
X115310980Y-89599368D01*
X115263001Y-89600761D01*
X115285788Y-89551253D01*
X115277930Y-89437153D01*
X115208868Y-89198334D01*
X115123071Y-88960180D01*
X113893600Y-88960180D01*
X113865844Y-89034294D01*
X113788016Y-88957034D01*
X113679920Y-88760300D01*
X113546557Y-88485134D01*
X113720079Y-88685013D01*
X113842360Y-88847868D01*
X113893598Y-88959825D01*
X113893600Y-88960180D01*
X115123071Y-88960180D01*
X115104440Y-88908467D01*
X114909600Y-88908467D01*
X114867266Y-88950800D01*
X114824933Y-88908467D01*
X114867266Y-88866134D01*
X114909600Y-88908467D01*
X115104440Y-88908467D01*
X115088356Y-88863824D01*
X114926151Y-88462652D01*
X114896703Y-88393570D01*
X114697237Y-87942563D01*
X114545462Y-87633709D01*
X114431549Y-87449893D01*
X114345673Y-87374003D01*
X114309720Y-87371290D01*
X114213860Y-87354683D01*
X114211553Y-87215164D01*
X114212545Y-87209898D01*
X114212304Y-87031021D01*
X114171347Y-86802897D01*
X114106269Y-86585803D01*
X114033660Y-86440015D01*
X113992867Y-86411847D01*
X113936246Y-86481535D01*
G37*
X113936246Y-86481535D02*
X113813114Y-86671593D01*
X113639450Y-86954508D01*
X113431230Y-87302767D01*
X113204431Y-87688857D01*
X112975031Y-88085263D01*
X112759008Y-88464474D01*
X112572338Y-88798975D01*
X112430999Y-89061253D01*
X112350969Y-89223795D01*
X112338875Y-89260055D01*
X112285314Y-89373113D01*
X112205012Y-89474256D01*
X112088120Y-89627988D01*
X111960732Y-89833634D01*
X111850812Y-90039799D01*
X111786322Y-90195085D01*
X111784495Y-90247173D01*
X111867998Y-90296694D01*
X112067359Y-90411270D01*
X112350931Y-90572791D01*
X112623600Y-90727287D01*
X112939491Y-90907072D01*
X113366834Y-91152002D01*
X113870755Y-91441995D01*
X114416382Y-91756973D01*
X114968842Y-92076856D01*
X115151904Y-92183087D01*
X115709096Y-92506348D01*
X116136997Y-92753507D01*
X116452611Y-92933735D01*
X116672942Y-93056202D01*
X116814994Y-93130080D01*
X116895771Y-93164541D01*
X116932276Y-93168754D01*
X116941514Y-93151892D01*
X116941600Y-93148364D01*
X116909187Y-93057763D01*
X116820954Y-92843576D01*
X116690406Y-92536712D01*
X116531047Y-92168076D01*
X116356384Y-91768575D01*
X116179923Y-91369115D01*
X116015169Y-91000604D01*
X115875627Y-90693948D01*
X115789189Y-90510078D01*
X115241582Y-90510078D01*
X115226016Y-90619892D01*
X115197114Y-90621203D01*
X115176902Y-90507886D01*
X115190430Y-90458925D01*
X115228024Y-90426855D01*
X115241582Y-90510078D01*
X115789189Y-90510078D01*
X115782555Y-90495967D01*
X115748255Y-90432467D01*
X115671600Y-90432467D01*
X115629266Y-90474800D01*
X115586933Y-90432467D01*
X115629266Y-90390134D01*
X115671600Y-90432467D01*
X115748255Y-90432467D01*
X115653446Y-90256951D01*
X115540955Y-90095593D01*
X115483272Y-90051467D01*
X115435160Y-89989477D01*
X115448218Y-89924467D01*
X115467838Y-89759200D01*
X115420286Y-89627095D01*
X115331608Y-89589851D01*
X115310980Y-89599368D01*
X115263001Y-89600761D01*
X115285788Y-89551253D01*
X115277930Y-89437153D01*
X115208868Y-89198334D01*
X115123071Y-88960180D01*
X113893600Y-88960180D01*
X113865844Y-89034294D01*
X113788016Y-88957034D01*
X113679920Y-88760300D01*
X113546557Y-88485134D01*
X113720079Y-88685013D01*
X113842360Y-88847868D01*
X113893598Y-88959825D01*
X113893600Y-88960180D01*
X115123071Y-88960180D01*
X115104440Y-88908467D01*
X114909600Y-88908467D01*
X114867266Y-88950800D01*
X114824933Y-88908467D01*
X114867266Y-88866134D01*
X114909600Y-88908467D01*
X115104440Y-88908467D01*
X115088356Y-88863824D01*
X114926151Y-88462652D01*
X114896703Y-88393570D01*
X114697237Y-87942563D01*
X114545462Y-87633709D01*
X114431549Y-87449893D01*
X114345673Y-87374003D01*
X114309720Y-87371290D01*
X114213860Y-87354683D01*
X114211553Y-87215164D01*
X114212545Y-87209898D01*
X114212304Y-87031021D01*
X114171347Y-86802897D01*
X114106269Y-86585803D01*
X114033660Y-86440015D01*
X113992867Y-86411847D01*
X113936246Y-86481535D01*
G36*
X123489155Y-93127689D02*
G01*
X123500778Y-93178023D01*
X123545600Y-93184134D01*
X123615290Y-93153155D01*
X123602044Y-93127689D01*
X123501565Y-93117556D01*
X123489155Y-93127689D01*
G37*
X123489155Y-93127689D02*
X123500778Y-93178023D01*
X123545600Y-93184134D01*
X123615290Y-93153155D01*
X123602044Y-93127689D01*
X123501565Y-93117556D01*
X123489155Y-93127689D01*
G36*
X110719733Y-90382821D02*
G01*
X110676266Y-90531189D01*
X110729186Y-90622508D01*
X110807664Y-90611828D01*
X110896351Y-90603737D01*
X110892491Y-90636758D01*
X110946487Y-90709433D01*
X111150136Y-90858218D01*
X111502214Y-91082347D01*
X112001495Y-91381057D01*
X112646754Y-91753585D01*
X113046933Y-91980368D01*
X113203290Y-92069707D01*
X113481424Y-92229861D01*
X113856690Y-92446586D01*
X114304443Y-92705642D01*
X114800038Y-92992786D01*
X115112075Y-93173773D01*
X115799969Y-93565647D01*
X116351978Y-93863790D01*
X116772030Y-94069995D01*
X117064056Y-94186058D01*
X117231984Y-94213773D01*
X117280266Y-94164159D01*
X117212495Y-94107507D01*
X117036453Y-93996747D01*
X116835766Y-93881448D01*
X116278958Y-93570104D01*
X115675987Y-93228970D01*
X115044525Y-92868401D01*
X114402240Y-92498753D01*
X113766805Y-92130382D01*
X113155887Y-91773643D01*
X112587158Y-91438892D01*
X112078286Y-91136485D01*
X111646943Y-90876777D01*
X111310798Y-90670125D01*
X111087521Y-90526883D01*
X110996132Y-90459068D01*
X110839911Y-90349857D01*
X110719733Y-90382821D01*
G37*
X110719733Y-90382821D02*
X110676266Y-90531189D01*
X110729186Y-90622508D01*
X110807664Y-90611828D01*
X110896351Y-90603737D01*
X110892491Y-90636758D01*
X110946487Y-90709433D01*
X111150136Y-90858218D01*
X111502214Y-91082347D01*
X112001495Y-91381057D01*
X112646754Y-91753585D01*
X113046933Y-91980368D01*
X113203290Y-92069707D01*
X113481424Y-92229861D01*
X113856690Y-92446586D01*
X114304443Y-92705642D01*
X114800038Y-92992786D01*
X115112075Y-93173773D01*
X115799969Y-93565647D01*
X116351978Y-93863790D01*
X116772030Y-94069995D01*
X117064056Y-94186058D01*
X117231984Y-94213773D01*
X117280266Y-94164159D01*
X117212495Y-94107507D01*
X117036453Y-93996747D01*
X116835766Y-93881448D01*
X116278958Y-93570104D01*
X115675987Y-93228970D01*
X115044525Y-92868401D01*
X114402240Y-92498753D01*
X113766805Y-92130382D01*
X113155887Y-91773643D01*
X112587158Y-91438892D01*
X112078286Y-91136485D01*
X111646943Y-90876777D01*
X111310798Y-90670125D01*
X111087521Y-90526883D01*
X110996132Y-90459068D01*
X110839911Y-90349857D01*
X110719733Y-90382821D01*
G36*
X120149340Y-89676396D02*
G01*
X120097990Y-89784031D01*
X120067830Y-89989718D01*
X120065827Y-90035297D01*
X120055483Y-90217655D01*
X120034096Y-90243109D01*
X120001546Y-90148996D01*
X119970017Y-90084461D01*
X119916454Y-90083719D01*
X119825616Y-90162719D01*
X119682261Y-90337411D01*
X119471148Y-90623745D01*
X119246975Y-90938613D01*
X119001155Y-91297695D01*
X118801264Y-91611640D01*
X118663392Y-91853400D01*
X118603627Y-91995930D01*
X118604671Y-92018332D01*
X118607540Y-92070007D01*
X118571532Y-92054276D01*
X118499284Y-92100670D01*
X118355076Y-92251595D01*
X118165242Y-92473700D01*
X117956116Y-92733632D01*
X117754032Y-92998038D01*
X117585325Y-93233568D01*
X117476330Y-93406869D01*
X117449600Y-93475182D01*
X117517576Y-93529551D01*
X117698474Y-93645336D01*
X117957745Y-93800726D01*
X118051618Y-93855251D01*
X118653636Y-94202341D01*
X120231785Y-94190277D01*
X121809933Y-94178214D01*
X122009815Y-94059022D01*
X121570044Y-94059022D01*
X121558422Y-94109357D01*
X121513600Y-94115467D01*
X121443910Y-94084489D01*
X121457155Y-94059022D01*
X121557635Y-94048889D01*
X121570044Y-94059022D01*
X122009815Y-94059022D01*
X122343934Y-93859783D01*
X122610576Y-93698286D01*
X122816992Y-93568616D01*
X122922567Y-93496355D01*
X122926307Y-93492982D01*
X122921891Y-93480467D01*
X121767600Y-93480467D01*
X121725266Y-93522800D01*
X121682933Y-93480467D01*
X121725266Y-93438134D01*
X121767600Y-93480467D01*
X122921891Y-93480467D01*
X122897066Y-93410117D01*
X122780781Y-93215715D01*
X122593684Y-92931990D01*
X122446597Y-92718467D01*
X119820266Y-92718467D01*
X119777933Y-92760800D01*
X119735600Y-92718467D01*
X118888933Y-92718467D01*
X118846600Y-92760800D01*
X118804266Y-92718467D01*
X118846600Y-92676134D01*
X118888933Y-92718467D01*
X119735600Y-92718467D01*
X119777933Y-92676134D01*
X119820266Y-92718467D01*
X122446597Y-92718467D01*
X122352009Y-92581158D01*
X122329349Y-92549134D01*
X119312266Y-92549134D01*
X119269933Y-92591467D01*
X119227600Y-92549134D01*
X119269933Y-92506800D01*
X119312266Y-92549134D01*
X122329349Y-92549134D01*
X122269437Y-92464467D01*
X121598266Y-92464467D01*
X121555933Y-92506800D01*
X121513600Y-92464467D01*
X121555933Y-92422134D01*
X121598266Y-92464467D01*
X122269437Y-92464467D01*
X122115757Y-92247288D01*
X119376175Y-92247288D01*
X119364593Y-92252800D01*
X119287328Y-92193197D01*
X119275915Y-92176752D01*
X118858883Y-92176752D01*
X118829928Y-92304182D01*
X118777969Y-92415960D01*
X118748803Y-92370665D01*
X118735784Y-92309673D01*
X118732825Y-92155096D01*
X118754449Y-92105062D01*
X118832315Y-92082639D01*
X118858883Y-92176752D01*
X119275915Y-92176752D01*
X119269933Y-92168134D01*
X119248358Y-92088979D01*
X119259940Y-92083467D01*
X119337205Y-92143070D01*
X119354600Y-92168134D01*
X119376175Y-92247288D01*
X122115757Y-92247288D01*
X122071987Y-92185434D01*
X121967785Y-92041134D01*
X119650933Y-92041134D01*
X119608600Y-92083467D01*
X119566266Y-92041134D01*
X119608600Y-91998800D01*
X119650933Y-92041134D01*
X121967785Y-92041134D01*
X121769850Y-91767033D01*
X121753501Y-91744800D01*
X120412933Y-91744800D01*
X120381955Y-91814490D01*
X120356489Y-91801245D01*
X120346356Y-91700765D01*
X120356489Y-91688356D01*
X120406823Y-91699978D01*
X120412933Y-91744800D01*
X121753501Y-91744800D01*
X121535586Y-91448467D01*
X120836266Y-91448467D01*
X120793933Y-91490800D01*
X120751600Y-91448467D01*
X120765865Y-91434202D01*
X119707749Y-91434202D01*
X119689940Y-91488691D01*
X119669052Y-91490800D01*
X119562428Y-91433439D01*
X119431222Y-91309147D01*
X119324072Y-91183806D01*
X119335391Y-91165011D01*
X119455718Y-91224936D01*
X119619663Y-91333806D01*
X119707749Y-91434202D01*
X120765865Y-91434202D01*
X120793933Y-91406134D01*
X120836266Y-91448467D01*
X121535586Y-91448467D01*
X121461831Y-91348171D01*
X121164162Y-90951062D01*
X121156029Y-90940467D01*
X120226721Y-90940467D01*
X120217597Y-91032445D01*
X120182934Y-90969731D01*
X120158933Y-90898134D01*
X120105565Y-90666261D01*
X120091146Y-90517134D01*
X120100269Y-90425156D01*
X120134932Y-90487870D01*
X120158933Y-90559467D01*
X120212302Y-90791339D01*
X120226721Y-90940467D01*
X121156029Y-90940467D01*
X120893075Y-90597922D01*
X120761457Y-90432467D01*
X120582266Y-90432467D01*
X120539933Y-90474800D01*
X120497600Y-90432467D01*
X120539933Y-90390134D01*
X120582266Y-90432467D01*
X120761457Y-90432467D01*
X120664803Y-90310965D01*
X120495577Y-90112407D01*
X120401631Y-90024464D01*
X120390736Y-90022852D01*
X120342927Y-90023890D01*
X120364807Y-89976173D01*
X120372170Y-89848518D01*
X120297253Y-89721789D01*
X120189541Y-89664835D01*
X120149340Y-89676396D01*
G37*
X120149340Y-89676396D02*
X120097990Y-89784031D01*
X120067830Y-89989718D01*
X120065827Y-90035297D01*
X120055483Y-90217655D01*
X120034096Y-90243109D01*
X120001546Y-90148996D01*
X119970017Y-90084461D01*
X119916454Y-90083719D01*
X119825616Y-90162719D01*
X119682261Y-90337411D01*
X119471148Y-90623745D01*
X119246975Y-90938613D01*
X119001155Y-91297695D01*
X118801264Y-91611640D01*
X118663392Y-91853400D01*
X118603627Y-91995930D01*
X118604671Y-92018332D01*
X118607540Y-92070007D01*
X118571532Y-92054276D01*
X118499284Y-92100670D01*
X118355076Y-92251595D01*
X118165242Y-92473700D01*
X117956116Y-92733632D01*
X117754032Y-92998038D01*
X117585325Y-93233568D01*
X117476330Y-93406869D01*
X117449600Y-93475182D01*
X117517576Y-93529551D01*
X117698474Y-93645336D01*
X117957745Y-93800726D01*
X118051618Y-93855251D01*
X118653636Y-94202341D01*
X120231785Y-94190277D01*
X121809933Y-94178214D01*
X122009815Y-94059022D01*
X121570044Y-94059022D01*
X121558422Y-94109357D01*
X121513600Y-94115467D01*
X121443910Y-94084489D01*
X121457155Y-94059022D01*
X121557635Y-94048889D01*
X121570044Y-94059022D01*
X122009815Y-94059022D01*
X122343934Y-93859783D01*
X122610576Y-93698286D01*
X122816992Y-93568616D01*
X122922567Y-93496355D01*
X122926307Y-93492982D01*
X122921891Y-93480467D01*
X121767600Y-93480467D01*
X121725266Y-93522800D01*
X121682933Y-93480467D01*
X121725266Y-93438134D01*
X121767600Y-93480467D01*
X122921891Y-93480467D01*
X122897066Y-93410117D01*
X122780781Y-93215715D01*
X122593684Y-92931990D01*
X122446597Y-92718467D01*
X119820266Y-92718467D01*
X119777933Y-92760800D01*
X119735600Y-92718467D01*
X118888933Y-92718467D01*
X118846600Y-92760800D01*
X118804266Y-92718467D01*
X118846600Y-92676134D01*
X118888933Y-92718467D01*
X119735600Y-92718467D01*
X119777933Y-92676134D01*
X119820266Y-92718467D01*
X122446597Y-92718467D01*
X122352009Y-92581158D01*
X122329349Y-92549134D01*
X119312266Y-92549134D01*
X119269933Y-92591467D01*
X119227600Y-92549134D01*
X119269933Y-92506800D01*
X119312266Y-92549134D01*
X122329349Y-92549134D01*
X122269437Y-92464467D01*
X121598266Y-92464467D01*
X121555933Y-92506800D01*
X121513600Y-92464467D01*
X121555933Y-92422134D01*
X121598266Y-92464467D01*
X122269437Y-92464467D01*
X122115757Y-92247288D01*
X119376175Y-92247288D01*
X119364593Y-92252800D01*
X119287328Y-92193197D01*
X119275915Y-92176752D01*
X118858883Y-92176752D01*
X118829928Y-92304182D01*
X118777969Y-92415960D01*
X118748803Y-92370665D01*
X118735784Y-92309673D01*
X118732825Y-92155096D01*
X118754449Y-92105062D01*
X118832315Y-92082639D01*
X118858883Y-92176752D01*
X119275915Y-92176752D01*
X119269933Y-92168134D01*
X119248358Y-92088979D01*
X119259940Y-92083467D01*
X119337205Y-92143070D01*
X119354600Y-92168134D01*
X119376175Y-92247288D01*
X122115757Y-92247288D01*
X122071987Y-92185434D01*
X121967785Y-92041134D01*
X119650933Y-92041134D01*
X119608600Y-92083467D01*
X119566266Y-92041134D01*
X119608600Y-91998800D01*
X119650933Y-92041134D01*
X121967785Y-92041134D01*
X121769850Y-91767033D01*
X121753501Y-91744800D01*
X120412933Y-91744800D01*
X120381955Y-91814490D01*
X120356489Y-91801245D01*
X120346356Y-91700765D01*
X120356489Y-91688356D01*
X120406823Y-91699978D01*
X120412933Y-91744800D01*
X121753501Y-91744800D01*
X121535586Y-91448467D01*
X120836266Y-91448467D01*
X120793933Y-91490800D01*
X120751600Y-91448467D01*
X120765865Y-91434202D01*
X119707749Y-91434202D01*
X119689940Y-91488691D01*
X119669052Y-91490800D01*
X119562428Y-91433439D01*
X119431222Y-91309147D01*
X119324072Y-91183806D01*
X119335391Y-91165011D01*
X119455718Y-91224936D01*
X119619663Y-91333806D01*
X119707749Y-91434202D01*
X120765865Y-91434202D01*
X120793933Y-91406134D01*
X120836266Y-91448467D01*
X121535586Y-91448467D01*
X121461831Y-91348171D01*
X121164162Y-90951062D01*
X121156029Y-90940467D01*
X120226721Y-90940467D01*
X120217597Y-91032445D01*
X120182934Y-90969731D01*
X120158933Y-90898134D01*
X120105565Y-90666261D01*
X120091146Y-90517134D01*
X120100269Y-90425156D01*
X120134932Y-90487870D01*
X120158933Y-90559467D01*
X120212302Y-90791339D01*
X120226721Y-90940467D01*
X121156029Y-90940467D01*
X120893075Y-90597922D01*
X120761457Y-90432467D01*
X120582266Y-90432467D01*
X120539933Y-90474800D01*
X120497600Y-90432467D01*
X120539933Y-90390134D01*
X120582266Y-90432467D01*
X120761457Y-90432467D01*
X120664803Y-90310965D01*
X120495577Y-90112407D01*
X120401631Y-90024464D01*
X120390736Y-90022852D01*
X120342927Y-90023890D01*
X120364807Y-89976173D01*
X120372170Y-89848518D01*
X120297253Y-89721789D01*
X120189541Y-89664835D01*
X120149340Y-89676396D01*
G36*
X123719627Y-76332566D02*
G01*
X123680010Y-76399024D01*
X123774568Y-76486314D01*
X123910620Y-76560930D01*
X124062624Y-76642953D01*
X124339226Y-76797708D01*
X124718648Y-77012790D01*
X125179114Y-77275794D01*
X125698845Y-77574317D01*
X126256064Y-77895953D01*
X126359025Y-77955553D01*
X126932451Y-78287628D01*
X127482613Y-78606208D01*
X127985426Y-78897347D01*
X128416804Y-79147102D01*
X128752664Y-79341526D01*
X128968920Y-79466675D01*
X128985433Y-79476227D01*
X129472267Y-79757815D01*
X129474952Y-83147807D01*
X129475969Y-84458819D01*
X129476648Y-85610630D01*
X129476750Y-86613375D01*
X129476035Y-87477186D01*
X129474263Y-88212197D01*
X129471193Y-88828541D01*
X129466585Y-89336352D01*
X129460200Y-89745762D01*
X129451797Y-90066905D01*
X129441136Y-90309914D01*
X129427977Y-90484923D01*
X129412079Y-90602065D01*
X129393202Y-90671472D01*
X129371107Y-90703279D01*
X129345553Y-90707618D01*
X129316301Y-90694624D01*
X129296388Y-90682422D01*
X129175988Y-90684645D01*
X128982906Y-90759712D01*
X128760028Y-90880867D01*
X128550240Y-91021357D01*
X128396427Y-91154426D01*
X128341477Y-91253322D01*
X128350724Y-91272368D01*
X128337277Y-91296072D01*
X128262108Y-91274136D01*
X128078813Y-91275759D01*
X127988661Y-91323076D01*
X127839476Y-91426082D01*
X127610428Y-91563658D01*
X127502906Y-91623690D01*
X127297314Y-91752455D01*
X127176432Y-91861157D01*
X127161780Y-91898981D01*
X127114243Y-91970156D01*
X127077113Y-91974301D01*
X126925059Y-92002687D01*
X126724203Y-92077983D01*
X126538381Y-92171140D01*
X126431430Y-92253112D01*
X126424266Y-92271362D01*
X126360627Y-92336656D01*
X126348848Y-92337467D01*
X126257951Y-92377372D01*
X126047210Y-92487060D01*
X125743338Y-92651486D01*
X125373046Y-92855607D01*
X124963046Y-93084379D01*
X124540049Y-93322758D01*
X124130769Y-93555702D01*
X123761916Y-93768165D01*
X123460202Y-93945106D01*
X123252339Y-94071479D01*
X123168833Y-94128399D01*
X123123886Y-94200762D01*
X123202161Y-94214441D01*
X123371511Y-94178090D01*
X123599791Y-94100365D01*
X123854855Y-93989921D01*
X124038224Y-93894328D01*
X124307716Y-93729491D01*
X124514370Y-93580524D01*
X124616313Y-93477841D01*
X124618596Y-93472787D01*
X124699211Y-93393742D01*
X124741167Y-93402125D01*
X124836974Y-93380468D01*
X125039747Y-93289003D01*
X125316994Y-93146378D01*
X125636220Y-92971243D01*
X125964933Y-92782247D01*
X126270640Y-92598037D01*
X126520846Y-92437264D01*
X126683058Y-92318575D01*
X126726655Y-92262598D01*
X126762746Y-92213115D01*
X126832649Y-92203863D01*
X126953810Y-92163517D01*
X127181489Y-92053819D01*
X127487929Y-91891090D01*
X127845376Y-91691651D01*
X127899957Y-91660134D01*
X127694266Y-91660134D01*
X127663288Y-91729824D01*
X127637822Y-91716578D01*
X127627689Y-91616098D01*
X127637822Y-91603689D01*
X127688156Y-91615311D01*
X127694266Y-91660134D01*
X127899957Y-91660134D01*
X128226075Y-91471822D01*
X128602271Y-91247923D01*
X128946209Y-91036274D01*
X129230134Y-90853197D01*
X129426291Y-90715012D01*
X129506925Y-90638040D01*
X129506753Y-90631437D01*
X129529642Y-90595163D01*
X129591362Y-90610483D01*
X129617029Y-90605988D01*
X129638937Y-90563563D01*
X129657321Y-90471592D01*
X129672414Y-90318460D01*
X129684451Y-90092555D01*
X129693663Y-89782260D01*
X129700286Y-89375963D01*
X129704553Y-88862048D01*
X129706697Y-88228901D01*
X129706953Y-87464909D01*
X129705553Y-86558456D01*
X129702732Y-85497928D01*
X129701593Y-85131932D01*
X129683933Y-79604305D01*
X129133600Y-79283504D01*
X128854020Y-79133592D01*
X128622291Y-79032999D01*
X128482970Y-79000664D01*
X128473036Y-79002782D01*
X128400861Y-78998244D01*
X128409843Y-78966751D01*
X128362775Y-78896061D01*
X128201360Y-78771055D01*
X127962473Y-78613610D01*
X127682990Y-78445601D01*
X127399790Y-78288903D01*
X127149747Y-78165392D01*
X126969738Y-78096943D01*
X126932170Y-78090180D01*
X126808505Y-78049475D01*
X126789959Y-78008270D01*
X126731021Y-77925263D01*
X126560258Y-77805236D01*
X126323763Y-77672283D01*
X126067632Y-77550498D01*
X125837959Y-77463975D01*
X125695382Y-77436134D01*
X125554496Y-77410618D01*
X125531265Y-77357941D01*
X125502524Y-77263063D01*
X125368311Y-77134574D01*
X125345762Y-77118495D01*
X125108667Y-76965968D01*
X124826791Y-76800563D01*
X124536208Y-76641223D01*
X124272993Y-76506891D01*
X124073220Y-76416510D01*
X123972964Y-76389023D01*
X123967637Y-76394823D01*
X123932758Y-76401170D01*
X123901902Y-76361103D01*
X123786158Y-76306617D01*
X123719627Y-76332566D01*
G37*
X123719627Y-76332566D02*
X123680010Y-76399024D01*
X123774568Y-76486314D01*
X123910620Y-76560930D01*
X124062624Y-76642953D01*
X124339226Y-76797708D01*
X124718648Y-77012790D01*
X125179114Y-77275794D01*
X125698845Y-77574317D01*
X126256064Y-77895953D01*
X126359025Y-77955553D01*
X126932451Y-78287628D01*
X127482613Y-78606208D01*
X127985426Y-78897347D01*
X128416804Y-79147102D01*
X128752664Y-79341526D01*
X128968920Y-79466675D01*
X128985433Y-79476227D01*
X129472267Y-79757815D01*
X129474952Y-83147807D01*
X129475969Y-84458819D01*
X129476648Y-85610630D01*
X129476750Y-86613375D01*
X129476035Y-87477186D01*
X129474263Y-88212197D01*
X129471193Y-88828541D01*
X129466585Y-89336352D01*
X129460200Y-89745762D01*
X129451797Y-90066905D01*
X129441136Y-90309914D01*
X129427977Y-90484923D01*
X129412079Y-90602065D01*
X129393202Y-90671472D01*
X129371107Y-90703279D01*
X129345553Y-90707618D01*
X129316301Y-90694624D01*
X129296388Y-90682422D01*
X129175988Y-90684645D01*
X128982906Y-90759712D01*
X128760028Y-90880867D01*
X128550240Y-91021357D01*
X128396427Y-91154426D01*
X128341477Y-91253322D01*
X128350724Y-91272368D01*
X128337277Y-91296072D01*
X128262108Y-91274136D01*
X128078813Y-91275759D01*
X127988661Y-91323076D01*
X127839476Y-91426082D01*
X127610428Y-91563658D01*
X127502906Y-91623690D01*
X127297314Y-91752455D01*
X127176432Y-91861157D01*
X127161780Y-91898981D01*
X127114243Y-91970156D01*
X127077113Y-91974301D01*
X126925059Y-92002687D01*
X126724203Y-92077983D01*
X126538381Y-92171140D01*
X126431430Y-92253112D01*
X126424266Y-92271362D01*
X126360627Y-92336656D01*
X126348848Y-92337467D01*
X126257951Y-92377372D01*
X126047210Y-92487060D01*
X125743338Y-92651486D01*
X125373046Y-92855607D01*
X124963046Y-93084379D01*
X124540049Y-93322758D01*
X124130769Y-93555702D01*
X123761916Y-93768165D01*
X123460202Y-93945106D01*
X123252339Y-94071479D01*
X123168833Y-94128399D01*
X123123886Y-94200762D01*
X123202161Y-94214441D01*
X123371511Y-94178090D01*
X123599791Y-94100365D01*
X123854855Y-93989921D01*
X124038224Y-93894328D01*
X124307716Y-93729491D01*
X124514370Y-93580524D01*
X124616313Y-93477841D01*
X124618596Y-93472787D01*
X124699211Y-93393742D01*
X124741167Y-93402125D01*
X124836974Y-93380468D01*
X125039747Y-93289003D01*
X125316994Y-93146378D01*
X125636220Y-92971243D01*
X125964933Y-92782247D01*
X126270640Y-92598037D01*
X126520846Y-92437264D01*
X126683058Y-92318575D01*
X126726655Y-92262598D01*
X126762746Y-92213115D01*
X126832649Y-92203863D01*
X126953810Y-92163517D01*
X127181489Y-92053819D01*
X127487929Y-91891090D01*
X127845376Y-91691651D01*
X127899957Y-91660134D01*
X127694266Y-91660134D01*
X127663288Y-91729824D01*
X127637822Y-91716578D01*
X127627689Y-91616098D01*
X127637822Y-91603689D01*
X127688156Y-91615311D01*
X127694266Y-91660134D01*
X127899957Y-91660134D01*
X128226075Y-91471822D01*
X128602271Y-91247923D01*
X128946209Y-91036274D01*
X129230134Y-90853197D01*
X129426291Y-90715012D01*
X129506925Y-90638040D01*
X129506753Y-90631437D01*
X129529642Y-90595163D01*
X129591362Y-90610483D01*
X129617029Y-90605988D01*
X129638937Y-90563563D01*
X129657321Y-90471592D01*
X129672414Y-90318460D01*
X129684451Y-90092555D01*
X129693663Y-89782260D01*
X129700286Y-89375963D01*
X129704553Y-88862048D01*
X129706697Y-88228901D01*
X129706953Y-87464909D01*
X129705553Y-86558456D01*
X129702732Y-85497928D01*
X129701593Y-85131932D01*
X129683933Y-79604305D01*
X129133600Y-79283504D01*
X128854020Y-79133592D01*
X128622291Y-79032999D01*
X128482970Y-79000664D01*
X128473036Y-79002782D01*
X128400861Y-78998244D01*
X128409843Y-78966751D01*
X128362775Y-78896061D01*
X128201360Y-78771055D01*
X127962473Y-78613610D01*
X127682990Y-78445601D01*
X127399790Y-78288903D01*
X127149747Y-78165392D01*
X126969738Y-78096943D01*
X126932170Y-78090180D01*
X126808505Y-78049475D01*
X126789959Y-78008270D01*
X126731021Y-77925263D01*
X126560258Y-77805236D01*
X126323763Y-77672283D01*
X126067632Y-77550498D01*
X125837959Y-77463975D01*
X125695382Y-77436134D01*
X125554496Y-77410618D01*
X125531265Y-77357941D01*
X125502524Y-77263063D01*
X125368311Y-77134574D01*
X125345762Y-77118495D01*
X125108667Y-76965968D01*
X124826791Y-76800563D01*
X124536208Y-76641223D01*
X124272993Y-76506891D01*
X124073220Y-76416510D01*
X123972964Y-76389023D01*
X123967637Y-76394823D01*
X123932758Y-76401170D01*
X123901902Y-76361103D01*
X123786158Y-76306617D01*
X123719627Y-76332566D01*
M02*
