G04 #@! TF.GenerationSoftware,KiCad,Pcbnew,5.1.5-52549c5~84~ubuntu18.04.1*
G04 #@! TF.CreationDate,2019-12-28T22:58:30-05:00*
G04 #@! TF.ProjectId,landfill_board_rev1,6c616e64-6669-46c6-9c5f-626f6172645f,rev?*
G04 #@! TF.SameCoordinates,Original*
G04 #@! TF.FileFunction,Paste,Top*
G04 #@! TF.FilePolarity,Positive*
%FSLAX46Y46*%
G04 Gerber Fmt 4.6, Leading zero omitted, Abs format (unit mm)*
G04 Created by KiCad (PCBNEW 5.1.5-52549c5~84~ubuntu18.04.1) date 2019-12-28 22:58:30*
%MOMM*%
%LPD*%
G04 APERTURE LIST*
%ADD10R,1.000000X0.400000*%
%ADD11R,6.200000X3.900000*%
%ADD12R,4.400000X3.300000*%
%ADD13R,2.800000X2.800000*%
%ADD14R,2.200000X2.800000*%
%ADD15C,0.100000*%
%ADD16R,1.600000X0.550000*%
%ADD17R,0.550000X1.600000*%
G04 APERTURE END LIST*
D10*
X154131600Y-84596400D03*
X154131600Y-83946400D03*
X154131600Y-83296400D03*
X154131600Y-82646400D03*
X154131600Y-81996400D03*
X154131600Y-81346400D03*
X154131600Y-80696400D03*
X154131600Y-80046400D03*
X148331600Y-80046400D03*
X148331600Y-80696400D03*
X148331600Y-81346400D03*
X148331600Y-81996400D03*
X148331600Y-82646400D03*
X148331600Y-83296400D03*
X148331600Y-83946400D03*
X148331600Y-84596400D03*
D11*
X113284400Y-94765800D03*
X113284400Y-81865800D03*
D12*
X122284400Y-89015800D03*
D13*
X175276600Y-90686400D03*
D14*
X184676600Y-90686400D03*
X182676600Y-98086400D03*
D15*
G36*
X158477379Y-82827544D02*
G01*
X158500434Y-82830963D01*
X158523043Y-82836627D01*
X158544987Y-82844479D01*
X158566057Y-82854444D01*
X158586048Y-82866426D01*
X158604768Y-82880310D01*
X158622038Y-82895962D01*
X158637690Y-82913232D01*
X158651574Y-82931952D01*
X158663556Y-82951943D01*
X158673521Y-82973013D01*
X158681373Y-82994957D01*
X158687037Y-83017566D01*
X158690456Y-83040621D01*
X158691600Y-83063900D01*
X158691600Y-83638900D01*
X158690456Y-83662179D01*
X158687037Y-83685234D01*
X158681373Y-83707843D01*
X158673521Y-83729787D01*
X158663556Y-83750857D01*
X158651574Y-83770848D01*
X158637690Y-83789568D01*
X158622038Y-83806838D01*
X158604768Y-83822490D01*
X158586048Y-83836374D01*
X158566057Y-83848356D01*
X158544987Y-83858321D01*
X158523043Y-83866173D01*
X158500434Y-83871837D01*
X158477379Y-83875256D01*
X158454100Y-83876400D01*
X157979100Y-83876400D01*
X157955821Y-83875256D01*
X157932766Y-83871837D01*
X157910157Y-83866173D01*
X157888213Y-83858321D01*
X157867143Y-83848356D01*
X157847152Y-83836374D01*
X157828432Y-83822490D01*
X157811162Y-83806838D01*
X157795510Y-83789568D01*
X157781626Y-83770848D01*
X157769644Y-83750857D01*
X157759679Y-83729787D01*
X157751827Y-83707843D01*
X157746163Y-83685234D01*
X157742744Y-83662179D01*
X157741600Y-83638900D01*
X157741600Y-83063900D01*
X157742744Y-83040621D01*
X157746163Y-83017566D01*
X157751827Y-82994957D01*
X157759679Y-82973013D01*
X157769644Y-82951943D01*
X157781626Y-82931952D01*
X157795510Y-82913232D01*
X157811162Y-82895962D01*
X157828432Y-82880310D01*
X157847152Y-82866426D01*
X157867143Y-82854444D01*
X157888213Y-82844479D01*
X157910157Y-82836627D01*
X157932766Y-82830963D01*
X157955821Y-82827544D01*
X157979100Y-82826400D01*
X158454100Y-82826400D01*
X158477379Y-82827544D01*
G37*
G36*
X158477379Y-84577544D02*
G01*
X158500434Y-84580963D01*
X158523043Y-84586627D01*
X158544987Y-84594479D01*
X158566057Y-84604444D01*
X158586048Y-84616426D01*
X158604768Y-84630310D01*
X158622038Y-84645962D01*
X158637690Y-84663232D01*
X158651574Y-84681952D01*
X158663556Y-84701943D01*
X158673521Y-84723013D01*
X158681373Y-84744957D01*
X158687037Y-84767566D01*
X158690456Y-84790621D01*
X158691600Y-84813900D01*
X158691600Y-85388900D01*
X158690456Y-85412179D01*
X158687037Y-85435234D01*
X158681373Y-85457843D01*
X158673521Y-85479787D01*
X158663556Y-85500857D01*
X158651574Y-85520848D01*
X158637690Y-85539568D01*
X158622038Y-85556838D01*
X158604768Y-85572490D01*
X158586048Y-85586374D01*
X158566057Y-85598356D01*
X158544987Y-85608321D01*
X158523043Y-85616173D01*
X158500434Y-85621837D01*
X158477379Y-85625256D01*
X158454100Y-85626400D01*
X157979100Y-85626400D01*
X157955821Y-85625256D01*
X157932766Y-85621837D01*
X157910157Y-85616173D01*
X157888213Y-85608321D01*
X157867143Y-85598356D01*
X157847152Y-85586374D01*
X157828432Y-85572490D01*
X157811162Y-85556838D01*
X157795510Y-85539568D01*
X157781626Y-85520848D01*
X157769644Y-85500857D01*
X157759679Y-85479787D01*
X157751827Y-85457843D01*
X157746163Y-85435234D01*
X157742744Y-85412179D01*
X157741600Y-85388900D01*
X157741600Y-84813900D01*
X157742744Y-84790621D01*
X157746163Y-84767566D01*
X157751827Y-84744957D01*
X157759679Y-84723013D01*
X157769644Y-84701943D01*
X157781626Y-84681952D01*
X157795510Y-84663232D01*
X157811162Y-84645962D01*
X157828432Y-84630310D01*
X157847152Y-84616426D01*
X157867143Y-84604444D01*
X157888213Y-84594479D01*
X157910157Y-84586627D01*
X157932766Y-84580963D01*
X157955821Y-84577544D01*
X157979100Y-84576400D01*
X158454100Y-84576400D01*
X158477379Y-84577544D01*
G37*
G36*
X172447379Y-83942544D02*
G01*
X172470434Y-83945963D01*
X172493043Y-83951627D01*
X172514987Y-83959479D01*
X172536057Y-83969444D01*
X172556048Y-83981426D01*
X172574768Y-83995310D01*
X172592038Y-84010962D01*
X172607690Y-84028232D01*
X172621574Y-84046952D01*
X172633556Y-84066943D01*
X172643521Y-84088013D01*
X172651373Y-84109957D01*
X172657037Y-84132566D01*
X172660456Y-84155621D01*
X172661600Y-84178900D01*
X172661600Y-84753900D01*
X172660456Y-84777179D01*
X172657037Y-84800234D01*
X172651373Y-84822843D01*
X172643521Y-84844787D01*
X172633556Y-84865857D01*
X172621574Y-84885848D01*
X172607690Y-84904568D01*
X172592038Y-84921838D01*
X172574768Y-84937490D01*
X172556048Y-84951374D01*
X172536057Y-84963356D01*
X172514987Y-84973321D01*
X172493043Y-84981173D01*
X172470434Y-84986837D01*
X172447379Y-84990256D01*
X172424100Y-84991400D01*
X171949100Y-84991400D01*
X171925821Y-84990256D01*
X171902766Y-84986837D01*
X171880157Y-84981173D01*
X171858213Y-84973321D01*
X171837143Y-84963356D01*
X171817152Y-84951374D01*
X171798432Y-84937490D01*
X171781162Y-84921838D01*
X171765510Y-84904568D01*
X171751626Y-84885848D01*
X171739644Y-84865857D01*
X171729679Y-84844787D01*
X171721827Y-84822843D01*
X171716163Y-84800234D01*
X171712744Y-84777179D01*
X171711600Y-84753900D01*
X171711600Y-84178900D01*
X171712744Y-84155621D01*
X171716163Y-84132566D01*
X171721827Y-84109957D01*
X171729679Y-84088013D01*
X171739644Y-84066943D01*
X171751626Y-84046952D01*
X171765510Y-84028232D01*
X171781162Y-84010962D01*
X171798432Y-83995310D01*
X171817152Y-83981426D01*
X171837143Y-83969444D01*
X171858213Y-83959479D01*
X171880157Y-83951627D01*
X171902766Y-83945963D01*
X171925821Y-83942544D01*
X171949100Y-83941400D01*
X172424100Y-83941400D01*
X172447379Y-83942544D01*
G37*
G36*
X172447379Y-82192544D02*
G01*
X172470434Y-82195963D01*
X172493043Y-82201627D01*
X172514987Y-82209479D01*
X172536057Y-82219444D01*
X172556048Y-82231426D01*
X172574768Y-82245310D01*
X172592038Y-82260962D01*
X172607690Y-82278232D01*
X172621574Y-82296952D01*
X172633556Y-82316943D01*
X172643521Y-82338013D01*
X172651373Y-82359957D01*
X172657037Y-82382566D01*
X172660456Y-82405621D01*
X172661600Y-82428900D01*
X172661600Y-83003900D01*
X172660456Y-83027179D01*
X172657037Y-83050234D01*
X172651373Y-83072843D01*
X172643521Y-83094787D01*
X172633556Y-83115857D01*
X172621574Y-83135848D01*
X172607690Y-83154568D01*
X172592038Y-83171838D01*
X172574768Y-83187490D01*
X172556048Y-83201374D01*
X172536057Y-83213356D01*
X172514987Y-83223321D01*
X172493043Y-83231173D01*
X172470434Y-83236837D01*
X172447379Y-83240256D01*
X172424100Y-83241400D01*
X171949100Y-83241400D01*
X171925821Y-83240256D01*
X171902766Y-83236837D01*
X171880157Y-83231173D01*
X171858213Y-83223321D01*
X171837143Y-83213356D01*
X171817152Y-83201374D01*
X171798432Y-83187490D01*
X171781162Y-83171838D01*
X171765510Y-83154568D01*
X171751626Y-83135848D01*
X171739644Y-83115857D01*
X171729679Y-83094787D01*
X171721827Y-83072843D01*
X171716163Y-83050234D01*
X171712744Y-83027179D01*
X171711600Y-83003900D01*
X171711600Y-82428900D01*
X171712744Y-82405621D01*
X171716163Y-82382566D01*
X171721827Y-82359957D01*
X171729679Y-82338013D01*
X171739644Y-82316943D01*
X171751626Y-82296952D01*
X171765510Y-82278232D01*
X171781162Y-82260962D01*
X171798432Y-82245310D01*
X171817152Y-82231426D01*
X171837143Y-82219444D01*
X171858213Y-82209479D01*
X171880157Y-82201627D01*
X171902766Y-82195963D01*
X171925821Y-82192544D01*
X171949100Y-82191400D01*
X172424100Y-82191400D01*
X172447379Y-82192544D01*
G37*
G36*
X130107379Y-97722544D02*
G01*
X130130434Y-97725963D01*
X130153043Y-97731627D01*
X130174987Y-97739479D01*
X130196057Y-97749444D01*
X130216048Y-97761426D01*
X130234768Y-97775310D01*
X130252038Y-97790962D01*
X130267690Y-97808232D01*
X130281574Y-97826952D01*
X130293556Y-97846943D01*
X130303521Y-97868013D01*
X130311373Y-97889957D01*
X130317037Y-97912566D01*
X130320456Y-97935621D01*
X130321600Y-97958900D01*
X130321600Y-98433900D01*
X130320456Y-98457179D01*
X130317037Y-98480234D01*
X130311373Y-98502843D01*
X130303521Y-98524787D01*
X130293556Y-98545857D01*
X130281574Y-98565848D01*
X130267690Y-98584568D01*
X130252038Y-98601838D01*
X130234768Y-98617490D01*
X130216048Y-98631374D01*
X130196057Y-98643356D01*
X130174987Y-98653321D01*
X130153043Y-98661173D01*
X130130434Y-98666837D01*
X130107379Y-98670256D01*
X130084100Y-98671400D01*
X129509100Y-98671400D01*
X129485821Y-98670256D01*
X129462766Y-98666837D01*
X129440157Y-98661173D01*
X129418213Y-98653321D01*
X129397143Y-98643356D01*
X129377152Y-98631374D01*
X129358432Y-98617490D01*
X129341162Y-98601838D01*
X129325510Y-98584568D01*
X129311626Y-98565848D01*
X129299644Y-98545857D01*
X129289679Y-98524787D01*
X129281827Y-98502843D01*
X129276163Y-98480234D01*
X129272744Y-98457179D01*
X129271600Y-98433900D01*
X129271600Y-97958900D01*
X129272744Y-97935621D01*
X129276163Y-97912566D01*
X129281827Y-97889957D01*
X129289679Y-97868013D01*
X129299644Y-97846943D01*
X129311626Y-97826952D01*
X129325510Y-97808232D01*
X129341162Y-97790962D01*
X129358432Y-97775310D01*
X129377152Y-97761426D01*
X129397143Y-97749444D01*
X129418213Y-97739479D01*
X129440157Y-97731627D01*
X129462766Y-97725963D01*
X129485821Y-97722544D01*
X129509100Y-97721400D01*
X130084100Y-97721400D01*
X130107379Y-97722544D01*
G37*
G36*
X131857379Y-97722544D02*
G01*
X131880434Y-97725963D01*
X131903043Y-97731627D01*
X131924987Y-97739479D01*
X131946057Y-97749444D01*
X131966048Y-97761426D01*
X131984768Y-97775310D01*
X132002038Y-97790962D01*
X132017690Y-97808232D01*
X132031574Y-97826952D01*
X132043556Y-97846943D01*
X132053521Y-97868013D01*
X132061373Y-97889957D01*
X132067037Y-97912566D01*
X132070456Y-97935621D01*
X132071600Y-97958900D01*
X132071600Y-98433900D01*
X132070456Y-98457179D01*
X132067037Y-98480234D01*
X132061373Y-98502843D01*
X132053521Y-98524787D01*
X132043556Y-98545857D01*
X132031574Y-98565848D01*
X132017690Y-98584568D01*
X132002038Y-98601838D01*
X131984768Y-98617490D01*
X131966048Y-98631374D01*
X131946057Y-98643356D01*
X131924987Y-98653321D01*
X131903043Y-98661173D01*
X131880434Y-98666837D01*
X131857379Y-98670256D01*
X131834100Y-98671400D01*
X131259100Y-98671400D01*
X131235821Y-98670256D01*
X131212766Y-98666837D01*
X131190157Y-98661173D01*
X131168213Y-98653321D01*
X131147143Y-98643356D01*
X131127152Y-98631374D01*
X131108432Y-98617490D01*
X131091162Y-98601838D01*
X131075510Y-98584568D01*
X131061626Y-98565848D01*
X131049644Y-98545857D01*
X131039679Y-98524787D01*
X131031827Y-98502843D01*
X131026163Y-98480234D01*
X131022744Y-98457179D01*
X131021600Y-98433900D01*
X131021600Y-97958900D01*
X131022744Y-97935621D01*
X131026163Y-97912566D01*
X131031827Y-97889957D01*
X131039679Y-97868013D01*
X131049644Y-97846943D01*
X131061626Y-97826952D01*
X131075510Y-97808232D01*
X131091162Y-97790962D01*
X131108432Y-97775310D01*
X131127152Y-97761426D01*
X131147143Y-97749444D01*
X131168213Y-97739479D01*
X131190157Y-97731627D01*
X131212766Y-97725963D01*
X131235821Y-97722544D01*
X131259100Y-97721400D01*
X131834100Y-97721400D01*
X131857379Y-97722544D01*
G37*
G36*
X133917379Y-97722544D02*
G01*
X133940434Y-97725963D01*
X133963043Y-97731627D01*
X133984987Y-97739479D01*
X134006057Y-97749444D01*
X134026048Y-97761426D01*
X134044768Y-97775310D01*
X134062038Y-97790962D01*
X134077690Y-97808232D01*
X134091574Y-97826952D01*
X134103556Y-97846943D01*
X134113521Y-97868013D01*
X134121373Y-97889957D01*
X134127037Y-97912566D01*
X134130456Y-97935621D01*
X134131600Y-97958900D01*
X134131600Y-98433900D01*
X134130456Y-98457179D01*
X134127037Y-98480234D01*
X134121373Y-98502843D01*
X134113521Y-98524787D01*
X134103556Y-98545857D01*
X134091574Y-98565848D01*
X134077690Y-98584568D01*
X134062038Y-98601838D01*
X134044768Y-98617490D01*
X134026048Y-98631374D01*
X134006057Y-98643356D01*
X133984987Y-98653321D01*
X133963043Y-98661173D01*
X133940434Y-98666837D01*
X133917379Y-98670256D01*
X133894100Y-98671400D01*
X133319100Y-98671400D01*
X133295821Y-98670256D01*
X133272766Y-98666837D01*
X133250157Y-98661173D01*
X133228213Y-98653321D01*
X133207143Y-98643356D01*
X133187152Y-98631374D01*
X133168432Y-98617490D01*
X133151162Y-98601838D01*
X133135510Y-98584568D01*
X133121626Y-98565848D01*
X133109644Y-98545857D01*
X133099679Y-98524787D01*
X133091827Y-98502843D01*
X133086163Y-98480234D01*
X133082744Y-98457179D01*
X133081600Y-98433900D01*
X133081600Y-97958900D01*
X133082744Y-97935621D01*
X133086163Y-97912566D01*
X133091827Y-97889957D01*
X133099679Y-97868013D01*
X133109644Y-97846943D01*
X133121626Y-97826952D01*
X133135510Y-97808232D01*
X133151162Y-97790962D01*
X133168432Y-97775310D01*
X133187152Y-97761426D01*
X133207143Y-97749444D01*
X133228213Y-97739479D01*
X133250157Y-97731627D01*
X133272766Y-97725963D01*
X133295821Y-97722544D01*
X133319100Y-97721400D01*
X133894100Y-97721400D01*
X133917379Y-97722544D01*
G37*
G36*
X135667379Y-97722544D02*
G01*
X135690434Y-97725963D01*
X135713043Y-97731627D01*
X135734987Y-97739479D01*
X135756057Y-97749444D01*
X135776048Y-97761426D01*
X135794768Y-97775310D01*
X135812038Y-97790962D01*
X135827690Y-97808232D01*
X135841574Y-97826952D01*
X135853556Y-97846943D01*
X135863521Y-97868013D01*
X135871373Y-97889957D01*
X135877037Y-97912566D01*
X135880456Y-97935621D01*
X135881600Y-97958900D01*
X135881600Y-98433900D01*
X135880456Y-98457179D01*
X135877037Y-98480234D01*
X135871373Y-98502843D01*
X135863521Y-98524787D01*
X135853556Y-98545857D01*
X135841574Y-98565848D01*
X135827690Y-98584568D01*
X135812038Y-98601838D01*
X135794768Y-98617490D01*
X135776048Y-98631374D01*
X135756057Y-98643356D01*
X135734987Y-98653321D01*
X135713043Y-98661173D01*
X135690434Y-98666837D01*
X135667379Y-98670256D01*
X135644100Y-98671400D01*
X135069100Y-98671400D01*
X135045821Y-98670256D01*
X135022766Y-98666837D01*
X135000157Y-98661173D01*
X134978213Y-98653321D01*
X134957143Y-98643356D01*
X134937152Y-98631374D01*
X134918432Y-98617490D01*
X134901162Y-98601838D01*
X134885510Y-98584568D01*
X134871626Y-98565848D01*
X134859644Y-98545857D01*
X134849679Y-98524787D01*
X134841827Y-98502843D01*
X134836163Y-98480234D01*
X134832744Y-98457179D01*
X134831600Y-98433900D01*
X134831600Y-97958900D01*
X134832744Y-97935621D01*
X134836163Y-97912566D01*
X134841827Y-97889957D01*
X134849679Y-97868013D01*
X134859644Y-97846943D01*
X134871626Y-97826952D01*
X134885510Y-97808232D01*
X134901162Y-97790962D01*
X134918432Y-97775310D01*
X134937152Y-97761426D01*
X134957143Y-97749444D01*
X134978213Y-97739479D01*
X135000157Y-97731627D01*
X135022766Y-97725963D01*
X135045821Y-97722544D01*
X135069100Y-97721400D01*
X135644100Y-97721400D01*
X135667379Y-97722544D01*
G37*
G36*
X128696379Y-80196544D02*
G01*
X128719434Y-80199963D01*
X128742043Y-80205627D01*
X128763987Y-80213479D01*
X128785057Y-80223444D01*
X128805048Y-80235426D01*
X128823768Y-80249310D01*
X128841038Y-80264962D01*
X128856690Y-80282232D01*
X128870574Y-80300952D01*
X128882556Y-80320943D01*
X128892521Y-80342013D01*
X128900373Y-80363957D01*
X128906037Y-80386566D01*
X128909456Y-80409621D01*
X128910600Y-80432900D01*
X128910600Y-80907900D01*
X128909456Y-80931179D01*
X128906037Y-80954234D01*
X128900373Y-80976843D01*
X128892521Y-80998787D01*
X128882556Y-81019857D01*
X128870574Y-81039848D01*
X128856690Y-81058568D01*
X128841038Y-81075838D01*
X128823768Y-81091490D01*
X128805048Y-81105374D01*
X128785057Y-81117356D01*
X128763987Y-81127321D01*
X128742043Y-81135173D01*
X128719434Y-81140837D01*
X128696379Y-81144256D01*
X128673100Y-81145400D01*
X128098100Y-81145400D01*
X128074821Y-81144256D01*
X128051766Y-81140837D01*
X128029157Y-81135173D01*
X128007213Y-81127321D01*
X127986143Y-81117356D01*
X127966152Y-81105374D01*
X127947432Y-81091490D01*
X127930162Y-81075838D01*
X127914510Y-81058568D01*
X127900626Y-81039848D01*
X127888644Y-81019857D01*
X127878679Y-80998787D01*
X127870827Y-80976843D01*
X127865163Y-80954234D01*
X127861744Y-80931179D01*
X127860600Y-80907900D01*
X127860600Y-80432900D01*
X127861744Y-80409621D01*
X127865163Y-80386566D01*
X127870827Y-80363957D01*
X127878679Y-80342013D01*
X127888644Y-80320943D01*
X127900626Y-80300952D01*
X127914510Y-80282232D01*
X127930162Y-80264962D01*
X127947432Y-80249310D01*
X127966152Y-80235426D01*
X127986143Y-80223444D01*
X128007213Y-80213479D01*
X128029157Y-80205627D01*
X128051766Y-80199963D01*
X128074821Y-80196544D01*
X128098100Y-80195400D01*
X128673100Y-80195400D01*
X128696379Y-80196544D01*
G37*
G36*
X130446379Y-80196544D02*
G01*
X130469434Y-80199963D01*
X130492043Y-80205627D01*
X130513987Y-80213479D01*
X130535057Y-80223444D01*
X130555048Y-80235426D01*
X130573768Y-80249310D01*
X130591038Y-80264962D01*
X130606690Y-80282232D01*
X130620574Y-80300952D01*
X130632556Y-80320943D01*
X130642521Y-80342013D01*
X130650373Y-80363957D01*
X130656037Y-80386566D01*
X130659456Y-80409621D01*
X130660600Y-80432900D01*
X130660600Y-80907900D01*
X130659456Y-80931179D01*
X130656037Y-80954234D01*
X130650373Y-80976843D01*
X130642521Y-80998787D01*
X130632556Y-81019857D01*
X130620574Y-81039848D01*
X130606690Y-81058568D01*
X130591038Y-81075838D01*
X130573768Y-81091490D01*
X130555048Y-81105374D01*
X130535057Y-81117356D01*
X130513987Y-81127321D01*
X130492043Y-81135173D01*
X130469434Y-81140837D01*
X130446379Y-81144256D01*
X130423100Y-81145400D01*
X129848100Y-81145400D01*
X129824821Y-81144256D01*
X129801766Y-81140837D01*
X129779157Y-81135173D01*
X129757213Y-81127321D01*
X129736143Y-81117356D01*
X129716152Y-81105374D01*
X129697432Y-81091490D01*
X129680162Y-81075838D01*
X129664510Y-81058568D01*
X129650626Y-81039848D01*
X129638644Y-81019857D01*
X129628679Y-80998787D01*
X129620827Y-80976843D01*
X129615163Y-80954234D01*
X129611744Y-80931179D01*
X129610600Y-80907900D01*
X129610600Y-80432900D01*
X129611744Y-80409621D01*
X129615163Y-80386566D01*
X129620827Y-80363957D01*
X129628679Y-80342013D01*
X129638644Y-80320943D01*
X129650626Y-80300952D01*
X129664510Y-80282232D01*
X129680162Y-80264962D01*
X129697432Y-80249310D01*
X129716152Y-80235426D01*
X129736143Y-80223444D01*
X129757213Y-80213479D01*
X129779157Y-80205627D01*
X129801766Y-80199963D01*
X129824821Y-80196544D01*
X129848100Y-80195400D01*
X130423100Y-80195400D01*
X130446379Y-80196544D01*
G37*
G36*
X112553379Y-102929544D02*
G01*
X112576434Y-102932963D01*
X112599043Y-102938627D01*
X112620987Y-102946479D01*
X112642057Y-102956444D01*
X112662048Y-102968426D01*
X112680768Y-102982310D01*
X112698038Y-102997962D01*
X112713690Y-103015232D01*
X112727574Y-103033952D01*
X112739556Y-103053943D01*
X112749521Y-103075013D01*
X112757373Y-103096957D01*
X112763037Y-103119566D01*
X112766456Y-103142621D01*
X112767600Y-103165900D01*
X112767600Y-103640900D01*
X112766456Y-103664179D01*
X112763037Y-103687234D01*
X112757373Y-103709843D01*
X112749521Y-103731787D01*
X112739556Y-103752857D01*
X112727574Y-103772848D01*
X112713690Y-103791568D01*
X112698038Y-103808838D01*
X112680768Y-103824490D01*
X112662048Y-103838374D01*
X112642057Y-103850356D01*
X112620987Y-103860321D01*
X112599043Y-103868173D01*
X112576434Y-103873837D01*
X112553379Y-103877256D01*
X112530100Y-103878400D01*
X111955100Y-103878400D01*
X111931821Y-103877256D01*
X111908766Y-103873837D01*
X111886157Y-103868173D01*
X111864213Y-103860321D01*
X111843143Y-103850356D01*
X111823152Y-103838374D01*
X111804432Y-103824490D01*
X111787162Y-103808838D01*
X111771510Y-103791568D01*
X111757626Y-103772848D01*
X111745644Y-103752857D01*
X111735679Y-103731787D01*
X111727827Y-103709843D01*
X111722163Y-103687234D01*
X111718744Y-103664179D01*
X111717600Y-103640900D01*
X111717600Y-103165900D01*
X111718744Y-103142621D01*
X111722163Y-103119566D01*
X111727827Y-103096957D01*
X111735679Y-103075013D01*
X111745644Y-103053943D01*
X111757626Y-103033952D01*
X111771510Y-103015232D01*
X111787162Y-102997962D01*
X111804432Y-102982310D01*
X111823152Y-102968426D01*
X111843143Y-102956444D01*
X111864213Y-102946479D01*
X111886157Y-102938627D01*
X111908766Y-102932963D01*
X111931821Y-102929544D01*
X111955100Y-102928400D01*
X112530100Y-102928400D01*
X112553379Y-102929544D01*
G37*
G36*
X110803379Y-102929544D02*
G01*
X110826434Y-102932963D01*
X110849043Y-102938627D01*
X110870987Y-102946479D01*
X110892057Y-102956444D01*
X110912048Y-102968426D01*
X110930768Y-102982310D01*
X110948038Y-102997962D01*
X110963690Y-103015232D01*
X110977574Y-103033952D01*
X110989556Y-103053943D01*
X110999521Y-103075013D01*
X111007373Y-103096957D01*
X111013037Y-103119566D01*
X111016456Y-103142621D01*
X111017600Y-103165900D01*
X111017600Y-103640900D01*
X111016456Y-103664179D01*
X111013037Y-103687234D01*
X111007373Y-103709843D01*
X110999521Y-103731787D01*
X110989556Y-103752857D01*
X110977574Y-103772848D01*
X110963690Y-103791568D01*
X110948038Y-103808838D01*
X110930768Y-103824490D01*
X110912048Y-103838374D01*
X110892057Y-103850356D01*
X110870987Y-103860321D01*
X110849043Y-103868173D01*
X110826434Y-103873837D01*
X110803379Y-103877256D01*
X110780100Y-103878400D01*
X110205100Y-103878400D01*
X110181821Y-103877256D01*
X110158766Y-103873837D01*
X110136157Y-103868173D01*
X110114213Y-103860321D01*
X110093143Y-103850356D01*
X110073152Y-103838374D01*
X110054432Y-103824490D01*
X110037162Y-103808838D01*
X110021510Y-103791568D01*
X110007626Y-103772848D01*
X109995644Y-103752857D01*
X109985679Y-103731787D01*
X109977827Y-103709843D01*
X109972163Y-103687234D01*
X109968744Y-103664179D01*
X109967600Y-103640900D01*
X109967600Y-103165900D01*
X109968744Y-103142621D01*
X109972163Y-103119566D01*
X109977827Y-103096957D01*
X109985679Y-103075013D01*
X109995644Y-103053943D01*
X110007626Y-103033952D01*
X110021510Y-103015232D01*
X110037162Y-102997962D01*
X110054432Y-102982310D01*
X110073152Y-102968426D01*
X110093143Y-102956444D01*
X110114213Y-102946479D01*
X110136157Y-102938627D01*
X110158766Y-102932963D01*
X110181821Y-102929544D01*
X110205100Y-102928400D01*
X110780100Y-102928400D01*
X110803379Y-102929544D01*
G37*
G36*
X119411379Y-102929544D02*
G01*
X119434434Y-102932963D01*
X119457043Y-102938627D01*
X119478987Y-102946479D01*
X119500057Y-102956444D01*
X119520048Y-102968426D01*
X119538768Y-102982310D01*
X119556038Y-102997962D01*
X119571690Y-103015232D01*
X119585574Y-103033952D01*
X119597556Y-103053943D01*
X119607521Y-103075013D01*
X119615373Y-103096957D01*
X119621037Y-103119566D01*
X119624456Y-103142621D01*
X119625600Y-103165900D01*
X119625600Y-103640900D01*
X119624456Y-103664179D01*
X119621037Y-103687234D01*
X119615373Y-103709843D01*
X119607521Y-103731787D01*
X119597556Y-103752857D01*
X119585574Y-103772848D01*
X119571690Y-103791568D01*
X119556038Y-103808838D01*
X119538768Y-103824490D01*
X119520048Y-103838374D01*
X119500057Y-103850356D01*
X119478987Y-103860321D01*
X119457043Y-103868173D01*
X119434434Y-103873837D01*
X119411379Y-103877256D01*
X119388100Y-103878400D01*
X118813100Y-103878400D01*
X118789821Y-103877256D01*
X118766766Y-103873837D01*
X118744157Y-103868173D01*
X118722213Y-103860321D01*
X118701143Y-103850356D01*
X118681152Y-103838374D01*
X118662432Y-103824490D01*
X118645162Y-103808838D01*
X118629510Y-103791568D01*
X118615626Y-103772848D01*
X118603644Y-103752857D01*
X118593679Y-103731787D01*
X118585827Y-103709843D01*
X118580163Y-103687234D01*
X118576744Y-103664179D01*
X118575600Y-103640900D01*
X118575600Y-103165900D01*
X118576744Y-103142621D01*
X118580163Y-103119566D01*
X118585827Y-103096957D01*
X118593679Y-103075013D01*
X118603644Y-103053943D01*
X118615626Y-103033952D01*
X118629510Y-103015232D01*
X118645162Y-102997962D01*
X118662432Y-102982310D01*
X118681152Y-102968426D01*
X118701143Y-102956444D01*
X118722213Y-102946479D01*
X118744157Y-102938627D01*
X118766766Y-102932963D01*
X118789821Y-102929544D01*
X118813100Y-102928400D01*
X119388100Y-102928400D01*
X119411379Y-102929544D01*
G37*
G36*
X117661379Y-102929544D02*
G01*
X117684434Y-102932963D01*
X117707043Y-102938627D01*
X117728987Y-102946479D01*
X117750057Y-102956444D01*
X117770048Y-102968426D01*
X117788768Y-102982310D01*
X117806038Y-102997962D01*
X117821690Y-103015232D01*
X117835574Y-103033952D01*
X117847556Y-103053943D01*
X117857521Y-103075013D01*
X117865373Y-103096957D01*
X117871037Y-103119566D01*
X117874456Y-103142621D01*
X117875600Y-103165900D01*
X117875600Y-103640900D01*
X117874456Y-103664179D01*
X117871037Y-103687234D01*
X117865373Y-103709843D01*
X117857521Y-103731787D01*
X117847556Y-103752857D01*
X117835574Y-103772848D01*
X117821690Y-103791568D01*
X117806038Y-103808838D01*
X117788768Y-103824490D01*
X117770048Y-103838374D01*
X117750057Y-103850356D01*
X117728987Y-103860321D01*
X117707043Y-103868173D01*
X117684434Y-103873837D01*
X117661379Y-103877256D01*
X117638100Y-103878400D01*
X117063100Y-103878400D01*
X117039821Y-103877256D01*
X117016766Y-103873837D01*
X116994157Y-103868173D01*
X116972213Y-103860321D01*
X116951143Y-103850356D01*
X116931152Y-103838374D01*
X116912432Y-103824490D01*
X116895162Y-103808838D01*
X116879510Y-103791568D01*
X116865626Y-103772848D01*
X116853644Y-103752857D01*
X116843679Y-103731787D01*
X116835827Y-103709843D01*
X116830163Y-103687234D01*
X116826744Y-103664179D01*
X116825600Y-103640900D01*
X116825600Y-103165900D01*
X116826744Y-103142621D01*
X116830163Y-103119566D01*
X116835827Y-103096957D01*
X116843679Y-103075013D01*
X116853644Y-103053943D01*
X116865626Y-103033952D01*
X116879510Y-103015232D01*
X116895162Y-102997962D01*
X116912432Y-102982310D01*
X116931152Y-102968426D01*
X116951143Y-102956444D01*
X116972213Y-102946479D01*
X116994157Y-102938627D01*
X117016766Y-102932963D01*
X117039821Y-102929544D01*
X117063100Y-102928400D01*
X117638100Y-102928400D01*
X117661379Y-102929544D01*
G37*
G36*
X126523379Y-102929544D02*
G01*
X126546434Y-102932963D01*
X126569043Y-102938627D01*
X126590987Y-102946479D01*
X126612057Y-102956444D01*
X126632048Y-102968426D01*
X126650768Y-102982310D01*
X126668038Y-102997962D01*
X126683690Y-103015232D01*
X126697574Y-103033952D01*
X126709556Y-103053943D01*
X126719521Y-103075013D01*
X126727373Y-103096957D01*
X126733037Y-103119566D01*
X126736456Y-103142621D01*
X126737600Y-103165900D01*
X126737600Y-103640900D01*
X126736456Y-103664179D01*
X126733037Y-103687234D01*
X126727373Y-103709843D01*
X126719521Y-103731787D01*
X126709556Y-103752857D01*
X126697574Y-103772848D01*
X126683690Y-103791568D01*
X126668038Y-103808838D01*
X126650768Y-103824490D01*
X126632048Y-103838374D01*
X126612057Y-103850356D01*
X126590987Y-103860321D01*
X126569043Y-103868173D01*
X126546434Y-103873837D01*
X126523379Y-103877256D01*
X126500100Y-103878400D01*
X125925100Y-103878400D01*
X125901821Y-103877256D01*
X125878766Y-103873837D01*
X125856157Y-103868173D01*
X125834213Y-103860321D01*
X125813143Y-103850356D01*
X125793152Y-103838374D01*
X125774432Y-103824490D01*
X125757162Y-103808838D01*
X125741510Y-103791568D01*
X125727626Y-103772848D01*
X125715644Y-103752857D01*
X125705679Y-103731787D01*
X125697827Y-103709843D01*
X125692163Y-103687234D01*
X125688744Y-103664179D01*
X125687600Y-103640900D01*
X125687600Y-103165900D01*
X125688744Y-103142621D01*
X125692163Y-103119566D01*
X125697827Y-103096957D01*
X125705679Y-103075013D01*
X125715644Y-103053943D01*
X125727626Y-103033952D01*
X125741510Y-103015232D01*
X125757162Y-102997962D01*
X125774432Y-102982310D01*
X125793152Y-102968426D01*
X125813143Y-102956444D01*
X125834213Y-102946479D01*
X125856157Y-102938627D01*
X125878766Y-102932963D01*
X125901821Y-102929544D01*
X125925100Y-102928400D01*
X126500100Y-102928400D01*
X126523379Y-102929544D01*
G37*
G36*
X124773379Y-102929544D02*
G01*
X124796434Y-102932963D01*
X124819043Y-102938627D01*
X124840987Y-102946479D01*
X124862057Y-102956444D01*
X124882048Y-102968426D01*
X124900768Y-102982310D01*
X124918038Y-102997962D01*
X124933690Y-103015232D01*
X124947574Y-103033952D01*
X124959556Y-103053943D01*
X124969521Y-103075013D01*
X124977373Y-103096957D01*
X124983037Y-103119566D01*
X124986456Y-103142621D01*
X124987600Y-103165900D01*
X124987600Y-103640900D01*
X124986456Y-103664179D01*
X124983037Y-103687234D01*
X124977373Y-103709843D01*
X124969521Y-103731787D01*
X124959556Y-103752857D01*
X124947574Y-103772848D01*
X124933690Y-103791568D01*
X124918038Y-103808838D01*
X124900768Y-103824490D01*
X124882048Y-103838374D01*
X124862057Y-103850356D01*
X124840987Y-103860321D01*
X124819043Y-103868173D01*
X124796434Y-103873837D01*
X124773379Y-103877256D01*
X124750100Y-103878400D01*
X124175100Y-103878400D01*
X124151821Y-103877256D01*
X124128766Y-103873837D01*
X124106157Y-103868173D01*
X124084213Y-103860321D01*
X124063143Y-103850356D01*
X124043152Y-103838374D01*
X124024432Y-103824490D01*
X124007162Y-103808838D01*
X123991510Y-103791568D01*
X123977626Y-103772848D01*
X123965644Y-103752857D01*
X123955679Y-103731787D01*
X123947827Y-103709843D01*
X123942163Y-103687234D01*
X123938744Y-103664179D01*
X123937600Y-103640900D01*
X123937600Y-103165900D01*
X123938744Y-103142621D01*
X123942163Y-103119566D01*
X123947827Y-103096957D01*
X123955679Y-103075013D01*
X123965644Y-103053943D01*
X123977626Y-103033952D01*
X123991510Y-103015232D01*
X124007162Y-102997962D01*
X124024432Y-102982310D01*
X124043152Y-102968426D01*
X124063143Y-102956444D01*
X124084213Y-102946479D01*
X124106157Y-102938627D01*
X124128766Y-102932963D01*
X124151821Y-102929544D01*
X124175100Y-102928400D01*
X124750100Y-102928400D01*
X124773379Y-102929544D01*
G37*
G36*
X133000379Y-102929544D02*
G01*
X133023434Y-102932963D01*
X133046043Y-102938627D01*
X133067987Y-102946479D01*
X133089057Y-102956444D01*
X133109048Y-102968426D01*
X133127768Y-102982310D01*
X133145038Y-102997962D01*
X133160690Y-103015232D01*
X133174574Y-103033952D01*
X133186556Y-103053943D01*
X133196521Y-103075013D01*
X133204373Y-103096957D01*
X133210037Y-103119566D01*
X133213456Y-103142621D01*
X133214600Y-103165900D01*
X133214600Y-103640900D01*
X133213456Y-103664179D01*
X133210037Y-103687234D01*
X133204373Y-103709843D01*
X133196521Y-103731787D01*
X133186556Y-103752857D01*
X133174574Y-103772848D01*
X133160690Y-103791568D01*
X133145038Y-103808838D01*
X133127768Y-103824490D01*
X133109048Y-103838374D01*
X133089057Y-103850356D01*
X133067987Y-103860321D01*
X133046043Y-103868173D01*
X133023434Y-103873837D01*
X133000379Y-103877256D01*
X132977100Y-103878400D01*
X132402100Y-103878400D01*
X132378821Y-103877256D01*
X132355766Y-103873837D01*
X132333157Y-103868173D01*
X132311213Y-103860321D01*
X132290143Y-103850356D01*
X132270152Y-103838374D01*
X132251432Y-103824490D01*
X132234162Y-103808838D01*
X132218510Y-103791568D01*
X132204626Y-103772848D01*
X132192644Y-103752857D01*
X132182679Y-103731787D01*
X132174827Y-103709843D01*
X132169163Y-103687234D01*
X132165744Y-103664179D01*
X132164600Y-103640900D01*
X132164600Y-103165900D01*
X132165744Y-103142621D01*
X132169163Y-103119566D01*
X132174827Y-103096957D01*
X132182679Y-103075013D01*
X132192644Y-103053943D01*
X132204626Y-103033952D01*
X132218510Y-103015232D01*
X132234162Y-102997962D01*
X132251432Y-102982310D01*
X132270152Y-102968426D01*
X132290143Y-102956444D01*
X132311213Y-102946479D01*
X132333157Y-102938627D01*
X132355766Y-102932963D01*
X132378821Y-102929544D01*
X132402100Y-102928400D01*
X132977100Y-102928400D01*
X133000379Y-102929544D01*
G37*
G36*
X131250379Y-102929544D02*
G01*
X131273434Y-102932963D01*
X131296043Y-102938627D01*
X131317987Y-102946479D01*
X131339057Y-102956444D01*
X131359048Y-102968426D01*
X131377768Y-102982310D01*
X131395038Y-102997962D01*
X131410690Y-103015232D01*
X131424574Y-103033952D01*
X131436556Y-103053943D01*
X131446521Y-103075013D01*
X131454373Y-103096957D01*
X131460037Y-103119566D01*
X131463456Y-103142621D01*
X131464600Y-103165900D01*
X131464600Y-103640900D01*
X131463456Y-103664179D01*
X131460037Y-103687234D01*
X131454373Y-103709843D01*
X131446521Y-103731787D01*
X131436556Y-103752857D01*
X131424574Y-103772848D01*
X131410690Y-103791568D01*
X131395038Y-103808838D01*
X131377768Y-103824490D01*
X131359048Y-103838374D01*
X131339057Y-103850356D01*
X131317987Y-103860321D01*
X131296043Y-103868173D01*
X131273434Y-103873837D01*
X131250379Y-103877256D01*
X131227100Y-103878400D01*
X130652100Y-103878400D01*
X130628821Y-103877256D01*
X130605766Y-103873837D01*
X130583157Y-103868173D01*
X130561213Y-103860321D01*
X130540143Y-103850356D01*
X130520152Y-103838374D01*
X130501432Y-103824490D01*
X130484162Y-103808838D01*
X130468510Y-103791568D01*
X130454626Y-103772848D01*
X130442644Y-103752857D01*
X130432679Y-103731787D01*
X130424827Y-103709843D01*
X130419163Y-103687234D01*
X130415744Y-103664179D01*
X130414600Y-103640900D01*
X130414600Y-103165900D01*
X130415744Y-103142621D01*
X130419163Y-103119566D01*
X130424827Y-103096957D01*
X130432679Y-103075013D01*
X130442644Y-103053943D01*
X130454626Y-103033952D01*
X130468510Y-103015232D01*
X130484162Y-102997962D01*
X130501432Y-102982310D01*
X130520152Y-102968426D01*
X130540143Y-102956444D01*
X130561213Y-102946479D01*
X130583157Y-102938627D01*
X130605766Y-102932963D01*
X130628821Y-102929544D01*
X130652100Y-102928400D01*
X131227100Y-102928400D01*
X131250379Y-102929544D01*
G37*
G36*
X140112379Y-102929544D02*
G01*
X140135434Y-102932963D01*
X140158043Y-102938627D01*
X140179987Y-102946479D01*
X140201057Y-102956444D01*
X140221048Y-102968426D01*
X140239768Y-102982310D01*
X140257038Y-102997962D01*
X140272690Y-103015232D01*
X140286574Y-103033952D01*
X140298556Y-103053943D01*
X140308521Y-103075013D01*
X140316373Y-103096957D01*
X140322037Y-103119566D01*
X140325456Y-103142621D01*
X140326600Y-103165900D01*
X140326600Y-103640900D01*
X140325456Y-103664179D01*
X140322037Y-103687234D01*
X140316373Y-103709843D01*
X140308521Y-103731787D01*
X140298556Y-103752857D01*
X140286574Y-103772848D01*
X140272690Y-103791568D01*
X140257038Y-103808838D01*
X140239768Y-103824490D01*
X140221048Y-103838374D01*
X140201057Y-103850356D01*
X140179987Y-103860321D01*
X140158043Y-103868173D01*
X140135434Y-103873837D01*
X140112379Y-103877256D01*
X140089100Y-103878400D01*
X139514100Y-103878400D01*
X139490821Y-103877256D01*
X139467766Y-103873837D01*
X139445157Y-103868173D01*
X139423213Y-103860321D01*
X139402143Y-103850356D01*
X139382152Y-103838374D01*
X139363432Y-103824490D01*
X139346162Y-103808838D01*
X139330510Y-103791568D01*
X139316626Y-103772848D01*
X139304644Y-103752857D01*
X139294679Y-103731787D01*
X139286827Y-103709843D01*
X139281163Y-103687234D01*
X139277744Y-103664179D01*
X139276600Y-103640900D01*
X139276600Y-103165900D01*
X139277744Y-103142621D01*
X139281163Y-103119566D01*
X139286827Y-103096957D01*
X139294679Y-103075013D01*
X139304644Y-103053943D01*
X139316626Y-103033952D01*
X139330510Y-103015232D01*
X139346162Y-102997962D01*
X139363432Y-102982310D01*
X139382152Y-102968426D01*
X139402143Y-102956444D01*
X139423213Y-102946479D01*
X139445157Y-102938627D01*
X139467766Y-102932963D01*
X139490821Y-102929544D01*
X139514100Y-102928400D01*
X140089100Y-102928400D01*
X140112379Y-102929544D01*
G37*
G36*
X138362379Y-102929544D02*
G01*
X138385434Y-102932963D01*
X138408043Y-102938627D01*
X138429987Y-102946479D01*
X138451057Y-102956444D01*
X138471048Y-102968426D01*
X138489768Y-102982310D01*
X138507038Y-102997962D01*
X138522690Y-103015232D01*
X138536574Y-103033952D01*
X138548556Y-103053943D01*
X138558521Y-103075013D01*
X138566373Y-103096957D01*
X138572037Y-103119566D01*
X138575456Y-103142621D01*
X138576600Y-103165900D01*
X138576600Y-103640900D01*
X138575456Y-103664179D01*
X138572037Y-103687234D01*
X138566373Y-103709843D01*
X138558521Y-103731787D01*
X138548556Y-103752857D01*
X138536574Y-103772848D01*
X138522690Y-103791568D01*
X138507038Y-103808838D01*
X138489768Y-103824490D01*
X138471048Y-103838374D01*
X138451057Y-103850356D01*
X138429987Y-103860321D01*
X138408043Y-103868173D01*
X138385434Y-103873837D01*
X138362379Y-103877256D01*
X138339100Y-103878400D01*
X137764100Y-103878400D01*
X137740821Y-103877256D01*
X137717766Y-103873837D01*
X137695157Y-103868173D01*
X137673213Y-103860321D01*
X137652143Y-103850356D01*
X137632152Y-103838374D01*
X137613432Y-103824490D01*
X137596162Y-103808838D01*
X137580510Y-103791568D01*
X137566626Y-103772848D01*
X137554644Y-103752857D01*
X137544679Y-103731787D01*
X137536827Y-103709843D01*
X137531163Y-103687234D01*
X137527744Y-103664179D01*
X137526600Y-103640900D01*
X137526600Y-103165900D01*
X137527744Y-103142621D01*
X137531163Y-103119566D01*
X137536827Y-103096957D01*
X137544679Y-103075013D01*
X137554644Y-103053943D01*
X137566626Y-103033952D01*
X137580510Y-103015232D01*
X137596162Y-102997962D01*
X137613432Y-102982310D01*
X137632152Y-102968426D01*
X137652143Y-102956444D01*
X137673213Y-102946479D01*
X137695157Y-102938627D01*
X137717766Y-102932963D01*
X137740821Y-102929544D01*
X137764100Y-102928400D01*
X138339100Y-102928400D01*
X138362379Y-102929544D01*
G37*
G36*
X147464379Y-102929544D02*
G01*
X147487434Y-102932963D01*
X147510043Y-102938627D01*
X147531987Y-102946479D01*
X147553057Y-102956444D01*
X147573048Y-102968426D01*
X147591768Y-102982310D01*
X147609038Y-102997962D01*
X147624690Y-103015232D01*
X147638574Y-103033952D01*
X147650556Y-103053943D01*
X147660521Y-103075013D01*
X147668373Y-103096957D01*
X147674037Y-103119566D01*
X147677456Y-103142621D01*
X147678600Y-103165900D01*
X147678600Y-103640900D01*
X147677456Y-103664179D01*
X147674037Y-103687234D01*
X147668373Y-103709843D01*
X147660521Y-103731787D01*
X147650556Y-103752857D01*
X147638574Y-103772848D01*
X147624690Y-103791568D01*
X147609038Y-103808838D01*
X147591768Y-103824490D01*
X147573048Y-103838374D01*
X147553057Y-103850356D01*
X147531987Y-103860321D01*
X147510043Y-103868173D01*
X147487434Y-103873837D01*
X147464379Y-103877256D01*
X147441100Y-103878400D01*
X146866100Y-103878400D01*
X146842821Y-103877256D01*
X146819766Y-103873837D01*
X146797157Y-103868173D01*
X146775213Y-103860321D01*
X146754143Y-103850356D01*
X146734152Y-103838374D01*
X146715432Y-103824490D01*
X146698162Y-103808838D01*
X146682510Y-103791568D01*
X146668626Y-103772848D01*
X146656644Y-103752857D01*
X146646679Y-103731787D01*
X146638827Y-103709843D01*
X146633163Y-103687234D01*
X146629744Y-103664179D01*
X146628600Y-103640900D01*
X146628600Y-103165900D01*
X146629744Y-103142621D01*
X146633163Y-103119566D01*
X146638827Y-103096957D01*
X146646679Y-103075013D01*
X146656644Y-103053943D01*
X146668626Y-103033952D01*
X146682510Y-103015232D01*
X146698162Y-102997962D01*
X146715432Y-102982310D01*
X146734152Y-102968426D01*
X146754143Y-102956444D01*
X146775213Y-102946479D01*
X146797157Y-102938627D01*
X146819766Y-102932963D01*
X146842821Y-102929544D01*
X146866100Y-102928400D01*
X147441100Y-102928400D01*
X147464379Y-102929544D01*
G37*
G36*
X145714379Y-102929544D02*
G01*
X145737434Y-102932963D01*
X145760043Y-102938627D01*
X145781987Y-102946479D01*
X145803057Y-102956444D01*
X145823048Y-102968426D01*
X145841768Y-102982310D01*
X145859038Y-102997962D01*
X145874690Y-103015232D01*
X145888574Y-103033952D01*
X145900556Y-103053943D01*
X145910521Y-103075013D01*
X145918373Y-103096957D01*
X145924037Y-103119566D01*
X145927456Y-103142621D01*
X145928600Y-103165900D01*
X145928600Y-103640900D01*
X145927456Y-103664179D01*
X145924037Y-103687234D01*
X145918373Y-103709843D01*
X145910521Y-103731787D01*
X145900556Y-103752857D01*
X145888574Y-103772848D01*
X145874690Y-103791568D01*
X145859038Y-103808838D01*
X145841768Y-103824490D01*
X145823048Y-103838374D01*
X145803057Y-103850356D01*
X145781987Y-103860321D01*
X145760043Y-103868173D01*
X145737434Y-103873837D01*
X145714379Y-103877256D01*
X145691100Y-103878400D01*
X145116100Y-103878400D01*
X145092821Y-103877256D01*
X145069766Y-103873837D01*
X145047157Y-103868173D01*
X145025213Y-103860321D01*
X145004143Y-103850356D01*
X144984152Y-103838374D01*
X144965432Y-103824490D01*
X144948162Y-103808838D01*
X144932510Y-103791568D01*
X144918626Y-103772848D01*
X144906644Y-103752857D01*
X144896679Y-103731787D01*
X144888827Y-103709843D01*
X144883163Y-103687234D01*
X144879744Y-103664179D01*
X144878600Y-103640900D01*
X144878600Y-103165900D01*
X144879744Y-103142621D01*
X144883163Y-103119566D01*
X144888827Y-103096957D01*
X144896679Y-103075013D01*
X144906644Y-103053943D01*
X144918626Y-103033952D01*
X144932510Y-103015232D01*
X144948162Y-102997962D01*
X144965432Y-102982310D01*
X144984152Y-102968426D01*
X145004143Y-102956444D01*
X145025213Y-102946479D01*
X145047157Y-102938627D01*
X145069766Y-102932963D01*
X145092821Y-102929544D01*
X145116100Y-102928400D01*
X145691100Y-102928400D01*
X145714379Y-102929544D01*
G37*
G36*
X152713379Y-102929544D02*
G01*
X152736434Y-102932963D01*
X152759043Y-102938627D01*
X152780987Y-102946479D01*
X152802057Y-102956444D01*
X152822048Y-102968426D01*
X152840768Y-102982310D01*
X152858038Y-102997962D01*
X152873690Y-103015232D01*
X152887574Y-103033952D01*
X152899556Y-103053943D01*
X152909521Y-103075013D01*
X152917373Y-103096957D01*
X152923037Y-103119566D01*
X152926456Y-103142621D01*
X152927600Y-103165900D01*
X152927600Y-103640900D01*
X152926456Y-103664179D01*
X152923037Y-103687234D01*
X152917373Y-103709843D01*
X152909521Y-103731787D01*
X152899556Y-103752857D01*
X152887574Y-103772848D01*
X152873690Y-103791568D01*
X152858038Y-103808838D01*
X152840768Y-103824490D01*
X152822048Y-103838374D01*
X152802057Y-103850356D01*
X152780987Y-103860321D01*
X152759043Y-103868173D01*
X152736434Y-103873837D01*
X152713379Y-103877256D01*
X152690100Y-103878400D01*
X152115100Y-103878400D01*
X152091821Y-103877256D01*
X152068766Y-103873837D01*
X152046157Y-103868173D01*
X152024213Y-103860321D01*
X152003143Y-103850356D01*
X151983152Y-103838374D01*
X151964432Y-103824490D01*
X151947162Y-103808838D01*
X151931510Y-103791568D01*
X151917626Y-103772848D01*
X151905644Y-103752857D01*
X151895679Y-103731787D01*
X151887827Y-103709843D01*
X151882163Y-103687234D01*
X151878744Y-103664179D01*
X151877600Y-103640900D01*
X151877600Y-103165900D01*
X151878744Y-103142621D01*
X151882163Y-103119566D01*
X151887827Y-103096957D01*
X151895679Y-103075013D01*
X151905644Y-103053943D01*
X151917626Y-103033952D01*
X151931510Y-103015232D01*
X151947162Y-102997962D01*
X151964432Y-102982310D01*
X151983152Y-102968426D01*
X152003143Y-102956444D01*
X152024213Y-102946479D01*
X152046157Y-102938627D01*
X152068766Y-102932963D01*
X152091821Y-102929544D01*
X152115100Y-102928400D01*
X152690100Y-102928400D01*
X152713379Y-102929544D01*
G37*
G36*
X154463379Y-102929544D02*
G01*
X154486434Y-102932963D01*
X154509043Y-102938627D01*
X154530987Y-102946479D01*
X154552057Y-102956444D01*
X154572048Y-102968426D01*
X154590768Y-102982310D01*
X154608038Y-102997962D01*
X154623690Y-103015232D01*
X154637574Y-103033952D01*
X154649556Y-103053943D01*
X154659521Y-103075013D01*
X154667373Y-103096957D01*
X154673037Y-103119566D01*
X154676456Y-103142621D01*
X154677600Y-103165900D01*
X154677600Y-103640900D01*
X154676456Y-103664179D01*
X154673037Y-103687234D01*
X154667373Y-103709843D01*
X154659521Y-103731787D01*
X154649556Y-103752857D01*
X154637574Y-103772848D01*
X154623690Y-103791568D01*
X154608038Y-103808838D01*
X154590768Y-103824490D01*
X154572048Y-103838374D01*
X154552057Y-103850356D01*
X154530987Y-103860321D01*
X154509043Y-103868173D01*
X154486434Y-103873837D01*
X154463379Y-103877256D01*
X154440100Y-103878400D01*
X153865100Y-103878400D01*
X153841821Y-103877256D01*
X153818766Y-103873837D01*
X153796157Y-103868173D01*
X153774213Y-103860321D01*
X153753143Y-103850356D01*
X153733152Y-103838374D01*
X153714432Y-103824490D01*
X153697162Y-103808838D01*
X153681510Y-103791568D01*
X153667626Y-103772848D01*
X153655644Y-103752857D01*
X153645679Y-103731787D01*
X153637827Y-103709843D01*
X153632163Y-103687234D01*
X153628744Y-103664179D01*
X153627600Y-103640900D01*
X153627600Y-103165900D01*
X153628744Y-103142621D01*
X153632163Y-103119566D01*
X153637827Y-103096957D01*
X153645679Y-103075013D01*
X153655644Y-103053943D01*
X153667626Y-103033952D01*
X153681510Y-103015232D01*
X153697162Y-102997962D01*
X153714432Y-102982310D01*
X153733152Y-102968426D01*
X153753143Y-102956444D01*
X153774213Y-102946479D01*
X153796157Y-102938627D01*
X153818766Y-102932963D01*
X153841821Y-102929544D01*
X153865100Y-102928400D01*
X154440100Y-102928400D01*
X154463379Y-102929544D01*
G37*
G36*
X160192379Y-102929544D02*
G01*
X160215434Y-102932963D01*
X160238043Y-102938627D01*
X160259987Y-102946479D01*
X160281057Y-102956444D01*
X160301048Y-102968426D01*
X160319768Y-102982310D01*
X160337038Y-102997962D01*
X160352690Y-103015232D01*
X160366574Y-103033952D01*
X160378556Y-103053943D01*
X160388521Y-103075013D01*
X160396373Y-103096957D01*
X160402037Y-103119566D01*
X160405456Y-103142621D01*
X160406600Y-103165900D01*
X160406600Y-103640900D01*
X160405456Y-103664179D01*
X160402037Y-103687234D01*
X160396373Y-103709843D01*
X160388521Y-103731787D01*
X160378556Y-103752857D01*
X160366574Y-103772848D01*
X160352690Y-103791568D01*
X160337038Y-103808838D01*
X160319768Y-103824490D01*
X160301048Y-103838374D01*
X160281057Y-103850356D01*
X160259987Y-103860321D01*
X160238043Y-103868173D01*
X160215434Y-103873837D01*
X160192379Y-103877256D01*
X160169100Y-103878400D01*
X159594100Y-103878400D01*
X159570821Y-103877256D01*
X159547766Y-103873837D01*
X159525157Y-103868173D01*
X159503213Y-103860321D01*
X159482143Y-103850356D01*
X159462152Y-103838374D01*
X159443432Y-103824490D01*
X159426162Y-103808838D01*
X159410510Y-103791568D01*
X159396626Y-103772848D01*
X159384644Y-103752857D01*
X159374679Y-103731787D01*
X159366827Y-103709843D01*
X159361163Y-103687234D01*
X159357744Y-103664179D01*
X159356600Y-103640900D01*
X159356600Y-103165900D01*
X159357744Y-103142621D01*
X159361163Y-103119566D01*
X159366827Y-103096957D01*
X159374679Y-103075013D01*
X159384644Y-103053943D01*
X159396626Y-103033952D01*
X159410510Y-103015232D01*
X159426162Y-102997962D01*
X159443432Y-102982310D01*
X159462152Y-102968426D01*
X159482143Y-102956444D01*
X159503213Y-102946479D01*
X159525157Y-102938627D01*
X159547766Y-102932963D01*
X159570821Y-102929544D01*
X159594100Y-102928400D01*
X160169100Y-102928400D01*
X160192379Y-102929544D01*
G37*
G36*
X161942379Y-102929544D02*
G01*
X161965434Y-102932963D01*
X161988043Y-102938627D01*
X162009987Y-102946479D01*
X162031057Y-102956444D01*
X162051048Y-102968426D01*
X162069768Y-102982310D01*
X162087038Y-102997962D01*
X162102690Y-103015232D01*
X162116574Y-103033952D01*
X162128556Y-103053943D01*
X162138521Y-103075013D01*
X162146373Y-103096957D01*
X162152037Y-103119566D01*
X162155456Y-103142621D01*
X162156600Y-103165900D01*
X162156600Y-103640900D01*
X162155456Y-103664179D01*
X162152037Y-103687234D01*
X162146373Y-103709843D01*
X162138521Y-103731787D01*
X162128556Y-103752857D01*
X162116574Y-103772848D01*
X162102690Y-103791568D01*
X162087038Y-103808838D01*
X162069768Y-103824490D01*
X162051048Y-103838374D01*
X162031057Y-103850356D01*
X162009987Y-103860321D01*
X161988043Y-103868173D01*
X161965434Y-103873837D01*
X161942379Y-103877256D01*
X161919100Y-103878400D01*
X161344100Y-103878400D01*
X161320821Y-103877256D01*
X161297766Y-103873837D01*
X161275157Y-103868173D01*
X161253213Y-103860321D01*
X161232143Y-103850356D01*
X161212152Y-103838374D01*
X161193432Y-103824490D01*
X161176162Y-103808838D01*
X161160510Y-103791568D01*
X161146626Y-103772848D01*
X161134644Y-103752857D01*
X161124679Y-103731787D01*
X161116827Y-103709843D01*
X161111163Y-103687234D01*
X161107744Y-103664179D01*
X161106600Y-103640900D01*
X161106600Y-103165900D01*
X161107744Y-103142621D01*
X161111163Y-103119566D01*
X161116827Y-103096957D01*
X161124679Y-103075013D01*
X161134644Y-103053943D01*
X161146626Y-103033952D01*
X161160510Y-103015232D01*
X161176162Y-102997962D01*
X161193432Y-102982310D01*
X161212152Y-102968426D01*
X161232143Y-102956444D01*
X161253213Y-102946479D01*
X161275157Y-102938627D01*
X161297766Y-102932963D01*
X161320821Y-102929544D01*
X161344100Y-102928400D01*
X161919100Y-102928400D01*
X161942379Y-102929544D01*
G37*
G36*
X167191379Y-102929544D02*
G01*
X167214434Y-102932963D01*
X167237043Y-102938627D01*
X167258987Y-102946479D01*
X167280057Y-102956444D01*
X167300048Y-102968426D01*
X167318768Y-102982310D01*
X167336038Y-102997962D01*
X167351690Y-103015232D01*
X167365574Y-103033952D01*
X167377556Y-103053943D01*
X167387521Y-103075013D01*
X167395373Y-103096957D01*
X167401037Y-103119566D01*
X167404456Y-103142621D01*
X167405600Y-103165900D01*
X167405600Y-103640900D01*
X167404456Y-103664179D01*
X167401037Y-103687234D01*
X167395373Y-103709843D01*
X167387521Y-103731787D01*
X167377556Y-103752857D01*
X167365574Y-103772848D01*
X167351690Y-103791568D01*
X167336038Y-103808838D01*
X167318768Y-103824490D01*
X167300048Y-103838374D01*
X167280057Y-103850356D01*
X167258987Y-103860321D01*
X167237043Y-103868173D01*
X167214434Y-103873837D01*
X167191379Y-103877256D01*
X167168100Y-103878400D01*
X166593100Y-103878400D01*
X166569821Y-103877256D01*
X166546766Y-103873837D01*
X166524157Y-103868173D01*
X166502213Y-103860321D01*
X166481143Y-103850356D01*
X166461152Y-103838374D01*
X166442432Y-103824490D01*
X166425162Y-103808838D01*
X166409510Y-103791568D01*
X166395626Y-103772848D01*
X166383644Y-103752857D01*
X166373679Y-103731787D01*
X166365827Y-103709843D01*
X166360163Y-103687234D01*
X166356744Y-103664179D01*
X166355600Y-103640900D01*
X166355600Y-103165900D01*
X166356744Y-103142621D01*
X166360163Y-103119566D01*
X166365827Y-103096957D01*
X166373679Y-103075013D01*
X166383644Y-103053943D01*
X166395626Y-103033952D01*
X166409510Y-103015232D01*
X166425162Y-102997962D01*
X166442432Y-102982310D01*
X166461152Y-102968426D01*
X166481143Y-102956444D01*
X166502213Y-102946479D01*
X166524157Y-102938627D01*
X166546766Y-102932963D01*
X166569821Y-102929544D01*
X166593100Y-102928400D01*
X167168100Y-102928400D01*
X167191379Y-102929544D01*
G37*
G36*
X168941379Y-102929544D02*
G01*
X168964434Y-102932963D01*
X168987043Y-102938627D01*
X169008987Y-102946479D01*
X169030057Y-102956444D01*
X169050048Y-102968426D01*
X169068768Y-102982310D01*
X169086038Y-102997962D01*
X169101690Y-103015232D01*
X169115574Y-103033952D01*
X169127556Y-103053943D01*
X169137521Y-103075013D01*
X169145373Y-103096957D01*
X169151037Y-103119566D01*
X169154456Y-103142621D01*
X169155600Y-103165900D01*
X169155600Y-103640900D01*
X169154456Y-103664179D01*
X169151037Y-103687234D01*
X169145373Y-103709843D01*
X169137521Y-103731787D01*
X169127556Y-103752857D01*
X169115574Y-103772848D01*
X169101690Y-103791568D01*
X169086038Y-103808838D01*
X169068768Y-103824490D01*
X169050048Y-103838374D01*
X169030057Y-103850356D01*
X169008987Y-103860321D01*
X168987043Y-103868173D01*
X168964434Y-103873837D01*
X168941379Y-103877256D01*
X168918100Y-103878400D01*
X168343100Y-103878400D01*
X168319821Y-103877256D01*
X168296766Y-103873837D01*
X168274157Y-103868173D01*
X168252213Y-103860321D01*
X168231143Y-103850356D01*
X168211152Y-103838374D01*
X168192432Y-103824490D01*
X168175162Y-103808838D01*
X168159510Y-103791568D01*
X168145626Y-103772848D01*
X168133644Y-103752857D01*
X168123679Y-103731787D01*
X168115827Y-103709843D01*
X168110163Y-103687234D01*
X168106744Y-103664179D01*
X168105600Y-103640900D01*
X168105600Y-103165900D01*
X168106744Y-103142621D01*
X168110163Y-103119566D01*
X168115827Y-103096957D01*
X168123679Y-103075013D01*
X168133644Y-103053943D01*
X168145626Y-103033952D01*
X168159510Y-103015232D01*
X168175162Y-102997962D01*
X168192432Y-102982310D01*
X168211152Y-102968426D01*
X168231143Y-102956444D01*
X168252213Y-102946479D01*
X168274157Y-102938627D01*
X168296766Y-102932963D01*
X168319821Y-102929544D01*
X168343100Y-102928400D01*
X168918100Y-102928400D01*
X168941379Y-102929544D01*
G37*
G36*
X174049379Y-102929544D02*
G01*
X174072434Y-102932963D01*
X174095043Y-102938627D01*
X174116987Y-102946479D01*
X174138057Y-102956444D01*
X174158048Y-102968426D01*
X174176768Y-102982310D01*
X174194038Y-102997962D01*
X174209690Y-103015232D01*
X174223574Y-103033952D01*
X174235556Y-103053943D01*
X174245521Y-103075013D01*
X174253373Y-103096957D01*
X174259037Y-103119566D01*
X174262456Y-103142621D01*
X174263600Y-103165900D01*
X174263600Y-103640900D01*
X174262456Y-103664179D01*
X174259037Y-103687234D01*
X174253373Y-103709843D01*
X174245521Y-103731787D01*
X174235556Y-103752857D01*
X174223574Y-103772848D01*
X174209690Y-103791568D01*
X174194038Y-103808838D01*
X174176768Y-103824490D01*
X174158048Y-103838374D01*
X174138057Y-103850356D01*
X174116987Y-103860321D01*
X174095043Y-103868173D01*
X174072434Y-103873837D01*
X174049379Y-103877256D01*
X174026100Y-103878400D01*
X173451100Y-103878400D01*
X173427821Y-103877256D01*
X173404766Y-103873837D01*
X173382157Y-103868173D01*
X173360213Y-103860321D01*
X173339143Y-103850356D01*
X173319152Y-103838374D01*
X173300432Y-103824490D01*
X173283162Y-103808838D01*
X173267510Y-103791568D01*
X173253626Y-103772848D01*
X173241644Y-103752857D01*
X173231679Y-103731787D01*
X173223827Y-103709843D01*
X173218163Y-103687234D01*
X173214744Y-103664179D01*
X173213600Y-103640900D01*
X173213600Y-103165900D01*
X173214744Y-103142621D01*
X173218163Y-103119566D01*
X173223827Y-103096957D01*
X173231679Y-103075013D01*
X173241644Y-103053943D01*
X173253626Y-103033952D01*
X173267510Y-103015232D01*
X173283162Y-102997962D01*
X173300432Y-102982310D01*
X173319152Y-102968426D01*
X173339143Y-102956444D01*
X173360213Y-102946479D01*
X173382157Y-102938627D01*
X173404766Y-102932963D01*
X173427821Y-102929544D01*
X173451100Y-102928400D01*
X174026100Y-102928400D01*
X174049379Y-102929544D01*
G37*
G36*
X175799379Y-102929544D02*
G01*
X175822434Y-102932963D01*
X175845043Y-102938627D01*
X175866987Y-102946479D01*
X175888057Y-102956444D01*
X175908048Y-102968426D01*
X175926768Y-102982310D01*
X175944038Y-102997962D01*
X175959690Y-103015232D01*
X175973574Y-103033952D01*
X175985556Y-103053943D01*
X175995521Y-103075013D01*
X176003373Y-103096957D01*
X176009037Y-103119566D01*
X176012456Y-103142621D01*
X176013600Y-103165900D01*
X176013600Y-103640900D01*
X176012456Y-103664179D01*
X176009037Y-103687234D01*
X176003373Y-103709843D01*
X175995521Y-103731787D01*
X175985556Y-103752857D01*
X175973574Y-103772848D01*
X175959690Y-103791568D01*
X175944038Y-103808838D01*
X175926768Y-103824490D01*
X175908048Y-103838374D01*
X175888057Y-103850356D01*
X175866987Y-103860321D01*
X175845043Y-103868173D01*
X175822434Y-103873837D01*
X175799379Y-103877256D01*
X175776100Y-103878400D01*
X175201100Y-103878400D01*
X175177821Y-103877256D01*
X175154766Y-103873837D01*
X175132157Y-103868173D01*
X175110213Y-103860321D01*
X175089143Y-103850356D01*
X175069152Y-103838374D01*
X175050432Y-103824490D01*
X175033162Y-103808838D01*
X175017510Y-103791568D01*
X175003626Y-103772848D01*
X174991644Y-103752857D01*
X174981679Y-103731787D01*
X174973827Y-103709843D01*
X174968163Y-103687234D01*
X174964744Y-103664179D01*
X174963600Y-103640900D01*
X174963600Y-103165900D01*
X174964744Y-103142621D01*
X174968163Y-103119566D01*
X174973827Y-103096957D01*
X174981679Y-103075013D01*
X174991644Y-103053943D01*
X175003626Y-103033952D01*
X175017510Y-103015232D01*
X175033162Y-102997962D01*
X175050432Y-102982310D01*
X175069152Y-102968426D01*
X175089143Y-102956444D01*
X175110213Y-102946479D01*
X175132157Y-102938627D01*
X175154766Y-102932963D01*
X175177821Y-102929544D01*
X175201100Y-102928400D01*
X175776100Y-102928400D01*
X175799379Y-102929544D01*
G37*
G36*
X181655379Y-102929544D02*
G01*
X181678434Y-102932963D01*
X181701043Y-102938627D01*
X181722987Y-102946479D01*
X181744057Y-102956444D01*
X181764048Y-102968426D01*
X181782768Y-102982310D01*
X181800038Y-102997962D01*
X181815690Y-103015232D01*
X181829574Y-103033952D01*
X181841556Y-103053943D01*
X181851521Y-103075013D01*
X181859373Y-103096957D01*
X181865037Y-103119566D01*
X181868456Y-103142621D01*
X181869600Y-103165900D01*
X181869600Y-103640900D01*
X181868456Y-103664179D01*
X181865037Y-103687234D01*
X181859373Y-103709843D01*
X181851521Y-103731787D01*
X181841556Y-103752857D01*
X181829574Y-103772848D01*
X181815690Y-103791568D01*
X181800038Y-103808838D01*
X181782768Y-103824490D01*
X181764048Y-103838374D01*
X181744057Y-103850356D01*
X181722987Y-103860321D01*
X181701043Y-103868173D01*
X181678434Y-103873837D01*
X181655379Y-103877256D01*
X181632100Y-103878400D01*
X181057100Y-103878400D01*
X181033821Y-103877256D01*
X181010766Y-103873837D01*
X180988157Y-103868173D01*
X180966213Y-103860321D01*
X180945143Y-103850356D01*
X180925152Y-103838374D01*
X180906432Y-103824490D01*
X180889162Y-103808838D01*
X180873510Y-103791568D01*
X180859626Y-103772848D01*
X180847644Y-103752857D01*
X180837679Y-103731787D01*
X180829827Y-103709843D01*
X180824163Y-103687234D01*
X180820744Y-103664179D01*
X180819600Y-103640900D01*
X180819600Y-103165900D01*
X180820744Y-103142621D01*
X180824163Y-103119566D01*
X180829827Y-103096957D01*
X180837679Y-103075013D01*
X180847644Y-103053943D01*
X180859626Y-103033952D01*
X180873510Y-103015232D01*
X180889162Y-102997962D01*
X180906432Y-102982310D01*
X180925152Y-102968426D01*
X180945143Y-102956444D01*
X180966213Y-102946479D01*
X180988157Y-102938627D01*
X181010766Y-102932963D01*
X181033821Y-102929544D01*
X181057100Y-102928400D01*
X181632100Y-102928400D01*
X181655379Y-102929544D01*
G37*
G36*
X183405379Y-102929544D02*
G01*
X183428434Y-102932963D01*
X183451043Y-102938627D01*
X183472987Y-102946479D01*
X183494057Y-102956444D01*
X183514048Y-102968426D01*
X183532768Y-102982310D01*
X183550038Y-102997962D01*
X183565690Y-103015232D01*
X183579574Y-103033952D01*
X183591556Y-103053943D01*
X183601521Y-103075013D01*
X183609373Y-103096957D01*
X183615037Y-103119566D01*
X183618456Y-103142621D01*
X183619600Y-103165900D01*
X183619600Y-103640900D01*
X183618456Y-103664179D01*
X183615037Y-103687234D01*
X183609373Y-103709843D01*
X183601521Y-103731787D01*
X183591556Y-103752857D01*
X183579574Y-103772848D01*
X183565690Y-103791568D01*
X183550038Y-103808838D01*
X183532768Y-103824490D01*
X183514048Y-103838374D01*
X183494057Y-103850356D01*
X183472987Y-103860321D01*
X183451043Y-103868173D01*
X183428434Y-103873837D01*
X183405379Y-103877256D01*
X183382100Y-103878400D01*
X182807100Y-103878400D01*
X182783821Y-103877256D01*
X182760766Y-103873837D01*
X182738157Y-103868173D01*
X182716213Y-103860321D01*
X182695143Y-103850356D01*
X182675152Y-103838374D01*
X182656432Y-103824490D01*
X182639162Y-103808838D01*
X182623510Y-103791568D01*
X182609626Y-103772848D01*
X182597644Y-103752857D01*
X182587679Y-103731787D01*
X182579827Y-103709843D01*
X182574163Y-103687234D01*
X182570744Y-103664179D01*
X182569600Y-103640900D01*
X182569600Y-103165900D01*
X182570744Y-103142621D01*
X182574163Y-103119566D01*
X182579827Y-103096957D01*
X182587679Y-103075013D01*
X182597644Y-103053943D01*
X182609626Y-103033952D01*
X182623510Y-103015232D01*
X182639162Y-102997962D01*
X182656432Y-102982310D01*
X182675152Y-102968426D01*
X182695143Y-102956444D01*
X182716213Y-102946479D01*
X182738157Y-102938627D01*
X182760766Y-102932963D01*
X182783821Y-102929544D01*
X182807100Y-102928400D01*
X183382100Y-102928400D01*
X183405379Y-102929544D01*
G37*
G36*
X189896379Y-102929544D02*
G01*
X189919434Y-102932963D01*
X189942043Y-102938627D01*
X189963987Y-102946479D01*
X189985057Y-102956444D01*
X190005048Y-102968426D01*
X190023768Y-102982310D01*
X190041038Y-102997962D01*
X190056690Y-103015232D01*
X190070574Y-103033952D01*
X190082556Y-103053943D01*
X190092521Y-103075013D01*
X190100373Y-103096957D01*
X190106037Y-103119566D01*
X190109456Y-103142621D01*
X190110600Y-103165900D01*
X190110600Y-103640900D01*
X190109456Y-103664179D01*
X190106037Y-103687234D01*
X190100373Y-103709843D01*
X190092521Y-103731787D01*
X190082556Y-103752857D01*
X190070574Y-103772848D01*
X190056690Y-103791568D01*
X190041038Y-103808838D01*
X190023768Y-103824490D01*
X190005048Y-103838374D01*
X189985057Y-103850356D01*
X189963987Y-103860321D01*
X189942043Y-103868173D01*
X189919434Y-103873837D01*
X189896379Y-103877256D01*
X189873100Y-103878400D01*
X189298100Y-103878400D01*
X189274821Y-103877256D01*
X189251766Y-103873837D01*
X189229157Y-103868173D01*
X189207213Y-103860321D01*
X189186143Y-103850356D01*
X189166152Y-103838374D01*
X189147432Y-103824490D01*
X189130162Y-103808838D01*
X189114510Y-103791568D01*
X189100626Y-103772848D01*
X189088644Y-103752857D01*
X189078679Y-103731787D01*
X189070827Y-103709843D01*
X189065163Y-103687234D01*
X189061744Y-103664179D01*
X189060600Y-103640900D01*
X189060600Y-103165900D01*
X189061744Y-103142621D01*
X189065163Y-103119566D01*
X189070827Y-103096957D01*
X189078679Y-103075013D01*
X189088644Y-103053943D01*
X189100626Y-103033952D01*
X189114510Y-103015232D01*
X189130162Y-102997962D01*
X189147432Y-102982310D01*
X189166152Y-102968426D01*
X189186143Y-102956444D01*
X189207213Y-102946479D01*
X189229157Y-102938627D01*
X189251766Y-102932963D01*
X189274821Y-102929544D01*
X189298100Y-102928400D01*
X189873100Y-102928400D01*
X189896379Y-102929544D01*
G37*
G36*
X188146379Y-102929544D02*
G01*
X188169434Y-102932963D01*
X188192043Y-102938627D01*
X188213987Y-102946479D01*
X188235057Y-102956444D01*
X188255048Y-102968426D01*
X188273768Y-102982310D01*
X188291038Y-102997962D01*
X188306690Y-103015232D01*
X188320574Y-103033952D01*
X188332556Y-103053943D01*
X188342521Y-103075013D01*
X188350373Y-103096957D01*
X188356037Y-103119566D01*
X188359456Y-103142621D01*
X188360600Y-103165900D01*
X188360600Y-103640900D01*
X188359456Y-103664179D01*
X188356037Y-103687234D01*
X188350373Y-103709843D01*
X188342521Y-103731787D01*
X188332556Y-103752857D01*
X188320574Y-103772848D01*
X188306690Y-103791568D01*
X188291038Y-103808838D01*
X188273768Y-103824490D01*
X188255048Y-103838374D01*
X188235057Y-103850356D01*
X188213987Y-103860321D01*
X188192043Y-103868173D01*
X188169434Y-103873837D01*
X188146379Y-103877256D01*
X188123100Y-103878400D01*
X187548100Y-103878400D01*
X187524821Y-103877256D01*
X187501766Y-103873837D01*
X187479157Y-103868173D01*
X187457213Y-103860321D01*
X187436143Y-103850356D01*
X187416152Y-103838374D01*
X187397432Y-103824490D01*
X187380162Y-103808838D01*
X187364510Y-103791568D01*
X187350626Y-103772848D01*
X187338644Y-103752857D01*
X187328679Y-103731787D01*
X187320827Y-103709843D01*
X187315163Y-103687234D01*
X187311744Y-103664179D01*
X187310600Y-103640900D01*
X187310600Y-103165900D01*
X187311744Y-103142621D01*
X187315163Y-103119566D01*
X187320827Y-103096957D01*
X187328679Y-103075013D01*
X187338644Y-103053943D01*
X187350626Y-103033952D01*
X187364510Y-103015232D01*
X187380162Y-102997962D01*
X187397432Y-102982310D01*
X187416152Y-102968426D01*
X187436143Y-102956444D01*
X187457213Y-102946479D01*
X187479157Y-102938627D01*
X187501766Y-102932963D01*
X187524821Y-102929544D01*
X187548100Y-102928400D01*
X188123100Y-102928400D01*
X188146379Y-102929544D01*
G37*
G36*
X108644379Y-71687544D02*
G01*
X108667434Y-71690963D01*
X108690043Y-71696627D01*
X108711987Y-71704479D01*
X108733057Y-71714444D01*
X108753048Y-71726426D01*
X108771768Y-71740310D01*
X108789038Y-71755962D01*
X108804690Y-71773232D01*
X108818574Y-71791952D01*
X108830556Y-71811943D01*
X108840521Y-71833013D01*
X108848373Y-71854957D01*
X108854037Y-71877566D01*
X108857456Y-71900621D01*
X108858600Y-71923900D01*
X108858600Y-72398900D01*
X108857456Y-72422179D01*
X108854037Y-72445234D01*
X108848373Y-72467843D01*
X108840521Y-72489787D01*
X108830556Y-72510857D01*
X108818574Y-72530848D01*
X108804690Y-72549568D01*
X108789038Y-72566838D01*
X108771768Y-72582490D01*
X108753048Y-72596374D01*
X108733057Y-72608356D01*
X108711987Y-72618321D01*
X108690043Y-72626173D01*
X108667434Y-72631837D01*
X108644379Y-72635256D01*
X108621100Y-72636400D01*
X108046100Y-72636400D01*
X108022821Y-72635256D01*
X107999766Y-72631837D01*
X107977157Y-72626173D01*
X107955213Y-72618321D01*
X107934143Y-72608356D01*
X107914152Y-72596374D01*
X107895432Y-72582490D01*
X107878162Y-72566838D01*
X107862510Y-72549568D01*
X107848626Y-72530848D01*
X107836644Y-72510857D01*
X107826679Y-72489787D01*
X107818827Y-72467843D01*
X107813163Y-72445234D01*
X107809744Y-72422179D01*
X107808600Y-72398900D01*
X107808600Y-71923900D01*
X107809744Y-71900621D01*
X107813163Y-71877566D01*
X107818827Y-71854957D01*
X107826679Y-71833013D01*
X107836644Y-71811943D01*
X107848626Y-71791952D01*
X107862510Y-71773232D01*
X107878162Y-71755962D01*
X107895432Y-71740310D01*
X107914152Y-71726426D01*
X107934143Y-71714444D01*
X107955213Y-71704479D01*
X107977157Y-71696627D01*
X107999766Y-71690963D01*
X108022821Y-71687544D01*
X108046100Y-71686400D01*
X108621100Y-71686400D01*
X108644379Y-71687544D01*
G37*
G36*
X110394379Y-71687544D02*
G01*
X110417434Y-71690963D01*
X110440043Y-71696627D01*
X110461987Y-71704479D01*
X110483057Y-71714444D01*
X110503048Y-71726426D01*
X110521768Y-71740310D01*
X110539038Y-71755962D01*
X110554690Y-71773232D01*
X110568574Y-71791952D01*
X110580556Y-71811943D01*
X110590521Y-71833013D01*
X110598373Y-71854957D01*
X110604037Y-71877566D01*
X110607456Y-71900621D01*
X110608600Y-71923900D01*
X110608600Y-72398900D01*
X110607456Y-72422179D01*
X110604037Y-72445234D01*
X110598373Y-72467843D01*
X110590521Y-72489787D01*
X110580556Y-72510857D01*
X110568574Y-72530848D01*
X110554690Y-72549568D01*
X110539038Y-72566838D01*
X110521768Y-72582490D01*
X110503048Y-72596374D01*
X110483057Y-72608356D01*
X110461987Y-72618321D01*
X110440043Y-72626173D01*
X110417434Y-72631837D01*
X110394379Y-72635256D01*
X110371100Y-72636400D01*
X109796100Y-72636400D01*
X109772821Y-72635256D01*
X109749766Y-72631837D01*
X109727157Y-72626173D01*
X109705213Y-72618321D01*
X109684143Y-72608356D01*
X109664152Y-72596374D01*
X109645432Y-72582490D01*
X109628162Y-72566838D01*
X109612510Y-72549568D01*
X109598626Y-72530848D01*
X109586644Y-72510857D01*
X109576679Y-72489787D01*
X109568827Y-72467843D01*
X109563163Y-72445234D01*
X109559744Y-72422179D01*
X109558600Y-72398900D01*
X109558600Y-71923900D01*
X109559744Y-71900621D01*
X109563163Y-71877566D01*
X109568827Y-71854957D01*
X109576679Y-71833013D01*
X109586644Y-71811943D01*
X109598626Y-71791952D01*
X109612510Y-71773232D01*
X109628162Y-71755962D01*
X109645432Y-71740310D01*
X109664152Y-71726426D01*
X109684143Y-71714444D01*
X109705213Y-71704479D01*
X109727157Y-71696627D01*
X109749766Y-71690963D01*
X109772821Y-71687544D01*
X109796100Y-71686400D01*
X110371100Y-71686400D01*
X110394379Y-71687544D01*
G37*
G36*
X115474379Y-71687544D02*
G01*
X115497434Y-71690963D01*
X115520043Y-71696627D01*
X115541987Y-71704479D01*
X115563057Y-71714444D01*
X115583048Y-71726426D01*
X115601768Y-71740310D01*
X115619038Y-71755962D01*
X115634690Y-71773232D01*
X115648574Y-71791952D01*
X115660556Y-71811943D01*
X115670521Y-71833013D01*
X115678373Y-71854957D01*
X115684037Y-71877566D01*
X115687456Y-71900621D01*
X115688600Y-71923900D01*
X115688600Y-72398900D01*
X115687456Y-72422179D01*
X115684037Y-72445234D01*
X115678373Y-72467843D01*
X115670521Y-72489787D01*
X115660556Y-72510857D01*
X115648574Y-72530848D01*
X115634690Y-72549568D01*
X115619038Y-72566838D01*
X115601768Y-72582490D01*
X115583048Y-72596374D01*
X115563057Y-72608356D01*
X115541987Y-72618321D01*
X115520043Y-72626173D01*
X115497434Y-72631837D01*
X115474379Y-72635256D01*
X115451100Y-72636400D01*
X114876100Y-72636400D01*
X114852821Y-72635256D01*
X114829766Y-72631837D01*
X114807157Y-72626173D01*
X114785213Y-72618321D01*
X114764143Y-72608356D01*
X114744152Y-72596374D01*
X114725432Y-72582490D01*
X114708162Y-72566838D01*
X114692510Y-72549568D01*
X114678626Y-72530848D01*
X114666644Y-72510857D01*
X114656679Y-72489787D01*
X114648827Y-72467843D01*
X114643163Y-72445234D01*
X114639744Y-72422179D01*
X114638600Y-72398900D01*
X114638600Y-71923900D01*
X114639744Y-71900621D01*
X114643163Y-71877566D01*
X114648827Y-71854957D01*
X114656679Y-71833013D01*
X114666644Y-71811943D01*
X114678626Y-71791952D01*
X114692510Y-71773232D01*
X114708162Y-71755962D01*
X114725432Y-71740310D01*
X114744152Y-71726426D01*
X114764143Y-71714444D01*
X114785213Y-71704479D01*
X114807157Y-71696627D01*
X114829766Y-71690963D01*
X114852821Y-71687544D01*
X114876100Y-71686400D01*
X115451100Y-71686400D01*
X115474379Y-71687544D01*
G37*
G36*
X117224379Y-71687544D02*
G01*
X117247434Y-71690963D01*
X117270043Y-71696627D01*
X117291987Y-71704479D01*
X117313057Y-71714444D01*
X117333048Y-71726426D01*
X117351768Y-71740310D01*
X117369038Y-71755962D01*
X117384690Y-71773232D01*
X117398574Y-71791952D01*
X117410556Y-71811943D01*
X117420521Y-71833013D01*
X117428373Y-71854957D01*
X117434037Y-71877566D01*
X117437456Y-71900621D01*
X117438600Y-71923900D01*
X117438600Y-72398900D01*
X117437456Y-72422179D01*
X117434037Y-72445234D01*
X117428373Y-72467843D01*
X117420521Y-72489787D01*
X117410556Y-72510857D01*
X117398574Y-72530848D01*
X117384690Y-72549568D01*
X117369038Y-72566838D01*
X117351768Y-72582490D01*
X117333048Y-72596374D01*
X117313057Y-72608356D01*
X117291987Y-72618321D01*
X117270043Y-72626173D01*
X117247434Y-72631837D01*
X117224379Y-72635256D01*
X117201100Y-72636400D01*
X116626100Y-72636400D01*
X116602821Y-72635256D01*
X116579766Y-72631837D01*
X116557157Y-72626173D01*
X116535213Y-72618321D01*
X116514143Y-72608356D01*
X116494152Y-72596374D01*
X116475432Y-72582490D01*
X116458162Y-72566838D01*
X116442510Y-72549568D01*
X116428626Y-72530848D01*
X116416644Y-72510857D01*
X116406679Y-72489787D01*
X116398827Y-72467843D01*
X116393163Y-72445234D01*
X116389744Y-72422179D01*
X116388600Y-72398900D01*
X116388600Y-71923900D01*
X116389744Y-71900621D01*
X116393163Y-71877566D01*
X116398827Y-71854957D01*
X116406679Y-71833013D01*
X116416644Y-71811943D01*
X116428626Y-71791952D01*
X116442510Y-71773232D01*
X116458162Y-71755962D01*
X116475432Y-71740310D01*
X116494152Y-71726426D01*
X116514143Y-71714444D01*
X116535213Y-71704479D01*
X116557157Y-71696627D01*
X116579766Y-71690963D01*
X116602821Y-71687544D01*
X116626100Y-71686400D01*
X117201100Y-71686400D01*
X117224379Y-71687544D01*
G37*
G36*
X122727379Y-71687544D02*
G01*
X122750434Y-71690963D01*
X122773043Y-71696627D01*
X122794987Y-71704479D01*
X122816057Y-71714444D01*
X122836048Y-71726426D01*
X122854768Y-71740310D01*
X122872038Y-71755962D01*
X122887690Y-71773232D01*
X122901574Y-71791952D01*
X122913556Y-71811943D01*
X122923521Y-71833013D01*
X122931373Y-71854957D01*
X122937037Y-71877566D01*
X122940456Y-71900621D01*
X122941600Y-71923900D01*
X122941600Y-72398900D01*
X122940456Y-72422179D01*
X122937037Y-72445234D01*
X122931373Y-72467843D01*
X122923521Y-72489787D01*
X122913556Y-72510857D01*
X122901574Y-72530848D01*
X122887690Y-72549568D01*
X122872038Y-72566838D01*
X122854768Y-72582490D01*
X122836048Y-72596374D01*
X122816057Y-72608356D01*
X122794987Y-72618321D01*
X122773043Y-72626173D01*
X122750434Y-72631837D01*
X122727379Y-72635256D01*
X122704100Y-72636400D01*
X122129100Y-72636400D01*
X122105821Y-72635256D01*
X122082766Y-72631837D01*
X122060157Y-72626173D01*
X122038213Y-72618321D01*
X122017143Y-72608356D01*
X121997152Y-72596374D01*
X121978432Y-72582490D01*
X121961162Y-72566838D01*
X121945510Y-72549568D01*
X121931626Y-72530848D01*
X121919644Y-72510857D01*
X121909679Y-72489787D01*
X121901827Y-72467843D01*
X121896163Y-72445234D01*
X121892744Y-72422179D01*
X121891600Y-72398900D01*
X121891600Y-71923900D01*
X121892744Y-71900621D01*
X121896163Y-71877566D01*
X121901827Y-71854957D01*
X121909679Y-71833013D01*
X121919644Y-71811943D01*
X121931626Y-71791952D01*
X121945510Y-71773232D01*
X121961162Y-71755962D01*
X121978432Y-71740310D01*
X121997152Y-71726426D01*
X122017143Y-71714444D01*
X122038213Y-71704479D01*
X122060157Y-71696627D01*
X122082766Y-71690963D01*
X122105821Y-71687544D01*
X122129100Y-71686400D01*
X122704100Y-71686400D01*
X122727379Y-71687544D01*
G37*
G36*
X124477379Y-71687544D02*
G01*
X124500434Y-71690963D01*
X124523043Y-71696627D01*
X124544987Y-71704479D01*
X124566057Y-71714444D01*
X124586048Y-71726426D01*
X124604768Y-71740310D01*
X124622038Y-71755962D01*
X124637690Y-71773232D01*
X124651574Y-71791952D01*
X124663556Y-71811943D01*
X124673521Y-71833013D01*
X124681373Y-71854957D01*
X124687037Y-71877566D01*
X124690456Y-71900621D01*
X124691600Y-71923900D01*
X124691600Y-72398900D01*
X124690456Y-72422179D01*
X124687037Y-72445234D01*
X124681373Y-72467843D01*
X124673521Y-72489787D01*
X124663556Y-72510857D01*
X124651574Y-72530848D01*
X124637690Y-72549568D01*
X124622038Y-72566838D01*
X124604768Y-72582490D01*
X124586048Y-72596374D01*
X124566057Y-72608356D01*
X124544987Y-72618321D01*
X124523043Y-72626173D01*
X124500434Y-72631837D01*
X124477379Y-72635256D01*
X124454100Y-72636400D01*
X123879100Y-72636400D01*
X123855821Y-72635256D01*
X123832766Y-72631837D01*
X123810157Y-72626173D01*
X123788213Y-72618321D01*
X123767143Y-72608356D01*
X123747152Y-72596374D01*
X123728432Y-72582490D01*
X123711162Y-72566838D01*
X123695510Y-72549568D01*
X123681626Y-72530848D01*
X123669644Y-72510857D01*
X123659679Y-72489787D01*
X123651827Y-72467843D01*
X123646163Y-72445234D01*
X123642744Y-72422179D01*
X123641600Y-72398900D01*
X123641600Y-71923900D01*
X123642744Y-71900621D01*
X123646163Y-71877566D01*
X123651827Y-71854957D01*
X123659679Y-71833013D01*
X123669644Y-71811943D01*
X123681626Y-71791952D01*
X123695510Y-71773232D01*
X123711162Y-71755962D01*
X123728432Y-71740310D01*
X123747152Y-71726426D01*
X123767143Y-71714444D01*
X123788213Y-71704479D01*
X123810157Y-71696627D01*
X123832766Y-71690963D01*
X123855821Y-71687544D01*
X123879100Y-71686400D01*
X124454100Y-71686400D01*
X124477379Y-71687544D01*
G37*
G36*
X129585379Y-71687544D02*
G01*
X129608434Y-71690963D01*
X129631043Y-71696627D01*
X129652987Y-71704479D01*
X129674057Y-71714444D01*
X129694048Y-71726426D01*
X129712768Y-71740310D01*
X129730038Y-71755962D01*
X129745690Y-71773232D01*
X129759574Y-71791952D01*
X129771556Y-71811943D01*
X129781521Y-71833013D01*
X129789373Y-71854957D01*
X129795037Y-71877566D01*
X129798456Y-71900621D01*
X129799600Y-71923900D01*
X129799600Y-72398900D01*
X129798456Y-72422179D01*
X129795037Y-72445234D01*
X129789373Y-72467843D01*
X129781521Y-72489787D01*
X129771556Y-72510857D01*
X129759574Y-72530848D01*
X129745690Y-72549568D01*
X129730038Y-72566838D01*
X129712768Y-72582490D01*
X129694048Y-72596374D01*
X129674057Y-72608356D01*
X129652987Y-72618321D01*
X129631043Y-72626173D01*
X129608434Y-72631837D01*
X129585379Y-72635256D01*
X129562100Y-72636400D01*
X128987100Y-72636400D01*
X128963821Y-72635256D01*
X128940766Y-72631837D01*
X128918157Y-72626173D01*
X128896213Y-72618321D01*
X128875143Y-72608356D01*
X128855152Y-72596374D01*
X128836432Y-72582490D01*
X128819162Y-72566838D01*
X128803510Y-72549568D01*
X128789626Y-72530848D01*
X128777644Y-72510857D01*
X128767679Y-72489787D01*
X128759827Y-72467843D01*
X128754163Y-72445234D01*
X128750744Y-72422179D01*
X128749600Y-72398900D01*
X128749600Y-71923900D01*
X128750744Y-71900621D01*
X128754163Y-71877566D01*
X128759827Y-71854957D01*
X128767679Y-71833013D01*
X128777644Y-71811943D01*
X128789626Y-71791952D01*
X128803510Y-71773232D01*
X128819162Y-71755962D01*
X128836432Y-71740310D01*
X128855152Y-71726426D01*
X128875143Y-71714444D01*
X128896213Y-71704479D01*
X128918157Y-71696627D01*
X128940766Y-71690963D01*
X128963821Y-71687544D01*
X128987100Y-71686400D01*
X129562100Y-71686400D01*
X129585379Y-71687544D01*
G37*
G36*
X131335379Y-71687544D02*
G01*
X131358434Y-71690963D01*
X131381043Y-71696627D01*
X131402987Y-71704479D01*
X131424057Y-71714444D01*
X131444048Y-71726426D01*
X131462768Y-71740310D01*
X131480038Y-71755962D01*
X131495690Y-71773232D01*
X131509574Y-71791952D01*
X131521556Y-71811943D01*
X131531521Y-71833013D01*
X131539373Y-71854957D01*
X131545037Y-71877566D01*
X131548456Y-71900621D01*
X131549600Y-71923900D01*
X131549600Y-72398900D01*
X131548456Y-72422179D01*
X131545037Y-72445234D01*
X131539373Y-72467843D01*
X131531521Y-72489787D01*
X131521556Y-72510857D01*
X131509574Y-72530848D01*
X131495690Y-72549568D01*
X131480038Y-72566838D01*
X131462768Y-72582490D01*
X131444048Y-72596374D01*
X131424057Y-72608356D01*
X131402987Y-72618321D01*
X131381043Y-72626173D01*
X131358434Y-72631837D01*
X131335379Y-72635256D01*
X131312100Y-72636400D01*
X130737100Y-72636400D01*
X130713821Y-72635256D01*
X130690766Y-72631837D01*
X130668157Y-72626173D01*
X130646213Y-72618321D01*
X130625143Y-72608356D01*
X130605152Y-72596374D01*
X130586432Y-72582490D01*
X130569162Y-72566838D01*
X130553510Y-72549568D01*
X130539626Y-72530848D01*
X130527644Y-72510857D01*
X130517679Y-72489787D01*
X130509827Y-72467843D01*
X130504163Y-72445234D01*
X130500744Y-72422179D01*
X130499600Y-72398900D01*
X130499600Y-71923900D01*
X130500744Y-71900621D01*
X130504163Y-71877566D01*
X130509827Y-71854957D01*
X130517679Y-71833013D01*
X130527644Y-71811943D01*
X130539626Y-71791952D01*
X130553510Y-71773232D01*
X130569162Y-71755962D01*
X130586432Y-71740310D01*
X130605152Y-71726426D01*
X130625143Y-71714444D01*
X130646213Y-71704479D01*
X130668157Y-71696627D01*
X130690766Y-71690963D01*
X130713821Y-71687544D01*
X130737100Y-71686400D01*
X131312100Y-71686400D01*
X131335379Y-71687544D01*
G37*
G36*
X136330379Y-71687544D02*
G01*
X136353434Y-71690963D01*
X136376043Y-71696627D01*
X136397987Y-71704479D01*
X136419057Y-71714444D01*
X136439048Y-71726426D01*
X136457768Y-71740310D01*
X136475038Y-71755962D01*
X136490690Y-71773232D01*
X136504574Y-71791952D01*
X136516556Y-71811943D01*
X136526521Y-71833013D01*
X136534373Y-71854957D01*
X136540037Y-71877566D01*
X136543456Y-71900621D01*
X136544600Y-71923900D01*
X136544600Y-72398900D01*
X136543456Y-72422179D01*
X136540037Y-72445234D01*
X136534373Y-72467843D01*
X136526521Y-72489787D01*
X136516556Y-72510857D01*
X136504574Y-72530848D01*
X136490690Y-72549568D01*
X136475038Y-72566838D01*
X136457768Y-72582490D01*
X136439048Y-72596374D01*
X136419057Y-72608356D01*
X136397987Y-72618321D01*
X136376043Y-72626173D01*
X136353434Y-72631837D01*
X136330379Y-72635256D01*
X136307100Y-72636400D01*
X135732100Y-72636400D01*
X135708821Y-72635256D01*
X135685766Y-72631837D01*
X135663157Y-72626173D01*
X135641213Y-72618321D01*
X135620143Y-72608356D01*
X135600152Y-72596374D01*
X135581432Y-72582490D01*
X135564162Y-72566838D01*
X135548510Y-72549568D01*
X135534626Y-72530848D01*
X135522644Y-72510857D01*
X135512679Y-72489787D01*
X135504827Y-72467843D01*
X135499163Y-72445234D01*
X135495744Y-72422179D01*
X135494600Y-72398900D01*
X135494600Y-71923900D01*
X135495744Y-71900621D01*
X135499163Y-71877566D01*
X135504827Y-71854957D01*
X135512679Y-71833013D01*
X135522644Y-71811943D01*
X135534626Y-71791952D01*
X135548510Y-71773232D01*
X135564162Y-71755962D01*
X135581432Y-71740310D01*
X135600152Y-71726426D01*
X135620143Y-71714444D01*
X135641213Y-71704479D01*
X135663157Y-71696627D01*
X135685766Y-71690963D01*
X135708821Y-71687544D01*
X135732100Y-71686400D01*
X136307100Y-71686400D01*
X136330379Y-71687544D01*
G37*
G36*
X138080379Y-71687544D02*
G01*
X138103434Y-71690963D01*
X138126043Y-71696627D01*
X138147987Y-71704479D01*
X138169057Y-71714444D01*
X138189048Y-71726426D01*
X138207768Y-71740310D01*
X138225038Y-71755962D01*
X138240690Y-71773232D01*
X138254574Y-71791952D01*
X138266556Y-71811943D01*
X138276521Y-71833013D01*
X138284373Y-71854957D01*
X138290037Y-71877566D01*
X138293456Y-71900621D01*
X138294600Y-71923900D01*
X138294600Y-72398900D01*
X138293456Y-72422179D01*
X138290037Y-72445234D01*
X138284373Y-72467843D01*
X138276521Y-72489787D01*
X138266556Y-72510857D01*
X138254574Y-72530848D01*
X138240690Y-72549568D01*
X138225038Y-72566838D01*
X138207768Y-72582490D01*
X138189048Y-72596374D01*
X138169057Y-72608356D01*
X138147987Y-72618321D01*
X138126043Y-72626173D01*
X138103434Y-72631837D01*
X138080379Y-72635256D01*
X138057100Y-72636400D01*
X137482100Y-72636400D01*
X137458821Y-72635256D01*
X137435766Y-72631837D01*
X137413157Y-72626173D01*
X137391213Y-72618321D01*
X137370143Y-72608356D01*
X137350152Y-72596374D01*
X137331432Y-72582490D01*
X137314162Y-72566838D01*
X137298510Y-72549568D01*
X137284626Y-72530848D01*
X137272644Y-72510857D01*
X137262679Y-72489787D01*
X137254827Y-72467843D01*
X137249163Y-72445234D01*
X137245744Y-72422179D01*
X137244600Y-72398900D01*
X137244600Y-71923900D01*
X137245744Y-71900621D01*
X137249163Y-71877566D01*
X137254827Y-71854957D01*
X137262679Y-71833013D01*
X137272644Y-71811943D01*
X137284626Y-71791952D01*
X137298510Y-71773232D01*
X137314162Y-71755962D01*
X137331432Y-71740310D01*
X137350152Y-71726426D01*
X137370143Y-71714444D01*
X137391213Y-71704479D01*
X137413157Y-71696627D01*
X137435766Y-71690963D01*
X137458821Y-71687544D01*
X137482100Y-71686400D01*
X138057100Y-71686400D01*
X138080379Y-71687544D01*
G37*
G36*
X145192379Y-71687544D02*
G01*
X145215434Y-71690963D01*
X145238043Y-71696627D01*
X145259987Y-71704479D01*
X145281057Y-71714444D01*
X145301048Y-71726426D01*
X145319768Y-71740310D01*
X145337038Y-71755962D01*
X145352690Y-71773232D01*
X145366574Y-71791952D01*
X145378556Y-71811943D01*
X145388521Y-71833013D01*
X145396373Y-71854957D01*
X145402037Y-71877566D01*
X145405456Y-71900621D01*
X145406600Y-71923900D01*
X145406600Y-72398900D01*
X145405456Y-72422179D01*
X145402037Y-72445234D01*
X145396373Y-72467843D01*
X145388521Y-72489787D01*
X145378556Y-72510857D01*
X145366574Y-72530848D01*
X145352690Y-72549568D01*
X145337038Y-72566838D01*
X145319768Y-72582490D01*
X145301048Y-72596374D01*
X145281057Y-72608356D01*
X145259987Y-72618321D01*
X145238043Y-72626173D01*
X145215434Y-72631837D01*
X145192379Y-72635256D01*
X145169100Y-72636400D01*
X144594100Y-72636400D01*
X144570821Y-72635256D01*
X144547766Y-72631837D01*
X144525157Y-72626173D01*
X144503213Y-72618321D01*
X144482143Y-72608356D01*
X144462152Y-72596374D01*
X144443432Y-72582490D01*
X144426162Y-72566838D01*
X144410510Y-72549568D01*
X144396626Y-72530848D01*
X144384644Y-72510857D01*
X144374679Y-72489787D01*
X144366827Y-72467843D01*
X144361163Y-72445234D01*
X144357744Y-72422179D01*
X144356600Y-72398900D01*
X144356600Y-71923900D01*
X144357744Y-71900621D01*
X144361163Y-71877566D01*
X144366827Y-71854957D01*
X144374679Y-71833013D01*
X144384644Y-71811943D01*
X144396626Y-71791952D01*
X144410510Y-71773232D01*
X144426162Y-71755962D01*
X144443432Y-71740310D01*
X144462152Y-71726426D01*
X144482143Y-71714444D01*
X144503213Y-71704479D01*
X144525157Y-71696627D01*
X144547766Y-71690963D01*
X144570821Y-71687544D01*
X144594100Y-71686400D01*
X145169100Y-71686400D01*
X145192379Y-71687544D01*
G37*
G36*
X143442379Y-71687544D02*
G01*
X143465434Y-71690963D01*
X143488043Y-71696627D01*
X143509987Y-71704479D01*
X143531057Y-71714444D01*
X143551048Y-71726426D01*
X143569768Y-71740310D01*
X143587038Y-71755962D01*
X143602690Y-71773232D01*
X143616574Y-71791952D01*
X143628556Y-71811943D01*
X143638521Y-71833013D01*
X143646373Y-71854957D01*
X143652037Y-71877566D01*
X143655456Y-71900621D01*
X143656600Y-71923900D01*
X143656600Y-72398900D01*
X143655456Y-72422179D01*
X143652037Y-72445234D01*
X143646373Y-72467843D01*
X143638521Y-72489787D01*
X143628556Y-72510857D01*
X143616574Y-72530848D01*
X143602690Y-72549568D01*
X143587038Y-72566838D01*
X143569768Y-72582490D01*
X143551048Y-72596374D01*
X143531057Y-72608356D01*
X143509987Y-72618321D01*
X143488043Y-72626173D01*
X143465434Y-72631837D01*
X143442379Y-72635256D01*
X143419100Y-72636400D01*
X142844100Y-72636400D01*
X142820821Y-72635256D01*
X142797766Y-72631837D01*
X142775157Y-72626173D01*
X142753213Y-72618321D01*
X142732143Y-72608356D01*
X142712152Y-72596374D01*
X142693432Y-72582490D01*
X142676162Y-72566838D01*
X142660510Y-72549568D01*
X142646626Y-72530848D01*
X142634644Y-72510857D01*
X142624679Y-72489787D01*
X142616827Y-72467843D01*
X142611163Y-72445234D01*
X142607744Y-72422179D01*
X142606600Y-72398900D01*
X142606600Y-71923900D01*
X142607744Y-71900621D01*
X142611163Y-71877566D01*
X142616827Y-71854957D01*
X142624679Y-71833013D01*
X142634644Y-71811943D01*
X142646626Y-71791952D01*
X142660510Y-71773232D01*
X142676162Y-71755962D01*
X142693432Y-71740310D01*
X142712152Y-71726426D01*
X142732143Y-71714444D01*
X142753213Y-71704479D01*
X142775157Y-71696627D01*
X142797766Y-71690963D01*
X142820821Y-71687544D01*
X142844100Y-71686400D01*
X143419100Y-71686400D01*
X143442379Y-71687544D01*
G37*
G36*
X152304379Y-71687544D02*
G01*
X152327434Y-71690963D01*
X152350043Y-71696627D01*
X152371987Y-71704479D01*
X152393057Y-71714444D01*
X152413048Y-71726426D01*
X152431768Y-71740310D01*
X152449038Y-71755962D01*
X152464690Y-71773232D01*
X152478574Y-71791952D01*
X152490556Y-71811943D01*
X152500521Y-71833013D01*
X152508373Y-71854957D01*
X152514037Y-71877566D01*
X152517456Y-71900621D01*
X152518600Y-71923900D01*
X152518600Y-72398900D01*
X152517456Y-72422179D01*
X152514037Y-72445234D01*
X152508373Y-72467843D01*
X152500521Y-72489787D01*
X152490556Y-72510857D01*
X152478574Y-72530848D01*
X152464690Y-72549568D01*
X152449038Y-72566838D01*
X152431768Y-72582490D01*
X152413048Y-72596374D01*
X152393057Y-72608356D01*
X152371987Y-72618321D01*
X152350043Y-72626173D01*
X152327434Y-72631837D01*
X152304379Y-72635256D01*
X152281100Y-72636400D01*
X151706100Y-72636400D01*
X151682821Y-72635256D01*
X151659766Y-72631837D01*
X151637157Y-72626173D01*
X151615213Y-72618321D01*
X151594143Y-72608356D01*
X151574152Y-72596374D01*
X151555432Y-72582490D01*
X151538162Y-72566838D01*
X151522510Y-72549568D01*
X151508626Y-72530848D01*
X151496644Y-72510857D01*
X151486679Y-72489787D01*
X151478827Y-72467843D01*
X151473163Y-72445234D01*
X151469744Y-72422179D01*
X151468600Y-72398900D01*
X151468600Y-71923900D01*
X151469744Y-71900621D01*
X151473163Y-71877566D01*
X151478827Y-71854957D01*
X151486679Y-71833013D01*
X151496644Y-71811943D01*
X151508626Y-71791952D01*
X151522510Y-71773232D01*
X151538162Y-71755962D01*
X151555432Y-71740310D01*
X151574152Y-71726426D01*
X151594143Y-71714444D01*
X151615213Y-71704479D01*
X151637157Y-71696627D01*
X151659766Y-71690963D01*
X151682821Y-71687544D01*
X151706100Y-71686400D01*
X152281100Y-71686400D01*
X152304379Y-71687544D01*
G37*
G36*
X150554379Y-71687544D02*
G01*
X150577434Y-71690963D01*
X150600043Y-71696627D01*
X150621987Y-71704479D01*
X150643057Y-71714444D01*
X150663048Y-71726426D01*
X150681768Y-71740310D01*
X150699038Y-71755962D01*
X150714690Y-71773232D01*
X150728574Y-71791952D01*
X150740556Y-71811943D01*
X150750521Y-71833013D01*
X150758373Y-71854957D01*
X150764037Y-71877566D01*
X150767456Y-71900621D01*
X150768600Y-71923900D01*
X150768600Y-72398900D01*
X150767456Y-72422179D01*
X150764037Y-72445234D01*
X150758373Y-72467843D01*
X150750521Y-72489787D01*
X150740556Y-72510857D01*
X150728574Y-72530848D01*
X150714690Y-72549568D01*
X150699038Y-72566838D01*
X150681768Y-72582490D01*
X150663048Y-72596374D01*
X150643057Y-72608356D01*
X150621987Y-72618321D01*
X150600043Y-72626173D01*
X150577434Y-72631837D01*
X150554379Y-72635256D01*
X150531100Y-72636400D01*
X149956100Y-72636400D01*
X149932821Y-72635256D01*
X149909766Y-72631837D01*
X149887157Y-72626173D01*
X149865213Y-72618321D01*
X149844143Y-72608356D01*
X149824152Y-72596374D01*
X149805432Y-72582490D01*
X149788162Y-72566838D01*
X149772510Y-72549568D01*
X149758626Y-72530848D01*
X149746644Y-72510857D01*
X149736679Y-72489787D01*
X149728827Y-72467843D01*
X149723163Y-72445234D01*
X149719744Y-72422179D01*
X149718600Y-72398900D01*
X149718600Y-71923900D01*
X149719744Y-71900621D01*
X149723163Y-71877566D01*
X149728827Y-71854957D01*
X149736679Y-71833013D01*
X149746644Y-71811943D01*
X149758626Y-71791952D01*
X149772510Y-71773232D01*
X149788162Y-71755962D01*
X149805432Y-71740310D01*
X149824152Y-71726426D01*
X149844143Y-71714444D01*
X149865213Y-71704479D01*
X149887157Y-71696627D01*
X149909766Y-71690963D01*
X149932821Y-71687544D01*
X149956100Y-71686400D01*
X150531100Y-71686400D01*
X150554379Y-71687544D01*
G37*
G36*
X159416379Y-71687544D02*
G01*
X159439434Y-71690963D01*
X159462043Y-71696627D01*
X159483987Y-71704479D01*
X159505057Y-71714444D01*
X159525048Y-71726426D01*
X159543768Y-71740310D01*
X159561038Y-71755962D01*
X159576690Y-71773232D01*
X159590574Y-71791952D01*
X159602556Y-71811943D01*
X159612521Y-71833013D01*
X159620373Y-71854957D01*
X159626037Y-71877566D01*
X159629456Y-71900621D01*
X159630600Y-71923900D01*
X159630600Y-72398900D01*
X159629456Y-72422179D01*
X159626037Y-72445234D01*
X159620373Y-72467843D01*
X159612521Y-72489787D01*
X159602556Y-72510857D01*
X159590574Y-72530848D01*
X159576690Y-72549568D01*
X159561038Y-72566838D01*
X159543768Y-72582490D01*
X159525048Y-72596374D01*
X159505057Y-72608356D01*
X159483987Y-72618321D01*
X159462043Y-72626173D01*
X159439434Y-72631837D01*
X159416379Y-72635256D01*
X159393100Y-72636400D01*
X158818100Y-72636400D01*
X158794821Y-72635256D01*
X158771766Y-72631837D01*
X158749157Y-72626173D01*
X158727213Y-72618321D01*
X158706143Y-72608356D01*
X158686152Y-72596374D01*
X158667432Y-72582490D01*
X158650162Y-72566838D01*
X158634510Y-72549568D01*
X158620626Y-72530848D01*
X158608644Y-72510857D01*
X158598679Y-72489787D01*
X158590827Y-72467843D01*
X158585163Y-72445234D01*
X158581744Y-72422179D01*
X158580600Y-72398900D01*
X158580600Y-71923900D01*
X158581744Y-71900621D01*
X158585163Y-71877566D01*
X158590827Y-71854957D01*
X158598679Y-71833013D01*
X158608644Y-71811943D01*
X158620626Y-71791952D01*
X158634510Y-71773232D01*
X158650162Y-71755962D01*
X158667432Y-71740310D01*
X158686152Y-71726426D01*
X158706143Y-71714444D01*
X158727213Y-71704479D01*
X158749157Y-71696627D01*
X158771766Y-71690963D01*
X158794821Y-71687544D01*
X158818100Y-71686400D01*
X159393100Y-71686400D01*
X159416379Y-71687544D01*
G37*
G36*
X157666379Y-71687544D02*
G01*
X157689434Y-71690963D01*
X157712043Y-71696627D01*
X157733987Y-71704479D01*
X157755057Y-71714444D01*
X157775048Y-71726426D01*
X157793768Y-71740310D01*
X157811038Y-71755962D01*
X157826690Y-71773232D01*
X157840574Y-71791952D01*
X157852556Y-71811943D01*
X157862521Y-71833013D01*
X157870373Y-71854957D01*
X157876037Y-71877566D01*
X157879456Y-71900621D01*
X157880600Y-71923900D01*
X157880600Y-72398900D01*
X157879456Y-72422179D01*
X157876037Y-72445234D01*
X157870373Y-72467843D01*
X157862521Y-72489787D01*
X157852556Y-72510857D01*
X157840574Y-72530848D01*
X157826690Y-72549568D01*
X157811038Y-72566838D01*
X157793768Y-72582490D01*
X157775048Y-72596374D01*
X157755057Y-72608356D01*
X157733987Y-72618321D01*
X157712043Y-72626173D01*
X157689434Y-72631837D01*
X157666379Y-72635256D01*
X157643100Y-72636400D01*
X157068100Y-72636400D01*
X157044821Y-72635256D01*
X157021766Y-72631837D01*
X156999157Y-72626173D01*
X156977213Y-72618321D01*
X156956143Y-72608356D01*
X156936152Y-72596374D01*
X156917432Y-72582490D01*
X156900162Y-72566838D01*
X156884510Y-72549568D01*
X156870626Y-72530848D01*
X156858644Y-72510857D01*
X156848679Y-72489787D01*
X156840827Y-72467843D01*
X156835163Y-72445234D01*
X156831744Y-72422179D01*
X156830600Y-72398900D01*
X156830600Y-71923900D01*
X156831744Y-71900621D01*
X156835163Y-71877566D01*
X156840827Y-71854957D01*
X156848679Y-71833013D01*
X156858644Y-71811943D01*
X156870626Y-71791952D01*
X156884510Y-71773232D01*
X156900162Y-71755962D01*
X156917432Y-71740310D01*
X156936152Y-71726426D01*
X156956143Y-71714444D01*
X156977213Y-71704479D01*
X156999157Y-71696627D01*
X157021766Y-71690963D01*
X157044821Y-71687544D01*
X157068100Y-71686400D01*
X157643100Y-71686400D01*
X157666379Y-71687544D01*
G37*
G36*
X166782379Y-71687544D02*
G01*
X166805434Y-71690963D01*
X166828043Y-71696627D01*
X166849987Y-71704479D01*
X166871057Y-71714444D01*
X166891048Y-71726426D01*
X166909768Y-71740310D01*
X166927038Y-71755962D01*
X166942690Y-71773232D01*
X166956574Y-71791952D01*
X166968556Y-71811943D01*
X166978521Y-71833013D01*
X166986373Y-71854957D01*
X166992037Y-71877566D01*
X166995456Y-71900621D01*
X166996600Y-71923900D01*
X166996600Y-72398900D01*
X166995456Y-72422179D01*
X166992037Y-72445234D01*
X166986373Y-72467843D01*
X166978521Y-72489787D01*
X166968556Y-72510857D01*
X166956574Y-72530848D01*
X166942690Y-72549568D01*
X166927038Y-72566838D01*
X166909768Y-72582490D01*
X166891048Y-72596374D01*
X166871057Y-72608356D01*
X166849987Y-72618321D01*
X166828043Y-72626173D01*
X166805434Y-72631837D01*
X166782379Y-72635256D01*
X166759100Y-72636400D01*
X166184100Y-72636400D01*
X166160821Y-72635256D01*
X166137766Y-72631837D01*
X166115157Y-72626173D01*
X166093213Y-72618321D01*
X166072143Y-72608356D01*
X166052152Y-72596374D01*
X166033432Y-72582490D01*
X166016162Y-72566838D01*
X166000510Y-72549568D01*
X165986626Y-72530848D01*
X165974644Y-72510857D01*
X165964679Y-72489787D01*
X165956827Y-72467843D01*
X165951163Y-72445234D01*
X165947744Y-72422179D01*
X165946600Y-72398900D01*
X165946600Y-71923900D01*
X165947744Y-71900621D01*
X165951163Y-71877566D01*
X165956827Y-71854957D01*
X165964679Y-71833013D01*
X165974644Y-71811943D01*
X165986626Y-71791952D01*
X166000510Y-71773232D01*
X166016162Y-71755962D01*
X166033432Y-71740310D01*
X166052152Y-71726426D01*
X166072143Y-71714444D01*
X166093213Y-71704479D01*
X166115157Y-71696627D01*
X166137766Y-71690963D01*
X166160821Y-71687544D01*
X166184100Y-71686400D01*
X166759100Y-71686400D01*
X166782379Y-71687544D01*
G37*
G36*
X165032379Y-71687544D02*
G01*
X165055434Y-71690963D01*
X165078043Y-71696627D01*
X165099987Y-71704479D01*
X165121057Y-71714444D01*
X165141048Y-71726426D01*
X165159768Y-71740310D01*
X165177038Y-71755962D01*
X165192690Y-71773232D01*
X165206574Y-71791952D01*
X165218556Y-71811943D01*
X165228521Y-71833013D01*
X165236373Y-71854957D01*
X165242037Y-71877566D01*
X165245456Y-71900621D01*
X165246600Y-71923900D01*
X165246600Y-72398900D01*
X165245456Y-72422179D01*
X165242037Y-72445234D01*
X165236373Y-72467843D01*
X165228521Y-72489787D01*
X165218556Y-72510857D01*
X165206574Y-72530848D01*
X165192690Y-72549568D01*
X165177038Y-72566838D01*
X165159768Y-72582490D01*
X165141048Y-72596374D01*
X165121057Y-72608356D01*
X165099987Y-72618321D01*
X165078043Y-72626173D01*
X165055434Y-72631837D01*
X165032379Y-72635256D01*
X165009100Y-72636400D01*
X164434100Y-72636400D01*
X164410821Y-72635256D01*
X164387766Y-72631837D01*
X164365157Y-72626173D01*
X164343213Y-72618321D01*
X164322143Y-72608356D01*
X164302152Y-72596374D01*
X164283432Y-72582490D01*
X164266162Y-72566838D01*
X164250510Y-72549568D01*
X164236626Y-72530848D01*
X164224644Y-72510857D01*
X164214679Y-72489787D01*
X164206827Y-72467843D01*
X164201163Y-72445234D01*
X164197744Y-72422179D01*
X164196600Y-72398900D01*
X164196600Y-71923900D01*
X164197744Y-71900621D01*
X164201163Y-71877566D01*
X164206827Y-71854957D01*
X164214679Y-71833013D01*
X164224644Y-71811943D01*
X164236626Y-71791952D01*
X164250510Y-71773232D01*
X164266162Y-71755962D01*
X164283432Y-71740310D01*
X164302152Y-71726426D01*
X164322143Y-71714444D01*
X164343213Y-71704479D01*
X164365157Y-71696627D01*
X164387766Y-71690963D01*
X164410821Y-71687544D01*
X164434100Y-71686400D01*
X165009100Y-71686400D01*
X165032379Y-71687544D01*
G37*
G36*
X173894379Y-71687544D02*
G01*
X173917434Y-71690963D01*
X173940043Y-71696627D01*
X173961987Y-71704479D01*
X173983057Y-71714444D01*
X174003048Y-71726426D01*
X174021768Y-71740310D01*
X174039038Y-71755962D01*
X174054690Y-71773232D01*
X174068574Y-71791952D01*
X174080556Y-71811943D01*
X174090521Y-71833013D01*
X174098373Y-71854957D01*
X174104037Y-71877566D01*
X174107456Y-71900621D01*
X174108600Y-71923900D01*
X174108600Y-72398900D01*
X174107456Y-72422179D01*
X174104037Y-72445234D01*
X174098373Y-72467843D01*
X174090521Y-72489787D01*
X174080556Y-72510857D01*
X174068574Y-72530848D01*
X174054690Y-72549568D01*
X174039038Y-72566838D01*
X174021768Y-72582490D01*
X174003048Y-72596374D01*
X173983057Y-72608356D01*
X173961987Y-72618321D01*
X173940043Y-72626173D01*
X173917434Y-72631837D01*
X173894379Y-72635256D01*
X173871100Y-72636400D01*
X173296100Y-72636400D01*
X173272821Y-72635256D01*
X173249766Y-72631837D01*
X173227157Y-72626173D01*
X173205213Y-72618321D01*
X173184143Y-72608356D01*
X173164152Y-72596374D01*
X173145432Y-72582490D01*
X173128162Y-72566838D01*
X173112510Y-72549568D01*
X173098626Y-72530848D01*
X173086644Y-72510857D01*
X173076679Y-72489787D01*
X173068827Y-72467843D01*
X173063163Y-72445234D01*
X173059744Y-72422179D01*
X173058600Y-72398900D01*
X173058600Y-71923900D01*
X173059744Y-71900621D01*
X173063163Y-71877566D01*
X173068827Y-71854957D01*
X173076679Y-71833013D01*
X173086644Y-71811943D01*
X173098626Y-71791952D01*
X173112510Y-71773232D01*
X173128162Y-71755962D01*
X173145432Y-71740310D01*
X173164152Y-71726426D01*
X173184143Y-71714444D01*
X173205213Y-71704479D01*
X173227157Y-71696627D01*
X173249766Y-71690963D01*
X173272821Y-71687544D01*
X173296100Y-71686400D01*
X173871100Y-71686400D01*
X173894379Y-71687544D01*
G37*
G36*
X172144379Y-71687544D02*
G01*
X172167434Y-71690963D01*
X172190043Y-71696627D01*
X172211987Y-71704479D01*
X172233057Y-71714444D01*
X172253048Y-71726426D01*
X172271768Y-71740310D01*
X172289038Y-71755962D01*
X172304690Y-71773232D01*
X172318574Y-71791952D01*
X172330556Y-71811943D01*
X172340521Y-71833013D01*
X172348373Y-71854957D01*
X172354037Y-71877566D01*
X172357456Y-71900621D01*
X172358600Y-71923900D01*
X172358600Y-72398900D01*
X172357456Y-72422179D01*
X172354037Y-72445234D01*
X172348373Y-72467843D01*
X172340521Y-72489787D01*
X172330556Y-72510857D01*
X172318574Y-72530848D01*
X172304690Y-72549568D01*
X172289038Y-72566838D01*
X172271768Y-72582490D01*
X172253048Y-72596374D01*
X172233057Y-72608356D01*
X172211987Y-72618321D01*
X172190043Y-72626173D01*
X172167434Y-72631837D01*
X172144379Y-72635256D01*
X172121100Y-72636400D01*
X171546100Y-72636400D01*
X171522821Y-72635256D01*
X171499766Y-72631837D01*
X171477157Y-72626173D01*
X171455213Y-72618321D01*
X171434143Y-72608356D01*
X171414152Y-72596374D01*
X171395432Y-72582490D01*
X171378162Y-72566838D01*
X171362510Y-72549568D01*
X171348626Y-72530848D01*
X171336644Y-72510857D01*
X171326679Y-72489787D01*
X171318827Y-72467843D01*
X171313163Y-72445234D01*
X171309744Y-72422179D01*
X171308600Y-72398900D01*
X171308600Y-71923900D01*
X171309744Y-71900621D01*
X171313163Y-71877566D01*
X171318827Y-71854957D01*
X171326679Y-71833013D01*
X171336644Y-71811943D01*
X171348626Y-71791952D01*
X171362510Y-71773232D01*
X171378162Y-71755962D01*
X171395432Y-71740310D01*
X171414152Y-71726426D01*
X171434143Y-71714444D01*
X171455213Y-71704479D01*
X171477157Y-71696627D01*
X171499766Y-71690963D01*
X171522821Y-71687544D01*
X171546100Y-71686400D01*
X172121100Y-71686400D01*
X172144379Y-71687544D01*
G37*
G36*
X181260379Y-71687544D02*
G01*
X181283434Y-71690963D01*
X181306043Y-71696627D01*
X181327987Y-71704479D01*
X181349057Y-71714444D01*
X181369048Y-71726426D01*
X181387768Y-71740310D01*
X181405038Y-71755962D01*
X181420690Y-71773232D01*
X181434574Y-71791952D01*
X181446556Y-71811943D01*
X181456521Y-71833013D01*
X181464373Y-71854957D01*
X181470037Y-71877566D01*
X181473456Y-71900621D01*
X181474600Y-71923900D01*
X181474600Y-72398900D01*
X181473456Y-72422179D01*
X181470037Y-72445234D01*
X181464373Y-72467843D01*
X181456521Y-72489787D01*
X181446556Y-72510857D01*
X181434574Y-72530848D01*
X181420690Y-72549568D01*
X181405038Y-72566838D01*
X181387768Y-72582490D01*
X181369048Y-72596374D01*
X181349057Y-72608356D01*
X181327987Y-72618321D01*
X181306043Y-72626173D01*
X181283434Y-72631837D01*
X181260379Y-72635256D01*
X181237100Y-72636400D01*
X180662100Y-72636400D01*
X180638821Y-72635256D01*
X180615766Y-72631837D01*
X180593157Y-72626173D01*
X180571213Y-72618321D01*
X180550143Y-72608356D01*
X180530152Y-72596374D01*
X180511432Y-72582490D01*
X180494162Y-72566838D01*
X180478510Y-72549568D01*
X180464626Y-72530848D01*
X180452644Y-72510857D01*
X180442679Y-72489787D01*
X180434827Y-72467843D01*
X180429163Y-72445234D01*
X180425744Y-72422179D01*
X180424600Y-72398900D01*
X180424600Y-71923900D01*
X180425744Y-71900621D01*
X180429163Y-71877566D01*
X180434827Y-71854957D01*
X180442679Y-71833013D01*
X180452644Y-71811943D01*
X180464626Y-71791952D01*
X180478510Y-71773232D01*
X180494162Y-71755962D01*
X180511432Y-71740310D01*
X180530152Y-71726426D01*
X180550143Y-71714444D01*
X180571213Y-71704479D01*
X180593157Y-71696627D01*
X180615766Y-71690963D01*
X180638821Y-71687544D01*
X180662100Y-71686400D01*
X181237100Y-71686400D01*
X181260379Y-71687544D01*
G37*
G36*
X179510379Y-71687544D02*
G01*
X179533434Y-71690963D01*
X179556043Y-71696627D01*
X179577987Y-71704479D01*
X179599057Y-71714444D01*
X179619048Y-71726426D01*
X179637768Y-71740310D01*
X179655038Y-71755962D01*
X179670690Y-71773232D01*
X179684574Y-71791952D01*
X179696556Y-71811943D01*
X179706521Y-71833013D01*
X179714373Y-71854957D01*
X179720037Y-71877566D01*
X179723456Y-71900621D01*
X179724600Y-71923900D01*
X179724600Y-72398900D01*
X179723456Y-72422179D01*
X179720037Y-72445234D01*
X179714373Y-72467843D01*
X179706521Y-72489787D01*
X179696556Y-72510857D01*
X179684574Y-72530848D01*
X179670690Y-72549568D01*
X179655038Y-72566838D01*
X179637768Y-72582490D01*
X179619048Y-72596374D01*
X179599057Y-72608356D01*
X179577987Y-72618321D01*
X179556043Y-72626173D01*
X179533434Y-72631837D01*
X179510379Y-72635256D01*
X179487100Y-72636400D01*
X178912100Y-72636400D01*
X178888821Y-72635256D01*
X178865766Y-72631837D01*
X178843157Y-72626173D01*
X178821213Y-72618321D01*
X178800143Y-72608356D01*
X178780152Y-72596374D01*
X178761432Y-72582490D01*
X178744162Y-72566838D01*
X178728510Y-72549568D01*
X178714626Y-72530848D01*
X178702644Y-72510857D01*
X178692679Y-72489787D01*
X178684827Y-72467843D01*
X178679163Y-72445234D01*
X178675744Y-72422179D01*
X178674600Y-72398900D01*
X178674600Y-71923900D01*
X178675744Y-71900621D01*
X178679163Y-71877566D01*
X178684827Y-71854957D01*
X178692679Y-71833013D01*
X178702644Y-71811943D01*
X178714626Y-71791952D01*
X178728510Y-71773232D01*
X178744162Y-71755962D01*
X178761432Y-71740310D01*
X178780152Y-71726426D01*
X178800143Y-71714444D01*
X178821213Y-71704479D01*
X178843157Y-71696627D01*
X178865766Y-71690963D01*
X178888821Y-71687544D01*
X178912100Y-71686400D01*
X179487100Y-71686400D01*
X179510379Y-71687544D01*
G37*
G36*
X188372379Y-71687544D02*
G01*
X188395434Y-71690963D01*
X188418043Y-71696627D01*
X188439987Y-71704479D01*
X188461057Y-71714444D01*
X188481048Y-71726426D01*
X188499768Y-71740310D01*
X188517038Y-71755962D01*
X188532690Y-71773232D01*
X188546574Y-71791952D01*
X188558556Y-71811943D01*
X188568521Y-71833013D01*
X188576373Y-71854957D01*
X188582037Y-71877566D01*
X188585456Y-71900621D01*
X188586600Y-71923900D01*
X188586600Y-72398900D01*
X188585456Y-72422179D01*
X188582037Y-72445234D01*
X188576373Y-72467843D01*
X188568521Y-72489787D01*
X188558556Y-72510857D01*
X188546574Y-72530848D01*
X188532690Y-72549568D01*
X188517038Y-72566838D01*
X188499768Y-72582490D01*
X188481048Y-72596374D01*
X188461057Y-72608356D01*
X188439987Y-72618321D01*
X188418043Y-72626173D01*
X188395434Y-72631837D01*
X188372379Y-72635256D01*
X188349100Y-72636400D01*
X187774100Y-72636400D01*
X187750821Y-72635256D01*
X187727766Y-72631837D01*
X187705157Y-72626173D01*
X187683213Y-72618321D01*
X187662143Y-72608356D01*
X187642152Y-72596374D01*
X187623432Y-72582490D01*
X187606162Y-72566838D01*
X187590510Y-72549568D01*
X187576626Y-72530848D01*
X187564644Y-72510857D01*
X187554679Y-72489787D01*
X187546827Y-72467843D01*
X187541163Y-72445234D01*
X187537744Y-72422179D01*
X187536600Y-72398900D01*
X187536600Y-71923900D01*
X187537744Y-71900621D01*
X187541163Y-71877566D01*
X187546827Y-71854957D01*
X187554679Y-71833013D01*
X187564644Y-71811943D01*
X187576626Y-71791952D01*
X187590510Y-71773232D01*
X187606162Y-71755962D01*
X187623432Y-71740310D01*
X187642152Y-71726426D01*
X187662143Y-71714444D01*
X187683213Y-71704479D01*
X187705157Y-71696627D01*
X187727766Y-71690963D01*
X187750821Y-71687544D01*
X187774100Y-71686400D01*
X188349100Y-71686400D01*
X188372379Y-71687544D01*
G37*
G36*
X186622379Y-71687544D02*
G01*
X186645434Y-71690963D01*
X186668043Y-71696627D01*
X186689987Y-71704479D01*
X186711057Y-71714444D01*
X186731048Y-71726426D01*
X186749768Y-71740310D01*
X186767038Y-71755962D01*
X186782690Y-71773232D01*
X186796574Y-71791952D01*
X186808556Y-71811943D01*
X186818521Y-71833013D01*
X186826373Y-71854957D01*
X186832037Y-71877566D01*
X186835456Y-71900621D01*
X186836600Y-71923900D01*
X186836600Y-72398900D01*
X186835456Y-72422179D01*
X186832037Y-72445234D01*
X186826373Y-72467843D01*
X186818521Y-72489787D01*
X186808556Y-72510857D01*
X186796574Y-72530848D01*
X186782690Y-72549568D01*
X186767038Y-72566838D01*
X186749768Y-72582490D01*
X186731048Y-72596374D01*
X186711057Y-72608356D01*
X186689987Y-72618321D01*
X186668043Y-72626173D01*
X186645434Y-72631837D01*
X186622379Y-72635256D01*
X186599100Y-72636400D01*
X186024100Y-72636400D01*
X186000821Y-72635256D01*
X185977766Y-72631837D01*
X185955157Y-72626173D01*
X185933213Y-72618321D01*
X185912143Y-72608356D01*
X185892152Y-72596374D01*
X185873432Y-72582490D01*
X185856162Y-72566838D01*
X185840510Y-72549568D01*
X185826626Y-72530848D01*
X185814644Y-72510857D01*
X185804679Y-72489787D01*
X185796827Y-72467843D01*
X185791163Y-72445234D01*
X185787744Y-72422179D01*
X185786600Y-72398900D01*
X185786600Y-71923900D01*
X185787744Y-71900621D01*
X185791163Y-71877566D01*
X185796827Y-71854957D01*
X185804679Y-71833013D01*
X185814644Y-71811943D01*
X185826626Y-71791952D01*
X185840510Y-71773232D01*
X185856162Y-71755962D01*
X185873432Y-71740310D01*
X185892152Y-71726426D01*
X185912143Y-71714444D01*
X185933213Y-71704479D01*
X185955157Y-71696627D01*
X185977766Y-71690963D01*
X186000821Y-71687544D01*
X186024100Y-71686400D01*
X186599100Y-71686400D01*
X186622379Y-71687544D01*
G37*
G36*
X130460379Y-82355544D02*
G01*
X130483434Y-82358963D01*
X130506043Y-82364627D01*
X130527987Y-82372479D01*
X130549057Y-82382444D01*
X130569048Y-82394426D01*
X130587768Y-82408310D01*
X130605038Y-82423962D01*
X130620690Y-82441232D01*
X130634574Y-82459952D01*
X130646556Y-82479943D01*
X130656521Y-82501013D01*
X130664373Y-82522957D01*
X130670037Y-82545566D01*
X130673456Y-82568621D01*
X130674600Y-82591900D01*
X130674600Y-83066900D01*
X130673456Y-83090179D01*
X130670037Y-83113234D01*
X130664373Y-83135843D01*
X130656521Y-83157787D01*
X130646556Y-83178857D01*
X130634574Y-83198848D01*
X130620690Y-83217568D01*
X130605038Y-83234838D01*
X130587768Y-83250490D01*
X130569048Y-83264374D01*
X130549057Y-83276356D01*
X130527987Y-83286321D01*
X130506043Y-83294173D01*
X130483434Y-83299837D01*
X130460379Y-83303256D01*
X130437100Y-83304400D01*
X129862100Y-83304400D01*
X129838821Y-83303256D01*
X129815766Y-83299837D01*
X129793157Y-83294173D01*
X129771213Y-83286321D01*
X129750143Y-83276356D01*
X129730152Y-83264374D01*
X129711432Y-83250490D01*
X129694162Y-83234838D01*
X129678510Y-83217568D01*
X129664626Y-83198848D01*
X129652644Y-83178857D01*
X129642679Y-83157787D01*
X129634827Y-83135843D01*
X129629163Y-83113234D01*
X129625744Y-83090179D01*
X129624600Y-83066900D01*
X129624600Y-82591900D01*
X129625744Y-82568621D01*
X129629163Y-82545566D01*
X129634827Y-82522957D01*
X129642679Y-82501013D01*
X129652644Y-82479943D01*
X129664626Y-82459952D01*
X129678510Y-82441232D01*
X129694162Y-82423962D01*
X129711432Y-82408310D01*
X129730152Y-82394426D01*
X129750143Y-82382444D01*
X129771213Y-82372479D01*
X129793157Y-82364627D01*
X129815766Y-82358963D01*
X129838821Y-82355544D01*
X129862100Y-82354400D01*
X130437100Y-82354400D01*
X130460379Y-82355544D01*
G37*
G36*
X128710379Y-82355544D02*
G01*
X128733434Y-82358963D01*
X128756043Y-82364627D01*
X128777987Y-82372479D01*
X128799057Y-82382444D01*
X128819048Y-82394426D01*
X128837768Y-82408310D01*
X128855038Y-82423962D01*
X128870690Y-82441232D01*
X128884574Y-82459952D01*
X128896556Y-82479943D01*
X128906521Y-82501013D01*
X128914373Y-82522957D01*
X128920037Y-82545566D01*
X128923456Y-82568621D01*
X128924600Y-82591900D01*
X128924600Y-83066900D01*
X128923456Y-83090179D01*
X128920037Y-83113234D01*
X128914373Y-83135843D01*
X128906521Y-83157787D01*
X128896556Y-83178857D01*
X128884574Y-83198848D01*
X128870690Y-83217568D01*
X128855038Y-83234838D01*
X128837768Y-83250490D01*
X128819048Y-83264374D01*
X128799057Y-83276356D01*
X128777987Y-83286321D01*
X128756043Y-83294173D01*
X128733434Y-83299837D01*
X128710379Y-83303256D01*
X128687100Y-83304400D01*
X128112100Y-83304400D01*
X128088821Y-83303256D01*
X128065766Y-83299837D01*
X128043157Y-83294173D01*
X128021213Y-83286321D01*
X128000143Y-83276356D01*
X127980152Y-83264374D01*
X127961432Y-83250490D01*
X127944162Y-83234838D01*
X127928510Y-83217568D01*
X127914626Y-83198848D01*
X127902644Y-83178857D01*
X127892679Y-83157787D01*
X127884827Y-83135843D01*
X127879163Y-83113234D01*
X127875744Y-83090179D01*
X127874600Y-83066900D01*
X127874600Y-82591900D01*
X127875744Y-82568621D01*
X127879163Y-82545566D01*
X127884827Y-82522957D01*
X127892679Y-82501013D01*
X127902644Y-82479943D01*
X127914626Y-82459952D01*
X127928510Y-82441232D01*
X127944162Y-82423962D01*
X127961432Y-82408310D01*
X127980152Y-82394426D01*
X128000143Y-82382444D01*
X128021213Y-82372479D01*
X128043157Y-82364627D01*
X128065766Y-82358963D01*
X128088821Y-82355544D01*
X128112100Y-82354400D01*
X128687100Y-82354400D01*
X128710379Y-82355544D01*
G37*
G36*
X150761303Y-91572122D02*
G01*
X150775864Y-91574282D01*
X150790143Y-91577859D01*
X150804003Y-91582818D01*
X150817310Y-91589112D01*
X150829936Y-91596680D01*
X150841759Y-91605448D01*
X150852666Y-91615334D01*
X150862552Y-91626241D01*
X150871320Y-91638064D01*
X150878888Y-91650690D01*
X150885182Y-91663997D01*
X150890141Y-91677857D01*
X150893718Y-91692136D01*
X150895878Y-91706697D01*
X150896600Y-91721400D01*
X150896600Y-93371400D01*
X150895878Y-93386103D01*
X150893718Y-93400664D01*
X150890141Y-93414943D01*
X150885182Y-93428803D01*
X150878888Y-93442110D01*
X150871320Y-93454736D01*
X150862552Y-93466559D01*
X150852666Y-93477466D01*
X150841759Y-93487352D01*
X150829936Y-93496120D01*
X150817310Y-93503688D01*
X150804003Y-93509982D01*
X150790143Y-93514941D01*
X150775864Y-93518518D01*
X150761303Y-93520678D01*
X150746600Y-93521400D01*
X150446600Y-93521400D01*
X150431897Y-93520678D01*
X150417336Y-93518518D01*
X150403057Y-93514941D01*
X150389197Y-93509982D01*
X150375890Y-93503688D01*
X150363264Y-93496120D01*
X150351441Y-93487352D01*
X150340534Y-93477466D01*
X150330648Y-93466559D01*
X150321880Y-93454736D01*
X150314312Y-93442110D01*
X150308018Y-93428803D01*
X150303059Y-93414943D01*
X150299482Y-93400664D01*
X150297322Y-93386103D01*
X150296600Y-93371400D01*
X150296600Y-91721400D01*
X150297322Y-91706697D01*
X150299482Y-91692136D01*
X150303059Y-91677857D01*
X150308018Y-91663997D01*
X150314312Y-91650690D01*
X150321880Y-91638064D01*
X150330648Y-91626241D01*
X150340534Y-91615334D01*
X150351441Y-91605448D01*
X150363264Y-91596680D01*
X150375890Y-91589112D01*
X150389197Y-91582818D01*
X150403057Y-91577859D01*
X150417336Y-91574282D01*
X150431897Y-91572122D01*
X150446600Y-91571400D01*
X150746600Y-91571400D01*
X150761303Y-91572122D01*
G37*
G36*
X149491303Y-91572122D02*
G01*
X149505864Y-91574282D01*
X149520143Y-91577859D01*
X149534003Y-91582818D01*
X149547310Y-91589112D01*
X149559936Y-91596680D01*
X149571759Y-91605448D01*
X149582666Y-91615334D01*
X149592552Y-91626241D01*
X149601320Y-91638064D01*
X149608888Y-91650690D01*
X149615182Y-91663997D01*
X149620141Y-91677857D01*
X149623718Y-91692136D01*
X149625878Y-91706697D01*
X149626600Y-91721400D01*
X149626600Y-93371400D01*
X149625878Y-93386103D01*
X149623718Y-93400664D01*
X149620141Y-93414943D01*
X149615182Y-93428803D01*
X149608888Y-93442110D01*
X149601320Y-93454736D01*
X149592552Y-93466559D01*
X149582666Y-93477466D01*
X149571759Y-93487352D01*
X149559936Y-93496120D01*
X149547310Y-93503688D01*
X149534003Y-93509982D01*
X149520143Y-93514941D01*
X149505864Y-93518518D01*
X149491303Y-93520678D01*
X149476600Y-93521400D01*
X149176600Y-93521400D01*
X149161897Y-93520678D01*
X149147336Y-93518518D01*
X149133057Y-93514941D01*
X149119197Y-93509982D01*
X149105890Y-93503688D01*
X149093264Y-93496120D01*
X149081441Y-93487352D01*
X149070534Y-93477466D01*
X149060648Y-93466559D01*
X149051880Y-93454736D01*
X149044312Y-93442110D01*
X149038018Y-93428803D01*
X149033059Y-93414943D01*
X149029482Y-93400664D01*
X149027322Y-93386103D01*
X149026600Y-93371400D01*
X149026600Y-91721400D01*
X149027322Y-91706697D01*
X149029482Y-91692136D01*
X149033059Y-91677857D01*
X149038018Y-91663997D01*
X149044312Y-91650690D01*
X149051880Y-91638064D01*
X149060648Y-91626241D01*
X149070534Y-91615334D01*
X149081441Y-91605448D01*
X149093264Y-91596680D01*
X149105890Y-91589112D01*
X149119197Y-91582818D01*
X149133057Y-91577859D01*
X149147336Y-91574282D01*
X149161897Y-91572122D01*
X149176600Y-91571400D01*
X149476600Y-91571400D01*
X149491303Y-91572122D01*
G37*
G36*
X148221303Y-91572122D02*
G01*
X148235864Y-91574282D01*
X148250143Y-91577859D01*
X148264003Y-91582818D01*
X148277310Y-91589112D01*
X148289936Y-91596680D01*
X148301759Y-91605448D01*
X148312666Y-91615334D01*
X148322552Y-91626241D01*
X148331320Y-91638064D01*
X148338888Y-91650690D01*
X148345182Y-91663997D01*
X148350141Y-91677857D01*
X148353718Y-91692136D01*
X148355878Y-91706697D01*
X148356600Y-91721400D01*
X148356600Y-93371400D01*
X148355878Y-93386103D01*
X148353718Y-93400664D01*
X148350141Y-93414943D01*
X148345182Y-93428803D01*
X148338888Y-93442110D01*
X148331320Y-93454736D01*
X148322552Y-93466559D01*
X148312666Y-93477466D01*
X148301759Y-93487352D01*
X148289936Y-93496120D01*
X148277310Y-93503688D01*
X148264003Y-93509982D01*
X148250143Y-93514941D01*
X148235864Y-93518518D01*
X148221303Y-93520678D01*
X148206600Y-93521400D01*
X147906600Y-93521400D01*
X147891897Y-93520678D01*
X147877336Y-93518518D01*
X147863057Y-93514941D01*
X147849197Y-93509982D01*
X147835890Y-93503688D01*
X147823264Y-93496120D01*
X147811441Y-93487352D01*
X147800534Y-93477466D01*
X147790648Y-93466559D01*
X147781880Y-93454736D01*
X147774312Y-93442110D01*
X147768018Y-93428803D01*
X147763059Y-93414943D01*
X147759482Y-93400664D01*
X147757322Y-93386103D01*
X147756600Y-93371400D01*
X147756600Y-91721400D01*
X147757322Y-91706697D01*
X147759482Y-91692136D01*
X147763059Y-91677857D01*
X147768018Y-91663997D01*
X147774312Y-91650690D01*
X147781880Y-91638064D01*
X147790648Y-91626241D01*
X147800534Y-91615334D01*
X147811441Y-91605448D01*
X147823264Y-91596680D01*
X147835890Y-91589112D01*
X147849197Y-91582818D01*
X147863057Y-91577859D01*
X147877336Y-91574282D01*
X147891897Y-91572122D01*
X147906600Y-91571400D01*
X148206600Y-91571400D01*
X148221303Y-91572122D01*
G37*
G36*
X146951303Y-91572122D02*
G01*
X146965864Y-91574282D01*
X146980143Y-91577859D01*
X146994003Y-91582818D01*
X147007310Y-91589112D01*
X147019936Y-91596680D01*
X147031759Y-91605448D01*
X147042666Y-91615334D01*
X147052552Y-91626241D01*
X147061320Y-91638064D01*
X147068888Y-91650690D01*
X147075182Y-91663997D01*
X147080141Y-91677857D01*
X147083718Y-91692136D01*
X147085878Y-91706697D01*
X147086600Y-91721400D01*
X147086600Y-93371400D01*
X147085878Y-93386103D01*
X147083718Y-93400664D01*
X147080141Y-93414943D01*
X147075182Y-93428803D01*
X147068888Y-93442110D01*
X147061320Y-93454736D01*
X147052552Y-93466559D01*
X147042666Y-93477466D01*
X147031759Y-93487352D01*
X147019936Y-93496120D01*
X147007310Y-93503688D01*
X146994003Y-93509982D01*
X146980143Y-93514941D01*
X146965864Y-93518518D01*
X146951303Y-93520678D01*
X146936600Y-93521400D01*
X146636600Y-93521400D01*
X146621897Y-93520678D01*
X146607336Y-93518518D01*
X146593057Y-93514941D01*
X146579197Y-93509982D01*
X146565890Y-93503688D01*
X146553264Y-93496120D01*
X146541441Y-93487352D01*
X146530534Y-93477466D01*
X146520648Y-93466559D01*
X146511880Y-93454736D01*
X146504312Y-93442110D01*
X146498018Y-93428803D01*
X146493059Y-93414943D01*
X146489482Y-93400664D01*
X146487322Y-93386103D01*
X146486600Y-93371400D01*
X146486600Y-91721400D01*
X146487322Y-91706697D01*
X146489482Y-91692136D01*
X146493059Y-91677857D01*
X146498018Y-91663997D01*
X146504312Y-91650690D01*
X146511880Y-91638064D01*
X146520648Y-91626241D01*
X146530534Y-91615334D01*
X146541441Y-91605448D01*
X146553264Y-91596680D01*
X146565890Y-91589112D01*
X146579197Y-91582818D01*
X146593057Y-91577859D01*
X146607336Y-91574282D01*
X146621897Y-91572122D01*
X146636600Y-91571400D01*
X146936600Y-91571400D01*
X146951303Y-91572122D01*
G37*
G36*
X145681303Y-91572122D02*
G01*
X145695864Y-91574282D01*
X145710143Y-91577859D01*
X145724003Y-91582818D01*
X145737310Y-91589112D01*
X145749936Y-91596680D01*
X145761759Y-91605448D01*
X145772666Y-91615334D01*
X145782552Y-91626241D01*
X145791320Y-91638064D01*
X145798888Y-91650690D01*
X145805182Y-91663997D01*
X145810141Y-91677857D01*
X145813718Y-91692136D01*
X145815878Y-91706697D01*
X145816600Y-91721400D01*
X145816600Y-93371400D01*
X145815878Y-93386103D01*
X145813718Y-93400664D01*
X145810141Y-93414943D01*
X145805182Y-93428803D01*
X145798888Y-93442110D01*
X145791320Y-93454736D01*
X145782552Y-93466559D01*
X145772666Y-93477466D01*
X145761759Y-93487352D01*
X145749936Y-93496120D01*
X145737310Y-93503688D01*
X145724003Y-93509982D01*
X145710143Y-93514941D01*
X145695864Y-93518518D01*
X145681303Y-93520678D01*
X145666600Y-93521400D01*
X145366600Y-93521400D01*
X145351897Y-93520678D01*
X145337336Y-93518518D01*
X145323057Y-93514941D01*
X145309197Y-93509982D01*
X145295890Y-93503688D01*
X145283264Y-93496120D01*
X145271441Y-93487352D01*
X145260534Y-93477466D01*
X145250648Y-93466559D01*
X145241880Y-93454736D01*
X145234312Y-93442110D01*
X145228018Y-93428803D01*
X145223059Y-93414943D01*
X145219482Y-93400664D01*
X145217322Y-93386103D01*
X145216600Y-93371400D01*
X145216600Y-91721400D01*
X145217322Y-91706697D01*
X145219482Y-91692136D01*
X145223059Y-91677857D01*
X145228018Y-91663997D01*
X145234312Y-91650690D01*
X145241880Y-91638064D01*
X145250648Y-91626241D01*
X145260534Y-91615334D01*
X145271441Y-91605448D01*
X145283264Y-91596680D01*
X145295890Y-91589112D01*
X145309197Y-91582818D01*
X145323057Y-91577859D01*
X145337336Y-91574282D01*
X145351897Y-91572122D01*
X145366600Y-91571400D01*
X145666600Y-91571400D01*
X145681303Y-91572122D01*
G37*
G36*
X144411303Y-91572122D02*
G01*
X144425864Y-91574282D01*
X144440143Y-91577859D01*
X144454003Y-91582818D01*
X144467310Y-91589112D01*
X144479936Y-91596680D01*
X144491759Y-91605448D01*
X144502666Y-91615334D01*
X144512552Y-91626241D01*
X144521320Y-91638064D01*
X144528888Y-91650690D01*
X144535182Y-91663997D01*
X144540141Y-91677857D01*
X144543718Y-91692136D01*
X144545878Y-91706697D01*
X144546600Y-91721400D01*
X144546600Y-93371400D01*
X144545878Y-93386103D01*
X144543718Y-93400664D01*
X144540141Y-93414943D01*
X144535182Y-93428803D01*
X144528888Y-93442110D01*
X144521320Y-93454736D01*
X144512552Y-93466559D01*
X144502666Y-93477466D01*
X144491759Y-93487352D01*
X144479936Y-93496120D01*
X144467310Y-93503688D01*
X144454003Y-93509982D01*
X144440143Y-93514941D01*
X144425864Y-93518518D01*
X144411303Y-93520678D01*
X144396600Y-93521400D01*
X144096600Y-93521400D01*
X144081897Y-93520678D01*
X144067336Y-93518518D01*
X144053057Y-93514941D01*
X144039197Y-93509982D01*
X144025890Y-93503688D01*
X144013264Y-93496120D01*
X144001441Y-93487352D01*
X143990534Y-93477466D01*
X143980648Y-93466559D01*
X143971880Y-93454736D01*
X143964312Y-93442110D01*
X143958018Y-93428803D01*
X143953059Y-93414943D01*
X143949482Y-93400664D01*
X143947322Y-93386103D01*
X143946600Y-93371400D01*
X143946600Y-91721400D01*
X143947322Y-91706697D01*
X143949482Y-91692136D01*
X143953059Y-91677857D01*
X143958018Y-91663997D01*
X143964312Y-91650690D01*
X143971880Y-91638064D01*
X143980648Y-91626241D01*
X143990534Y-91615334D01*
X144001441Y-91605448D01*
X144013264Y-91596680D01*
X144025890Y-91589112D01*
X144039197Y-91582818D01*
X144053057Y-91577859D01*
X144067336Y-91574282D01*
X144081897Y-91572122D01*
X144096600Y-91571400D01*
X144396600Y-91571400D01*
X144411303Y-91572122D01*
G37*
G36*
X143141303Y-91572122D02*
G01*
X143155864Y-91574282D01*
X143170143Y-91577859D01*
X143184003Y-91582818D01*
X143197310Y-91589112D01*
X143209936Y-91596680D01*
X143221759Y-91605448D01*
X143232666Y-91615334D01*
X143242552Y-91626241D01*
X143251320Y-91638064D01*
X143258888Y-91650690D01*
X143265182Y-91663997D01*
X143270141Y-91677857D01*
X143273718Y-91692136D01*
X143275878Y-91706697D01*
X143276600Y-91721400D01*
X143276600Y-93371400D01*
X143275878Y-93386103D01*
X143273718Y-93400664D01*
X143270141Y-93414943D01*
X143265182Y-93428803D01*
X143258888Y-93442110D01*
X143251320Y-93454736D01*
X143242552Y-93466559D01*
X143232666Y-93477466D01*
X143221759Y-93487352D01*
X143209936Y-93496120D01*
X143197310Y-93503688D01*
X143184003Y-93509982D01*
X143170143Y-93514941D01*
X143155864Y-93518518D01*
X143141303Y-93520678D01*
X143126600Y-93521400D01*
X142826600Y-93521400D01*
X142811897Y-93520678D01*
X142797336Y-93518518D01*
X142783057Y-93514941D01*
X142769197Y-93509982D01*
X142755890Y-93503688D01*
X142743264Y-93496120D01*
X142731441Y-93487352D01*
X142720534Y-93477466D01*
X142710648Y-93466559D01*
X142701880Y-93454736D01*
X142694312Y-93442110D01*
X142688018Y-93428803D01*
X142683059Y-93414943D01*
X142679482Y-93400664D01*
X142677322Y-93386103D01*
X142676600Y-93371400D01*
X142676600Y-91721400D01*
X142677322Y-91706697D01*
X142679482Y-91692136D01*
X142683059Y-91677857D01*
X142688018Y-91663997D01*
X142694312Y-91650690D01*
X142701880Y-91638064D01*
X142710648Y-91626241D01*
X142720534Y-91615334D01*
X142731441Y-91605448D01*
X142743264Y-91596680D01*
X142755890Y-91589112D01*
X142769197Y-91582818D01*
X142783057Y-91577859D01*
X142797336Y-91574282D01*
X142811897Y-91572122D01*
X142826600Y-91571400D01*
X143126600Y-91571400D01*
X143141303Y-91572122D01*
G37*
G36*
X141871303Y-91572122D02*
G01*
X141885864Y-91574282D01*
X141900143Y-91577859D01*
X141914003Y-91582818D01*
X141927310Y-91589112D01*
X141939936Y-91596680D01*
X141951759Y-91605448D01*
X141962666Y-91615334D01*
X141972552Y-91626241D01*
X141981320Y-91638064D01*
X141988888Y-91650690D01*
X141995182Y-91663997D01*
X142000141Y-91677857D01*
X142003718Y-91692136D01*
X142005878Y-91706697D01*
X142006600Y-91721400D01*
X142006600Y-93371400D01*
X142005878Y-93386103D01*
X142003718Y-93400664D01*
X142000141Y-93414943D01*
X141995182Y-93428803D01*
X141988888Y-93442110D01*
X141981320Y-93454736D01*
X141972552Y-93466559D01*
X141962666Y-93477466D01*
X141951759Y-93487352D01*
X141939936Y-93496120D01*
X141927310Y-93503688D01*
X141914003Y-93509982D01*
X141900143Y-93514941D01*
X141885864Y-93518518D01*
X141871303Y-93520678D01*
X141856600Y-93521400D01*
X141556600Y-93521400D01*
X141541897Y-93520678D01*
X141527336Y-93518518D01*
X141513057Y-93514941D01*
X141499197Y-93509982D01*
X141485890Y-93503688D01*
X141473264Y-93496120D01*
X141461441Y-93487352D01*
X141450534Y-93477466D01*
X141440648Y-93466559D01*
X141431880Y-93454736D01*
X141424312Y-93442110D01*
X141418018Y-93428803D01*
X141413059Y-93414943D01*
X141409482Y-93400664D01*
X141407322Y-93386103D01*
X141406600Y-93371400D01*
X141406600Y-91721400D01*
X141407322Y-91706697D01*
X141409482Y-91692136D01*
X141413059Y-91677857D01*
X141418018Y-91663997D01*
X141424312Y-91650690D01*
X141431880Y-91638064D01*
X141440648Y-91626241D01*
X141450534Y-91615334D01*
X141461441Y-91605448D01*
X141473264Y-91596680D01*
X141485890Y-91589112D01*
X141499197Y-91582818D01*
X141513057Y-91577859D01*
X141527336Y-91574282D01*
X141541897Y-91572122D01*
X141556600Y-91571400D01*
X141856600Y-91571400D01*
X141871303Y-91572122D01*
G37*
G36*
X141871303Y-96522122D02*
G01*
X141885864Y-96524282D01*
X141900143Y-96527859D01*
X141914003Y-96532818D01*
X141927310Y-96539112D01*
X141939936Y-96546680D01*
X141951759Y-96555448D01*
X141962666Y-96565334D01*
X141972552Y-96576241D01*
X141981320Y-96588064D01*
X141988888Y-96600690D01*
X141995182Y-96613997D01*
X142000141Y-96627857D01*
X142003718Y-96642136D01*
X142005878Y-96656697D01*
X142006600Y-96671400D01*
X142006600Y-98321400D01*
X142005878Y-98336103D01*
X142003718Y-98350664D01*
X142000141Y-98364943D01*
X141995182Y-98378803D01*
X141988888Y-98392110D01*
X141981320Y-98404736D01*
X141972552Y-98416559D01*
X141962666Y-98427466D01*
X141951759Y-98437352D01*
X141939936Y-98446120D01*
X141927310Y-98453688D01*
X141914003Y-98459982D01*
X141900143Y-98464941D01*
X141885864Y-98468518D01*
X141871303Y-98470678D01*
X141856600Y-98471400D01*
X141556600Y-98471400D01*
X141541897Y-98470678D01*
X141527336Y-98468518D01*
X141513057Y-98464941D01*
X141499197Y-98459982D01*
X141485890Y-98453688D01*
X141473264Y-98446120D01*
X141461441Y-98437352D01*
X141450534Y-98427466D01*
X141440648Y-98416559D01*
X141431880Y-98404736D01*
X141424312Y-98392110D01*
X141418018Y-98378803D01*
X141413059Y-98364943D01*
X141409482Y-98350664D01*
X141407322Y-98336103D01*
X141406600Y-98321400D01*
X141406600Y-96671400D01*
X141407322Y-96656697D01*
X141409482Y-96642136D01*
X141413059Y-96627857D01*
X141418018Y-96613997D01*
X141424312Y-96600690D01*
X141431880Y-96588064D01*
X141440648Y-96576241D01*
X141450534Y-96565334D01*
X141461441Y-96555448D01*
X141473264Y-96546680D01*
X141485890Y-96539112D01*
X141499197Y-96532818D01*
X141513057Y-96527859D01*
X141527336Y-96524282D01*
X141541897Y-96522122D01*
X141556600Y-96521400D01*
X141856600Y-96521400D01*
X141871303Y-96522122D01*
G37*
G36*
X143141303Y-96522122D02*
G01*
X143155864Y-96524282D01*
X143170143Y-96527859D01*
X143184003Y-96532818D01*
X143197310Y-96539112D01*
X143209936Y-96546680D01*
X143221759Y-96555448D01*
X143232666Y-96565334D01*
X143242552Y-96576241D01*
X143251320Y-96588064D01*
X143258888Y-96600690D01*
X143265182Y-96613997D01*
X143270141Y-96627857D01*
X143273718Y-96642136D01*
X143275878Y-96656697D01*
X143276600Y-96671400D01*
X143276600Y-98321400D01*
X143275878Y-98336103D01*
X143273718Y-98350664D01*
X143270141Y-98364943D01*
X143265182Y-98378803D01*
X143258888Y-98392110D01*
X143251320Y-98404736D01*
X143242552Y-98416559D01*
X143232666Y-98427466D01*
X143221759Y-98437352D01*
X143209936Y-98446120D01*
X143197310Y-98453688D01*
X143184003Y-98459982D01*
X143170143Y-98464941D01*
X143155864Y-98468518D01*
X143141303Y-98470678D01*
X143126600Y-98471400D01*
X142826600Y-98471400D01*
X142811897Y-98470678D01*
X142797336Y-98468518D01*
X142783057Y-98464941D01*
X142769197Y-98459982D01*
X142755890Y-98453688D01*
X142743264Y-98446120D01*
X142731441Y-98437352D01*
X142720534Y-98427466D01*
X142710648Y-98416559D01*
X142701880Y-98404736D01*
X142694312Y-98392110D01*
X142688018Y-98378803D01*
X142683059Y-98364943D01*
X142679482Y-98350664D01*
X142677322Y-98336103D01*
X142676600Y-98321400D01*
X142676600Y-96671400D01*
X142677322Y-96656697D01*
X142679482Y-96642136D01*
X142683059Y-96627857D01*
X142688018Y-96613997D01*
X142694312Y-96600690D01*
X142701880Y-96588064D01*
X142710648Y-96576241D01*
X142720534Y-96565334D01*
X142731441Y-96555448D01*
X142743264Y-96546680D01*
X142755890Y-96539112D01*
X142769197Y-96532818D01*
X142783057Y-96527859D01*
X142797336Y-96524282D01*
X142811897Y-96522122D01*
X142826600Y-96521400D01*
X143126600Y-96521400D01*
X143141303Y-96522122D01*
G37*
G36*
X144411303Y-96522122D02*
G01*
X144425864Y-96524282D01*
X144440143Y-96527859D01*
X144454003Y-96532818D01*
X144467310Y-96539112D01*
X144479936Y-96546680D01*
X144491759Y-96555448D01*
X144502666Y-96565334D01*
X144512552Y-96576241D01*
X144521320Y-96588064D01*
X144528888Y-96600690D01*
X144535182Y-96613997D01*
X144540141Y-96627857D01*
X144543718Y-96642136D01*
X144545878Y-96656697D01*
X144546600Y-96671400D01*
X144546600Y-98321400D01*
X144545878Y-98336103D01*
X144543718Y-98350664D01*
X144540141Y-98364943D01*
X144535182Y-98378803D01*
X144528888Y-98392110D01*
X144521320Y-98404736D01*
X144512552Y-98416559D01*
X144502666Y-98427466D01*
X144491759Y-98437352D01*
X144479936Y-98446120D01*
X144467310Y-98453688D01*
X144454003Y-98459982D01*
X144440143Y-98464941D01*
X144425864Y-98468518D01*
X144411303Y-98470678D01*
X144396600Y-98471400D01*
X144096600Y-98471400D01*
X144081897Y-98470678D01*
X144067336Y-98468518D01*
X144053057Y-98464941D01*
X144039197Y-98459982D01*
X144025890Y-98453688D01*
X144013264Y-98446120D01*
X144001441Y-98437352D01*
X143990534Y-98427466D01*
X143980648Y-98416559D01*
X143971880Y-98404736D01*
X143964312Y-98392110D01*
X143958018Y-98378803D01*
X143953059Y-98364943D01*
X143949482Y-98350664D01*
X143947322Y-98336103D01*
X143946600Y-98321400D01*
X143946600Y-96671400D01*
X143947322Y-96656697D01*
X143949482Y-96642136D01*
X143953059Y-96627857D01*
X143958018Y-96613997D01*
X143964312Y-96600690D01*
X143971880Y-96588064D01*
X143980648Y-96576241D01*
X143990534Y-96565334D01*
X144001441Y-96555448D01*
X144013264Y-96546680D01*
X144025890Y-96539112D01*
X144039197Y-96532818D01*
X144053057Y-96527859D01*
X144067336Y-96524282D01*
X144081897Y-96522122D01*
X144096600Y-96521400D01*
X144396600Y-96521400D01*
X144411303Y-96522122D01*
G37*
G36*
X145681303Y-96522122D02*
G01*
X145695864Y-96524282D01*
X145710143Y-96527859D01*
X145724003Y-96532818D01*
X145737310Y-96539112D01*
X145749936Y-96546680D01*
X145761759Y-96555448D01*
X145772666Y-96565334D01*
X145782552Y-96576241D01*
X145791320Y-96588064D01*
X145798888Y-96600690D01*
X145805182Y-96613997D01*
X145810141Y-96627857D01*
X145813718Y-96642136D01*
X145815878Y-96656697D01*
X145816600Y-96671400D01*
X145816600Y-98321400D01*
X145815878Y-98336103D01*
X145813718Y-98350664D01*
X145810141Y-98364943D01*
X145805182Y-98378803D01*
X145798888Y-98392110D01*
X145791320Y-98404736D01*
X145782552Y-98416559D01*
X145772666Y-98427466D01*
X145761759Y-98437352D01*
X145749936Y-98446120D01*
X145737310Y-98453688D01*
X145724003Y-98459982D01*
X145710143Y-98464941D01*
X145695864Y-98468518D01*
X145681303Y-98470678D01*
X145666600Y-98471400D01*
X145366600Y-98471400D01*
X145351897Y-98470678D01*
X145337336Y-98468518D01*
X145323057Y-98464941D01*
X145309197Y-98459982D01*
X145295890Y-98453688D01*
X145283264Y-98446120D01*
X145271441Y-98437352D01*
X145260534Y-98427466D01*
X145250648Y-98416559D01*
X145241880Y-98404736D01*
X145234312Y-98392110D01*
X145228018Y-98378803D01*
X145223059Y-98364943D01*
X145219482Y-98350664D01*
X145217322Y-98336103D01*
X145216600Y-98321400D01*
X145216600Y-96671400D01*
X145217322Y-96656697D01*
X145219482Y-96642136D01*
X145223059Y-96627857D01*
X145228018Y-96613997D01*
X145234312Y-96600690D01*
X145241880Y-96588064D01*
X145250648Y-96576241D01*
X145260534Y-96565334D01*
X145271441Y-96555448D01*
X145283264Y-96546680D01*
X145295890Y-96539112D01*
X145309197Y-96532818D01*
X145323057Y-96527859D01*
X145337336Y-96524282D01*
X145351897Y-96522122D01*
X145366600Y-96521400D01*
X145666600Y-96521400D01*
X145681303Y-96522122D01*
G37*
G36*
X146951303Y-96522122D02*
G01*
X146965864Y-96524282D01*
X146980143Y-96527859D01*
X146994003Y-96532818D01*
X147007310Y-96539112D01*
X147019936Y-96546680D01*
X147031759Y-96555448D01*
X147042666Y-96565334D01*
X147052552Y-96576241D01*
X147061320Y-96588064D01*
X147068888Y-96600690D01*
X147075182Y-96613997D01*
X147080141Y-96627857D01*
X147083718Y-96642136D01*
X147085878Y-96656697D01*
X147086600Y-96671400D01*
X147086600Y-98321400D01*
X147085878Y-98336103D01*
X147083718Y-98350664D01*
X147080141Y-98364943D01*
X147075182Y-98378803D01*
X147068888Y-98392110D01*
X147061320Y-98404736D01*
X147052552Y-98416559D01*
X147042666Y-98427466D01*
X147031759Y-98437352D01*
X147019936Y-98446120D01*
X147007310Y-98453688D01*
X146994003Y-98459982D01*
X146980143Y-98464941D01*
X146965864Y-98468518D01*
X146951303Y-98470678D01*
X146936600Y-98471400D01*
X146636600Y-98471400D01*
X146621897Y-98470678D01*
X146607336Y-98468518D01*
X146593057Y-98464941D01*
X146579197Y-98459982D01*
X146565890Y-98453688D01*
X146553264Y-98446120D01*
X146541441Y-98437352D01*
X146530534Y-98427466D01*
X146520648Y-98416559D01*
X146511880Y-98404736D01*
X146504312Y-98392110D01*
X146498018Y-98378803D01*
X146493059Y-98364943D01*
X146489482Y-98350664D01*
X146487322Y-98336103D01*
X146486600Y-98321400D01*
X146486600Y-96671400D01*
X146487322Y-96656697D01*
X146489482Y-96642136D01*
X146493059Y-96627857D01*
X146498018Y-96613997D01*
X146504312Y-96600690D01*
X146511880Y-96588064D01*
X146520648Y-96576241D01*
X146530534Y-96565334D01*
X146541441Y-96555448D01*
X146553264Y-96546680D01*
X146565890Y-96539112D01*
X146579197Y-96532818D01*
X146593057Y-96527859D01*
X146607336Y-96524282D01*
X146621897Y-96522122D01*
X146636600Y-96521400D01*
X146936600Y-96521400D01*
X146951303Y-96522122D01*
G37*
G36*
X148221303Y-96522122D02*
G01*
X148235864Y-96524282D01*
X148250143Y-96527859D01*
X148264003Y-96532818D01*
X148277310Y-96539112D01*
X148289936Y-96546680D01*
X148301759Y-96555448D01*
X148312666Y-96565334D01*
X148322552Y-96576241D01*
X148331320Y-96588064D01*
X148338888Y-96600690D01*
X148345182Y-96613997D01*
X148350141Y-96627857D01*
X148353718Y-96642136D01*
X148355878Y-96656697D01*
X148356600Y-96671400D01*
X148356600Y-98321400D01*
X148355878Y-98336103D01*
X148353718Y-98350664D01*
X148350141Y-98364943D01*
X148345182Y-98378803D01*
X148338888Y-98392110D01*
X148331320Y-98404736D01*
X148322552Y-98416559D01*
X148312666Y-98427466D01*
X148301759Y-98437352D01*
X148289936Y-98446120D01*
X148277310Y-98453688D01*
X148264003Y-98459982D01*
X148250143Y-98464941D01*
X148235864Y-98468518D01*
X148221303Y-98470678D01*
X148206600Y-98471400D01*
X147906600Y-98471400D01*
X147891897Y-98470678D01*
X147877336Y-98468518D01*
X147863057Y-98464941D01*
X147849197Y-98459982D01*
X147835890Y-98453688D01*
X147823264Y-98446120D01*
X147811441Y-98437352D01*
X147800534Y-98427466D01*
X147790648Y-98416559D01*
X147781880Y-98404736D01*
X147774312Y-98392110D01*
X147768018Y-98378803D01*
X147763059Y-98364943D01*
X147759482Y-98350664D01*
X147757322Y-98336103D01*
X147756600Y-98321400D01*
X147756600Y-96671400D01*
X147757322Y-96656697D01*
X147759482Y-96642136D01*
X147763059Y-96627857D01*
X147768018Y-96613997D01*
X147774312Y-96600690D01*
X147781880Y-96588064D01*
X147790648Y-96576241D01*
X147800534Y-96565334D01*
X147811441Y-96555448D01*
X147823264Y-96546680D01*
X147835890Y-96539112D01*
X147849197Y-96532818D01*
X147863057Y-96527859D01*
X147877336Y-96524282D01*
X147891897Y-96522122D01*
X147906600Y-96521400D01*
X148206600Y-96521400D01*
X148221303Y-96522122D01*
G37*
G36*
X149491303Y-96522122D02*
G01*
X149505864Y-96524282D01*
X149520143Y-96527859D01*
X149534003Y-96532818D01*
X149547310Y-96539112D01*
X149559936Y-96546680D01*
X149571759Y-96555448D01*
X149582666Y-96565334D01*
X149592552Y-96576241D01*
X149601320Y-96588064D01*
X149608888Y-96600690D01*
X149615182Y-96613997D01*
X149620141Y-96627857D01*
X149623718Y-96642136D01*
X149625878Y-96656697D01*
X149626600Y-96671400D01*
X149626600Y-98321400D01*
X149625878Y-98336103D01*
X149623718Y-98350664D01*
X149620141Y-98364943D01*
X149615182Y-98378803D01*
X149608888Y-98392110D01*
X149601320Y-98404736D01*
X149592552Y-98416559D01*
X149582666Y-98427466D01*
X149571759Y-98437352D01*
X149559936Y-98446120D01*
X149547310Y-98453688D01*
X149534003Y-98459982D01*
X149520143Y-98464941D01*
X149505864Y-98468518D01*
X149491303Y-98470678D01*
X149476600Y-98471400D01*
X149176600Y-98471400D01*
X149161897Y-98470678D01*
X149147336Y-98468518D01*
X149133057Y-98464941D01*
X149119197Y-98459982D01*
X149105890Y-98453688D01*
X149093264Y-98446120D01*
X149081441Y-98437352D01*
X149070534Y-98427466D01*
X149060648Y-98416559D01*
X149051880Y-98404736D01*
X149044312Y-98392110D01*
X149038018Y-98378803D01*
X149033059Y-98364943D01*
X149029482Y-98350664D01*
X149027322Y-98336103D01*
X149026600Y-98321400D01*
X149026600Y-96671400D01*
X149027322Y-96656697D01*
X149029482Y-96642136D01*
X149033059Y-96627857D01*
X149038018Y-96613997D01*
X149044312Y-96600690D01*
X149051880Y-96588064D01*
X149060648Y-96576241D01*
X149070534Y-96565334D01*
X149081441Y-96555448D01*
X149093264Y-96546680D01*
X149105890Y-96539112D01*
X149119197Y-96532818D01*
X149133057Y-96527859D01*
X149147336Y-96524282D01*
X149161897Y-96522122D01*
X149176600Y-96521400D01*
X149476600Y-96521400D01*
X149491303Y-96522122D01*
G37*
G36*
X150761303Y-96522122D02*
G01*
X150775864Y-96524282D01*
X150790143Y-96527859D01*
X150804003Y-96532818D01*
X150817310Y-96539112D01*
X150829936Y-96546680D01*
X150841759Y-96555448D01*
X150852666Y-96565334D01*
X150862552Y-96576241D01*
X150871320Y-96588064D01*
X150878888Y-96600690D01*
X150885182Y-96613997D01*
X150890141Y-96627857D01*
X150893718Y-96642136D01*
X150895878Y-96656697D01*
X150896600Y-96671400D01*
X150896600Y-98321400D01*
X150895878Y-98336103D01*
X150893718Y-98350664D01*
X150890141Y-98364943D01*
X150885182Y-98378803D01*
X150878888Y-98392110D01*
X150871320Y-98404736D01*
X150862552Y-98416559D01*
X150852666Y-98427466D01*
X150841759Y-98437352D01*
X150829936Y-98446120D01*
X150817310Y-98453688D01*
X150804003Y-98459982D01*
X150790143Y-98464941D01*
X150775864Y-98468518D01*
X150761303Y-98470678D01*
X150746600Y-98471400D01*
X150446600Y-98471400D01*
X150431897Y-98470678D01*
X150417336Y-98468518D01*
X150403057Y-98464941D01*
X150389197Y-98459982D01*
X150375890Y-98453688D01*
X150363264Y-98446120D01*
X150351441Y-98437352D01*
X150340534Y-98427466D01*
X150330648Y-98416559D01*
X150321880Y-98404736D01*
X150314312Y-98392110D01*
X150308018Y-98378803D01*
X150303059Y-98364943D01*
X150299482Y-98350664D01*
X150297322Y-98336103D01*
X150296600Y-98321400D01*
X150296600Y-96671400D01*
X150297322Y-96656697D01*
X150299482Y-96642136D01*
X150303059Y-96627857D01*
X150308018Y-96613997D01*
X150314312Y-96600690D01*
X150321880Y-96588064D01*
X150330648Y-96576241D01*
X150340534Y-96565334D01*
X150351441Y-96555448D01*
X150363264Y-96546680D01*
X150375890Y-96539112D01*
X150389197Y-96532818D01*
X150403057Y-96527859D01*
X150417336Y-96524282D01*
X150431897Y-96522122D01*
X150446600Y-96521400D01*
X150746600Y-96521400D01*
X150761303Y-96522122D01*
G37*
D16*
X160951600Y-80791400D03*
X160951600Y-81591400D03*
X160951600Y-82391400D03*
X160951600Y-83191400D03*
X160951600Y-83991400D03*
X160951600Y-84791400D03*
X160951600Y-85591400D03*
X160951600Y-86391400D03*
D17*
X162401600Y-87841400D03*
X163201600Y-87841400D03*
X164001600Y-87841400D03*
X164801600Y-87841400D03*
X165601600Y-87841400D03*
X166401600Y-87841400D03*
X167201600Y-87841400D03*
X168001600Y-87841400D03*
D16*
X169451600Y-86391400D03*
X169451600Y-85591400D03*
X169451600Y-84791400D03*
X169451600Y-83991400D03*
X169451600Y-83191400D03*
X169451600Y-82391400D03*
X169451600Y-81591400D03*
X169451600Y-80791400D03*
D17*
X168001600Y-79341400D03*
X167201600Y-79341400D03*
X166401600Y-79341400D03*
X165601600Y-79341400D03*
X164801600Y-79341400D03*
X164001600Y-79341400D03*
X163201600Y-79341400D03*
X162401600Y-79341400D03*
D15*
G36*
X162826303Y-96522122D02*
G01*
X162840864Y-96524282D01*
X162855143Y-96527859D01*
X162869003Y-96532818D01*
X162882310Y-96539112D01*
X162894936Y-96546680D01*
X162906759Y-96555448D01*
X162917666Y-96565334D01*
X162927552Y-96576241D01*
X162936320Y-96588064D01*
X162943888Y-96600690D01*
X162950182Y-96613997D01*
X162955141Y-96627857D01*
X162958718Y-96642136D01*
X162960878Y-96656697D01*
X162961600Y-96671400D01*
X162961600Y-98321400D01*
X162960878Y-98336103D01*
X162958718Y-98350664D01*
X162955141Y-98364943D01*
X162950182Y-98378803D01*
X162943888Y-98392110D01*
X162936320Y-98404736D01*
X162927552Y-98416559D01*
X162917666Y-98427466D01*
X162906759Y-98437352D01*
X162894936Y-98446120D01*
X162882310Y-98453688D01*
X162869003Y-98459982D01*
X162855143Y-98464941D01*
X162840864Y-98468518D01*
X162826303Y-98470678D01*
X162811600Y-98471400D01*
X162511600Y-98471400D01*
X162496897Y-98470678D01*
X162482336Y-98468518D01*
X162468057Y-98464941D01*
X162454197Y-98459982D01*
X162440890Y-98453688D01*
X162428264Y-98446120D01*
X162416441Y-98437352D01*
X162405534Y-98427466D01*
X162395648Y-98416559D01*
X162386880Y-98404736D01*
X162379312Y-98392110D01*
X162373018Y-98378803D01*
X162368059Y-98364943D01*
X162364482Y-98350664D01*
X162362322Y-98336103D01*
X162361600Y-98321400D01*
X162361600Y-96671400D01*
X162362322Y-96656697D01*
X162364482Y-96642136D01*
X162368059Y-96627857D01*
X162373018Y-96613997D01*
X162379312Y-96600690D01*
X162386880Y-96588064D01*
X162395648Y-96576241D01*
X162405534Y-96565334D01*
X162416441Y-96555448D01*
X162428264Y-96546680D01*
X162440890Y-96539112D01*
X162454197Y-96532818D01*
X162468057Y-96527859D01*
X162482336Y-96524282D01*
X162496897Y-96522122D01*
X162511600Y-96521400D01*
X162811600Y-96521400D01*
X162826303Y-96522122D01*
G37*
G36*
X161556303Y-96522122D02*
G01*
X161570864Y-96524282D01*
X161585143Y-96527859D01*
X161599003Y-96532818D01*
X161612310Y-96539112D01*
X161624936Y-96546680D01*
X161636759Y-96555448D01*
X161647666Y-96565334D01*
X161657552Y-96576241D01*
X161666320Y-96588064D01*
X161673888Y-96600690D01*
X161680182Y-96613997D01*
X161685141Y-96627857D01*
X161688718Y-96642136D01*
X161690878Y-96656697D01*
X161691600Y-96671400D01*
X161691600Y-98321400D01*
X161690878Y-98336103D01*
X161688718Y-98350664D01*
X161685141Y-98364943D01*
X161680182Y-98378803D01*
X161673888Y-98392110D01*
X161666320Y-98404736D01*
X161657552Y-98416559D01*
X161647666Y-98427466D01*
X161636759Y-98437352D01*
X161624936Y-98446120D01*
X161612310Y-98453688D01*
X161599003Y-98459982D01*
X161585143Y-98464941D01*
X161570864Y-98468518D01*
X161556303Y-98470678D01*
X161541600Y-98471400D01*
X161241600Y-98471400D01*
X161226897Y-98470678D01*
X161212336Y-98468518D01*
X161198057Y-98464941D01*
X161184197Y-98459982D01*
X161170890Y-98453688D01*
X161158264Y-98446120D01*
X161146441Y-98437352D01*
X161135534Y-98427466D01*
X161125648Y-98416559D01*
X161116880Y-98404736D01*
X161109312Y-98392110D01*
X161103018Y-98378803D01*
X161098059Y-98364943D01*
X161094482Y-98350664D01*
X161092322Y-98336103D01*
X161091600Y-98321400D01*
X161091600Y-96671400D01*
X161092322Y-96656697D01*
X161094482Y-96642136D01*
X161098059Y-96627857D01*
X161103018Y-96613997D01*
X161109312Y-96600690D01*
X161116880Y-96588064D01*
X161125648Y-96576241D01*
X161135534Y-96565334D01*
X161146441Y-96555448D01*
X161158264Y-96546680D01*
X161170890Y-96539112D01*
X161184197Y-96532818D01*
X161198057Y-96527859D01*
X161212336Y-96524282D01*
X161226897Y-96522122D01*
X161241600Y-96521400D01*
X161541600Y-96521400D01*
X161556303Y-96522122D01*
G37*
G36*
X160286303Y-96522122D02*
G01*
X160300864Y-96524282D01*
X160315143Y-96527859D01*
X160329003Y-96532818D01*
X160342310Y-96539112D01*
X160354936Y-96546680D01*
X160366759Y-96555448D01*
X160377666Y-96565334D01*
X160387552Y-96576241D01*
X160396320Y-96588064D01*
X160403888Y-96600690D01*
X160410182Y-96613997D01*
X160415141Y-96627857D01*
X160418718Y-96642136D01*
X160420878Y-96656697D01*
X160421600Y-96671400D01*
X160421600Y-98321400D01*
X160420878Y-98336103D01*
X160418718Y-98350664D01*
X160415141Y-98364943D01*
X160410182Y-98378803D01*
X160403888Y-98392110D01*
X160396320Y-98404736D01*
X160387552Y-98416559D01*
X160377666Y-98427466D01*
X160366759Y-98437352D01*
X160354936Y-98446120D01*
X160342310Y-98453688D01*
X160329003Y-98459982D01*
X160315143Y-98464941D01*
X160300864Y-98468518D01*
X160286303Y-98470678D01*
X160271600Y-98471400D01*
X159971600Y-98471400D01*
X159956897Y-98470678D01*
X159942336Y-98468518D01*
X159928057Y-98464941D01*
X159914197Y-98459982D01*
X159900890Y-98453688D01*
X159888264Y-98446120D01*
X159876441Y-98437352D01*
X159865534Y-98427466D01*
X159855648Y-98416559D01*
X159846880Y-98404736D01*
X159839312Y-98392110D01*
X159833018Y-98378803D01*
X159828059Y-98364943D01*
X159824482Y-98350664D01*
X159822322Y-98336103D01*
X159821600Y-98321400D01*
X159821600Y-96671400D01*
X159822322Y-96656697D01*
X159824482Y-96642136D01*
X159828059Y-96627857D01*
X159833018Y-96613997D01*
X159839312Y-96600690D01*
X159846880Y-96588064D01*
X159855648Y-96576241D01*
X159865534Y-96565334D01*
X159876441Y-96555448D01*
X159888264Y-96546680D01*
X159900890Y-96539112D01*
X159914197Y-96532818D01*
X159928057Y-96527859D01*
X159942336Y-96524282D01*
X159956897Y-96522122D01*
X159971600Y-96521400D01*
X160271600Y-96521400D01*
X160286303Y-96522122D01*
G37*
G36*
X159016303Y-96522122D02*
G01*
X159030864Y-96524282D01*
X159045143Y-96527859D01*
X159059003Y-96532818D01*
X159072310Y-96539112D01*
X159084936Y-96546680D01*
X159096759Y-96555448D01*
X159107666Y-96565334D01*
X159117552Y-96576241D01*
X159126320Y-96588064D01*
X159133888Y-96600690D01*
X159140182Y-96613997D01*
X159145141Y-96627857D01*
X159148718Y-96642136D01*
X159150878Y-96656697D01*
X159151600Y-96671400D01*
X159151600Y-98321400D01*
X159150878Y-98336103D01*
X159148718Y-98350664D01*
X159145141Y-98364943D01*
X159140182Y-98378803D01*
X159133888Y-98392110D01*
X159126320Y-98404736D01*
X159117552Y-98416559D01*
X159107666Y-98427466D01*
X159096759Y-98437352D01*
X159084936Y-98446120D01*
X159072310Y-98453688D01*
X159059003Y-98459982D01*
X159045143Y-98464941D01*
X159030864Y-98468518D01*
X159016303Y-98470678D01*
X159001600Y-98471400D01*
X158701600Y-98471400D01*
X158686897Y-98470678D01*
X158672336Y-98468518D01*
X158658057Y-98464941D01*
X158644197Y-98459982D01*
X158630890Y-98453688D01*
X158618264Y-98446120D01*
X158606441Y-98437352D01*
X158595534Y-98427466D01*
X158585648Y-98416559D01*
X158576880Y-98404736D01*
X158569312Y-98392110D01*
X158563018Y-98378803D01*
X158558059Y-98364943D01*
X158554482Y-98350664D01*
X158552322Y-98336103D01*
X158551600Y-98321400D01*
X158551600Y-96671400D01*
X158552322Y-96656697D01*
X158554482Y-96642136D01*
X158558059Y-96627857D01*
X158563018Y-96613997D01*
X158569312Y-96600690D01*
X158576880Y-96588064D01*
X158585648Y-96576241D01*
X158595534Y-96565334D01*
X158606441Y-96555448D01*
X158618264Y-96546680D01*
X158630890Y-96539112D01*
X158644197Y-96532818D01*
X158658057Y-96527859D01*
X158672336Y-96524282D01*
X158686897Y-96522122D01*
X158701600Y-96521400D01*
X159001600Y-96521400D01*
X159016303Y-96522122D01*
G37*
G36*
X157746303Y-96522122D02*
G01*
X157760864Y-96524282D01*
X157775143Y-96527859D01*
X157789003Y-96532818D01*
X157802310Y-96539112D01*
X157814936Y-96546680D01*
X157826759Y-96555448D01*
X157837666Y-96565334D01*
X157847552Y-96576241D01*
X157856320Y-96588064D01*
X157863888Y-96600690D01*
X157870182Y-96613997D01*
X157875141Y-96627857D01*
X157878718Y-96642136D01*
X157880878Y-96656697D01*
X157881600Y-96671400D01*
X157881600Y-98321400D01*
X157880878Y-98336103D01*
X157878718Y-98350664D01*
X157875141Y-98364943D01*
X157870182Y-98378803D01*
X157863888Y-98392110D01*
X157856320Y-98404736D01*
X157847552Y-98416559D01*
X157837666Y-98427466D01*
X157826759Y-98437352D01*
X157814936Y-98446120D01*
X157802310Y-98453688D01*
X157789003Y-98459982D01*
X157775143Y-98464941D01*
X157760864Y-98468518D01*
X157746303Y-98470678D01*
X157731600Y-98471400D01*
X157431600Y-98471400D01*
X157416897Y-98470678D01*
X157402336Y-98468518D01*
X157388057Y-98464941D01*
X157374197Y-98459982D01*
X157360890Y-98453688D01*
X157348264Y-98446120D01*
X157336441Y-98437352D01*
X157325534Y-98427466D01*
X157315648Y-98416559D01*
X157306880Y-98404736D01*
X157299312Y-98392110D01*
X157293018Y-98378803D01*
X157288059Y-98364943D01*
X157284482Y-98350664D01*
X157282322Y-98336103D01*
X157281600Y-98321400D01*
X157281600Y-96671400D01*
X157282322Y-96656697D01*
X157284482Y-96642136D01*
X157288059Y-96627857D01*
X157293018Y-96613997D01*
X157299312Y-96600690D01*
X157306880Y-96588064D01*
X157315648Y-96576241D01*
X157325534Y-96565334D01*
X157336441Y-96555448D01*
X157348264Y-96546680D01*
X157360890Y-96539112D01*
X157374197Y-96532818D01*
X157388057Y-96527859D01*
X157402336Y-96524282D01*
X157416897Y-96522122D01*
X157431600Y-96521400D01*
X157731600Y-96521400D01*
X157746303Y-96522122D01*
G37*
G36*
X156476303Y-96522122D02*
G01*
X156490864Y-96524282D01*
X156505143Y-96527859D01*
X156519003Y-96532818D01*
X156532310Y-96539112D01*
X156544936Y-96546680D01*
X156556759Y-96555448D01*
X156567666Y-96565334D01*
X156577552Y-96576241D01*
X156586320Y-96588064D01*
X156593888Y-96600690D01*
X156600182Y-96613997D01*
X156605141Y-96627857D01*
X156608718Y-96642136D01*
X156610878Y-96656697D01*
X156611600Y-96671400D01*
X156611600Y-98321400D01*
X156610878Y-98336103D01*
X156608718Y-98350664D01*
X156605141Y-98364943D01*
X156600182Y-98378803D01*
X156593888Y-98392110D01*
X156586320Y-98404736D01*
X156577552Y-98416559D01*
X156567666Y-98427466D01*
X156556759Y-98437352D01*
X156544936Y-98446120D01*
X156532310Y-98453688D01*
X156519003Y-98459982D01*
X156505143Y-98464941D01*
X156490864Y-98468518D01*
X156476303Y-98470678D01*
X156461600Y-98471400D01*
X156161600Y-98471400D01*
X156146897Y-98470678D01*
X156132336Y-98468518D01*
X156118057Y-98464941D01*
X156104197Y-98459982D01*
X156090890Y-98453688D01*
X156078264Y-98446120D01*
X156066441Y-98437352D01*
X156055534Y-98427466D01*
X156045648Y-98416559D01*
X156036880Y-98404736D01*
X156029312Y-98392110D01*
X156023018Y-98378803D01*
X156018059Y-98364943D01*
X156014482Y-98350664D01*
X156012322Y-98336103D01*
X156011600Y-98321400D01*
X156011600Y-96671400D01*
X156012322Y-96656697D01*
X156014482Y-96642136D01*
X156018059Y-96627857D01*
X156023018Y-96613997D01*
X156029312Y-96600690D01*
X156036880Y-96588064D01*
X156045648Y-96576241D01*
X156055534Y-96565334D01*
X156066441Y-96555448D01*
X156078264Y-96546680D01*
X156090890Y-96539112D01*
X156104197Y-96532818D01*
X156118057Y-96527859D01*
X156132336Y-96524282D01*
X156146897Y-96522122D01*
X156161600Y-96521400D01*
X156461600Y-96521400D01*
X156476303Y-96522122D01*
G37*
G36*
X155206303Y-96522122D02*
G01*
X155220864Y-96524282D01*
X155235143Y-96527859D01*
X155249003Y-96532818D01*
X155262310Y-96539112D01*
X155274936Y-96546680D01*
X155286759Y-96555448D01*
X155297666Y-96565334D01*
X155307552Y-96576241D01*
X155316320Y-96588064D01*
X155323888Y-96600690D01*
X155330182Y-96613997D01*
X155335141Y-96627857D01*
X155338718Y-96642136D01*
X155340878Y-96656697D01*
X155341600Y-96671400D01*
X155341600Y-98321400D01*
X155340878Y-98336103D01*
X155338718Y-98350664D01*
X155335141Y-98364943D01*
X155330182Y-98378803D01*
X155323888Y-98392110D01*
X155316320Y-98404736D01*
X155307552Y-98416559D01*
X155297666Y-98427466D01*
X155286759Y-98437352D01*
X155274936Y-98446120D01*
X155262310Y-98453688D01*
X155249003Y-98459982D01*
X155235143Y-98464941D01*
X155220864Y-98468518D01*
X155206303Y-98470678D01*
X155191600Y-98471400D01*
X154891600Y-98471400D01*
X154876897Y-98470678D01*
X154862336Y-98468518D01*
X154848057Y-98464941D01*
X154834197Y-98459982D01*
X154820890Y-98453688D01*
X154808264Y-98446120D01*
X154796441Y-98437352D01*
X154785534Y-98427466D01*
X154775648Y-98416559D01*
X154766880Y-98404736D01*
X154759312Y-98392110D01*
X154753018Y-98378803D01*
X154748059Y-98364943D01*
X154744482Y-98350664D01*
X154742322Y-98336103D01*
X154741600Y-98321400D01*
X154741600Y-96671400D01*
X154742322Y-96656697D01*
X154744482Y-96642136D01*
X154748059Y-96627857D01*
X154753018Y-96613997D01*
X154759312Y-96600690D01*
X154766880Y-96588064D01*
X154775648Y-96576241D01*
X154785534Y-96565334D01*
X154796441Y-96555448D01*
X154808264Y-96546680D01*
X154820890Y-96539112D01*
X154834197Y-96532818D01*
X154848057Y-96527859D01*
X154862336Y-96524282D01*
X154876897Y-96522122D01*
X154891600Y-96521400D01*
X155191600Y-96521400D01*
X155206303Y-96522122D01*
G37*
G36*
X153936303Y-96522122D02*
G01*
X153950864Y-96524282D01*
X153965143Y-96527859D01*
X153979003Y-96532818D01*
X153992310Y-96539112D01*
X154004936Y-96546680D01*
X154016759Y-96555448D01*
X154027666Y-96565334D01*
X154037552Y-96576241D01*
X154046320Y-96588064D01*
X154053888Y-96600690D01*
X154060182Y-96613997D01*
X154065141Y-96627857D01*
X154068718Y-96642136D01*
X154070878Y-96656697D01*
X154071600Y-96671400D01*
X154071600Y-98321400D01*
X154070878Y-98336103D01*
X154068718Y-98350664D01*
X154065141Y-98364943D01*
X154060182Y-98378803D01*
X154053888Y-98392110D01*
X154046320Y-98404736D01*
X154037552Y-98416559D01*
X154027666Y-98427466D01*
X154016759Y-98437352D01*
X154004936Y-98446120D01*
X153992310Y-98453688D01*
X153979003Y-98459982D01*
X153965143Y-98464941D01*
X153950864Y-98468518D01*
X153936303Y-98470678D01*
X153921600Y-98471400D01*
X153621600Y-98471400D01*
X153606897Y-98470678D01*
X153592336Y-98468518D01*
X153578057Y-98464941D01*
X153564197Y-98459982D01*
X153550890Y-98453688D01*
X153538264Y-98446120D01*
X153526441Y-98437352D01*
X153515534Y-98427466D01*
X153505648Y-98416559D01*
X153496880Y-98404736D01*
X153489312Y-98392110D01*
X153483018Y-98378803D01*
X153478059Y-98364943D01*
X153474482Y-98350664D01*
X153472322Y-98336103D01*
X153471600Y-98321400D01*
X153471600Y-96671400D01*
X153472322Y-96656697D01*
X153474482Y-96642136D01*
X153478059Y-96627857D01*
X153483018Y-96613997D01*
X153489312Y-96600690D01*
X153496880Y-96588064D01*
X153505648Y-96576241D01*
X153515534Y-96565334D01*
X153526441Y-96555448D01*
X153538264Y-96546680D01*
X153550890Y-96539112D01*
X153564197Y-96532818D01*
X153578057Y-96527859D01*
X153592336Y-96524282D01*
X153606897Y-96522122D01*
X153621600Y-96521400D01*
X153921600Y-96521400D01*
X153936303Y-96522122D01*
G37*
G36*
X153936303Y-91572122D02*
G01*
X153950864Y-91574282D01*
X153965143Y-91577859D01*
X153979003Y-91582818D01*
X153992310Y-91589112D01*
X154004936Y-91596680D01*
X154016759Y-91605448D01*
X154027666Y-91615334D01*
X154037552Y-91626241D01*
X154046320Y-91638064D01*
X154053888Y-91650690D01*
X154060182Y-91663997D01*
X154065141Y-91677857D01*
X154068718Y-91692136D01*
X154070878Y-91706697D01*
X154071600Y-91721400D01*
X154071600Y-93371400D01*
X154070878Y-93386103D01*
X154068718Y-93400664D01*
X154065141Y-93414943D01*
X154060182Y-93428803D01*
X154053888Y-93442110D01*
X154046320Y-93454736D01*
X154037552Y-93466559D01*
X154027666Y-93477466D01*
X154016759Y-93487352D01*
X154004936Y-93496120D01*
X153992310Y-93503688D01*
X153979003Y-93509982D01*
X153965143Y-93514941D01*
X153950864Y-93518518D01*
X153936303Y-93520678D01*
X153921600Y-93521400D01*
X153621600Y-93521400D01*
X153606897Y-93520678D01*
X153592336Y-93518518D01*
X153578057Y-93514941D01*
X153564197Y-93509982D01*
X153550890Y-93503688D01*
X153538264Y-93496120D01*
X153526441Y-93487352D01*
X153515534Y-93477466D01*
X153505648Y-93466559D01*
X153496880Y-93454736D01*
X153489312Y-93442110D01*
X153483018Y-93428803D01*
X153478059Y-93414943D01*
X153474482Y-93400664D01*
X153472322Y-93386103D01*
X153471600Y-93371400D01*
X153471600Y-91721400D01*
X153472322Y-91706697D01*
X153474482Y-91692136D01*
X153478059Y-91677857D01*
X153483018Y-91663997D01*
X153489312Y-91650690D01*
X153496880Y-91638064D01*
X153505648Y-91626241D01*
X153515534Y-91615334D01*
X153526441Y-91605448D01*
X153538264Y-91596680D01*
X153550890Y-91589112D01*
X153564197Y-91582818D01*
X153578057Y-91577859D01*
X153592336Y-91574282D01*
X153606897Y-91572122D01*
X153621600Y-91571400D01*
X153921600Y-91571400D01*
X153936303Y-91572122D01*
G37*
G36*
X155206303Y-91572122D02*
G01*
X155220864Y-91574282D01*
X155235143Y-91577859D01*
X155249003Y-91582818D01*
X155262310Y-91589112D01*
X155274936Y-91596680D01*
X155286759Y-91605448D01*
X155297666Y-91615334D01*
X155307552Y-91626241D01*
X155316320Y-91638064D01*
X155323888Y-91650690D01*
X155330182Y-91663997D01*
X155335141Y-91677857D01*
X155338718Y-91692136D01*
X155340878Y-91706697D01*
X155341600Y-91721400D01*
X155341600Y-93371400D01*
X155340878Y-93386103D01*
X155338718Y-93400664D01*
X155335141Y-93414943D01*
X155330182Y-93428803D01*
X155323888Y-93442110D01*
X155316320Y-93454736D01*
X155307552Y-93466559D01*
X155297666Y-93477466D01*
X155286759Y-93487352D01*
X155274936Y-93496120D01*
X155262310Y-93503688D01*
X155249003Y-93509982D01*
X155235143Y-93514941D01*
X155220864Y-93518518D01*
X155206303Y-93520678D01*
X155191600Y-93521400D01*
X154891600Y-93521400D01*
X154876897Y-93520678D01*
X154862336Y-93518518D01*
X154848057Y-93514941D01*
X154834197Y-93509982D01*
X154820890Y-93503688D01*
X154808264Y-93496120D01*
X154796441Y-93487352D01*
X154785534Y-93477466D01*
X154775648Y-93466559D01*
X154766880Y-93454736D01*
X154759312Y-93442110D01*
X154753018Y-93428803D01*
X154748059Y-93414943D01*
X154744482Y-93400664D01*
X154742322Y-93386103D01*
X154741600Y-93371400D01*
X154741600Y-91721400D01*
X154742322Y-91706697D01*
X154744482Y-91692136D01*
X154748059Y-91677857D01*
X154753018Y-91663997D01*
X154759312Y-91650690D01*
X154766880Y-91638064D01*
X154775648Y-91626241D01*
X154785534Y-91615334D01*
X154796441Y-91605448D01*
X154808264Y-91596680D01*
X154820890Y-91589112D01*
X154834197Y-91582818D01*
X154848057Y-91577859D01*
X154862336Y-91574282D01*
X154876897Y-91572122D01*
X154891600Y-91571400D01*
X155191600Y-91571400D01*
X155206303Y-91572122D01*
G37*
G36*
X156476303Y-91572122D02*
G01*
X156490864Y-91574282D01*
X156505143Y-91577859D01*
X156519003Y-91582818D01*
X156532310Y-91589112D01*
X156544936Y-91596680D01*
X156556759Y-91605448D01*
X156567666Y-91615334D01*
X156577552Y-91626241D01*
X156586320Y-91638064D01*
X156593888Y-91650690D01*
X156600182Y-91663997D01*
X156605141Y-91677857D01*
X156608718Y-91692136D01*
X156610878Y-91706697D01*
X156611600Y-91721400D01*
X156611600Y-93371400D01*
X156610878Y-93386103D01*
X156608718Y-93400664D01*
X156605141Y-93414943D01*
X156600182Y-93428803D01*
X156593888Y-93442110D01*
X156586320Y-93454736D01*
X156577552Y-93466559D01*
X156567666Y-93477466D01*
X156556759Y-93487352D01*
X156544936Y-93496120D01*
X156532310Y-93503688D01*
X156519003Y-93509982D01*
X156505143Y-93514941D01*
X156490864Y-93518518D01*
X156476303Y-93520678D01*
X156461600Y-93521400D01*
X156161600Y-93521400D01*
X156146897Y-93520678D01*
X156132336Y-93518518D01*
X156118057Y-93514941D01*
X156104197Y-93509982D01*
X156090890Y-93503688D01*
X156078264Y-93496120D01*
X156066441Y-93487352D01*
X156055534Y-93477466D01*
X156045648Y-93466559D01*
X156036880Y-93454736D01*
X156029312Y-93442110D01*
X156023018Y-93428803D01*
X156018059Y-93414943D01*
X156014482Y-93400664D01*
X156012322Y-93386103D01*
X156011600Y-93371400D01*
X156011600Y-91721400D01*
X156012322Y-91706697D01*
X156014482Y-91692136D01*
X156018059Y-91677857D01*
X156023018Y-91663997D01*
X156029312Y-91650690D01*
X156036880Y-91638064D01*
X156045648Y-91626241D01*
X156055534Y-91615334D01*
X156066441Y-91605448D01*
X156078264Y-91596680D01*
X156090890Y-91589112D01*
X156104197Y-91582818D01*
X156118057Y-91577859D01*
X156132336Y-91574282D01*
X156146897Y-91572122D01*
X156161600Y-91571400D01*
X156461600Y-91571400D01*
X156476303Y-91572122D01*
G37*
G36*
X157746303Y-91572122D02*
G01*
X157760864Y-91574282D01*
X157775143Y-91577859D01*
X157789003Y-91582818D01*
X157802310Y-91589112D01*
X157814936Y-91596680D01*
X157826759Y-91605448D01*
X157837666Y-91615334D01*
X157847552Y-91626241D01*
X157856320Y-91638064D01*
X157863888Y-91650690D01*
X157870182Y-91663997D01*
X157875141Y-91677857D01*
X157878718Y-91692136D01*
X157880878Y-91706697D01*
X157881600Y-91721400D01*
X157881600Y-93371400D01*
X157880878Y-93386103D01*
X157878718Y-93400664D01*
X157875141Y-93414943D01*
X157870182Y-93428803D01*
X157863888Y-93442110D01*
X157856320Y-93454736D01*
X157847552Y-93466559D01*
X157837666Y-93477466D01*
X157826759Y-93487352D01*
X157814936Y-93496120D01*
X157802310Y-93503688D01*
X157789003Y-93509982D01*
X157775143Y-93514941D01*
X157760864Y-93518518D01*
X157746303Y-93520678D01*
X157731600Y-93521400D01*
X157431600Y-93521400D01*
X157416897Y-93520678D01*
X157402336Y-93518518D01*
X157388057Y-93514941D01*
X157374197Y-93509982D01*
X157360890Y-93503688D01*
X157348264Y-93496120D01*
X157336441Y-93487352D01*
X157325534Y-93477466D01*
X157315648Y-93466559D01*
X157306880Y-93454736D01*
X157299312Y-93442110D01*
X157293018Y-93428803D01*
X157288059Y-93414943D01*
X157284482Y-93400664D01*
X157282322Y-93386103D01*
X157281600Y-93371400D01*
X157281600Y-91721400D01*
X157282322Y-91706697D01*
X157284482Y-91692136D01*
X157288059Y-91677857D01*
X157293018Y-91663997D01*
X157299312Y-91650690D01*
X157306880Y-91638064D01*
X157315648Y-91626241D01*
X157325534Y-91615334D01*
X157336441Y-91605448D01*
X157348264Y-91596680D01*
X157360890Y-91589112D01*
X157374197Y-91582818D01*
X157388057Y-91577859D01*
X157402336Y-91574282D01*
X157416897Y-91572122D01*
X157431600Y-91571400D01*
X157731600Y-91571400D01*
X157746303Y-91572122D01*
G37*
G36*
X159016303Y-91572122D02*
G01*
X159030864Y-91574282D01*
X159045143Y-91577859D01*
X159059003Y-91582818D01*
X159072310Y-91589112D01*
X159084936Y-91596680D01*
X159096759Y-91605448D01*
X159107666Y-91615334D01*
X159117552Y-91626241D01*
X159126320Y-91638064D01*
X159133888Y-91650690D01*
X159140182Y-91663997D01*
X159145141Y-91677857D01*
X159148718Y-91692136D01*
X159150878Y-91706697D01*
X159151600Y-91721400D01*
X159151600Y-93371400D01*
X159150878Y-93386103D01*
X159148718Y-93400664D01*
X159145141Y-93414943D01*
X159140182Y-93428803D01*
X159133888Y-93442110D01*
X159126320Y-93454736D01*
X159117552Y-93466559D01*
X159107666Y-93477466D01*
X159096759Y-93487352D01*
X159084936Y-93496120D01*
X159072310Y-93503688D01*
X159059003Y-93509982D01*
X159045143Y-93514941D01*
X159030864Y-93518518D01*
X159016303Y-93520678D01*
X159001600Y-93521400D01*
X158701600Y-93521400D01*
X158686897Y-93520678D01*
X158672336Y-93518518D01*
X158658057Y-93514941D01*
X158644197Y-93509982D01*
X158630890Y-93503688D01*
X158618264Y-93496120D01*
X158606441Y-93487352D01*
X158595534Y-93477466D01*
X158585648Y-93466559D01*
X158576880Y-93454736D01*
X158569312Y-93442110D01*
X158563018Y-93428803D01*
X158558059Y-93414943D01*
X158554482Y-93400664D01*
X158552322Y-93386103D01*
X158551600Y-93371400D01*
X158551600Y-91721400D01*
X158552322Y-91706697D01*
X158554482Y-91692136D01*
X158558059Y-91677857D01*
X158563018Y-91663997D01*
X158569312Y-91650690D01*
X158576880Y-91638064D01*
X158585648Y-91626241D01*
X158595534Y-91615334D01*
X158606441Y-91605448D01*
X158618264Y-91596680D01*
X158630890Y-91589112D01*
X158644197Y-91582818D01*
X158658057Y-91577859D01*
X158672336Y-91574282D01*
X158686897Y-91572122D01*
X158701600Y-91571400D01*
X159001600Y-91571400D01*
X159016303Y-91572122D01*
G37*
G36*
X160286303Y-91572122D02*
G01*
X160300864Y-91574282D01*
X160315143Y-91577859D01*
X160329003Y-91582818D01*
X160342310Y-91589112D01*
X160354936Y-91596680D01*
X160366759Y-91605448D01*
X160377666Y-91615334D01*
X160387552Y-91626241D01*
X160396320Y-91638064D01*
X160403888Y-91650690D01*
X160410182Y-91663997D01*
X160415141Y-91677857D01*
X160418718Y-91692136D01*
X160420878Y-91706697D01*
X160421600Y-91721400D01*
X160421600Y-93371400D01*
X160420878Y-93386103D01*
X160418718Y-93400664D01*
X160415141Y-93414943D01*
X160410182Y-93428803D01*
X160403888Y-93442110D01*
X160396320Y-93454736D01*
X160387552Y-93466559D01*
X160377666Y-93477466D01*
X160366759Y-93487352D01*
X160354936Y-93496120D01*
X160342310Y-93503688D01*
X160329003Y-93509982D01*
X160315143Y-93514941D01*
X160300864Y-93518518D01*
X160286303Y-93520678D01*
X160271600Y-93521400D01*
X159971600Y-93521400D01*
X159956897Y-93520678D01*
X159942336Y-93518518D01*
X159928057Y-93514941D01*
X159914197Y-93509982D01*
X159900890Y-93503688D01*
X159888264Y-93496120D01*
X159876441Y-93487352D01*
X159865534Y-93477466D01*
X159855648Y-93466559D01*
X159846880Y-93454736D01*
X159839312Y-93442110D01*
X159833018Y-93428803D01*
X159828059Y-93414943D01*
X159824482Y-93400664D01*
X159822322Y-93386103D01*
X159821600Y-93371400D01*
X159821600Y-91721400D01*
X159822322Y-91706697D01*
X159824482Y-91692136D01*
X159828059Y-91677857D01*
X159833018Y-91663997D01*
X159839312Y-91650690D01*
X159846880Y-91638064D01*
X159855648Y-91626241D01*
X159865534Y-91615334D01*
X159876441Y-91605448D01*
X159888264Y-91596680D01*
X159900890Y-91589112D01*
X159914197Y-91582818D01*
X159928057Y-91577859D01*
X159942336Y-91574282D01*
X159956897Y-91572122D01*
X159971600Y-91571400D01*
X160271600Y-91571400D01*
X160286303Y-91572122D01*
G37*
G36*
X161556303Y-91572122D02*
G01*
X161570864Y-91574282D01*
X161585143Y-91577859D01*
X161599003Y-91582818D01*
X161612310Y-91589112D01*
X161624936Y-91596680D01*
X161636759Y-91605448D01*
X161647666Y-91615334D01*
X161657552Y-91626241D01*
X161666320Y-91638064D01*
X161673888Y-91650690D01*
X161680182Y-91663997D01*
X161685141Y-91677857D01*
X161688718Y-91692136D01*
X161690878Y-91706697D01*
X161691600Y-91721400D01*
X161691600Y-93371400D01*
X161690878Y-93386103D01*
X161688718Y-93400664D01*
X161685141Y-93414943D01*
X161680182Y-93428803D01*
X161673888Y-93442110D01*
X161666320Y-93454736D01*
X161657552Y-93466559D01*
X161647666Y-93477466D01*
X161636759Y-93487352D01*
X161624936Y-93496120D01*
X161612310Y-93503688D01*
X161599003Y-93509982D01*
X161585143Y-93514941D01*
X161570864Y-93518518D01*
X161556303Y-93520678D01*
X161541600Y-93521400D01*
X161241600Y-93521400D01*
X161226897Y-93520678D01*
X161212336Y-93518518D01*
X161198057Y-93514941D01*
X161184197Y-93509982D01*
X161170890Y-93503688D01*
X161158264Y-93496120D01*
X161146441Y-93487352D01*
X161135534Y-93477466D01*
X161125648Y-93466559D01*
X161116880Y-93454736D01*
X161109312Y-93442110D01*
X161103018Y-93428803D01*
X161098059Y-93414943D01*
X161094482Y-93400664D01*
X161092322Y-93386103D01*
X161091600Y-93371400D01*
X161091600Y-91721400D01*
X161092322Y-91706697D01*
X161094482Y-91692136D01*
X161098059Y-91677857D01*
X161103018Y-91663997D01*
X161109312Y-91650690D01*
X161116880Y-91638064D01*
X161125648Y-91626241D01*
X161135534Y-91615334D01*
X161146441Y-91605448D01*
X161158264Y-91596680D01*
X161170890Y-91589112D01*
X161184197Y-91582818D01*
X161198057Y-91577859D01*
X161212336Y-91574282D01*
X161226897Y-91572122D01*
X161241600Y-91571400D01*
X161541600Y-91571400D01*
X161556303Y-91572122D01*
G37*
G36*
X162826303Y-91572122D02*
G01*
X162840864Y-91574282D01*
X162855143Y-91577859D01*
X162869003Y-91582818D01*
X162882310Y-91589112D01*
X162894936Y-91596680D01*
X162906759Y-91605448D01*
X162917666Y-91615334D01*
X162927552Y-91626241D01*
X162936320Y-91638064D01*
X162943888Y-91650690D01*
X162950182Y-91663997D01*
X162955141Y-91677857D01*
X162958718Y-91692136D01*
X162960878Y-91706697D01*
X162961600Y-91721400D01*
X162961600Y-93371400D01*
X162960878Y-93386103D01*
X162958718Y-93400664D01*
X162955141Y-93414943D01*
X162950182Y-93428803D01*
X162943888Y-93442110D01*
X162936320Y-93454736D01*
X162927552Y-93466559D01*
X162917666Y-93477466D01*
X162906759Y-93487352D01*
X162894936Y-93496120D01*
X162882310Y-93503688D01*
X162869003Y-93509982D01*
X162855143Y-93514941D01*
X162840864Y-93518518D01*
X162826303Y-93520678D01*
X162811600Y-93521400D01*
X162511600Y-93521400D01*
X162496897Y-93520678D01*
X162482336Y-93518518D01*
X162468057Y-93514941D01*
X162454197Y-93509982D01*
X162440890Y-93503688D01*
X162428264Y-93496120D01*
X162416441Y-93487352D01*
X162405534Y-93477466D01*
X162395648Y-93466559D01*
X162386880Y-93454736D01*
X162379312Y-93442110D01*
X162373018Y-93428803D01*
X162368059Y-93414943D01*
X162364482Y-93400664D01*
X162362322Y-93386103D01*
X162361600Y-93371400D01*
X162361600Y-91721400D01*
X162362322Y-91706697D01*
X162364482Y-91692136D01*
X162368059Y-91677857D01*
X162373018Y-91663997D01*
X162379312Y-91650690D01*
X162386880Y-91638064D01*
X162395648Y-91626241D01*
X162405534Y-91615334D01*
X162416441Y-91605448D01*
X162428264Y-91596680D01*
X162440890Y-91589112D01*
X162454197Y-91582818D01*
X162468057Y-91577859D01*
X162482336Y-91574282D01*
X162496897Y-91572122D01*
X162511600Y-91571400D01*
X162811600Y-91571400D01*
X162826303Y-91572122D01*
G37*
D10*
X142066600Y-80046400D03*
X142066600Y-80696400D03*
X142066600Y-81346400D03*
X142066600Y-81996400D03*
X142066600Y-82646400D03*
X142066600Y-83296400D03*
X142066600Y-83946400D03*
X142066600Y-84596400D03*
X136266600Y-84596400D03*
X136266600Y-83946400D03*
X136266600Y-83296400D03*
X136266600Y-82646400D03*
X136266600Y-81996400D03*
X136266600Y-81346400D03*
X136266600Y-80696400D03*
X136266600Y-80046400D03*
M02*
