G04 #@! TF.GenerationSoftware,KiCad,Pcbnew,5.1.5-52549c5~84~ubuntu18.04.1*
G04 #@! TF.CreationDate,2019-12-28T22:58:30-05:00*
G04 #@! TF.ProjectId,landfill_board_rev1,6c616e64-6669-46c6-9c5f-626f6172645f,rev?*
G04 #@! TF.SameCoordinates,Original*
G04 #@! TF.FileFunction,Soldermask,Bot*
G04 #@! TF.FilePolarity,Negative*
%FSLAX46Y46*%
G04 Gerber Fmt 4.6, Leading zero omitted, Abs format (unit mm)*
G04 Created by KiCad (PCBNEW 5.1.5-52549c5~84~ubuntu18.04.1) date 2019-12-28 22:58:30*
%MOMM*%
%LPD*%
G04 APERTURE LIST*
%ADD10C,0.100000*%
G04 APERTURE END LIST*
D10*
G36*
X157317366Y-105753299D02*
G01*
X157449488Y-105808026D01*
X157449490Y-105808027D01*
X157568398Y-105887479D01*
X157669521Y-105988602D01*
X157669522Y-105988604D01*
X157748974Y-106107512D01*
X157803701Y-106239634D01*
X157831600Y-106379894D01*
X157831600Y-106522906D01*
X157803701Y-106663166D01*
X157748974Y-106795288D01*
X157748973Y-106795290D01*
X157669521Y-106914198D01*
X157568398Y-107015321D01*
X157449490Y-107094773D01*
X157449489Y-107094774D01*
X157449488Y-107094774D01*
X157317366Y-107149501D01*
X157177106Y-107177400D01*
X157034094Y-107177400D01*
X156893834Y-107149501D01*
X156761712Y-107094774D01*
X156761711Y-107094774D01*
X156761710Y-107094773D01*
X156642802Y-107015321D01*
X156541679Y-106914198D01*
X156462227Y-106795290D01*
X156462226Y-106795288D01*
X156407499Y-106663166D01*
X156379600Y-106522906D01*
X156379600Y-106379894D01*
X156407499Y-106239634D01*
X156462226Y-106107512D01*
X156541678Y-105988604D01*
X156541679Y-105988602D01*
X156642802Y-105887479D01*
X156761710Y-105808027D01*
X156761712Y-105808026D01*
X156893834Y-105753299D01*
X157034094Y-105725400D01*
X157177106Y-105725400D01*
X157317366Y-105753299D01*
G37*
G36*
X152719600Y-107177400D02*
G01*
X151267600Y-107177400D01*
X151267600Y-105725400D01*
X152719600Y-105725400D01*
X152719600Y-107177400D01*
G37*
G36*
X188787600Y-107177400D02*
G01*
X187335600Y-107177400D01*
X187335600Y-105725400D01*
X188787600Y-105725400D01*
X188787600Y-107177400D01*
G37*
G36*
X179034366Y-105753299D02*
G01*
X179166488Y-105808026D01*
X179166490Y-105808027D01*
X179285398Y-105887479D01*
X179386521Y-105988602D01*
X179386522Y-105988604D01*
X179465974Y-106107512D01*
X179520701Y-106239634D01*
X179548600Y-106379894D01*
X179548600Y-106522906D01*
X179520701Y-106663166D01*
X179465974Y-106795288D01*
X179465973Y-106795290D01*
X179386521Y-106914198D01*
X179285398Y-107015321D01*
X179166490Y-107094773D01*
X179166489Y-107094774D01*
X179166488Y-107094774D01*
X179034366Y-107149501D01*
X178894106Y-107177400D01*
X178751094Y-107177400D01*
X178610834Y-107149501D01*
X178478712Y-107094774D01*
X178478711Y-107094774D01*
X178478710Y-107094773D01*
X178359802Y-107015321D01*
X178258679Y-106914198D01*
X178179227Y-106795290D01*
X178179226Y-106795288D01*
X178124499Y-106663166D01*
X178096600Y-106522906D01*
X178096600Y-106379894D01*
X178124499Y-106239634D01*
X178179226Y-106107512D01*
X178258678Y-105988604D01*
X178258679Y-105988602D01*
X178359802Y-105887479D01*
X178478710Y-105808027D01*
X178478712Y-105808026D01*
X178610834Y-105753299D01*
X178751094Y-105725400D01*
X178894106Y-105725400D01*
X179034366Y-105753299D01*
G37*
G36*
X181548600Y-107177400D02*
G01*
X180096600Y-107177400D01*
X180096600Y-105725400D01*
X181548600Y-105725400D01*
X181548600Y-107177400D01*
G37*
G36*
X171795366Y-105753299D02*
G01*
X171927488Y-105808026D01*
X171927490Y-105808027D01*
X172046398Y-105887479D01*
X172147521Y-105988602D01*
X172147522Y-105988604D01*
X172226974Y-106107512D01*
X172281701Y-106239634D01*
X172309600Y-106379894D01*
X172309600Y-106522906D01*
X172281701Y-106663166D01*
X172226974Y-106795288D01*
X172226973Y-106795290D01*
X172147521Y-106914198D01*
X172046398Y-107015321D01*
X171927490Y-107094773D01*
X171927489Y-107094774D01*
X171927488Y-107094774D01*
X171795366Y-107149501D01*
X171655106Y-107177400D01*
X171512094Y-107177400D01*
X171371834Y-107149501D01*
X171239712Y-107094774D01*
X171239711Y-107094774D01*
X171239710Y-107094773D01*
X171120802Y-107015321D01*
X171019679Y-106914198D01*
X170940227Y-106795290D01*
X170940226Y-106795288D01*
X170885499Y-106663166D01*
X170857600Y-106522906D01*
X170857600Y-106379894D01*
X170885499Y-106239634D01*
X170940226Y-106107512D01*
X171019678Y-105988604D01*
X171019679Y-105988602D01*
X171120802Y-105887479D01*
X171239710Y-105808027D01*
X171239712Y-105808026D01*
X171371834Y-105753299D01*
X171512094Y-105725400D01*
X171655106Y-105725400D01*
X171795366Y-105753299D01*
G37*
G36*
X174309600Y-107177400D02*
G01*
X172857600Y-107177400D01*
X172857600Y-105725400D01*
X174309600Y-105725400D01*
X174309600Y-107177400D01*
G37*
G36*
X164429366Y-105753299D02*
G01*
X164561488Y-105808026D01*
X164561490Y-105808027D01*
X164680398Y-105887479D01*
X164781521Y-105988602D01*
X164781522Y-105988604D01*
X164860974Y-106107512D01*
X164915701Y-106239634D01*
X164943600Y-106379894D01*
X164943600Y-106522906D01*
X164915701Y-106663166D01*
X164860974Y-106795288D01*
X164860973Y-106795290D01*
X164781521Y-106914198D01*
X164680398Y-107015321D01*
X164561490Y-107094773D01*
X164561489Y-107094774D01*
X164561488Y-107094774D01*
X164429366Y-107149501D01*
X164289106Y-107177400D01*
X164146094Y-107177400D01*
X164005834Y-107149501D01*
X163873712Y-107094774D01*
X163873711Y-107094774D01*
X163873710Y-107094773D01*
X163754802Y-107015321D01*
X163653679Y-106914198D01*
X163574227Y-106795290D01*
X163574226Y-106795288D01*
X163519499Y-106663166D01*
X163491600Y-106522906D01*
X163491600Y-106379894D01*
X163519499Y-106239634D01*
X163574226Y-106107512D01*
X163653678Y-105988604D01*
X163653679Y-105988602D01*
X163754802Y-105887479D01*
X163873710Y-105808027D01*
X163873712Y-105808026D01*
X164005834Y-105753299D01*
X164146094Y-105725400D01*
X164289106Y-105725400D01*
X164429366Y-105753299D01*
G37*
G36*
X166943600Y-107177400D02*
G01*
X165491600Y-107177400D01*
X165491600Y-105725400D01*
X166943600Y-105725400D01*
X166943600Y-107177400D01*
G37*
G36*
X159831600Y-107177400D02*
G01*
X158379600Y-107177400D01*
X158379600Y-105725400D01*
X159831600Y-105725400D01*
X159831600Y-107177400D01*
G37*
G36*
X150205366Y-105753299D02*
G01*
X150337488Y-105808026D01*
X150337490Y-105808027D01*
X150456398Y-105887479D01*
X150557521Y-105988602D01*
X150557522Y-105988604D01*
X150636974Y-106107512D01*
X150691701Y-106239634D01*
X150719600Y-106379894D01*
X150719600Y-106522906D01*
X150691701Y-106663166D01*
X150636974Y-106795288D01*
X150636973Y-106795290D01*
X150557521Y-106914198D01*
X150456398Y-107015321D01*
X150337490Y-107094773D01*
X150337489Y-107094774D01*
X150337488Y-107094774D01*
X150205366Y-107149501D01*
X150065106Y-107177400D01*
X149922094Y-107177400D01*
X149781834Y-107149501D01*
X149649712Y-107094774D01*
X149649711Y-107094774D01*
X149649710Y-107094773D01*
X149530802Y-107015321D01*
X149429679Y-106914198D01*
X149350227Y-106795290D01*
X149350226Y-106795288D01*
X149295499Y-106663166D01*
X149267600Y-106522906D01*
X149267600Y-106379894D01*
X149295499Y-106239634D01*
X149350226Y-106107512D01*
X149429678Y-105988604D01*
X149429679Y-105988602D01*
X149530802Y-105887479D01*
X149649710Y-105808027D01*
X149649712Y-105808026D01*
X149781834Y-105753299D01*
X149922094Y-105725400D01*
X150065106Y-105725400D01*
X150205366Y-105753299D01*
G37*
G36*
X186273366Y-105753299D02*
G01*
X186405488Y-105808026D01*
X186405490Y-105808027D01*
X186524398Y-105887479D01*
X186625521Y-105988602D01*
X186625522Y-105988604D01*
X186704974Y-106107512D01*
X186759701Y-106239634D01*
X186787600Y-106379894D01*
X186787600Y-106522906D01*
X186759701Y-106663166D01*
X186704974Y-106795288D01*
X186704973Y-106795290D01*
X186625521Y-106914198D01*
X186524398Y-107015321D01*
X186405490Y-107094773D01*
X186405489Y-107094774D01*
X186405488Y-107094774D01*
X186273366Y-107149501D01*
X186133106Y-107177400D01*
X185990094Y-107177400D01*
X185849834Y-107149501D01*
X185717712Y-107094774D01*
X185717711Y-107094774D01*
X185717710Y-107094773D01*
X185598802Y-107015321D01*
X185497679Y-106914198D01*
X185418227Y-106795290D01*
X185418226Y-106795288D01*
X185363499Y-106663166D01*
X185335600Y-106522906D01*
X185335600Y-106379894D01*
X185363499Y-106239634D01*
X185418226Y-106107512D01*
X185497678Y-105988604D01*
X185497679Y-105988602D01*
X185598802Y-105887479D01*
X185717710Y-105808027D01*
X185717712Y-105808026D01*
X185849834Y-105753299D01*
X185990094Y-105725400D01*
X186133106Y-105725400D01*
X186273366Y-105753299D01*
G37*
G36*
X117667600Y-107177400D02*
G01*
X116215600Y-107177400D01*
X116215600Y-105725400D01*
X117667600Y-105725400D01*
X117667600Y-107177400D01*
G37*
G36*
X110809600Y-107177400D02*
G01*
X109357600Y-107177400D01*
X109357600Y-105725400D01*
X110809600Y-105725400D01*
X110809600Y-107177400D01*
G37*
G36*
X108295366Y-105753299D02*
G01*
X108427488Y-105808026D01*
X108427490Y-105808027D01*
X108546398Y-105887479D01*
X108647521Y-105988602D01*
X108647522Y-105988604D01*
X108726974Y-106107512D01*
X108781701Y-106239634D01*
X108809600Y-106379894D01*
X108809600Y-106522906D01*
X108781701Y-106663166D01*
X108726974Y-106795288D01*
X108726973Y-106795290D01*
X108647521Y-106914198D01*
X108546398Y-107015321D01*
X108427490Y-107094773D01*
X108427489Y-107094774D01*
X108427488Y-107094774D01*
X108295366Y-107149501D01*
X108155106Y-107177400D01*
X108012094Y-107177400D01*
X107871834Y-107149501D01*
X107739712Y-107094774D01*
X107739711Y-107094774D01*
X107739710Y-107094773D01*
X107620802Y-107015321D01*
X107519679Y-106914198D01*
X107440227Y-106795290D01*
X107440226Y-106795288D01*
X107385499Y-106663166D01*
X107357600Y-106522906D01*
X107357600Y-106379894D01*
X107385499Y-106239634D01*
X107440226Y-106107512D01*
X107519678Y-105988604D01*
X107519679Y-105988602D01*
X107620802Y-105887479D01*
X107739710Y-105808027D01*
X107739712Y-105808026D01*
X107871834Y-105753299D01*
X108012094Y-105725400D01*
X108155106Y-105725400D01*
X108295366Y-105753299D01*
G37*
G36*
X143093366Y-105753299D02*
G01*
X143225488Y-105808026D01*
X143225490Y-105808027D01*
X143344398Y-105887479D01*
X143445521Y-105988602D01*
X143445522Y-105988604D01*
X143524974Y-106107512D01*
X143579701Y-106239634D01*
X143607600Y-106379894D01*
X143607600Y-106522906D01*
X143579701Y-106663166D01*
X143524974Y-106795288D01*
X143524973Y-106795290D01*
X143445521Y-106914198D01*
X143344398Y-107015321D01*
X143225490Y-107094773D01*
X143225489Y-107094774D01*
X143225488Y-107094774D01*
X143093366Y-107149501D01*
X142953106Y-107177400D01*
X142810094Y-107177400D01*
X142669834Y-107149501D01*
X142537712Y-107094774D01*
X142537711Y-107094774D01*
X142537710Y-107094773D01*
X142418802Y-107015321D01*
X142317679Y-106914198D01*
X142238227Y-106795290D01*
X142238226Y-106795288D01*
X142183499Y-106663166D01*
X142155600Y-106522906D01*
X142155600Y-106379894D01*
X142183499Y-106239634D01*
X142238226Y-106107512D01*
X142317678Y-105988604D01*
X142317679Y-105988602D01*
X142418802Y-105887479D01*
X142537710Y-105808027D01*
X142537712Y-105808026D01*
X142669834Y-105753299D01*
X142810094Y-105725400D01*
X142953106Y-105725400D01*
X143093366Y-105753299D01*
G37*
G36*
X115153366Y-105753299D02*
G01*
X115285488Y-105808026D01*
X115285490Y-105808027D01*
X115404398Y-105887479D01*
X115505521Y-105988602D01*
X115505522Y-105988604D01*
X115584974Y-106107512D01*
X115639701Y-106239634D01*
X115667600Y-106379894D01*
X115667600Y-106522906D01*
X115639701Y-106663166D01*
X115584974Y-106795288D01*
X115584973Y-106795290D01*
X115505521Y-106914198D01*
X115404398Y-107015321D01*
X115285490Y-107094773D01*
X115285489Y-107094774D01*
X115285488Y-107094774D01*
X115153366Y-107149501D01*
X115013106Y-107177400D01*
X114870094Y-107177400D01*
X114729834Y-107149501D01*
X114597712Y-107094774D01*
X114597711Y-107094774D01*
X114597710Y-107094773D01*
X114478802Y-107015321D01*
X114377679Y-106914198D01*
X114298227Y-106795290D01*
X114298226Y-106795288D01*
X114243499Y-106663166D01*
X114215600Y-106522906D01*
X114215600Y-106379894D01*
X114243499Y-106239634D01*
X114298226Y-106107512D01*
X114377678Y-105988604D01*
X114377679Y-105988602D01*
X114478802Y-105887479D01*
X114597710Y-105808027D01*
X114597712Y-105808026D01*
X114729834Y-105753299D01*
X114870094Y-105725400D01*
X115013106Y-105725400D01*
X115153366Y-105753299D01*
G37*
G36*
X124652600Y-107177400D02*
G01*
X123200600Y-107177400D01*
X123200600Y-105725400D01*
X124652600Y-105725400D01*
X124652600Y-107177400D01*
G37*
G36*
X122138366Y-105753299D02*
G01*
X122270488Y-105808026D01*
X122270490Y-105808027D01*
X122389398Y-105887479D01*
X122490521Y-105988602D01*
X122490522Y-105988604D01*
X122569974Y-106107512D01*
X122624701Y-106239634D01*
X122652600Y-106379894D01*
X122652600Y-106522906D01*
X122624701Y-106663166D01*
X122569974Y-106795288D01*
X122569973Y-106795290D01*
X122490521Y-106914198D01*
X122389398Y-107015321D01*
X122270490Y-107094773D01*
X122270489Y-107094774D01*
X122270488Y-107094774D01*
X122138366Y-107149501D01*
X121998106Y-107177400D01*
X121855094Y-107177400D01*
X121714834Y-107149501D01*
X121582712Y-107094774D01*
X121582711Y-107094774D01*
X121582710Y-107094773D01*
X121463802Y-107015321D01*
X121362679Y-106914198D01*
X121283227Y-106795290D01*
X121283226Y-106795288D01*
X121228499Y-106663166D01*
X121200600Y-106522906D01*
X121200600Y-106379894D01*
X121228499Y-106239634D01*
X121283226Y-106107512D01*
X121362678Y-105988604D01*
X121362679Y-105988602D01*
X121463802Y-105887479D01*
X121582710Y-105808027D01*
X121582712Y-105808026D01*
X121714834Y-105753299D01*
X121855094Y-105725400D01*
X121998106Y-105725400D01*
X122138366Y-105753299D01*
G37*
G36*
X131637600Y-107177400D02*
G01*
X130185600Y-107177400D01*
X130185600Y-105725400D01*
X131637600Y-105725400D01*
X131637600Y-107177400D01*
G37*
G36*
X129123366Y-105753299D02*
G01*
X129255488Y-105808026D01*
X129255490Y-105808027D01*
X129374398Y-105887479D01*
X129475521Y-105988602D01*
X129475522Y-105988604D01*
X129554974Y-106107512D01*
X129609701Y-106239634D01*
X129637600Y-106379894D01*
X129637600Y-106522906D01*
X129609701Y-106663166D01*
X129554974Y-106795288D01*
X129554973Y-106795290D01*
X129475521Y-106914198D01*
X129374398Y-107015321D01*
X129255490Y-107094773D01*
X129255489Y-107094774D01*
X129255488Y-107094774D01*
X129123366Y-107149501D01*
X128983106Y-107177400D01*
X128840094Y-107177400D01*
X128699834Y-107149501D01*
X128567712Y-107094774D01*
X128567711Y-107094774D01*
X128567710Y-107094773D01*
X128448802Y-107015321D01*
X128347679Y-106914198D01*
X128268227Y-106795290D01*
X128268226Y-106795288D01*
X128213499Y-106663166D01*
X128185600Y-106522906D01*
X128185600Y-106379894D01*
X128213499Y-106239634D01*
X128268226Y-106107512D01*
X128347678Y-105988604D01*
X128347679Y-105988602D01*
X128448802Y-105887479D01*
X128567710Y-105808027D01*
X128567712Y-105808026D01*
X128699834Y-105753299D01*
X128840094Y-105725400D01*
X128983106Y-105725400D01*
X129123366Y-105753299D01*
G37*
G36*
X138622600Y-107177400D02*
G01*
X137170600Y-107177400D01*
X137170600Y-105725400D01*
X138622600Y-105725400D01*
X138622600Y-107177400D01*
G37*
G36*
X136108366Y-105753299D02*
G01*
X136240488Y-105808026D01*
X136240490Y-105808027D01*
X136359398Y-105887479D01*
X136460521Y-105988602D01*
X136460522Y-105988604D01*
X136539974Y-106107512D01*
X136594701Y-106239634D01*
X136622600Y-106379894D01*
X136622600Y-106522906D01*
X136594701Y-106663166D01*
X136539974Y-106795288D01*
X136539973Y-106795290D01*
X136460521Y-106914198D01*
X136359398Y-107015321D01*
X136240490Y-107094773D01*
X136240489Y-107094774D01*
X136240488Y-107094774D01*
X136108366Y-107149501D01*
X135968106Y-107177400D01*
X135825094Y-107177400D01*
X135684834Y-107149501D01*
X135552712Y-107094774D01*
X135552711Y-107094774D01*
X135552710Y-107094773D01*
X135433802Y-107015321D01*
X135332679Y-106914198D01*
X135253227Y-106795290D01*
X135253226Y-106795288D01*
X135198499Y-106663166D01*
X135170600Y-106522906D01*
X135170600Y-106379894D01*
X135198499Y-106239634D01*
X135253226Y-106107512D01*
X135332678Y-105988604D01*
X135332679Y-105988602D01*
X135433802Y-105887479D01*
X135552710Y-105808027D01*
X135552712Y-105808026D01*
X135684834Y-105753299D01*
X135825094Y-105725400D01*
X135968106Y-105725400D01*
X136108366Y-105753299D01*
G37*
G36*
X145607600Y-107177400D02*
G01*
X144155600Y-107177400D01*
X144155600Y-105725400D01*
X145607600Y-105725400D01*
X145607600Y-107177400D01*
G37*
G36*
X132973622Y-93196990D02*
G01*
X133074281Y-93227525D01*
X133124612Y-93242792D01*
X133263764Y-93317171D01*
X133385733Y-93417267D01*
X133441648Y-93485400D01*
X133485829Y-93539235D01*
X133560208Y-93678387D01*
X133575475Y-93728718D01*
X133606010Y-93829377D01*
X133617600Y-93947055D01*
X133617600Y-94825745D01*
X133606010Y-94943423D01*
X133575475Y-95044082D01*
X133560208Y-95094413D01*
X133485829Y-95233565D01*
X133385733Y-95355533D01*
X133263765Y-95455629D01*
X133124613Y-95530008D01*
X133074282Y-95545275D01*
X132973623Y-95575810D01*
X132816600Y-95591275D01*
X132659578Y-95575810D01*
X132558919Y-95545275D01*
X132508588Y-95530008D01*
X132369436Y-95455629D01*
X132247468Y-95355533D01*
X132147372Y-95233565D01*
X132072993Y-95094413D01*
X132057726Y-95044082D01*
X132027191Y-94943423D01*
X132015600Y-94825745D01*
X132015600Y-93947056D01*
X132027190Y-93829378D01*
X132072992Y-93678389D01*
X132072992Y-93678388D01*
X132147371Y-93539236D01*
X132163138Y-93520024D01*
X132247467Y-93417267D01*
X132369435Y-93317171D01*
X132508587Y-93242792D01*
X132558918Y-93227525D01*
X132659577Y-93196990D01*
X132816600Y-93181525D01*
X132973622Y-93196990D01*
G37*
G36*
X135513622Y-93196990D02*
G01*
X135614281Y-93227525D01*
X135664612Y-93242792D01*
X135803764Y-93317171D01*
X135925733Y-93417267D01*
X135981648Y-93485400D01*
X136025829Y-93539235D01*
X136100208Y-93678387D01*
X136115475Y-93728718D01*
X136146010Y-93829377D01*
X136157600Y-93947055D01*
X136157600Y-94825745D01*
X136146010Y-94943423D01*
X136115475Y-95044082D01*
X136100208Y-95094413D01*
X136025829Y-95233565D01*
X135925733Y-95355533D01*
X135803765Y-95455629D01*
X135664613Y-95530008D01*
X135614282Y-95545275D01*
X135513623Y-95575810D01*
X135356600Y-95591275D01*
X135199578Y-95575810D01*
X135098919Y-95545275D01*
X135048588Y-95530008D01*
X134909436Y-95455629D01*
X134787468Y-95355533D01*
X134687372Y-95233565D01*
X134612993Y-95094413D01*
X134597726Y-95044082D01*
X134567191Y-94943423D01*
X134555600Y-94825745D01*
X134555600Y-93947056D01*
X134567190Y-93829378D01*
X134612992Y-93678389D01*
X134612992Y-93678388D01*
X134687371Y-93539236D01*
X134703138Y-93520024D01*
X134787467Y-93417267D01*
X134909435Y-93317171D01*
X135048587Y-93242792D01*
X135098918Y-93227525D01*
X135199577Y-93196990D01*
X135356600Y-93181525D01*
X135513622Y-93196990D01*
G37*
G36*
X131077600Y-95587400D02*
G01*
X129475600Y-95587400D01*
X129475600Y-93185400D01*
X131077600Y-93185400D01*
X131077600Y-95587400D01*
G37*
G36*
X183690112Y-93490327D02*
G01*
X183839412Y-93520024D01*
X184003384Y-93587944D01*
X184150954Y-93686547D01*
X184276453Y-93812046D01*
X184375056Y-93959616D01*
X184442976Y-94123588D01*
X184477600Y-94297659D01*
X184477600Y-94475141D01*
X184442976Y-94649212D01*
X184375056Y-94813184D01*
X184276453Y-94960754D01*
X184150954Y-95086253D01*
X184003384Y-95184856D01*
X183839412Y-95252776D01*
X183690112Y-95282473D01*
X183665342Y-95287400D01*
X183487858Y-95287400D01*
X183463088Y-95282473D01*
X183313788Y-95252776D01*
X183149816Y-95184856D01*
X183002246Y-95086253D01*
X182876747Y-94960754D01*
X182778144Y-94813184D01*
X182710224Y-94649212D01*
X182675600Y-94475141D01*
X182675600Y-94297659D01*
X182710224Y-94123588D01*
X182778144Y-93959616D01*
X182876747Y-93812046D01*
X183002246Y-93686547D01*
X183149816Y-93587944D01*
X183313788Y-93520024D01*
X183463088Y-93490327D01*
X183487858Y-93485400D01*
X183665342Y-93485400D01*
X183690112Y-93490327D01*
G37*
G36*
X176690112Y-93490327D02*
G01*
X176839412Y-93520024D01*
X177003384Y-93587944D01*
X177150954Y-93686547D01*
X177276453Y-93812046D01*
X177375056Y-93959616D01*
X177442976Y-94123588D01*
X177477600Y-94297659D01*
X177477600Y-94475141D01*
X177442976Y-94649212D01*
X177375056Y-94813184D01*
X177276453Y-94960754D01*
X177150954Y-95086253D01*
X177003384Y-95184856D01*
X176839412Y-95252776D01*
X176690112Y-95282473D01*
X176665342Y-95287400D01*
X176487858Y-95287400D01*
X176463088Y-95282473D01*
X176313788Y-95252776D01*
X176149816Y-95184856D01*
X176002246Y-95086253D01*
X175876747Y-94960754D01*
X175778144Y-94813184D01*
X175710224Y-94649212D01*
X175675600Y-94475141D01*
X175675600Y-94297659D01*
X175710224Y-94123588D01*
X175778144Y-93959616D01*
X175876747Y-93812046D01*
X176002246Y-93686547D01*
X176149816Y-93587944D01*
X176313788Y-93520024D01*
X176463088Y-93490327D01*
X176487858Y-93485400D01*
X176665342Y-93485400D01*
X176690112Y-93490327D01*
G37*
G36*
X188810112Y-88855327D02*
G01*
X188959412Y-88885024D01*
X189123384Y-88952944D01*
X189270954Y-89051547D01*
X189396453Y-89177046D01*
X189495056Y-89324616D01*
X189562976Y-89488588D01*
X189597600Y-89662659D01*
X189597600Y-89840141D01*
X189562976Y-90014212D01*
X189495056Y-90178184D01*
X189396453Y-90325754D01*
X189270954Y-90451253D01*
X189123384Y-90549856D01*
X188959412Y-90617776D01*
X188810112Y-90647473D01*
X188785342Y-90652400D01*
X188607858Y-90652400D01*
X188583088Y-90647473D01*
X188433788Y-90617776D01*
X188269816Y-90549856D01*
X188122246Y-90451253D01*
X187996747Y-90325754D01*
X187898144Y-90178184D01*
X187830224Y-90014212D01*
X187795600Y-89840141D01*
X187795600Y-89662659D01*
X187830224Y-89488588D01*
X187898144Y-89324616D01*
X187996747Y-89177046D01*
X188122246Y-89051547D01*
X188269816Y-88952944D01*
X188433788Y-88885024D01*
X188583088Y-88855327D01*
X188607858Y-88850400D01*
X188785342Y-88850400D01*
X188810112Y-88855327D01*
G37*
G36*
X109790964Y-87305189D02*
G01*
X109982233Y-87384415D01*
X109982235Y-87384416D01*
X110154373Y-87499435D01*
X110300765Y-87645827D01*
X110394261Y-87785753D01*
X110415785Y-87817967D01*
X110495011Y-88009236D01*
X110535400Y-88212284D01*
X110535400Y-88419316D01*
X110495011Y-88622364D01*
X110415785Y-88813633D01*
X110415784Y-88813635D01*
X110300765Y-88985773D01*
X110154373Y-89132165D01*
X109982235Y-89247184D01*
X109982234Y-89247185D01*
X109982233Y-89247185D01*
X109790964Y-89326411D01*
X109587916Y-89366800D01*
X109380884Y-89366800D01*
X109177836Y-89326411D01*
X108986567Y-89247185D01*
X108986566Y-89247185D01*
X108986565Y-89247184D01*
X108814427Y-89132165D01*
X108668035Y-88985773D01*
X108553016Y-88813635D01*
X108553015Y-88813633D01*
X108473789Y-88622364D01*
X108433400Y-88419316D01*
X108433400Y-88212284D01*
X108473789Y-88009236D01*
X108553015Y-87817967D01*
X108574540Y-87785753D01*
X108668035Y-87645827D01*
X108814427Y-87499435D01*
X108986565Y-87384416D01*
X108986567Y-87384415D01*
X109177836Y-87305189D01*
X109380884Y-87264800D01*
X109587916Y-87264800D01*
X109790964Y-87305189D01*
G37*
G36*
X188810112Y-86315327D02*
G01*
X188959412Y-86345024D01*
X189123384Y-86412944D01*
X189270954Y-86511547D01*
X189396453Y-86637046D01*
X189495056Y-86784616D01*
X189562976Y-86948588D01*
X189597600Y-87122659D01*
X189597600Y-87300141D01*
X189562976Y-87474212D01*
X189495056Y-87638184D01*
X189396453Y-87785754D01*
X189270954Y-87911253D01*
X189123384Y-88009856D01*
X188959412Y-88077776D01*
X188810112Y-88107473D01*
X188785342Y-88112400D01*
X188607858Y-88112400D01*
X188583088Y-88107473D01*
X188433788Y-88077776D01*
X188269816Y-88009856D01*
X188122246Y-87911253D01*
X187996747Y-87785754D01*
X187898144Y-87638184D01*
X187830224Y-87474212D01*
X187795600Y-87300141D01*
X187795600Y-87122659D01*
X187830224Y-86948588D01*
X187898144Y-86784616D01*
X187996747Y-86637046D01*
X188122246Y-86511547D01*
X188269816Y-86412944D01*
X188433788Y-86345024D01*
X188583088Y-86315327D01*
X188607858Y-86310400D01*
X188785342Y-86310400D01*
X188810112Y-86315327D01*
G37*
G36*
X177920112Y-84505327D02*
G01*
X178069412Y-84535024D01*
X178233384Y-84602944D01*
X178380954Y-84701547D01*
X178506453Y-84827046D01*
X178605056Y-84974616D01*
X178672976Y-85138588D01*
X178707600Y-85312659D01*
X178707600Y-85490141D01*
X178672976Y-85664212D01*
X178605056Y-85828184D01*
X178506453Y-85975754D01*
X178380954Y-86101253D01*
X178233384Y-86199856D01*
X178069412Y-86267776D01*
X177920112Y-86297473D01*
X177895342Y-86302400D01*
X177717858Y-86302400D01*
X177693088Y-86297473D01*
X177543788Y-86267776D01*
X177379816Y-86199856D01*
X177232246Y-86101253D01*
X177106747Y-85975754D01*
X177008144Y-85828184D01*
X176940224Y-85664212D01*
X176905600Y-85490141D01*
X176905600Y-85312659D01*
X176940224Y-85138588D01*
X177008144Y-84974616D01*
X177106747Y-84827046D01*
X177232246Y-84701547D01*
X177379816Y-84602944D01*
X177543788Y-84535024D01*
X177693088Y-84505327D01*
X177717858Y-84500400D01*
X177895342Y-84500400D01*
X177920112Y-84505327D01*
G37*
G36*
X180460112Y-84505327D02*
G01*
X180609412Y-84535024D01*
X180773384Y-84602944D01*
X180920954Y-84701547D01*
X181046453Y-84827046D01*
X181145056Y-84974616D01*
X181212976Y-85138588D01*
X181247600Y-85312659D01*
X181247600Y-85490141D01*
X181212976Y-85664212D01*
X181145056Y-85828184D01*
X181046453Y-85975754D01*
X180920954Y-86101253D01*
X180773384Y-86199856D01*
X180609412Y-86267776D01*
X180460112Y-86297473D01*
X180435342Y-86302400D01*
X180257858Y-86302400D01*
X180233088Y-86297473D01*
X180083788Y-86267776D01*
X179919816Y-86199856D01*
X179772246Y-86101253D01*
X179646747Y-85975754D01*
X179548144Y-85828184D01*
X179480224Y-85664212D01*
X179445600Y-85490141D01*
X179445600Y-85312659D01*
X179480224Y-85138588D01*
X179548144Y-84974616D01*
X179646747Y-84827046D01*
X179772246Y-84701547D01*
X179919816Y-84602944D01*
X180083788Y-84535024D01*
X180233088Y-84505327D01*
X180257858Y-84500400D01*
X180435342Y-84500400D01*
X180460112Y-84505327D01*
G37*
G36*
X188810112Y-83775327D02*
G01*
X188959412Y-83805024D01*
X189123384Y-83872944D01*
X189270954Y-83971547D01*
X189396453Y-84097046D01*
X189495056Y-84244616D01*
X189562976Y-84408588D01*
X189597600Y-84582659D01*
X189597600Y-84760141D01*
X189562976Y-84934212D01*
X189495056Y-85098184D01*
X189396453Y-85245754D01*
X189270954Y-85371253D01*
X189123384Y-85469856D01*
X188959412Y-85537776D01*
X188810112Y-85567473D01*
X188785342Y-85572400D01*
X188607858Y-85572400D01*
X188583088Y-85567473D01*
X188433788Y-85537776D01*
X188269816Y-85469856D01*
X188122246Y-85371253D01*
X187996747Y-85245754D01*
X187898144Y-85098184D01*
X187830224Y-84934212D01*
X187795600Y-84760141D01*
X187795600Y-84582659D01*
X187830224Y-84408588D01*
X187898144Y-84244616D01*
X187996747Y-84097046D01*
X188122246Y-83971547D01*
X188269816Y-83872944D01*
X188433788Y-83805024D01*
X188583088Y-83775327D01*
X188607858Y-83770400D01*
X188785342Y-83770400D01*
X188810112Y-83775327D01*
G37*
G36*
X177920112Y-81965327D02*
G01*
X178069412Y-81995024D01*
X178233384Y-82062944D01*
X178380954Y-82161547D01*
X178506453Y-82287046D01*
X178605056Y-82434616D01*
X178672976Y-82598588D01*
X178707600Y-82772659D01*
X178707600Y-82950141D01*
X178672976Y-83124212D01*
X178605056Y-83288184D01*
X178506453Y-83435754D01*
X178380954Y-83561253D01*
X178233384Y-83659856D01*
X178069412Y-83727776D01*
X177920112Y-83757473D01*
X177895342Y-83762400D01*
X177717858Y-83762400D01*
X177693088Y-83757473D01*
X177543788Y-83727776D01*
X177379816Y-83659856D01*
X177232246Y-83561253D01*
X177106747Y-83435754D01*
X177008144Y-83288184D01*
X176940224Y-83124212D01*
X176905600Y-82950141D01*
X176905600Y-82772659D01*
X176940224Y-82598588D01*
X177008144Y-82434616D01*
X177106747Y-82287046D01*
X177232246Y-82161547D01*
X177379816Y-82062944D01*
X177543788Y-81995024D01*
X177693088Y-81965327D01*
X177717858Y-81960400D01*
X177895342Y-81960400D01*
X177920112Y-81965327D01*
G37*
G36*
X180460112Y-81965327D02*
G01*
X180609412Y-81995024D01*
X180773384Y-82062944D01*
X180920954Y-82161547D01*
X181046453Y-82287046D01*
X181145056Y-82434616D01*
X181212976Y-82598588D01*
X181247600Y-82772659D01*
X181247600Y-82950141D01*
X181212976Y-83124212D01*
X181145056Y-83288184D01*
X181046453Y-83435754D01*
X180920954Y-83561253D01*
X180773384Y-83659856D01*
X180609412Y-83727776D01*
X180460112Y-83757473D01*
X180435342Y-83762400D01*
X180257858Y-83762400D01*
X180233088Y-83757473D01*
X180083788Y-83727776D01*
X179919816Y-83659856D01*
X179772246Y-83561253D01*
X179646747Y-83435754D01*
X179548144Y-83288184D01*
X179480224Y-83124212D01*
X179445600Y-82950141D01*
X179445600Y-82772659D01*
X179480224Y-82598588D01*
X179548144Y-82434616D01*
X179646747Y-82287046D01*
X179772246Y-82161547D01*
X179919816Y-82062944D01*
X180083788Y-81995024D01*
X180233088Y-81965327D01*
X180257858Y-81960400D01*
X180435342Y-81960400D01*
X180460112Y-81965327D01*
G37*
G36*
X188810112Y-81235327D02*
G01*
X188959412Y-81265024D01*
X189123384Y-81332944D01*
X189270954Y-81431547D01*
X189396453Y-81557046D01*
X189495056Y-81704616D01*
X189562976Y-81868588D01*
X189597600Y-82042659D01*
X189597600Y-82220141D01*
X189562976Y-82394212D01*
X189495056Y-82558184D01*
X189396453Y-82705754D01*
X189270954Y-82831253D01*
X189123384Y-82929856D01*
X188959412Y-82997776D01*
X188810112Y-83027473D01*
X188785342Y-83032400D01*
X188607858Y-83032400D01*
X188583088Y-83027473D01*
X188433788Y-82997776D01*
X188269816Y-82929856D01*
X188122246Y-82831253D01*
X187996747Y-82705754D01*
X187898144Y-82558184D01*
X187830224Y-82394212D01*
X187795600Y-82220141D01*
X187795600Y-82042659D01*
X187830224Y-81868588D01*
X187898144Y-81704616D01*
X187996747Y-81557046D01*
X188122246Y-81431547D01*
X188269816Y-81332944D01*
X188433788Y-81265024D01*
X188583088Y-81235327D01*
X188607858Y-81230400D01*
X188785342Y-81230400D01*
X188810112Y-81235327D01*
G37*
G36*
X178707600Y-81222400D02*
G01*
X176905600Y-81222400D01*
X176905600Y-79420400D01*
X178707600Y-79420400D01*
X178707600Y-81222400D01*
G37*
G36*
X180460112Y-79425327D02*
G01*
X180609412Y-79455024D01*
X180773384Y-79522944D01*
X180920954Y-79621547D01*
X181046453Y-79747046D01*
X181145056Y-79894616D01*
X181212976Y-80058588D01*
X181247600Y-80232659D01*
X181247600Y-80410141D01*
X181212976Y-80584212D01*
X181145056Y-80748184D01*
X181046453Y-80895754D01*
X180920954Y-81021253D01*
X180773384Y-81119856D01*
X180609412Y-81187776D01*
X180460112Y-81217473D01*
X180435342Y-81222400D01*
X180257858Y-81222400D01*
X180233088Y-81217473D01*
X180083788Y-81187776D01*
X179919816Y-81119856D01*
X179772246Y-81021253D01*
X179646747Y-80895754D01*
X179548144Y-80748184D01*
X179480224Y-80584212D01*
X179445600Y-80410141D01*
X179445600Y-80232659D01*
X179480224Y-80058588D01*
X179548144Y-79894616D01*
X179646747Y-79747046D01*
X179772246Y-79621547D01*
X179919816Y-79522944D01*
X180083788Y-79455024D01*
X180233088Y-79425327D01*
X180257858Y-79420400D01*
X180435342Y-79420400D01*
X180460112Y-79425327D01*
G37*
G36*
X188810112Y-78695327D02*
G01*
X188959412Y-78725024D01*
X189123384Y-78792944D01*
X189270954Y-78891547D01*
X189396453Y-79017046D01*
X189495056Y-79164616D01*
X189562976Y-79328588D01*
X189597600Y-79502659D01*
X189597600Y-79680141D01*
X189562976Y-79854212D01*
X189495056Y-80018184D01*
X189396453Y-80165754D01*
X189270954Y-80291253D01*
X189123384Y-80389856D01*
X188959412Y-80457776D01*
X188810112Y-80487473D01*
X188785342Y-80492400D01*
X188607858Y-80492400D01*
X188583088Y-80487473D01*
X188433788Y-80457776D01*
X188269816Y-80389856D01*
X188122246Y-80291253D01*
X187996747Y-80165754D01*
X187898144Y-80018184D01*
X187830224Y-79854212D01*
X187795600Y-79680141D01*
X187795600Y-79502659D01*
X187830224Y-79328588D01*
X187898144Y-79164616D01*
X187996747Y-79017046D01*
X188122246Y-78891547D01*
X188269816Y-78792944D01*
X188433788Y-78725024D01*
X188583088Y-78695327D01*
X188607858Y-78690400D01*
X188785342Y-78690400D01*
X188810112Y-78695327D01*
G37*
G36*
X189597600Y-77952400D02*
G01*
X187795600Y-77952400D01*
X187795600Y-76150400D01*
X189597600Y-76150400D01*
X189597600Y-77952400D01*
G37*
G36*
X150973600Y-70093400D02*
G01*
X149521600Y-70093400D01*
X149521600Y-68641400D01*
X150973600Y-68641400D01*
X150973600Y-70093400D01*
G37*
G36*
X123001600Y-70093400D02*
G01*
X121549600Y-70093400D01*
X121549600Y-68641400D01*
X123001600Y-68641400D01*
X123001600Y-70093400D01*
G37*
G36*
X124487366Y-68669299D02*
G01*
X124619488Y-68724026D01*
X124619490Y-68724027D01*
X124738398Y-68803479D01*
X124839521Y-68904602D01*
X124839522Y-68904604D01*
X124918974Y-69023512D01*
X124973701Y-69155634D01*
X125001600Y-69295894D01*
X125001600Y-69438906D01*
X124973701Y-69579166D01*
X124918974Y-69711288D01*
X124918973Y-69711290D01*
X124839521Y-69830198D01*
X124738398Y-69931321D01*
X124619490Y-70010773D01*
X124619489Y-70010774D01*
X124619488Y-70010774D01*
X124487366Y-70065501D01*
X124347106Y-70093400D01*
X124204094Y-70093400D01*
X124063834Y-70065501D01*
X123931712Y-70010774D01*
X123931711Y-70010774D01*
X123931710Y-70010773D01*
X123812802Y-69931321D01*
X123711679Y-69830198D01*
X123632227Y-69711290D01*
X123632226Y-69711288D01*
X123577499Y-69579166D01*
X123549600Y-69438906D01*
X123549600Y-69295894D01*
X123577499Y-69155634D01*
X123632226Y-69023512D01*
X123711678Y-68904604D01*
X123711679Y-68904602D01*
X123812802Y-68803479D01*
X123931710Y-68724027D01*
X123931712Y-68724026D01*
X124063834Y-68669299D01*
X124204094Y-68641400D01*
X124347106Y-68641400D01*
X124487366Y-68669299D01*
G37*
G36*
X109063600Y-70093400D02*
G01*
X107611600Y-70093400D01*
X107611600Y-68641400D01*
X109063600Y-68641400D01*
X109063600Y-70093400D01*
G37*
G36*
X110549366Y-68669299D02*
G01*
X110681488Y-68724026D01*
X110681490Y-68724027D01*
X110800398Y-68803479D01*
X110901521Y-68904602D01*
X110901522Y-68904604D01*
X110980974Y-69023512D01*
X111035701Y-69155634D01*
X111063600Y-69295894D01*
X111063600Y-69438906D01*
X111035701Y-69579166D01*
X110980974Y-69711288D01*
X110980973Y-69711290D01*
X110901521Y-69830198D01*
X110800398Y-69931321D01*
X110681490Y-70010773D01*
X110681489Y-70010774D01*
X110681488Y-70010774D01*
X110549366Y-70065501D01*
X110409106Y-70093400D01*
X110266094Y-70093400D01*
X110125834Y-70065501D01*
X109993712Y-70010774D01*
X109993711Y-70010774D01*
X109993710Y-70010773D01*
X109874802Y-69931321D01*
X109773679Y-69830198D01*
X109694227Y-69711290D01*
X109694226Y-69711288D01*
X109639499Y-69579166D01*
X109611600Y-69438906D01*
X109611600Y-69295894D01*
X109639499Y-69155634D01*
X109694226Y-69023512D01*
X109773678Y-68904604D01*
X109773679Y-68904602D01*
X109874802Y-68803479D01*
X109993710Y-68724027D01*
X109993712Y-68724026D01*
X110125834Y-68669299D01*
X110266094Y-68641400D01*
X110409106Y-68641400D01*
X110549366Y-68669299D01*
G37*
G36*
X115921600Y-70093400D02*
G01*
X114469600Y-70093400D01*
X114469600Y-68641400D01*
X115921600Y-68641400D01*
X115921600Y-70093400D01*
G37*
G36*
X117407366Y-68669299D02*
G01*
X117539488Y-68724026D01*
X117539490Y-68724027D01*
X117658398Y-68803479D01*
X117759521Y-68904602D01*
X117759522Y-68904604D01*
X117838974Y-69023512D01*
X117893701Y-69155634D01*
X117921600Y-69295894D01*
X117921600Y-69438906D01*
X117893701Y-69579166D01*
X117838974Y-69711288D01*
X117838973Y-69711290D01*
X117759521Y-69830198D01*
X117658398Y-69931321D01*
X117539490Y-70010773D01*
X117539489Y-70010774D01*
X117539488Y-70010774D01*
X117407366Y-70065501D01*
X117267106Y-70093400D01*
X117124094Y-70093400D01*
X116983834Y-70065501D01*
X116851712Y-70010774D01*
X116851711Y-70010774D01*
X116851710Y-70010773D01*
X116732802Y-69931321D01*
X116631679Y-69830198D01*
X116552227Y-69711290D01*
X116552226Y-69711288D01*
X116497499Y-69579166D01*
X116469600Y-69438906D01*
X116469600Y-69295894D01*
X116497499Y-69155634D01*
X116552226Y-69023512D01*
X116631678Y-68904604D01*
X116631679Y-68904602D01*
X116732802Y-68803479D01*
X116851710Y-68724027D01*
X116851712Y-68724026D01*
X116983834Y-68669299D01*
X117124094Y-68641400D01*
X117267106Y-68641400D01*
X117407366Y-68669299D01*
G37*
G36*
X143861600Y-70093400D02*
G01*
X142409600Y-70093400D01*
X142409600Y-68641400D01*
X143861600Y-68641400D01*
X143861600Y-70093400D01*
G37*
G36*
X138235366Y-68669299D02*
G01*
X138367488Y-68724026D01*
X138367490Y-68724027D01*
X138486398Y-68803479D01*
X138587521Y-68904602D01*
X138587522Y-68904604D01*
X138666974Y-69023512D01*
X138721701Y-69155634D01*
X138749600Y-69295894D01*
X138749600Y-69438906D01*
X138721701Y-69579166D01*
X138666974Y-69711288D01*
X138666973Y-69711290D01*
X138587521Y-69830198D01*
X138486398Y-69931321D01*
X138367490Y-70010773D01*
X138367489Y-70010774D01*
X138367488Y-70010774D01*
X138235366Y-70065501D01*
X138095106Y-70093400D01*
X137952094Y-70093400D01*
X137811834Y-70065501D01*
X137679712Y-70010774D01*
X137679711Y-70010774D01*
X137679710Y-70010773D01*
X137560802Y-69931321D01*
X137459679Y-69830198D01*
X137380227Y-69711290D01*
X137380226Y-69711288D01*
X137325499Y-69579166D01*
X137297600Y-69438906D01*
X137297600Y-69295894D01*
X137325499Y-69155634D01*
X137380226Y-69023512D01*
X137459678Y-68904604D01*
X137459679Y-68904602D01*
X137560802Y-68803479D01*
X137679710Y-68724027D01*
X137679712Y-68724026D01*
X137811834Y-68669299D01*
X137952094Y-68641400D01*
X138095106Y-68641400D01*
X138235366Y-68669299D01*
G37*
G36*
X136749600Y-70093400D02*
G01*
X135297600Y-70093400D01*
X135297600Y-68641400D01*
X136749600Y-68641400D01*
X136749600Y-70093400D01*
G37*
G36*
X131377366Y-68669299D02*
G01*
X131509488Y-68724026D01*
X131509490Y-68724027D01*
X131628398Y-68803479D01*
X131729521Y-68904602D01*
X131729522Y-68904604D01*
X131808974Y-69023512D01*
X131863701Y-69155634D01*
X131891600Y-69295894D01*
X131891600Y-69438906D01*
X131863701Y-69579166D01*
X131808974Y-69711288D01*
X131808973Y-69711290D01*
X131729521Y-69830198D01*
X131628398Y-69931321D01*
X131509490Y-70010773D01*
X131509489Y-70010774D01*
X131509488Y-70010774D01*
X131377366Y-70065501D01*
X131237106Y-70093400D01*
X131094094Y-70093400D01*
X130953834Y-70065501D01*
X130821712Y-70010774D01*
X130821711Y-70010774D01*
X130821710Y-70010773D01*
X130702802Y-69931321D01*
X130601679Y-69830198D01*
X130522227Y-69711290D01*
X130522226Y-69711288D01*
X130467499Y-69579166D01*
X130439600Y-69438906D01*
X130439600Y-69295894D01*
X130467499Y-69155634D01*
X130522226Y-69023512D01*
X130601678Y-68904604D01*
X130601679Y-68904602D01*
X130702802Y-68803479D01*
X130821710Y-68724027D01*
X130821712Y-68724026D01*
X130953834Y-68669299D01*
X131094094Y-68641400D01*
X131237106Y-68641400D01*
X131377366Y-68669299D01*
G37*
G36*
X129891600Y-70093400D02*
G01*
X128439600Y-70093400D01*
X128439600Y-68641400D01*
X129891600Y-68641400D01*
X129891600Y-70093400D01*
G37*
G36*
X152459366Y-68669299D02*
G01*
X152591488Y-68724026D01*
X152591490Y-68724027D01*
X152710398Y-68803479D01*
X152811521Y-68904602D01*
X152811522Y-68904604D01*
X152890974Y-69023512D01*
X152945701Y-69155634D01*
X152973600Y-69295894D01*
X152973600Y-69438906D01*
X152945701Y-69579166D01*
X152890974Y-69711288D01*
X152890973Y-69711290D01*
X152811521Y-69830198D01*
X152710398Y-69931321D01*
X152591490Y-70010773D01*
X152591489Y-70010774D01*
X152591488Y-70010774D01*
X152459366Y-70065501D01*
X152319106Y-70093400D01*
X152176094Y-70093400D01*
X152035834Y-70065501D01*
X151903712Y-70010774D01*
X151903711Y-70010774D01*
X151903710Y-70010773D01*
X151784802Y-69931321D01*
X151683679Y-69830198D01*
X151604227Y-69711290D01*
X151604226Y-69711288D01*
X151549499Y-69579166D01*
X151521600Y-69438906D01*
X151521600Y-69295894D01*
X151549499Y-69155634D01*
X151604226Y-69023512D01*
X151683678Y-68904604D01*
X151683679Y-68904602D01*
X151784802Y-68803479D01*
X151903710Y-68724027D01*
X151903712Y-68724026D01*
X152035834Y-68669299D01*
X152176094Y-68641400D01*
X152319106Y-68641400D01*
X152459366Y-68669299D01*
G37*
G36*
X158085600Y-70093400D02*
G01*
X156633600Y-70093400D01*
X156633600Y-68641400D01*
X158085600Y-68641400D01*
X158085600Y-70093400D01*
G37*
G36*
X159571366Y-68669299D02*
G01*
X159703488Y-68724026D01*
X159703490Y-68724027D01*
X159822398Y-68803479D01*
X159923521Y-68904602D01*
X159923522Y-68904604D01*
X160002974Y-69023512D01*
X160057701Y-69155634D01*
X160085600Y-69295894D01*
X160085600Y-69438906D01*
X160057701Y-69579166D01*
X160002974Y-69711288D01*
X160002973Y-69711290D01*
X159923521Y-69830198D01*
X159822398Y-69931321D01*
X159703490Y-70010773D01*
X159703489Y-70010774D01*
X159703488Y-70010774D01*
X159571366Y-70065501D01*
X159431106Y-70093400D01*
X159288094Y-70093400D01*
X159147834Y-70065501D01*
X159015712Y-70010774D01*
X159015711Y-70010774D01*
X159015710Y-70010773D01*
X158896802Y-69931321D01*
X158795679Y-69830198D01*
X158716227Y-69711290D01*
X158716226Y-69711288D01*
X158661499Y-69579166D01*
X158633600Y-69438906D01*
X158633600Y-69295894D01*
X158661499Y-69155634D01*
X158716226Y-69023512D01*
X158795678Y-68904604D01*
X158795679Y-68904602D01*
X158896802Y-68803479D01*
X159015710Y-68724027D01*
X159015712Y-68724026D01*
X159147834Y-68669299D01*
X159288094Y-68641400D01*
X159431106Y-68641400D01*
X159571366Y-68669299D01*
G37*
G36*
X165197600Y-70093400D02*
G01*
X163745600Y-70093400D01*
X163745600Y-68641400D01*
X165197600Y-68641400D01*
X165197600Y-70093400D01*
G37*
G36*
X166683366Y-68669299D02*
G01*
X166815488Y-68724026D01*
X166815490Y-68724027D01*
X166934398Y-68803479D01*
X167035521Y-68904602D01*
X167035522Y-68904604D01*
X167114974Y-69023512D01*
X167169701Y-69155634D01*
X167197600Y-69295894D01*
X167197600Y-69438906D01*
X167169701Y-69579166D01*
X167114974Y-69711288D01*
X167114973Y-69711290D01*
X167035521Y-69830198D01*
X166934398Y-69931321D01*
X166815490Y-70010773D01*
X166815489Y-70010774D01*
X166815488Y-70010774D01*
X166683366Y-70065501D01*
X166543106Y-70093400D01*
X166400094Y-70093400D01*
X166259834Y-70065501D01*
X166127712Y-70010774D01*
X166127711Y-70010774D01*
X166127710Y-70010773D01*
X166008802Y-69931321D01*
X165907679Y-69830198D01*
X165828227Y-69711290D01*
X165828226Y-69711288D01*
X165773499Y-69579166D01*
X165745600Y-69438906D01*
X165745600Y-69295894D01*
X165773499Y-69155634D01*
X165828226Y-69023512D01*
X165907678Y-68904604D01*
X165907679Y-68904602D01*
X166008802Y-68803479D01*
X166127710Y-68724027D01*
X166127712Y-68724026D01*
X166259834Y-68669299D01*
X166400094Y-68641400D01*
X166543106Y-68641400D01*
X166683366Y-68669299D01*
G37*
G36*
X172563600Y-70093400D02*
G01*
X171111600Y-70093400D01*
X171111600Y-68641400D01*
X172563600Y-68641400D01*
X172563600Y-70093400D01*
G37*
G36*
X174049366Y-68669299D02*
G01*
X174181488Y-68724026D01*
X174181490Y-68724027D01*
X174300398Y-68803479D01*
X174401521Y-68904602D01*
X174401522Y-68904604D01*
X174480974Y-69023512D01*
X174535701Y-69155634D01*
X174563600Y-69295894D01*
X174563600Y-69438906D01*
X174535701Y-69579166D01*
X174480974Y-69711288D01*
X174480973Y-69711290D01*
X174401521Y-69830198D01*
X174300398Y-69931321D01*
X174181490Y-70010773D01*
X174181489Y-70010774D01*
X174181488Y-70010774D01*
X174049366Y-70065501D01*
X173909106Y-70093400D01*
X173766094Y-70093400D01*
X173625834Y-70065501D01*
X173493712Y-70010774D01*
X173493711Y-70010774D01*
X173493710Y-70010773D01*
X173374802Y-69931321D01*
X173273679Y-69830198D01*
X173194227Y-69711290D01*
X173194226Y-69711288D01*
X173139499Y-69579166D01*
X173111600Y-69438906D01*
X173111600Y-69295894D01*
X173139499Y-69155634D01*
X173194226Y-69023512D01*
X173273678Y-68904604D01*
X173273679Y-68904602D01*
X173374802Y-68803479D01*
X173493710Y-68724027D01*
X173493712Y-68724026D01*
X173625834Y-68669299D01*
X173766094Y-68641400D01*
X173909106Y-68641400D01*
X174049366Y-68669299D01*
G37*
G36*
X179897600Y-70093400D02*
G01*
X178445600Y-70093400D01*
X178445600Y-68641400D01*
X179897600Y-68641400D01*
X179897600Y-70093400D01*
G37*
G36*
X181383366Y-68669299D02*
G01*
X181515488Y-68724026D01*
X181515490Y-68724027D01*
X181634398Y-68803479D01*
X181735521Y-68904602D01*
X181735522Y-68904604D01*
X181814974Y-69023512D01*
X181869701Y-69155634D01*
X181897600Y-69295894D01*
X181897600Y-69438906D01*
X181869701Y-69579166D01*
X181814974Y-69711288D01*
X181814973Y-69711290D01*
X181735521Y-69830198D01*
X181634398Y-69931321D01*
X181515490Y-70010773D01*
X181515489Y-70010774D01*
X181515488Y-70010774D01*
X181383366Y-70065501D01*
X181243106Y-70093400D01*
X181100094Y-70093400D01*
X180959834Y-70065501D01*
X180827712Y-70010774D01*
X180827711Y-70010774D01*
X180827710Y-70010773D01*
X180708802Y-69931321D01*
X180607679Y-69830198D01*
X180528227Y-69711290D01*
X180528226Y-69711288D01*
X180473499Y-69579166D01*
X180445600Y-69438906D01*
X180445600Y-69295894D01*
X180473499Y-69155634D01*
X180528226Y-69023512D01*
X180607678Y-68904604D01*
X180607679Y-68904602D01*
X180708802Y-68803479D01*
X180827710Y-68724027D01*
X180827712Y-68724026D01*
X180959834Y-68669299D01*
X181100094Y-68641400D01*
X181243106Y-68641400D01*
X181383366Y-68669299D01*
G37*
G36*
X187009600Y-70093400D02*
G01*
X185557600Y-70093400D01*
X185557600Y-68641400D01*
X187009600Y-68641400D01*
X187009600Y-70093400D01*
G37*
G36*
X188495366Y-68669299D02*
G01*
X188627488Y-68724026D01*
X188627490Y-68724027D01*
X188746398Y-68803479D01*
X188847521Y-68904602D01*
X188847522Y-68904604D01*
X188926974Y-69023512D01*
X188981701Y-69155634D01*
X189009600Y-69295894D01*
X189009600Y-69438906D01*
X188981701Y-69579166D01*
X188926974Y-69711288D01*
X188926973Y-69711290D01*
X188847521Y-69830198D01*
X188746398Y-69931321D01*
X188627490Y-70010773D01*
X188627489Y-70010774D01*
X188627488Y-70010774D01*
X188495366Y-70065501D01*
X188355106Y-70093400D01*
X188212094Y-70093400D01*
X188071834Y-70065501D01*
X187939712Y-70010774D01*
X187939711Y-70010774D01*
X187939710Y-70010773D01*
X187820802Y-69931321D01*
X187719679Y-69830198D01*
X187640227Y-69711290D01*
X187640226Y-69711288D01*
X187585499Y-69579166D01*
X187557600Y-69438906D01*
X187557600Y-69295894D01*
X187585499Y-69155634D01*
X187640226Y-69023512D01*
X187719678Y-68904604D01*
X187719679Y-68904602D01*
X187820802Y-68803479D01*
X187939710Y-68724027D01*
X187939712Y-68724026D01*
X188071834Y-68669299D01*
X188212094Y-68641400D01*
X188355106Y-68641400D01*
X188495366Y-68669299D01*
G37*
G36*
X145347366Y-68669299D02*
G01*
X145479488Y-68724026D01*
X145479490Y-68724027D01*
X145598398Y-68803479D01*
X145699521Y-68904602D01*
X145699522Y-68904604D01*
X145778974Y-69023512D01*
X145833701Y-69155634D01*
X145861600Y-69295894D01*
X145861600Y-69438906D01*
X145833701Y-69579166D01*
X145778974Y-69711288D01*
X145778973Y-69711290D01*
X145699521Y-69830198D01*
X145598398Y-69931321D01*
X145479490Y-70010773D01*
X145479489Y-70010774D01*
X145479488Y-70010774D01*
X145347366Y-70065501D01*
X145207106Y-70093400D01*
X145064094Y-70093400D01*
X144923834Y-70065501D01*
X144791712Y-70010774D01*
X144791711Y-70010774D01*
X144791710Y-70010773D01*
X144672802Y-69931321D01*
X144571679Y-69830198D01*
X144492227Y-69711290D01*
X144492226Y-69711288D01*
X144437499Y-69579166D01*
X144409600Y-69438906D01*
X144409600Y-69295894D01*
X144437499Y-69155634D01*
X144492226Y-69023512D01*
X144571678Y-68904604D01*
X144571679Y-68904602D01*
X144672802Y-68803479D01*
X144791710Y-68724027D01*
X144791712Y-68724026D01*
X144923834Y-68669299D01*
X145064094Y-68641400D01*
X145207106Y-68641400D01*
X145347366Y-68669299D01*
G37*
M02*
