G04 #@! TF.GenerationSoftware,KiCad,Pcbnew,5.1.5-52549c5~84~ubuntu18.04.1*
G04 #@! TF.CreationDate,2019-12-28T22:58:30-05:00*
G04 #@! TF.ProjectId,landfill_board_rev1,6c616e64-6669-46c6-9c5f-626f6172645f,rev?*
G04 #@! TF.SameCoordinates,Original*
G04 #@! TF.FileFunction,Copper,L2,Bot*
G04 #@! TF.FilePolarity,Positive*
%FSLAX46Y46*%
G04 Gerber Fmt 4.6, Leading zero omitted, Abs format (unit mm)*
G04 Created by KiCad (PCBNEW 5.1.5-52549c5~84~ubuntu18.04.1) date 2019-12-28 22:58:30*
%MOMM*%
%LPD*%
G04 APERTURE LIST*
%ADD10O,1.350000X1.350000*%
%ADD11R,1.350000X1.350000*%
%ADD12R,1.500000X2.300000*%
%ADD13O,1.500000X2.300000*%
%ADD14R,1.700000X1.700000*%
%ADD15O,1.700000X1.700000*%
%ADD16C,0.800000*%
%ADD17C,0.600000*%
%ADD18C,1.000000*%
%ADD19C,0.350000*%
%ADD20C,0.250000*%
%ADD21C,0.254000*%
G04 APERTURE END LIST*
D10*
X188283600Y-69367400D03*
D11*
X186283600Y-69367400D03*
D10*
X181171600Y-69367400D03*
D11*
X179171600Y-69367400D03*
D10*
X173837600Y-69367400D03*
D11*
X171837600Y-69367400D03*
D10*
X166471600Y-69367400D03*
D11*
X164471600Y-69367400D03*
D10*
X159359600Y-69367400D03*
D11*
X157359600Y-69367400D03*
D10*
X152247600Y-69367400D03*
D11*
X150247600Y-69367400D03*
D10*
X145135600Y-69367400D03*
D11*
X143135600Y-69367400D03*
D10*
X138023600Y-69367400D03*
D11*
X136023600Y-69367400D03*
D10*
X131165600Y-69367400D03*
D11*
X129165600Y-69367400D03*
D10*
X124275600Y-69367400D03*
D11*
X122275600Y-69367400D03*
D10*
X117195600Y-69367400D03*
D11*
X115195600Y-69367400D03*
D10*
X110337600Y-69367400D03*
D11*
X108337600Y-69367400D03*
D10*
X186061600Y-106451400D03*
D11*
X188061600Y-106451400D03*
D10*
X178822600Y-106451400D03*
D11*
X180822600Y-106451400D03*
D10*
X171583600Y-106451400D03*
D11*
X173583600Y-106451400D03*
D10*
X164217600Y-106451400D03*
D11*
X166217600Y-106451400D03*
D10*
X157105600Y-106451400D03*
D11*
X159105600Y-106451400D03*
D10*
X149993600Y-106451400D03*
D11*
X151993600Y-106451400D03*
D10*
X142881600Y-106451400D03*
D11*
X144881600Y-106451400D03*
D10*
X135896600Y-106451400D03*
D11*
X137896600Y-106451400D03*
D10*
X128911600Y-106451400D03*
D11*
X130911600Y-106451400D03*
D10*
X121926600Y-106451400D03*
D11*
X123926600Y-106451400D03*
D10*
X114941600Y-106451400D03*
D11*
X116941600Y-106451400D03*
D10*
X108083600Y-106451400D03*
D11*
X110083600Y-106451400D03*
D12*
X130276600Y-94386400D03*
D13*
X132816600Y-94386400D03*
X135356600Y-94386400D03*
D14*
X188696600Y-77051400D03*
D15*
X188696600Y-79591400D03*
X188696600Y-82131400D03*
X188696600Y-84671400D03*
X188696600Y-87211400D03*
X188696600Y-89751400D03*
D14*
X177806600Y-80321400D03*
D15*
X180346600Y-80321400D03*
X177806600Y-82861400D03*
X180346600Y-82861400D03*
X177806600Y-85401400D03*
X180346600Y-85401400D03*
D16*
X163677600Y-83337400D03*
X135229600Y-99593400D03*
X135229600Y-103657400D03*
X164185600Y-104673400D03*
X164185600Y-98069400D03*
X146151600Y-78003400D03*
X146786600Y-80035400D03*
X140563600Y-84861400D03*
X141592600Y-77749400D03*
X135102600Y-87909400D03*
X133197600Y-78511400D03*
X123926600Y-78003400D03*
X125958600Y-88036400D03*
X108686600Y-78384400D03*
X112750600Y-66827400D03*
X140690600Y-66700400D03*
X169392600Y-66573400D03*
X168757600Y-95275400D03*
X166090600Y-84607400D03*
X174218600Y-82321400D03*
X158597600Y-88544400D03*
X153263600Y-86639400D03*
X188315600Y-95783400D03*
X177901600Y-103530400D03*
X185648600Y-103403400D03*
X171043600Y-103657400D03*
X157073600Y-103403400D03*
X161518600Y-105562400D03*
X149199600Y-103149400D03*
X141960600Y-103530400D03*
X128371600Y-103403400D03*
X121640600Y-103403400D03*
X114147600Y-103403400D03*
X108178600Y-98958400D03*
X133832600Y-102641400D03*
X133705600Y-105689400D03*
X149961600Y-82448400D03*
X143992600Y-81871400D03*
X152247600Y-92735400D03*
X148926601Y-86912399D03*
X138785600Y-93624400D03*
X142849600Y-101243409D03*
X145818087Y-99613896D03*
X140309600Y-102018409D03*
X144373600Y-99593400D03*
X141325600Y-99593400D03*
X136753600Y-102793409D03*
X149893599Y-99593400D03*
X154787600Y-94767400D03*
X149893599Y-100609400D03*
X155549600Y-95529400D03*
X154533600Y-99085400D03*
X158597600Y-94005400D03*
X160121600Y-94005400D03*
X156057600Y-99847400D03*
X183489600Y-80797400D03*
X182331702Y-79158504D03*
X168051598Y-85369400D03*
X171297600Y-80797400D03*
X131165600Y-74756410D03*
X143738600Y-79146400D03*
X162153600Y-99974400D03*
X162459829Y-85627439D03*
X151669046Y-100966350D03*
X146913600Y-81221400D03*
X145897600Y-80797400D03*
X158724600Y-80797400D03*
X146093608Y-82840408D03*
X163550600Y-81305400D03*
X144754600Y-81178400D03*
X153009600Y-99212400D03*
X160883600Y-89306400D03*
X175361600Y-79273400D03*
X175336200Y-85775800D03*
X148818600Y-78892400D03*
X154787600Y-78892400D03*
X143611600Y-84721400D03*
X146178885Y-83925106D03*
D17*
X179806600Y-79366806D02*
X179806600Y-80321400D01*
X168756497Y-78258503D02*
X178698297Y-78258503D01*
X178698297Y-78258503D02*
X179806600Y-79366806D01*
X163677600Y-83337400D02*
X168756497Y-78258503D01*
D18*
X135229600Y-99593400D02*
X135229600Y-103657400D01*
D19*
X164185600Y-104673400D02*
X164185600Y-98069400D01*
X146151600Y-78003400D02*
X146151600Y-79400400D01*
X146151600Y-79400400D02*
X146786600Y-80035400D01*
X140563600Y-84861400D02*
X140563600Y-84295715D01*
X140563600Y-84295715D02*
X140563600Y-78257400D01*
X140563600Y-78257400D02*
X141071600Y-77749400D01*
X141071600Y-77749400D02*
X141592600Y-77749400D01*
X147548600Y-86512400D02*
X147548600Y-87274400D01*
X142849600Y-101243409D02*
X144188574Y-101243409D01*
X144188574Y-101243409D02*
X145818087Y-99613896D01*
X140309600Y-102018409D02*
X142734609Y-99593400D01*
X142734609Y-99593400D02*
X144373600Y-99593400D01*
X139953609Y-99593400D02*
X141325600Y-99593400D01*
X136753600Y-102793409D02*
X139953609Y-99593400D01*
X154787600Y-94767400D02*
X154025600Y-95461399D01*
X154025600Y-95461399D02*
X149893599Y-99593400D01*
X149893599Y-100609400D02*
X150469600Y-100609400D01*
X150469600Y-100609400D02*
X155549600Y-95529400D01*
X154533600Y-99085400D02*
X158597600Y-95021400D01*
X158597600Y-95021400D02*
X158597600Y-94005400D01*
X156057600Y-99847400D02*
X160121600Y-94005400D01*
X183489600Y-80797400D02*
X182981600Y-80289400D01*
X182981600Y-80289400D02*
X182981600Y-79808402D01*
X182981600Y-79808402D02*
X182331702Y-79158504D01*
X168051598Y-84043402D02*
X171297600Y-80797400D01*
X168051598Y-85369400D02*
X168051598Y-84043402D01*
X139983610Y-74756410D02*
X131165600Y-74756410D01*
X143611600Y-78384400D02*
X139983610Y-74756410D01*
X143738600Y-79146400D02*
X143611600Y-78384400D01*
X162153600Y-99974400D02*
X162153600Y-85933668D01*
X162153600Y-85933668D02*
X162459829Y-85627439D01*
D20*
X161161650Y-100966350D02*
X162153600Y-99974400D01*
X151669046Y-100966350D02*
X161161650Y-100966350D01*
D19*
X155155599Y-77228399D02*
X158724600Y-80797400D01*
X145779599Y-77228399D02*
X155155599Y-77228399D01*
X145376599Y-77631399D02*
X145779599Y-77228399D01*
X145897600Y-80797400D02*
X145376599Y-80276399D01*
X145376599Y-80276399D02*
X145376599Y-77631399D01*
X146093608Y-82840408D02*
X146093608Y-82041392D01*
X146093608Y-82041392D02*
X146913600Y-81221400D01*
X158923589Y-76678389D02*
X163550600Y-81305400D01*
X145551778Y-76678389D02*
X158923589Y-76678389D01*
X144754600Y-77475567D02*
X145551778Y-76678389D01*
X144754600Y-81178400D02*
X144754600Y-77475567D01*
X160883600Y-89306400D02*
X157822599Y-93129401D01*
X157822599Y-93129401D02*
X157822599Y-94399401D01*
X157822599Y-94399401D02*
X153009600Y-99212400D01*
X175361600Y-83538392D02*
X175361600Y-79273400D01*
X175336200Y-85775800D02*
X175361600Y-83538392D01*
X148818600Y-78892400D02*
X154787600Y-78892400D01*
X143611600Y-84721400D02*
X145382591Y-84721400D01*
X145382591Y-84721400D02*
X146178885Y-83925106D01*
D21*
G36*
X191765334Y-111989400D02*
G01*
X106042800Y-111989400D01*
X106031211Y-106322376D01*
X106773600Y-106322376D01*
X106773600Y-106580424D01*
X106823942Y-106833513D01*
X106922693Y-107071918D01*
X107066056Y-107286477D01*
X107248523Y-107468944D01*
X107463082Y-107612307D01*
X107701487Y-107711058D01*
X107954576Y-107761400D01*
X108212624Y-107761400D01*
X108465713Y-107711058D01*
X108704118Y-107612307D01*
X108886113Y-107490703D01*
X108957415Y-107577585D01*
X109054106Y-107656937D01*
X109164420Y-107715902D01*
X109284118Y-107752212D01*
X109408600Y-107764472D01*
X110758600Y-107764472D01*
X110883082Y-107752212D01*
X111002780Y-107715902D01*
X111113094Y-107656937D01*
X111209785Y-107577585D01*
X111289137Y-107480894D01*
X111348102Y-107370580D01*
X111384412Y-107250882D01*
X111396672Y-107126400D01*
X111396672Y-106322376D01*
X113631600Y-106322376D01*
X113631600Y-106580424D01*
X113681942Y-106833513D01*
X113780693Y-107071918D01*
X113924056Y-107286477D01*
X114106523Y-107468944D01*
X114321082Y-107612307D01*
X114559487Y-107711058D01*
X114812576Y-107761400D01*
X115070624Y-107761400D01*
X115323713Y-107711058D01*
X115562118Y-107612307D01*
X115744113Y-107490703D01*
X115815415Y-107577585D01*
X115912106Y-107656937D01*
X116022420Y-107715902D01*
X116142118Y-107752212D01*
X116266600Y-107764472D01*
X117616600Y-107764472D01*
X117741082Y-107752212D01*
X117860780Y-107715902D01*
X117971094Y-107656937D01*
X118067785Y-107577585D01*
X118147137Y-107480894D01*
X118206102Y-107370580D01*
X118242412Y-107250882D01*
X118254672Y-107126400D01*
X118254672Y-106322376D01*
X120616600Y-106322376D01*
X120616600Y-106580424D01*
X120666942Y-106833513D01*
X120765693Y-107071918D01*
X120909056Y-107286477D01*
X121091523Y-107468944D01*
X121306082Y-107612307D01*
X121544487Y-107711058D01*
X121797576Y-107761400D01*
X122055624Y-107761400D01*
X122308713Y-107711058D01*
X122547118Y-107612307D01*
X122729113Y-107490703D01*
X122800415Y-107577585D01*
X122897106Y-107656937D01*
X123007420Y-107715902D01*
X123127118Y-107752212D01*
X123251600Y-107764472D01*
X124601600Y-107764472D01*
X124726082Y-107752212D01*
X124845780Y-107715902D01*
X124956094Y-107656937D01*
X125052785Y-107577585D01*
X125132137Y-107480894D01*
X125191102Y-107370580D01*
X125227412Y-107250882D01*
X125239672Y-107126400D01*
X125239672Y-106322376D01*
X127601600Y-106322376D01*
X127601600Y-106580424D01*
X127651942Y-106833513D01*
X127750693Y-107071918D01*
X127894056Y-107286477D01*
X128076523Y-107468944D01*
X128291082Y-107612307D01*
X128529487Y-107711058D01*
X128782576Y-107761400D01*
X129040624Y-107761400D01*
X129293713Y-107711058D01*
X129532118Y-107612307D01*
X129714113Y-107490703D01*
X129785415Y-107577585D01*
X129882106Y-107656937D01*
X129992420Y-107715902D01*
X130112118Y-107752212D01*
X130236600Y-107764472D01*
X131586600Y-107764472D01*
X131711082Y-107752212D01*
X131830780Y-107715902D01*
X131941094Y-107656937D01*
X132037785Y-107577585D01*
X132117137Y-107480894D01*
X132176102Y-107370580D01*
X132212412Y-107250882D01*
X132224672Y-107126400D01*
X132224672Y-106322376D01*
X134586600Y-106322376D01*
X134586600Y-106580424D01*
X134636942Y-106833513D01*
X134735693Y-107071918D01*
X134879056Y-107286477D01*
X135061523Y-107468944D01*
X135276082Y-107612307D01*
X135514487Y-107711058D01*
X135767576Y-107761400D01*
X136025624Y-107761400D01*
X136278713Y-107711058D01*
X136517118Y-107612307D01*
X136699113Y-107490703D01*
X136770415Y-107577585D01*
X136867106Y-107656937D01*
X136977420Y-107715902D01*
X137097118Y-107752212D01*
X137221600Y-107764472D01*
X138571600Y-107764472D01*
X138696082Y-107752212D01*
X138815780Y-107715902D01*
X138926094Y-107656937D01*
X139022785Y-107577585D01*
X139102137Y-107480894D01*
X139161102Y-107370580D01*
X139197412Y-107250882D01*
X139209672Y-107126400D01*
X139209672Y-106322376D01*
X141571600Y-106322376D01*
X141571600Y-106580424D01*
X141621942Y-106833513D01*
X141720693Y-107071918D01*
X141864056Y-107286477D01*
X142046523Y-107468944D01*
X142261082Y-107612307D01*
X142499487Y-107711058D01*
X142752576Y-107761400D01*
X143010624Y-107761400D01*
X143263713Y-107711058D01*
X143502118Y-107612307D01*
X143684113Y-107490703D01*
X143755415Y-107577585D01*
X143852106Y-107656937D01*
X143962420Y-107715902D01*
X144082118Y-107752212D01*
X144206600Y-107764472D01*
X145556600Y-107764472D01*
X145681082Y-107752212D01*
X145800780Y-107715902D01*
X145911094Y-107656937D01*
X146007785Y-107577585D01*
X146087137Y-107480894D01*
X146146102Y-107370580D01*
X146182412Y-107250882D01*
X146194672Y-107126400D01*
X146194672Y-106322376D01*
X148683600Y-106322376D01*
X148683600Y-106580424D01*
X148733942Y-106833513D01*
X148832693Y-107071918D01*
X148976056Y-107286477D01*
X149158523Y-107468944D01*
X149373082Y-107612307D01*
X149611487Y-107711058D01*
X149864576Y-107761400D01*
X150122624Y-107761400D01*
X150375713Y-107711058D01*
X150614118Y-107612307D01*
X150796113Y-107490703D01*
X150867415Y-107577585D01*
X150964106Y-107656937D01*
X151074420Y-107715902D01*
X151194118Y-107752212D01*
X151318600Y-107764472D01*
X152668600Y-107764472D01*
X152793082Y-107752212D01*
X152912780Y-107715902D01*
X153023094Y-107656937D01*
X153119785Y-107577585D01*
X153199137Y-107480894D01*
X153258102Y-107370580D01*
X153294412Y-107250882D01*
X153306672Y-107126400D01*
X153306672Y-106322376D01*
X155795600Y-106322376D01*
X155795600Y-106580424D01*
X155845942Y-106833513D01*
X155944693Y-107071918D01*
X156088056Y-107286477D01*
X156270523Y-107468944D01*
X156485082Y-107612307D01*
X156723487Y-107711058D01*
X156976576Y-107761400D01*
X157234624Y-107761400D01*
X157487713Y-107711058D01*
X157726118Y-107612307D01*
X157908113Y-107490703D01*
X157979415Y-107577585D01*
X158076106Y-107656937D01*
X158186420Y-107715902D01*
X158306118Y-107752212D01*
X158430600Y-107764472D01*
X159780600Y-107764472D01*
X159905082Y-107752212D01*
X160024780Y-107715902D01*
X160135094Y-107656937D01*
X160231785Y-107577585D01*
X160311137Y-107480894D01*
X160370102Y-107370580D01*
X160406412Y-107250882D01*
X160418672Y-107126400D01*
X160418672Y-106322376D01*
X162907600Y-106322376D01*
X162907600Y-106580424D01*
X162957942Y-106833513D01*
X163056693Y-107071918D01*
X163200056Y-107286477D01*
X163382523Y-107468944D01*
X163597082Y-107612307D01*
X163835487Y-107711058D01*
X164088576Y-107761400D01*
X164346624Y-107761400D01*
X164599713Y-107711058D01*
X164838118Y-107612307D01*
X165020113Y-107490703D01*
X165091415Y-107577585D01*
X165188106Y-107656937D01*
X165298420Y-107715902D01*
X165418118Y-107752212D01*
X165542600Y-107764472D01*
X166892600Y-107764472D01*
X167017082Y-107752212D01*
X167136780Y-107715902D01*
X167247094Y-107656937D01*
X167343785Y-107577585D01*
X167423137Y-107480894D01*
X167482102Y-107370580D01*
X167518412Y-107250882D01*
X167530672Y-107126400D01*
X167530672Y-106322376D01*
X170273600Y-106322376D01*
X170273600Y-106580424D01*
X170323942Y-106833513D01*
X170422693Y-107071918D01*
X170566056Y-107286477D01*
X170748523Y-107468944D01*
X170963082Y-107612307D01*
X171201487Y-107711058D01*
X171454576Y-107761400D01*
X171712624Y-107761400D01*
X171965713Y-107711058D01*
X172204118Y-107612307D01*
X172386113Y-107490703D01*
X172457415Y-107577585D01*
X172554106Y-107656937D01*
X172664420Y-107715902D01*
X172784118Y-107752212D01*
X172908600Y-107764472D01*
X174258600Y-107764472D01*
X174383082Y-107752212D01*
X174502780Y-107715902D01*
X174613094Y-107656937D01*
X174709785Y-107577585D01*
X174789137Y-107480894D01*
X174848102Y-107370580D01*
X174884412Y-107250882D01*
X174896672Y-107126400D01*
X174896672Y-106322376D01*
X177512600Y-106322376D01*
X177512600Y-106580424D01*
X177562942Y-106833513D01*
X177661693Y-107071918D01*
X177805056Y-107286477D01*
X177987523Y-107468944D01*
X178202082Y-107612307D01*
X178440487Y-107711058D01*
X178693576Y-107761400D01*
X178951624Y-107761400D01*
X179204713Y-107711058D01*
X179443118Y-107612307D01*
X179625113Y-107490703D01*
X179696415Y-107577585D01*
X179793106Y-107656937D01*
X179903420Y-107715902D01*
X180023118Y-107752212D01*
X180147600Y-107764472D01*
X181497600Y-107764472D01*
X181622082Y-107752212D01*
X181741780Y-107715902D01*
X181852094Y-107656937D01*
X181948785Y-107577585D01*
X182028137Y-107480894D01*
X182087102Y-107370580D01*
X182123412Y-107250882D01*
X182135672Y-107126400D01*
X182135672Y-106322376D01*
X184751600Y-106322376D01*
X184751600Y-106580424D01*
X184801942Y-106833513D01*
X184900693Y-107071918D01*
X185044056Y-107286477D01*
X185226523Y-107468944D01*
X185441082Y-107612307D01*
X185679487Y-107711058D01*
X185932576Y-107761400D01*
X186190624Y-107761400D01*
X186443713Y-107711058D01*
X186682118Y-107612307D01*
X186864113Y-107490703D01*
X186935415Y-107577585D01*
X187032106Y-107656937D01*
X187142420Y-107715902D01*
X187262118Y-107752212D01*
X187386600Y-107764472D01*
X188736600Y-107764472D01*
X188861082Y-107752212D01*
X188980780Y-107715902D01*
X189091094Y-107656937D01*
X189187785Y-107577585D01*
X189267137Y-107480894D01*
X189326102Y-107370580D01*
X189362412Y-107250882D01*
X189374672Y-107126400D01*
X189374672Y-105776400D01*
X189362412Y-105651918D01*
X189326102Y-105532220D01*
X189267137Y-105421906D01*
X189187785Y-105325215D01*
X189091094Y-105245863D01*
X188980780Y-105186898D01*
X188861082Y-105150588D01*
X188736600Y-105138328D01*
X187386600Y-105138328D01*
X187262118Y-105150588D01*
X187142420Y-105186898D01*
X187032106Y-105245863D01*
X186935415Y-105325215D01*
X186864113Y-105412097D01*
X186682118Y-105290493D01*
X186443713Y-105191742D01*
X186190624Y-105141400D01*
X185932576Y-105141400D01*
X185679487Y-105191742D01*
X185441082Y-105290493D01*
X185226523Y-105433856D01*
X185044056Y-105616323D01*
X184900693Y-105830882D01*
X184801942Y-106069287D01*
X184751600Y-106322376D01*
X182135672Y-106322376D01*
X182135672Y-105776400D01*
X182123412Y-105651918D01*
X182087102Y-105532220D01*
X182028137Y-105421906D01*
X181948785Y-105325215D01*
X181852094Y-105245863D01*
X181741780Y-105186898D01*
X181622082Y-105150588D01*
X181497600Y-105138328D01*
X180147600Y-105138328D01*
X180023118Y-105150588D01*
X179903420Y-105186898D01*
X179793106Y-105245863D01*
X179696415Y-105325215D01*
X179625113Y-105412097D01*
X179443118Y-105290493D01*
X179204713Y-105191742D01*
X178951624Y-105141400D01*
X178693576Y-105141400D01*
X178440487Y-105191742D01*
X178202082Y-105290493D01*
X177987523Y-105433856D01*
X177805056Y-105616323D01*
X177661693Y-105830882D01*
X177562942Y-106069287D01*
X177512600Y-106322376D01*
X174896672Y-106322376D01*
X174896672Y-105776400D01*
X174884412Y-105651918D01*
X174848102Y-105532220D01*
X174789137Y-105421906D01*
X174709785Y-105325215D01*
X174613094Y-105245863D01*
X174502780Y-105186898D01*
X174383082Y-105150588D01*
X174258600Y-105138328D01*
X172908600Y-105138328D01*
X172784118Y-105150588D01*
X172664420Y-105186898D01*
X172554106Y-105245863D01*
X172457415Y-105325215D01*
X172386113Y-105412097D01*
X172204118Y-105290493D01*
X171965713Y-105191742D01*
X171712624Y-105141400D01*
X171454576Y-105141400D01*
X171201487Y-105191742D01*
X170963082Y-105290493D01*
X170748523Y-105433856D01*
X170566056Y-105616323D01*
X170422693Y-105830882D01*
X170323942Y-106069287D01*
X170273600Y-106322376D01*
X167530672Y-106322376D01*
X167530672Y-105776400D01*
X167518412Y-105651918D01*
X167482102Y-105532220D01*
X167423137Y-105421906D01*
X167343785Y-105325215D01*
X167247094Y-105245863D01*
X167136780Y-105186898D01*
X167017082Y-105150588D01*
X166892600Y-105138328D01*
X165542600Y-105138328D01*
X165418118Y-105150588D01*
X165298420Y-105186898D01*
X165188106Y-105245863D01*
X165091415Y-105325215D01*
X165020113Y-105412097D01*
X164954473Y-105368238D01*
X164989537Y-105333174D01*
X165102805Y-105163656D01*
X165180826Y-104975298D01*
X165220600Y-104775339D01*
X165220600Y-104571461D01*
X165180826Y-104371502D01*
X165102805Y-104183144D01*
X164995600Y-104022700D01*
X164995600Y-98720100D01*
X165102805Y-98559656D01*
X165180826Y-98371298D01*
X165220600Y-98171339D01*
X165220600Y-97967461D01*
X165180826Y-97767502D01*
X165102805Y-97579144D01*
X164989537Y-97409626D01*
X164845374Y-97265463D01*
X164675856Y-97152195D01*
X164487498Y-97074174D01*
X164287539Y-97034400D01*
X164083661Y-97034400D01*
X163883702Y-97074174D01*
X163695344Y-97152195D01*
X163525826Y-97265463D01*
X163381663Y-97409626D01*
X163268395Y-97579144D01*
X163190374Y-97767502D01*
X163150600Y-97967461D01*
X163150600Y-98171339D01*
X163190374Y-98371298D01*
X163268395Y-98559656D01*
X163375601Y-98720101D01*
X163375600Y-104022700D01*
X163268395Y-104183144D01*
X163190374Y-104371502D01*
X163150600Y-104571461D01*
X163150600Y-104775339D01*
X163190374Y-104975298D01*
X163268395Y-105163656D01*
X163381663Y-105333174D01*
X163442362Y-105393873D01*
X163382523Y-105433856D01*
X163200056Y-105616323D01*
X163056693Y-105830882D01*
X162957942Y-106069287D01*
X162907600Y-106322376D01*
X160418672Y-106322376D01*
X160418672Y-105776400D01*
X160406412Y-105651918D01*
X160370102Y-105532220D01*
X160311137Y-105421906D01*
X160231785Y-105325215D01*
X160135094Y-105245863D01*
X160024780Y-105186898D01*
X159905082Y-105150588D01*
X159780600Y-105138328D01*
X158430600Y-105138328D01*
X158306118Y-105150588D01*
X158186420Y-105186898D01*
X158076106Y-105245863D01*
X157979415Y-105325215D01*
X157908113Y-105412097D01*
X157726118Y-105290493D01*
X157487713Y-105191742D01*
X157234624Y-105141400D01*
X156976576Y-105141400D01*
X156723487Y-105191742D01*
X156485082Y-105290493D01*
X156270523Y-105433856D01*
X156088056Y-105616323D01*
X155944693Y-105830882D01*
X155845942Y-106069287D01*
X155795600Y-106322376D01*
X153306672Y-106322376D01*
X153306672Y-105776400D01*
X153294412Y-105651918D01*
X153258102Y-105532220D01*
X153199137Y-105421906D01*
X153119785Y-105325215D01*
X153023094Y-105245863D01*
X152912780Y-105186898D01*
X152793082Y-105150588D01*
X152668600Y-105138328D01*
X151318600Y-105138328D01*
X151194118Y-105150588D01*
X151074420Y-105186898D01*
X150964106Y-105245863D01*
X150867415Y-105325215D01*
X150796113Y-105412097D01*
X150614118Y-105290493D01*
X150375713Y-105191742D01*
X150122624Y-105141400D01*
X149864576Y-105141400D01*
X149611487Y-105191742D01*
X149373082Y-105290493D01*
X149158523Y-105433856D01*
X148976056Y-105616323D01*
X148832693Y-105830882D01*
X148733942Y-106069287D01*
X148683600Y-106322376D01*
X146194672Y-106322376D01*
X146194672Y-105776400D01*
X146182412Y-105651918D01*
X146146102Y-105532220D01*
X146087137Y-105421906D01*
X146007785Y-105325215D01*
X145911094Y-105245863D01*
X145800780Y-105186898D01*
X145681082Y-105150588D01*
X145556600Y-105138328D01*
X144206600Y-105138328D01*
X144082118Y-105150588D01*
X143962420Y-105186898D01*
X143852106Y-105245863D01*
X143755415Y-105325215D01*
X143684113Y-105412097D01*
X143502118Y-105290493D01*
X143263713Y-105191742D01*
X143010624Y-105141400D01*
X142752576Y-105141400D01*
X142499487Y-105191742D01*
X142261082Y-105290493D01*
X142046523Y-105433856D01*
X141864056Y-105616323D01*
X141720693Y-105830882D01*
X141621942Y-106069287D01*
X141571600Y-106322376D01*
X139209672Y-106322376D01*
X139209672Y-105776400D01*
X139197412Y-105651918D01*
X139161102Y-105532220D01*
X139102137Y-105421906D01*
X139022785Y-105325215D01*
X138926094Y-105245863D01*
X138815780Y-105186898D01*
X138696082Y-105150588D01*
X138571600Y-105138328D01*
X137221600Y-105138328D01*
X137097118Y-105150588D01*
X136977420Y-105186898D01*
X136867106Y-105245863D01*
X136770415Y-105325215D01*
X136699113Y-105412097D01*
X136517118Y-105290493D01*
X136278713Y-105191742D01*
X136025624Y-105141400D01*
X135767576Y-105141400D01*
X135514487Y-105191742D01*
X135276082Y-105290493D01*
X135061523Y-105433856D01*
X134879056Y-105616323D01*
X134735693Y-105830882D01*
X134636942Y-106069287D01*
X134586600Y-106322376D01*
X132224672Y-106322376D01*
X132224672Y-105776400D01*
X132212412Y-105651918D01*
X132176102Y-105532220D01*
X132117137Y-105421906D01*
X132037785Y-105325215D01*
X131941094Y-105245863D01*
X131830780Y-105186898D01*
X131711082Y-105150588D01*
X131586600Y-105138328D01*
X130236600Y-105138328D01*
X130112118Y-105150588D01*
X129992420Y-105186898D01*
X129882106Y-105245863D01*
X129785415Y-105325215D01*
X129714113Y-105412097D01*
X129532118Y-105290493D01*
X129293713Y-105191742D01*
X129040624Y-105141400D01*
X128782576Y-105141400D01*
X128529487Y-105191742D01*
X128291082Y-105290493D01*
X128076523Y-105433856D01*
X127894056Y-105616323D01*
X127750693Y-105830882D01*
X127651942Y-106069287D01*
X127601600Y-106322376D01*
X125239672Y-106322376D01*
X125239672Y-105776400D01*
X125227412Y-105651918D01*
X125191102Y-105532220D01*
X125132137Y-105421906D01*
X125052785Y-105325215D01*
X124956094Y-105245863D01*
X124845780Y-105186898D01*
X124726082Y-105150588D01*
X124601600Y-105138328D01*
X123251600Y-105138328D01*
X123127118Y-105150588D01*
X123007420Y-105186898D01*
X122897106Y-105245863D01*
X122800415Y-105325215D01*
X122729113Y-105412097D01*
X122547118Y-105290493D01*
X122308713Y-105191742D01*
X122055624Y-105141400D01*
X121797576Y-105141400D01*
X121544487Y-105191742D01*
X121306082Y-105290493D01*
X121091523Y-105433856D01*
X120909056Y-105616323D01*
X120765693Y-105830882D01*
X120666942Y-106069287D01*
X120616600Y-106322376D01*
X118254672Y-106322376D01*
X118254672Y-105776400D01*
X118242412Y-105651918D01*
X118206102Y-105532220D01*
X118147137Y-105421906D01*
X118067785Y-105325215D01*
X117971094Y-105245863D01*
X117860780Y-105186898D01*
X117741082Y-105150588D01*
X117616600Y-105138328D01*
X116266600Y-105138328D01*
X116142118Y-105150588D01*
X116022420Y-105186898D01*
X115912106Y-105245863D01*
X115815415Y-105325215D01*
X115744113Y-105412097D01*
X115562118Y-105290493D01*
X115323713Y-105191742D01*
X115070624Y-105141400D01*
X114812576Y-105141400D01*
X114559487Y-105191742D01*
X114321082Y-105290493D01*
X114106523Y-105433856D01*
X113924056Y-105616323D01*
X113780693Y-105830882D01*
X113681942Y-106069287D01*
X113631600Y-106322376D01*
X111396672Y-106322376D01*
X111396672Y-105776400D01*
X111384412Y-105651918D01*
X111348102Y-105532220D01*
X111289137Y-105421906D01*
X111209785Y-105325215D01*
X111113094Y-105245863D01*
X111002780Y-105186898D01*
X110883082Y-105150588D01*
X110758600Y-105138328D01*
X109408600Y-105138328D01*
X109284118Y-105150588D01*
X109164420Y-105186898D01*
X109054106Y-105245863D01*
X108957415Y-105325215D01*
X108886113Y-105412097D01*
X108704118Y-105290493D01*
X108465713Y-105191742D01*
X108212624Y-105141400D01*
X107954576Y-105141400D01*
X107701487Y-105191742D01*
X107463082Y-105290493D01*
X107248523Y-105433856D01*
X107066056Y-105616323D01*
X106922693Y-105830882D01*
X106823942Y-106069287D01*
X106773600Y-106322376D01*
X106031211Y-106322376D01*
X106017337Y-99537649D01*
X134094600Y-99537649D01*
X134094601Y-103713152D01*
X134111024Y-103879899D01*
X134175925Y-104093847D01*
X134281317Y-104291023D01*
X134423152Y-104463849D01*
X134595978Y-104605684D01*
X134793154Y-104711076D01*
X135007102Y-104775977D01*
X135229600Y-104797891D01*
X135452099Y-104775977D01*
X135666047Y-104711076D01*
X135863223Y-104605684D01*
X136036049Y-104463849D01*
X136177884Y-104291023D01*
X136283276Y-104093847D01*
X136348177Y-103879899D01*
X136360871Y-103751011D01*
X136451702Y-103788635D01*
X136651661Y-103828409D01*
X136855539Y-103828409D01*
X137055498Y-103788635D01*
X137243856Y-103710614D01*
X137413374Y-103597346D01*
X137557537Y-103453183D01*
X137670805Y-103283665D01*
X137748826Y-103095307D01*
X137786471Y-102906050D01*
X140289122Y-100403400D01*
X140674900Y-100403400D01*
X140737361Y-100445135D01*
X140196959Y-100985538D01*
X140007702Y-101023183D01*
X139819344Y-101101204D01*
X139649826Y-101214472D01*
X139505663Y-101358635D01*
X139392395Y-101528153D01*
X139314374Y-101716511D01*
X139274600Y-101916470D01*
X139274600Y-102120348D01*
X139314374Y-102320307D01*
X139392395Y-102508665D01*
X139505663Y-102678183D01*
X139649826Y-102822346D01*
X139819344Y-102935614D01*
X140007702Y-103013635D01*
X140207661Y-103053409D01*
X140411539Y-103053409D01*
X140611498Y-103013635D01*
X140799856Y-102935614D01*
X140969374Y-102822346D01*
X141113537Y-102678183D01*
X141226805Y-102508665D01*
X141304826Y-102320307D01*
X141342471Y-102131050D01*
X141876001Y-101597520D01*
X141932395Y-101733665D01*
X142045663Y-101903183D01*
X142189826Y-102047346D01*
X142359344Y-102160614D01*
X142547702Y-102238635D01*
X142747661Y-102278409D01*
X142951539Y-102278409D01*
X143151498Y-102238635D01*
X143339856Y-102160614D01*
X143500300Y-102053409D01*
X144148786Y-102053409D01*
X144188574Y-102057328D01*
X144228362Y-102053409D01*
X144228365Y-102053409D01*
X144347362Y-102041689D01*
X144500047Y-101995372D01*
X144640763Y-101920158D01*
X144764102Y-101818937D01*
X144789473Y-101788022D01*
X145930729Y-100646767D01*
X146119985Y-100609122D01*
X146308343Y-100531101D01*
X146477861Y-100417833D01*
X146622024Y-100273670D01*
X146735292Y-100104152D01*
X146813313Y-99915794D01*
X146853087Y-99715835D01*
X146853087Y-99511957D01*
X146849011Y-99491461D01*
X148858599Y-99491461D01*
X148858599Y-99695339D01*
X148898373Y-99895298D01*
X148976394Y-100083656D01*
X148988250Y-100101400D01*
X148976394Y-100119144D01*
X148898373Y-100307502D01*
X148858599Y-100507461D01*
X148858599Y-100711339D01*
X148898373Y-100911298D01*
X148976394Y-101099656D01*
X149089662Y-101269174D01*
X149233825Y-101413337D01*
X149403343Y-101526605D01*
X149591701Y-101604626D01*
X149791660Y-101644400D01*
X149995538Y-101644400D01*
X150195497Y-101604626D01*
X150383855Y-101526605D01*
X150550334Y-101415368D01*
X150628388Y-101407680D01*
X150720057Y-101379872D01*
X150751841Y-101456606D01*
X150865109Y-101626124D01*
X151009272Y-101770287D01*
X151178790Y-101883555D01*
X151367148Y-101961576D01*
X151567107Y-102001350D01*
X151770985Y-102001350D01*
X151970944Y-101961576D01*
X152159302Y-101883555D01*
X152328820Y-101770287D01*
X152372757Y-101726350D01*
X161124328Y-101726350D01*
X161161650Y-101730026D01*
X161198972Y-101726350D01*
X161198983Y-101726350D01*
X161310636Y-101715353D01*
X161453897Y-101671896D01*
X161585926Y-101601324D01*
X161701651Y-101506351D01*
X161725454Y-101477348D01*
X162193401Y-101009400D01*
X162255539Y-101009400D01*
X162455498Y-100969626D01*
X162643856Y-100891605D01*
X162813374Y-100778337D01*
X162957537Y-100634174D01*
X163070805Y-100464656D01*
X163148826Y-100276298D01*
X163188600Y-100076339D01*
X163188600Y-99872461D01*
X163148826Y-99672502D01*
X163070805Y-99484144D01*
X162963600Y-99323700D01*
X162963600Y-94240140D01*
X175091600Y-94240140D01*
X175091600Y-94532660D01*
X175148668Y-94819558D01*
X175260610Y-95089811D01*
X175423125Y-95333032D01*
X175629968Y-95539875D01*
X175873189Y-95702390D01*
X176143442Y-95814332D01*
X176430340Y-95871400D01*
X176722860Y-95871400D01*
X177009758Y-95814332D01*
X177280011Y-95702390D01*
X177523232Y-95539875D01*
X177730075Y-95333032D01*
X177892590Y-95089811D01*
X178004532Y-94819558D01*
X178061600Y-94532660D01*
X178061600Y-94240140D01*
X182091600Y-94240140D01*
X182091600Y-94532660D01*
X182148668Y-94819558D01*
X182260610Y-95089811D01*
X182423125Y-95333032D01*
X182629968Y-95539875D01*
X182873189Y-95702390D01*
X183143442Y-95814332D01*
X183430340Y-95871400D01*
X183722860Y-95871400D01*
X184009758Y-95814332D01*
X184280011Y-95702390D01*
X184523232Y-95539875D01*
X184730075Y-95333032D01*
X184892590Y-95089811D01*
X185004532Y-94819558D01*
X185061600Y-94532660D01*
X185061600Y-94240140D01*
X185004532Y-93953242D01*
X184892590Y-93682989D01*
X184730075Y-93439768D01*
X184523232Y-93232925D01*
X184280011Y-93070410D01*
X184009758Y-92958468D01*
X183722860Y-92901400D01*
X183430340Y-92901400D01*
X183143442Y-92958468D01*
X182873189Y-93070410D01*
X182629968Y-93232925D01*
X182423125Y-93439768D01*
X182260610Y-93682989D01*
X182148668Y-93953242D01*
X182091600Y-94240140D01*
X178061600Y-94240140D01*
X178004532Y-93953242D01*
X177892590Y-93682989D01*
X177730075Y-93439768D01*
X177523232Y-93232925D01*
X177280011Y-93070410D01*
X177009758Y-92958468D01*
X176722860Y-92901400D01*
X176430340Y-92901400D01*
X176143442Y-92958468D01*
X175873189Y-93070410D01*
X175629968Y-93232925D01*
X175423125Y-93439768D01*
X175260610Y-93682989D01*
X175148668Y-93953242D01*
X175091600Y-94240140D01*
X162963600Y-94240140D01*
X162963600Y-86535614D01*
X163119603Y-86431376D01*
X163263766Y-86287213D01*
X163377034Y-86117695D01*
X163455055Y-85929337D01*
X163494829Y-85729378D01*
X163494829Y-85525500D01*
X163455055Y-85325541D01*
X163430998Y-85267461D01*
X167016598Y-85267461D01*
X167016598Y-85471339D01*
X167056372Y-85671298D01*
X167134393Y-85859656D01*
X167247661Y-86029174D01*
X167391824Y-86173337D01*
X167561342Y-86286605D01*
X167749700Y-86364626D01*
X167949659Y-86404400D01*
X168153537Y-86404400D01*
X168353496Y-86364626D01*
X168541854Y-86286605D01*
X168711372Y-86173337D01*
X168855535Y-86029174D01*
X168968803Y-85859656D01*
X169046824Y-85671298D01*
X169086598Y-85471339D01*
X169086598Y-85267461D01*
X169046824Y-85067502D01*
X168968803Y-84879144D01*
X168861598Y-84718700D01*
X168861598Y-84378914D01*
X171410242Y-81830271D01*
X171599498Y-81792626D01*
X171787856Y-81714605D01*
X171957374Y-81601337D01*
X172101537Y-81457174D01*
X172214805Y-81287656D01*
X172292826Y-81099298D01*
X172332600Y-80899339D01*
X172332600Y-80695461D01*
X172292826Y-80495502D01*
X172214805Y-80307144D01*
X172101537Y-80137626D01*
X171957374Y-79993463D01*
X171787856Y-79880195D01*
X171599498Y-79802174D01*
X171399539Y-79762400D01*
X171195661Y-79762400D01*
X170995702Y-79802174D01*
X170807344Y-79880195D01*
X170637826Y-79993463D01*
X170493663Y-80137626D01*
X170380395Y-80307144D01*
X170302374Y-80495502D01*
X170264729Y-80684758D01*
X167506981Y-83442507D01*
X167476071Y-83467874D01*
X167432726Y-83520691D01*
X167374849Y-83591213D01*
X167305912Y-83720187D01*
X167299636Y-83731929D01*
X167260977Y-83859371D01*
X167253319Y-83884615D01*
X167237679Y-84043402D01*
X167241599Y-84083200D01*
X167241598Y-84718699D01*
X167134393Y-84879144D01*
X167056372Y-85067502D01*
X167016598Y-85267461D01*
X163430998Y-85267461D01*
X163377034Y-85137183D01*
X163263766Y-84967665D01*
X163119603Y-84823502D01*
X162950085Y-84710234D01*
X162761727Y-84632213D01*
X162561768Y-84592439D01*
X162357890Y-84592439D01*
X162157931Y-84632213D01*
X161969573Y-84710234D01*
X161800055Y-84823502D01*
X161655892Y-84967665D01*
X161542624Y-85137183D01*
X161464603Y-85325541D01*
X161424829Y-85525500D01*
X161424829Y-85578807D01*
X161406359Y-85613363D01*
X161401638Y-85622195D01*
X161370028Y-85726400D01*
X161355321Y-85774881D01*
X161339681Y-85933668D01*
X161343601Y-85973466D01*
X161343601Y-88376663D01*
X161185498Y-88311174D01*
X160985539Y-88271400D01*
X160781661Y-88271400D01*
X160581702Y-88311174D01*
X160393344Y-88389195D01*
X160223826Y-88502463D01*
X160079663Y-88646626D01*
X159966395Y-88816144D01*
X159888374Y-89004502D01*
X159848600Y-89204461D01*
X159848600Y-89303090D01*
X157193372Y-92619306D01*
X157145850Y-92677213D01*
X157124693Y-92716795D01*
X157100209Y-92754413D01*
X157087174Y-92786988D01*
X157070636Y-92817929D01*
X157057607Y-92860879D01*
X157040933Y-92902549D01*
X157034505Y-92937037D01*
X157024319Y-92970614D01*
X157019919Y-93015287D01*
X157011696Y-93059404D01*
X157012599Y-93134247D01*
X157012600Y-94063887D01*
X156280199Y-94796288D01*
X156209374Y-94725463D01*
X156039856Y-94612195D01*
X155851498Y-94534174D01*
X155794219Y-94522781D01*
X155782826Y-94465502D01*
X155704805Y-94277144D01*
X155591537Y-94107626D01*
X155447374Y-93963463D01*
X155277856Y-93850195D01*
X155089498Y-93772174D01*
X154889539Y-93732400D01*
X154685661Y-93732400D01*
X154485702Y-93772174D01*
X154297344Y-93850195D01*
X154127826Y-93963463D01*
X153983663Y-94107626D01*
X153870395Y-94277144D01*
X153792374Y-94465502D01*
X153764993Y-94603157D01*
X153495623Y-94848489D01*
X153480980Y-94860506D01*
X153466200Y-94875286D01*
X153450770Y-94889339D01*
X153438102Y-94903385D01*
X149780958Y-98560529D01*
X149591701Y-98598174D01*
X149403343Y-98676195D01*
X149233825Y-98789463D01*
X149089662Y-98933626D01*
X148976394Y-99103144D01*
X148898373Y-99291502D01*
X148858599Y-99491461D01*
X146849011Y-99491461D01*
X146813313Y-99311998D01*
X146735292Y-99123640D01*
X146622024Y-98954122D01*
X146477861Y-98809959D01*
X146308343Y-98696691D01*
X146119985Y-98618670D01*
X145920026Y-98578896D01*
X145716148Y-98578896D01*
X145516189Y-98618670D01*
X145327831Y-98696691D01*
X145158313Y-98809959D01*
X145106092Y-98862181D01*
X145033374Y-98789463D01*
X144863856Y-98676195D01*
X144675498Y-98598174D01*
X144475539Y-98558400D01*
X144271661Y-98558400D01*
X144071702Y-98598174D01*
X143883344Y-98676195D01*
X143722900Y-98783400D01*
X142774397Y-98783400D01*
X142734609Y-98779481D01*
X142694821Y-98783400D01*
X142694818Y-98783400D01*
X142575821Y-98795120D01*
X142458672Y-98830657D01*
X142423135Y-98841437D01*
X142293924Y-98910502D01*
X142282420Y-98916651D01*
X142176356Y-99003695D01*
X142129537Y-98933626D01*
X141985374Y-98789463D01*
X141815856Y-98676195D01*
X141627498Y-98598174D01*
X141427539Y-98558400D01*
X141223661Y-98558400D01*
X141023702Y-98598174D01*
X140835344Y-98676195D01*
X140674900Y-98783400D01*
X139993396Y-98783400D01*
X139953608Y-98779481D01*
X139913820Y-98783400D01*
X139913818Y-98783400D01*
X139794821Y-98795120D01*
X139642136Y-98841437D01*
X139603789Y-98861934D01*
X139501419Y-98916651D01*
X139476445Y-98937147D01*
X139378081Y-99017872D01*
X139352716Y-99048780D01*
X136640959Y-101760538D01*
X136451702Y-101798183D01*
X136364600Y-101834262D01*
X136364600Y-99537648D01*
X136348177Y-99370901D01*
X136283276Y-99156953D01*
X136177884Y-98959777D01*
X136036049Y-98786951D01*
X135863223Y-98645116D01*
X135666046Y-98539724D01*
X135452098Y-98474823D01*
X135229600Y-98452909D01*
X135007101Y-98474823D01*
X134793153Y-98539724D01*
X134595977Y-98645116D01*
X134423151Y-98786951D01*
X134281316Y-98959777D01*
X134175924Y-99156954D01*
X134111023Y-99370902D01*
X134094600Y-99537649D01*
X106017337Y-99537649D01*
X106004451Y-93236400D01*
X128888528Y-93236400D01*
X128888528Y-95536400D01*
X128900788Y-95660882D01*
X128937098Y-95780580D01*
X128996063Y-95890894D01*
X129075415Y-95987585D01*
X129172106Y-96066937D01*
X129282420Y-96125902D01*
X129402118Y-96162212D01*
X129526600Y-96174472D01*
X131026600Y-96174472D01*
X131151082Y-96162212D01*
X131270780Y-96125902D01*
X131381094Y-96066937D01*
X131477785Y-95987585D01*
X131557137Y-95890894D01*
X131616102Y-95780580D01*
X131652412Y-95660882D01*
X131663182Y-95551526D01*
X131735572Y-95661461D01*
X131927060Y-95855545D01*
X132152732Y-96008542D01*
X132403916Y-96114573D01*
X132475415Y-96128718D01*
X132689600Y-96006056D01*
X132689600Y-94513400D01*
X132669600Y-94513400D01*
X132669600Y-94259400D01*
X132689600Y-94259400D01*
X132689600Y-92766744D01*
X132943600Y-92766744D01*
X132943600Y-94259400D01*
X132963600Y-94259400D01*
X132963600Y-94513400D01*
X132943600Y-94513400D01*
X132943600Y-96006056D01*
X133157785Y-96128718D01*
X133229284Y-96114573D01*
X133480468Y-96008542D01*
X133706140Y-95855545D01*
X133897628Y-95661461D01*
X134047572Y-95433749D01*
X134084114Y-95343822D01*
X134199443Y-95559588D01*
X134372520Y-95770481D01*
X134583413Y-95943557D01*
X134824020Y-96072164D01*
X135085094Y-96151360D01*
X135356600Y-96178101D01*
X135628107Y-96151360D01*
X135889181Y-96072164D01*
X136129788Y-95943557D01*
X136340681Y-95770481D01*
X136513757Y-95559588D01*
X136642364Y-95318981D01*
X136721560Y-95057907D01*
X136741600Y-94854436D01*
X136741600Y-93918363D01*
X136721560Y-93714893D01*
X136642364Y-93453819D01*
X136513757Y-93213212D01*
X136340680Y-93002319D01*
X136129787Y-92829243D01*
X135889180Y-92700636D01*
X135628106Y-92621440D01*
X135356600Y-92594699D01*
X135085093Y-92621440D01*
X134824019Y-92700636D01*
X134583412Y-92829243D01*
X134372519Y-93002320D01*
X134199443Y-93213213D01*
X134084114Y-93428979D01*
X134047572Y-93339051D01*
X133897628Y-93111339D01*
X133706140Y-92917255D01*
X133480468Y-92764258D01*
X133229284Y-92658227D01*
X133157785Y-92644082D01*
X132943600Y-92766744D01*
X132689600Y-92766744D01*
X132475415Y-92644082D01*
X132403916Y-92658227D01*
X132152732Y-92764258D01*
X131927060Y-92917255D01*
X131735572Y-93111339D01*
X131663182Y-93221274D01*
X131652412Y-93111918D01*
X131616102Y-92992220D01*
X131557137Y-92881906D01*
X131477785Y-92785215D01*
X131381094Y-92705863D01*
X131270780Y-92646898D01*
X131151082Y-92610588D01*
X131026600Y-92598328D01*
X129526600Y-92598328D01*
X129402118Y-92610588D01*
X129282420Y-92646898D01*
X129172106Y-92705863D01*
X129075415Y-92785215D01*
X128996063Y-92881906D01*
X128937098Y-92992220D01*
X128900788Y-93111918D01*
X128888528Y-93236400D01*
X106004451Y-93236400D01*
X105994059Y-88154767D01*
X107849400Y-88154767D01*
X107849400Y-88476833D01*
X107912232Y-88792712D01*
X108035482Y-89090263D01*
X108214413Y-89358052D01*
X108442148Y-89585787D01*
X108709937Y-89764718D01*
X109007488Y-89887968D01*
X109323367Y-89950800D01*
X109645433Y-89950800D01*
X109961312Y-89887968D01*
X110258863Y-89764718D01*
X110526652Y-89585787D01*
X110754387Y-89358052D01*
X110933318Y-89090263D01*
X111056568Y-88792712D01*
X111119400Y-88476833D01*
X111119400Y-88154767D01*
X111056568Y-87838888D01*
X110933318Y-87541337D01*
X110754387Y-87273548D01*
X110526652Y-87045813D01*
X110258863Y-86866882D01*
X109961312Y-86743632D01*
X109645433Y-86680800D01*
X109323367Y-86680800D01*
X109007488Y-86743632D01*
X108709937Y-86866882D01*
X108442148Y-87045813D01*
X108214413Y-87273548D01*
X108035482Y-87541337D01*
X107912232Y-87838888D01*
X107849400Y-88154767D01*
X105994059Y-88154767D01*
X105966451Y-74654471D01*
X130130600Y-74654471D01*
X130130600Y-74858349D01*
X130170374Y-75058308D01*
X130248395Y-75246666D01*
X130361663Y-75416184D01*
X130505826Y-75560347D01*
X130675344Y-75673615D01*
X130863702Y-75751636D01*
X131063661Y-75791410D01*
X131267539Y-75791410D01*
X131467498Y-75751636D01*
X131655856Y-75673615D01*
X131816300Y-75566410D01*
X139648098Y-75566410D01*
X140989370Y-76907682D01*
X140932826Y-76945463D01*
X140928738Y-76949551D01*
X140912812Y-76951120D01*
X140760127Y-76997437D01*
X140619411Y-77072651D01*
X140496072Y-77173872D01*
X140470700Y-77204788D01*
X140018983Y-77656505D01*
X139988073Y-77681872D01*
X139962708Y-77712780D01*
X139886851Y-77805211D01*
X139818969Y-77932211D01*
X139811638Y-77945927D01*
X139765321Y-78098612D01*
X139764554Y-78106400D01*
X139749681Y-78257400D01*
X139753601Y-78297198D01*
X139753600Y-84210700D01*
X139646395Y-84371144D01*
X139568374Y-84559502D01*
X139528600Y-84759461D01*
X139528600Y-84963339D01*
X139568374Y-85163298D01*
X139646395Y-85351656D01*
X139759663Y-85521174D01*
X139903826Y-85665337D01*
X140073344Y-85778605D01*
X140261702Y-85856626D01*
X140461661Y-85896400D01*
X140665539Y-85896400D01*
X140865498Y-85856626D01*
X141053856Y-85778605D01*
X141223374Y-85665337D01*
X141367537Y-85521174D01*
X141480805Y-85351656D01*
X141558826Y-85163298D01*
X141598600Y-84963339D01*
X141598600Y-84759461D01*
X141558826Y-84559502D01*
X141480805Y-84371144D01*
X141373600Y-84210700D01*
X141373600Y-78761115D01*
X141490661Y-78784400D01*
X141694539Y-78784400D01*
X141894498Y-78744626D01*
X142082856Y-78666605D01*
X142252374Y-78553337D01*
X142396537Y-78409174D01*
X142434318Y-78352631D01*
X142796920Y-78715232D01*
X142743374Y-78844502D01*
X142703600Y-79044461D01*
X142703600Y-79248339D01*
X142743374Y-79448298D01*
X142821395Y-79636656D01*
X142934663Y-79806174D01*
X143078826Y-79950337D01*
X143248344Y-80063605D01*
X143436702Y-80141626D01*
X143636661Y-80181400D01*
X143840539Y-80181400D01*
X143944600Y-80160701D01*
X143944600Y-80527700D01*
X143837395Y-80688144D01*
X143759374Y-80876502D01*
X143719600Y-81076461D01*
X143719600Y-81280339D01*
X143759374Y-81480298D01*
X143837395Y-81668656D01*
X143950663Y-81838174D01*
X144094826Y-81982337D01*
X144264344Y-82095605D01*
X144452702Y-82173626D01*
X144652661Y-82213400D01*
X144856539Y-82213400D01*
X145056498Y-82173626D01*
X145244856Y-82095605D01*
X145282548Y-82070420D01*
X145283608Y-82081180D01*
X145283608Y-82189708D01*
X145176403Y-82350152D01*
X145098382Y-82538510D01*
X145058608Y-82738469D01*
X145058608Y-82942347D01*
X145098382Y-83142306D01*
X145176403Y-83330664D01*
X145255686Y-83449320D01*
X145183659Y-83623208D01*
X145146014Y-83812465D01*
X145047079Y-83911400D01*
X144262300Y-83911400D01*
X144101856Y-83804195D01*
X143913498Y-83726174D01*
X143713539Y-83686400D01*
X143509661Y-83686400D01*
X143309702Y-83726174D01*
X143121344Y-83804195D01*
X142951826Y-83917463D01*
X142807663Y-84061626D01*
X142694395Y-84231144D01*
X142616374Y-84419502D01*
X142576600Y-84619461D01*
X142576600Y-84823339D01*
X142616374Y-85023298D01*
X142694395Y-85211656D01*
X142807663Y-85381174D01*
X142951826Y-85525337D01*
X143121344Y-85638605D01*
X143309702Y-85716626D01*
X143509661Y-85756400D01*
X143713539Y-85756400D01*
X143913498Y-85716626D01*
X144101856Y-85638605D01*
X144262300Y-85531400D01*
X145342803Y-85531400D01*
X145382591Y-85535319D01*
X145422379Y-85531400D01*
X145422382Y-85531400D01*
X145541379Y-85519680D01*
X145694064Y-85473363D01*
X145834780Y-85398149D01*
X145958119Y-85296928D01*
X145983490Y-85266013D01*
X146291526Y-84957977D01*
X146480783Y-84920332D01*
X146669141Y-84842311D01*
X146838659Y-84729043D01*
X146982822Y-84584880D01*
X147096090Y-84415362D01*
X147174111Y-84227004D01*
X147213885Y-84027045D01*
X147213885Y-83823167D01*
X147174111Y-83623208D01*
X147096090Y-83434850D01*
X147016807Y-83316194D01*
X147088834Y-83142306D01*
X147128608Y-82942347D01*
X147128608Y-82738469D01*
X147088834Y-82538510D01*
X147010813Y-82350152D01*
X146978588Y-82301924D01*
X147026241Y-82254271D01*
X147215498Y-82216626D01*
X147403856Y-82138605D01*
X147573374Y-82025337D01*
X147717537Y-81881174D01*
X147830805Y-81711656D01*
X147908826Y-81523298D01*
X147948600Y-81323339D01*
X147948600Y-81119461D01*
X147908826Y-80919502D01*
X147830805Y-80731144D01*
X147717537Y-80561626D01*
X147694898Y-80538987D01*
X147703805Y-80525656D01*
X147781826Y-80337298D01*
X147821600Y-80137339D01*
X147821600Y-79933461D01*
X147781826Y-79733502D01*
X147703805Y-79545144D01*
X147590537Y-79375626D01*
X147446374Y-79231463D01*
X147276856Y-79118195D01*
X147088498Y-79040174D01*
X146961600Y-79014933D01*
X146961600Y-78654100D01*
X147068805Y-78493656D01*
X147146826Y-78305298D01*
X147186600Y-78105339D01*
X147186600Y-78038399D01*
X148233752Y-78038399D01*
X148158826Y-78088463D01*
X148014663Y-78232626D01*
X147901395Y-78402144D01*
X147823374Y-78590502D01*
X147783600Y-78790461D01*
X147783600Y-78994339D01*
X147823374Y-79194298D01*
X147901395Y-79382656D01*
X148014663Y-79552174D01*
X148158826Y-79696337D01*
X148328344Y-79809605D01*
X148516702Y-79887626D01*
X148716661Y-79927400D01*
X148920539Y-79927400D01*
X149120498Y-79887626D01*
X149308856Y-79809605D01*
X149469300Y-79702400D01*
X154136900Y-79702400D01*
X154297344Y-79809605D01*
X154485702Y-79887626D01*
X154685661Y-79927400D01*
X154889539Y-79927400D01*
X155089498Y-79887626D01*
X155277856Y-79809605D01*
X155447374Y-79696337D01*
X155591537Y-79552174D01*
X155704805Y-79382656D01*
X155782826Y-79194298D01*
X155814873Y-79033185D01*
X157691729Y-80910042D01*
X157729374Y-81099298D01*
X157807395Y-81287656D01*
X157920663Y-81457174D01*
X158064826Y-81601337D01*
X158234344Y-81714605D01*
X158422702Y-81792626D01*
X158622661Y-81832400D01*
X158826539Y-81832400D01*
X159026498Y-81792626D01*
X159214856Y-81714605D01*
X159384374Y-81601337D01*
X159528537Y-81457174D01*
X159641805Y-81287656D01*
X159719826Y-81099298D01*
X159759600Y-80899339D01*
X159759600Y-80695461D01*
X159719826Y-80495502D01*
X159641805Y-80307144D01*
X159528537Y-80137626D01*
X159384374Y-79993463D01*
X159214856Y-79880195D01*
X159026498Y-79802174D01*
X158837242Y-79764529D01*
X156561101Y-77488389D01*
X158588077Y-77488389D01*
X162517729Y-81418042D01*
X162555374Y-81607298D01*
X162633395Y-81795656D01*
X162746663Y-81965174D01*
X162890826Y-82109337D01*
X163060344Y-82222605D01*
X163248702Y-82300626D01*
X163368296Y-82324415D01*
X163332742Y-82359969D01*
X163187344Y-82420195D01*
X163017826Y-82533463D01*
X162873663Y-82677626D01*
X162760395Y-82847144D01*
X162682374Y-83035502D01*
X162642600Y-83235461D01*
X162642600Y-83439339D01*
X162682374Y-83639298D01*
X162760395Y-83827656D01*
X162873663Y-83997174D01*
X163017826Y-84141337D01*
X163187344Y-84254605D01*
X163375702Y-84332626D01*
X163575661Y-84372400D01*
X163779539Y-84372400D01*
X163979498Y-84332626D01*
X164167856Y-84254605D01*
X164337374Y-84141337D01*
X164481537Y-83997174D01*
X164594805Y-83827656D01*
X164655031Y-83682258D01*
X169143787Y-79193503D01*
X174326600Y-79193503D01*
X174326600Y-79375339D01*
X174366374Y-79575298D01*
X174444395Y-79763656D01*
X174551601Y-79924101D01*
X174551600Y-83533805D01*
X174533654Y-85114635D01*
X174532263Y-85116026D01*
X174418995Y-85285544D01*
X174340974Y-85473902D01*
X174301200Y-85673861D01*
X174301200Y-85877739D01*
X174340974Y-86077698D01*
X174418995Y-86266056D01*
X174532263Y-86435574D01*
X174676426Y-86579737D01*
X174845944Y-86693005D01*
X175034302Y-86771026D01*
X175234261Y-86810800D01*
X175438139Y-86810800D01*
X175638098Y-86771026D01*
X175826456Y-86693005D01*
X175995974Y-86579737D01*
X176140137Y-86435574D01*
X176253405Y-86266056D01*
X176331426Y-86077698D01*
X176371200Y-85877739D01*
X176371200Y-85797014D01*
X176378668Y-85834558D01*
X176490610Y-86104811D01*
X176653125Y-86348032D01*
X176859968Y-86554875D01*
X177103189Y-86717390D01*
X177373442Y-86829332D01*
X177660340Y-86886400D01*
X177952860Y-86886400D01*
X178239758Y-86829332D01*
X178510011Y-86717390D01*
X178753232Y-86554875D01*
X178960075Y-86348032D01*
X179077700Y-86171994D01*
X179249012Y-86401669D01*
X179465245Y-86596578D01*
X179715348Y-86745557D01*
X179989709Y-86842881D01*
X180219600Y-86722214D01*
X180219600Y-85528400D01*
X180473600Y-85528400D01*
X180473600Y-86722214D01*
X180703491Y-86842881D01*
X180977852Y-86745557D01*
X181227955Y-86596578D01*
X181444188Y-86401669D01*
X181618241Y-86168320D01*
X181743425Y-85905499D01*
X181788076Y-85758290D01*
X181666755Y-85528400D01*
X180473600Y-85528400D01*
X180219600Y-85528400D01*
X180199600Y-85528400D01*
X180199600Y-85274400D01*
X180219600Y-85274400D01*
X180219600Y-85254400D01*
X180473600Y-85254400D01*
X180473600Y-85274400D01*
X181666755Y-85274400D01*
X181788076Y-85044510D01*
X181743425Y-84897301D01*
X181618241Y-84634480D01*
X181444188Y-84401131D01*
X181227955Y-84206222D01*
X181111066Y-84136595D01*
X181293232Y-84014875D01*
X181500075Y-83808032D01*
X181662590Y-83564811D01*
X181774532Y-83294558D01*
X181831600Y-83007660D01*
X181831600Y-82715140D01*
X181774532Y-82428242D01*
X181662590Y-82157989D01*
X181500075Y-81914768D01*
X181293232Y-81707925D01*
X181118840Y-81591400D01*
X181293232Y-81474875D01*
X181500075Y-81268032D01*
X181662590Y-81024811D01*
X181774532Y-80754558D01*
X181831600Y-80467660D01*
X181831600Y-80175140D01*
X181807281Y-80052881D01*
X181841446Y-80075709D01*
X182029804Y-80153730D01*
X182171600Y-80181935D01*
X182171600Y-80249612D01*
X182167681Y-80289400D01*
X182171600Y-80329188D01*
X182171600Y-80329190D01*
X182183320Y-80448187D01*
X182229637Y-80600872D01*
X182253972Y-80646400D01*
X182304851Y-80741589D01*
X182315495Y-80754558D01*
X182406072Y-80864928D01*
X182436988Y-80890300D01*
X182456729Y-80910041D01*
X182494374Y-81099298D01*
X182572395Y-81287656D01*
X182685663Y-81457174D01*
X182829826Y-81601337D01*
X182999344Y-81714605D01*
X183187702Y-81792626D01*
X183387661Y-81832400D01*
X183591539Y-81832400D01*
X183791498Y-81792626D01*
X183979856Y-81714605D01*
X184149374Y-81601337D01*
X184293537Y-81457174D01*
X184406805Y-81287656D01*
X184484826Y-81099298D01*
X184524600Y-80899339D01*
X184524600Y-80695461D01*
X184484826Y-80495502D01*
X184406805Y-80307144D01*
X184293537Y-80137626D01*
X184149374Y-79993463D01*
X183979856Y-79880195D01*
X183795051Y-79803646D01*
X183779880Y-79649614D01*
X183733563Y-79496928D01*
X183658349Y-79356213D01*
X183582493Y-79263782D01*
X183557128Y-79232874D01*
X183526218Y-79207507D01*
X183364573Y-79045862D01*
X183326928Y-78856606D01*
X183248907Y-78668248D01*
X183135639Y-78498730D01*
X182991476Y-78354567D01*
X182821958Y-78241299D01*
X182633600Y-78163278D01*
X182433641Y-78123504D01*
X182229763Y-78123504D01*
X182029804Y-78163278D01*
X181841446Y-78241299D01*
X181671928Y-78354567D01*
X181527765Y-78498730D01*
X181414497Y-78668248D01*
X181336476Y-78856606D01*
X181296702Y-79056565D01*
X181296702Y-79171395D01*
X181293232Y-79167925D01*
X181050011Y-79005410D01*
X180779758Y-78893468D01*
X180594035Y-78856525D01*
X180587786Y-78844834D01*
X180470944Y-78702462D01*
X180435265Y-78673181D01*
X179663484Y-77901400D01*
X187208528Y-77901400D01*
X187220788Y-78025882D01*
X187257098Y-78145580D01*
X187316063Y-78255894D01*
X187395415Y-78352585D01*
X187492106Y-78431937D01*
X187602420Y-78490902D01*
X187674980Y-78512913D01*
X187543125Y-78644768D01*
X187380610Y-78887989D01*
X187268668Y-79158242D01*
X187211600Y-79445140D01*
X187211600Y-79737660D01*
X187268668Y-80024558D01*
X187380610Y-80294811D01*
X187543125Y-80538032D01*
X187749968Y-80744875D01*
X187924360Y-80861400D01*
X187749968Y-80977925D01*
X187543125Y-81184768D01*
X187380610Y-81427989D01*
X187268668Y-81698242D01*
X187211600Y-81985140D01*
X187211600Y-82277660D01*
X187268668Y-82564558D01*
X187380610Y-82834811D01*
X187543125Y-83078032D01*
X187749968Y-83284875D01*
X187924360Y-83401400D01*
X187749968Y-83517925D01*
X187543125Y-83724768D01*
X187380610Y-83967989D01*
X187268668Y-84238242D01*
X187211600Y-84525140D01*
X187211600Y-84817660D01*
X187268668Y-85104558D01*
X187380610Y-85374811D01*
X187543125Y-85618032D01*
X187749968Y-85824875D01*
X187924360Y-85941400D01*
X187749968Y-86057925D01*
X187543125Y-86264768D01*
X187380610Y-86507989D01*
X187268668Y-86778242D01*
X187211600Y-87065140D01*
X187211600Y-87357660D01*
X187268668Y-87644558D01*
X187380610Y-87914811D01*
X187543125Y-88158032D01*
X187749968Y-88364875D01*
X187924360Y-88481400D01*
X187749968Y-88597925D01*
X187543125Y-88804768D01*
X187380610Y-89047989D01*
X187268668Y-89318242D01*
X187211600Y-89605140D01*
X187211600Y-89897660D01*
X187268668Y-90184558D01*
X187380610Y-90454811D01*
X187543125Y-90698032D01*
X187749968Y-90904875D01*
X187993189Y-91067390D01*
X188263442Y-91179332D01*
X188550340Y-91236400D01*
X188842860Y-91236400D01*
X189129758Y-91179332D01*
X189400011Y-91067390D01*
X189643232Y-90904875D01*
X189850075Y-90698032D01*
X190012590Y-90454811D01*
X190124532Y-90184558D01*
X190181600Y-89897660D01*
X190181600Y-89605140D01*
X190124532Y-89318242D01*
X190012590Y-89047989D01*
X189850075Y-88804768D01*
X189643232Y-88597925D01*
X189468840Y-88481400D01*
X189643232Y-88364875D01*
X189850075Y-88158032D01*
X190012590Y-87914811D01*
X190124532Y-87644558D01*
X190181600Y-87357660D01*
X190181600Y-87065140D01*
X190124532Y-86778242D01*
X190012590Y-86507989D01*
X189850075Y-86264768D01*
X189643232Y-86057925D01*
X189468840Y-85941400D01*
X189643232Y-85824875D01*
X189850075Y-85618032D01*
X190012590Y-85374811D01*
X190124532Y-85104558D01*
X190181600Y-84817660D01*
X190181600Y-84525140D01*
X190124532Y-84238242D01*
X190012590Y-83967989D01*
X189850075Y-83724768D01*
X189643232Y-83517925D01*
X189468840Y-83401400D01*
X189643232Y-83284875D01*
X189850075Y-83078032D01*
X190012590Y-82834811D01*
X190124532Y-82564558D01*
X190181600Y-82277660D01*
X190181600Y-81985140D01*
X190124532Y-81698242D01*
X190012590Y-81427989D01*
X189850075Y-81184768D01*
X189643232Y-80977925D01*
X189468840Y-80861400D01*
X189643232Y-80744875D01*
X189850075Y-80538032D01*
X190012590Y-80294811D01*
X190124532Y-80024558D01*
X190181600Y-79737660D01*
X190181600Y-79445140D01*
X190124532Y-79158242D01*
X190012590Y-78887989D01*
X189850075Y-78644768D01*
X189718220Y-78512913D01*
X189790780Y-78490902D01*
X189901094Y-78431937D01*
X189997785Y-78352585D01*
X190077137Y-78255894D01*
X190136102Y-78145580D01*
X190172412Y-78025882D01*
X190184672Y-77901400D01*
X190181600Y-77337150D01*
X190022850Y-77178400D01*
X188823600Y-77178400D01*
X188823600Y-77198400D01*
X188569600Y-77198400D01*
X188569600Y-77178400D01*
X187370350Y-77178400D01*
X187211600Y-77337150D01*
X187208528Y-77901400D01*
X179663484Y-77901400D01*
X179391927Y-77629844D01*
X179362641Y-77594159D01*
X179220269Y-77477317D01*
X179057837Y-77390496D01*
X178881589Y-77337032D01*
X178744229Y-77323503D01*
X178698297Y-77318979D01*
X178652365Y-77323503D01*
X168802428Y-77323503D01*
X168756496Y-77318979D01*
X168678603Y-77326651D01*
X168573205Y-77337032D01*
X168396957Y-77390496D01*
X168234525Y-77477317D01*
X168092153Y-77594159D01*
X168062872Y-77629839D01*
X164569615Y-81123096D01*
X164545826Y-81003502D01*
X164467805Y-80815144D01*
X164354537Y-80645626D01*
X164210374Y-80501463D01*
X164040856Y-80388195D01*
X163852498Y-80310174D01*
X163663242Y-80272529D01*
X159592113Y-76201400D01*
X187208528Y-76201400D01*
X187211600Y-76765650D01*
X187370350Y-76924400D01*
X188569600Y-76924400D01*
X188569600Y-75725150D01*
X188823600Y-75725150D01*
X188823600Y-76924400D01*
X190022850Y-76924400D01*
X190181600Y-76765650D01*
X190184672Y-76201400D01*
X190172412Y-76076918D01*
X190136102Y-75957220D01*
X190077137Y-75846906D01*
X189997785Y-75750215D01*
X189901094Y-75670863D01*
X189790780Y-75611898D01*
X189671082Y-75575588D01*
X189546600Y-75563328D01*
X188982350Y-75566400D01*
X188823600Y-75725150D01*
X188569600Y-75725150D01*
X188410850Y-75566400D01*
X187846600Y-75563328D01*
X187722118Y-75575588D01*
X187602420Y-75611898D01*
X187492106Y-75670863D01*
X187395415Y-75750215D01*
X187316063Y-75846906D01*
X187257098Y-75957220D01*
X187220788Y-76076918D01*
X187208528Y-76201400D01*
X159592113Y-76201400D01*
X159524489Y-76133777D01*
X159499117Y-76102861D01*
X159375778Y-76001640D01*
X159235062Y-75926426D01*
X159082377Y-75880109D01*
X158963380Y-75868389D01*
X158963377Y-75868389D01*
X158923589Y-75864470D01*
X158883801Y-75868389D01*
X145591566Y-75868389D01*
X145551778Y-75864470D01*
X145511990Y-75868389D01*
X145511987Y-75868389D01*
X145392990Y-75880109D01*
X145240305Y-75926426D01*
X145182693Y-75957220D01*
X145099588Y-76001640D01*
X145035574Y-76054175D01*
X144976250Y-76102861D01*
X144950883Y-76133771D01*
X144209983Y-76874672D01*
X144179073Y-76900039D01*
X144141795Y-76945463D01*
X144077851Y-77023378D01*
X144020552Y-77130579D01*
X144002638Y-77164094D01*
X143976143Y-77251437D01*
X143956321Y-77316780D01*
X143940681Y-77475567D01*
X143944601Y-77515365D01*
X143944601Y-77571888D01*
X140584510Y-74211798D01*
X140559138Y-74180882D01*
X140435799Y-74079661D01*
X140295083Y-74004447D01*
X140142398Y-73958130D01*
X140023401Y-73946410D01*
X140023398Y-73946410D01*
X139983610Y-73942491D01*
X139943822Y-73946410D01*
X131816300Y-73946410D01*
X131655856Y-73839205D01*
X131467498Y-73761184D01*
X131267539Y-73721410D01*
X131063661Y-73721410D01*
X130863702Y-73761184D01*
X130675344Y-73839205D01*
X130505826Y-73952473D01*
X130361663Y-74096636D01*
X130248395Y-74266154D01*
X130170374Y-74454512D01*
X130130600Y-74654471D01*
X105966451Y-74654471D01*
X105954258Y-68692400D01*
X107024528Y-68692400D01*
X107024528Y-70042400D01*
X107036788Y-70166882D01*
X107073098Y-70286580D01*
X107132063Y-70396894D01*
X107211415Y-70493585D01*
X107308106Y-70572937D01*
X107418420Y-70631902D01*
X107538118Y-70668212D01*
X107662600Y-70680472D01*
X109012600Y-70680472D01*
X109137082Y-70668212D01*
X109256780Y-70631902D01*
X109367094Y-70572937D01*
X109463785Y-70493585D01*
X109540719Y-70399841D01*
X109673971Y-70496873D01*
X109907072Y-70604638D01*
X110008200Y-70635310D01*
X110210600Y-70511624D01*
X110210600Y-69494400D01*
X110464600Y-69494400D01*
X110464600Y-70511624D01*
X110667000Y-70635310D01*
X110768128Y-70604638D01*
X111001229Y-70496873D01*
X111208827Y-70345703D01*
X111382944Y-70156937D01*
X111516889Y-69937830D01*
X111605515Y-69696801D01*
X111482685Y-69494400D01*
X110464600Y-69494400D01*
X110210600Y-69494400D01*
X110190600Y-69494400D01*
X110190600Y-69240400D01*
X110210600Y-69240400D01*
X110210600Y-68223176D01*
X110464600Y-68223176D01*
X110464600Y-69240400D01*
X111482685Y-69240400D01*
X111605515Y-69037999D01*
X111516889Y-68796970D01*
X111452964Y-68692400D01*
X113882528Y-68692400D01*
X113882528Y-70042400D01*
X113894788Y-70166882D01*
X113931098Y-70286580D01*
X113990063Y-70396894D01*
X114069415Y-70493585D01*
X114166106Y-70572937D01*
X114276420Y-70631902D01*
X114396118Y-70668212D01*
X114520600Y-70680472D01*
X115870600Y-70680472D01*
X115995082Y-70668212D01*
X116114780Y-70631902D01*
X116225094Y-70572937D01*
X116321785Y-70493585D01*
X116398719Y-70399841D01*
X116531971Y-70496873D01*
X116765072Y-70604638D01*
X116866200Y-70635310D01*
X117068600Y-70511624D01*
X117068600Y-69494400D01*
X117322600Y-69494400D01*
X117322600Y-70511624D01*
X117525000Y-70635310D01*
X117626128Y-70604638D01*
X117859229Y-70496873D01*
X118066827Y-70345703D01*
X118240944Y-70156937D01*
X118374889Y-69937830D01*
X118463515Y-69696801D01*
X118340685Y-69494400D01*
X117322600Y-69494400D01*
X117068600Y-69494400D01*
X117048600Y-69494400D01*
X117048600Y-69240400D01*
X117068600Y-69240400D01*
X117068600Y-68223176D01*
X117322600Y-68223176D01*
X117322600Y-69240400D01*
X118340685Y-69240400D01*
X118463515Y-69037999D01*
X118374889Y-68796970D01*
X118310964Y-68692400D01*
X120962528Y-68692400D01*
X120962528Y-70042400D01*
X120974788Y-70166882D01*
X121011098Y-70286580D01*
X121070063Y-70396894D01*
X121149415Y-70493585D01*
X121246106Y-70572937D01*
X121356420Y-70631902D01*
X121476118Y-70668212D01*
X121600600Y-70680472D01*
X122950600Y-70680472D01*
X123075082Y-70668212D01*
X123194780Y-70631902D01*
X123305094Y-70572937D01*
X123401785Y-70493585D01*
X123478719Y-70399841D01*
X123611971Y-70496873D01*
X123845072Y-70604638D01*
X123946200Y-70635310D01*
X124148600Y-70511624D01*
X124148600Y-69494400D01*
X124402600Y-69494400D01*
X124402600Y-70511624D01*
X124605000Y-70635310D01*
X124706128Y-70604638D01*
X124939229Y-70496873D01*
X125146827Y-70345703D01*
X125320944Y-70156937D01*
X125454889Y-69937830D01*
X125543515Y-69696801D01*
X125420685Y-69494400D01*
X124402600Y-69494400D01*
X124148600Y-69494400D01*
X124128600Y-69494400D01*
X124128600Y-69240400D01*
X124148600Y-69240400D01*
X124148600Y-68223176D01*
X124402600Y-68223176D01*
X124402600Y-69240400D01*
X125420685Y-69240400D01*
X125543515Y-69037999D01*
X125454889Y-68796970D01*
X125390964Y-68692400D01*
X127852528Y-68692400D01*
X127852528Y-70042400D01*
X127864788Y-70166882D01*
X127901098Y-70286580D01*
X127960063Y-70396894D01*
X128039415Y-70493585D01*
X128136106Y-70572937D01*
X128246420Y-70631902D01*
X128366118Y-70668212D01*
X128490600Y-70680472D01*
X129840600Y-70680472D01*
X129965082Y-70668212D01*
X130084780Y-70631902D01*
X130195094Y-70572937D01*
X130291785Y-70493585D01*
X130368719Y-70399841D01*
X130501971Y-70496873D01*
X130735072Y-70604638D01*
X130836200Y-70635310D01*
X131038600Y-70511624D01*
X131038600Y-69494400D01*
X131292600Y-69494400D01*
X131292600Y-70511624D01*
X131495000Y-70635310D01*
X131596128Y-70604638D01*
X131829229Y-70496873D01*
X132036827Y-70345703D01*
X132210944Y-70156937D01*
X132344889Y-69937830D01*
X132433515Y-69696801D01*
X132310685Y-69494400D01*
X131292600Y-69494400D01*
X131038600Y-69494400D01*
X131018600Y-69494400D01*
X131018600Y-69240400D01*
X131038600Y-69240400D01*
X131038600Y-68223176D01*
X131292600Y-68223176D01*
X131292600Y-69240400D01*
X132310685Y-69240400D01*
X132433515Y-69037999D01*
X132344889Y-68796970D01*
X132280964Y-68692400D01*
X134710528Y-68692400D01*
X134710528Y-70042400D01*
X134722788Y-70166882D01*
X134759098Y-70286580D01*
X134818063Y-70396894D01*
X134897415Y-70493585D01*
X134994106Y-70572937D01*
X135104420Y-70631902D01*
X135224118Y-70668212D01*
X135348600Y-70680472D01*
X136698600Y-70680472D01*
X136823082Y-70668212D01*
X136942780Y-70631902D01*
X137053094Y-70572937D01*
X137149785Y-70493585D01*
X137226719Y-70399841D01*
X137359971Y-70496873D01*
X137593072Y-70604638D01*
X137694200Y-70635310D01*
X137896600Y-70511624D01*
X137896600Y-69494400D01*
X138150600Y-69494400D01*
X138150600Y-70511624D01*
X138353000Y-70635310D01*
X138454128Y-70604638D01*
X138687229Y-70496873D01*
X138894827Y-70345703D01*
X139068944Y-70156937D01*
X139202889Y-69937830D01*
X139291515Y-69696801D01*
X139168685Y-69494400D01*
X138150600Y-69494400D01*
X137896600Y-69494400D01*
X137876600Y-69494400D01*
X137876600Y-69240400D01*
X137896600Y-69240400D01*
X137896600Y-68223176D01*
X138150600Y-68223176D01*
X138150600Y-69240400D01*
X139168685Y-69240400D01*
X139291515Y-69037999D01*
X139202889Y-68796970D01*
X139138964Y-68692400D01*
X141822528Y-68692400D01*
X141822528Y-70042400D01*
X141834788Y-70166882D01*
X141871098Y-70286580D01*
X141930063Y-70396894D01*
X142009415Y-70493585D01*
X142106106Y-70572937D01*
X142216420Y-70631902D01*
X142336118Y-70668212D01*
X142460600Y-70680472D01*
X143810600Y-70680472D01*
X143935082Y-70668212D01*
X144054780Y-70631902D01*
X144165094Y-70572937D01*
X144261785Y-70493585D01*
X144338719Y-70399841D01*
X144471971Y-70496873D01*
X144705072Y-70604638D01*
X144806200Y-70635310D01*
X145008600Y-70511624D01*
X145008600Y-69494400D01*
X145262600Y-69494400D01*
X145262600Y-70511624D01*
X145465000Y-70635310D01*
X145566128Y-70604638D01*
X145799229Y-70496873D01*
X146006827Y-70345703D01*
X146180944Y-70156937D01*
X146314889Y-69937830D01*
X146403515Y-69696801D01*
X146280685Y-69494400D01*
X145262600Y-69494400D01*
X145008600Y-69494400D01*
X144988600Y-69494400D01*
X144988600Y-69240400D01*
X145008600Y-69240400D01*
X145008600Y-68223176D01*
X145262600Y-68223176D01*
X145262600Y-69240400D01*
X146280685Y-69240400D01*
X146403515Y-69037999D01*
X146314889Y-68796970D01*
X146250964Y-68692400D01*
X148934528Y-68692400D01*
X148934528Y-70042400D01*
X148946788Y-70166882D01*
X148983098Y-70286580D01*
X149042063Y-70396894D01*
X149121415Y-70493585D01*
X149218106Y-70572937D01*
X149328420Y-70631902D01*
X149448118Y-70668212D01*
X149572600Y-70680472D01*
X150922600Y-70680472D01*
X151047082Y-70668212D01*
X151166780Y-70631902D01*
X151277094Y-70572937D01*
X151373785Y-70493585D01*
X151450719Y-70399841D01*
X151583971Y-70496873D01*
X151817072Y-70604638D01*
X151918200Y-70635310D01*
X152120600Y-70511624D01*
X152120600Y-69494400D01*
X152374600Y-69494400D01*
X152374600Y-70511624D01*
X152577000Y-70635310D01*
X152678128Y-70604638D01*
X152911229Y-70496873D01*
X153118827Y-70345703D01*
X153292944Y-70156937D01*
X153426889Y-69937830D01*
X153515515Y-69696801D01*
X153392685Y-69494400D01*
X152374600Y-69494400D01*
X152120600Y-69494400D01*
X152100600Y-69494400D01*
X152100600Y-69240400D01*
X152120600Y-69240400D01*
X152120600Y-68223176D01*
X152374600Y-68223176D01*
X152374600Y-69240400D01*
X153392685Y-69240400D01*
X153515515Y-69037999D01*
X153426889Y-68796970D01*
X153362964Y-68692400D01*
X156046528Y-68692400D01*
X156046528Y-70042400D01*
X156058788Y-70166882D01*
X156095098Y-70286580D01*
X156154063Y-70396894D01*
X156233415Y-70493585D01*
X156330106Y-70572937D01*
X156440420Y-70631902D01*
X156560118Y-70668212D01*
X156684600Y-70680472D01*
X158034600Y-70680472D01*
X158159082Y-70668212D01*
X158278780Y-70631902D01*
X158389094Y-70572937D01*
X158485785Y-70493585D01*
X158562719Y-70399841D01*
X158695971Y-70496873D01*
X158929072Y-70604638D01*
X159030200Y-70635310D01*
X159232600Y-70511624D01*
X159232600Y-69494400D01*
X159486600Y-69494400D01*
X159486600Y-70511624D01*
X159689000Y-70635310D01*
X159790128Y-70604638D01*
X160023229Y-70496873D01*
X160230827Y-70345703D01*
X160404944Y-70156937D01*
X160538889Y-69937830D01*
X160627515Y-69696801D01*
X160504685Y-69494400D01*
X159486600Y-69494400D01*
X159232600Y-69494400D01*
X159212600Y-69494400D01*
X159212600Y-69240400D01*
X159232600Y-69240400D01*
X159232600Y-68223176D01*
X159486600Y-68223176D01*
X159486600Y-69240400D01*
X160504685Y-69240400D01*
X160627515Y-69037999D01*
X160538889Y-68796970D01*
X160474964Y-68692400D01*
X163158528Y-68692400D01*
X163158528Y-70042400D01*
X163170788Y-70166882D01*
X163207098Y-70286580D01*
X163266063Y-70396894D01*
X163345415Y-70493585D01*
X163442106Y-70572937D01*
X163552420Y-70631902D01*
X163672118Y-70668212D01*
X163796600Y-70680472D01*
X165146600Y-70680472D01*
X165271082Y-70668212D01*
X165390780Y-70631902D01*
X165501094Y-70572937D01*
X165597785Y-70493585D01*
X165674719Y-70399841D01*
X165807971Y-70496873D01*
X166041072Y-70604638D01*
X166142200Y-70635310D01*
X166344600Y-70511624D01*
X166344600Y-69494400D01*
X166598600Y-69494400D01*
X166598600Y-70511624D01*
X166801000Y-70635310D01*
X166902128Y-70604638D01*
X167135229Y-70496873D01*
X167342827Y-70345703D01*
X167516944Y-70156937D01*
X167650889Y-69937830D01*
X167739515Y-69696801D01*
X167616685Y-69494400D01*
X166598600Y-69494400D01*
X166344600Y-69494400D01*
X166324600Y-69494400D01*
X166324600Y-69240400D01*
X166344600Y-69240400D01*
X166344600Y-68223176D01*
X166598600Y-68223176D01*
X166598600Y-69240400D01*
X167616685Y-69240400D01*
X167739515Y-69037999D01*
X167650889Y-68796970D01*
X167586964Y-68692400D01*
X170524528Y-68692400D01*
X170524528Y-70042400D01*
X170536788Y-70166882D01*
X170573098Y-70286580D01*
X170632063Y-70396894D01*
X170711415Y-70493585D01*
X170808106Y-70572937D01*
X170918420Y-70631902D01*
X171038118Y-70668212D01*
X171162600Y-70680472D01*
X172512600Y-70680472D01*
X172637082Y-70668212D01*
X172756780Y-70631902D01*
X172867094Y-70572937D01*
X172963785Y-70493585D01*
X173040719Y-70399841D01*
X173173971Y-70496873D01*
X173407072Y-70604638D01*
X173508200Y-70635310D01*
X173710600Y-70511624D01*
X173710600Y-69494400D01*
X173964600Y-69494400D01*
X173964600Y-70511624D01*
X174167000Y-70635310D01*
X174268128Y-70604638D01*
X174501229Y-70496873D01*
X174708827Y-70345703D01*
X174882944Y-70156937D01*
X175016889Y-69937830D01*
X175105515Y-69696801D01*
X174982685Y-69494400D01*
X173964600Y-69494400D01*
X173710600Y-69494400D01*
X173690600Y-69494400D01*
X173690600Y-69240400D01*
X173710600Y-69240400D01*
X173710600Y-68223176D01*
X173964600Y-68223176D01*
X173964600Y-69240400D01*
X174982685Y-69240400D01*
X175105515Y-69037999D01*
X175016889Y-68796970D01*
X174952964Y-68692400D01*
X177858528Y-68692400D01*
X177858528Y-70042400D01*
X177870788Y-70166882D01*
X177907098Y-70286580D01*
X177966063Y-70396894D01*
X178045415Y-70493585D01*
X178142106Y-70572937D01*
X178252420Y-70631902D01*
X178372118Y-70668212D01*
X178496600Y-70680472D01*
X179846600Y-70680472D01*
X179971082Y-70668212D01*
X180090780Y-70631902D01*
X180201094Y-70572937D01*
X180297785Y-70493585D01*
X180374719Y-70399841D01*
X180507971Y-70496873D01*
X180741072Y-70604638D01*
X180842200Y-70635310D01*
X181044600Y-70511624D01*
X181044600Y-69494400D01*
X181298600Y-69494400D01*
X181298600Y-70511624D01*
X181501000Y-70635310D01*
X181602128Y-70604638D01*
X181835229Y-70496873D01*
X182042827Y-70345703D01*
X182216944Y-70156937D01*
X182350889Y-69937830D01*
X182439515Y-69696801D01*
X182316685Y-69494400D01*
X181298600Y-69494400D01*
X181044600Y-69494400D01*
X181024600Y-69494400D01*
X181024600Y-69240400D01*
X181044600Y-69240400D01*
X181044600Y-68223176D01*
X181298600Y-68223176D01*
X181298600Y-69240400D01*
X182316685Y-69240400D01*
X182439515Y-69037999D01*
X182350889Y-68796970D01*
X182286964Y-68692400D01*
X184970528Y-68692400D01*
X184970528Y-70042400D01*
X184982788Y-70166882D01*
X185019098Y-70286580D01*
X185078063Y-70396894D01*
X185157415Y-70493585D01*
X185254106Y-70572937D01*
X185364420Y-70631902D01*
X185484118Y-70668212D01*
X185608600Y-70680472D01*
X186958600Y-70680472D01*
X187083082Y-70668212D01*
X187202780Y-70631902D01*
X187313094Y-70572937D01*
X187409785Y-70493585D01*
X187486719Y-70399841D01*
X187619971Y-70496873D01*
X187853072Y-70604638D01*
X187954200Y-70635310D01*
X188156600Y-70511624D01*
X188156600Y-69494400D01*
X188410600Y-69494400D01*
X188410600Y-70511624D01*
X188613000Y-70635310D01*
X188714128Y-70604638D01*
X188947229Y-70496873D01*
X189154827Y-70345703D01*
X189328944Y-70156937D01*
X189462889Y-69937830D01*
X189551515Y-69696801D01*
X189428685Y-69494400D01*
X188410600Y-69494400D01*
X188156600Y-69494400D01*
X188136600Y-69494400D01*
X188136600Y-69240400D01*
X188156600Y-69240400D01*
X188156600Y-68223176D01*
X188410600Y-68223176D01*
X188410600Y-69240400D01*
X189428685Y-69240400D01*
X189551515Y-69037999D01*
X189462889Y-68796970D01*
X189328944Y-68577863D01*
X189154827Y-68389097D01*
X188947229Y-68237927D01*
X188714128Y-68130162D01*
X188613000Y-68099490D01*
X188410600Y-68223176D01*
X188156600Y-68223176D01*
X187954200Y-68099490D01*
X187853072Y-68130162D01*
X187619971Y-68237927D01*
X187486719Y-68334959D01*
X187409785Y-68241215D01*
X187313094Y-68161863D01*
X187202780Y-68102898D01*
X187083082Y-68066588D01*
X186958600Y-68054328D01*
X185608600Y-68054328D01*
X185484118Y-68066588D01*
X185364420Y-68102898D01*
X185254106Y-68161863D01*
X185157415Y-68241215D01*
X185078063Y-68337906D01*
X185019098Y-68448220D01*
X184982788Y-68567918D01*
X184970528Y-68692400D01*
X182286964Y-68692400D01*
X182216944Y-68577863D01*
X182042827Y-68389097D01*
X181835229Y-68237927D01*
X181602128Y-68130162D01*
X181501000Y-68099490D01*
X181298600Y-68223176D01*
X181044600Y-68223176D01*
X180842200Y-68099490D01*
X180741072Y-68130162D01*
X180507971Y-68237927D01*
X180374719Y-68334959D01*
X180297785Y-68241215D01*
X180201094Y-68161863D01*
X180090780Y-68102898D01*
X179971082Y-68066588D01*
X179846600Y-68054328D01*
X178496600Y-68054328D01*
X178372118Y-68066588D01*
X178252420Y-68102898D01*
X178142106Y-68161863D01*
X178045415Y-68241215D01*
X177966063Y-68337906D01*
X177907098Y-68448220D01*
X177870788Y-68567918D01*
X177858528Y-68692400D01*
X174952964Y-68692400D01*
X174882944Y-68577863D01*
X174708827Y-68389097D01*
X174501229Y-68237927D01*
X174268128Y-68130162D01*
X174167000Y-68099490D01*
X173964600Y-68223176D01*
X173710600Y-68223176D01*
X173508200Y-68099490D01*
X173407072Y-68130162D01*
X173173971Y-68237927D01*
X173040719Y-68334959D01*
X172963785Y-68241215D01*
X172867094Y-68161863D01*
X172756780Y-68102898D01*
X172637082Y-68066588D01*
X172512600Y-68054328D01*
X171162600Y-68054328D01*
X171038118Y-68066588D01*
X170918420Y-68102898D01*
X170808106Y-68161863D01*
X170711415Y-68241215D01*
X170632063Y-68337906D01*
X170573098Y-68448220D01*
X170536788Y-68567918D01*
X170524528Y-68692400D01*
X167586964Y-68692400D01*
X167516944Y-68577863D01*
X167342827Y-68389097D01*
X167135229Y-68237927D01*
X166902128Y-68130162D01*
X166801000Y-68099490D01*
X166598600Y-68223176D01*
X166344600Y-68223176D01*
X166142200Y-68099490D01*
X166041072Y-68130162D01*
X165807971Y-68237927D01*
X165674719Y-68334959D01*
X165597785Y-68241215D01*
X165501094Y-68161863D01*
X165390780Y-68102898D01*
X165271082Y-68066588D01*
X165146600Y-68054328D01*
X163796600Y-68054328D01*
X163672118Y-68066588D01*
X163552420Y-68102898D01*
X163442106Y-68161863D01*
X163345415Y-68241215D01*
X163266063Y-68337906D01*
X163207098Y-68448220D01*
X163170788Y-68567918D01*
X163158528Y-68692400D01*
X160474964Y-68692400D01*
X160404944Y-68577863D01*
X160230827Y-68389097D01*
X160023229Y-68237927D01*
X159790128Y-68130162D01*
X159689000Y-68099490D01*
X159486600Y-68223176D01*
X159232600Y-68223176D01*
X159030200Y-68099490D01*
X158929072Y-68130162D01*
X158695971Y-68237927D01*
X158562719Y-68334959D01*
X158485785Y-68241215D01*
X158389094Y-68161863D01*
X158278780Y-68102898D01*
X158159082Y-68066588D01*
X158034600Y-68054328D01*
X156684600Y-68054328D01*
X156560118Y-68066588D01*
X156440420Y-68102898D01*
X156330106Y-68161863D01*
X156233415Y-68241215D01*
X156154063Y-68337906D01*
X156095098Y-68448220D01*
X156058788Y-68567918D01*
X156046528Y-68692400D01*
X153362964Y-68692400D01*
X153292944Y-68577863D01*
X153118827Y-68389097D01*
X152911229Y-68237927D01*
X152678128Y-68130162D01*
X152577000Y-68099490D01*
X152374600Y-68223176D01*
X152120600Y-68223176D01*
X151918200Y-68099490D01*
X151817072Y-68130162D01*
X151583971Y-68237927D01*
X151450719Y-68334959D01*
X151373785Y-68241215D01*
X151277094Y-68161863D01*
X151166780Y-68102898D01*
X151047082Y-68066588D01*
X150922600Y-68054328D01*
X149572600Y-68054328D01*
X149448118Y-68066588D01*
X149328420Y-68102898D01*
X149218106Y-68161863D01*
X149121415Y-68241215D01*
X149042063Y-68337906D01*
X148983098Y-68448220D01*
X148946788Y-68567918D01*
X148934528Y-68692400D01*
X146250964Y-68692400D01*
X146180944Y-68577863D01*
X146006827Y-68389097D01*
X145799229Y-68237927D01*
X145566128Y-68130162D01*
X145465000Y-68099490D01*
X145262600Y-68223176D01*
X145008600Y-68223176D01*
X144806200Y-68099490D01*
X144705072Y-68130162D01*
X144471971Y-68237927D01*
X144338719Y-68334959D01*
X144261785Y-68241215D01*
X144165094Y-68161863D01*
X144054780Y-68102898D01*
X143935082Y-68066588D01*
X143810600Y-68054328D01*
X142460600Y-68054328D01*
X142336118Y-68066588D01*
X142216420Y-68102898D01*
X142106106Y-68161863D01*
X142009415Y-68241215D01*
X141930063Y-68337906D01*
X141871098Y-68448220D01*
X141834788Y-68567918D01*
X141822528Y-68692400D01*
X139138964Y-68692400D01*
X139068944Y-68577863D01*
X138894827Y-68389097D01*
X138687229Y-68237927D01*
X138454128Y-68130162D01*
X138353000Y-68099490D01*
X138150600Y-68223176D01*
X137896600Y-68223176D01*
X137694200Y-68099490D01*
X137593072Y-68130162D01*
X137359971Y-68237927D01*
X137226719Y-68334959D01*
X137149785Y-68241215D01*
X137053094Y-68161863D01*
X136942780Y-68102898D01*
X136823082Y-68066588D01*
X136698600Y-68054328D01*
X135348600Y-68054328D01*
X135224118Y-68066588D01*
X135104420Y-68102898D01*
X134994106Y-68161863D01*
X134897415Y-68241215D01*
X134818063Y-68337906D01*
X134759098Y-68448220D01*
X134722788Y-68567918D01*
X134710528Y-68692400D01*
X132280964Y-68692400D01*
X132210944Y-68577863D01*
X132036827Y-68389097D01*
X131829229Y-68237927D01*
X131596128Y-68130162D01*
X131495000Y-68099490D01*
X131292600Y-68223176D01*
X131038600Y-68223176D01*
X130836200Y-68099490D01*
X130735072Y-68130162D01*
X130501971Y-68237927D01*
X130368719Y-68334959D01*
X130291785Y-68241215D01*
X130195094Y-68161863D01*
X130084780Y-68102898D01*
X129965082Y-68066588D01*
X129840600Y-68054328D01*
X128490600Y-68054328D01*
X128366118Y-68066588D01*
X128246420Y-68102898D01*
X128136106Y-68161863D01*
X128039415Y-68241215D01*
X127960063Y-68337906D01*
X127901098Y-68448220D01*
X127864788Y-68567918D01*
X127852528Y-68692400D01*
X125390964Y-68692400D01*
X125320944Y-68577863D01*
X125146827Y-68389097D01*
X124939229Y-68237927D01*
X124706128Y-68130162D01*
X124605000Y-68099490D01*
X124402600Y-68223176D01*
X124148600Y-68223176D01*
X123946200Y-68099490D01*
X123845072Y-68130162D01*
X123611971Y-68237927D01*
X123478719Y-68334959D01*
X123401785Y-68241215D01*
X123305094Y-68161863D01*
X123194780Y-68102898D01*
X123075082Y-68066588D01*
X122950600Y-68054328D01*
X121600600Y-68054328D01*
X121476118Y-68066588D01*
X121356420Y-68102898D01*
X121246106Y-68161863D01*
X121149415Y-68241215D01*
X121070063Y-68337906D01*
X121011098Y-68448220D01*
X120974788Y-68567918D01*
X120962528Y-68692400D01*
X118310964Y-68692400D01*
X118240944Y-68577863D01*
X118066827Y-68389097D01*
X117859229Y-68237927D01*
X117626128Y-68130162D01*
X117525000Y-68099490D01*
X117322600Y-68223176D01*
X117068600Y-68223176D01*
X116866200Y-68099490D01*
X116765072Y-68130162D01*
X116531971Y-68237927D01*
X116398719Y-68334959D01*
X116321785Y-68241215D01*
X116225094Y-68161863D01*
X116114780Y-68102898D01*
X115995082Y-68066588D01*
X115870600Y-68054328D01*
X114520600Y-68054328D01*
X114396118Y-68066588D01*
X114276420Y-68102898D01*
X114166106Y-68161863D01*
X114069415Y-68241215D01*
X113990063Y-68337906D01*
X113931098Y-68448220D01*
X113894788Y-68567918D01*
X113882528Y-68692400D01*
X111452964Y-68692400D01*
X111382944Y-68577863D01*
X111208827Y-68389097D01*
X111001229Y-68237927D01*
X110768128Y-68130162D01*
X110667000Y-68099490D01*
X110464600Y-68223176D01*
X110210600Y-68223176D01*
X110008200Y-68099490D01*
X109907072Y-68130162D01*
X109673971Y-68237927D01*
X109540719Y-68334959D01*
X109463785Y-68241215D01*
X109367094Y-68161863D01*
X109256780Y-68102898D01*
X109137082Y-68066588D01*
X109012600Y-68054328D01*
X107662600Y-68054328D01*
X107538118Y-68066588D01*
X107418420Y-68102898D01*
X107308106Y-68161863D01*
X107211415Y-68241215D01*
X107132063Y-68337906D01*
X107073098Y-68448220D01*
X107036788Y-68567918D01*
X107024528Y-68692400D01*
X105954258Y-68692400D01*
X105944001Y-63677000D01*
X191294839Y-63677000D01*
X191765334Y-111989400D01*
G37*
X191765334Y-111989400D02*
X106042800Y-111989400D01*
X106031211Y-106322376D01*
X106773600Y-106322376D01*
X106773600Y-106580424D01*
X106823942Y-106833513D01*
X106922693Y-107071918D01*
X107066056Y-107286477D01*
X107248523Y-107468944D01*
X107463082Y-107612307D01*
X107701487Y-107711058D01*
X107954576Y-107761400D01*
X108212624Y-107761400D01*
X108465713Y-107711058D01*
X108704118Y-107612307D01*
X108886113Y-107490703D01*
X108957415Y-107577585D01*
X109054106Y-107656937D01*
X109164420Y-107715902D01*
X109284118Y-107752212D01*
X109408600Y-107764472D01*
X110758600Y-107764472D01*
X110883082Y-107752212D01*
X111002780Y-107715902D01*
X111113094Y-107656937D01*
X111209785Y-107577585D01*
X111289137Y-107480894D01*
X111348102Y-107370580D01*
X111384412Y-107250882D01*
X111396672Y-107126400D01*
X111396672Y-106322376D01*
X113631600Y-106322376D01*
X113631600Y-106580424D01*
X113681942Y-106833513D01*
X113780693Y-107071918D01*
X113924056Y-107286477D01*
X114106523Y-107468944D01*
X114321082Y-107612307D01*
X114559487Y-107711058D01*
X114812576Y-107761400D01*
X115070624Y-107761400D01*
X115323713Y-107711058D01*
X115562118Y-107612307D01*
X115744113Y-107490703D01*
X115815415Y-107577585D01*
X115912106Y-107656937D01*
X116022420Y-107715902D01*
X116142118Y-107752212D01*
X116266600Y-107764472D01*
X117616600Y-107764472D01*
X117741082Y-107752212D01*
X117860780Y-107715902D01*
X117971094Y-107656937D01*
X118067785Y-107577585D01*
X118147137Y-107480894D01*
X118206102Y-107370580D01*
X118242412Y-107250882D01*
X118254672Y-107126400D01*
X118254672Y-106322376D01*
X120616600Y-106322376D01*
X120616600Y-106580424D01*
X120666942Y-106833513D01*
X120765693Y-107071918D01*
X120909056Y-107286477D01*
X121091523Y-107468944D01*
X121306082Y-107612307D01*
X121544487Y-107711058D01*
X121797576Y-107761400D01*
X122055624Y-107761400D01*
X122308713Y-107711058D01*
X122547118Y-107612307D01*
X122729113Y-107490703D01*
X122800415Y-107577585D01*
X122897106Y-107656937D01*
X123007420Y-107715902D01*
X123127118Y-107752212D01*
X123251600Y-107764472D01*
X124601600Y-107764472D01*
X124726082Y-107752212D01*
X124845780Y-107715902D01*
X124956094Y-107656937D01*
X125052785Y-107577585D01*
X125132137Y-107480894D01*
X125191102Y-107370580D01*
X125227412Y-107250882D01*
X125239672Y-107126400D01*
X125239672Y-106322376D01*
X127601600Y-106322376D01*
X127601600Y-106580424D01*
X127651942Y-106833513D01*
X127750693Y-107071918D01*
X127894056Y-107286477D01*
X128076523Y-107468944D01*
X128291082Y-107612307D01*
X128529487Y-107711058D01*
X128782576Y-107761400D01*
X129040624Y-107761400D01*
X129293713Y-107711058D01*
X129532118Y-107612307D01*
X129714113Y-107490703D01*
X129785415Y-107577585D01*
X129882106Y-107656937D01*
X129992420Y-107715902D01*
X130112118Y-107752212D01*
X130236600Y-107764472D01*
X131586600Y-107764472D01*
X131711082Y-107752212D01*
X131830780Y-107715902D01*
X131941094Y-107656937D01*
X132037785Y-107577585D01*
X132117137Y-107480894D01*
X132176102Y-107370580D01*
X132212412Y-107250882D01*
X132224672Y-107126400D01*
X132224672Y-106322376D01*
X134586600Y-106322376D01*
X134586600Y-106580424D01*
X134636942Y-106833513D01*
X134735693Y-107071918D01*
X134879056Y-107286477D01*
X135061523Y-107468944D01*
X135276082Y-107612307D01*
X135514487Y-107711058D01*
X135767576Y-107761400D01*
X136025624Y-107761400D01*
X136278713Y-107711058D01*
X136517118Y-107612307D01*
X136699113Y-107490703D01*
X136770415Y-107577585D01*
X136867106Y-107656937D01*
X136977420Y-107715902D01*
X137097118Y-107752212D01*
X137221600Y-107764472D01*
X138571600Y-107764472D01*
X138696082Y-107752212D01*
X138815780Y-107715902D01*
X138926094Y-107656937D01*
X139022785Y-107577585D01*
X139102137Y-107480894D01*
X139161102Y-107370580D01*
X139197412Y-107250882D01*
X139209672Y-107126400D01*
X139209672Y-106322376D01*
X141571600Y-106322376D01*
X141571600Y-106580424D01*
X141621942Y-106833513D01*
X141720693Y-107071918D01*
X141864056Y-107286477D01*
X142046523Y-107468944D01*
X142261082Y-107612307D01*
X142499487Y-107711058D01*
X142752576Y-107761400D01*
X143010624Y-107761400D01*
X143263713Y-107711058D01*
X143502118Y-107612307D01*
X143684113Y-107490703D01*
X143755415Y-107577585D01*
X143852106Y-107656937D01*
X143962420Y-107715902D01*
X144082118Y-107752212D01*
X144206600Y-107764472D01*
X145556600Y-107764472D01*
X145681082Y-107752212D01*
X145800780Y-107715902D01*
X145911094Y-107656937D01*
X146007785Y-107577585D01*
X146087137Y-107480894D01*
X146146102Y-107370580D01*
X146182412Y-107250882D01*
X146194672Y-107126400D01*
X146194672Y-106322376D01*
X148683600Y-106322376D01*
X148683600Y-106580424D01*
X148733942Y-106833513D01*
X148832693Y-107071918D01*
X148976056Y-107286477D01*
X149158523Y-107468944D01*
X149373082Y-107612307D01*
X149611487Y-107711058D01*
X149864576Y-107761400D01*
X150122624Y-107761400D01*
X150375713Y-107711058D01*
X150614118Y-107612307D01*
X150796113Y-107490703D01*
X150867415Y-107577585D01*
X150964106Y-107656937D01*
X151074420Y-107715902D01*
X151194118Y-107752212D01*
X151318600Y-107764472D01*
X152668600Y-107764472D01*
X152793082Y-107752212D01*
X152912780Y-107715902D01*
X153023094Y-107656937D01*
X153119785Y-107577585D01*
X153199137Y-107480894D01*
X153258102Y-107370580D01*
X153294412Y-107250882D01*
X153306672Y-107126400D01*
X153306672Y-106322376D01*
X155795600Y-106322376D01*
X155795600Y-106580424D01*
X155845942Y-106833513D01*
X155944693Y-107071918D01*
X156088056Y-107286477D01*
X156270523Y-107468944D01*
X156485082Y-107612307D01*
X156723487Y-107711058D01*
X156976576Y-107761400D01*
X157234624Y-107761400D01*
X157487713Y-107711058D01*
X157726118Y-107612307D01*
X157908113Y-107490703D01*
X157979415Y-107577585D01*
X158076106Y-107656937D01*
X158186420Y-107715902D01*
X158306118Y-107752212D01*
X158430600Y-107764472D01*
X159780600Y-107764472D01*
X159905082Y-107752212D01*
X160024780Y-107715902D01*
X160135094Y-107656937D01*
X160231785Y-107577585D01*
X160311137Y-107480894D01*
X160370102Y-107370580D01*
X160406412Y-107250882D01*
X160418672Y-107126400D01*
X160418672Y-106322376D01*
X162907600Y-106322376D01*
X162907600Y-106580424D01*
X162957942Y-106833513D01*
X163056693Y-107071918D01*
X163200056Y-107286477D01*
X163382523Y-107468944D01*
X163597082Y-107612307D01*
X163835487Y-107711058D01*
X164088576Y-107761400D01*
X164346624Y-107761400D01*
X164599713Y-107711058D01*
X164838118Y-107612307D01*
X165020113Y-107490703D01*
X165091415Y-107577585D01*
X165188106Y-107656937D01*
X165298420Y-107715902D01*
X165418118Y-107752212D01*
X165542600Y-107764472D01*
X166892600Y-107764472D01*
X167017082Y-107752212D01*
X167136780Y-107715902D01*
X167247094Y-107656937D01*
X167343785Y-107577585D01*
X167423137Y-107480894D01*
X167482102Y-107370580D01*
X167518412Y-107250882D01*
X167530672Y-107126400D01*
X167530672Y-106322376D01*
X170273600Y-106322376D01*
X170273600Y-106580424D01*
X170323942Y-106833513D01*
X170422693Y-107071918D01*
X170566056Y-107286477D01*
X170748523Y-107468944D01*
X170963082Y-107612307D01*
X171201487Y-107711058D01*
X171454576Y-107761400D01*
X171712624Y-107761400D01*
X171965713Y-107711058D01*
X172204118Y-107612307D01*
X172386113Y-107490703D01*
X172457415Y-107577585D01*
X172554106Y-107656937D01*
X172664420Y-107715902D01*
X172784118Y-107752212D01*
X172908600Y-107764472D01*
X174258600Y-107764472D01*
X174383082Y-107752212D01*
X174502780Y-107715902D01*
X174613094Y-107656937D01*
X174709785Y-107577585D01*
X174789137Y-107480894D01*
X174848102Y-107370580D01*
X174884412Y-107250882D01*
X174896672Y-107126400D01*
X174896672Y-106322376D01*
X177512600Y-106322376D01*
X177512600Y-106580424D01*
X177562942Y-106833513D01*
X177661693Y-107071918D01*
X177805056Y-107286477D01*
X177987523Y-107468944D01*
X178202082Y-107612307D01*
X178440487Y-107711058D01*
X178693576Y-107761400D01*
X178951624Y-107761400D01*
X179204713Y-107711058D01*
X179443118Y-107612307D01*
X179625113Y-107490703D01*
X179696415Y-107577585D01*
X179793106Y-107656937D01*
X179903420Y-107715902D01*
X180023118Y-107752212D01*
X180147600Y-107764472D01*
X181497600Y-107764472D01*
X181622082Y-107752212D01*
X181741780Y-107715902D01*
X181852094Y-107656937D01*
X181948785Y-107577585D01*
X182028137Y-107480894D01*
X182087102Y-107370580D01*
X182123412Y-107250882D01*
X182135672Y-107126400D01*
X182135672Y-106322376D01*
X184751600Y-106322376D01*
X184751600Y-106580424D01*
X184801942Y-106833513D01*
X184900693Y-107071918D01*
X185044056Y-107286477D01*
X185226523Y-107468944D01*
X185441082Y-107612307D01*
X185679487Y-107711058D01*
X185932576Y-107761400D01*
X186190624Y-107761400D01*
X186443713Y-107711058D01*
X186682118Y-107612307D01*
X186864113Y-107490703D01*
X186935415Y-107577585D01*
X187032106Y-107656937D01*
X187142420Y-107715902D01*
X187262118Y-107752212D01*
X187386600Y-107764472D01*
X188736600Y-107764472D01*
X188861082Y-107752212D01*
X188980780Y-107715902D01*
X189091094Y-107656937D01*
X189187785Y-107577585D01*
X189267137Y-107480894D01*
X189326102Y-107370580D01*
X189362412Y-107250882D01*
X189374672Y-107126400D01*
X189374672Y-105776400D01*
X189362412Y-105651918D01*
X189326102Y-105532220D01*
X189267137Y-105421906D01*
X189187785Y-105325215D01*
X189091094Y-105245863D01*
X188980780Y-105186898D01*
X188861082Y-105150588D01*
X188736600Y-105138328D01*
X187386600Y-105138328D01*
X187262118Y-105150588D01*
X187142420Y-105186898D01*
X187032106Y-105245863D01*
X186935415Y-105325215D01*
X186864113Y-105412097D01*
X186682118Y-105290493D01*
X186443713Y-105191742D01*
X186190624Y-105141400D01*
X185932576Y-105141400D01*
X185679487Y-105191742D01*
X185441082Y-105290493D01*
X185226523Y-105433856D01*
X185044056Y-105616323D01*
X184900693Y-105830882D01*
X184801942Y-106069287D01*
X184751600Y-106322376D01*
X182135672Y-106322376D01*
X182135672Y-105776400D01*
X182123412Y-105651918D01*
X182087102Y-105532220D01*
X182028137Y-105421906D01*
X181948785Y-105325215D01*
X181852094Y-105245863D01*
X181741780Y-105186898D01*
X181622082Y-105150588D01*
X181497600Y-105138328D01*
X180147600Y-105138328D01*
X180023118Y-105150588D01*
X179903420Y-105186898D01*
X179793106Y-105245863D01*
X179696415Y-105325215D01*
X179625113Y-105412097D01*
X179443118Y-105290493D01*
X179204713Y-105191742D01*
X178951624Y-105141400D01*
X178693576Y-105141400D01*
X178440487Y-105191742D01*
X178202082Y-105290493D01*
X177987523Y-105433856D01*
X177805056Y-105616323D01*
X177661693Y-105830882D01*
X177562942Y-106069287D01*
X177512600Y-106322376D01*
X174896672Y-106322376D01*
X174896672Y-105776400D01*
X174884412Y-105651918D01*
X174848102Y-105532220D01*
X174789137Y-105421906D01*
X174709785Y-105325215D01*
X174613094Y-105245863D01*
X174502780Y-105186898D01*
X174383082Y-105150588D01*
X174258600Y-105138328D01*
X172908600Y-105138328D01*
X172784118Y-105150588D01*
X172664420Y-105186898D01*
X172554106Y-105245863D01*
X172457415Y-105325215D01*
X172386113Y-105412097D01*
X172204118Y-105290493D01*
X171965713Y-105191742D01*
X171712624Y-105141400D01*
X171454576Y-105141400D01*
X171201487Y-105191742D01*
X170963082Y-105290493D01*
X170748523Y-105433856D01*
X170566056Y-105616323D01*
X170422693Y-105830882D01*
X170323942Y-106069287D01*
X170273600Y-106322376D01*
X167530672Y-106322376D01*
X167530672Y-105776400D01*
X167518412Y-105651918D01*
X167482102Y-105532220D01*
X167423137Y-105421906D01*
X167343785Y-105325215D01*
X167247094Y-105245863D01*
X167136780Y-105186898D01*
X167017082Y-105150588D01*
X166892600Y-105138328D01*
X165542600Y-105138328D01*
X165418118Y-105150588D01*
X165298420Y-105186898D01*
X165188106Y-105245863D01*
X165091415Y-105325215D01*
X165020113Y-105412097D01*
X164954473Y-105368238D01*
X164989537Y-105333174D01*
X165102805Y-105163656D01*
X165180826Y-104975298D01*
X165220600Y-104775339D01*
X165220600Y-104571461D01*
X165180826Y-104371502D01*
X165102805Y-104183144D01*
X164995600Y-104022700D01*
X164995600Y-98720100D01*
X165102805Y-98559656D01*
X165180826Y-98371298D01*
X165220600Y-98171339D01*
X165220600Y-97967461D01*
X165180826Y-97767502D01*
X165102805Y-97579144D01*
X164989537Y-97409626D01*
X164845374Y-97265463D01*
X164675856Y-97152195D01*
X164487498Y-97074174D01*
X164287539Y-97034400D01*
X164083661Y-97034400D01*
X163883702Y-97074174D01*
X163695344Y-97152195D01*
X163525826Y-97265463D01*
X163381663Y-97409626D01*
X163268395Y-97579144D01*
X163190374Y-97767502D01*
X163150600Y-97967461D01*
X163150600Y-98171339D01*
X163190374Y-98371298D01*
X163268395Y-98559656D01*
X163375601Y-98720101D01*
X163375600Y-104022700D01*
X163268395Y-104183144D01*
X163190374Y-104371502D01*
X163150600Y-104571461D01*
X163150600Y-104775339D01*
X163190374Y-104975298D01*
X163268395Y-105163656D01*
X163381663Y-105333174D01*
X163442362Y-105393873D01*
X163382523Y-105433856D01*
X163200056Y-105616323D01*
X163056693Y-105830882D01*
X162957942Y-106069287D01*
X162907600Y-106322376D01*
X160418672Y-106322376D01*
X160418672Y-105776400D01*
X160406412Y-105651918D01*
X160370102Y-105532220D01*
X160311137Y-105421906D01*
X160231785Y-105325215D01*
X160135094Y-105245863D01*
X160024780Y-105186898D01*
X159905082Y-105150588D01*
X159780600Y-105138328D01*
X158430600Y-105138328D01*
X158306118Y-105150588D01*
X158186420Y-105186898D01*
X158076106Y-105245863D01*
X157979415Y-105325215D01*
X157908113Y-105412097D01*
X157726118Y-105290493D01*
X157487713Y-105191742D01*
X157234624Y-105141400D01*
X156976576Y-105141400D01*
X156723487Y-105191742D01*
X156485082Y-105290493D01*
X156270523Y-105433856D01*
X156088056Y-105616323D01*
X155944693Y-105830882D01*
X155845942Y-106069287D01*
X155795600Y-106322376D01*
X153306672Y-106322376D01*
X153306672Y-105776400D01*
X153294412Y-105651918D01*
X153258102Y-105532220D01*
X153199137Y-105421906D01*
X153119785Y-105325215D01*
X153023094Y-105245863D01*
X152912780Y-105186898D01*
X152793082Y-105150588D01*
X152668600Y-105138328D01*
X151318600Y-105138328D01*
X151194118Y-105150588D01*
X151074420Y-105186898D01*
X150964106Y-105245863D01*
X150867415Y-105325215D01*
X150796113Y-105412097D01*
X150614118Y-105290493D01*
X150375713Y-105191742D01*
X150122624Y-105141400D01*
X149864576Y-105141400D01*
X149611487Y-105191742D01*
X149373082Y-105290493D01*
X149158523Y-105433856D01*
X148976056Y-105616323D01*
X148832693Y-105830882D01*
X148733942Y-106069287D01*
X148683600Y-106322376D01*
X146194672Y-106322376D01*
X146194672Y-105776400D01*
X146182412Y-105651918D01*
X146146102Y-105532220D01*
X146087137Y-105421906D01*
X146007785Y-105325215D01*
X145911094Y-105245863D01*
X145800780Y-105186898D01*
X145681082Y-105150588D01*
X145556600Y-105138328D01*
X144206600Y-105138328D01*
X144082118Y-105150588D01*
X143962420Y-105186898D01*
X143852106Y-105245863D01*
X143755415Y-105325215D01*
X143684113Y-105412097D01*
X143502118Y-105290493D01*
X143263713Y-105191742D01*
X143010624Y-105141400D01*
X142752576Y-105141400D01*
X142499487Y-105191742D01*
X142261082Y-105290493D01*
X142046523Y-105433856D01*
X141864056Y-105616323D01*
X141720693Y-105830882D01*
X141621942Y-106069287D01*
X141571600Y-106322376D01*
X139209672Y-106322376D01*
X139209672Y-105776400D01*
X139197412Y-105651918D01*
X139161102Y-105532220D01*
X139102137Y-105421906D01*
X139022785Y-105325215D01*
X138926094Y-105245863D01*
X138815780Y-105186898D01*
X138696082Y-105150588D01*
X138571600Y-105138328D01*
X137221600Y-105138328D01*
X137097118Y-105150588D01*
X136977420Y-105186898D01*
X136867106Y-105245863D01*
X136770415Y-105325215D01*
X136699113Y-105412097D01*
X136517118Y-105290493D01*
X136278713Y-105191742D01*
X136025624Y-105141400D01*
X135767576Y-105141400D01*
X135514487Y-105191742D01*
X135276082Y-105290493D01*
X135061523Y-105433856D01*
X134879056Y-105616323D01*
X134735693Y-105830882D01*
X134636942Y-106069287D01*
X134586600Y-106322376D01*
X132224672Y-106322376D01*
X132224672Y-105776400D01*
X132212412Y-105651918D01*
X132176102Y-105532220D01*
X132117137Y-105421906D01*
X132037785Y-105325215D01*
X131941094Y-105245863D01*
X131830780Y-105186898D01*
X131711082Y-105150588D01*
X131586600Y-105138328D01*
X130236600Y-105138328D01*
X130112118Y-105150588D01*
X129992420Y-105186898D01*
X129882106Y-105245863D01*
X129785415Y-105325215D01*
X129714113Y-105412097D01*
X129532118Y-105290493D01*
X129293713Y-105191742D01*
X129040624Y-105141400D01*
X128782576Y-105141400D01*
X128529487Y-105191742D01*
X128291082Y-105290493D01*
X128076523Y-105433856D01*
X127894056Y-105616323D01*
X127750693Y-105830882D01*
X127651942Y-106069287D01*
X127601600Y-106322376D01*
X125239672Y-106322376D01*
X125239672Y-105776400D01*
X125227412Y-105651918D01*
X125191102Y-105532220D01*
X125132137Y-105421906D01*
X125052785Y-105325215D01*
X124956094Y-105245863D01*
X124845780Y-105186898D01*
X124726082Y-105150588D01*
X124601600Y-105138328D01*
X123251600Y-105138328D01*
X123127118Y-105150588D01*
X123007420Y-105186898D01*
X122897106Y-105245863D01*
X122800415Y-105325215D01*
X122729113Y-105412097D01*
X122547118Y-105290493D01*
X122308713Y-105191742D01*
X122055624Y-105141400D01*
X121797576Y-105141400D01*
X121544487Y-105191742D01*
X121306082Y-105290493D01*
X121091523Y-105433856D01*
X120909056Y-105616323D01*
X120765693Y-105830882D01*
X120666942Y-106069287D01*
X120616600Y-106322376D01*
X118254672Y-106322376D01*
X118254672Y-105776400D01*
X118242412Y-105651918D01*
X118206102Y-105532220D01*
X118147137Y-105421906D01*
X118067785Y-105325215D01*
X117971094Y-105245863D01*
X117860780Y-105186898D01*
X117741082Y-105150588D01*
X117616600Y-105138328D01*
X116266600Y-105138328D01*
X116142118Y-105150588D01*
X116022420Y-105186898D01*
X115912106Y-105245863D01*
X115815415Y-105325215D01*
X115744113Y-105412097D01*
X115562118Y-105290493D01*
X115323713Y-105191742D01*
X115070624Y-105141400D01*
X114812576Y-105141400D01*
X114559487Y-105191742D01*
X114321082Y-105290493D01*
X114106523Y-105433856D01*
X113924056Y-105616323D01*
X113780693Y-105830882D01*
X113681942Y-106069287D01*
X113631600Y-106322376D01*
X111396672Y-106322376D01*
X111396672Y-105776400D01*
X111384412Y-105651918D01*
X111348102Y-105532220D01*
X111289137Y-105421906D01*
X111209785Y-105325215D01*
X111113094Y-105245863D01*
X111002780Y-105186898D01*
X110883082Y-105150588D01*
X110758600Y-105138328D01*
X109408600Y-105138328D01*
X109284118Y-105150588D01*
X109164420Y-105186898D01*
X109054106Y-105245863D01*
X108957415Y-105325215D01*
X108886113Y-105412097D01*
X108704118Y-105290493D01*
X108465713Y-105191742D01*
X108212624Y-105141400D01*
X107954576Y-105141400D01*
X107701487Y-105191742D01*
X107463082Y-105290493D01*
X107248523Y-105433856D01*
X107066056Y-105616323D01*
X106922693Y-105830882D01*
X106823942Y-106069287D01*
X106773600Y-106322376D01*
X106031211Y-106322376D01*
X106017337Y-99537649D01*
X134094600Y-99537649D01*
X134094601Y-103713152D01*
X134111024Y-103879899D01*
X134175925Y-104093847D01*
X134281317Y-104291023D01*
X134423152Y-104463849D01*
X134595978Y-104605684D01*
X134793154Y-104711076D01*
X135007102Y-104775977D01*
X135229600Y-104797891D01*
X135452099Y-104775977D01*
X135666047Y-104711076D01*
X135863223Y-104605684D01*
X136036049Y-104463849D01*
X136177884Y-104291023D01*
X136283276Y-104093847D01*
X136348177Y-103879899D01*
X136360871Y-103751011D01*
X136451702Y-103788635D01*
X136651661Y-103828409D01*
X136855539Y-103828409D01*
X137055498Y-103788635D01*
X137243856Y-103710614D01*
X137413374Y-103597346D01*
X137557537Y-103453183D01*
X137670805Y-103283665D01*
X137748826Y-103095307D01*
X137786471Y-102906050D01*
X140289122Y-100403400D01*
X140674900Y-100403400D01*
X140737361Y-100445135D01*
X140196959Y-100985538D01*
X140007702Y-101023183D01*
X139819344Y-101101204D01*
X139649826Y-101214472D01*
X139505663Y-101358635D01*
X139392395Y-101528153D01*
X139314374Y-101716511D01*
X139274600Y-101916470D01*
X139274600Y-102120348D01*
X139314374Y-102320307D01*
X139392395Y-102508665D01*
X139505663Y-102678183D01*
X139649826Y-102822346D01*
X139819344Y-102935614D01*
X140007702Y-103013635D01*
X140207661Y-103053409D01*
X140411539Y-103053409D01*
X140611498Y-103013635D01*
X140799856Y-102935614D01*
X140969374Y-102822346D01*
X141113537Y-102678183D01*
X141226805Y-102508665D01*
X141304826Y-102320307D01*
X141342471Y-102131050D01*
X141876001Y-101597520D01*
X141932395Y-101733665D01*
X142045663Y-101903183D01*
X142189826Y-102047346D01*
X142359344Y-102160614D01*
X142547702Y-102238635D01*
X142747661Y-102278409D01*
X142951539Y-102278409D01*
X143151498Y-102238635D01*
X143339856Y-102160614D01*
X143500300Y-102053409D01*
X144148786Y-102053409D01*
X144188574Y-102057328D01*
X144228362Y-102053409D01*
X144228365Y-102053409D01*
X144347362Y-102041689D01*
X144500047Y-101995372D01*
X144640763Y-101920158D01*
X144764102Y-101818937D01*
X144789473Y-101788022D01*
X145930729Y-100646767D01*
X146119985Y-100609122D01*
X146308343Y-100531101D01*
X146477861Y-100417833D01*
X146622024Y-100273670D01*
X146735292Y-100104152D01*
X146813313Y-99915794D01*
X146853087Y-99715835D01*
X146853087Y-99511957D01*
X146849011Y-99491461D01*
X148858599Y-99491461D01*
X148858599Y-99695339D01*
X148898373Y-99895298D01*
X148976394Y-100083656D01*
X148988250Y-100101400D01*
X148976394Y-100119144D01*
X148898373Y-100307502D01*
X148858599Y-100507461D01*
X148858599Y-100711339D01*
X148898373Y-100911298D01*
X148976394Y-101099656D01*
X149089662Y-101269174D01*
X149233825Y-101413337D01*
X149403343Y-101526605D01*
X149591701Y-101604626D01*
X149791660Y-101644400D01*
X149995538Y-101644400D01*
X150195497Y-101604626D01*
X150383855Y-101526605D01*
X150550334Y-101415368D01*
X150628388Y-101407680D01*
X150720057Y-101379872D01*
X150751841Y-101456606D01*
X150865109Y-101626124D01*
X151009272Y-101770287D01*
X151178790Y-101883555D01*
X151367148Y-101961576D01*
X151567107Y-102001350D01*
X151770985Y-102001350D01*
X151970944Y-101961576D01*
X152159302Y-101883555D01*
X152328820Y-101770287D01*
X152372757Y-101726350D01*
X161124328Y-101726350D01*
X161161650Y-101730026D01*
X161198972Y-101726350D01*
X161198983Y-101726350D01*
X161310636Y-101715353D01*
X161453897Y-101671896D01*
X161585926Y-101601324D01*
X161701651Y-101506351D01*
X161725454Y-101477348D01*
X162193401Y-101009400D01*
X162255539Y-101009400D01*
X162455498Y-100969626D01*
X162643856Y-100891605D01*
X162813374Y-100778337D01*
X162957537Y-100634174D01*
X163070805Y-100464656D01*
X163148826Y-100276298D01*
X163188600Y-100076339D01*
X163188600Y-99872461D01*
X163148826Y-99672502D01*
X163070805Y-99484144D01*
X162963600Y-99323700D01*
X162963600Y-94240140D01*
X175091600Y-94240140D01*
X175091600Y-94532660D01*
X175148668Y-94819558D01*
X175260610Y-95089811D01*
X175423125Y-95333032D01*
X175629968Y-95539875D01*
X175873189Y-95702390D01*
X176143442Y-95814332D01*
X176430340Y-95871400D01*
X176722860Y-95871400D01*
X177009758Y-95814332D01*
X177280011Y-95702390D01*
X177523232Y-95539875D01*
X177730075Y-95333032D01*
X177892590Y-95089811D01*
X178004532Y-94819558D01*
X178061600Y-94532660D01*
X178061600Y-94240140D01*
X182091600Y-94240140D01*
X182091600Y-94532660D01*
X182148668Y-94819558D01*
X182260610Y-95089811D01*
X182423125Y-95333032D01*
X182629968Y-95539875D01*
X182873189Y-95702390D01*
X183143442Y-95814332D01*
X183430340Y-95871400D01*
X183722860Y-95871400D01*
X184009758Y-95814332D01*
X184280011Y-95702390D01*
X184523232Y-95539875D01*
X184730075Y-95333032D01*
X184892590Y-95089811D01*
X185004532Y-94819558D01*
X185061600Y-94532660D01*
X185061600Y-94240140D01*
X185004532Y-93953242D01*
X184892590Y-93682989D01*
X184730075Y-93439768D01*
X184523232Y-93232925D01*
X184280011Y-93070410D01*
X184009758Y-92958468D01*
X183722860Y-92901400D01*
X183430340Y-92901400D01*
X183143442Y-92958468D01*
X182873189Y-93070410D01*
X182629968Y-93232925D01*
X182423125Y-93439768D01*
X182260610Y-93682989D01*
X182148668Y-93953242D01*
X182091600Y-94240140D01*
X178061600Y-94240140D01*
X178004532Y-93953242D01*
X177892590Y-93682989D01*
X177730075Y-93439768D01*
X177523232Y-93232925D01*
X177280011Y-93070410D01*
X177009758Y-92958468D01*
X176722860Y-92901400D01*
X176430340Y-92901400D01*
X176143442Y-92958468D01*
X175873189Y-93070410D01*
X175629968Y-93232925D01*
X175423125Y-93439768D01*
X175260610Y-93682989D01*
X175148668Y-93953242D01*
X175091600Y-94240140D01*
X162963600Y-94240140D01*
X162963600Y-86535614D01*
X163119603Y-86431376D01*
X163263766Y-86287213D01*
X163377034Y-86117695D01*
X163455055Y-85929337D01*
X163494829Y-85729378D01*
X163494829Y-85525500D01*
X163455055Y-85325541D01*
X163430998Y-85267461D01*
X167016598Y-85267461D01*
X167016598Y-85471339D01*
X167056372Y-85671298D01*
X167134393Y-85859656D01*
X167247661Y-86029174D01*
X167391824Y-86173337D01*
X167561342Y-86286605D01*
X167749700Y-86364626D01*
X167949659Y-86404400D01*
X168153537Y-86404400D01*
X168353496Y-86364626D01*
X168541854Y-86286605D01*
X168711372Y-86173337D01*
X168855535Y-86029174D01*
X168968803Y-85859656D01*
X169046824Y-85671298D01*
X169086598Y-85471339D01*
X169086598Y-85267461D01*
X169046824Y-85067502D01*
X168968803Y-84879144D01*
X168861598Y-84718700D01*
X168861598Y-84378914D01*
X171410242Y-81830271D01*
X171599498Y-81792626D01*
X171787856Y-81714605D01*
X171957374Y-81601337D01*
X172101537Y-81457174D01*
X172214805Y-81287656D01*
X172292826Y-81099298D01*
X172332600Y-80899339D01*
X172332600Y-80695461D01*
X172292826Y-80495502D01*
X172214805Y-80307144D01*
X172101537Y-80137626D01*
X171957374Y-79993463D01*
X171787856Y-79880195D01*
X171599498Y-79802174D01*
X171399539Y-79762400D01*
X171195661Y-79762400D01*
X170995702Y-79802174D01*
X170807344Y-79880195D01*
X170637826Y-79993463D01*
X170493663Y-80137626D01*
X170380395Y-80307144D01*
X170302374Y-80495502D01*
X170264729Y-80684758D01*
X167506981Y-83442507D01*
X167476071Y-83467874D01*
X167432726Y-83520691D01*
X167374849Y-83591213D01*
X167305912Y-83720187D01*
X167299636Y-83731929D01*
X167260977Y-83859371D01*
X167253319Y-83884615D01*
X167237679Y-84043402D01*
X167241599Y-84083200D01*
X167241598Y-84718699D01*
X167134393Y-84879144D01*
X167056372Y-85067502D01*
X167016598Y-85267461D01*
X163430998Y-85267461D01*
X163377034Y-85137183D01*
X163263766Y-84967665D01*
X163119603Y-84823502D01*
X162950085Y-84710234D01*
X162761727Y-84632213D01*
X162561768Y-84592439D01*
X162357890Y-84592439D01*
X162157931Y-84632213D01*
X161969573Y-84710234D01*
X161800055Y-84823502D01*
X161655892Y-84967665D01*
X161542624Y-85137183D01*
X161464603Y-85325541D01*
X161424829Y-85525500D01*
X161424829Y-85578807D01*
X161406359Y-85613363D01*
X161401638Y-85622195D01*
X161370028Y-85726400D01*
X161355321Y-85774881D01*
X161339681Y-85933668D01*
X161343601Y-85973466D01*
X161343601Y-88376663D01*
X161185498Y-88311174D01*
X160985539Y-88271400D01*
X160781661Y-88271400D01*
X160581702Y-88311174D01*
X160393344Y-88389195D01*
X160223826Y-88502463D01*
X160079663Y-88646626D01*
X159966395Y-88816144D01*
X159888374Y-89004502D01*
X159848600Y-89204461D01*
X159848600Y-89303090D01*
X157193372Y-92619306D01*
X157145850Y-92677213D01*
X157124693Y-92716795D01*
X157100209Y-92754413D01*
X157087174Y-92786988D01*
X157070636Y-92817929D01*
X157057607Y-92860879D01*
X157040933Y-92902549D01*
X157034505Y-92937037D01*
X157024319Y-92970614D01*
X157019919Y-93015287D01*
X157011696Y-93059404D01*
X157012599Y-93134247D01*
X157012600Y-94063887D01*
X156280199Y-94796288D01*
X156209374Y-94725463D01*
X156039856Y-94612195D01*
X155851498Y-94534174D01*
X155794219Y-94522781D01*
X155782826Y-94465502D01*
X155704805Y-94277144D01*
X155591537Y-94107626D01*
X155447374Y-93963463D01*
X155277856Y-93850195D01*
X155089498Y-93772174D01*
X154889539Y-93732400D01*
X154685661Y-93732400D01*
X154485702Y-93772174D01*
X154297344Y-93850195D01*
X154127826Y-93963463D01*
X153983663Y-94107626D01*
X153870395Y-94277144D01*
X153792374Y-94465502D01*
X153764993Y-94603157D01*
X153495623Y-94848489D01*
X153480980Y-94860506D01*
X153466200Y-94875286D01*
X153450770Y-94889339D01*
X153438102Y-94903385D01*
X149780958Y-98560529D01*
X149591701Y-98598174D01*
X149403343Y-98676195D01*
X149233825Y-98789463D01*
X149089662Y-98933626D01*
X148976394Y-99103144D01*
X148898373Y-99291502D01*
X148858599Y-99491461D01*
X146849011Y-99491461D01*
X146813313Y-99311998D01*
X146735292Y-99123640D01*
X146622024Y-98954122D01*
X146477861Y-98809959D01*
X146308343Y-98696691D01*
X146119985Y-98618670D01*
X145920026Y-98578896D01*
X145716148Y-98578896D01*
X145516189Y-98618670D01*
X145327831Y-98696691D01*
X145158313Y-98809959D01*
X145106092Y-98862181D01*
X145033374Y-98789463D01*
X144863856Y-98676195D01*
X144675498Y-98598174D01*
X144475539Y-98558400D01*
X144271661Y-98558400D01*
X144071702Y-98598174D01*
X143883344Y-98676195D01*
X143722900Y-98783400D01*
X142774397Y-98783400D01*
X142734609Y-98779481D01*
X142694821Y-98783400D01*
X142694818Y-98783400D01*
X142575821Y-98795120D01*
X142458672Y-98830657D01*
X142423135Y-98841437D01*
X142293924Y-98910502D01*
X142282420Y-98916651D01*
X142176356Y-99003695D01*
X142129537Y-98933626D01*
X141985374Y-98789463D01*
X141815856Y-98676195D01*
X141627498Y-98598174D01*
X141427539Y-98558400D01*
X141223661Y-98558400D01*
X141023702Y-98598174D01*
X140835344Y-98676195D01*
X140674900Y-98783400D01*
X139993396Y-98783400D01*
X139953608Y-98779481D01*
X139913820Y-98783400D01*
X139913818Y-98783400D01*
X139794821Y-98795120D01*
X139642136Y-98841437D01*
X139603789Y-98861934D01*
X139501419Y-98916651D01*
X139476445Y-98937147D01*
X139378081Y-99017872D01*
X139352716Y-99048780D01*
X136640959Y-101760538D01*
X136451702Y-101798183D01*
X136364600Y-101834262D01*
X136364600Y-99537648D01*
X136348177Y-99370901D01*
X136283276Y-99156953D01*
X136177884Y-98959777D01*
X136036049Y-98786951D01*
X135863223Y-98645116D01*
X135666046Y-98539724D01*
X135452098Y-98474823D01*
X135229600Y-98452909D01*
X135007101Y-98474823D01*
X134793153Y-98539724D01*
X134595977Y-98645116D01*
X134423151Y-98786951D01*
X134281316Y-98959777D01*
X134175924Y-99156954D01*
X134111023Y-99370902D01*
X134094600Y-99537649D01*
X106017337Y-99537649D01*
X106004451Y-93236400D01*
X128888528Y-93236400D01*
X128888528Y-95536400D01*
X128900788Y-95660882D01*
X128937098Y-95780580D01*
X128996063Y-95890894D01*
X129075415Y-95987585D01*
X129172106Y-96066937D01*
X129282420Y-96125902D01*
X129402118Y-96162212D01*
X129526600Y-96174472D01*
X131026600Y-96174472D01*
X131151082Y-96162212D01*
X131270780Y-96125902D01*
X131381094Y-96066937D01*
X131477785Y-95987585D01*
X131557137Y-95890894D01*
X131616102Y-95780580D01*
X131652412Y-95660882D01*
X131663182Y-95551526D01*
X131735572Y-95661461D01*
X131927060Y-95855545D01*
X132152732Y-96008542D01*
X132403916Y-96114573D01*
X132475415Y-96128718D01*
X132689600Y-96006056D01*
X132689600Y-94513400D01*
X132669600Y-94513400D01*
X132669600Y-94259400D01*
X132689600Y-94259400D01*
X132689600Y-92766744D01*
X132943600Y-92766744D01*
X132943600Y-94259400D01*
X132963600Y-94259400D01*
X132963600Y-94513400D01*
X132943600Y-94513400D01*
X132943600Y-96006056D01*
X133157785Y-96128718D01*
X133229284Y-96114573D01*
X133480468Y-96008542D01*
X133706140Y-95855545D01*
X133897628Y-95661461D01*
X134047572Y-95433749D01*
X134084114Y-95343822D01*
X134199443Y-95559588D01*
X134372520Y-95770481D01*
X134583413Y-95943557D01*
X134824020Y-96072164D01*
X135085094Y-96151360D01*
X135356600Y-96178101D01*
X135628107Y-96151360D01*
X135889181Y-96072164D01*
X136129788Y-95943557D01*
X136340681Y-95770481D01*
X136513757Y-95559588D01*
X136642364Y-95318981D01*
X136721560Y-95057907D01*
X136741600Y-94854436D01*
X136741600Y-93918363D01*
X136721560Y-93714893D01*
X136642364Y-93453819D01*
X136513757Y-93213212D01*
X136340680Y-93002319D01*
X136129787Y-92829243D01*
X135889180Y-92700636D01*
X135628106Y-92621440D01*
X135356600Y-92594699D01*
X135085093Y-92621440D01*
X134824019Y-92700636D01*
X134583412Y-92829243D01*
X134372519Y-93002320D01*
X134199443Y-93213213D01*
X134084114Y-93428979D01*
X134047572Y-93339051D01*
X133897628Y-93111339D01*
X133706140Y-92917255D01*
X133480468Y-92764258D01*
X133229284Y-92658227D01*
X133157785Y-92644082D01*
X132943600Y-92766744D01*
X132689600Y-92766744D01*
X132475415Y-92644082D01*
X132403916Y-92658227D01*
X132152732Y-92764258D01*
X131927060Y-92917255D01*
X131735572Y-93111339D01*
X131663182Y-93221274D01*
X131652412Y-93111918D01*
X131616102Y-92992220D01*
X131557137Y-92881906D01*
X131477785Y-92785215D01*
X131381094Y-92705863D01*
X131270780Y-92646898D01*
X131151082Y-92610588D01*
X131026600Y-92598328D01*
X129526600Y-92598328D01*
X129402118Y-92610588D01*
X129282420Y-92646898D01*
X129172106Y-92705863D01*
X129075415Y-92785215D01*
X128996063Y-92881906D01*
X128937098Y-92992220D01*
X128900788Y-93111918D01*
X128888528Y-93236400D01*
X106004451Y-93236400D01*
X105994059Y-88154767D01*
X107849400Y-88154767D01*
X107849400Y-88476833D01*
X107912232Y-88792712D01*
X108035482Y-89090263D01*
X108214413Y-89358052D01*
X108442148Y-89585787D01*
X108709937Y-89764718D01*
X109007488Y-89887968D01*
X109323367Y-89950800D01*
X109645433Y-89950800D01*
X109961312Y-89887968D01*
X110258863Y-89764718D01*
X110526652Y-89585787D01*
X110754387Y-89358052D01*
X110933318Y-89090263D01*
X111056568Y-88792712D01*
X111119400Y-88476833D01*
X111119400Y-88154767D01*
X111056568Y-87838888D01*
X110933318Y-87541337D01*
X110754387Y-87273548D01*
X110526652Y-87045813D01*
X110258863Y-86866882D01*
X109961312Y-86743632D01*
X109645433Y-86680800D01*
X109323367Y-86680800D01*
X109007488Y-86743632D01*
X108709937Y-86866882D01*
X108442148Y-87045813D01*
X108214413Y-87273548D01*
X108035482Y-87541337D01*
X107912232Y-87838888D01*
X107849400Y-88154767D01*
X105994059Y-88154767D01*
X105966451Y-74654471D01*
X130130600Y-74654471D01*
X130130600Y-74858349D01*
X130170374Y-75058308D01*
X130248395Y-75246666D01*
X130361663Y-75416184D01*
X130505826Y-75560347D01*
X130675344Y-75673615D01*
X130863702Y-75751636D01*
X131063661Y-75791410D01*
X131267539Y-75791410D01*
X131467498Y-75751636D01*
X131655856Y-75673615D01*
X131816300Y-75566410D01*
X139648098Y-75566410D01*
X140989370Y-76907682D01*
X140932826Y-76945463D01*
X140928738Y-76949551D01*
X140912812Y-76951120D01*
X140760127Y-76997437D01*
X140619411Y-77072651D01*
X140496072Y-77173872D01*
X140470700Y-77204788D01*
X140018983Y-77656505D01*
X139988073Y-77681872D01*
X139962708Y-77712780D01*
X139886851Y-77805211D01*
X139818969Y-77932211D01*
X139811638Y-77945927D01*
X139765321Y-78098612D01*
X139764554Y-78106400D01*
X139749681Y-78257400D01*
X139753601Y-78297198D01*
X139753600Y-84210700D01*
X139646395Y-84371144D01*
X139568374Y-84559502D01*
X139528600Y-84759461D01*
X139528600Y-84963339D01*
X139568374Y-85163298D01*
X139646395Y-85351656D01*
X139759663Y-85521174D01*
X139903826Y-85665337D01*
X140073344Y-85778605D01*
X140261702Y-85856626D01*
X140461661Y-85896400D01*
X140665539Y-85896400D01*
X140865498Y-85856626D01*
X141053856Y-85778605D01*
X141223374Y-85665337D01*
X141367537Y-85521174D01*
X141480805Y-85351656D01*
X141558826Y-85163298D01*
X141598600Y-84963339D01*
X141598600Y-84759461D01*
X141558826Y-84559502D01*
X141480805Y-84371144D01*
X141373600Y-84210700D01*
X141373600Y-78761115D01*
X141490661Y-78784400D01*
X141694539Y-78784400D01*
X141894498Y-78744626D01*
X142082856Y-78666605D01*
X142252374Y-78553337D01*
X142396537Y-78409174D01*
X142434318Y-78352631D01*
X142796920Y-78715232D01*
X142743374Y-78844502D01*
X142703600Y-79044461D01*
X142703600Y-79248339D01*
X142743374Y-79448298D01*
X142821395Y-79636656D01*
X142934663Y-79806174D01*
X143078826Y-79950337D01*
X143248344Y-80063605D01*
X143436702Y-80141626D01*
X143636661Y-80181400D01*
X143840539Y-80181400D01*
X143944600Y-80160701D01*
X143944600Y-80527700D01*
X143837395Y-80688144D01*
X143759374Y-80876502D01*
X143719600Y-81076461D01*
X143719600Y-81280339D01*
X143759374Y-81480298D01*
X143837395Y-81668656D01*
X143950663Y-81838174D01*
X144094826Y-81982337D01*
X144264344Y-82095605D01*
X144452702Y-82173626D01*
X144652661Y-82213400D01*
X144856539Y-82213400D01*
X145056498Y-82173626D01*
X145244856Y-82095605D01*
X145282548Y-82070420D01*
X145283608Y-82081180D01*
X145283608Y-82189708D01*
X145176403Y-82350152D01*
X145098382Y-82538510D01*
X145058608Y-82738469D01*
X145058608Y-82942347D01*
X145098382Y-83142306D01*
X145176403Y-83330664D01*
X145255686Y-83449320D01*
X145183659Y-83623208D01*
X145146014Y-83812465D01*
X145047079Y-83911400D01*
X144262300Y-83911400D01*
X144101856Y-83804195D01*
X143913498Y-83726174D01*
X143713539Y-83686400D01*
X143509661Y-83686400D01*
X143309702Y-83726174D01*
X143121344Y-83804195D01*
X142951826Y-83917463D01*
X142807663Y-84061626D01*
X142694395Y-84231144D01*
X142616374Y-84419502D01*
X142576600Y-84619461D01*
X142576600Y-84823339D01*
X142616374Y-85023298D01*
X142694395Y-85211656D01*
X142807663Y-85381174D01*
X142951826Y-85525337D01*
X143121344Y-85638605D01*
X143309702Y-85716626D01*
X143509661Y-85756400D01*
X143713539Y-85756400D01*
X143913498Y-85716626D01*
X144101856Y-85638605D01*
X144262300Y-85531400D01*
X145342803Y-85531400D01*
X145382591Y-85535319D01*
X145422379Y-85531400D01*
X145422382Y-85531400D01*
X145541379Y-85519680D01*
X145694064Y-85473363D01*
X145834780Y-85398149D01*
X145958119Y-85296928D01*
X145983490Y-85266013D01*
X146291526Y-84957977D01*
X146480783Y-84920332D01*
X146669141Y-84842311D01*
X146838659Y-84729043D01*
X146982822Y-84584880D01*
X147096090Y-84415362D01*
X147174111Y-84227004D01*
X147213885Y-84027045D01*
X147213885Y-83823167D01*
X147174111Y-83623208D01*
X147096090Y-83434850D01*
X147016807Y-83316194D01*
X147088834Y-83142306D01*
X147128608Y-82942347D01*
X147128608Y-82738469D01*
X147088834Y-82538510D01*
X147010813Y-82350152D01*
X146978588Y-82301924D01*
X147026241Y-82254271D01*
X147215498Y-82216626D01*
X147403856Y-82138605D01*
X147573374Y-82025337D01*
X147717537Y-81881174D01*
X147830805Y-81711656D01*
X147908826Y-81523298D01*
X147948600Y-81323339D01*
X147948600Y-81119461D01*
X147908826Y-80919502D01*
X147830805Y-80731144D01*
X147717537Y-80561626D01*
X147694898Y-80538987D01*
X147703805Y-80525656D01*
X147781826Y-80337298D01*
X147821600Y-80137339D01*
X147821600Y-79933461D01*
X147781826Y-79733502D01*
X147703805Y-79545144D01*
X147590537Y-79375626D01*
X147446374Y-79231463D01*
X147276856Y-79118195D01*
X147088498Y-79040174D01*
X146961600Y-79014933D01*
X146961600Y-78654100D01*
X147068805Y-78493656D01*
X147146826Y-78305298D01*
X147186600Y-78105339D01*
X147186600Y-78038399D01*
X148233752Y-78038399D01*
X148158826Y-78088463D01*
X148014663Y-78232626D01*
X147901395Y-78402144D01*
X147823374Y-78590502D01*
X147783600Y-78790461D01*
X147783600Y-78994339D01*
X147823374Y-79194298D01*
X147901395Y-79382656D01*
X148014663Y-79552174D01*
X148158826Y-79696337D01*
X148328344Y-79809605D01*
X148516702Y-79887626D01*
X148716661Y-79927400D01*
X148920539Y-79927400D01*
X149120498Y-79887626D01*
X149308856Y-79809605D01*
X149469300Y-79702400D01*
X154136900Y-79702400D01*
X154297344Y-79809605D01*
X154485702Y-79887626D01*
X154685661Y-79927400D01*
X154889539Y-79927400D01*
X155089498Y-79887626D01*
X155277856Y-79809605D01*
X155447374Y-79696337D01*
X155591537Y-79552174D01*
X155704805Y-79382656D01*
X155782826Y-79194298D01*
X155814873Y-79033185D01*
X157691729Y-80910042D01*
X157729374Y-81099298D01*
X157807395Y-81287656D01*
X157920663Y-81457174D01*
X158064826Y-81601337D01*
X158234344Y-81714605D01*
X158422702Y-81792626D01*
X158622661Y-81832400D01*
X158826539Y-81832400D01*
X159026498Y-81792626D01*
X159214856Y-81714605D01*
X159384374Y-81601337D01*
X159528537Y-81457174D01*
X159641805Y-81287656D01*
X159719826Y-81099298D01*
X159759600Y-80899339D01*
X159759600Y-80695461D01*
X159719826Y-80495502D01*
X159641805Y-80307144D01*
X159528537Y-80137626D01*
X159384374Y-79993463D01*
X159214856Y-79880195D01*
X159026498Y-79802174D01*
X158837242Y-79764529D01*
X156561101Y-77488389D01*
X158588077Y-77488389D01*
X162517729Y-81418042D01*
X162555374Y-81607298D01*
X162633395Y-81795656D01*
X162746663Y-81965174D01*
X162890826Y-82109337D01*
X163060344Y-82222605D01*
X163248702Y-82300626D01*
X163368296Y-82324415D01*
X163332742Y-82359969D01*
X163187344Y-82420195D01*
X163017826Y-82533463D01*
X162873663Y-82677626D01*
X162760395Y-82847144D01*
X162682374Y-83035502D01*
X162642600Y-83235461D01*
X162642600Y-83439339D01*
X162682374Y-83639298D01*
X162760395Y-83827656D01*
X162873663Y-83997174D01*
X163017826Y-84141337D01*
X163187344Y-84254605D01*
X163375702Y-84332626D01*
X163575661Y-84372400D01*
X163779539Y-84372400D01*
X163979498Y-84332626D01*
X164167856Y-84254605D01*
X164337374Y-84141337D01*
X164481537Y-83997174D01*
X164594805Y-83827656D01*
X164655031Y-83682258D01*
X169143787Y-79193503D01*
X174326600Y-79193503D01*
X174326600Y-79375339D01*
X174366374Y-79575298D01*
X174444395Y-79763656D01*
X174551601Y-79924101D01*
X174551600Y-83533805D01*
X174533654Y-85114635D01*
X174532263Y-85116026D01*
X174418995Y-85285544D01*
X174340974Y-85473902D01*
X174301200Y-85673861D01*
X174301200Y-85877739D01*
X174340974Y-86077698D01*
X174418995Y-86266056D01*
X174532263Y-86435574D01*
X174676426Y-86579737D01*
X174845944Y-86693005D01*
X175034302Y-86771026D01*
X175234261Y-86810800D01*
X175438139Y-86810800D01*
X175638098Y-86771026D01*
X175826456Y-86693005D01*
X175995974Y-86579737D01*
X176140137Y-86435574D01*
X176253405Y-86266056D01*
X176331426Y-86077698D01*
X176371200Y-85877739D01*
X176371200Y-85797014D01*
X176378668Y-85834558D01*
X176490610Y-86104811D01*
X176653125Y-86348032D01*
X176859968Y-86554875D01*
X177103189Y-86717390D01*
X177373442Y-86829332D01*
X177660340Y-86886400D01*
X177952860Y-86886400D01*
X178239758Y-86829332D01*
X178510011Y-86717390D01*
X178753232Y-86554875D01*
X178960075Y-86348032D01*
X179077700Y-86171994D01*
X179249012Y-86401669D01*
X179465245Y-86596578D01*
X179715348Y-86745557D01*
X179989709Y-86842881D01*
X180219600Y-86722214D01*
X180219600Y-85528400D01*
X180473600Y-85528400D01*
X180473600Y-86722214D01*
X180703491Y-86842881D01*
X180977852Y-86745557D01*
X181227955Y-86596578D01*
X181444188Y-86401669D01*
X181618241Y-86168320D01*
X181743425Y-85905499D01*
X181788076Y-85758290D01*
X181666755Y-85528400D01*
X180473600Y-85528400D01*
X180219600Y-85528400D01*
X180199600Y-85528400D01*
X180199600Y-85274400D01*
X180219600Y-85274400D01*
X180219600Y-85254400D01*
X180473600Y-85254400D01*
X180473600Y-85274400D01*
X181666755Y-85274400D01*
X181788076Y-85044510D01*
X181743425Y-84897301D01*
X181618241Y-84634480D01*
X181444188Y-84401131D01*
X181227955Y-84206222D01*
X181111066Y-84136595D01*
X181293232Y-84014875D01*
X181500075Y-83808032D01*
X181662590Y-83564811D01*
X181774532Y-83294558D01*
X181831600Y-83007660D01*
X181831600Y-82715140D01*
X181774532Y-82428242D01*
X181662590Y-82157989D01*
X181500075Y-81914768D01*
X181293232Y-81707925D01*
X181118840Y-81591400D01*
X181293232Y-81474875D01*
X181500075Y-81268032D01*
X181662590Y-81024811D01*
X181774532Y-80754558D01*
X181831600Y-80467660D01*
X181831600Y-80175140D01*
X181807281Y-80052881D01*
X181841446Y-80075709D01*
X182029804Y-80153730D01*
X182171600Y-80181935D01*
X182171600Y-80249612D01*
X182167681Y-80289400D01*
X182171600Y-80329188D01*
X182171600Y-80329190D01*
X182183320Y-80448187D01*
X182229637Y-80600872D01*
X182253972Y-80646400D01*
X182304851Y-80741589D01*
X182315495Y-80754558D01*
X182406072Y-80864928D01*
X182436988Y-80890300D01*
X182456729Y-80910041D01*
X182494374Y-81099298D01*
X182572395Y-81287656D01*
X182685663Y-81457174D01*
X182829826Y-81601337D01*
X182999344Y-81714605D01*
X183187702Y-81792626D01*
X183387661Y-81832400D01*
X183591539Y-81832400D01*
X183791498Y-81792626D01*
X183979856Y-81714605D01*
X184149374Y-81601337D01*
X184293537Y-81457174D01*
X184406805Y-81287656D01*
X184484826Y-81099298D01*
X184524600Y-80899339D01*
X184524600Y-80695461D01*
X184484826Y-80495502D01*
X184406805Y-80307144D01*
X184293537Y-80137626D01*
X184149374Y-79993463D01*
X183979856Y-79880195D01*
X183795051Y-79803646D01*
X183779880Y-79649614D01*
X183733563Y-79496928D01*
X183658349Y-79356213D01*
X183582493Y-79263782D01*
X183557128Y-79232874D01*
X183526218Y-79207507D01*
X183364573Y-79045862D01*
X183326928Y-78856606D01*
X183248907Y-78668248D01*
X183135639Y-78498730D01*
X182991476Y-78354567D01*
X182821958Y-78241299D01*
X182633600Y-78163278D01*
X182433641Y-78123504D01*
X182229763Y-78123504D01*
X182029804Y-78163278D01*
X181841446Y-78241299D01*
X181671928Y-78354567D01*
X181527765Y-78498730D01*
X181414497Y-78668248D01*
X181336476Y-78856606D01*
X181296702Y-79056565D01*
X181296702Y-79171395D01*
X181293232Y-79167925D01*
X181050011Y-79005410D01*
X180779758Y-78893468D01*
X180594035Y-78856525D01*
X180587786Y-78844834D01*
X180470944Y-78702462D01*
X180435265Y-78673181D01*
X179663484Y-77901400D01*
X187208528Y-77901400D01*
X187220788Y-78025882D01*
X187257098Y-78145580D01*
X187316063Y-78255894D01*
X187395415Y-78352585D01*
X187492106Y-78431937D01*
X187602420Y-78490902D01*
X187674980Y-78512913D01*
X187543125Y-78644768D01*
X187380610Y-78887989D01*
X187268668Y-79158242D01*
X187211600Y-79445140D01*
X187211600Y-79737660D01*
X187268668Y-80024558D01*
X187380610Y-80294811D01*
X187543125Y-80538032D01*
X187749968Y-80744875D01*
X187924360Y-80861400D01*
X187749968Y-80977925D01*
X187543125Y-81184768D01*
X187380610Y-81427989D01*
X187268668Y-81698242D01*
X187211600Y-81985140D01*
X187211600Y-82277660D01*
X187268668Y-82564558D01*
X187380610Y-82834811D01*
X187543125Y-83078032D01*
X187749968Y-83284875D01*
X187924360Y-83401400D01*
X187749968Y-83517925D01*
X187543125Y-83724768D01*
X187380610Y-83967989D01*
X187268668Y-84238242D01*
X187211600Y-84525140D01*
X187211600Y-84817660D01*
X187268668Y-85104558D01*
X187380610Y-85374811D01*
X187543125Y-85618032D01*
X187749968Y-85824875D01*
X187924360Y-85941400D01*
X187749968Y-86057925D01*
X187543125Y-86264768D01*
X187380610Y-86507989D01*
X187268668Y-86778242D01*
X187211600Y-87065140D01*
X187211600Y-87357660D01*
X187268668Y-87644558D01*
X187380610Y-87914811D01*
X187543125Y-88158032D01*
X187749968Y-88364875D01*
X187924360Y-88481400D01*
X187749968Y-88597925D01*
X187543125Y-88804768D01*
X187380610Y-89047989D01*
X187268668Y-89318242D01*
X187211600Y-89605140D01*
X187211600Y-89897660D01*
X187268668Y-90184558D01*
X187380610Y-90454811D01*
X187543125Y-90698032D01*
X187749968Y-90904875D01*
X187993189Y-91067390D01*
X188263442Y-91179332D01*
X188550340Y-91236400D01*
X188842860Y-91236400D01*
X189129758Y-91179332D01*
X189400011Y-91067390D01*
X189643232Y-90904875D01*
X189850075Y-90698032D01*
X190012590Y-90454811D01*
X190124532Y-90184558D01*
X190181600Y-89897660D01*
X190181600Y-89605140D01*
X190124532Y-89318242D01*
X190012590Y-89047989D01*
X189850075Y-88804768D01*
X189643232Y-88597925D01*
X189468840Y-88481400D01*
X189643232Y-88364875D01*
X189850075Y-88158032D01*
X190012590Y-87914811D01*
X190124532Y-87644558D01*
X190181600Y-87357660D01*
X190181600Y-87065140D01*
X190124532Y-86778242D01*
X190012590Y-86507989D01*
X189850075Y-86264768D01*
X189643232Y-86057925D01*
X189468840Y-85941400D01*
X189643232Y-85824875D01*
X189850075Y-85618032D01*
X190012590Y-85374811D01*
X190124532Y-85104558D01*
X190181600Y-84817660D01*
X190181600Y-84525140D01*
X190124532Y-84238242D01*
X190012590Y-83967989D01*
X189850075Y-83724768D01*
X189643232Y-83517925D01*
X189468840Y-83401400D01*
X189643232Y-83284875D01*
X189850075Y-83078032D01*
X190012590Y-82834811D01*
X190124532Y-82564558D01*
X190181600Y-82277660D01*
X190181600Y-81985140D01*
X190124532Y-81698242D01*
X190012590Y-81427989D01*
X189850075Y-81184768D01*
X189643232Y-80977925D01*
X189468840Y-80861400D01*
X189643232Y-80744875D01*
X189850075Y-80538032D01*
X190012590Y-80294811D01*
X190124532Y-80024558D01*
X190181600Y-79737660D01*
X190181600Y-79445140D01*
X190124532Y-79158242D01*
X190012590Y-78887989D01*
X189850075Y-78644768D01*
X189718220Y-78512913D01*
X189790780Y-78490902D01*
X189901094Y-78431937D01*
X189997785Y-78352585D01*
X190077137Y-78255894D01*
X190136102Y-78145580D01*
X190172412Y-78025882D01*
X190184672Y-77901400D01*
X190181600Y-77337150D01*
X190022850Y-77178400D01*
X188823600Y-77178400D01*
X188823600Y-77198400D01*
X188569600Y-77198400D01*
X188569600Y-77178400D01*
X187370350Y-77178400D01*
X187211600Y-77337150D01*
X187208528Y-77901400D01*
X179663484Y-77901400D01*
X179391927Y-77629844D01*
X179362641Y-77594159D01*
X179220269Y-77477317D01*
X179057837Y-77390496D01*
X178881589Y-77337032D01*
X178744229Y-77323503D01*
X178698297Y-77318979D01*
X178652365Y-77323503D01*
X168802428Y-77323503D01*
X168756496Y-77318979D01*
X168678603Y-77326651D01*
X168573205Y-77337032D01*
X168396957Y-77390496D01*
X168234525Y-77477317D01*
X168092153Y-77594159D01*
X168062872Y-77629839D01*
X164569615Y-81123096D01*
X164545826Y-81003502D01*
X164467805Y-80815144D01*
X164354537Y-80645626D01*
X164210374Y-80501463D01*
X164040856Y-80388195D01*
X163852498Y-80310174D01*
X163663242Y-80272529D01*
X159592113Y-76201400D01*
X187208528Y-76201400D01*
X187211600Y-76765650D01*
X187370350Y-76924400D01*
X188569600Y-76924400D01*
X188569600Y-75725150D01*
X188823600Y-75725150D01*
X188823600Y-76924400D01*
X190022850Y-76924400D01*
X190181600Y-76765650D01*
X190184672Y-76201400D01*
X190172412Y-76076918D01*
X190136102Y-75957220D01*
X190077137Y-75846906D01*
X189997785Y-75750215D01*
X189901094Y-75670863D01*
X189790780Y-75611898D01*
X189671082Y-75575588D01*
X189546600Y-75563328D01*
X188982350Y-75566400D01*
X188823600Y-75725150D01*
X188569600Y-75725150D01*
X188410850Y-75566400D01*
X187846600Y-75563328D01*
X187722118Y-75575588D01*
X187602420Y-75611898D01*
X187492106Y-75670863D01*
X187395415Y-75750215D01*
X187316063Y-75846906D01*
X187257098Y-75957220D01*
X187220788Y-76076918D01*
X187208528Y-76201400D01*
X159592113Y-76201400D01*
X159524489Y-76133777D01*
X159499117Y-76102861D01*
X159375778Y-76001640D01*
X159235062Y-75926426D01*
X159082377Y-75880109D01*
X158963380Y-75868389D01*
X158963377Y-75868389D01*
X158923589Y-75864470D01*
X158883801Y-75868389D01*
X145591566Y-75868389D01*
X145551778Y-75864470D01*
X145511990Y-75868389D01*
X145511987Y-75868389D01*
X145392990Y-75880109D01*
X145240305Y-75926426D01*
X145182693Y-75957220D01*
X145099588Y-76001640D01*
X145035574Y-76054175D01*
X144976250Y-76102861D01*
X144950883Y-76133771D01*
X144209983Y-76874672D01*
X144179073Y-76900039D01*
X144141795Y-76945463D01*
X144077851Y-77023378D01*
X144020552Y-77130579D01*
X144002638Y-77164094D01*
X143976143Y-77251437D01*
X143956321Y-77316780D01*
X143940681Y-77475567D01*
X143944601Y-77515365D01*
X143944601Y-77571888D01*
X140584510Y-74211798D01*
X140559138Y-74180882D01*
X140435799Y-74079661D01*
X140295083Y-74004447D01*
X140142398Y-73958130D01*
X140023401Y-73946410D01*
X140023398Y-73946410D01*
X139983610Y-73942491D01*
X139943822Y-73946410D01*
X131816300Y-73946410D01*
X131655856Y-73839205D01*
X131467498Y-73761184D01*
X131267539Y-73721410D01*
X131063661Y-73721410D01*
X130863702Y-73761184D01*
X130675344Y-73839205D01*
X130505826Y-73952473D01*
X130361663Y-74096636D01*
X130248395Y-74266154D01*
X130170374Y-74454512D01*
X130130600Y-74654471D01*
X105966451Y-74654471D01*
X105954258Y-68692400D01*
X107024528Y-68692400D01*
X107024528Y-70042400D01*
X107036788Y-70166882D01*
X107073098Y-70286580D01*
X107132063Y-70396894D01*
X107211415Y-70493585D01*
X107308106Y-70572937D01*
X107418420Y-70631902D01*
X107538118Y-70668212D01*
X107662600Y-70680472D01*
X109012600Y-70680472D01*
X109137082Y-70668212D01*
X109256780Y-70631902D01*
X109367094Y-70572937D01*
X109463785Y-70493585D01*
X109540719Y-70399841D01*
X109673971Y-70496873D01*
X109907072Y-70604638D01*
X110008200Y-70635310D01*
X110210600Y-70511624D01*
X110210600Y-69494400D01*
X110464600Y-69494400D01*
X110464600Y-70511624D01*
X110667000Y-70635310D01*
X110768128Y-70604638D01*
X111001229Y-70496873D01*
X111208827Y-70345703D01*
X111382944Y-70156937D01*
X111516889Y-69937830D01*
X111605515Y-69696801D01*
X111482685Y-69494400D01*
X110464600Y-69494400D01*
X110210600Y-69494400D01*
X110190600Y-69494400D01*
X110190600Y-69240400D01*
X110210600Y-69240400D01*
X110210600Y-68223176D01*
X110464600Y-68223176D01*
X110464600Y-69240400D01*
X111482685Y-69240400D01*
X111605515Y-69037999D01*
X111516889Y-68796970D01*
X111452964Y-68692400D01*
X113882528Y-68692400D01*
X113882528Y-70042400D01*
X113894788Y-70166882D01*
X113931098Y-70286580D01*
X113990063Y-70396894D01*
X114069415Y-70493585D01*
X114166106Y-70572937D01*
X114276420Y-70631902D01*
X114396118Y-70668212D01*
X114520600Y-70680472D01*
X115870600Y-70680472D01*
X115995082Y-70668212D01*
X116114780Y-70631902D01*
X116225094Y-70572937D01*
X116321785Y-70493585D01*
X116398719Y-70399841D01*
X116531971Y-70496873D01*
X116765072Y-70604638D01*
X116866200Y-70635310D01*
X117068600Y-70511624D01*
X117068600Y-69494400D01*
X117322600Y-69494400D01*
X117322600Y-70511624D01*
X117525000Y-70635310D01*
X117626128Y-70604638D01*
X117859229Y-70496873D01*
X118066827Y-70345703D01*
X118240944Y-70156937D01*
X118374889Y-69937830D01*
X118463515Y-69696801D01*
X118340685Y-69494400D01*
X117322600Y-69494400D01*
X117068600Y-69494400D01*
X117048600Y-69494400D01*
X117048600Y-69240400D01*
X117068600Y-69240400D01*
X117068600Y-68223176D01*
X117322600Y-68223176D01*
X117322600Y-69240400D01*
X118340685Y-69240400D01*
X118463515Y-69037999D01*
X118374889Y-68796970D01*
X118310964Y-68692400D01*
X120962528Y-68692400D01*
X120962528Y-70042400D01*
X120974788Y-70166882D01*
X121011098Y-70286580D01*
X121070063Y-70396894D01*
X121149415Y-70493585D01*
X121246106Y-70572937D01*
X121356420Y-70631902D01*
X121476118Y-70668212D01*
X121600600Y-70680472D01*
X122950600Y-70680472D01*
X123075082Y-70668212D01*
X123194780Y-70631902D01*
X123305094Y-70572937D01*
X123401785Y-70493585D01*
X123478719Y-70399841D01*
X123611971Y-70496873D01*
X123845072Y-70604638D01*
X123946200Y-70635310D01*
X124148600Y-70511624D01*
X124148600Y-69494400D01*
X124402600Y-69494400D01*
X124402600Y-70511624D01*
X124605000Y-70635310D01*
X124706128Y-70604638D01*
X124939229Y-70496873D01*
X125146827Y-70345703D01*
X125320944Y-70156937D01*
X125454889Y-69937830D01*
X125543515Y-69696801D01*
X125420685Y-69494400D01*
X124402600Y-69494400D01*
X124148600Y-69494400D01*
X124128600Y-69494400D01*
X124128600Y-69240400D01*
X124148600Y-69240400D01*
X124148600Y-68223176D01*
X124402600Y-68223176D01*
X124402600Y-69240400D01*
X125420685Y-69240400D01*
X125543515Y-69037999D01*
X125454889Y-68796970D01*
X125390964Y-68692400D01*
X127852528Y-68692400D01*
X127852528Y-70042400D01*
X127864788Y-70166882D01*
X127901098Y-70286580D01*
X127960063Y-70396894D01*
X128039415Y-70493585D01*
X128136106Y-70572937D01*
X128246420Y-70631902D01*
X128366118Y-70668212D01*
X128490600Y-70680472D01*
X129840600Y-70680472D01*
X129965082Y-70668212D01*
X130084780Y-70631902D01*
X130195094Y-70572937D01*
X130291785Y-70493585D01*
X130368719Y-70399841D01*
X130501971Y-70496873D01*
X130735072Y-70604638D01*
X130836200Y-70635310D01*
X131038600Y-70511624D01*
X131038600Y-69494400D01*
X131292600Y-69494400D01*
X131292600Y-70511624D01*
X131495000Y-70635310D01*
X131596128Y-70604638D01*
X131829229Y-70496873D01*
X132036827Y-70345703D01*
X132210944Y-70156937D01*
X132344889Y-69937830D01*
X132433515Y-69696801D01*
X132310685Y-69494400D01*
X131292600Y-69494400D01*
X131038600Y-69494400D01*
X131018600Y-69494400D01*
X131018600Y-69240400D01*
X131038600Y-69240400D01*
X131038600Y-68223176D01*
X131292600Y-68223176D01*
X131292600Y-69240400D01*
X132310685Y-69240400D01*
X132433515Y-69037999D01*
X132344889Y-68796970D01*
X132280964Y-68692400D01*
X134710528Y-68692400D01*
X134710528Y-70042400D01*
X134722788Y-70166882D01*
X134759098Y-70286580D01*
X134818063Y-70396894D01*
X134897415Y-70493585D01*
X134994106Y-70572937D01*
X135104420Y-70631902D01*
X135224118Y-70668212D01*
X135348600Y-70680472D01*
X136698600Y-70680472D01*
X136823082Y-70668212D01*
X136942780Y-70631902D01*
X137053094Y-70572937D01*
X137149785Y-70493585D01*
X137226719Y-70399841D01*
X137359971Y-70496873D01*
X137593072Y-70604638D01*
X137694200Y-70635310D01*
X137896600Y-70511624D01*
X137896600Y-69494400D01*
X138150600Y-69494400D01*
X138150600Y-70511624D01*
X138353000Y-70635310D01*
X138454128Y-70604638D01*
X138687229Y-70496873D01*
X138894827Y-70345703D01*
X139068944Y-70156937D01*
X139202889Y-69937830D01*
X139291515Y-69696801D01*
X139168685Y-69494400D01*
X138150600Y-69494400D01*
X137896600Y-69494400D01*
X137876600Y-69494400D01*
X137876600Y-69240400D01*
X137896600Y-69240400D01*
X137896600Y-68223176D01*
X138150600Y-68223176D01*
X138150600Y-69240400D01*
X139168685Y-69240400D01*
X139291515Y-69037999D01*
X139202889Y-68796970D01*
X139138964Y-68692400D01*
X141822528Y-68692400D01*
X141822528Y-70042400D01*
X141834788Y-70166882D01*
X141871098Y-70286580D01*
X141930063Y-70396894D01*
X142009415Y-70493585D01*
X142106106Y-70572937D01*
X142216420Y-70631902D01*
X142336118Y-70668212D01*
X142460600Y-70680472D01*
X143810600Y-70680472D01*
X143935082Y-70668212D01*
X144054780Y-70631902D01*
X144165094Y-70572937D01*
X144261785Y-70493585D01*
X144338719Y-70399841D01*
X144471971Y-70496873D01*
X144705072Y-70604638D01*
X144806200Y-70635310D01*
X145008600Y-70511624D01*
X145008600Y-69494400D01*
X145262600Y-69494400D01*
X145262600Y-70511624D01*
X145465000Y-70635310D01*
X145566128Y-70604638D01*
X145799229Y-70496873D01*
X146006827Y-70345703D01*
X146180944Y-70156937D01*
X146314889Y-69937830D01*
X146403515Y-69696801D01*
X146280685Y-69494400D01*
X145262600Y-69494400D01*
X145008600Y-69494400D01*
X144988600Y-69494400D01*
X144988600Y-69240400D01*
X145008600Y-69240400D01*
X145008600Y-68223176D01*
X145262600Y-68223176D01*
X145262600Y-69240400D01*
X146280685Y-69240400D01*
X146403515Y-69037999D01*
X146314889Y-68796970D01*
X146250964Y-68692400D01*
X148934528Y-68692400D01*
X148934528Y-70042400D01*
X148946788Y-70166882D01*
X148983098Y-70286580D01*
X149042063Y-70396894D01*
X149121415Y-70493585D01*
X149218106Y-70572937D01*
X149328420Y-70631902D01*
X149448118Y-70668212D01*
X149572600Y-70680472D01*
X150922600Y-70680472D01*
X151047082Y-70668212D01*
X151166780Y-70631902D01*
X151277094Y-70572937D01*
X151373785Y-70493585D01*
X151450719Y-70399841D01*
X151583971Y-70496873D01*
X151817072Y-70604638D01*
X151918200Y-70635310D01*
X152120600Y-70511624D01*
X152120600Y-69494400D01*
X152374600Y-69494400D01*
X152374600Y-70511624D01*
X152577000Y-70635310D01*
X152678128Y-70604638D01*
X152911229Y-70496873D01*
X153118827Y-70345703D01*
X153292944Y-70156937D01*
X153426889Y-69937830D01*
X153515515Y-69696801D01*
X153392685Y-69494400D01*
X152374600Y-69494400D01*
X152120600Y-69494400D01*
X152100600Y-69494400D01*
X152100600Y-69240400D01*
X152120600Y-69240400D01*
X152120600Y-68223176D01*
X152374600Y-68223176D01*
X152374600Y-69240400D01*
X153392685Y-69240400D01*
X153515515Y-69037999D01*
X153426889Y-68796970D01*
X153362964Y-68692400D01*
X156046528Y-68692400D01*
X156046528Y-70042400D01*
X156058788Y-70166882D01*
X156095098Y-70286580D01*
X156154063Y-70396894D01*
X156233415Y-70493585D01*
X156330106Y-70572937D01*
X156440420Y-70631902D01*
X156560118Y-70668212D01*
X156684600Y-70680472D01*
X158034600Y-70680472D01*
X158159082Y-70668212D01*
X158278780Y-70631902D01*
X158389094Y-70572937D01*
X158485785Y-70493585D01*
X158562719Y-70399841D01*
X158695971Y-70496873D01*
X158929072Y-70604638D01*
X159030200Y-70635310D01*
X159232600Y-70511624D01*
X159232600Y-69494400D01*
X159486600Y-69494400D01*
X159486600Y-70511624D01*
X159689000Y-70635310D01*
X159790128Y-70604638D01*
X160023229Y-70496873D01*
X160230827Y-70345703D01*
X160404944Y-70156937D01*
X160538889Y-69937830D01*
X160627515Y-69696801D01*
X160504685Y-69494400D01*
X159486600Y-69494400D01*
X159232600Y-69494400D01*
X159212600Y-69494400D01*
X159212600Y-69240400D01*
X159232600Y-69240400D01*
X159232600Y-68223176D01*
X159486600Y-68223176D01*
X159486600Y-69240400D01*
X160504685Y-69240400D01*
X160627515Y-69037999D01*
X160538889Y-68796970D01*
X160474964Y-68692400D01*
X163158528Y-68692400D01*
X163158528Y-70042400D01*
X163170788Y-70166882D01*
X163207098Y-70286580D01*
X163266063Y-70396894D01*
X163345415Y-70493585D01*
X163442106Y-70572937D01*
X163552420Y-70631902D01*
X163672118Y-70668212D01*
X163796600Y-70680472D01*
X165146600Y-70680472D01*
X165271082Y-70668212D01*
X165390780Y-70631902D01*
X165501094Y-70572937D01*
X165597785Y-70493585D01*
X165674719Y-70399841D01*
X165807971Y-70496873D01*
X166041072Y-70604638D01*
X166142200Y-70635310D01*
X166344600Y-70511624D01*
X166344600Y-69494400D01*
X166598600Y-69494400D01*
X166598600Y-70511624D01*
X166801000Y-70635310D01*
X166902128Y-70604638D01*
X167135229Y-70496873D01*
X167342827Y-70345703D01*
X167516944Y-70156937D01*
X167650889Y-69937830D01*
X167739515Y-69696801D01*
X167616685Y-69494400D01*
X166598600Y-69494400D01*
X166344600Y-69494400D01*
X166324600Y-69494400D01*
X166324600Y-69240400D01*
X166344600Y-69240400D01*
X166344600Y-68223176D01*
X166598600Y-68223176D01*
X166598600Y-69240400D01*
X167616685Y-69240400D01*
X167739515Y-69037999D01*
X167650889Y-68796970D01*
X167586964Y-68692400D01*
X170524528Y-68692400D01*
X170524528Y-70042400D01*
X170536788Y-70166882D01*
X170573098Y-70286580D01*
X170632063Y-70396894D01*
X170711415Y-70493585D01*
X170808106Y-70572937D01*
X170918420Y-70631902D01*
X171038118Y-70668212D01*
X171162600Y-70680472D01*
X172512600Y-70680472D01*
X172637082Y-70668212D01*
X172756780Y-70631902D01*
X172867094Y-70572937D01*
X172963785Y-70493585D01*
X173040719Y-70399841D01*
X173173971Y-70496873D01*
X173407072Y-70604638D01*
X173508200Y-70635310D01*
X173710600Y-70511624D01*
X173710600Y-69494400D01*
X173964600Y-69494400D01*
X173964600Y-70511624D01*
X174167000Y-70635310D01*
X174268128Y-70604638D01*
X174501229Y-70496873D01*
X174708827Y-70345703D01*
X174882944Y-70156937D01*
X175016889Y-69937830D01*
X175105515Y-69696801D01*
X174982685Y-69494400D01*
X173964600Y-69494400D01*
X173710600Y-69494400D01*
X173690600Y-69494400D01*
X173690600Y-69240400D01*
X173710600Y-69240400D01*
X173710600Y-68223176D01*
X173964600Y-68223176D01*
X173964600Y-69240400D01*
X174982685Y-69240400D01*
X175105515Y-69037999D01*
X175016889Y-68796970D01*
X174952964Y-68692400D01*
X177858528Y-68692400D01*
X177858528Y-70042400D01*
X177870788Y-70166882D01*
X177907098Y-70286580D01*
X177966063Y-70396894D01*
X178045415Y-70493585D01*
X178142106Y-70572937D01*
X178252420Y-70631902D01*
X178372118Y-70668212D01*
X178496600Y-70680472D01*
X179846600Y-70680472D01*
X179971082Y-70668212D01*
X180090780Y-70631902D01*
X180201094Y-70572937D01*
X180297785Y-70493585D01*
X180374719Y-70399841D01*
X180507971Y-70496873D01*
X180741072Y-70604638D01*
X180842200Y-70635310D01*
X181044600Y-70511624D01*
X181044600Y-69494400D01*
X181298600Y-69494400D01*
X181298600Y-70511624D01*
X181501000Y-70635310D01*
X181602128Y-70604638D01*
X181835229Y-70496873D01*
X182042827Y-70345703D01*
X182216944Y-70156937D01*
X182350889Y-69937830D01*
X182439515Y-69696801D01*
X182316685Y-69494400D01*
X181298600Y-69494400D01*
X181044600Y-69494400D01*
X181024600Y-69494400D01*
X181024600Y-69240400D01*
X181044600Y-69240400D01*
X181044600Y-68223176D01*
X181298600Y-68223176D01*
X181298600Y-69240400D01*
X182316685Y-69240400D01*
X182439515Y-69037999D01*
X182350889Y-68796970D01*
X182286964Y-68692400D01*
X184970528Y-68692400D01*
X184970528Y-70042400D01*
X184982788Y-70166882D01*
X185019098Y-70286580D01*
X185078063Y-70396894D01*
X185157415Y-70493585D01*
X185254106Y-70572937D01*
X185364420Y-70631902D01*
X185484118Y-70668212D01*
X185608600Y-70680472D01*
X186958600Y-70680472D01*
X187083082Y-70668212D01*
X187202780Y-70631902D01*
X187313094Y-70572937D01*
X187409785Y-70493585D01*
X187486719Y-70399841D01*
X187619971Y-70496873D01*
X187853072Y-70604638D01*
X187954200Y-70635310D01*
X188156600Y-70511624D01*
X188156600Y-69494400D01*
X188410600Y-69494400D01*
X188410600Y-70511624D01*
X188613000Y-70635310D01*
X188714128Y-70604638D01*
X188947229Y-70496873D01*
X189154827Y-70345703D01*
X189328944Y-70156937D01*
X189462889Y-69937830D01*
X189551515Y-69696801D01*
X189428685Y-69494400D01*
X188410600Y-69494400D01*
X188156600Y-69494400D01*
X188136600Y-69494400D01*
X188136600Y-69240400D01*
X188156600Y-69240400D01*
X188156600Y-68223176D01*
X188410600Y-68223176D01*
X188410600Y-69240400D01*
X189428685Y-69240400D01*
X189551515Y-69037999D01*
X189462889Y-68796970D01*
X189328944Y-68577863D01*
X189154827Y-68389097D01*
X188947229Y-68237927D01*
X188714128Y-68130162D01*
X188613000Y-68099490D01*
X188410600Y-68223176D01*
X188156600Y-68223176D01*
X187954200Y-68099490D01*
X187853072Y-68130162D01*
X187619971Y-68237927D01*
X187486719Y-68334959D01*
X187409785Y-68241215D01*
X187313094Y-68161863D01*
X187202780Y-68102898D01*
X187083082Y-68066588D01*
X186958600Y-68054328D01*
X185608600Y-68054328D01*
X185484118Y-68066588D01*
X185364420Y-68102898D01*
X185254106Y-68161863D01*
X185157415Y-68241215D01*
X185078063Y-68337906D01*
X185019098Y-68448220D01*
X184982788Y-68567918D01*
X184970528Y-68692400D01*
X182286964Y-68692400D01*
X182216944Y-68577863D01*
X182042827Y-68389097D01*
X181835229Y-68237927D01*
X181602128Y-68130162D01*
X181501000Y-68099490D01*
X181298600Y-68223176D01*
X181044600Y-68223176D01*
X180842200Y-68099490D01*
X180741072Y-68130162D01*
X180507971Y-68237927D01*
X180374719Y-68334959D01*
X180297785Y-68241215D01*
X180201094Y-68161863D01*
X180090780Y-68102898D01*
X179971082Y-68066588D01*
X179846600Y-68054328D01*
X178496600Y-68054328D01*
X178372118Y-68066588D01*
X178252420Y-68102898D01*
X178142106Y-68161863D01*
X178045415Y-68241215D01*
X177966063Y-68337906D01*
X177907098Y-68448220D01*
X177870788Y-68567918D01*
X177858528Y-68692400D01*
X174952964Y-68692400D01*
X174882944Y-68577863D01*
X174708827Y-68389097D01*
X174501229Y-68237927D01*
X174268128Y-68130162D01*
X174167000Y-68099490D01*
X173964600Y-68223176D01*
X173710600Y-68223176D01*
X173508200Y-68099490D01*
X173407072Y-68130162D01*
X173173971Y-68237927D01*
X173040719Y-68334959D01*
X172963785Y-68241215D01*
X172867094Y-68161863D01*
X172756780Y-68102898D01*
X172637082Y-68066588D01*
X172512600Y-68054328D01*
X171162600Y-68054328D01*
X171038118Y-68066588D01*
X170918420Y-68102898D01*
X170808106Y-68161863D01*
X170711415Y-68241215D01*
X170632063Y-68337906D01*
X170573098Y-68448220D01*
X170536788Y-68567918D01*
X170524528Y-68692400D01*
X167586964Y-68692400D01*
X167516944Y-68577863D01*
X167342827Y-68389097D01*
X167135229Y-68237927D01*
X166902128Y-68130162D01*
X166801000Y-68099490D01*
X166598600Y-68223176D01*
X166344600Y-68223176D01*
X166142200Y-68099490D01*
X166041072Y-68130162D01*
X165807971Y-68237927D01*
X165674719Y-68334959D01*
X165597785Y-68241215D01*
X165501094Y-68161863D01*
X165390780Y-68102898D01*
X165271082Y-68066588D01*
X165146600Y-68054328D01*
X163796600Y-68054328D01*
X163672118Y-68066588D01*
X163552420Y-68102898D01*
X163442106Y-68161863D01*
X163345415Y-68241215D01*
X163266063Y-68337906D01*
X163207098Y-68448220D01*
X163170788Y-68567918D01*
X163158528Y-68692400D01*
X160474964Y-68692400D01*
X160404944Y-68577863D01*
X160230827Y-68389097D01*
X160023229Y-68237927D01*
X159790128Y-68130162D01*
X159689000Y-68099490D01*
X159486600Y-68223176D01*
X159232600Y-68223176D01*
X159030200Y-68099490D01*
X158929072Y-68130162D01*
X158695971Y-68237927D01*
X158562719Y-68334959D01*
X158485785Y-68241215D01*
X158389094Y-68161863D01*
X158278780Y-68102898D01*
X158159082Y-68066588D01*
X158034600Y-68054328D01*
X156684600Y-68054328D01*
X156560118Y-68066588D01*
X156440420Y-68102898D01*
X156330106Y-68161863D01*
X156233415Y-68241215D01*
X156154063Y-68337906D01*
X156095098Y-68448220D01*
X156058788Y-68567918D01*
X156046528Y-68692400D01*
X153362964Y-68692400D01*
X153292944Y-68577863D01*
X153118827Y-68389097D01*
X152911229Y-68237927D01*
X152678128Y-68130162D01*
X152577000Y-68099490D01*
X152374600Y-68223176D01*
X152120600Y-68223176D01*
X151918200Y-68099490D01*
X151817072Y-68130162D01*
X151583971Y-68237927D01*
X151450719Y-68334959D01*
X151373785Y-68241215D01*
X151277094Y-68161863D01*
X151166780Y-68102898D01*
X151047082Y-68066588D01*
X150922600Y-68054328D01*
X149572600Y-68054328D01*
X149448118Y-68066588D01*
X149328420Y-68102898D01*
X149218106Y-68161863D01*
X149121415Y-68241215D01*
X149042063Y-68337906D01*
X148983098Y-68448220D01*
X148946788Y-68567918D01*
X148934528Y-68692400D01*
X146250964Y-68692400D01*
X146180944Y-68577863D01*
X146006827Y-68389097D01*
X145799229Y-68237927D01*
X145566128Y-68130162D01*
X145465000Y-68099490D01*
X145262600Y-68223176D01*
X145008600Y-68223176D01*
X144806200Y-68099490D01*
X144705072Y-68130162D01*
X144471971Y-68237927D01*
X144338719Y-68334959D01*
X144261785Y-68241215D01*
X144165094Y-68161863D01*
X144054780Y-68102898D01*
X143935082Y-68066588D01*
X143810600Y-68054328D01*
X142460600Y-68054328D01*
X142336118Y-68066588D01*
X142216420Y-68102898D01*
X142106106Y-68161863D01*
X142009415Y-68241215D01*
X141930063Y-68337906D01*
X141871098Y-68448220D01*
X141834788Y-68567918D01*
X141822528Y-68692400D01*
X139138964Y-68692400D01*
X139068944Y-68577863D01*
X138894827Y-68389097D01*
X138687229Y-68237927D01*
X138454128Y-68130162D01*
X138353000Y-68099490D01*
X138150600Y-68223176D01*
X137896600Y-68223176D01*
X137694200Y-68099490D01*
X137593072Y-68130162D01*
X137359971Y-68237927D01*
X137226719Y-68334959D01*
X137149785Y-68241215D01*
X137053094Y-68161863D01*
X136942780Y-68102898D01*
X136823082Y-68066588D01*
X136698600Y-68054328D01*
X135348600Y-68054328D01*
X135224118Y-68066588D01*
X135104420Y-68102898D01*
X134994106Y-68161863D01*
X134897415Y-68241215D01*
X134818063Y-68337906D01*
X134759098Y-68448220D01*
X134722788Y-68567918D01*
X134710528Y-68692400D01*
X132280964Y-68692400D01*
X132210944Y-68577863D01*
X132036827Y-68389097D01*
X131829229Y-68237927D01*
X131596128Y-68130162D01*
X131495000Y-68099490D01*
X131292600Y-68223176D01*
X131038600Y-68223176D01*
X130836200Y-68099490D01*
X130735072Y-68130162D01*
X130501971Y-68237927D01*
X130368719Y-68334959D01*
X130291785Y-68241215D01*
X130195094Y-68161863D01*
X130084780Y-68102898D01*
X129965082Y-68066588D01*
X129840600Y-68054328D01*
X128490600Y-68054328D01*
X128366118Y-68066588D01*
X128246420Y-68102898D01*
X128136106Y-68161863D01*
X128039415Y-68241215D01*
X127960063Y-68337906D01*
X127901098Y-68448220D01*
X127864788Y-68567918D01*
X127852528Y-68692400D01*
X125390964Y-68692400D01*
X125320944Y-68577863D01*
X125146827Y-68389097D01*
X124939229Y-68237927D01*
X124706128Y-68130162D01*
X124605000Y-68099490D01*
X124402600Y-68223176D01*
X124148600Y-68223176D01*
X123946200Y-68099490D01*
X123845072Y-68130162D01*
X123611971Y-68237927D01*
X123478719Y-68334959D01*
X123401785Y-68241215D01*
X123305094Y-68161863D01*
X123194780Y-68102898D01*
X123075082Y-68066588D01*
X122950600Y-68054328D01*
X121600600Y-68054328D01*
X121476118Y-68066588D01*
X121356420Y-68102898D01*
X121246106Y-68161863D01*
X121149415Y-68241215D01*
X121070063Y-68337906D01*
X121011098Y-68448220D01*
X120974788Y-68567918D01*
X120962528Y-68692400D01*
X118310964Y-68692400D01*
X118240944Y-68577863D01*
X118066827Y-68389097D01*
X117859229Y-68237927D01*
X117626128Y-68130162D01*
X117525000Y-68099490D01*
X117322600Y-68223176D01*
X117068600Y-68223176D01*
X116866200Y-68099490D01*
X116765072Y-68130162D01*
X116531971Y-68237927D01*
X116398719Y-68334959D01*
X116321785Y-68241215D01*
X116225094Y-68161863D01*
X116114780Y-68102898D01*
X115995082Y-68066588D01*
X115870600Y-68054328D01*
X114520600Y-68054328D01*
X114396118Y-68066588D01*
X114276420Y-68102898D01*
X114166106Y-68161863D01*
X114069415Y-68241215D01*
X113990063Y-68337906D01*
X113931098Y-68448220D01*
X113894788Y-68567918D01*
X113882528Y-68692400D01*
X111452964Y-68692400D01*
X111382944Y-68577863D01*
X111208827Y-68389097D01*
X111001229Y-68237927D01*
X110768128Y-68130162D01*
X110667000Y-68099490D01*
X110464600Y-68223176D01*
X110210600Y-68223176D01*
X110008200Y-68099490D01*
X109907072Y-68130162D01*
X109673971Y-68237927D01*
X109540719Y-68334959D01*
X109463785Y-68241215D01*
X109367094Y-68161863D01*
X109256780Y-68102898D01*
X109137082Y-68066588D01*
X109012600Y-68054328D01*
X107662600Y-68054328D01*
X107538118Y-68066588D01*
X107418420Y-68102898D01*
X107308106Y-68161863D01*
X107211415Y-68241215D01*
X107132063Y-68337906D01*
X107073098Y-68448220D01*
X107036788Y-68567918D01*
X107024528Y-68692400D01*
X105954258Y-68692400D01*
X105944001Y-63677000D01*
X191294839Y-63677000D01*
X191765334Y-111989400D01*
M02*
