M48
; DRILL file {KiCad 5.1.5-52549c5~84~ubuntu18.04.1} date Sun 29 Dec 2019 09:41:52 PM EST
; FORMAT={-:-/ absolute / metric / decimal}
; #@! TF.CreationDate,2019-12-29T21:41:52-05:00
; #@! TF.GenerationSoftware,Kicad,Pcbnew,5.1.5-52549c5~84~ubuntu18.04.1
FMAT,2
METRIC
T1C0.400
T2C0.800
T3C1.000
T4C1.700
T5C2.000
%
G90
G05
T1
X108.179Y-98.958
X108.687Y-78.384
X112.751Y-66.827
X114.148Y-103.403
X121.641Y-103.403
X123.927Y-78.003
X125.959Y-88.036
X128.372Y-103.403
X131.166Y-74.756
X133.198Y-78.511
X133.706Y-105.689
X133.833Y-102.641
X135.103Y-87.909
X135.23Y-99.593
X135.23Y-103.657
X136.754Y-102.793
X138.786Y-93.624
X140.31Y-102.018
X140.564Y-84.861
X140.691Y-66.7
X141.326Y-99.593
X141.593Y-77.749
X141.961Y-103.53
X142.85Y-101.243
X143.612Y-84.721
X143.739Y-79.146
X143.993Y-81.871
X144.374Y-99.593
X144.755Y-81.178
X145.818Y-99.614
X145.898Y-80.797
X146.094Y-82.84
X146.152Y-78.003
X146.179Y-83.925
X146.787Y-80.035
X146.914Y-81.221
X148.819Y-78.892
X148.927Y-86.912
X149.2Y-103.149
X149.894Y-99.593
X149.894Y-100.609
X149.962Y-82.448
X151.669Y-100.966
X152.248Y-92.735
X153.01Y-99.212
X153.264Y-86.639
X154.534Y-99.085
X154.788Y-78.892
X154.788Y-94.767
X155.55Y-95.529
X156.058Y-99.847
X157.074Y-103.403
X158.598Y-88.544
X158.598Y-94.005
X158.725Y-80.797
X160.122Y-94.005
X160.884Y-89.306
X161.519Y-105.562
X162.154Y-99.974
X162.46Y-85.627
X163.551Y-81.305
X163.678Y-83.337
X164.186Y-98.069
X164.186Y-104.673
X166.091Y-84.607
X168.052Y-85.369
X168.758Y-95.275
X169.393Y-66.573
X171.044Y-103.657
X171.298Y-80.797
X174.219Y-82.321
X175.336Y-85.776
X175.362Y-79.273
X177.902Y-103.53
X182.332Y-79.159
X183.49Y-80.797
X185.649Y-103.403
X188.316Y-95.783
T2
X157.36Y-69.367
X159.36Y-69.367
X114.942Y-106.451
X116.942Y-106.451
X108.084Y-106.451
X110.084Y-106.451
X164.472Y-69.367
X166.472Y-69.367
X115.196Y-69.367
X117.196Y-69.367
X142.882Y-106.451
X144.882Y-106.451
X136.024Y-69.367
X138.024Y-69.367
X186.284Y-69.367
X188.284Y-69.367
X143.136Y-69.367
X145.136Y-69.367
X171.584Y-106.451
X173.584Y-106.451
X157.106Y-106.451
X159.106Y-106.451
X122.276Y-69.367
X124.276Y-69.367
X149.994Y-106.451
X151.994Y-106.451
X108.338Y-69.367
X110.338Y-69.367
X171.838Y-69.367
X173.838Y-69.367
X178.823Y-106.451
X180.823Y-106.451
X135.897Y-106.451
X137.897Y-106.451
X128.912Y-106.451
X130.912Y-106.451
X129.166Y-69.367
X131.166Y-69.367
X164.218Y-106.451
X166.218Y-106.451
X186.062Y-106.451
X188.062Y-106.451
X121.927Y-106.451
X123.927Y-106.451
X179.172Y-69.367
X181.172Y-69.367
X150.248Y-69.367
X152.248Y-69.367
T3
X188.697Y-77.051
X188.697Y-79.591
X188.697Y-82.131
X188.697Y-84.671
X188.697Y-87.211
X188.697Y-89.751
X130.277Y-94.386
X132.817Y-94.386
X135.357Y-94.386
X177.807Y-80.321
X177.807Y-82.861
X177.807Y-85.401
X180.347Y-80.321
X180.347Y-82.861
X180.347Y-85.401
T4
X176.577Y-94.386
X183.577Y-94.386
T5
X109.484Y-88.316
T0
M30
