G04 #@! TF.GenerationSoftware,KiCad,Pcbnew,5.1.5-52549c5~84~ubuntu18.04.1*
G04 #@! TF.CreationDate,2020-01-24T11:05:29-05:00*
G04 #@! TF.ProjectId,landfill_board_rev2,6c616e64-6669-46c6-9c5f-626f6172645f,rev?*
G04 #@! TF.SameCoordinates,Original*
G04 #@! TF.FileFunction,Legend,Bot*
G04 #@! TF.FilePolarity,Positive*
%FSLAX46Y46*%
G04 Gerber Fmt 4.6, Leading zero omitted, Abs format (unit mm)*
G04 Created by KiCad (PCBNEW 5.1.5-52549c5~84~ubuntu18.04.1) date 2020-01-24 11:05:29*
%MOMM*%
%LPD*%
G04 APERTURE LIST*
%ADD10C,0.150000*%
%ADD11C,0.010000*%
G04 APERTURE END LIST*
D10*
X65809214Y-143581880D02*
X66285404Y-143581880D01*
X66285404Y-142581880D01*
X65047309Y-143581880D02*
X65047309Y-143058071D01*
X65094928Y-142962833D01*
X65190166Y-142915214D01*
X65380642Y-142915214D01*
X65475880Y-142962833D01*
X65047309Y-143534261D02*
X65142547Y-143581880D01*
X65380642Y-143581880D01*
X65475880Y-143534261D01*
X65523500Y-143439023D01*
X65523500Y-143343785D01*
X65475880Y-143248547D01*
X65380642Y-143200928D01*
X65142547Y-143200928D01*
X65047309Y-143153309D01*
X64571119Y-142915214D02*
X64571119Y-143581880D01*
X64571119Y-143010452D02*
X64523500Y-142962833D01*
X64428261Y-142915214D01*
X64285404Y-142915214D01*
X64190166Y-142962833D01*
X64142547Y-143058071D01*
X64142547Y-143581880D01*
X63237785Y-143581880D02*
X63237785Y-142581880D01*
X63237785Y-143534261D02*
X63333023Y-143581880D01*
X63523500Y-143581880D01*
X63618738Y-143534261D01*
X63666357Y-143486642D01*
X63713976Y-143391404D01*
X63713976Y-143105690D01*
X63666357Y-143010452D01*
X63618738Y-142962833D01*
X63523500Y-142915214D01*
X63333023Y-142915214D01*
X63237785Y-142962833D01*
X62428261Y-143058071D02*
X62761595Y-143058071D01*
X62761595Y-143581880D02*
X62761595Y-142581880D01*
X62285404Y-142581880D01*
X61904452Y-143581880D02*
X61904452Y-142915214D01*
X61904452Y-142581880D02*
X61952071Y-142629500D01*
X61904452Y-142677119D01*
X61856833Y-142629500D01*
X61904452Y-142581880D01*
X61904452Y-142677119D01*
X61285404Y-143581880D02*
X61380642Y-143534261D01*
X61428261Y-143439023D01*
X61428261Y-142581880D01*
X60761595Y-143581880D02*
X60856833Y-143534261D01*
X60904452Y-143439023D01*
X60904452Y-142581880D01*
X59285404Y-143058071D02*
X59142547Y-143105690D01*
X59094928Y-143153309D01*
X59047309Y-143248547D01*
X59047309Y-143391404D01*
X59094928Y-143486642D01*
X59142547Y-143534261D01*
X59237785Y-143581880D01*
X59618738Y-143581880D01*
X59618738Y-142581880D01*
X59285404Y-142581880D01*
X59190166Y-142629500D01*
X59142547Y-142677119D01*
X59094928Y-142772357D01*
X59094928Y-142867595D01*
X59142547Y-142962833D01*
X59190166Y-143010452D01*
X59285404Y-143058071D01*
X59618738Y-143058071D01*
X58475880Y-143581880D02*
X58571119Y-143534261D01*
X58618738Y-143486642D01*
X58666357Y-143391404D01*
X58666357Y-143105690D01*
X58618738Y-143010452D01*
X58571119Y-142962833D01*
X58475880Y-142915214D01*
X58333023Y-142915214D01*
X58237785Y-142962833D01*
X58190166Y-143010452D01*
X58142547Y-143105690D01*
X58142547Y-143391404D01*
X58190166Y-143486642D01*
X58237785Y-143534261D01*
X58333023Y-143581880D01*
X58475880Y-143581880D01*
X57285404Y-143581880D02*
X57285404Y-143058071D01*
X57333023Y-142962833D01*
X57428261Y-142915214D01*
X57618738Y-142915214D01*
X57713976Y-142962833D01*
X57285404Y-143534261D02*
X57380642Y-143581880D01*
X57618738Y-143581880D01*
X57713976Y-143534261D01*
X57761595Y-143439023D01*
X57761595Y-143343785D01*
X57713976Y-143248547D01*
X57618738Y-143200928D01*
X57380642Y-143200928D01*
X57285404Y-143153309D01*
X56809214Y-143581880D02*
X56809214Y-142915214D01*
X56809214Y-143105690D02*
X56761595Y-143010452D01*
X56713976Y-142962833D01*
X56618738Y-142915214D01*
X56523500Y-142915214D01*
X55761595Y-143581880D02*
X55761595Y-142581880D01*
X55761595Y-143534261D02*
X55856833Y-143581880D01*
X56047309Y-143581880D01*
X56142547Y-143534261D01*
X56190166Y-143486642D01*
X56237785Y-143391404D01*
X56237785Y-143105690D01*
X56190166Y-143010452D01*
X56142547Y-142962833D01*
X56047309Y-142915214D01*
X55856833Y-142915214D01*
X55761595Y-142962833D01*
X61999690Y-145231880D02*
X62333023Y-144755690D01*
X62571119Y-145231880D02*
X62571119Y-144231880D01*
X62190166Y-144231880D01*
X62094928Y-144279500D01*
X62047309Y-144327119D01*
X61999690Y-144422357D01*
X61999690Y-144565214D01*
X62047309Y-144660452D01*
X62094928Y-144708071D01*
X62190166Y-144755690D01*
X62571119Y-144755690D01*
X61190166Y-145184261D02*
X61285404Y-145231880D01*
X61475880Y-145231880D01*
X61571119Y-145184261D01*
X61618738Y-145089023D01*
X61618738Y-144708071D01*
X61571119Y-144612833D01*
X61475880Y-144565214D01*
X61285404Y-144565214D01*
X61190166Y-144612833D01*
X61142547Y-144708071D01*
X61142547Y-144803309D01*
X61618738Y-144898547D01*
X60809214Y-144565214D02*
X60571119Y-145231880D01*
X60333023Y-144565214D01*
X60047309Y-144231880D02*
X59428261Y-144231880D01*
X59761595Y-144612833D01*
X59618738Y-144612833D01*
X59523500Y-144660452D01*
X59475880Y-144708071D01*
X59428261Y-144803309D01*
X59428261Y-145041404D01*
X59475880Y-145136642D01*
X59523500Y-145184261D01*
X59618738Y-145231880D01*
X59904452Y-145231880D01*
X59999690Y-145184261D01*
X60047309Y-145136642D01*
X64071095Y-139073500D02*
X64166333Y-139025880D01*
X64309190Y-139025880D01*
X64452047Y-139073500D01*
X64547285Y-139168738D01*
X64594904Y-139263976D01*
X64642523Y-139454452D01*
X64642523Y-139597309D01*
X64594904Y-139787785D01*
X64547285Y-139883023D01*
X64452047Y-139978261D01*
X64309190Y-140025880D01*
X64213952Y-140025880D01*
X64071095Y-139978261D01*
X64023476Y-139930642D01*
X64023476Y-139597309D01*
X64213952Y-139597309D01*
X63594904Y-139930642D02*
X63547285Y-139978261D01*
X63594904Y-140025880D01*
X63642523Y-139978261D01*
X63594904Y-139930642D01*
X63594904Y-140025880D01*
X63166333Y-139978261D02*
X63023476Y-140025880D01*
X62785380Y-140025880D01*
X62690142Y-139978261D01*
X62642523Y-139930642D01*
X62594904Y-139835404D01*
X62594904Y-139740166D01*
X62642523Y-139644928D01*
X62690142Y-139597309D01*
X62785380Y-139549690D01*
X62975857Y-139502071D01*
X63071095Y-139454452D01*
X63118714Y-139406833D01*
X63166333Y-139311595D01*
X63166333Y-139216357D01*
X63118714Y-139121119D01*
X63071095Y-139073500D01*
X62975857Y-139025880D01*
X62737761Y-139025880D01*
X62594904Y-139073500D01*
X62166333Y-139359214D02*
X62166333Y-140359214D01*
X62166333Y-139406833D02*
X62071095Y-139359214D01*
X61880619Y-139359214D01*
X61785380Y-139406833D01*
X61737761Y-139454452D01*
X61690142Y-139549690D01*
X61690142Y-139835404D01*
X61737761Y-139930642D01*
X61785380Y-139978261D01*
X61880619Y-140025880D01*
X62071095Y-140025880D01*
X62166333Y-139978261D01*
X60880619Y-139978261D02*
X60975857Y-140025880D01*
X61166333Y-140025880D01*
X61261571Y-139978261D01*
X61309190Y-139883023D01*
X61309190Y-139502071D01*
X61261571Y-139406833D01*
X61166333Y-139359214D01*
X60975857Y-139359214D01*
X60880619Y-139406833D01*
X60833000Y-139502071D01*
X60833000Y-139597309D01*
X61309190Y-139692547D01*
X59975857Y-140025880D02*
X59975857Y-139502071D01*
X60023476Y-139406833D01*
X60118714Y-139359214D01*
X60309190Y-139359214D01*
X60404428Y-139406833D01*
X59975857Y-139978261D02*
X60071095Y-140025880D01*
X60309190Y-140025880D01*
X60404428Y-139978261D01*
X60452047Y-139883023D01*
X60452047Y-139787785D01*
X60404428Y-139692547D01*
X60309190Y-139644928D01*
X60071095Y-139644928D01*
X59975857Y-139597309D01*
X59499666Y-140025880D02*
X59499666Y-139359214D01*
X59499666Y-139549690D02*
X59452047Y-139454452D01*
X59404428Y-139406833D01*
X59309190Y-139359214D01*
X59213952Y-139359214D01*
X58880619Y-140025880D02*
X58880619Y-139359214D01*
X58880619Y-139025880D02*
X58928238Y-139073500D01*
X58880619Y-139121119D01*
X58833000Y-139073500D01*
X58880619Y-139025880D01*
X58880619Y-139121119D01*
X58404428Y-139359214D02*
X58404428Y-140025880D01*
X58404428Y-139454452D02*
X58356809Y-139406833D01*
X58261571Y-139359214D01*
X58118714Y-139359214D01*
X58023476Y-139406833D01*
X57975857Y-139502071D01*
X57975857Y-140025880D01*
X57071095Y-139359214D02*
X57071095Y-140168738D01*
X57118714Y-140263976D01*
X57166333Y-140311595D01*
X57261571Y-140359214D01*
X57404428Y-140359214D01*
X57499666Y-140311595D01*
X57071095Y-139978261D02*
X57166333Y-140025880D01*
X57356809Y-140025880D01*
X57452047Y-139978261D01*
X57499666Y-139930642D01*
X57547285Y-139835404D01*
X57547285Y-139549690D01*
X57499666Y-139454452D01*
X57452047Y-139406833D01*
X57356809Y-139359214D01*
X57166333Y-139359214D01*
X57071095Y-139406833D01*
X63737761Y-140771119D02*
X63690142Y-140723500D01*
X63594904Y-140675880D01*
X63356809Y-140675880D01*
X63261571Y-140723500D01*
X63213952Y-140771119D01*
X63166333Y-140866357D01*
X63166333Y-140961595D01*
X63213952Y-141104452D01*
X63785380Y-141675880D01*
X63166333Y-141675880D01*
X62547285Y-140675880D02*
X62452047Y-140675880D01*
X62356809Y-140723500D01*
X62309190Y-140771119D01*
X62261571Y-140866357D01*
X62213952Y-141056833D01*
X62213952Y-141294928D01*
X62261571Y-141485404D01*
X62309190Y-141580642D01*
X62356809Y-141628261D01*
X62452047Y-141675880D01*
X62547285Y-141675880D01*
X62642523Y-141628261D01*
X62690142Y-141580642D01*
X62737761Y-141485404D01*
X62785380Y-141294928D01*
X62785380Y-141056833D01*
X62737761Y-140866357D01*
X62690142Y-140771119D01*
X62642523Y-140723500D01*
X62547285Y-140675880D01*
X61785380Y-141580642D02*
X61737761Y-141628261D01*
X61785380Y-141675880D01*
X61833000Y-141628261D01*
X61785380Y-141580642D01*
X61785380Y-141675880D01*
X61118714Y-140675880D02*
X61023476Y-140675880D01*
X60928238Y-140723500D01*
X60880619Y-140771119D01*
X60833000Y-140866357D01*
X60785380Y-141056833D01*
X60785380Y-141294928D01*
X60833000Y-141485404D01*
X60880619Y-141580642D01*
X60928238Y-141628261D01*
X61023476Y-141675880D01*
X61118714Y-141675880D01*
X61213952Y-141628261D01*
X61261571Y-141580642D01*
X61309190Y-141485404D01*
X61356809Y-141294928D01*
X61356809Y-141056833D01*
X61309190Y-140866357D01*
X61261571Y-140771119D01*
X61213952Y-140723500D01*
X61118714Y-140675880D01*
X59833000Y-141675880D02*
X60404428Y-141675880D01*
X60118714Y-141675880D02*
X60118714Y-140675880D01*
X60213952Y-140818738D01*
X60309190Y-140913976D01*
X60404428Y-140961595D01*
X59452047Y-140771119D02*
X59404428Y-140723500D01*
X59309190Y-140675880D01*
X59071095Y-140675880D01*
X58975857Y-140723500D01*
X58928238Y-140771119D01*
X58880619Y-140866357D01*
X58880619Y-140961595D01*
X58928238Y-141104452D01*
X59499666Y-141675880D01*
X58880619Y-141675880D01*
X58547285Y-140675880D02*
X57928238Y-140675880D01*
X58261571Y-141056833D01*
X58118714Y-141056833D01*
X58023476Y-141104452D01*
X57975857Y-141152071D01*
X57928238Y-141247309D01*
X57928238Y-141485404D01*
X57975857Y-141580642D01*
X58023476Y-141628261D01*
X58118714Y-141675880D01*
X58404428Y-141675880D01*
X58499666Y-141628261D01*
X58547285Y-141580642D01*
D11*
G36*
X59541833Y-129899834D02*
G01*
X59584166Y-129942167D01*
X59626500Y-129899834D01*
X59584166Y-129857500D01*
X59541833Y-129899834D01*
G37*
X59541833Y-129899834D02*
X59584166Y-129942167D01*
X59626500Y-129899834D01*
X59584166Y-129857500D01*
X59541833Y-129899834D01*
G36*
X61658500Y-117877167D02*
G01*
X61700833Y-117919500D01*
X61743166Y-117877167D01*
X61700833Y-117834834D01*
X61658500Y-117877167D01*
G37*
X61658500Y-117877167D02*
X61700833Y-117919500D01*
X61743166Y-117877167D01*
X61700833Y-117834834D01*
X61658500Y-117877167D01*
G36*
X58500582Y-117898844D02*
G01*
X58373397Y-117996260D01*
X58356500Y-118048113D01*
X58379005Y-118146330D01*
X58468142Y-118154919D01*
X58656341Y-118072265D01*
X58737500Y-118029147D01*
X58884381Y-117926864D01*
X58895098Y-117860953D01*
X58882033Y-117854937D01*
X58693696Y-117843073D01*
X58500582Y-117898844D01*
G37*
X58500582Y-117898844D02*
X58373397Y-117996260D01*
X58356500Y-118048113D01*
X58379005Y-118146330D01*
X58468142Y-118154919D01*
X58656341Y-118072265D01*
X58737500Y-118029147D01*
X58884381Y-117926864D01*
X58895098Y-117860953D01*
X58882033Y-117854937D01*
X58693696Y-117843073D01*
X58500582Y-117898844D01*
G36*
X62036797Y-117975174D02*
G01*
X62161767Y-118111789D01*
X62439450Y-118302695D01*
X62746060Y-118481090D01*
X63046995Y-118650445D01*
X63311026Y-118802722D01*
X63484611Y-118907004D01*
X63493292Y-118912545D01*
X63625494Y-118985411D01*
X63661840Y-118948937D01*
X63655354Y-118877343D01*
X63578871Y-118777877D01*
X63535066Y-118742182D01*
X63427915Y-118742182D01*
X63343078Y-118724417D01*
X63327015Y-118718390D01*
X63223337Y-118651318D01*
X63222593Y-118613185D01*
X63312158Y-118622682D01*
X63374411Y-118670994D01*
X63427915Y-118742182D01*
X63535066Y-118742182D01*
X63392771Y-118626232D01*
X63134174Y-118445400D01*
X62840199Y-118258370D01*
X62547965Y-118088134D01*
X62294590Y-117957682D01*
X62117194Y-117890004D01*
X62061165Y-117889940D01*
X62036797Y-117975174D01*
G37*
X62036797Y-117975174D02*
X62161767Y-118111789D01*
X62439450Y-118302695D01*
X62746060Y-118481090D01*
X63046995Y-118650445D01*
X63311026Y-118802722D01*
X63484611Y-118907004D01*
X63493292Y-118912545D01*
X63625494Y-118985411D01*
X63661840Y-118948937D01*
X63655354Y-118877343D01*
X63578871Y-118777877D01*
X63535066Y-118742182D01*
X63427915Y-118742182D01*
X63343078Y-118724417D01*
X63327015Y-118718390D01*
X63223337Y-118651318D01*
X63222593Y-118613185D01*
X63312158Y-118622682D01*
X63374411Y-118670994D01*
X63427915Y-118742182D01*
X63535066Y-118742182D01*
X63392771Y-118626232D01*
X63134174Y-118445400D01*
X62840199Y-118258370D01*
X62547965Y-118088134D01*
X62294590Y-117957682D01*
X62117194Y-117890004D01*
X62061165Y-117889940D01*
X62036797Y-117975174D01*
G36*
X60269866Y-118393895D02*
G01*
X60285009Y-118566495D01*
X60433009Y-118748102D01*
X60584501Y-118912563D01*
X60603199Y-118995492D01*
X60488658Y-118986914D01*
X60442951Y-118970768D01*
X60322888Y-118857742D01*
X60303833Y-118782508D01*
X60277927Y-118697466D01*
X60208272Y-118743195D01*
X60170260Y-118852489D01*
X60253741Y-119016164D01*
X60291785Y-119066413D01*
X60398234Y-119242977D01*
X60420919Y-119372576D01*
X60416598Y-119381867D01*
X60417340Y-119429429D01*
X60454234Y-119412867D01*
X60572420Y-119414367D01*
X60600166Y-119443500D01*
X60701574Y-119493775D01*
X60733017Y-119482218D01*
X60788221Y-119518618D01*
X60811821Y-119674093D01*
X60811833Y-119678392D01*
X60851140Y-119873836D01*
X60940022Y-119923278D01*
X61021230Y-119886679D01*
X61031844Y-119750507D01*
X61012492Y-119626267D01*
X60941286Y-119402292D01*
X60808179Y-119100651D01*
X60642037Y-118786738D01*
X60474342Y-118511659D01*
X60364965Y-118372119D01*
X60298087Y-118351418D01*
X60269866Y-118393895D01*
G37*
X60269866Y-118393895D02*
X60285009Y-118566495D01*
X60433009Y-118748102D01*
X60584501Y-118912563D01*
X60603199Y-118995492D01*
X60488658Y-118986914D01*
X60442951Y-118970768D01*
X60322888Y-118857742D01*
X60303833Y-118782508D01*
X60277927Y-118697466D01*
X60208272Y-118743195D01*
X60170260Y-118852489D01*
X60253741Y-119016164D01*
X60291785Y-119066413D01*
X60398234Y-119242977D01*
X60420919Y-119372576D01*
X60416598Y-119381867D01*
X60417340Y-119429429D01*
X60454234Y-119412867D01*
X60572420Y-119414367D01*
X60600166Y-119443500D01*
X60701574Y-119493775D01*
X60733017Y-119482218D01*
X60788221Y-119518618D01*
X60811821Y-119674093D01*
X60811833Y-119678392D01*
X60851140Y-119873836D01*
X60940022Y-119923278D01*
X61021230Y-119886679D01*
X61031844Y-119750507D01*
X61012492Y-119626267D01*
X60941286Y-119402292D01*
X60808179Y-119100651D01*
X60642037Y-118786738D01*
X60474342Y-118511659D01*
X60364965Y-118372119D01*
X60298087Y-118351418D01*
X60269866Y-118393895D01*
G36*
X58181686Y-118047665D02*
G01*
X58081333Y-118109270D01*
X57947977Y-118190699D01*
X57687302Y-118344808D01*
X57318973Y-118560198D01*
X56862656Y-118825473D01*
X56338019Y-119129235D01*
X55764727Y-119460086D01*
X55162447Y-119806630D01*
X54550844Y-120157469D01*
X54256957Y-120325641D01*
X53938407Y-120514551D01*
X53679936Y-120680626D01*
X53514366Y-120802028D01*
X53471439Y-120848350D01*
X53491134Y-120932140D01*
X53641006Y-120912994D01*
X53922097Y-120790539D01*
X54335450Y-120564404D01*
X54441764Y-120502168D01*
X54919054Y-120221392D01*
X55448088Y-119912281D01*
X55997322Y-119593064D01*
X56535210Y-119281974D01*
X57030209Y-118997243D01*
X57450774Y-118757101D01*
X57765361Y-118579781D01*
X57827247Y-118545476D01*
X58119792Y-118355516D01*
X58260174Y-118194169D01*
X58271747Y-118142596D01*
X58256976Y-118038121D01*
X58181686Y-118047665D01*
G37*
X58181686Y-118047665D02*
X58081333Y-118109270D01*
X57947977Y-118190699D01*
X57687302Y-118344808D01*
X57318973Y-118560198D01*
X56862656Y-118825473D01*
X56338019Y-119129235D01*
X55764727Y-119460086D01*
X55162447Y-119806630D01*
X54550844Y-120157469D01*
X54256957Y-120325641D01*
X53938407Y-120514551D01*
X53679936Y-120680626D01*
X53514366Y-120802028D01*
X53471439Y-120848350D01*
X53491134Y-120932140D01*
X53641006Y-120912994D01*
X53922097Y-120790539D01*
X54335450Y-120564404D01*
X54441764Y-120502168D01*
X54919054Y-120221392D01*
X55448088Y-119912281D01*
X55997322Y-119593064D01*
X56535210Y-119281974D01*
X57030209Y-118997243D01*
X57450774Y-118757101D01*
X57765361Y-118579781D01*
X57827247Y-118545476D01*
X58119792Y-118355516D01*
X58260174Y-118194169D01*
X58271747Y-118142596D01*
X58256976Y-118038121D01*
X58181686Y-118047665D01*
G36*
X52978428Y-121059746D02*
G01*
X52829634Y-121165878D01*
X52767075Y-121261717D01*
X52803722Y-121358649D01*
X52933680Y-121345269D01*
X53115516Y-121231572D01*
X53237444Y-121098795D01*
X53254633Y-121002668D01*
X53251911Y-120999588D01*
X53142616Y-120991649D01*
X52978428Y-121059746D01*
G37*
X52978428Y-121059746D02*
X52829634Y-121165878D01*
X52767075Y-121261717D01*
X52803722Y-121358649D01*
X52933680Y-121345269D01*
X53115516Y-121231572D01*
X53237444Y-121098795D01*
X53254633Y-121002668D01*
X53251911Y-120999588D01*
X53142616Y-120991649D01*
X52978428Y-121059746D01*
G36*
X66149411Y-121381831D02*
G01*
X66194519Y-121473386D01*
X66330934Y-121505162D01*
X66398168Y-121476529D01*
X66472695Y-121406576D01*
X66392045Y-121350215D01*
X66372642Y-121342595D01*
X66217063Y-121322131D01*
X66149411Y-121381831D01*
G37*
X66149411Y-121381831D02*
X66194519Y-121473386D01*
X66330934Y-121505162D01*
X66398168Y-121476529D01*
X66472695Y-121406576D01*
X66392045Y-121350215D01*
X66372642Y-121342595D01*
X66217063Y-121322131D01*
X66149411Y-121381831D01*
G36*
X52403935Y-121407601D02*
G01*
X52307387Y-121536498D01*
X52275400Y-121661155D01*
X52332340Y-121683598D01*
X52503164Y-121609179D01*
X52545004Y-121587448D01*
X52701407Y-121473356D01*
X52708039Y-121381183D01*
X52707328Y-121380462D01*
X52564801Y-121337886D01*
X52403935Y-121407601D01*
G37*
X52403935Y-121407601D02*
X52307387Y-121536498D01*
X52275400Y-121661155D01*
X52332340Y-121683598D01*
X52503164Y-121609179D01*
X52545004Y-121587448D01*
X52701407Y-121473356D01*
X52708039Y-121381183D01*
X52707328Y-121380462D01*
X52564801Y-121337886D01*
X52403935Y-121407601D01*
G36*
X51534287Y-121943838D02*
G01*
X51548918Y-121996582D01*
X51559025Y-122054415D01*
X51510037Y-122032964D01*
X51381912Y-122035408D01*
X51182251Y-122116013D01*
X51111984Y-122156243D01*
X50939518Y-122273779D01*
X50853182Y-122389256D01*
X50826761Y-122562792D01*
X50831752Y-122798909D01*
X50862331Y-123078631D01*
X50920550Y-123285890D01*
X50962725Y-123350249D01*
X51025096Y-123372667D01*
X51059796Y-123291957D01*
X51073775Y-123081682D01*
X51075166Y-122922543D01*
X51088151Y-122603599D01*
X51131514Y-122422536D01*
X51201680Y-122352971D01*
X51283561Y-122267176D01*
X51273265Y-122215547D01*
X51273130Y-122166635D01*
X51308444Y-122182360D01*
X51476274Y-122201614D01*
X51640903Y-122109944D01*
X51700963Y-122019287D01*
X51681062Y-121914968D01*
X51617846Y-121898834D01*
X51534287Y-121943838D01*
G37*
X51534287Y-121943838D02*
X51548918Y-121996582D01*
X51559025Y-122054415D01*
X51510037Y-122032964D01*
X51381912Y-122035408D01*
X51182251Y-122116013D01*
X51111984Y-122156243D01*
X50939518Y-122273779D01*
X50853182Y-122389256D01*
X50826761Y-122562792D01*
X50831752Y-122798909D01*
X50862331Y-123078631D01*
X50920550Y-123285890D01*
X50962725Y-123350249D01*
X51025096Y-123372667D01*
X51059796Y-123291957D01*
X51073775Y-123081682D01*
X51075166Y-122922543D01*
X51088151Y-122603599D01*
X51131514Y-122422536D01*
X51201680Y-122352971D01*
X51283561Y-122267176D01*
X51273265Y-122215547D01*
X51273130Y-122166635D01*
X51308444Y-122182360D01*
X51476274Y-122201614D01*
X51640903Y-122109944D01*
X51700963Y-122019287D01*
X51681062Y-121914968D01*
X51617846Y-121898834D01*
X51534287Y-121943838D01*
G36*
X51667833Y-124396500D02*
G01*
X51710166Y-124438834D01*
X51752500Y-124396500D01*
X51710166Y-124354167D01*
X51667833Y-124396500D01*
G37*
X51667833Y-124396500D02*
X51710166Y-124438834D01*
X51752500Y-124396500D01*
X51710166Y-124354167D01*
X51667833Y-124396500D01*
G36*
X51018722Y-124975056D02*
G01*
X51008589Y-125075535D01*
X51018722Y-125087945D01*
X51069056Y-125076322D01*
X51075166Y-125031500D01*
X51044188Y-124961810D01*
X51018722Y-124975056D01*
G37*
X51018722Y-124975056D02*
X51008589Y-125075535D01*
X51018722Y-125087945D01*
X51069056Y-125076322D01*
X51075166Y-125031500D01*
X51044188Y-124961810D01*
X51018722Y-124975056D01*
G36*
X51667833Y-125497167D02*
G01*
X51710166Y-125539500D01*
X51752500Y-125497167D01*
X51710166Y-125454834D01*
X51667833Y-125497167D01*
G37*
X51667833Y-125497167D02*
X51710166Y-125539500D01*
X51752500Y-125497167D01*
X51710166Y-125454834D01*
X51667833Y-125497167D01*
G36*
X50990500Y-125581834D02*
G01*
X51032833Y-125624167D01*
X51075166Y-125581834D01*
X51032833Y-125539500D01*
X50990500Y-125581834D01*
G37*
X50990500Y-125581834D02*
X51032833Y-125624167D01*
X51075166Y-125581834D01*
X51032833Y-125539500D01*
X50990500Y-125581834D01*
G36*
X50851006Y-125819447D02*
G01*
X50821166Y-125920500D01*
X50866416Y-126062872D01*
X50960605Y-126070701D01*
X51034468Y-125957682D01*
X51061550Y-125798752D01*
X51046197Y-125736308D01*
X50947528Y-125727952D01*
X50851006Y-125819447D01*
G37*
X50851006Y-125819447D02*
X50821166Y-125920500D01*
X50866416Y-126062872D01*
X50960605Y-126070701D01*
X51034468Y-125957682D01*
X51061550Y-125798752D01*
X51046197Y-125736308D01*
X50947528Y-125727952D01*
X50851006Y-125819447D01*
G36*
X59536305Y-118326616D02*
G01*
X59347363Y-118410662D01*
X59135635Y-118532440D01*
X58956904Y-118659287D01*
X58866957Y-118758538D01*
X58864500Y-118770966D01*
X58812687Y-118832395D01*
X58796978Y-118829667D01*
X58681786Y-118854129D01*
X58470178Y-118945354D01*
X58203853Y-119080180D01*
X57924508Y-119235441D01*
X57673840Y-119387973D01*
X57493547Y-119514613D01*
X57425315Y-119591667D01*
X57354784Y-119678624D01*
X57262084Y-119697500D01*
X57143689Y-119738145D01*
X56909146Y-119851232D01*
X56581267Y-120023489D01*
X56182865Y-120241644D01*
X55736753Y-120492425D01*
X55265743Y-120762560D01*
X54792649Y-121038777D01*
X54340281Y-121307804D01*
X53931454Y-121556370D01*
X53588979Y-121771201D01*
X53335669Y-121939026D01*
X53194337Y-122046574D01*
X53172764Y-122076599D01*
X53143740Y-122126721D01*
X53111644Y-122113268D01*
X53002617Y-122127583D01*
X52791765Y-122213184D01*
X52521366Y-122352435D01*
X52474546Y-122379008D01*
X52139343Y-122585063D01*
X51956771Y-122729506D01*
X51928152Y-122811050D01*
X52011497Y-122830167D01*
X52064755Y-122880602D01*
X52054225Y-122906109D01*
X52075379Y-122999413D01*
X52157229Y-123228704D01*
X52292138Y-123575036D01*
X52472469Y-124019462D01*
X52690583Y-124543035D01*
X52938846Y-125126810D01*
X53098184Y-125495985D01*
X54189076Y-128009920D01*
X54651650Y-127219210D01*
X55121869Y-126414389D01*
X53840944Y-126414389D01*
X53829322Y-126464723D01*
X53784500Y-126470834D01*
X53714810Y-126439855D01*
X53728055Y-126414389D01*
X53828535Y-126404256D01*
X53840944Y-126414389D01*
X55121869Y-126414389D01*
X55147561Y-126370416D01*
X55239807Y-126211837D01*
X53699833Y-126211837D01*
X53638373Y-126298055D01*
X53615166Y-126301500D01*
X53532701Y-126272613D01*
X53530500Y-126264164D01*
X53589829Y-126191878D01*
X53615166Y-126174500D01*
X53693185Y-126181213D01*
X53699833Y-126211837D01*
X55239807Y-126211837D01*
X55563558Y-125655287D01*
X55607391Y-125579324D01*
X53494947Y-125579324D01*
X53488166Y-125624167D01*
X53415746Y-125704849D01*
X53403500Y-125708834D01*
X53336186Y-125649782D01*
X53318833Y-125624167D01*
X53338939Y-125552438D01*
X53403500Y-125539500D01*
X53494947Y-125579324D01*
X55607391Y-125579324D01*
X55906026Y-125061795D01*
X56091873Y-124735167D01*
X55985833Y-124735167D01*
X55943500Y-124777500D01*
X55901166Y-124735167D01*
X55943500Y-124692834D01*
X55985833Y-124735167D01*
X56091873Y-124735167D01*
X56181348Y-124577914D01*
X56188057Y-124565834D01*
X56070500Y-124565834D01*
X56028166Y-124608167D01*
X55985833Y-124565834D01*
X56028166Y-124523500D01*
X56070500Y-124565834D01*
X56188057Y-124565834D01*
X56395909Y-124191615D01*
X56422069Y-124142500D01*
X55731833Y-124142500D01*
X55689500Y-124184834D01*
X55647166Y-124142500D01*
X55689500Y-124100167D01*
X55731833Y-124142500D01*
X56422069Y-124142500D01*
X56556094Y-123890871D01*
X56633843Y-123733409D01*
X56065133Y-123733409D01*
X56046445Y-123876960D01*
X55995992Y-124015950D01*
X55942029Y-124078557D01*
X55931221Y-124073777D01*
X55933514Y-123979701D01*
X55962418Y-123888500D01*
X53699833Y-123888500D01*
X53657500Y-123930834D01*
X53615166Y-123888500D01*
X53657500Y-123846167D01*
X53699833Y-123888500D01*
X55962418Y-123888500D01*
X55978648Y-123837292D01*
X56038702Y-123721727D01*
X56065133Y-123733409D01*
X56633843Y-123733409D01*
X56661778Y-123676834D01*
X55901166Y-123676834D01*
X55870188Y-123746524D01*
X55844722Y-123733278D01*
X55839030Y-123676834D01*
X55731833Y-123676834D01*
X55700855Y-123746524D01*
X55675389Y-123733278D01*
X55672543Y-123705056D01*
X53756278Y-123705056D01*
X53744655Y-123755390D01*
X53699833Y-123761500D01*
X53630143Y-123730522D01*
X53643389Y-123705056D01*
X53743868Y-123694923D01*
X53756278Y-123705056D01*
X55672543Y-123705056D01*
X55665256Y-123632798D01*
X55675389Y-123620389D01*
X55725723Y-123632011D01*
X55731833Y-123676834D01*
X55839030Y-123676834D01*
X55834589Y-123632798D01*
X55844722Y-123620389D01*
X55895056Y-123632011D01*
X55901166Y-123676834D01*
X56661778Y-123676834D01*
X56668286Y-123663655D01*
X56738870Y-123497939D01*
X56754334Y-123447103D01*
X55379519Y-123447103D01*
X55358918Y-123494418D01*
X55273668Y-123585312D01*
X55224657Y-123566666D01*
X55223833Y-123554830D01*
X55283970Y-123483218D01*
X55321582Y-123457082D01*
X55379519Y-123447103D01*
X56754334Y-123447103D01*
X56774231Y-123381695D01*
X56774329Y-123380500D01*
X55985833Y-123380500D01*
X55943500Y-123422834D01*
X55929294Y-123408628D01*
X54068549Y-123408628D01*
X54012672Y-123558080D01*
X53934267Y-123665619D01*
X53906425Y-123676834D01*
X53850447Y-123607181D01*
X53776452Y-123444000D01*
X53717184Y-123267708D01*
X53707021Y-123211167D01*
X53445833Y-123211167D01*
X53403500Y-123253500D01*
X53361166Y-123211167D01*
X53403500Y-123168834D01*
X53445833Y-123211167D01*
X53707021Y-123211167D01*
X53701113Y-123178300D01*
X53653401Y-123111824D01*
X53601231Y-123073763D01*
X53544205Y-123016086D01*
X53636333Y-123000797D01*
X53761580Y-123067945D01*
X53784500Y-123163837D01*
X53829755Y-123330260D01*
X53882248Y-123388585D01*
X53940185Y-123398564D01*
X53919585Y-123351249D01*
X53914368Y-123266511D01*
X53999083Y-123262605D01*
X54063743Y-123306966D01*
X54068549Y-123408628D01*
X55929294Y-123408628D01*
X55901166Y-123380500D01*
X55943500Y-123338167D01*
X55985833Y-123380500D01*
X56774329Y-123380500D01*
X56780753Y-123302896D01*
X56778646Y-123295834D01*
X55562500Y-123295834D01*
X55520166Y-123338167D01*
X55477833Y-123295834D01*
X55520166Y-123253500D01*
X55562500Y-123295834D01*
X56778646Y-123295834D01*
X56764820Y-123249515D01*
X56761655Y-123244169D01*
X56697022Y-123119445D01*
X56063816Y-123119445D01*
X56048249Y-123229259D01*
X56019347Y-123230570D01*
X55999136Y-123117253D01*
X56012663Y-123068292D01*
X56043679Y-123041834D01*
X54038500Y-123041834D01*
X53996166Y-123084167D01*
X53953833Y-123041834D01*
X53996166Y-122999500D01*
X54038500Y-123041834D01*
X56043679Y-123041834D01*
X56050258Y-123036222D01*
X56063816Y-123119445D01*
X56697022Y-123119445D01*
X56673587Y-123074224D01*
X56688967Y-123022886D01*
X56804080Y-123100423D01*
X56811333Y-123106915D01*
X56859998Y-123138643D01*
X56914312Y-123134824D01*
X56984702Y-123080417D01*
X57081596Y-122960381D01*
X57140192Y-122872500D01*
X56155166Y-122872500D01*
X56112833Y-122914834D01*
X56070500Y-122872500D01*
X56112833Y-122830167D01*
X56155166Y-122872500D01*
X57140192Y-122872500D01*
X57215421Y-122759675D01*
X57396509Y-122463409D01*
X56657800Y-122463409D01*
X56639112Y-122606960D01*
X56588658Y-122745950D01*
X56534696Y-122808557D01*
X56523888Y-122803777D01*
X56526180Y-122709701D01*
X56571314Y-122567292D01*
X56631368Y-122451727D01*
X56657800Y-122463409D01*
X57396509Y-122463409D01*
X57396602Y-122463258D01*
X57504252Y-122279834D01*
X56747833Y-122279834D01*
X56705500Y-122322167D01*
X56663166Y-122279834D01*
X56705500Y-122237500D01*
X56747833Y-122279834D01*
X57504252Y-122279834D01*
X57567255Y-122172483D01*
X56372372Y-122172483D01*
X56372310Y-122271512D01*
X56313916Y-122438584D01*
X56222185Y-122602796D01*
X56179060Y-122614857D01*
X56184862Y-122576167D01*
X54377166Y-122576167D01*
X54346188Y-122645857D01*
X54320722Y-122632611D01*
X54319935Y-122624805D01*
X54068959Y-122624805D01*
X54020671Y-122694627D01*
X53909470Y-122780496D01*
X53896008Y-122769769D01*
X53516852Y-122769769D01*
X53496251Y-122817085D01*
X53411001Y-122907979D01*
X53361991Y-122889333D01*
X53361166Y-122877497D01*
X53421303Y-122805884D01*
X53458915Y-122779749D01*
X53516852Y-122769769D01*
X53896008Y-122769769D01*
X53871642Y-122750354D01*
X53892103Y-122703167D01*
X53784500Y-122703167D01*
X53742166Y-122745500D01*
X53699833Y-122703167D01*
X53742166Y-122660834D01*
X53784500Y-122703167D01*
X53892103Y-122703167D01*
X53908018Y-122666466D01*
X53969545Y-122618500D01*
X53445833Y-122618500D01*
X53403500Y-122660834D01*
X53361166Y-122618500D01*
X53403500Y-122576167D01*
X53445833Y-122618500D01*
X53969545Y-122618500D01*
X54017980Y-122580741D01*
X54046835Y-122576167D01*
X54068959Y-122624805D01*
X54319935Y-122624805D01*
X54310589Y-122532132D01*
X54320722Y-122519722D01*
X54371056Y-122531345D01*
X54377166Y-122576167D01*
X56184862Y-122576167D01*
X56198045Y-122488272D01*
X56203789Y-122471258D01*
X54086445Y-122471258D01*
X54003222Y-122484816D01*
X53893408Y-122469249D01*
X53892097Y-122440347D01*
X54005414Y-122420136D01*
X54054375Y-122433663D01*
X54086445Y-122471258D01*
X56203789Y-122471258D01*
X56222166Y-122416827D01*
X53361166Y-122416827D01*
X53309001Y-122462730D01*
X53276500Y-122449167D01*
X53194994Y-122337008D01*
X53191833Y-122312173D01*
X53243999Y-122266270D01*
X53276500Y-122279834D01*
X53358006Y-122391993D01*
X53361166Y-122416827D01*
X56222166Y-122416827D01*
X56239833Y-122364500D01*
X56281530Y-122279834D01*
X55647166Y-122279834D01*
X55604833Y-122322167D01*
X55562500Y-122279834D01*
X55604833Y-122237500D01*
X55647166Y-122279834D01*
X56281530Y-122279834D01*
X56314720Y-122212444D01*
X56338728Y-122195167D01*
X54038500Y-122195167D01*
X53996166Y-122237500D01*
X53953833Y-122195167D01*
X53996166Y-122152834D01*
X54038500Y-122195167D01*
X56338728Y-122195167D01*
X56371442Y-122171625D01*
X56372372Y-122172483D01*
X57567255Y-122172483D01*
X57635567Y-122056089D01*
X57677404Y-121983500D01*
X56832500Y-121983500D01*
X56801522Y-122053190D01*
X56776055Y-122039945D01*
X56770363Y-121983500D01*
X56493833Y-121983500D01*
X56462855Y-122053190D01*
X56437389Y-122039945D01*
X56435967Y-122025834D01*
X53530500Y-122025834D01*
X53488166Y-122068167D01*
X53445833Y-122025834D01*
X53488166Y-121983500D01*
X53530500Y-122025834D01*
X56435967Y-122025834D01*
X56427428Y-121941167D01*
X53953833Y-121941167D01*
X53911500Y-121983500D01*
X53869166Y-121941167D01*
X53911500Y-121898834D01*
X53953833Y-121941167D01*
X56427428Y-121941167D01*
X56427256Y-121939465D01*
X56437389Y-121927056D01*
X56487723Y-121938678D01*
X56493833Y-121983500D01*
X56770363Y-121983500D01*
X56765922Y-121939465D01*
X56776055Y-121927056D01*
X56826390Y-121938678D01*
X56832500Y-121983500D01*
X57677404Y-121983500D01*
X57942744Y-121523126D01*
X58102500Y-121244367D01*
X58235618Y-121009834D01*
X56663166Y-121009834D01*
X56620833Y-121052167D01*
X56578500Y-121009834D01*
X56620833Y-120967500D01*
X56663166Y-121009834D01*
X58235618Y-121009834D01*
X58403620Y-120713844D01*
X58482438Y-120572389D01*
X56042278Y-120572389D01*
X56030655Y-120622723D01*
X55985833Y-120628834D01*
X55916143Y-120597855D01*
X55929389Y-120572389D01*
X56029868Y-120562256D01*
X56042278Y-120572389D01*
X58482438Y-120572389D01*
X58674204Y-120228226D01*
X58903410Y-119807696D01*
X59028627Y-119570500D01*
X58187166Y-119570500D01*
X58144833Y-119612834D01*
X58102500Y-119570500D01*
X58144833Y-119528167D01*
X57933166Y-119528167D01*
X57904280Y-119610632D01*
X57895830Y-119612834D01*
X57823544Y-119553505D01*
X57806166Y-119528167D01*
X57812879Y-119450148D01*
X57843503Y-119443500D01*
X57929721Y-119504961D01*
X57933166Y-119528167D01*
X58144833Y-119528167D01*
X58187166Y-119570500D01*
X59028627Y-119570500D01*
X59080397Y-119472435D01*
X59157700Y-119316500D01*
X58187166Y-119316500D01*
X58144833Y-119358834D01*
X58102500Y-119316500D01*
X58144833Y-119274167D01*
X58187166Y-119316500D01*
X59157700Y-119316500D01*
X59194323Y-119242625D01*
X59216653Y-119184503D01*
X58525833Y-119184503D01*
X58464373Y-119270721D01*
X58441166Y-119274167D01*
X58358701Y-119245280D01*
X58356500Y-119236830D01*
X58415829Y-119164544D01*
X58441166Y-119147167D01*
X58519185Y-119153880D01*
X58525833Y-119184503D01*
X59216653Y-119184503D01*
X59234348Y-119138449D01*
X59234294Y-119137484D01*
X59274113Y-119047479D01*
X59309362Y-119044654D01*
X59343505Y-119020167D01*
X58906833Y-119020167D01*
X58900120Y-119098186D01*
X58869497Y-119104834D01*
X58783279Y-119043373D01*
X58779833Y-119020167D01*
X58808720Y-118937701D01*
X58817170Y-118935500D01*
X58889456Y-118994829D01*
X58906833Y-119020167D01*
X59343505Y-119020167D01*
X59390701Y-118986319D01*
X59462860Y-118824254D01*
X59468832Y-118808500D01*
X59287833Y-118808500D01*
X59245500Y-118850834D01*
X59203166Y-118808500D01*
X59245500Y-118766167D01*
X59287833Y-118808500D01*
X59468832Y-118808500D01*
X59544602Y-118608632D01*
X59624736Y-118471958D01*
X59670801Y-118354918D01*
X59646674Y-118312968D01*
X59536305Y-118326616D01*
G37*
X59536305Y-118326616D02*
X59347363Y-118410662D01*
X59135635Y-118532440D01*
X58956904Y-118659287D01*
X58866957Y-118758538D01*
X58864500Y-118770966D01*
X58812687Y-118832395D01*
X58796978Y-118829667D01*
X58681786Y-118854129D01*
X58470178Y-118945354D01*
X58203853Y-119080180D01*
X57924508Y-119235441D01*
X57673840Y-119387973D01*
X57493547Y-119514613D01*
X57425315Y-119591667D01*
X57354784Y-119678624D01*
X57262084Y-119697500D01*
X57143689Y-119738145D01*
X56909146Y-119851232D01*
X56581267Y-120023489D01*
X56182865Y-120241644D01*
X55736753Y-120492425D01*
X55265743Y-120762560D01*
X54792649Y-121038777D01*
X54340281Y-121307804D01*
X53931454Y-121556370D01*
X53588979Y-121771201D01*
X53335669Y-121939026D01*
X53194337Y-122046574D01*
X53172764Y-122076599D01*
X53143740Y-122126721D01*
X53111644Y-122113268D01*
X53002617Y-122127583D01*
X52791765Y-122213184D01*
X52521366Y-122352435D01*
X52474546Y-122379008D01*
X52139343Y-122585063D01*
X51956771Y-122729506D01*
X51928152Y-122811050D01*
X52011497Y-122830167D01*
X52064755Y-122880602D01*
X52054225Y-122906109D01*
X52075379Y-122999413D01*
X52157229Y-123228704D01*
X52292138Y-123575036D01*
X52472469Y-124019462D01*
X52690583Y-124543035D01*
X52938846Y-125126810D01*
X53098184Y-125495985D01*
X54189076Y-128009920D01*
X54651650Y-127219210D01*
X55121869Y-126414389D01*
X53840944Y-126414389D01*
X53829322Y-126464723D01*
X53784500Y-126470834D01*
X53714810Y-126439855D01*
X53728055Y-126414389D01*
X53828535Y-126404256D01*
X53840944Y-126414389D01*
X55121869Y-126414389D01*
X55147561Y-126370416D01*
X55239807Y-126211837D01*
X53699833Y-126211837D01*
X53638373Y-126298055D01*
X53615166Y-126301500D01*
X53532701Y-126272613D01*
X53530500Y-126264164D01*
X53589829Y-126191878D01*
X53615166Y-126174500D01*
X53693185Y-126181213D01*
X53699833Y-126211837D01*
X55239807Y-126211837D01*
X55563558Y-125655287D01*
X55607391Y-125579324D01*
X53494947Y-125579324D01*
X53488166Y-125624167D01*
X53415746Y-125704849D01*
X53403500Y-125708834D01*
X53336186Y-125649782D01*
X53318833Y-125624167D01*
X53338939Y-125552438D01*
X53403500Y-125539500D01*
X53494947Y-125579324D01*
X55607391Y-125579324D01*
X55906026Y-125061795D01*
X56091873Y-124735167D01*
X55985833Y-124735167D01*
X55943500Y-124777500D01*
X55901166Y-124735167D01*
X55943500Y-124692834D01*
X55985833Y-124735167D01*
X56091873Y-124735167D01*
X56181348Y-124577914D01*
X56188057Y-124565834D01*
X56070500Y-124565834D01*
X56028166Y-124608167D01*
X55985833Y-124565834D01*
X56028166Y-124523500D01*
X56070500Y-124565834D01*
X56188057Y-124565834D01*
X56395909Y-124191615D01*
X56422069Y-124142500D01*
X55731833Y-124142500D01*
X55689500Y-124184834D01*
X55647166Y-124142500D01*
X55689500Y-124100167D01*
X55731833Y-124142500D01*
X56422069Y-124142500D01*
X56556094Y-123890871D01*
X56633843Y-123733409D01*
X56065133Y-123733409D01*
X56046445Y-123876960D01*
X55995992Y-124015950D01*
X55942029Y-124078557D01*
X55931221Y-124073777D01*
X55933514Y-123979701D01*
X55962418Y-123888500D01*
X53699833Y-123888500D01*
X53657500Y-123930834D01*
X53615166Y-123888500D01*
X53657500Y-123846167D01*
X53699833Y-123888500D01*
X55962418Y-123888500D01*
X55978648Y-123837292D01*
X56038702Y-123721727D01*
X56065133Y-123733409D01*
X56633843Y-123733409D01*
X56661778Y-123676834D01*
X55901166Y-123676834D01*
X55870188Y-123746524D01*
X55844722Y-123733278D01*
X55839030Y-123676834D01*
X55731833Y-123676834D01*
X55700855Y-123746524D01*
X55675389Y-123733278D01*
X55672543Y-123705056D01*
X53756278Y-123705056D01*
X53744655Y-123755390D01*
X53699833Y-123761500D01*
X53630143Y-123730522D01*
X53643389Y-123705056D01*
X53743868Y-123694923D01*
X53756278Y-123705056D01*
X55672543Y-123705056D01*
X55665256Y-123632798D01*
X55675389Y-123620389D01*
X55725723Y-123632011D01*
X55731833Y-123676834D01*
X55839030Y-123676834D01*
X55834589Y-123632798D01*
X55844722Y-123620389D01*
X55895056Y-123632011D01*
X55901166Y-123676834D01*
X56661778Y-123676834D01*
X56668286Y-123663655D01*
X56738870Y-123497939D01*
X56754334Y-123447103D01*
X55379519Y-123447103D01*
X55358918Y-123494418D01*
X55273668Y-123585312D01*
X55224657Y-123566666D01*
X55223833Y-123554830D01*
X55283970Y-123483218D01*
X55321582Y-123457082D01*
X55379519Y-123447103D01*
X56754334Y-123447103D01*
X56774231Y-123381695D01*
X56774329Y-123380500D01*
X55985833Y-123380500D01*
X55943500Y-123422834D01*
X55929294Y-123408628D01*
X54068549Y-123408628D01*
X54012672Y-123558080D01*
X53934267Y-123665619D01*
X53906425Y-123676834D01*
X53850447Y-123607181D01*
X53776452Y-123444000D01*
X53717184Y-123267708D01*
X53707021Y-123211167D01*
X53445833Y-123211167D01*
X53403500Y-123253500D01*
X53361166Y-123211167D01*
X53403500Y-123168834D01*
X53445833Y-123211167D01*
X53707021Y-123211167D01*
X53701113Y-123178300D01*
X53653401Y-123111824D01*
X53601231Y-123073763D01*
X53544205Y-123016086D01*
X53636333Y-123000797D01*
X53761580Y-123067945D01*
X53784500Y-123163837D01*
X53829755Y-123330260D01*
X53882248Y-123388585D01*
X53940185Y-123398564D01*
X53919585Y-123351249D01*
X53914368Y-123266511D01*
X53999083Y-123262605D01*
X54063743Y-123306966D01*
X54068549Y-123408628D01*
X55929294Y-123408628D01*
X55901166Y-123380500D01*
X55943500Y-123338167D01*
X55985833Y-123380500D01*
X56774329Y-123380500D01*
X56780753Y-123302896D01*
X56778646Y-123295834D01*
X55562500Y-123295834D01*
X55520166Y-123338167D01*
X55477833Y-123295834D01*
X55520166Y-123253500D01*
X55562500Y-123295834D01*
X56778646Y-123295834D01*
X56764820Y-123249515D01*
X56761655Y-123244169D01*
X56697022Y-123119445D01*
X56063816Y-123119445D01*
X56048249Y-123229259D01*
X56019347Y-123230570D01*
X55999136Y-123117253D01*
X56012663Y-123068292D01*
X56043679Y-123041834D01*
X54038500Y-123041834D01*
X53996166Y-123084167D01*
X53953833Y-123041834D01*
X53996166Y-122999500D01*
X54038500Y-123041834D01*
X56043679Y-123041834D01*
X56050258Y-123036222D01*
X56063816Y-123119445D01*
X56697022Y-123119445D01*
X56673587Y-123074224D01*
X56688967Y-123022886D01*
X56804080Y-123100423D01*
X56811333Y-123106915D01*
X56859998Y-123138643D01*
X56914312Y-123134824D01*
X56984702Y-123080417D01*
X57081596Y-122960381D01*
X57140192Y-122872500D01*
X56155166Y-122872500D01*
X56112833Y-122914834D01*
X56070500Y-122872500D01*
X56112833Y-122830167D01*
X56155166Y-122872500D01*
X57140192Y-122872500D01*
X57215421Y-122759675D01*
X57396509Y-122463409D01*
X56657800Y-122463409D01*
X56639112Y-122606960D01*
X56588658Y-122745950D01*
X56534696Y-122808557D01*
X56523888Y-122803777D01*
X56526180Y-122709701D01*
X56571314Y-122567292D01*
X56631368Y-122451727D01*
X56657800Y-122463409D01*
X57396509Y-122463409D01*
X57396602Y-122463258D01*
X57504252Y-122279834D01*
X56747833Y-122279834D01*
X56705500Y-122322167D01*
X56663166Y-122279834D01*
X56705500Y-122237500D01*
X56747833Y-122279834D01*
X57504252Y-122279834D01*
X57567255Y-122172483D01*
X56372372Y-122172483D01*
X56372310Y-122271512D01*
X56313916Y-122438584D01*
X56222185Y-122602796D01*
X56179060Y-122614857D01*
X56184862Y-122576167D01*
X54377166Y-122576167D01*
X54346188Y-122645857D01*
X54320722Y-122632611D01*
X54319935Y-122624805D01*
X54068959Y-122624805D01*
X54020671Y-122694627D01*
X53909470Y-122780496D01*
X53896008Y-122769769D01*
X53516852Y-122769769D01*
X53496251Y-122817085D01*
X53411001Y-122907979D01*
X53361991Y-122889333D01*
X53361166Y-122877497D01*
X53421303Y-122805884D01*
X53458915Y-122779749D01*
X53516852Y-122769769D01*
X53896008Y-122769769D01*
X53871642Y-122750354D01*
X53892103Y-122703167D01*
X53784500Y-122703167D01*
X53742166Y-122745500D01*
X53699833Y-122703167D01*
X53742166Y-122660834D01*
X53784500Y-122703167D01*
X53892103Y-122703167D01*
X53908018Y-122666466D01*
X53969545Y-122618500D01*
X53445833Y-122618500D01*
X53403500Y-122660834D01*
X53361166Y-122618500D01*
X53403500Y-122576167D01*
X53445833Y-122618500D01*
X53969545Y-122618500D01*
X54017980Y-122580741D01*
X54046835Y-122576167D01*
X54068959Y-122624805D01*
X54319935Y-122624805D01*
X54310589Y-122532132D01*
X54320722Y-122519722D01*
X54371056Y-122531345D01*
X54377166Y-122576167D01*
X56184862Y-122576167D01*
X56198045Y-122488272D01*
X56203789Y-122471258D01*
X54086445Y-122471258D01*
X54003222Y-122484816D01*
X53893408Y-122469249D01*
X53892097Y-122440347D01*
X54005414Y-122420136D01*
X54054375Y-122433663D01*
X54086445Y-122471258D01*
X56203789Y-122471258D01*
X56222166Y-122416827D01*
X53361166Y-122416827D01*
X53309001Y-122462730D01*
X53276500Y-122449167D01*
X53194994Y-122337008D01*
X53191833Y-122312173D01*
X53243999Y-122266270D01*
X53276500Y-122279834D01*
X53358006Y-122391993D01*
X53361166Y-122416827D01*
X56222166Y-122416827D01*
X56239833Y-122364500D01*
X56281530Y-122279834D01*
X55647166Y-122279834D01*
X55604833Y-122322167D01*
X55562500Y-122279834D01*
X55604833Y-122237500D01*
X55647166Y-122279834D01*
X56281530Y-122279834D01*
X56314720Y-122212444D01*
X56338728Y-122195167D01*
X54038500Y-122195167D01*
X53996166Y-122237500D01*
X53953833Y-122195167D01*
X53996166Y-122152834D01*
X54038500Y-122195167D01*
X56338728Y-122195167D01*
X56371442Y-122171625D01*
X56372372Y-122172483D01*
X57567255Y-122172483D01*
X57635567Y-122056089D01*
X57677404Y-121983500D01*
X56832500Y-121983500D01*
X56801522Y-122053190D01*
X56776055Y-122039945D01*
X56770363Y-121983500D01*
X56493833Y-121983500D01*
X56462855Y-122053190D01*
X56437389Y-122039945D01*
X56435967Y-122025834D01*
X53530500Y-122025834D01*
X53488166Y-122068167D01*
X53445833Y-122025834D01*
X53488166Y-121983500D01*
X53530500Y-122025834D01*
X56435967Y-122025834D01*
X56427428Y-121941167D01*
X53953833Y-121941167D01*
X53911500Y-121983500D01*
X53869166Y-121941167D01*
X53911500Y-121898834D01*
X53953833Y-121941167D01*
X56427428Y-121941167D01*
X56427256Y-121939465D01*
X56437389Y-121927056D01*
X56487723Y-121938678D01*
X56493833Y-121983500D01*
X56770363Y-121983500D01*
X56765922Y-121939465D01*
X56776055Y-121927056D01*
X56826390Y-121938678D01*
X56832500Y-121983500D01*
X57677404Y-121983500D01*
X57942744Y-121523126D01*
X58102500Y-121244367D01*
X58235618Y-121009834D01*
X56663166Y-121009834D01*
X56620833Y-121052167D01*
X56578500Y-121009834D01*
X56620833Y-120967500D01*
X56663166Y-121009834D01*
X58235618Y-121009834D01*
X58403620Y-120713844D01*
X58482438Y-120572389D01*
X56042278Y-120572389D01*
X56030655Y-120622723D01*
X55985833Y-120628834D01*
X55916143Y-120597855D01*
X55929389Y-120572389D01*
X56029868Y-120562256D01*
X56042278Y-120572389D01*
X58482438Y-120572389D01*
X58674204Y-120228226D01*
X58903410Y-119807696D01*
X59028627Y-119570500D01*
X58187166Y-119570500D01*
X58144833Y-119612834D01*
X58102500Y-119570500D01*
X58144833Y-119528167D01*
X57933166Y-119528167D01*
X57904280Y-119610632D01*
X57895830Y-119612834D01*
X57823544Y-119553505D01*
X57806166Y-119528167D01*
X57812879Y-119450148D01*
X57843503Y-119443500D01*
X57929721Y-119504961D01*
X57933166Y-119528167D01*
X58144833Y-119528167D01*
X58187166Y-119570500D01*
X59028627Y-119570500D01*
X59080397Y-119472435D01*
X59157700Y-119316500D01*
X58187166Y-119316500D01*
X58144833Y-119358834D01*
X58102500Y-119316500D01*
X58144833Y-119274167D01*
X58187166Y-119316500D01*
X59157700Y-119316500D01*
X59194323Y-119242625D01*
X59216653Y-119184503D01*
X58525833Y-119184503D01*
X58464373Y-119270721D01*
X58441166Y-119274167D01*
X58358701Y-119245280D01*
X58356500Y-119236830D01*
X58415829Y-119164544D01*
X58441166Y-119147167D01*
X58519185Y-119153880D01*
X58525833Y-119184503D01*
X59216653Y-119184503D01*
X59234348Y-119138449D01*
X59234294Y-119137484D01*
X59274113Y-119047479D01*
X59309362Y-119044654D01*
X59343505Y-119020167D01*
X58906833Y-119020167D01*
X58900120Y-119098186D01*
X58869497Y-119104834D01*
X58783279Y-119043373D01*
X58779833Y-119020167D01*
X58808720Y-118937701D01*
X58817170Y-118935500D01*
X58889456Y-118994829D01*
X58906833Y-119020167D01*
X59343505Y-119020167D01*
X59390701Y-118986319D01*
X59462860Y-118824254D01*
X59468832Y-118808500D01*
X59287833Y-118808500D01*
X59245500Y-118850834D01*
X59203166Y-118808500D01*
X59245500Y-118766167D01*
X59287833Y-118808500D01*
X59468832Y-118808500D01*
X59544602Y-118608632D01*
X59624736Y-118471958D01*
X59670801Y-118354918D01*
X59646674Y-118312968D01*
X59536305Y-118326616D01*
G36*
X60811833Y-118172908D02*
G01*
X60876362Y-118274557D01*
X60946419Y-118325071D01*
X61052417Y-118416362D01*
X61064652Y-118459910D01*
X61081788Y-118586530D01*
X61152702Y-118768518D01*
X61244295Y-118936017D01*
X61323468Y-119019169D01*
X61330105Y-119020167D01*
X61401070Y-119086032D01*
X61404500Y-119114196D01*
X61445488Y-119201167D01*
X61562441Y-119418876D01*
X61746343Y-119751595D01*
X61988176Y-120183597D01*
X62278924Y-120699154D01*
X62609571Y-121282540D01*
X62971099Y-121918026D01*
X63354493Y-122589886D01*
X63750734Y-123282393D01*
X64150807Y-123979818D01*
X64545695Y-124666436D01*
X64926382Y-125326518D01*
X65283849Y-125944338D01*
X65609082Y-126504167D01*
X65893063Y-126990279D01*
X66126775Y-127386947D01*
X66301202Y-127678443D01*
X66407327Y-127849040D01*
X66433280Y-127885598D01*
X66478257Y-127874713D01*
X66556454Y-127769262D01*
X66672984Y-127558839D01*
X66832963Y-127233033D01*
X67041504Y-126781437D01*
X67303722Y-126193641D01*
X67618930Y-125472598D01*
X67885008Y-124858276D01*
X67944147Y-124721056D01*
X65101611Y-124721056D01*
X65089989Y-124771390D01*
X65045166Y-124777500D01*
X64975476Y-124746522D01*
X64988722Y-124721056D01*
X65089202Y-124710923D01*
X65101611Y-124721056D01*
X67944147Y-124721056D01*
X68129767Y-124290367D01*
X68225332Y-124067370D01*
X67471396Y-124067370D01*
X67458166Y-124100167D01*
X67382084Y-124180937D01*
X67368503Y-124184834D01*
X67332137Y-124119328D01*
X67331166Y-124100167D01*
X67396254Y-124018754D01*
X67420830Y-124015500D01*
X67471396Y-124067370D01*
X68225332Y-124067370D01*
X68338271Y-123803834D01*
X67585166Y-123803834D01*
X67542833Y-123846167D01*
X67415833Y-123846167D01*
X67351404Y-123928373D01*
X67331166Y-123930834D01*
X67291209Y-123899517D01*
X67130274Y-123899517D01*
X67054249Y-123986011D01*
X66934803Y-124015500D01*
X66849100Y-123992538D01*
X66899718Y-123898359D01*
X66907059Y-123889432D01*
X67026916Y-123806014D01*
X67088141Y-123810616D01*
X67130274Y-123899517D01*
X67291209Y-123899517D01*
X67248960Y-123866404D01*
X67246500Y-123846167D01*
X67310929Y-123763960D01*
X67331166Y-123761500D01*
X67413373Y-123825929D01*
X67415833Y-123846167D01*
X67542833Y-123846167D01*
X67500500Y-123803834D01*
X67542833Y-123761500D01*
X67585166Y-123803834D01*
X68338271Y-123803834D01*
X68344894Y-123788380D01*
X68392340Y-123676834D01*
X66738500Y-123676834D01*
X66707522Y-123746524D01*
X66682055Y-123733278D01*
X66674322Y-123656591D01*
X66193778Y-123656591D01*
X66110555Y-123670149D01*
X66000741Y-123654583D01*
X65999831Y-123634500D01*
X65045166Y-123634500D01*
X65002833Y-123676834D01*
X64960500Y-123634500D01*
X65002833Y-123592167D01*
X65045166Y-123634500D01*
X65999831Y-123634500D01*
X65999430Y-123625681D01*
X66112747Y-123605469D01*
X66161708Y-123618997D01*
X66193778Y-123656591D01*
X66674322Y-123656591D01*
X66671922Y-123632798D01*
X66682055Y-123620389D01*
X66732390Y-123632011D01*
X66738500Y-123676834D01*
X68392340Y-123676834D01*
X68517298Y-123383058D01*
X67150280Y-123383058D01*
X67133635Y-123461088D01*
X67074715Y-123510807D01*
X66938351Y-123584314D01*
X66929919Y-123548810D01*
X66994198Y-123463121D01*
X67101884Y-123378731D01*
X67150280Y-123383058D01*
X68517298Y-123383058D01*
X68522077Y-123371823D01*
X68595994Y-123195889D01*
X67712759Y-123195889D01*
X67658571Y-123279918D01*
X67526157Y-123371449D01*
X67466184Y-123327365D01*
X67514896Y-123177473D01*
X67521280Y-123167022D01*
X67629584Y-123064944D01*
X67698784Y-123079251D01*
X67712759Y-123195889D01*
X68595994Y-123195889D01*
X68642934Y-123084167D01*
X68177833Y-123084167D01*
X68146855Y-123153857D01*
X68121389Y-123140611D01*
X68111256Y-123040132D01*
X68121389Y-123027722D01*
X68171723Y-123039345D01*
X68177833Y-123084167D01*
X68642934Y-123084167D01*
X68653002Y-123060204D01*
X68729356Y-122873033D01*
X68745338Y-122829268D01*
X68690935Y-122710363D01*
X68682016Y-122703167D01*
X66484500Y-122703167D01*
X66442166Y-122745500D01*
X66399833Y-122703167D01*
X66442166Y-122660834D01*
X66484500Y-122703167D01*
X68682016Y-122703167D01*
X68577068Y-122618500D01*
X67923833Y-122618500D01*
X67881500Y-122660834D01*
X67839166Y-122618500D01*
X67847148Y-122610518D01*
X64935384Y-122610518D01*
X64875833Y-122660834D01*
X64740737Y-122736983D01*
X64722738Y-122708303D01*
X64748833Y-122660834D01*
X64872482Y-122580335D01*
X64901997Y-122577463D01*
X64935384Y-122610518D01*
X67847148Y-122610518D01*
X67881500Y-122576167D01*
X67923833Y-122618500D01*
X68577068Y-122618500D01*
X68477566Y-122538227D01*
X68203574Y-122368482D01*
X67901470Y-122192668D01*
X67635725Y-122035827D01*
X67458063Y-121928521D01*
X67443492Y-121919397D01*
X67312968Y-121848359D01*
X67286198Y-121891424D01*
X67307048Y-121985081D01*
X67415332Y-122159057D01*
X67519136Y-122227824D01*
X67619466Y-122277358D01*
X67585780Y-122328386D01*
X67457573Y-122391698D01*
X67293369Y-122450737D01*
X67216934Y-122409735D01*
X67185533Y-122318983D01*
X67106238Y-122195011D01*
X67029508Y-122185495D01*
X66961215Y-122157912D01*
X66953405Y-122041730D01*
X66998181Y-121903261D01*
X67073458Y-121816459D01*
X67068783Y-121744887D01*
X66945510Y-121638792D01*
X66921026Y-121623761D01*
X66696014Y-121540130D01*
X66486134Y-121538636D01*
X66344869Y-121612810D01*
X66315166Y-121697042D01*
X66369311Y-121802870D01*
X66472237Y-121791512D01*
X66505901Y-121750667D01*
X66523140Y-121752854D01*
X66515130Y-121794262D01*
X66557492Y-121868342D01*
X66698340Y-121863369D01*
X66869654Y-121863576D01*
X66893596Y-121941730D01*
X66780833Y-122068167D01*
X66673242Y-122212315D01*
X66653833Y-122290200D01*
X66615576Y-122338336D01*
X66494790Y-122247634D01*
X66481412Y-122234412D01*
X66479733Y-122231988D01*
X65701741Y-122231988D01*
X65690160Y-122237500D01*
X65612895Y-122177897D01*
X65595500Y-122152834D01*
X65573925Y-122073679D01*
X65585506Y-122068167D01*
X65662772Y-122127770D01*
X65680166Y-122152834D01*
X65701741Y-122231988D01*
X66479733Y-122231988D01*
X66375382Y-122081397D01*
X66368612Y-121983500D01*
X64706500Y-121983500D01*
X64675522Y-122053190D01*
X64650055Y-122039945D01*
X64639922Y-121939465D01*
X64650055Y-121927056D01*
X64700390Y-121938678D01*
X64706500Y-121983500D01*
X66368612Y-121983500D01*
X66367493Y-121967330D01*
X66374450Y-121911531D01*
X66340721Y-121925373D01*
X66215716Y-121920349D01*
X66100094Y-121856500D01*
X65722500Y-121856500D01*
X65680166Y-121898834D01*
X65637833Y-121856500D01*
X65680166Y-121814167D01*
X65722500Y-121856500D01*
X66100094Y-121856500D01*
X66094806Y-121853580D01*
X65984360Y-121763822D01*
X66008225Y-121756279D01*
X66093886Y-121785117D01*
X66210034Y-121799261D01*
X66210303Y-121721825D01*
X66178726Y-121687167D01*
X64791166Y-121687167D01*
X64748833Y-121729500D01*
X64706500Y-121687167D01*
X64748833Y-121644834D01*
X64791166Y-121687167D01*
X66178726Y-121687167D01*
X66122825Y-121625812D01*
X66078187Y-121621521D01*
X66023325Y-121563625D01*
X66021724Y-121415298D01*
X65298850Y-121415298D01*
X65259023Y-121434284D01*
X65163492Y-121353743D01*
X65049357Y-121215785D01*
X64953720Y-121062519D01*
X64922966Y-120988667D01*
X64907762Y-120907103D01*
X64777519Y-120907103D01*
X64756918Y-120954418D01*
X64671668Y-121045312D01*
X64622657Y-121026666D01*
X64621833Y-121014830D01*
X64681970Y-120943218D01*
X64719582Y-120917082D01*
X64777519Y-120907103D01*
X64907762Y-120907103D01*
X64895812Y-120843005D01*
X64913705Y-120798167D01*
X64984834Y-120863538D01*
X65095480Y-121019558D01*
X65208112Y-121206089D01*
X65285198Y-121362992D01*
X65298850Y-121415298D01*
X66021724Y-121415298D01*
X66021421Y-121387320D01*
X66020360Y-121215009D01*
X65946641Y-121094500D01*
X65807166Y-121094500D01*
X65764833Y-121136834D01*
X65722500Y-121094500D01*
X65764833Y-121052167D01*
X65807166Y-121094500D01*
X65946641Y-121094500D01*
X65940211Y-121083989D01*
X65829310Y-121001851D01*
X65612717Y-121001851D01*
X65553166Y-121052167D01*
X65418070Y-121128317D01*
X65400071Y-121099636D01*
X65426166Y-121052167D01*
X65549815Y-120971668D01*
X65579330Y-120968797D01*
X65612717Y-121001851D01*
X65829310Y-121001851D01*
X65745661Y-120939898D01*
X65720333Y-120923799D01*
X65515611Y-120799142D01*
X65377787Y-120723740D01*
X65350178Y-120713500D01*
X65265788Y-120673246D01*
X65070769Y-120565421D01*
X64799783Y-120409431D01*
X64651063Y-120322059D01*
X64374630Y-120163167D01*
X64029166Y-120163167D01*
X63986833Y-120205500D01*
X63859833Y-120205500D01*
X63830946Y-120287966D01*
X63822497Y-120290167D01*
X63750211Y-120230838D01*
X63747441Y-120226798D01*
X63059143Y-120226798D01*
X63038723Y-120330379D01*
X62974477Y-120346611D01*
X62859696Y-120290090D01*
X62843833Y-120238719D01*
X62875515Y-120163167D01*
X62589833Y-120163167D01*
X62547500Y-120205500D01*
X62505166Y-120163167D01*
X62547500Y-120120834D01*
X62589833Y-120163167D01*
X62875515Y-120163167D01*
X62901766Y-120100567D01*
X62928500Y-120078500D01*
X63007698Y-120055708D01*
X63013166Y-120066579D01*
X63039527Y-120171793D01*
X63059143Y-120226798D01*
X63747441Y-120226798D01*
X63732833Y-120205500D01*
X63739546Y-120127481D01*
X63770170Y-120120834D01*
X63856388Y-120182294D01*
X63859833Y-120205500D01*
X63986833Y-120205500D01*
X63944500Y-120163167D01*
X63986833Y-120120834D01*
X64029166Y-120163167D01*
X64374630Y-120163167D01*
X64274147Y-120105410D01*
X64136669Y-120036167D01*
X63182500Y-120036167D01*
X63151522Y-120105857D01*
X63126055Y-120092611D01*
X63115922Y-119992132D01*
X63126055Y-119979722D01*
X63176390Y-119991345D01*
X63182500Y-120036167D01*
X64136669Y-120036167D01*
X64012137Y-119973445D01*
X63838840Y-119917228D01*
X63728062Y-119927823D01*
X63661989Y-119984659D01*
X63621144Y-119996723D01*
X63632139Y-119890895D01*
X63637655Y-119824500D01*
X62928500Y-119824500D01*
X62886166Y-119866834D01*
X62843833Y-119824500D01*
X62759166Y-119824500D01*
X62716833Y-119866834D01*
X62674500Y-119824500D01*
X62716833Y-119782167D01*
X62505166Y-119782167D01*
X62476280Y-119864632D01*
X62467830Y-119866834D01*
X62395544Y-119807505D01*
X62378166Y-119782167D01*
X62384879Y-119704148D01*
X62415503Y-119697500D01*
X62501721Y-119758961D01*
X62505166Y-119782167D01*
X62716833Y-119782167D01*
X62759166Y-119824500D01*
X62843833Y-119824500D01*
X62886166Y-119782167D01*
X62928500Y-119824500D01*
X63637655Y-119824500D01*
X63643734Y-119751333D01*
X63618316Y-119717314D01*
X63523435Y-119682344D01*
X63333353Y-119577339D01*
X63140968Y-119458016D01*
X62869924Y-119303756D01*
X62718475Y-119268886D01*
X62686825Y-119353370D01*
X62756654Y-119523473D01*
X62807136Y-119658132D01*
X62748143Y-119697098D01*
X62740979Y-119697183D01*
X62647558Y-119625244D01*
X62601407Y-119551468D01*
X62374988Y-119551468D01*
X62301309Y-119564741D01*
X62258100Y-119554512D01*
X62116002Y-119445756D01*
X62062872Y-119325713D01*
X62074566Y-119172976D01*
X62183299Y-119126847D01*
X62290211Y-119150019D01*
X62291414Y-119192874D01*
X62288275Y-119321899D01*
X62330449Y-119433440D01*
X62374988Y-119551468D01*
X62601407Y-119551468D01*
X62533500Y-119442915D01*
X62478484Y-119323125D01*
X62363820Y-119099570D01*
X62241729Y-118940980D01*
X62139626Y-118872656D01*
X62084923Y-118919904D01*
X62081833Y-118956996D01*
X62043150Y-118974942D01*
X61958488Y-118881745D01*
X61841977Y-118765530D01*
X61646445Y-118616129D01*
X61410103Y-118457165D01*
X61171162Y-118312257D01*
X60967833Y-118205028D01*
X60838327Y-118159099D01*
X60811833Y-118172908D01*
G37*
X60811833Y-118172908D02*
X60876362Y-118274557D01*
X60946419Y-118325071D01*
X61052417Y-118416362D01*
X61064652Y-118459910D01*
X61081788Y-118586530D01*
X61152702Y-118768518D01*
X61244295Y-118936017D01*
X61323468Y-119019169D01*
X61330105Y-119020167D01*
X61401070Y-119086032D01*
X61404500Y-119114196D01*
X61445488Y-119201167D01*
X61562441Y-119418876D01*
X61746343Y-119751595D01*
X61988176Y-120183597D01*
X62278924Y-120699154D01*
X62609571Y-121282540D01*
X62971099Y-121918026D01*
X63354493Y-122589886D01*
X63750734Y-123282393D01*
X64150807Y-123979818D01*
X64545695Y-124666436D01*
X64926382Y-125326518D01*
X65283849Y-125944338D01*
X65609082Y-126504167D01*
X65893063Y-126990279D01*
X66126775Y-127386947D01*
X66301202Y-127678443D01*
X66407327Y-127849040D01*
X66433280Y-127885598D01*
X66478257Y-127874713D01*
X66556454Y-127769262D01*
X66672984Y-127558839D01*
X66832963Y-127233033D01*
X67041504Y-126781437D01*
X67303722Y-126193641D01*
X67618930Y-125472598D01*
X67885008Y-124858276D01*
X67944147Y-124721056D01*
X65101611Y-124721056D01*
X65089989Y-124771390D01*
X65045166Y-124777500D01*
X64975476Y-124746522D01*
X64988722Y-124721056D01*
X65089202Y-124710923D01*
X65101611Y-124721056D01*
X67944147Y-124721056D01*
X68129767Y-124290367D01*
X68225332Y-124067370D01*
X67471396Y-124067370D01*
X67458166Y-124100167D01*
X67382084Y-124180937D01*
X67368503Y-124184834D01*
X67332137Y-124119328D01*
X67331166Y-124100167D01*
X67396254Y-124018754D01*
X67420830Y-124015500D01*
X67471396Y-124067370D01*
X68225332Y-124067370D01*
X68338271Y-123803834D01*
X67585166Y-123803834D01*
X67542833Y-123846167D01*
X67415833Y-123846167D01*
X67351404Y-123928373D01*
X67331166Y-123930834D01*
X67291209Y-123899517D01*
X67130274Y-123899517D01*
X67054249Y-123986011D01*
X66934803Y-124015500D01*
X66849100Y-123992538D01*
X66899718Y-123898359D01*
X66907059Y-123889432D01*
X67026916Y-123806014D01*
X67088141Y-123810616D01*
X67130274Y-123899517D01*
X67291209Y-123899517D01*
X67248960Y-123866404D01*
X67246500Y-123846167D01*
X67310929Y-123763960D01*
X67331166Y-123761500D01*
X67413373Y-123825929D01*
X67415833Y-123846167D01*
X67542833Y-123846167D01*
X67500500Y-123803834D01*
X67542833Y-123761500D01*
X67585166Y-123803834D01*
X68338271Y-123803834D01*
X68344894Y-123788380D01*
X68392340Y-123676834D01*
X66738500Y-123676834D01*
X66707522Y-123746524D01*
X66682055Y-123733278D01*
X66674322Y-123656591D01*
X66193778Y-123656591D01*
X66110555Y-123670149D01*
X66000741Y-123654583D01*
X65999831Y-123634500D01*
X65045166Y-123634500D01*
X65002833Y-123676834D01*
X64960500Y-123634500D01*
X65002833Y-123592167D01*
X65045166Y-123634500D01*
X65999831Y-123634500D01*
X65999430Y-123625681D01*
X66112747Y-123605469D01*
X66161708Y-123618997D01*
X66193778Y-123656591D01*
X66674322Y-123656591D01*
X66671922Y-123632798D01*
X66682055Y-123620389D01*
X66732390Y-123632011D01*
X66738500Y-123676834D01*
X68392340Y-123676834D01*
X68517298Y-123383058D01*
X67150280Y-123383058D01*
X67133635Y-123461088D01*
X67074715Y-123510807D01*
X66938351Y-123584314D01*
X66929919Y-123548810D01*
X66994198Y-123463121D01*
X67101884Y-123378731D01*
X67150280Y-123383058D01*
X68517298Y-123383058D01*
X68522077Y-123371823D01*
X68595994Y-123195889D01*
X67712759Y-123195889D01*
X67658571Y-123279918D01*
X67526157Y-123371449D01*
X67466184Y-123327365D01*
X67514896Y-123177473D01*
X67521280Y-123167022D01*
X67629584Y-123064944D01*
X67698784Y-123079251D01*
X67712759Y-123195889D01*
X68595994Y-123195889D01*
X68642934Y-123084167D01*
X68177833Y-123084167D01*
X68146855Y-123153857D01*
X68121389Y-123140611D01*
X68111256Y-123040132D01*
X68121389Y-123027722D01*
X68171723Y-123039345D01*
X68177833Y-123084167D01*
X68642934Y-123084167D01*
X68653002Y-123060204D01*
X68729356Y-122873033D01*
X68745338Y-122829268D01*
X68690935Y-122710363D01*
X68682016Y-122703167D01*
X66484500Y-122703167D01*
X66442166Y-122745500D01*
X66399833Y-122703167D01*
X66442166Y-122660834D01*
X66484500Y-122703167D01*
X68682016Y-122703167D01*
X68577068Y-122618500D01*
X67923833Y-122618500D01*
X67881500Y-122660834D01*
X67839166Y-122618500D01*
X67847148Y-122610518D01*
X64935384Y-122610518D01*
X64875833Y-122660834D01*
X64740737Y-122736983D01*
X64722738Y-122708303D01*
X64748833Y-122660834D01*
X64872482Y-122580335D01*
X64901997Y-122577463D01*
X64935384Y-122610518D01*
X67847148Y-122610518D01*
X67881500Y-122576167D01*
X67923833Y-122618500D01*
X68577068Y-122618500D01*
X68477566Y-122538227D01*
X68203574Y-122368482D01*
X67901470Y-122192668D01*
X67635725Y-122035827D01*
X67458063Y-121928521D01*
X67443492Y-121919397D01*
X67312968Y-121848359D01*
X67286198Y-121891424D01*
X67307048Y-121985081D01*
X67415332Y-122159057D01*
X67519136Y-122227824D01*
X67619466Y-122277358D01*
X67585780Y-122328386D01*
X67457573Y-122391698D01*
X67293369Y-122450737D01*
X67216934Y-122409735D01*
X67185533Y-122318983D01*
X67106238Y-122195011D01*
X67029508Y-122185495D01*
X66961215Y-122157912D01*
X66953405Y-122041730D01*
X66998181Y-121903261D01*
X67073458Y-121816459D01*
X67068783Y-121744887D01*
X66945510Y-121638792D01*
X66921026Y-121623761D01*
X66696014Y-121540130D01*
X66486134Y-121538636D01*
X66344869Y-121612810D01*
X66315166Y-121697042D01*
X66369311Y-121802870D01*
X66472237Y-121791512D01*
X66505901Y-121750667D01*
X66523140Y-121752854D01*
X66515130Y-121794262D01*
X66557492Y-121868342D01*
X66698340Y-121863369D01*
X66869654Y-121863576D01*
X66893596Y-121941730D01*
X66780833Y-122068167D01*
X66673242Y-122212315D01*
X66653833Y-122290200D01*
X66615576Y-122338336D01*
X66494790Y-122247634D01*
X66481412Y-122234412D01*
X66479733Y-122231988D01*
X65701741Y-122231988D01*
X65690160Y-122237500D01*
X65612895Y-122177897D01*
X65595500Y-122152834D01*
X65573925Y-122073679D01*
X65585506Y-122068167D01*
X65662772Y-122127770D01*
X65680166Y-122152834D01*
X65701741Y-122231988D01*
X66479733Y-122231988D01*
X66375382Y-122081397D01*
X66368612Y-121983500D01*
X64706500Y-121983500D01*
X64675522Y-122053190D01*
X64650055Y-122039945D01*
X64639922Y-121939465D01*
X64650055Y-121927056D01*
X64700390Y-121938678D01*
X64706500Y-121983500D01*
X66368612Y-121983500D01*
X66367493Y-121967330D01*
X66374450Y-121911531D01*
X66340721Y-121925373D01*
X66215716Y-121920349D01*
X66100094Y-121856500D01*
X65722500Y-121856500D01*
X65680166Y-121898834D01*
X65637833Y-121856500D01*
X65680166Y-121814167D01*
X65722500Y-121856500D01*
X66100094Y-121856500D01*
X66094806Y-121853580D01*
X65984360Y-121763822D01*
X66008225Y-121756279D01*
X66093886Y-121785117D01*
X66210034Y-121799261D01*
X66210303Y-121721825D01*
X66178726Y-121687167D01*
X64791166Y-121687167D01*
X64748833Y-121729500D01*
X64706500Y-121687167D01*
X64748833Y-121644834D01*
X64791166Y-121687167D01*
X66178726Y-121687167D01*
X66122825Y-121625812D01*
X66078187Y-121621521D01*
X66023325Y-121563625D01*
X66021724Y-121415298D01*
X65298850Y-121415298D01*
X65259023Y-121434284D01*
X65163492Y-121353743D01*
X65049357Y-121215785D01*
X64953720Y-121062519D01*
X64922966Y-120988667D01*
X64907762Y-120907103D01*
X64777519Y-120907103D01*
X64756918Y-120954418D01*
X64671668Y-121045312D01*
X64622657Y-121026666D01*
X64621833Y-121014830D01*
X64681970Y-120943218D01*
X64719582Y-120917082D01*
X64777519Y-120907103D01*
X64907762Y-120907103D01*
X64895812Y-120843005D01*
X64913705Y-120798167D01*
X64984834Y-120863538D01*
X65095480Y-121019558D01*
X65208112Y-121206089D01*
X65285198Y-121362992D01*
X65298850Y-121415298D01*
X66021724Y-121415298D01*
X66021421Y-121387320D01*
X66020360Y-121215009D01*
X65946641Y-121094500D01*
X65807166Y-121094500D01*
X65764833Y-121136834D01*
X65722500Y-121094500D01*
X65764833Y-121052167D01*
X65807166Y-121094500D01*
X65946641Y-121094500D01*
X65940211Y-121083989D01*
X65829310Y-121001851D01*
X65612717Y-121001851D01*
X65553166Y-121052167D01*
X65418070Y-121128317D01*
X65400071Y-121099636D01*
X65426166Y-121052167D01*
X65549815Y-120971668D01*
X65579330Y-120968797D01*
X65612717Y-121001851D01*
X65829310Y-121001851D01*
X65745661Y-120939898D01*
X65720333Y-120923799D01*
X65515611Y-120799142D01*
X65377787Y-120723740D01*
X65350178Y-120713500D01*
X65265788Y-120673246D01*
X65070769Y-120565421D01*
X64799783Y-120409431D01*
X64651063Y-120322059D01*
X64374630Y-120163167D01*
X64029166Y-120163167D01*
X63986833Y-120205500D01*
X63859833Y-120205500D01*
X63830946Y-120287966D01*
X63822497Y-120290167D01*
X63750211Y-120230838D01*
X63747441Y-120226798D01*
X63059143Y-120226798D01*
X63038723Y-120330379D01*
X62974477Y-120346611D01*
X62859696Y-120290090D01*
X62843833Y-120238719D01*
X62875515Y-120163167D01*
X62589833Y-120163167D01*
X62547500Y-120205500D01*
X62505166Y-120163167D01*
X62547500Y-120120834D01*
X62589833Y-120163167D01*
X62875515Y-120163167D01*
X62901766Y-120100567D01*
X62928500Y-120078500D01*
X63007698Y-120055708D01*
X63013166Y-120066579D01*
X63039527Y-120171793D01*
X63059143Y-120226798D01*
X63747441Y-120226798D01*
X63732833Y-120205500D01*
X63739546Y-120127481D01*
X63770170Y-120120834D01*
X63856388Y-120182294D01*
X63859833Y-120205500D01*
X63986833Y-120205500D01*
X63944500Y-120163167D01*
X63986833Y-120120834D01*
X64029166Y-120163167D01*
X64374630Y-120163167D01*
X64274147Y-120105410D01*
X64136669Y-120036167D01*
X63182500Y-120036167D01*
X63151522Y-120105857D01*
X63126055Y-120092611D01*
X63115922Y-119992132D01*
X63126055Y-119979722D01*
X63176390Y-119991345D01*
X63182500Y-120036167D01*
X64136669Y-120036167D01*
X64012137Y-119973445D01*
X63838840Y-119917228D01*
X63728062Y-119927823D01*
X63661989Y-119984659D01*
X63621144Y-119996723D01*
X63632139Y-119890895D01*
X63637655Y-119824500D01*
X62928500Y-119824500D01*
X62886166Y-119866834D01*
X62843833Y-119824500D01*
X62759166Y-119824500D01*
X62716833Y-119866834D01*
X62674500Y-119824500D01*
X62716833Y-119782167D01*
X62505166Y-119782167D01*
X62476280Y-119864632D01*
X62467830Y-119866834D01*
X62395544Y-119807505D01*
X62378166Y-119782167D01*
X62384879Y-119704148D01*
X62415503Y-119697500D01*
X62501721Y-119758961D01*
X62505166Y-119782167D01*
X62716833Y-119782167D01*
X62759166Y-119824500D01*
X62843833Y-119824500D01*
X62886166Y-119782167D01*
X62928500Y-119824500D01*
X63637655Y-119824500D01*
X63643734Y-119751333D01*
X63618316Y-119717314D01*
X63523435Y-119682344D01*
X63333353Y-119577339D01*
X63140968Y-119458016D01*
X62869924Y-119303756D01*
X62718475Y-119268886D01*
X62686825Y-119353370D01*
X62756654Y-119523473D01*
X62807136Y-119658132D01*
X62748143Y-119697098D01*
X62740979Y-119697183D01*
X62647558Y-119625244D01*
X62601407Y-119551468D01*
X62374988Y-119551468D01*
X62301309Y-119564741D01*
X62258100Y-119554512D01*
X62116002Y-119445756D01*
X62062872Y-119325713D01*
X62074566Y-119172976D01*
X62183299Y-119126847D01*
X62290211Y-119150019D01*
X62291414Y-119192874D01*
X62288275Y-119321899D01*
X62330449Y-119433440D01*
X62374988Y-119551468D01*
X62601407Y-119551468D01*
X62533500Y-119442915D01*
X62478484Y-119323125D01*
X62363820Y-119099570D01*
X62241729Y-118940980D01*
X62139626Y-118872656D01*
X62084923Y-118919904D01*
X62081833Y-118956996D01*
X62043150Y-118974942D01*
X61958488Y-118881745D01*
X61841977Y-118765530D01*
X61646445Y-118616129D01*
X61410103Y-118457165D01*
X61171162Y-118312257D01*
X60967833Y-118205028D01*
X60838327Y-118159099D01*
X60811833Y-118172908D01*
G36*
X51700613Y-123576521D02*
G01*
X51694219Y-123726893D01*
X51703276Y-123930087D01*
X51725104Y-124128490D01*
X51757022Y-124264489D01*
X51759243Y-124269500D01*
X51784088Y-124410330D01*
X51787131Y-124627856D01*
X51771729Y-124851295D01*
X51741242Y-125009865D01*
X51722592Y-125041899D01*
X51701191Y-125146943D01*
X51744141Y-125269881D01*
X51790781Y-125443208D01*
X51789349Y-125719969D01*
X51750009Y-126063815D01*
X51709657Y-126453277D01*
X51682763Y-126921754D01*
X51674173Y-127379148D01*
X51675016Y-127457719D01*
X51679024Y-127786137D01*
X51695374Y-128016004D01*
X51749728Y-128163939D01*
X51867751Y-128246563D01*
X52075107Y-128280496D01*
X52397458Y-128282358D01*
X52860469Y-128268771D01*
X52924555Y-128266951D01*
X53341615Y-128249579D01*
X53607373Y-128223227D01*
X53739743Y-128185173D01*
X53760161Y-128139951D01*
X53698775Y-127992402D01*
X53581177Y-127718010D01*
X53419639Y-127344800D01*
X53226435Y-126900794D01*
X53094119Y-126597834D01*
X52514500Y-126597834D01*
X52472166Y-126640167D01*
X52429833Y-126597834D01*
X52472166Y-126555500D01*
X52514500Y-126597834D01*
X53094119Y-126597834D01*
X53013838Y-126414018D01*
X52834722Y-126005167D01*
X52429833Y-126005167D01*
X52387500Y-126047500D01*
X52345166Y-126005167D01*
X52387500Y-125962834D01*
X52429833Y-126005167D01*
X52834722Y-126005167D01*
X52794122Y-125912494D01*
X52754233Y-125821722D01*
X52062944Y-125821722D01*
X52051322Y-125872057D01*
X52006500Y-125878167D01*
X51936810Y-125847189D01*
X51950055Y-125821722D01*
X52050535Y-125811589D01*
X52062944Y-125821722D01*
X52754233Y-125821722D01*
X52686020Y-125666500D01*
X52345166Y-125666500D01*
X52302833Y-125708834D01*
X52260500Y-125666500D01*
X52302833Y-125624167D01*
X52345166Y-125666500D01*
X52686020Y-125666500D01*
X52648813Y-125581834D01*
X52006500Y-125581834D01*
X51964166Y-125624167D01*
X51921833Y-125581834D01*
X51964166Y-125539500D01*
X52006500Y-125581834D01*
X52648813Y-125581834D01*
X52611605Y-125497167D01*
X52429833Y-125497167D01*
X52387500Y-125539500D01*
X52345166Y-125497167D01*
X52387500Y-125454834D01*
X52429833Y-125497167D01*
X52611605Y-125497167D01*
X52579560Y-125424247D01*
X52403901Y-125025988D01*
X52070408Y-125025988D01*
X52058827Y-125031500D01*
X51981561Y-124971897D01*
X51964166Y-124946834D01*
X51942592Y-124867679D01*
X51954173Y-124862167D01*
X52031438Y-124921770D01*
X52048833Y-124946834D01*
X52070408Y-125025988D01*
X52403901Y-125025988D01*
X52382425Y-124977299D01*
X52312607Y-124819834D01*
X52175833Y-124819834D01*
X52133500Y-124862167D01*
X52091166Y-124819834D01*
X52133500Y-124777500D01*
X52175833Y-124819834D01*
X52312607Y-124819834D01*
X52275067Y-124735167D01*
X51921833Y-124735167D01*
X51879500Y-124777500D01*
X51837166Y-124735167D01*
X51879500Y-124692834D01*
X51921833Y-124735167D01*
X52275067Y-124735167D01*
X52214990Y-124599675D01*
X52199842Y-124565834D01*
X52006500Y-124565834D01*
X51964166Y-124608167D01*
X51921833Y-124565834D01*
X51964166Y-124523500D01*
X52006500Y-124565834D01*
X52199842Y-124565834D01*
X52089529Y-124319398D01*
X52086069Y-124311834D01*
X52006500Y-124311834D01*
X51964166Y-124354167D01*
X51921833Y-124311834D01*
X51964166Y-124269500D01*
X52006500Y-124311834D01*
X52086069Y-124311834D01*
X52027974Y-124184834D01*
X52008596Y-124142500D01*
X51921833Y-124142500D01*
X51879500Y-124184834D01*
X51837166Y-124142500D01*
X51879500Y-124100167D01*
X51921833Y-124142500D01*
X52008596Y-124142500D01*
X51911019Y-123929339D01*
X51893483Y-123888500D01*
X51837166Y-123888500D01*
X51794833Y-123930834D01*
X51752500Y-123888500D01*
X51794833Y-123846167D01*
X51837166Y-123888500D01*
X51893483Y-123888500D01*
X51828886Y-123738065D01*
X51802147Y-123662722D01*
X51743144Y-123556215D01*
X51725140Y-123536584D01*
X51700613Y-123576521D01*
G37*
X51700613Y-123576521D02*
X51694219Y-123726893D01*
X51703276Y-123930087D01*
X51725104Y-124128490D01*
X51757022Y-124264489D01*
X51759243Y-124269500D01*
X51784088Y-124410330D01*
X51787131Y-124627856D01*
X51771729Y-124851295D01*
X51741242Y-125009865D01*
X51722592Y-125041899D01*
X51701191Y-125146943D01*
X51744141Y-125269881D01*
X51790781Y-125443208D01*
X51789349Y-125719969D01*
X51750009Y-126063815D01*
X51709657Y-126453277D01*
X51682763Y-126921754D01*
X51674173Y-127379148D01*
X51675016Y-127457719D01*
X51679024Y-127786137D01*
X51695374Y-128016004D01*
X51749728Y-128163939D01*
X51867751Y-128246563D01*
X52075107Y-128280496D01*
X52397458Y-128282358D01*
X52860469Y-128268771D01*
X52924555Y-128266951D01*
X53341615Y-128249579D01*
X53607373Y-128223227D01*
X53739743Y-128185173D01*
X53760161Y-128139951D01*
X53698775Y-127992402D01*
X53581177Y-127718010D01*
X53419639Y-127344800D01*
X53226435Y-126900794D01*
X53094119Y-126597834D01*
X52514500Y-126597834D01*
X52472166Y-126640167D01*
X52429833Y-126597834D01*
X52472166Y-126555500D01*
X52514500Y-126597834D01*
X53094119Y-126597834D01*
X53013838Y-126414018D01*
X52834722Y-126005167D01*
X52429833Y-126005167D01*
X52387500Y-126047500D01*
X52345166Y-126005167D01*
X52387500Y-125962834D01*
X52429833Y-126005167D01*
X52834722Y-126005167D01*
X52794122Y-125912494D01*
X52754233Y-125821722D01*
X52062944Y-125821722D01*
X52051322Y-125872057D01*
X52006500Y-125878167D01*
X51936810Y-125847189D01*
X51950055Y-125821722D01*
X52050535Y-125811589D01*
X52062944Y-125821722D01*
X52754233Y-125821722D01*
X52686020Y-125666500D01*
X52345166Y-125666500D01*
X52302833Y-125708834D01*
X52260500Y-125666500D01*
X52302833Y-125624167D01*
X52345166Y-125666500D01*
X52686020Y-125666500D01*
X52648813Y-125581834D01*
X52006500Y-125581834D01*
X51964166Y-125624167D01*
X51921833Y-125581834D01*
X51964166Y-125539500D01*
X52006500Y-125581834D01*
X52648813Y-125581834D01*
X52611605Y-125497167D01*
X52429833Y-125497167D01*
X52387500Y-125539500D01*
X52345166Y-125497167D01*
X52387500Y-125454834D01*
X52429833Y-125497167D01*
X52611605Y-125497167D01*
X52579560Y-125424247D01*
X52403901Y-125025988D01*
X52070408Y-125025988D01*
X52058827Y-125031500D01*
X51981561Y-124971897D01*
X51964166Y-124946834D01*
X51942592Y-124867679D01*
X51954173Y-124862167D01*
X52031438Y-124921770D01*
X52048833Y-124946834D01*
X52070408Y-125025988D01*
X52403901Y-125025988D01*
X52382425Y-124977299D01*
X52312607Y-124819834D01*
X52175833Y-124819834D01*
X52133500Y-124862167D01*
X52091166Y-124819834D01*
X52133500Y-124777500D01*
X52175833Y-124819834D01*
X52312607Y-124819834D01*
X52275067Y-124735167D01*
X51921833Y-124735167D01*
X51879500Y-124777500D01*
X51837166Y-124735167D01*
X51879500Y-124692834D01*
X51921833Y-124735167D01*
X52275067Y-124735167D01*
X52214990Y-124599675D01*
X52199842Y-124565834D01*
X52006500Y-124565834D01*
X51964166Y-124608167D01*
X51921833Y-124565834D01*
X51964166Y-124523500D01*
X52006500Y-124565834D01*
X52199842Y-124565834D01*
X52089529Y-124319398D01*
X52086069Y-124311834D01*
X52006500Y-124311834D01*
X51964166Y-124354167D01*
X51921833Y-124311834D01*
X51964166Y-124269500D01*
X52006500Y-124311834D01*
X52086069Y-124311834D01*
X52027974Y-124184834D01*
X52008596Y-124142500D01*
X51921833Y-124142500D01*
X51879500Y-124184834D01*
X51837166Y-124142500D01*
X51879500Y-124100167D01*
X51921833Y-124142500D01*
X52008596Y-124142500D01*
X51911019Y-123929339D01*
X51893483Y-123888500D01*
X51837166Y-123888500D01*
X51794833Y-123930834D01*
X51752500Y-123888500D01*
X51794833Y-123846167D01*
X51837166Y-123888500D01*
X51893483Y-123888500D01*
X51828886Y-123738065D01*
X51802147Y-123662722D01*
X51743144Y-123556215D01*
X51725140Y-123536584D01*
X51700613Y-123576521D01*
G36*
X59908270Y-119012867D02*
G01*
X59760249Y-119259408D01*
X59576418Y-119580839D01*
X59373778Y-119945778D01*
X59169332Y-120322843D01*
X58980083Y-120680652D01*
X58823034Y-120987822D01*
X58715185Y-121212972D01*
X58673541Y-121324719D01*
X58673532Y-121327334D01*
X58636173Y-121452423D01*
X58584071Y-121475712D01*
X58511994Y-121546007D01*
X58373161Y-121741147D01*
X58182646Y-122037729D01*
X57955523Y-122412347D01*
X57725254Y-122809212D01*
X57467737Y-123260624D01*
X57226194Y-123681463D01*
X57018287Y-124041149D01*
X56861679Y-124309105D01*
X56783988Y-124438834D01*
X56592853Y-124754580D01*
X56362781Y-125144553D01*
X56106666Y-125585827D01*
X55837403Y-126055479D01*
X55567885Y-126530584D01*
X55311008Y-126988218D01*
X55079665Y-127405456D01*
X54886752Y-127759374D01*
X54745162Y-128027047D01*
X54667790Y-128185552D01*
X54657751Y-128218974D01*
X54752003Y-128233801D01*
X54985615Y-128248290D01*
X55328620Y-128261196D01*
X55751047Y-128271274D01*
X56011351Y-128275221D01*
X56451909Y-128276402D01*
X56817071Y-128269324D01*
X57080859Y-128255160D01*
X57217300Y-128235084D01*
X57226742Y-128220322D01*
X57217195Y-128183574D01*
X57340500Y-128199942D01*
X57510216Y-128222416D01*
X57804244Y-128243859D01*
X58177568Y-128261502D01*
X58492125Y-128270786D01*
X59432083Y-128291167D01*
X59169458Y-128029678D01*
X58862422Y-127759735D01*
X58617175Y-127629595D01*
X58414568Y-127630320D01*
X58362380Y-127653020D01*
X58171905Y-127686734D01*
X58038274Y-127593349D01*
X58005327Y-127451160D01*
X56380739Y-127451160D01*
X56282484Y-127534785D01*
X56092308Y-127663447D01*
X55905176Y-127780246D01*
X55831016Y-127812470D01*
X55841820Y-127769343D01*
X55859205Y-127740231D01*
X55965331Y-127646927D01*
X56155080Y-127531611D01*
X56181702Y-127517797D01*
X56349032Y-127442422D01*
X56380739Y-127451160D01*
X58005327Y-127451160D01*
X57996648Y-127413708D01*
X58034563Y-127272259D01*
X58140453Y-127109598D01*
X56995995Y-127109598D01*
X56909647Y-127185441D01*
X56769000Y-127269073D01*
X56588167Y-127365123D01*
X56511317Y-127394593D01*
X56494047Y-127372480D01*
X56493833Y-127362008D01*
X56560777Y-127300293D01*
X56724307Y-127202838D01*
X56747833Y-127190500D01*
X56940581Y-127105805D01*
X56995995Y-127109598D01*
X58140453Y-127109598D01*
X58150611Y-127093995D01*
X58259441Y-127084769D01*
X58314166Y-127148167D01*
X58294973Y-127220650D01*
X58234497Y-127232834D01*
X58118568Y-127270996D01*
X58102500Y-127305759D01*
X58172215Y-127348821D01*
X58293000Y-127342550D01*
X58495346Y-127376029D01*
X58762568Y-127547748D01*
X58836133Y-127608725D01*
X59070145Y-127786442D01*
X59202921Y-127831059D01*
X59231615Y-127804768D01*
X59269608Y-127764854D01*
X59281149Y-127833545D01*
X59345304Y-127990006D01*
X59454091Y-128119050D01*
X59504041Y-128162307D01*
X59559800Y-128197847D01*
X59637090Y-128226285D01*
X59751634Y-128248236D01*
X59919156Y-128264313D01*
X60155377Y-128275131D01*
X60476022Y-128281305D01*
X60896814Y-128283448D01*
X61433474Y-128282175D01*
X62101727Y-128278101D01*
X62917295Y-128271839D01*
X63288333Y-128268859D01*
X63954287Y-128262382D01*
X64562805Y-128254310D01*
X65094080Y-128245074D01*
X65528305Y-128235108D01*
X65845673Y-128224842D01*
X66026377Y-128214709D01*
X66061166Y-128208404D01*
X66020079Y-128127043D01*
X65923524Y-127952500D01*
X63182500Y-127952500D01*
X63140166Y-127994834D01*
X63097833Y-127952500D01*
X63140166Y-127910167D01*
X63182500Y-127952500D01*
X65923524Y-127952500D01*
X65902970Y-127915345D01*
X65719072Y-127589283D01*
X65477617Y-127164828D01*
X65339015Y-126922389D01*
X57312278Y-126922389D01*
X57300655Y-126972723D01*
X57255833Y-126978834D01*
X57186143Y-126947855D01*
X57199389Y-126922389D01*
X57299868Y-126912256D01*
X57312278Y-126922389D01*
X65339015Y-126922389D01*
X65298678Y-126851834D01*
X60727166Y-126851834D01*
X60684833Y-126894167D01*
X60642500Y-126851834D01*
X60684833Y-126809500D01*
X60727166Y-126851834D01*
X65298678Y-126851834D01*
X65201870Y-126682500D01*
X60557833Y-126682500D01*
X60515500Y-126724834D01*
X60473166Y-126682500D01*
X57679166Y-126682500D01*
X57636833Y-126724834D01*
X57594500Y-126682500D01*
X57636833Y-126640167D01*
X57679166Y-126682500D01*
X60473166Y-126682500D01*
X60515500Y-126640167D01*
X60557833Y-126682500D01*
X65201870Y-126682500D01*
X65187834Y-126657950D01*
X65104783Y-126513167D01*
X58017833Y-126513167D01*
X57975500Y-126555500D01*
X57933166Y-126513167D01*
X57975500Y-126470834D01*
X58017833Y-126513167D01*
X65104783Y-126513167D01*
X65056215Y-126428500D01*
X58187166Y-126428500D01*
X58144833Y-126470834D01*
X58102500Y-126428500D01*
X58144833Y-126386167D01*
X58187166Y-126428500D01*
X65056215Y-126428500D01*
X64899559Y-126155404D01*
X58592284Y-126155404D01*
X58577697Y-126181683D01*
X58488484Y-126254496D01*
X58337445Y-126365526D01*
X58277705Y-126375265D01*
X58271833Y-126346812D01*
X58338330Y-126284773D01*
X58462333Y-126215142D01*
X58592284Y-126155404D01*
X64899559Y-126155404D01*
X64858956Y-126084623D01*
X64837608Y-126047500D01*
X59033833Y-126047500D01*
X59002855Y-126117190D01*
X58977389Y-126103945D01*
X58975966Y-126089834D01*
X58779833Y-126089834D01*
X58737500Y-126132167D01*
X58695166Y-126089834D01*
X58737500Y-126047500D01*
X58779833Y-126089834D01*
X58975966Y-126089834D01*
X58967256Y-126003465D01*
X58977389Y-125991056D01*
X59027723Y-126002678D01*
X59033833Y-126047500D01*
X64837608Y-126047500D01*
X64667192Y-125751167D01*
X64198500Y-125751167D01*
X64156166Y-125793500D01*
X64113833Y-125751167D01*
X59541833Y-125751167D01*
X59499500Y-125793500D01*
X59457166Y-125751167D01*
X59499500Y-125708834D01*
X59541833Y-125751167D01*
X64113833Y-125751167D01*
X64156166Y-125708834D01*
X64198500Y-125751167D01*
X64667192Y-125751167D01*
X64573106Y-125587563D01*
X64079190Y-125587563D01*
X64043943Y-125590966D01*
X64036666Y-125581834D01*
X59372500Y-125581834D01*
X59330166Y-125624167D01*
X59287833Y-125581834D01*
X59330166Y-125539500D01*
X59372500Y-125581834D01*
X64036666Y-125581834D01*
X63968781Y-125496647D01*
X63868932Y-125330391D01*
X59699613Y-125330391D01*
X59682969Y-125408421D01*
X59624048Y-125458141D01*
X59487684Y-125531648D01*
X59479252Y-125496144D01*
X59543531Y-125410454D01*
X59651217Y-125326065D01*
X59699613Y-125330391D01*
X63868932Y-125330391D01*
X63852104Y-125302372D01*
X63778862Y-125165686D01*
X63671134Y-124989167D01*
X60219166Y-124989167D01*
X60176833Y-125031500D01*
X58864500Y-125031500D01*
X58833522Y-125101190D01*
X58808055Y-125087945D01*
X58797922Y-124987465D01*
X58808055Y-124975056D01*
X58858390Y-124986678D01*
X58864500Y-125031500D01*
X60176833Y-125031500D01*
X60134500Y-124989167D01*
X60176833Y-124946834D01*
X60219166Y-124989167D01*
X63671134Y-124989167D01*
X63652387Y-124958450D01*
X63542244Y-124843386D01*
X63496034Y-124835366D01*
X63450395Y-124833001D01*
X63466530Y-124797408D01*
X63466232Y-124777500D01*
X58779833Y-124777500D01*
X58748855Y-124847190D01*
X58723389Y-124833945D01*
X58713256Y-124733465D01*
X58723389Y-124721056D01*
X58773723Y-124732678D01*
X58779833Y-124777500D01*
X63466232Y-124777500D01*
X63464579Y-124667290D01*
X63416111Y-124590552D01*
X63234856Y-124341070D01*
X63122490Y-124084480D01*
X63106141Y-123973167D01*
X57679166Y-123973167D01*
X57636833Y-124015500D01*
X57594500Y-123973167D01*
X57636833Y-123930834D01*
X57679166Y-123973167D01*
X63106141Y-123973167D01*
X63103200Y-123953149D01*
X63118639Y-123871509D01*
X63163944Y-123942930D01*
X63183536Y-123990003D01*
X63301959Y-124193073D01*
X63432170Y-124349837D01*
X63558439Y-124503325D01*
X63605833Y-124609849D01*
X63647530Y-124729809D01*
X63752252Y-124928426D01*
X63802519Y-125012016D01*
X63955931Y-125276114D01*
X64052163Y-125477575D01*
X64079190Y-125587563D01*
X64573106Y-125587563D01*
X64500215Y-125460816D01*
X64120841Y-124802502D01*
X63730067Y-124125651D01*
X63557881Y-123827934D01*
X62999550Y-123827934D01*
X62956792Y-123791653D01*
X62933651Y-123761500D01*
X62847247Y-123634500D01*
X61404500Y-123634500D01*
X61362166Y-123676834D01*
X61319833Y-123634500D01*
X58441166Y-123634500D01*
X58398833Y-123676834D01*
X58356500Y-123634500D01*
X58398833Y-123592167D01*
X58441166Y-123634500D01*
X61319833Y-123634500D01*
X61362166Y-123592167D01*
X61404500Y-123634500D01*
X62847247Y-123634500D01*
X62804490Y-123571656D01*
X62757882Y-123494797D01*
X62741862Y-123422834D01*
X62166500Y-123422834D01*
X62135522Y-123492524D01*
X62110055Y-123479278D01*
X62108632Y-123465167D01*
X61743166Y-123465167D01*
X61700833Y-123507500D01*
X61658500Y-123465167D01*
X61700833Y-123422834D01*
X61743166Y-123465167D01*
X62108632Y-123465167D01*
X62099922Y-123378798D01*
X62110055Y-123366389D01*
X62160390Y-123378011D01*
X62166500Y-123422834D01*
X62741862Y-123422834D01*
X62727986Y-123360509D01*
X62784908Y-123313916D01*
X62878807Y-123344527D01*
X62898118Y-123411286D01*
X62932236Y-123607111D01*
X62966581Y-123719167D01*
X62999550Y-123827934D01*
X63557881Y-123827934D01*
X63337123Y-123446235D01*
X63199785Y-123209197D01*
X62705197Y-123209197D01*
X62685145Y-123255835D01*
X62608117Y-123196909D01*
X62497019Y-123046922D01*
X62410303Y-122893667D01*
X62305167Y-122704085D01*
X58488241Y-122704085D01*
X58470967Y-122751778D01*
X58443379Y-122703167D01*
X58384668Y-122489621D01*
X58362451Y-122286889D01*
X58366899Y-122109023D01*
X58389232Y-122088583D01*
X58424132Y-122215260D01*
X58466282Y-122478745D01*
X58467979Y-122491500D01*
X58488241Y-122704085D01*
X62305167Y-122704085D01*
X62259797Y-122622274D01*
X62061836Y-122296488D01*
X61913445Y-122068167D01*
X61827718Y-121927056D01*
X58751611Y-121927056D01*
X58739989Y-121977390D01*
X58695166Y-121983500D01*
X58625476Y-121952522D01*
X58638722Y-121927056D01*
X58739202Y-121916923D01*
X58751611Y-121927056D01*
X61827718Y-121927056D01*
X61758656Y-121813378D01*
X61660477Y-121601966D01*
X61640012Y-121484882D01*
X61635283Y-121410238D01*
X61571735Y-121434463D01*
X61502821Y-121454914D01*
X61524268Y-121402534D01*
X61621834Y-121342208D01*
X61705410Y-121398655D01*
X61709262Y-121526398D01*
X61713324Y-121630017D01*
X61748552Y-121644834D01*
X61848362Y-121712595D01*
X61896104Y-121793000D01*
X62011609Y-122022899D01*
X62157749Y-122259635D01*
X62302195Y-122456477D01*
X62412616Y-122566694D01*
X62437921Y-122576167D01*
X62487381Y-122638093D01*
X62474549Y-122703167D01*
X62462669Y-122813045D01*
X62486657Y-122830827D01*
X62562797Y-122899260D01*
X62645367Y-123042494D01*
X62705197Y-123209197D01*
X63199785Y-123209197D01*
X62951241Y-122780226D01*
X62581653Y-122143594D01*
X62237590Y-121552311D01*
X61970394Y-121094500D01*
X61658500Y-121094500D01*
X61616166Y-121136834D01*
X61573833Y-121094500D01*
X61616166Y-121052167D01*
X61658500Y-121094500D01*
X61970394Y-121094500D01*
X61928283Y-121022349D01*
X61662964Y-120569678D01*
X61450864Y-120210271D01*
X61301215Y-119960098D01*
X61223248Y-119835131D01*
X61215274Y-119824500D01*
X61186189Y-119824623D01*
X61234111Y-119941937D01*
X61236944Y-119947453D01*
X61298158Y-120113834D01*
X61250617Y-120186190D01*
X61247308Y-120187342D01*
X61164536Y-120274205D01*
X61161055Y-120394373D01*
X61237868Y-120459292D01*
X61244225Y-120459500D01*
X61305499Y-120519180D01*
X61297167Y-120565779D01*
X61310448Y-120692422D01*
X61399846Y-120800972D01*
X61506993Y-120830180D01*
X61533947Y-120814244D01*
X61551943Y-120829235D01*
X61512076Y-120925167D01*
X61459826Y-121116540D01*
X61467055Y-121221500D01*
X61455211Y-121256082D01*
X61372272Y-121166221D01*
X61366043Y-121157852D01*
X61279751Y-120991995D01*
X61276992Y-120883655D01*
X61263191Y-120835708D01*
X61197231Y-120850528D01*
X61098165Y-120845303D01*
X61066122Y-120705545D01*
X61065833Y-120680225D01*
X61037938Y-120516828D01*
X60981166Y-120459500D01*
X60906052Y-120390924D01*
X60896500Y-120332500D01*
X60847054Y-120219888D01*
X60804778Y-120205500D01*
X60743553Y-120145162D01*
X60750828Y-120099667D01*
X60745792Y-119961479D01*
X60680994Y-119785531D01*
X60587924Y-119632659D01*
X60498073Y-119563702D01*
X60476006Y-119568745D01*
X60399744Y-119527042D01*
X60285932Y-119369999D01*
X60210903Y-119233445D01*
X60099773Y-119020619D01*
X60023038Y-118891780D01*
X60003478Y-118872598D01*
X59908270Y-119012867D01*
G37*
X59908270Y-119012867D02*
X59760249Y-119259408D01*
X59576418Y-119580839D01*
X59373778Y-119945778D01*
X59169332Y-120322843D01*
X58980083Y-120680652D01*
X58823034Y-120987822D01*
X58715185Y-121212972D01*
X58673541Y-121324719D01*
X58673532Y-121327334D01*
X58636173Y-121452423D01*
X58584071Y-121475712D01*
X58511994Y-121546007D01*
X58373161Y-121741147D01*
X58182646Y-122037729D01*
X57955523Y-122412347D01*
X57725254Y-122809212D01*
X57467737Y-123260624D01*
X57226194Y-123681463D01*
X57018287Y-124041149D01*
X56861679Y-124309105D01*
X56783988Y-124438834D01*
X56592853Y-124754580D01*
X56362781Y-125144553D01*
X56106666Y-125585827D01*
X55837403Y-126055479D01*
X55567885Y-126530584D01*
X55311008Y-126988218D01*
X55079665Y-127405456D01*
X54886752Y-127759374D01*
X54745162Y-128027047D01*
X54667790Y-128185552D01*
X54657751Y-128218974D01*
X54752003Y-128233801D01*
X54985615Y-128248290D01*
X55328620Y-128261196D01*
X55751047Y-128271274D01*
X56011351Y-128275221D01*
X56451909Y-128276402D01*
X56817071Y-128269324D01*
X57080859Y-128255160D01*
X57217300Y-128235084D01*
X57226742Y-128220322D01*
X57217195Y-128183574D01*
X57340500Y-128199942D01*
X57510216Y-128222416D01*
X57804244Y-128243859D01*
X58177568Y-128261502D01*
X58492125Y-128270786D01*
X59432083Y-128291167D01*
X59169458Y-128029678D01*
X58862422Y-127759735D01*
X58617175Y-127629595D01*
X58414568Y-127630320D01*
X58362380Y-127653020D01*
X58171905Y-127686734D01*
X58038274Y-127593349D01*
X58005327Y-127451160D01*
X56380739Y-127451160D01*
X56282484Y-127534785D01*
X56092308Y-127663447D01*
X55905176Y-127780246D01*
X55831016Y-127812470D01*
X55841820Y-127769343D01*
X55859205Y-127740231D01*
X55965331Y-127646927D01*
X56155080Y-127531611D01*
X56181702Y-127517797D01*
X56349032Y-127442422D01*
X56380739Y-127451160D01*
X58005327Y-127451160D01*
X57996648Y-127413708D01*
X58034563Y-127272259D01*
X58140453Y-127109598D01*
X56995995Y-127109598D01*
X56909647Y-127185441D01*
X56769000Y-127269073D01*
X56588167Y-127365123D01*
X56511317Y-127394593D01*
X56494047Y-127372480D01*
X56493833Y-127362008D01*
X56560777Y-127300293D01*
X56724307Y-127202838D01*
X56747833Y-127190500D01*
X56940581Y-127105805D01*
X56995995Y-127109598D01*
X58140453Y-127109598D01*
X58150611Y-127093995D01*
X58259441Y-127084769D01*
X58314166Y-127148167D01*
X58294973Y-127220650D01*
X58234497Y-127232834D01*
X58118568Y-127270996D01*
X58102500Y-127305759D01*
X58172215Y-127348821D01*
X58293000Y-127342550D01*
X58495346Y-127376029D01*
X58762568Y-127547748D01*
X58836133Y-127608725D01*
X59070145Y-127786442D01*
X59202921Y-127831059D01*
X59231615Y-127804768D01*
X59269608Y-127764854D01*
X59281149Y-127833545D01*
X59345304Y-127990006D01*
X59454091Y-128119050D01*
X59504041Y-128162307D01*
X59559800Y-128197847D01*
X59637090Y-128226285D01*
X59751634Y-128248236D01*
X59919156Y-128264313D01*
X60155377Y-128275131D01*
X60476022Y-128281305D01*
X60896814Y-128283448D01*
X61433474Y-128282175D01*
X62101727Y-128278101D01*
X62917295Y-128271839D01*
X63288333Y-128268859D01*
X63954287Y-128262382D01*
X64562805Y-128254310D01*
X65094080Y-128245074D01*
X65528305Y-128235108D01*
X65845673Y-128224842D01*
X66026377Y-128214709D01*
X66061166Y-128208404D01*
X66020079Y-128127043D01*
X65923524Y-127952500D01*
X63182500Y-127952500D01*
X63140166Y-127994834D01*
X63097833Y-127952500D01*
X63140166Y-127910167D01*
X63182500Y-127952500D01*
X65923524Y-127952500D01*
X65902970Y-127915345D01*
X65719072Y-127589283D01*
X65477617Y-127164828D01*
X65339015Y-126922389D01*
X57312278Y-126922389D01*
X57300655Y-126972723D01*
X57255833Y-126978834D01*
X57186143Y-126947855D01*
X57199389Y-126922389D01*
X57299868Y-126912256D01*
X57312278Y-126922389D01*
X65339015Y-126922389D01*
X65298678Y-126851834D01*
X60727166Y-126851834D01*
X60684833Y-126894167D01*
X60642500Y-126851834D01*
X60684833Y-126809500D01*
X60727166Y-126851834D01*
X65298678Y-126851834D01*
X65201870Y-126682500D01*
X60557833Y-126682500D01*
X60515500Y-126724834D01*
X60473166Y-126682500D01*
X57679166Y-126682500D01*
X57636833Y-126724834D01*
X57594500Y-126682500D01*
X57636833Y-126640167D01*
X57679166Y-126682500D01*
X60473166Y-126682500D01*
X60515500Y-126640167D01*
X60557833Y-126682500D01*
X65201870Y-126682500D01*
X65187834Y-126657950D01*
X65104783Y-126513167D01*
X58017833Y-126513167D01*
X57975500Y-126555500D01*
X57933166Y-126513167D01*
X57975500Y-126470834D01*
X58017833Y-126513167D01*
X65104783Y-126513167D01*
X65056215Y-126428500D01*
X58187166Y-126428500D01*
X58144833Y-126470834D01*
X58102500Y-126428500D01*
X58144833Y-126386167D01*
X58187166Y-126428500D01*
X65056215Y-126428500D01*
X64899559Y-126155404D01*
X58592284Y-126155404D01*
X58577697Y-126181683D01*
X58488484Y-126254496D01*
X58337445Y-126365526D01*
X58277705Y-126375265D01*
X58271833Y-126346812D01*
X58338330Y-126284773D01*
X58462333Y-126215142D01*
X58592284Y-126155404D01*
X64899559Y-126155404D01*
X64858956Y-126084623D01*
X64837608Y-126047500D01*
X59033833Y-126047500D01*
X59002855Y-126117190D01*
X58977389Y-126103945D01*
X58975966Y-126089834D01*
X58779833Y-126089834D01*
X58737500Y-126132167D01*
X58695166Y-126089834D01*
X58737500Y-126047500D01*
X58779833Y-126089834D01*
X58975966Y-126089834D01*
X58967256Y-126003465D01*
X58977389Y-125991056D01*
X59027723Y-126002678D01*
X59033833Y-126047500D01*
X64837608Y-126047500D01*
X64667192Y-125751167D01*
X64198500Y-125751167D01*
X64156166Y-125793500D01*
X64113833Y-125751167D01*
X59541833Y-125751167D01*
X59499500Y-125793500D01*
X59457166Y-125751167D01*
X59499500Y-125708834D01*
X59541833Y-125751167D01*
X64113833Y-125751167D01*
X64156166Y-125708834D01*
X64198500Y-125751167D01*
X64667192Y-125751167D01*
X64573106Y-125587563D01*
X64079190Y-125587563D01*
X64043943Y-125590966D01*
X64036666Y-125581834D01*
X59372500Y-125581834D01*
X59330166Y-125624167D01*
X59287833Y-125581834D01*
X59330166Y-125539500D01*
X59372500Y-125581834D01*
X64036666Y-125581834D01*
X63968781Y-125496647D01*
X63868932Y-125330391D01*
X59699613Y-125330391D01*
X59682969Y-125408421D01*
X59624048Y-125458141D01*
X59487684Y-125531648D01*
X59479252Y-125496144D01*
X59543531Y-125410454D01*
X59651217Y-125326065D01*
X59699613Y-125330391D01*
X63868932Y-125330391D01*
X63852104Y-125302372D01*
X63778862Y-125165686D01*
X63671134Y-124989167D01*
X60219166Y-124989167D01*
X60176833Y-125031500D01*
X58864500Y-125031500D01*
X58833522Y-125101190D01*
X58808055Y-125087945D01*
X58797922Y-124987465D01*
X58808055Y-124975056D01*
X58858390Y-124986678D01*
X58864500Y-125031500D01*
X60176833Y-125031500D01*
X60134500Y-124989167D01*
X60176833Y-124946834D01*
X60219166Y-124989167D01*
X63671134Y-124989167D01*
X63652387Y-124958450D01*
X63542244Y-124843386D01*
X63496034Y-124835366D01*
X63450395Y-124833001D01*
X63466530Y-124797408D01*
X63466232Y-124777500D01*
X58779833Y-124777500D01*
X58748855Y-124847190D01*
X58723389Y-124833945D01*
X58713256Y-124733465D01*
X58723389Y-124721056D01*
X58773723Y-124732678D01*
X58779833Y-124777500D01*
X63466232Y-124777500D01*
X63464579Y-124667290D01*
X63416111Y-124590552D01*
X63234856Y-124341070D01*
X63122490Y-124084480D01*
X63106141Y-123973167D01*
X57679166Y-123973167D01*
X57636833Y-124015500D01*
X57594500Y-123973167D01*
X57636833Y-123930834D01*
X57679166Y-123973167D01*
X63106141Y-123973167D01*
X63103200Y-123953149D01*
X63118639Y-123871509D01*
X63163944Y-123942930D01*
X63183536Y-123990003D01*
X63301959Y-124193073D01*
X63432170Y-124349837D01*
X63558439Y-124503325D01*
X63605833Y-124609849D01*
X63647530Y-124729809D01*
X63752252Y-124928426D01*
X63802519Y-125012016D01*
X63955931Y-125276114D01*
X64052163Y-125477575D01*
X64079190Y-125587563D01*
X64573106Y-125587563D01*
X64500215Y-125460816D01*
X64120841Y-124802502D01*
X63730067Y-124125651D01*
X63557881Y-123827934D01*
X62999550Y-123827934D01*
X62956792Y-123791653D01*
X62933651Y-123761500D01*
X62847247Y-123634500D01*
X61404500Y-123634500D01*
X61362166Y-123676834D01*
X61319833Y-123634500D01*
X58441166Y-123634500D01*
X58398833Y-123676834D01*
X58356500Y-123634500D01*
X58398833Y-123592167D01*
X58441166Y-123634500D01*
X61319833Y-123634500D01*
X61362166Y-123592167D01*
X61404500Y-123634500D01*
X62847247Y-123634500D01*
X62804490Y-123571656D01*
X62757882Y-123494797D01*
X62741862Y-123422834D01*
X62166500Y-123422834D01*
X62135522Y-123492524D01*
X62110055Y-123479278D01*
X62108632Y-123465167D01*
X61743166Y-123465167D01*
X61700833Y-123507500D01*
X61658500Y-123465167D01*
X61700833Y-123422834D01*
X61743166Y-123465167D01*
X62108632Y-123465167D01*
X62099922Y-123378798D01*
X62110055Y-123366389D01*
X62160390Y-123378011D01*
X62166500Y-123422834D01*
X62741862Y-123422834D01*
X62727986Y-123360509D01*
X62784908Y-123313916D01*
X62878807Y-123344527D01*
X62898118Y-123411286D01*
X62932236Y-123607111D01*
X62966581Y-123719167D01*
X62999550Y-123827934D01*
X63557881Y-123827934D01*
X63337123Y-123446235D01*
X63199785Y-123209197D01*
X62705197Y-123209197D01*
X62685145Y-123255835D01*
X62608117Y-123196909D01*
X62497019Y-123046922D01*
X62410303Y-122893667D01*
X62305167Y-122704085D01*
X58488241Y-122704085D01*
X58470967Y-122751778D01*
X58443379Y-122703167D01*
X58384668Y-122489621D01*
X58362451Y-122286889D01*
X58366899Y-122109023D01*
X58389232Y-122088583D01*
X58424132Y-122215260D01*
X58466282Y-122478745D01*
X58467979Y-122491500D01*
X58488241Y-122704085D01*
X62305167Y-122704085D01*
X62259797Y-122622274D01*
X62061836Y-122296488D01*
X61913445Y-122068167D01*
X61827718Y-121927056D01*
X58751611Y-121927056D01*
X58739989Y-121977390D01*
X58695166Y-121983500D01*
X58625476Y-121952522D01*
X58638722Y-121927056D01*
X58739202Y-121916923D01*
X58751611Y-121927056D01*
X61827718Y-121927056D01*
X61758656Y-121813378D01*
X61660477Y-121601966D01*
X61640012Y-121484882D01*
X61635283Y-121410238D01*
X61571735Y-121434463D01*
X61502821Y-121454914D01*
X61524268Y-121402534D01*
X61621834Y-121342208D01*
X61705410Y-121398655D01*
X61709262Y-121526398D01*
X61713324Y-121630017D01*
X61748552Y-121644834D01*
X61848362Y-121712595D01*
X61896104Y-121793000D01*
X62011609Y-122022899D01*
X62157749Y-122259635D01*
X62302195Y-122456477D01*
X62412616Y-122566694D01*
X62437921Y-122576167D01*
X62487381Y-122638093D01*
X62474549Y-122703167D01*
X62462669Y-122813045D01*
X62486657Y-122830827D01*
X62562797Y-122899260D01*
X62645367Y-123042494D01*
X62705197Y-123209197D01*
X63199785Y-123209197D01*
X62951241Y-122780226D01*
X62581653Y-122143594D01*
X62237590Y-121552311D01*
X61970394Y-121094500D01*
X61658500Y-121094500D01*
X61616166Y-121136834D01*
X61573833Y-121094500D01*
X61616166Y-121052167D01*
X61658500Y-121094500D01*
X61970394Y-121094500D01*
X61928283Y-121022349D01*
X61662964Y-120569678D01*
X61450864Y-120210271D01*
X61301215Y-119960098D01*
X61223248Y-119835131D01*
X61215274Y-119824500D01*
X61186189Y-119824623D01*
X61234111Y-119941937D01*
X61236944Y-119947453D01*
X61298158Y-120113834D01*
X61250617Y-120186190D01*
X61247308Y-120187342D01*
X61164536Y-120274205D01*
X61161055Y-120394373D01*
X61237868Y-120459292D01*
X61244225Y-120459500D01*
X61305499Y-120519180D01*
X61297167Y-120565779D01*
X61310448Y-120692422D01*
X61399846Y-120800972D01*
X61506993Y-120830180D01*
X61533947Y-120814244D01*
X61551943Y-120829235D01*
X61512076Y-120925167D01*
X61459826Y-121116540D01*
X61467055Y-121221500D01*
X61455211Y-121256082D01*
X61372272Y-121166221D01*
X61366043Y-121157852D01*
X61279751Y-120991995D01*
X61276992Y-120883655D01*
X61263191Y-120835708D01*
X61197231Y-120850528D01*
X61098165Y-120845303D01*
X61066122Y-120705545D01*
X61065833Y-120680225D01*
X61037938Y-120516828D01*
X60981166Y-120459500D01*
X60906052Y-120390924D01*
X60896500Y-120332500D01*
X60847054Y-120219888D01*
X60804778Y-120205500D01*
X60743553Y-120145162D01*
X60750828Y-120099667D01*
X60745792Y-119961479D01*
X60680994Y-119785531D01*
X60587924Y-119632659D01*
X60498073Y-119563702D01*
X60476006Y-119568745D01*
X60399744Y-119527042D01*
X60285932Y-119369999D01*
X60210903Y-119233445D01*
X60099773Y-119020619D01*
X60023038Y-118891780D01*
X60003478Y-118872598D01*
X59908270Y-119012867D01*
G36*
X68904201Y-123684243D02*
G01*
X68864233Y-123766172D01*
X68767582Y-123979815D01*
X68624546Y-124301538D01*
X68445422Y-124707705D01*
X68240507Y-125174684D01*
X68020099Y-125678838D01*
X67794495Y-126196535D01*
X67573992Y-126704140D01*
X67368889Y-127178018D01*
X67189481Y-127594535D01*
X67046067Y-127930057D01*
X66948944Y-128160950D01*
X66908409Y-128263579D01*
X66907833Y-128266271D01*
X66987037Y-128275895D01*
X67202804Y-128283789D01*
X67522366Y-128289148D01*
X67912956Y-128291166D01*
X67920948Y-128291167D01*
X68934064Y-128291167D01*
X68938203Y-127952500D01*
X68177833Y-127952500D01*
X68135500Y-127994834D01*
X68093166Y-127952500D01*
X68135500Y-127910167D01*
X68177833Y-127952500D01*
X68938203Y-127952500D01*
X68941308Y-127698500D01*
X67585166Y-127698500D01*
X67542833Y-127740834D01*
X67500500Y-127698500D01*
X67542833Y-127656167D01*
X67585166Y-127698500D01*
X68941308Y-127698500D01*
X68946483Y-127275167D01*
X68685833Y-127275167D01*
X68643500Y-127317500D01*
X68601166Y-127275167D01*
X68643500Y-127232834D01*
X68685833Y-127275167D01*
X68946483Y-127275167D01*
X68958115Y-126323603D01*
X68965057Y-125697070D01*
X68967732Y-125220258D01*
X68964874Y-124873583D01*
X68956142Y-124660037D01*
X68826063Y-124660037D01*
X68812833Y-124692834D01*
X68736751Y-124773604D01*
X68723170Y-124777500D01*
X68686804Y-124711994D01*
X68685833Y-124692834D01*
X68750921Y-124611420D01*
X68775497Y-124608167D01*
X68826063Y-124660037D01*
X68956142Y-124660037D01*
X68955218Y-124637458D01*
X68937497Y-124492298D01*
X68910446Y-124418519D01*
X68872799Y-124396534D01*
X68834000Y-124403142D01*
X68711756Y-124402542D01*
X68685833Y-124359872D01*
X68754318Y-124279730D01*
X68812833Y-124269500D01*
X68904757Y-124208330D01*
X68939082Y-124010246D01*
X68939833Y-123959056D01*
X68931450Y-123767961D01*
X68910660Y-123682930D01*
X68904201Y-123684243D01*
G37*
X68904201Y-123684243D02*
X68864233Y-123766172D01*
X68767582Y-123979815D01*
X68624546Y-124301538D01*
X68445422Y-124707705D01*
X68240507Y-125174684D01*
X68020099Y-125678838D01*
X67794495Y-126196535D01*
X67573992Y-126704140D01*
X67368889Y-127178018D01*
X67189481Y-127594535D01*
X67046067Y-127930057D01*
X66948944Y-128160950D01*
X66908409Y-128263579D01*
X66907833Y-128266271D01*
X66987037Y-128275895D01*
X67202804Y-128283789D01*
X67522366Y-128289148D01*
X67912956Y-128291166D01*
X67920948Y-128291167D01*
X68934064Y-128291167D01*
X68938203Y-127952500D01*
X68177833Y-127952500D01*
X68135500Y-127994834D01*
X68093166Y-127952500D01*
X68135500Y-127910167D01*
X68177833Y-127952500D01*
X68938203Y-127952500D01*
X68941308Y-127698500D01*
X67585166Y-127698500D01*
X67542833Y-127740834D01*
X67500500Y-127698500D01*
X67542833Y-127656167D01*
X67585166Y-127698500D01*
X68941308Y-127698500D01*
X68946483Y-127275167D01*
X68685833Y-127275167D01*
X68643500Y-127317500D01*
X68601166Y-127275167D01*
X68643500Y-127232834D01*
X68685833Y-127275167D01*
X68946483Y-127275167D01*
X68958115Y-126323603D01*
X68965057Y-125697070D01*
X68967732Y-125220258D01*
X68964874Y-124873583D01*
X68956142Y-124660037D01*
X68826063Y-124660037D01*
X68812833Y-124692834D01*
X68736751Y-124773604D01*
X68723170Y-124777500D01*
X68686804Y-124711994D01*
X68685833Y-124692834D01*
X68750921Y-124611420D01*
X68775497Y-124608167D01*
X68826063Y-124660037D01*
X68956142Y-124660037D01*
X68955218Y-124637458D01*
X68937497Y-124492298D01*
X68910446Y-124418519D01*
X68872799Y-124396534D01*
X68834000Y-124403142D01*
X68711756Y-124402542D01*
X68685833Y-124359872D01*
X68754318Y-124279730D01*
X68812833Y-124269500D01*
X68904757Y-124208330D01*
X68939082Y-124010246D01*
X68939833Y-123959056D01*
X68931450Y-123767961D01*
X68910660Y-123682930D01*
X68904201Y-123684243D01*
G36*
X59834231Y-128758857D02*
G01*
X59341702Y-128764534D01*
X58934078Y-128773270D01*
X58634996Y-128784473D01*
X58468095Y-128797552D01*
X58441166Y-128805642D01*
X58487775Y-128886709D01*
X58615247Y-129077359D01*
X58805050Y-129351715D01*
X59038651Y-129683898D01*
X59297520Y-130048033D01*
X59563123Y-130418241D01*
X59816930Y-130768646D01*
X60040407Y-131073369D01*
X60215023Y-131306534D01*
X60322246Y-131442263D01*
X60346498Y-131466167D01*
X60412997Y-131405111D01*
X60538506Y-131252593D01*
X60585345Y-131191000D01*
X60706581Y-131025732D01*
X60903103Y-130754544D01*
X61151866Y-130409374D01*
X61223878Y-130309056D01*
X60360278Y-130309056D01*
X60348655Y-130359390D01*
X60303833Y-130365500D01*
X60234143Y-130334522D01*
X60247389Y-130309056D01*
X60347868Y-130298923D01*
X60360278Y-130309056D01*
X61223878Y-130309056D01*
X61421234Y-130034127D01*
X59675565Y-130034127D01*
X59675275Y-130062303D01*
X59651172Y-130253507D01*
X59603366Y-130284331D01*
X59550680Y-130158304D01*
X59527987Y-130034704D01*
X59538757Y-129867741D01*
X59590608Y-129799723D01*
X59652212Y-129851080D01*
X59675565Y-130034127D01*
X61421234Y-130034127D01*
X61429825Y-130022160D01*
X61562849Y-129836334D01*
X61941300Y-129307167D01*
X60727166Y-129307167D01*
X60684833Y-129349500D01*
X60642500Y-129307167D01*
X59457166Y-129307167D01*
X59414833Y-129349500D01*
X59372500Y-129307167D01*
X59414833Y-129264834D01*
X59457166Y-129307167D01*
X60642500Y-129307167D01*
X60684833Y-129264834D01*
X60727166Y-129307167D01*
X61941300Y-129307167D01*
X62334889Y-128756834D01*
X60388028Y-128756834D01*
X59834231Y-128758857D01*
G37*
X59834231Y-128758857D02*
X59341702Y-128764534D01*
X58934078Y-128773270D01*
X58634996Y-128784473D01*
X58468095Y-128797552D01*
X58441166Y-128805642D01*
X58487775Y-128886709D01*
X58615247Y-129077359D01*
X58805050Y-129351715D01*
X59038651Y-129683898D01*
X59297520Y-130048033D01*
X59563123Y-130418241D01*
X59816930Y-130768646D01*
X60040407Y-131073369D01*
X60215023Y-131306534D01*
X60322246Y-131442263D01*
X60346498Y-131466167D01*
X60412997Y-131405111D01*
X60538506Y-131252593D01*
X60585345Y-131191000D01*
X60706581Y-131025732D01*
X60903103Y-130754544D01*
X61151866Y-130409374D01*
X61223878Y-130309056D01*
X60360278Y-130309056D01*
X60348655Y-130359390D01*
X60303833Y-130365500D01*
X60234143Y-130334522D01*
X60247389Y-130309056D01*
X60347868Y-130298923D01*
X60360278Y-130309056D01*
X61223878Y-130309056D01*
X61421234Y-130034127D01*
X59675565Y-130034127D01*
X59675275Y-130062303D01*
X59651172Y-130253507D01*
X59603366Y-130284331D01*
X59550680Y-130158304D01*
X59527987Y-130034704D01*
X59538757Y-129867741D01*
X59590608Y-129799723D01*
X59652212Y-129851080D01*
X59675565Y-130034127D01*
X61421234Y-130034127D01*
X61429825Y-130022160D01*
X61562849Y-129836334D01*
X61941300Y-129307167D01*
X60727166Y-129307167D01*
X60684833Y-129349500D01*
X60642500Y-129307167D01*
X59457166Y-129307167D01*
X59414833Y-129349500D01*
X59372500Y-129307167D01*
X59414833Y-129264834D01*
X59457166Y-129307167D01*
X60642500Y-129307167D01*
X60684833Y-129264834D01*
X60727166Y-129307167D01*
X61941300Y-129307167D01*
X62334889Y-128756834D01*
X60388028Y-128756834D01*
X59834231Y-128758857D01*
G36*
X51680251Y-131527749D02*
G01*
X51667833Y-131588170D01*
X51695736Y-131710499D01*
X51769048Y-131673828D01*
X51791217Y-131641350D01*
X51780600Y-131532611D01*
X51753881Y-131509354D01*
X51680251Y-131527749D01*
G37*
X51680251Y-131527749D02*
X51667833Y-131588170D01*
X51695736Y-131710499D01*
X51769048Y-131673828D01*
X51791217Y-131641350D01*
X51780600Y-131532611D01*
X51753881Y-131509354D01*
X51680251Y-131527749D01*
G36*
X51682989Y-129518834D02*
G01*
X51702199Y-129889555D01*
X51735045Y-130150267D01*
X51777845Y-130275062D01*
X51791444Y-130282130D01*
X51826494Y-130312108D01*
X51786443Y-130345630D01*
X51735461Y-130458487D01*
X51701512Y-130684428D01*
X51693036Y-130888042D01*
X51703125Y-131173697D01*
X51741635Y-131331070D01*
X51820134Y-131400373D01*
X51842453Y-131407415D01*
X52028589Y-131393013D01*
X52103925Y-131350540D01*
X52128103Y-131344870D01*
X52057094Y-131443952D01*
X52005232Y-131507766D01*
X51851499Y-131684934D01*
X51738280Y-131801723D01*
X51723925Y-131813675D01*
X51679931Y-131929035D01*
X51682593Y-132068408D01*
X51712168Y-132270500D01*
X51850352Y-132058834D01*
X51958321Y-131882879D01*
X52116556Y-131612580D01*
X52293553Y-131301875D01*
X52320120Y-131254500D01*
X52416376Y-131085167D01*
X51921833Y-131085167D01*
X51879500Y-131127500D01*
X51837166Y-131085167D01*
X51879500Y-131042834D01*
X51921833Y-131085167D01*
X52416376Y-131085167D01*
X52499855Y-130938312D01*
X52668357Y-130650512D01*
X52792693Y-130447225D01*
X52804506Y-130429000D01*
X52901387Y-130256718D01*
X52892177Y-130205709D01*
X52786942Y-130274032D01*
X52595746Y-130459749D01*
X52584814Y-130471334D01*
X52441172Y-130607597D01*
X52365637Y-130646019D01*
X52363150Y-130619500D01*
X52449118Y-130496917D01*
X52453749Y-130492500D01*
X51837166Y-130492500D01*
X51794833Y-130534834D01*
X51752500Y-130492500D01*
X51794833Y-130450167D01*
X51837166Y-130492500D01*
X52453749Y-130492500D01*
X52625802Y-130328401D01*
X52738123Y-130238500D01*
X52900258Y-130079792D01*
X53099177Y-129833765D01*
X53306671Y-129542552D01*
X53494534Y-129248282D01*
X53634559Y-128993089D01*
X53698537Y-128819101D01*
X53699833Y-128802061D01*
X53620617Y-128784621D01*
X53404753Y-128770304D01*
X53084919Y-128760559D01*
X52693793Y-128756837D01*
X52681211Y-128756834D01*
X51662589Y-128756834D01*
X51682989Y-129518834D01*
G37*
X51682989Y-129518834D02*
X51702199Y-129889555D01*
X51735045Y-130150267D01*
X51777845Y-130275062D01*
X51791444Y-130282130D01*
X51826494Y-130312108D01*
X51786443Y-130345630D01*
X51735461Y-130458487D01*
X51701512Y-130684428D01*
X51693036Y-130888042D01*
X51703125Y-131173697D01*
X51741635Y-131331070D01*
X51820134Y-131400373D01*
X51842453Y-131407415D01*
X52028589Y-131393013D01*
X52103925Y-131350540D01*
X52128103Y-131344870D01*
X52057094Y-131443952D01*
X52005232Y-131507766D01*
X51851499Y-131684934D01*
X51738280Y-131801723D01*
X51723925Y-131813675D01*
X51679931Y-131929035D01*
X51682593Y-132068408D01*
X51712168Y-132270500D01*
X51850352Y-132058834D01*
X51958321Y-131882879D01*
X52116556Y-131612580D01*
X52293553Y-131301875D01*
X52320120Y-131254500D01*
X52416376Y-131085167D01*
X51921833Y-131085167D01*
X51879500Y-131127500D01*
X51837166Y-131085167D01*
X51879500Y-131042834D01*
X51921833Y-131085167D01*
X52416376Y-131085167D01*
X52499855Y-130938312D01*
X52668357Y-130650512D01*
X52792693Y-130447225D01*
X52804506Y-130429000D01*
X52901387Y-130256718D01*
X52892177Y-130205709D01*
X52786942Y-130274032D01*
X52595746Y-130459749D01*
X52584814Y-130471334D01*
X52441172Y-130607597D01*
X52365637Y-130646019D01*
X52363150Y-130619500D01*
X52449118Y-130496917D01*
X52453749Y-130492500D01*
X51837166Y-130492500D01*
X51794833Y-130534834D01*
X51752500Y-130492500D01*
X51794833Y-130450167D01*
X51837166Y-130492500D01*
X52453749Y-130492500D01*
X52625802Y-130328401D01*
X52738123Y-130238500D01*
X52900258Y-130079792D01*
X53099177Y-129833765D01*
X53306671Y-129542552D01*
X53494534Y-129248282D01*
X53634559Y-128993089D01*
X53698537Y-128819101D01*
X53699833Y-128802061D01*
X53620617Y-128784621D01*
X53404753Y-128770304D01*
X53084919Y-128760559D01*
X52693793Y-128756837D01*
X52681211Y-128756834D01*
X51662589Y-128756834D01*
X51682989Y-129518834D01*
G36*
X67192863Y-129243667D02*
G01*
X67490127Y-129763295D01*
X67777823Y-130256967D01*
X68042121Y-130701757D01*
X68269194Y-131074738D01*
X68445214Y-131352983D01*
X68556352Y-131513566D01*
X68575313Y-131535714D01*
X68670770Y-131687862D01*
X68685833Y-131759168D01*
X68735634Y-131903945D01*
X68834000Y-132053761D01*
X68916545Y-132147409D01*
X68959288Y-132149536D01*
X68973149Y-132035050D01*
X68969050Y-131778856D01*
X68968106Y-131745641D01*
X68959007Y-131432788D01*
X68950755Y-131157386D01*
X68946940Y-131035257D01*
X68869764Y-130821793D01*
X68719863Y-130715789D01*
X68564463Y-130600729D01*
X68545774Y-130496002D01*
X68532578Y-130371255D01*
X68490577Y-130340228D01*
X68438450Y-130265058D01*
X68457603Y-130231377D01*
X68550220Y-130227584D01*
X68602682Y-130283285D01*
X68735447Y-130394988D01*
X68876184Y-130385069D01*
X68939833Y-130308706D01*
X68956128Y-130181260D01*
X68962719Y-129931031D01*
X68959273Y-129645834D01*
X68516500Y-129645834D01*
X68474166Y-129688167D01*
X68431833Y-129645834D01*
X68474166Y-129603500D01*
X68516500Y-129645834D01*
X68959273Y-129645834D01*
X68958771Y-129604336D01*
X68954779Y-129481428D01*
X68927392Y-128756834D01*
X66917028Y-128756834D01*
X67192863Y-129243667D01*
G37*
X67192863Y-129243667D02*
X67490127Y-129763295D01*
X67777823Y-130256967D01*
X68042121Y-130701757D01*
X68269194Y-131074738D01*
X68445214Y-131352983D01*
X68556352Y-131513566D01*
X68575313Y-131535714D01*
X68670770Y-131687862D01*
X68685833Y-131759168D01*
X68735634Y-131903945D01*
X68834000Y-132053761D01*
X68916545Y-132147409D01*
X68959288Y-132149536D01*
X68973149Y-132035050D01*
X68969050Y-131778856D01*
X68968106Y-131745641D01*
X68959007Y-131432788D01*
X68950755Y-131157386D01*
X68946940Y-131035257D01*
X68869764Y-130821793D01*
X68719863Y-130715789D01*
X68564463Y-130600729D01*
X68545774Y-130496002D01*
X68532578Y-130371255D01*
X68490577Y-130340228D01*
X68438450Y-130265058D01*
X68457603Y-130231377D01*
X68550220Y-130227584D01*
X68602682Y-130283285D01*
X68735447Y-130394988D01*
X68876184Y-130385069D01*
X68939833Y-130308706D01*
X68956128Y-130181260D01*
X68962719Y-129931031D01*
X68959273Y-129645834D01*
X68516500Y-129645834D01*
X68474166Y-129688167D01*
X68431833Y-129645834D01*
X68474166Y-129603500D01*
X68516500Y-129645834D01*
X68959273Y-129645834D01*
X68958771Y-129604336D01*
X68954779Y-129481428D01*
X68927392Y-128756834D01*
X66917028Y-128756834D01*
X67192863Y-129243667D01*
G36*
X50949447Y-127117058D02*
G01*
X50914582Y-127150270D01*
X50886654Y-127231290D01*
X50864929Y-127376603D01*
X50848676Y-127602691D01*
X50837163Y-127926040D01*
X50829658Y-128363133D01*
X50825430Y-128930455D01*
X50823745Y-129644490D01*
X50823620Y-129950734D01*
X50826089Y-130825631D01*
X50833614Y-131533379D01*
X50846262Y-132076089D01*
X50864101Y-132455869D01*
X50887197Y-132674832D01*
X50912003Y-132736167D01*
X50961476Y-132788106D01*
X50948166Y-132820834D01*
X50954879Y-132898852D01*
X50985503Y-132905500D01*
X51052322Y-132832925D01*
X51075166Y-132688837D01*
X51048976Y-132537889D01*
X50969333Y-132535756D01*
X50906249Y-132560576D01*
X50961883Y-132477574D01*
X50962478Y-132476837D01*
X50993184Y-132355966D01*
X50997452Y-132312834D01*
X50990500Y-132312834D01*
X50959522Y-132382524D01*
X50934055Y-132369278D01*
X50923922Y-132268798D01*
X50934055Y-132256389D01*
X50984390Y-132268011D01*
X50990500Y-132312834D01*
X50997452Y-132312834D01*
X51019210Y-132093002D01*
X51040455Y-131714851D01*
X51056812Y-131248419D01*
X51068180Y-130720614D01*
X51074454Y-130158341D01*
X51075530Y-129588507D01*
X51071304Y-129038018D01*
X51061674Y-128533782D01*
X51046534Y-128102705D01*
X51025781Y-127771692D01*
X50999312Y-127567651D01*
X50981606Y-127518451D01*
X50929087Y-127421781D01*
X50980133Y-127402167D01*
X51057709Y-127331477D01*
X51075166Y-127235491D01*
X51033740Y-127114023D01*
X50949447Y-127117058D01*
G37*
X50949447Y-127117058D02*
X50914582Y-127150270D01*
X50886654Y-127231290D01*
X50864929Y-127376603D01*
X50848676Y-127602691D01*
X50837163Y-127926040D01*
X50829658Y-128363133D01*
X50825430Y-128930455D01*
X50823745Y-129644490D01*
X50823620Y-129950734D01*
X50826089Y-130825631D01*
X50833614Y-131533379D01*
X50846262Y-132076089D01*
X50864101Y-132455869D01*
X50887197Y-132674832D01*
X50912003Y-132736167D01*
X50961476Y-132788106D01*
X50948166Y-132820834D01*
X50954879Y-132898852D01*
X50985503Y-132905500D01*
X51052322Y-132832925D01*
X51075166Y-132688837D01*
X51048976Y-132537889D01*
X50969333Y-132535756D01*
X50906249Y-132560576D01*
X50961883Y-132477574D01*
X50962478Y-132476837D01*
X50993184Y-132355966D01*
X50997452Y-132312834D01*
X50990500Y-132312834D01*
X50959522Y-132382524D01*
X50934055Y-132369278D01*
X50923922Y-132268798D01*
X50934055Y-132256389D01*
X50984390Y-132268011D01*
X50990500Y-132312834D01*
X50997452Y-132312834D01*
X51019210Y-132093002D01*
X51040455Y-131714851D01*
X51056812Y-131248419D01*
X51068180Y-130720614D01*
X51074454Y-130158341D01*
X51075530Y-129588507D01*
X51071304Y-129038018D01*
X51061674Y-128533782D01*
X51046534Y-128102705D01*
X51025781Y-127771692D01*
X50999312Y-127567651D01*
X50981606Y-127518451D01*
X50929087Y-127421781D01*
X50980133Y-127402167D01*
X51057709Y-127331477D01*
X51075166Y-127235491D01*
X51033740Y-127114023D01*
X50949447Y-127117058D01*
G36*
X55683227Y-128758786D02*
G01*
X55239985Y-128764227D01*
X54885829Y-128772531D01*
X54646487Y-128783074D01*
X54547689Y-128795230D01*
X54546500Y-128796753D01*
X54579120Y-128888591D01*
X54664205Y-129088651D01*
X54770745Y-129325919D01*
X54891267Y-129594172D01*
X54981089Y-129803953D01*
X55017418Y-129899834D01*
X55057121Y-130000690D01*
X55154253Y-130230899D01*
X55297829Y-130564914D01*
X55476864Y-130977188D01*
X55680374Y-131442176D01*
X55690914Y-131466167D01*
X55947058Y-132050827D01*
X56228399Y-132695893D01*
X56508749Y-133341139D01*
X56761920Y-133926341D01*
X56884988Y-134212192D01*
X57069048Y-134638681D01*
X57229750Y-135007107D01*
X57355351Y-135290860D01*
X57434107Y-135463328D01*
X57454825Y-135503381D01*
X57511485Y-135452679D01*
X57635267Y-135294023D01*
X57800171Y-135060890D01*
X57812101Y-135043356D01*
X57983707Y-134794353D01*
X58119170Y-134604825D01*
X58189833Y-134514840D01*
X58190573Y-134514167D01*
X57848500Y-134514167D01*
X57817522Y-134583857D01*
X57792055Y-134570611D01*
X57781922Y-134470132D01*
X57792055Y-134457722D01*
X57842390Y-134469345D01*
X57848500Y-134514167D01*
X58190573Y-134514167D01*
X58264358Y-134429500D01*
X57594500Y-134429500D01*
X57563522Y-134499190D01*
X57538055Y-134485945D01*
X57527922Y-134385465D01*
X57538055Y-134373056D01*
X57588390Y-134384678D01*
X57594500Y-134429500D01*
X58264358Y-134429500D01*
X58293050Y-134396577D01*
X58462473Y-134172885D01*
X58679964Y-133870873D01*
X58881508Y-133582834D01*
X58187166Y-133582834D01*
X58156188Y-133652524D01*
X58130722Y-133639278D01*
X58120589Y-133538798D01*
X58130722Y-133526389D01*
X58181056Y-133538011D01*
X58187166Y-133582834D01*
X58881508Y-133582834D01*
X58926647Y-133518324D01*
X59110959Y-133249164D01*
X57255833Y-133249164D01*
X57228625Y-133326092D01*
X57166190Y-133258981D01*
X57138861Y-133197436D01*
X57132944Y-133110037D01*
X57172136Y-133117766D01*
X57252824Y-133226167D01*
X57255833Y-133249164D01*
X59110959Y-133249164D01*
X59183641Y-133143023D01*
X59257795Y-133032500D01*
X58610500Y-133032500D01*
X58568166Y-133074834D01*
X58525833Y-133032500D01*
X58568166Y-132990167D01*
X58610500Y-133032500D01*
X59257795Y-133032500D01*
X59341421Y-132907859D01*
X56981249Y-132907859D01*
X56952477Y-133001530D01*
X56887550Y-133065637D01*
X56850513Y-133001872D01*
X56849879Y-132869696D01*
X56866014Y-132843764D01*
X56947440Y-132824036D01*
X56981249Y-132907859D01*
X59341421Y-132907859D01*
X59428214Y-132778500D01*
X57340500Y-132778500D01*
X57298166Y-132820834D01*
X57255833Y-132778500D01*
X57298166Y-132736167D01*
X57340500Y-132778500D01*
X59428214Y-132778500D01*
X59432071Y-132772752D01*
X59566917Y-132566834D01*
X57679166Y-132566834D01*
X57648188Y-132636524D01*
X57622722Y-132623278D01*
X57619478Y-132591103D01*
X57157519Y-132591103D01*
X57136918Y-132638418D01*
X57051668Y-132729312D01*
X57002657Y-132710666D01*
X57001833Y-132698830D01*
X57061970Y-132627218D01*
X57099582Y-132601082D01*
X57157519Y-132591103D01*
X57619478Y-132591103D01*
X57612589Y-132522798D01*
X57622722Y-132510389D01*
X57673056Y-132522011D01*
X57679166Y-132566834D01*
X59566917Y-132566834D01*
X59635618Y-132461925D01*
X58489112Y-132461925D01*
X58405889Y-132475483D01*
X58296075Y-132459916D01*
X58294764Y-132431014D01*
X58408081Y-132410803D01*
X58457041Y-132424330D01*
X58489112Y-132461925D01*
X59635618Y-132461925D01*
X59653057Y-132435295D01*
X59703607Y-132355167D01*
X57340500Y-132355167D01*
X57298166Y-132397500D01*
X57255833Y-132355167D01*
X57298166Y-132312834D01*
X57340500Y-132355167D01*
X59703607Y-132355167D01*
X59733792Y-132307321D01*
X57912408Y-132307321D01*
X57900827Y-132312834D01*
X57823561Y-132253230D01*
X57806166Y-132228167D01*
X57784592Y-132149013D01*
X57796173Y-132143500D01*
X57873438Y-132203104D01*
X57890833Y-132228167D01*
X57912408Y-132307321D01*
X59733792Y-132307321D01*
X59810435Y-132185834D01*
X58525833Y-132185834D01*
X58483500Y-132228167D01*
X58441166Y-132185834D01*
X58483500Y-132143500D01*
X58525833Y-132185834D01*
X59810435Y-132185834D01*
X59827721Y-132158435D01*
X59858818Y-132104891D01*
X57566278Y-132104891D01*
X57547808Y-132219929D01*
X57486509Y-132173208D01*
X57471116Y-132149350D01*
X57475378Y-132042612D01*
X57494341Y-132026075D01*
X57557366Y-132051151D01*
X57566278Y-132104891D01*
X59858818Y-132104891D01*
X59937186Y-131969955D01*
X59965166Y-131902444D01*
X59941717Y-131847167D01*
X57679166Y-131847167D01*
X57636833Y-131889500D01*
X57594500Y-131847167D01*
X57636833Y-131804834D01*
X57679166Y-131847167D01*
X59941717Y-131847167D01*
X59917687Y-131790521D01*
X59810745Y-131608231D01*
X57286330Y-131608231D01*
X57218301Y-131739006D01*
X57117191Y-131942533D01*
X57086500Y-132091400D01*
X57050973Y-132239045D01*
X56961841Y-132445803D01*
X56845278Y-132664915D01*
X56727459Y-132849622D01*
X56634556Y-132953165D01*
X56601900Y-132957123D01*
X56609946Y-132862112D01*
X56694203Y-132699192D01*
X56801690Y-132500670D01*
X56929260Y-132217406D01*
X57008088Y-132019217D01*
X57114648Y-131769084D01*
X57211870Y-131599143D01*
X57266717Y-131550834D01*
X57286330Y-131608231D01*
X59810745Y-131608231D01*
X59784880Y-131564143D01*
X59695144Y-131423834D01*
X58187166Y-131423834D01*
X58144833Y-131466167D01*
X58102500Y-131423834D01*
X58017833Y-131423834D01*
X57975500Y-131466167D01*
X57933166Y-131423834D01*
X57975500Y-131381500D01*
X58017833Y-131423834D01*
X58102500Y-131423834D01*
X58144833Y-131381500D01*
X58187166Y-131423834D01*
X59695144Y-131423834D01*
X59640994Y-131339167D01*
X57255833Y-131339167D01*
X57213500Y-131381500D01*
X57171166Y-131339167D01*
X57213500Y-131296834D01*
X57255833Y-131339167D01*
X59640994Y-131339167D01*
X59586844Y-131254500D01*
X58102500Y-131254500D01*
X58060166Y-131296834D01*
X58054654Y-131291321D01*
X57065741Y-131291321D01*
X57054160Y-131296834D01*
X56976895Y-131237230D01*
X56959500Y-131212167D01*
X56937925Y-131133013D01*
X56949506Y-131127500D01*
X57026772Y-131187104D01*
X57044166Y-131212167D01*
X57065741Y-131291321D01*
X58054654Y-131291321D01*
X58017833Y-131254500D01*
X58060166Y-131212167D01*
X58102500Y-131254500D01*
X59586844Y-131254500D01*
X59581195Y-131245669D01*
X59497172Y-131120267D01*
X56656989Y-131120267D01*
X56637105Y-131181651D01*
X56533426Y-131118368D01*
X56520040Y-131105326D01*
X56433191Y-130973529D01*
X56439976Y-130899135D01*
X56529419Y-130903556D01*
X56581807Y-130960619D01*
X56656989Y-131120267D01*
X59497172Y-131120267D01*
X59416924Y-131000500D01*
X58441166Y-131000500D01*
X58398833Y-131042834D01*
X58356500Y-131000500D01*
X58271833Y-131000500D01*
X58229500Y-131042834D01*
X58187166Y-131000500D01*
X58229500Y-130958167D01*
X58271833Y-131000500D01*
X58356500Y-131000500D01*
X58398833Y-130958167D01*
X58441166Y-131000500D01*
X59416924Y-131000500D01*
X59321081Y-130857459D01*
X59244128Y-130746500D01*
X56493833Y-130746500D01*
X56451500Y-130788834D01*
X56436411Y-130773745D01*
X56306790Y-130773745D01*
X56276840Y-130782149D01*
X56166550Y-130730025D01*
X56000426Y-130591679D01*
X55943500Y-130534834D01*
X55774801Y-130376023D01*
X55648594Y-130287457D01*
X55625278Y-130280834D01*
X55510396Y-130227041D01*
X55423405Y-130153834D01*
X55332413Y-130045271D01*
X55353801Y-130023267D01*
X55461978Y-130076210D01*
X55631351Y-130192487D01*
X55790102Y-130320214D01*
X55992253Y-130473162D01*
X56146050Y-130553170D01*
X56199916Y-130553047D01*
X56229275Y-130551503D01*
X56210547Y-130591102D01*
X56220272Y-130704525D01*
X56260472Y-130732585D01*
X56306790Y-130773745D01*
X56436411Y-130773745D01*
X56409166Y-130746500D01*
X56451500Y-130704167D01*
X56493833Y-130746500D01*
X59244128Y-130746500D01*
X59067969Y-130492500D01*
X58864500Y-130492500D01*
X58822166Y-130534834D01*
X58779833Y-130492500D01*
X58822166Y-130450167D01*
X58864500Y-130492500D01*
X59067969Y-130492500D01*
X59018987Y-130421874D01*
X58899160Y-130252751D01*
X57833154Y-128756834D01*
X56189827Y-128756834D01*
X55683227Y-128758786D01*
G37*
X55683227Y-128758786D02*
X55239985Y-128764227D01*
X54885829Y-128772531D01*
X54646487Y-128783074D01*
X54547689Y-128795230D01*
X54546500Y-128796753D01*
X54579120Y-128888591D01*
X54664205Y-129088651D01*
X54770745Y-129325919D01*
X54891267Y-129594172D01*
X54981089Y-129803953D01*
X55017418Y-129899834D01*
X55057121Y-130000690D01*
X55154253Y-130230899D01*
X55297829Y-130564914D01*
X55476864Y-130977188D01*
X55680374Y-131442176D01*
X55690914Y-131466167D01*
X55947058Y-132050827D01*
X56228399Y-132695893D01*
X56508749Y-133341139D01*
X56761920Y-133926341D01*
X56884988Y-134212192D01*
X57069048Y-134638681D01*
X57229750Y-135007107D01*
X57355351Y-135290860D01*
X57434107Y-135463328D01*
X57454825Y-135503381D01*
X57511485Y-135452679D01*
X57635267Y-135294023D01*
X57800171Y-135060890D01*
X57812101Y-135043356D01*
X57983707Y-134794353D01*
X58119170Y-134604825D01*
X58189833Y-134514840D01*
X58190573Y-134514167D01*
X57848500Y-134514167D01*
X57817522Y-134583857D01*
X57792055Y-134570611D01*
X57781922Y-134470132D01*
X57792055Y-134457722D01*
X57842390Y-134469345D01*
X57848500Y-134514167D01*
X58190573Y-134514167D01*
X58264358Y-134429500D01*
X57594500Y-134429500D01*
X57563522Y-134499190D01*
X57538055Y-134485945D01*
X57527922Y-134385465D01*
X57538055Y-134373056D01*
X57588390Y-134384678D01*
X57594500Y-134429500D01*
X58264358Y-134429500D01*
X58293050Y-134396577D01*
X58462473Y-134172885D01*
X58679964Y-133870873D01*
X58881508Y-133582834D01*
X58187166Y-133582834D01*
X58156188Y-133652524D01*
X58130722Y-133639278D01*
X58120589Y-133538798D01*
X58130722Y-133526389D01*
X58181056Y-133538011D01*
X58187166Y-133582834D01*
X58881508Y-133582834D01*
X58926647Y-133518324D01*
X59110959Y-133249164D01*
X57255833Y-133249164D01*
X57228625Y-133326092D01*
X57166190Y-133258981D01*
X57138861Y-133197436D01*
X57132944Y-133110037D01*
X57172136Y-133117766D01*
X57252824Y-133226167D01*
X57255833Y-133249164D01*
X59110959Y-133249164D01*
X59183641Y-133143023D01*
X59257795Y-133032500D01*
X58610500Y-133032500D01*
X58568166Y-133074834D01*
X58525833Y-133032500D01*
X58568166Y-132990167D01*
X58610500Y-133032500D01*
X59257795Y-133032500D01*
X59341421Y-132907859D01*
X56981249Y-132907859D01*
X56952477Y-133001530D01*
X56887550Y-133065637D01*
X56850513Y-133001872D01*
X56849879Y-132869696D01*
X56866014Y-132843764D01*
X56947440Y-132824036D01*
X56981249Y-132907859D01*
X59341421Y-132907859D01*
X59428214Y-132778500D01*
X57340500Y-132778500D01*
X57298166Y-132820834D01*
X57255833Y-132778500D01*
X57298166Y-132736167D01*
X57340500Y-132778500D01*
X59428214Y-132778500D01*
X59432071Y-132772752D01*
X59566917Y-132566834D01*
X57679166Y-132566834D01*
X57648188Y-132636524D01*
X57622722Y-132623278D01*
X57619478Y-132591103D01*
X57157519Y-132591103D01*
X57136918Y-132638418D01*
X57051668Y-132729312D01*
X57002657Y-132710666D01*
X57001833Y-132698830D01*
X57061970Y-132627218D01*
X57099582Y-132601082D01*
X57157519Y-132591103D01*
X57619478Y-132591103D01*
X57612589Y-132522798D01*
X57622722Y-132510389D01*
X57673056Y-132522011D01*
X57679166Y-132566834D01*
X59566917Y-132566834D01*
X59635618Y-132461925D01*
X58489112Y-132461925D01*
X58405889Y-132475483D01*
X58296075Y-132459916D01*
X58294764Y-132431014D01*
X58408081Y-132410803D01*
X58457041Y-132424330D01*
X58489112Y-132461925D01*
X59635618Y-132461925D01*
X59653057Y-132435295D01*
X59703607Y-132355167D01*
X57340500Y-132355167D01*
X57298166Y-132397500D01*
X57255833Y-132355167D01*
X57298166Y-132312834D01*
X57340500Y-132355167D01*
X59703607Y-132355167D01*
X59733792Y-132307321D01*
X57912408Y-132307321D01*
X57900827Y-132312834D01*
X57823561Y-132253230D01*
X57806166Y-132228167D01*
X57784592Y-132149013D01*
X57796173Y-132143500D01*
X57873438Y-132203104D01*
X57890833Y-132228167D01*
X57912408Y-132307321D01*
X59733792Y-132307321D01*
X59810435Y-132185834D01*
X58525833Y-132185834D01*
X58483500Y-132228167D01*
X58441166Y-132185834D01*
X58483500Y-132143500D01*
X58525833Y-132185834D01*
X59810435Y-132185834D01*
X59827721Y-132158435D01*
X59858818Y-132104891D01*
X57566278Y-132104891D01*
X57547808Y-132219929D01*
X57486509Y-132173208D01*
X57471116Y-132149350D01*
X57475378Y-132042612D01*
X57494341Y-132026075D01*
X57557366Y-132051151D01*
X57566278Y-132104891D01*
X59858818Y-132104891D01*
X59937186Y-131969955D01*
X59965166Y-131902444D01*
X59941717Y-131847167D01*
X57679166Y-131847167D01*
X57636833Y-131889500D01*
X57594500Y-131847167D01*
X57636833Y-131804834D01*
X57679166Y-131847167D01*
X59941717Y-131847167D01*
X59917687Y-131790521D01*
X59810745Y-131608231D01*
X57286330Y-131608231D01*
X57218301Y-131739006D01*
X57117191Y-131942533D01*
X57086500Y-132091400D01*
X57050973Y-132239045D01*
X56961841Y-132445803D01*
X56845278Y-132664915D01*
X56727459Y-132849622D01*
X56634556Y-132953165D01*
X56601900Y-132957123D01*
X56609946Y-132862112D01*
X56694203Y-132699192D01*
X56801690Y-132500670D01*
X56929260Y-132217406D01*
X57008088Y-132019217D01*
X57114648Y-131769084D01*
X57211870Y-131599143D01*
X57266717Y-131550834D01*
X57286330Y-131608231D01*
X59810745Y-131608231D01*
X59784880Y-131564143D01*
X59695144Y-131423834D01*
X58187166Y-131423834D01*
X58144833Y-131466167D01*
X58102500Y-131423834D01*
X58017833Y-131423834D01*
X57975500Y-131466167D01*
X57933166Y-131423834D01*
X57975500Y-131381500D01*
X58017833Y-131423834D01*
X58102500Y-131423834D01*
X58144833Y-131381500D01*
X58187166Y-131423834D01*
X59695144Y-131423834D01*
X59640994Y-131339167D01*
X57255833Y-131339167D01*
X57213500Y-131381500D01*
X57171166Y-131339167D01*
X57213500Y-131296834D01*
X57255833Y-131339167D01*
X59640994Y-131339167D01*
X59586844Y-131254500D01*
X58102500Y-131254500D01*
X58060166Y-131296834D01*
X58054654Y-131291321D01*
X57065741Y-131291321D01*
X57054160Y-131296834D01*
X56976895Y-131237230D01*
X56959500Y-131212167D01*
X56937925Y-131133013D01*
X56949506Y-131127500D01*
X57026772Y-131187104D01*
X57044166Y-131212167D01*
X57065741Y-131291321D01*
X58054654Y-131291321D01*
X58017833Y-131254500D01*
X58060166Y-131212167D01*
X58102500Y-131254500D01*
X59586844Y-131254500D01*
X59581195Y-131245669D01*
X59497172Y-131120267D01*
X56656989Y-131120267D01*
X56637105Y-131181651D01*
X56533426Y-131118368D01*
X56520040Y-131105326D01*
X56433191Y-130973529D01*
X56439976Y-130899135D01*
X56529419Y-130903556D01*
X56581807Y-130960619D01*
X56656989Y-131120267D01*
X59497172Y-131120267D01*
X59416924Y-131000500D01*
X58441166Y-131000500D01*
X58398833Y-131042834D01*
X58356500Y-131000500D01*
X58271833Y-131000500D01*
X58229500Y-131042834D01*
X58187166Y-131000500D01*
X58229500Y-130958167D01*
X58271833Y-131000500D01*
X58356500Y-131000500D01*
X58398833Y-130958167D01*
X58441166Y-131000500D01*
X59416924Y-131000500D01*
X59321081Y-130857459D01*
X59244128Y-130746500D01*
X56493833Y-130746500D01*
X56451500Y-130788834D01*
X56436411Y-130773745D01*
X56306790Y-130773745D01*
X56276840Y-130782149D01*
X56166550Y-130730025D01*
X56000426Y-130591679D01*
X55943500Y-130534834D01*
X55774801Y-130376023D01*
X55648594Y-130287457D01*
X55625278Y-130280834D01*
X55510396Y-130227041D01*
X55423405Y-130153834D01*
X55332413Y-130045271D01*
X55353801Y-130023267D01*
X55461978Y-130076210D01*
X55631351Y-130192487D01*
X55790102Y-130320214D01*
X55992253Y-130473162D01*
X56146050Y-130553170D01*
X56199916Y-130553047D01*
X56229275Y-130551503D01*
X56210547Y-130591102D01*
X56220272Y-130704525D01*
X56260472Y-130732585D01*
X56306790Y-130773745D01*
X56436411Y-130773745D01*
X56409166Y-130746500D01*
X56451500Y-130704167D01*
X56493833Y-130746500D01*
X59244128Y-130746500D01*
X59067969Y-130492500D01*
X58864500Y-130492500D01*
X58822166Y-130534834D01*
X58779833Y-130492500D01*
X58822166Y-130450167D01*
X58864500Y-130492500D01*
X59067969Y-130492500D01*
X59018987Y-130421874D01*
X58899160Y-130252751D01*
X57833154Y-128756834D01*
X56189827Y-128756834D01*
X55683227Y-128758786D01*
G36*
X64358613Y-128758139D02*
G01*
X64005447Y-128764352D01*
X63767128Y-128778923D01*
X63616417Y-128805299D01*
X63526072Y-128846927D01*
X63468855Y-128907257D01*
X63451000Y-128934412D01*
X63351196Y-129051159D01*
X63291568Y-129063458D01*
X63297547Y-128968724D01*
X63350135Y-128885880D01*
X63399657Y-128799431D01*
X63331957Y-128764526D01*
X63171700Y-128760312D01*
X63016088Y-128777618D01*
X62881805Y-128844109D01*
X62733515Y-128988154D01*
X62535879Y-129238120D01*
X62475679Y-129319052D01*
X62271313Y-129613714D01*
X62103678Y-129888679D01*
X62003878Y-130092203D01*
X61995175Y-130118445D01*
X61970017Y-130252941D01*
X61999119Y-130370274D01*
X62105502Y-130507892D01*
X62312186Y-130703242D01*
X62405663Y-130786174D01*
X62621626Y-130985990D01*
X62762724Y-131135379D01*
X62804594Y-131207927D01*
X62797516Y-131210969D01*
X62693652Y-131155261D01*
X62519637Y-131010463D01*
X62378166Y-130873500D01*
X62197026Y-130703099D01*
X62041245Y-130580955D01*
X61937713Y-130522727D01*
X61913321Y-130544073D01*
X61978309Y-130640667D01*
X62007624Y-130769794D01*
X61932646Y-130868465D01*
X61849792Y-130929772D01*
X61825579Y-130881348D01*
X61848237Y-130695991D01*
X61850896Y-130679517D01*
X61869562Y-130468666D01*
X61851630Y-130342340D01*
X61842869Y-130332459D01*
X61773463Y-130382419D01*
X61628363Y-130545271D01*
X61429098Y-130795262D01*
X61207409Y-131092530D01*
X60630431Y-131888744D01*
X60822537Y-132164289D01*
X60934883Y-132323007D01*
X61125868Y-132590229D01*
X61374899Y-132937247D01*
X61661382Y-133335356D01*
X61900926Y-133667500D01*
X62205879Y-134090031D01*
X62493110Y-134488215D01*
X62741019Y-134832092D01*
X62928005Y-135091703D01*
X63016831Y-135215263D01*
X63246453Y-135535360D01*
X63590539Y-134749597D01*
X63823352Y-134217834D01*
X62759166Y-134217834D01*
X62716833Y-134260167D01*
X62674500Y-134217834D01*
X62716833Y-134175500D01*
X62759166Y-134217834D01*
X63823352Y-134217834D01*
X63853556Y-134148846D01*
X64055545Y-133684063D01*
X64202909Y-133335886D01*
X64302052Y-133084955D01*
X64359376Y-132911908D01*
X64381285Y-132797384D01*
X64374181Y-132722023D01*
X64344468Y-132666463D01*
X64298549Y-132611344D01*
X64297942Y-132610626D01*
X64204745Y-132496284D01*
X64224310Y-132497061D01*
X64306379Y-132559191D01*
X64437126Y-132637502D01*
X64490651Y-132641571D01*
X64533606Y-132556277D01*
X64631364Y-132341390D01*
X64719187Y-132143500D01*
X62759166Y-132143500D01*
X62728188Y-132213190D01*
X62702722Y-132199945D01*
X62692589Y-132099465D01*
X62702722Y-132087056D01*
X62753056Y-132098678D01*
X62759166Y-132143500D01*
X64719187Y-132143500D01*
X64772664Y-132023003D01*
X64849779Y-131847167D01*
X64365428Y-131847167D01*
X64339932Y-131760560D01*
X62546976Y-131760560D01*
X62512872Y-131830995D01*
X62472508Y-131957613D01*
X62512020Y-132024758D01*
X62544299Y-132096425D01*
X62439005Y-132088114D01*
X62424080Y-132084302D01*
X62298640Y-132075214D01*
X62296915Y-132163789D01*
X62301300Y-132175630D01*
X62384025Y-132293854D01*
X62429558Y-132312834D01*
X62500524Y-132379465D01*
X62505166Y-132414434D01*
X62480176Y-132473338D01*
X62403566Y-132414434D01*
X62237569Y-132319291D01*
X62088455Y-132389820D01*
X61998713Y-132521611D01*
X61894654Y-132657223D01*
X61810006Y-132682816D01*
X61799788Y-132601592D01*
X61855910Y-132537539D01*
X61983906Y-132400020D01*
X62126798Y-132196783D01*
X62207825Y-132058834D01*
X61827833Y-132058834D01*
X61796855Y-132128524D01*
X61771389Y-132115278D01*
X61761428Y-132016500D01*
X61319833Y-132016500D01*
X61277500Y-132058834D01*
X61235166Y-132016500D01*
X61277500Y-131974167D01*
X61319833Y-132016500D01*
X61761428Y-132016500D01*
X61761256Y-132014798D01*
X61771389Y-132002389D01*
X61821723Y-132014011D01*
X61827833Y-132058834D01*
X62207825Y-132058834D01*
X62255822Y-131977121D01*
X62342213Y-131790329D01*
X62344815Y-131772168D01*
X61785311Y-131772168D01*
X61774916Y-131821958D01*
X61700833Y-131886026D01*
X61663271Y-131789746D01*
X61659796Y-131699000D01*
X61674020Y-131576756D01*
X61724270Y-131609331D01*
X61738876Y-131631458D01*
X61785311Y-131772168D01*
X62344815Y-131772168D01*
X62357204Y-131685700D01*
X62354771Y-131682660D01*
X62370673Y-131661097D01*
X62449938Y-131684601D01*
X62546976Y-131760560D01*
X64339932Y-131760560D01*
X64253264Y-131466167D01*
X64242187Y-131423834D01*
X61827833Y-131423834D01*
X61785500Y-131466167D01*
X61743166Y-131423834D01*
X61785500Y-131381500D01*
X61827833Y-131423834D01*
X64242187Y-131423834D01*
X64192663Y-131234586D01*
X64166490Y-131080407D01*
X64169800Y-131049889D01*
X64228333Y-131047497D01*
X64279457Y-131200461D01*
X64320420Y-131469345D01*
X64365428Y-131847167D01*
X64849779Y-131847167D01*
X64946244Y-131627212D01*
X65140842Y-131180110D01*
X65255184Y-130915834D01*
X64029166Y-130915834D01*
X63986833Y-130958167D01*
X63944500Y-130915834D01*
X63986833Y-130873500D01*
X64029166Y-130915834D01*
X65255184Y-130915834D01*
X65291816Y-130831167D01*
X63859833Y-130831167D01*
X63817500Y-130873500D01*
X63775166Y-130831167D01*
X63817500Y-130788834D01*
X63859833Y-130831167D01*
X65291816Y-130831167D01*
X65345196Y-130707792D01*
X65401400Y-130577167D01*
X64875833Y-130577167D01*
X64833500Y-130619500D01*
X64791166Y-130577167D01*
X64833500Y-130534834D01*
X64875833Y-130577167D01*
X65401400Y-130577167D01*
X65474260Y-130407834D01*
X64791166Y-130407834D01*
X64748833Y-130450167D01*
X64706500Y-130407834D01*
X64748833Y-130365500D01*
X64791166Y-130407834D01*
X65474260Y-130407834D01*
X65510690Y-130323167D01*
X63013166Y-130323167D01*
X62970833Y-130365500D01*
X62928500Y-130323167D01*
X62942611Y-130309056D01*
X62730944Y-130309056D01*
X62719322Y-130359390D01*
X62674500Y-130365500D01*
X62604810Y-130334522D01*
X62618055Y-130309056D01*
X62718535Y-130298923D01*
X62730944Y-130309056D01*
X62942611Y-130309056D01*
X62970833Y-130280834D01*
X63013166Y-130323167D01*
X65510690Y-130323167D01*
X65548045Y-130236352D01*
X65738127Y-129791884D01*
X65904180Y-129400483D01*
X66034942Y-129088244D01*
X66119152Y-128881259D01*
X66145833Y-128806394D01*
X66066006Y-128789284D01*
X65845867Y-128774731D01*
X65514433Y-128763848D01*
X65100720Y-128757747D01*
X64853866Y-128756834D01*
X64358613Y-128758139D01*
G37*
X64358613Y-128758139D02*
X64005447Y-128764352D01*
X63767128Y-128778923D01*
X63616417Y-128805299D01*
X63526072Y-128846927D01*
X63468855Y-128907257D01*
X63451000Y-128934412D01*
X63351196Y-129051159D01*
X63291568Y-129063458D01*
X63297547Y-128968724D01*
X63350135Y-128885880D01*
X63399657Y-128799431D01*
X63331957Y-128764526D01*
X63171700Y-128760312D01*
X63016088Y-128777618D01*
X62881805Y-128844109D01*
X62733515Y-128988154D01*
X62535879Y-129238120D01*
X62475679Y-129319052D01*
X62271313Y-129613714D01*
X62103678Y-129888679D01*
X62003878Y-130092203D01*
X61995175Y-130118445D01*
X61970017Y-130252941D01*
X61999119Y-130370274D01*
X62105502Y-130507892D01*
X62312186Y-130703242D01*
X62405663Y-130786174D01*
X62621626Y-130985990D01*
X62762724Y-131135379D01*
X62804594Y-131207927D01*
X62797516Y-131210969D01*
X62693652Y-131155261D01*
X62519637Y-131010463D01*
X62378166Y-130873500D01*
X62197026Y-130703099D01*
X62041245Y-130580955D01*
X61937713Y-130522727D01*
X61913321Y-130544073D01*
X61978309Y-130640667D01*
X62007624Y-130769794D01*
X61932646Y-130868465D01*
X61849792Y-130929772D01*
X61825579Y-130881348D01*
X61848237Y-130695991D01*
X61850896Y-130679517D01*
X61869562Y-130468666D01*
X61851630Y-130342340D01*
X61842869Y-130332459D01*
X61773463Y-130382419D01*
X61628363Y-130545271D01*
X61429098Y-130795262D01*
X61207409Y-131092530D01*
X60630431Y-131888744D01*
X60822537Y-132164289D01*
X60934883Y-132323007D01*
X61125868Y-132590229D01*
X61374899Y-132937247D01*
X61661382Y-133335356D01*
X61900926Y-133667500D01*
X62205879Y-134090031D01*
X62493110Y-134488215D01*
X62741019Y-134832092D01*
X62928005Y-135091703D01*
X63016831Y-135215263D01*
X63246453Y-135535360D01*
X63590539Y-134749597D01*
X63823352Y-134217834D01*
X62759166Y-134217834D01*
X62716833Y-134260167D01*
X62674500Y-134217834D01*
X62716833Y-134175500D01*
X62759166Y-134217834D01*
X63823352Y-134217834D01*
X63853556Y-134148846D01*
X64055545Y-133684063D01*
X64202909Y-133335886D01*
X64302052Y-133084955D01*
X64359376Y-132911908D01*
X64381285Y-132797384D01*
X64374181Y-132722023D01*
X64344468Y-132666463D01*
X64298549Y-132611344D01*
X64297942Y-132610626D01*
X64204745Y-132496284D01*
X64224310Y-132497061D01*
X64306379Y-132559191D01*
X64437126Y-132637502D01*
X64490651Y-132641571D01*
X64533606Y-132556277D01*
X64631364Y-132341390D01*
X64719187Y-132143500D01*
X62759166Y-132143500D01*
X62728188Y-132213190D01*
X62702722Y-132199945D01*
X62692589Y-132099465D01*
X62702722Y-132087056D01*
X62753056Y-132098678D01*
X62759166Y-132143500D01*
X64719187Y-132143500D01*
X64772664Y-132023003D01*
X64849779Y-131847167D01*
X64365428Y-131847167D01*
X64339932Y-131760560D01*
X62546976Y-131760560D01*
X62512872Y-131830995D01*
X62472508Y-131957613D01*
X62512020Y-132024758D01*
X62544299Y-132096425D01*
X62439005Y-132088114D01*
X62424080Y-132084302D01*
X62298640Y-132075214D01*
X62296915Y-132163789D01*
X62301300Y-132175630D01*
X62384025Y-132293854D01*
X62429558Y-132312834D01*
X62500524Y-132379465D01*
X62505166Y-132414434D01*
X62480176Y-132473338D01*
X62403566Y-132414434D01*
X62237569Y-132319291D01*
X62088455Y-132389820D01*
X61998713Y-132521611D01*
X61894654Y-132657223D01*
X61810006Y-132682816D01*
X61799788Y-132601592D01*
X61855910Y-132537539D01*
X61983906Y-132400020D01*
X62126798Y-132196783D01*
X62207825Y-132058834D01*
X61827833Y-132058834D01*
X61796855Y-132128524D01*
X61771389Y-132115278D01*
X61761428Y-132016500D01*
X61319833Y-132016500D01*
X61277500Y-132058834D01*
X61235166Y-132016500D01*
X61277500Y-131974167D01*
X61319833Y-132016500D01*
X61761428Y-132016500D01*
X61761256Y-132014798D01*
X61771389Y-132002389D01*
X61821723Y-132014011D01*
X61827833Y-132058834D01*
X62207825Y-132058834D01*
X62255822Y-131977121D01*
X62342213Y-131790329D01*
X62344815Y-131772168D01*
X61785311Y-131772168D01*
X61774916Y-131821958D01*
X61700833Y-131886026D01*
X61663271Y-131789746D01*
X61659796Y-131699000D01*
X61674020Y-131576756D01*
X61724270Y-131609331D01*
X61738876Y-131631458D01*
X61785311Y-131772168D01*
X62344815Y-131772168D01*
X62357204Y-131685700D01*
X62354771Y-131682660D01*
X62370673Y-131661097D01*
X62449938Y-131684601D01*
X62546976Y-131760560D01*
X64339932Y-131760560D01*
X64253264Y-131466167D01*
X64242187Y-131423834D01*
X61827833Y-131423834D01*
X61785500Y-131466167D01*
X61743166Y-131423834D01*
X61785500Y-131381500D01*
X61827833Y-131423834D01*
X64242187Y-131423834D01*
X64192663Y-131234586D01*
X64166490Y-131080407D01*
X64169800Y-131049889D01*
X64228333Y-131047497D01*
X64279457Y-131200461D01*
X64320420Y-131469345D01*
X64365428Y-131847167D01*
X64849779Y-131847167D01*
X64946244Y-131627212D01*
X65140842Y-131180110D01*
X65255184Y-130915834D01*
X64029166Y-130915834D01*
X63986833Y-130958167D01*
X63944500Y-130915834D01*
X63986833Y-130873500D01*
X64029166Y-130915834D01*
X65255184Y-130915834D01*
X65291816Y-130831167D01*
X63859833Y-130831167D01*
X63817500Y-130873500D01*
X63775166Y-130831167D01*
X63817500Y-130788834D01*
X63859833Y-130831167D01*
X65291816Y-130831167D01*
X65345196Y-130707792D01*
X65401400Y-130577167D01*
X64875833Y-130577167D01*
X64833500Y-130619500D01*
X64791166Y-130577167D01*
X64833500Y-130534834D01*
X64875833Y-130577167D01*
X65401400Y-130577167D01*
X65474260Y-130407834D01*
X64791166Y-130407834D01*
X64748833Y-130450167D01*
X64706500Y-130407834D01*
X64748833Y-130365500D01*
X64791166Y-130407834D01*
X65474260Y-130407834D01*
X65510690Y-130323167D01*
X63013166Y-130323167D01*
X62970833Y-130365500D01*
X62928500Y-130323167D01*
X62942611Y-130309056D01*
X62730944Y-130309056D01*
X62719322Y-130359390D01*
X62674500Y-130365500D01*
X62604810Y-130334522D01*
X62618055Y-130309056D01*
X62718535Y-130298923D01*
X62730944Y-130309056D01*
X62942611Y-130309056D01*
X62970833Y-130280834D01*
X63013166Y-130323167D01*
X65510690Y-130323167D01*
X65548045Y-130236352D01*
X65738127Y-129791884D01*
X65904180Y-129400483D01*
X66034942Y-129088244D01*
X66119152Y-128881259D01*
X66145833Y-128806394D01*
X66066006Y-128789284D01*
X65845867Y-128774731D01*
X65514433Y-128763848D01*
X65100720Y-128757747D01*
X64853866Y-128756834D01*
X64358613Y-128758139D01*
G36*
X66498064Y-129153308D02*
G01*
X66499122Y-129159000D01*
X66472531Y-129260268D01*
X66388951Y-129473929D01*
X66264517Y-129759645D01*
X66219726Y-129857500D01*
X66079041Y-130166674D01*
X65892400Y-130584422D01*
X65680644Y-131063718D01*
X65464618Y-131557534D01*
X65385738Y-131739222D01*
X65184800Y-132205408D01*
X65044737Y-132541961D01*
X64958659Y-132774429D01*
X64919675Y-132928361D01*
X64920895Y-133029307D01*
X64955430Y-133102815D01*
X65002733Y-133159390D01*
X65132376Y-133270226D01*
X65219230Y-133246051D01*
X65235879Y-133225001D01*
X65290542Y-133165513D01*
X65279784Y-133236986D01*
X65317202Y-133361245D01*
X65448538Y-133544052D01*
X65548505Y-133650604D01*
X65688845Y-133796189D01*
X65717701Y-133845956D01*
X65654012Y-133812089D01*
X65516714Y-133706772D01*
X65324743Y-133542188D01*
X65193459Y-133422176D01*
X64975542Y-133246789D01*
X64830806Y-133191416D01*
X64797305Y-133205941D01*
X64747175Y-133296753D01*
X64644303Y-133508850D01*
X64503543Y-133809410D01*
X64339753Y-134165613D01*
X64167787Y-134544639D01*
X64002503Y-134913669D01*
X63858755Y-135239882D01*
X63751401Y-135490457D01*
X63695295Y-135632576D01*
X63690500Y-135651117D01*
X63734715Y-135681716D01*
X63872784Y-135647807D01*
X64112841Y-135545295D01*
X64463021Y-135370083D01*
X64931459Y-135118077D01*
X65464007Y-134820037D01*
X64931396Y-134820037D01*
X64918166Y-134852834D01*
X64842084Y-134933604D01*
X64828503Y-134937500D01*
X64792137Y-134871994D01*
X64791166Y-134852834D01*
X64856254Y-134771420D01*
X64880830Y-134768167D01*
X64931396Y-134820037D01*
X65464007Y-134820037D01*
X65526291Y-134785180D01*
X66255650Y-134367298D01*
X66357500Y-134308411D01*
X66930887Y-133974519D01*
X67379520Y-133709834D01*
X66907833Y-133709834D01*
X66865500Y-133752167D01*
X66823166Y-133709834D01*
X66865500Y-133667500D01*
X66907833Y-133709834D01*
X67379520Y-133709834D01*
X67454169Y-133665793D01*
X67804726Y-133455834D01*
X66315166Y-133455834D01*
X66272833Y-133498167D01*
X66230500Y-133455834D01*
X66272833Y-133413500D01*
X66315166Y-133455834D01*
X67804726Y-133455834D01*
X67910046Y-133392755D01*
X68039996Y-133313341D01*
X67448592Y-133313341D01*
X67423516Y-133376366D01*
X67369775Y-133385278D01*
X67259192Y-133372286D01*
X67246500Y-133362052D01*
X67309562Y-133295969D01*
X67417996Y-133289917D01*
X67448592Y-133313341D01*
X68039996Y-133313341D01*
X68281220Y-133165927D01*
X68550392Y-132995830D01*
X68620335Y-132947834D01*
X66992500Y-132947834D01*
X66950166Y-132990167D01*
X66907833Y-132947834D01*
X66950166Y-132905500D01*
X66992500Y-132947834D01*
X68620335Y-132947834D01*
X68700262Y-132892988D01*
X68725723Y-132867944D01*
X68684352Y-132770930D01*
X68571544Y-132554802D01*
X68401105Y-132243459D01*
X68186841Y-131860802D01*
X67942560Y-131430730D01*
X67682068Y-130977145D01*
X67603185Y-130841160D01*
X66230500Y-130841160D01*
X66213788Y-131087485D01*
X66162820Y-131172010D01*
X66136502Y-131164066D01*
X66081989Y-131042841D01*
X66088695Y-130821356D01*
X66089153Y-130818506D01*
X66101625Y-130635776D01*
X66066973Y-130575413D01*
X66057121Y-130579667D01*
X66014102Y-130561242D01*
X66028675Y-130497384D01*
X66100380Y-130396304D01*
X66166925Y-130441210D01*
X66214726Y-130608967D01*
X66230500Y-130841160D01*
X67603185Y-130841160D01*
X67419171Y-130523946D01*
X67167676Y-130095034D01*
X66941389Y-129714309D01*
X66754117Y-129405670D01*
X66619666Y-129193019D01*
X66551843Y-129100254D01*
X66548000Y-129098128D01*
X66498064Y-129153308D01*
G37*
X66498064Y-129153308D02*
X66499122Y-129159000D01*
X66472531Y-129260268D01*
X66388951Y-129473929D01*
X66264517Y-129759645D01*
X66219726Y-129857500D01*
X66079041Y-130166674D01*
X65892400Y-130584422D01*
X65680644Y-131063718D01*
X65464618Y-131557534D01*
X65385738Y-131739222D01*
X65184800Y-132205408D01*
X65044737Y-132541961D01*
X64958659Y-132774429D01*
X64919675Y-132928361D01*
X64920895Y-133029307D01*
X64955430Y-133102815D01*
X65002733Y-133159390D01*
X65132376Y-133270226D01*
X65219230Y-133246051D01*
X65235879Y-133225001D01*
X65290542Y-133165513D01*
X65279784Y-133236986D01*
X65317202Y-133361245D01*
X65448538Y-133544052D01*
X65548505Y-133650604D01*
X65688845Y-133796189D01*
X65717701Y-133845956D01*
X65654012Y-133812089D01*
X65516714Y-133706772D01*
X65324743Y-133542188D01*
X65193459Y-133422176D01*
X64975542Y-133246789D01*
X64830806Y-133191416D01*
X64797305Y-133205941D01*
X64747175Y-133296753D01*
X64644303Y-133508850D01*
X64503543Y-133809410D01*
X64339753Y-134165613D01*
X64167787Y-134544639D01*
X64002503Y-134913669D01*
X63858755Y-135239882D01*
X63751401Y-135490457D01*
X63695295Y-135632576D01*
X63690500Y-135651117D01*
X63734715Y-135681716D01*
X63872784Y-135647807D01*
X64112841Y-135545295D01*
X64463021Y-135370083D01*
X64931459Y-135118077D01*
X65464007Y-134820037D01*
X64931396Y-134820037D01*
X64918166Y-134852834D01*
X64842084Y-134933604D01*
X64828503Y-134937500D01*
X64792137Y-134871994D01*
X64791166Y-134852834D01*
X64856254Y-134771420D01*
X64880830Y-134768167D01*
X64931396Y-134820037D01*
X65464007Y-134820037D01*
X65526291Y-134785180D01*
X66255650Y-134367298D01*
X66357500Y-134308411D01*
X66930887Y-133974519D01*
X67379520Y-133709834D01*
X66907833Y-133709834D01*
X66865500Y-133752167D01*
X66823166Y-133709834D01*
X66865500Y-133667500D01*
X66907833Y-133709834D01*
X67379520Y-133709834D01*
X67454169Y-133665793D01*
X67804726Y-133455834D01*
X66315166Y-133455834D01*
X66272833Y-133498167D01*
X66230500Y-133455834D01*
X66272833Y-133413500D01*
X66315166Y-133455834D01*
X67804726Y-133455834D01*
X67910046Y-133392755D01*
X68039996Y-133313341D01*
X67448592Y-133313341D01*
X67423516Y-133376366D01*
X67369775Y-133385278D01*
X67259192Y-133372286D01*
X67246500Y-133362052D01*
X67309562Y-133295969D01*
X67417996Y-133289917D01*
X67448592Y-133313341D01*
X68039996Y-133313341D01*
X68281220Y-133165927D01*
X68550392Y-132995830D01*
X68620335Y-132947834D01*
X66992500Y-132947834D01*
X66950166Y-132990167D01*
X66907833Y-132947834D01*
X66950166Y-132905500D01*
X66992500Y-132947834D01*
X68620335Y-132947834D01*
X68700262Y-132892988D01*
X68725723Y-132867944D01*
X68684352Y-132770930D01*
X68571544Y-132554802D01*
X68401105Y-132243459D01*
X68186841Y-131860802D01*
X67942560Y-131430730D01*
X67682068Y-130977145D01*
X67603185Y-130841160D01*
X66230500Y-130841160D01*
X66213788Y-131087485D01*
X66162820Y-131172010D01*
X66136502Y-131164066D01*
X66081989Y-131042841D01*
X66088695Y-130821356D01*
X66089153Y-130818506D01*
X66101625Y-130635776D01*
X66066973Y-130575413D01*
X66057121Y-130579667D01*
X66014102Y-130561242D01*
X66028675Y-130497384D01*
X66100380Y-130396304D01*
X66166925Y-130441210D01*
X66214726Y-130608967D01*
X66230500Y-130841160D01*
X67603185Y-130841160D01*
X67419171Y-130523946D01*
X67167676Y-130095034D01*
X66941389Y-129714309D01*
X66754117Y-129405670D01*
X66619666Y-129193019D01*
X66551843Y-129100254D01*
X66548000Y-129098128D01*
X66498064Y-129153308D01*
G36*
X54081146Y-129166235D02*
G01*
X53958014Y-129356293D01*
X53784350Y-129639208D01*
X53576130Y-129987467D01*
X53349331Y-130373557D01*
X53119931Y-130769963D01*
X52903908Y-131149174D01*
X52717238Y-131483675D01*
X52575899Y-131745953D01*
X52495869Y-131908495D01*
X52483775Y-131944755D01*
X52430214Y-132057813D01*
X52349912Y-132158956D01*
X52233020Y-132312688D01*
X52105632Y-132518334D01*
X51995712Y-132724499D01*
X51931222Y-132879785D01*
X51929395Y-132931873D01*
X52012898Y-132981394D01*
X52212259Y-133095970D01*
X52495831Y-133257491D01*
X52768500Y-133411987D01*
X53084391Y-133591772D01*
X53511734Y-133836702D01*
X54015655Y-134126695D01*
X54561282Y-134441673D01*
X55113742Y-134761556D01*
X55296804Y-134867787D01*
X55853996Y-135191048D01*
X56281897Y-135438207D01*
X56597511Y-135618435D01*
X56817842Y-135740902D01*
X56959894Y-135814780D01*
X57040671Y-135849241D01*
X57077176Y-135853454D01*
X57086414Y-135836592D01*
X57086500Y-135833064D01*
X57054087Y-135742463D01*
X56965854Y-135528276D01*
X56835306Y-135221412D01*
X56675947Y-134852776D01*
X56501284Y-134453275D01*
X56324823Y-134053815D01*
X56160069Y-133685304D01*
X56020527Y-133378648D01*
X55934089Y-133194778D01*
X55386482Y-133194778D01*
X55370916Y-133304592D01*
X55342014Y-133305903D01*
X55321802Y-133192586D01*
X55335330Y-133143625D01*
X55372924Y-133111555D01*
X55386482Y-133194778D01*
X55934089Y-133194778D01*
X55927455Y-133180667D01*
X55893155Y-133117167D01*
X55816500Y-133117167D01*
X55774166Y-133159500D01*
X55731833Y-133117167D01*
X55774166Y-133074834D01*
X55816500Y-133117167D01*
X55893155Y-133117167D01*
X55798346Y-132941651D01*
X55685855Y-132780293D01*
X55628172Y-132736167D01*
X55580060Y-132674177D01*
X55593118Y-132609167D01*
X55612738Y-132443900D01*
X55565186Y-132311795D01*
X55476508Y-132274551D01*
X55455880Y-132284068D01*
X55407901Y-132285461D01*
X55430688Y-132235953D01*
X55422830Y-132121853D01*
X55353768Y-131883034D01*
X55267971Y-131644880D01*
X54038500Y-131644880D01*
X54010744Y-131718994D01*
X53932916Y-131641734D01*
X53824820Y-131445000D01*
X53691457Y-131169834D01*
X53864979Y-131369713D01*
X53987260Y-131532568D01*
X54038498Y-131644525D01*
X54038500Y-131644880D01*
X55267971Y-131644880D01*
X55249340Y-131593167D01*
X55054500Y-131593167D01*
X55012166Y-131635500D01*
X54969833Y-131593167D01*
X55012166Y-131550834D01*
X55054500Y-131593167D01*
X55249340Y-131593167D01*
X55233256Y-131548524D01*
X55071051Y-131147352D01*
X55041603Y-131078270D01*
X54842137Y-130627263D01*
X54690362Y-130318409D01*
X54576449Y-130134593D01*
X54490573Y-130058703D01*
X54454620Y-130055990D01*
X54358760Y-130039383D01*
X54356453Y-129899864D01*
X54357445Y-129894598D01*
X54357204Y-129715721D01*
X54316247Y-129487597D01*
X54251169Y-129270503D01*
X54178560Y-129124715D01*
X54137767Y-129096547D01*
X54081146Y-129166235D01*
G37*
X54081146Y-129166235D02*
X53958014Y-129356293D01*
X53784350Y-129639208D01*
X53576130Y-129987467D01*
X53349331Y-130373557D01*
X53119931Y-130769963D01*
X52903908Y-131149174D01*
X52717238Y-131483675D01*
X52575899Y-131745953D01*
X52495869Y-131908495D01*
X52483775Y-131944755D01*
X52430214Y-132057813D01*
X52349912Y-132158956D01*
X52233020Y-132312688D01*
X52105632Y-132518334D01*
X51995712Y-132724499D01*
X51931222Y-132879785D01*
X51929395Y-132931873D01*
X52012898Y-132981394D01*
X52212259Y-133095970D01*
X52495831Y-133257491D01*
X52768500Y-133411987D01*
X53084391Y-133591772D01*
X53511734Y-133836702D01*
X54015655Y-134126695D01*
X54561282Y-134441673D01*
X55113742Y-134761556D01*
X55296804Y-134867787D01*
X55853996Y-135191048D01*
X56281897Y-135438207D01*
X56597511Y-135618435D01*
X56817842Y-135740902D01*
X56959894Y-135814780D01*
X57040671Y-135849241D01*
X57077176Y-135853454D01*
X57086414Y-135836592D01*
X57086500Y-135833064D01*
X57054087Y-135742463D01*
X56965854Y-135528276D01*
X56835306Y-135221412D01*
X56675947Y-134852776D01*
X56501284Y-134453275D01*
X56324823Y-134053815D01*
X56160069Y-133685304D01*
X56020527Y-133378648D01*
X55934089Y-133194778D01*
X55386482Y-133194778D01*
X55370916Y-133304592D01*
X55342014Y-133305903D01*
X55321802Y-133192586D01*
X55335330Y-133143625D01*
X55372924Y-133111555D01*
X55386482Y-133194778D01*
X55934089Y-133194778D01*
X55927455Y-133180667D01*
X55893155Y-133117167D01*
X55816500Y-133117167D01*
X55774166Y-133159500D01*
X55731833Y-133117167D01*
X55774166Y-133074834D01*
X55816500Y-133117167D01*
X55893155Y-133117167D01*
X55798346Y-132941651D01*
X55685855Y-132780293D01*
X55628172Y-132736167D01*
X55580060Y-132674177D01*
X55593118Y-132609167D01*
X55612738Y-132443900D01*
X55565186Y-132311795D01*
X55476508Y-132274551D01*
X55455880Y-132284068D01*
X55407901Y-132285461D01*
X55430688Y-132235953D01*
X55422830Y-132121853D01*
X55353768Y-131883034D01*
X55267971Y-131644880D01*
X54038500Y-131644880D01*
X54010744Y-131718994D01*
X53932916Y-131641734D01*
X53824820Y-131445000D01*
X53691457Y-131169834D01*
X53864979Y-131369713D01*
X53987260Y-131532568D01*
X54038498Y-131644525D01*
X54038500Y-131644880D01*
X55267971Y-131644880D01*
X55249340Y-131593167D01*
X55054500Y-131593167D01*
X55012166Y-131635500D01*
X54969833Y-131593167D01*
X55012166Y-131550834D01*
X55054500Y-131593167D01*
X55249340Y-131593167D01*
X55233256Y-131548524D01*
X55071051Y-131147352D01*
X55041603Y-131078270D01*
X54842137Y-130627263D01*
X54690362Y-130318409D01*
X54576449Y-130134593D01*
X54490573Y-130058703D01*
X54454620Y-130055990D01*
X54358760Y-130039383D01*
X54356453Y-129899864D01*
X54357445Y-129894598D01*
X54357204Y-129715721D01*
X54316247Y-129487597D01*
X54251169Y-129270503D01*
X54178560Y-129124715D01*
X54137767Y-129096547D01*
X54081146Y-129166235D01*
G36*
X63634055Y-135812389D02*
G01*
X63645678Y-135862723D01*
X63690500Y-135868834D01*
X63760190Y-135837855D01*
X63746944Y-135812389D01*
X63646465Y-135802256D01*
X63634055Y-135812389D01*
G37*
X63634055Y-135812389D02*
X63645678Y-135862723D01*
X63690500Y-135868834D01*
X63760190Y-135837855D01*
X63746944Y-135812389D01*
X63646465Y-135802256D01*
X63634055Y-135812389D01*
G36*
X50864633Y-133067521D02*
G01*
X50821166Y-133215889D01*
X50874086Y-133307208D01*
X50952564Y-133296528D01*
X51041251Y-133288437D01*
X51037391Y-133321458D01*
X51091387Y-133394133D01*
X51295036Y-133542918D01*
X51647114Y-133767047D01*
X52146395Y-134065757D01*
X52791654Y-134438285D01*
X53191833Y-134665068D01*
X53348190Y-134754407D01*
X53626324Y-134914561D01*
X54001590Y-135131286D01*
X54449343Y-135390342D01*
X54944938Y-135677486D01*
X55256975Y-135858473D01*
X55944869Y-136250347D01*
X56496878Y-136548490D01*
X56916930Y-136754695D01*
X57208956Y-136870758D01*
X57376884Y-136898473D01*
X57425166Y-136848859D01*
X57357395Y-136792207D01*
X57181353Y-136681447D01*
X56980666Y-136566148D01*
X56423858Y-136254804D01*
X55820887Y-135913670D01*
X55189425Y-135553101D01*
X54547140Y-135183453D01*
X53911705Y-134815082D01*
X53300787Y-134458343D01*
X52732058Y-134123592D01*
X52223186Y-133821185D01*
X51791843Y-133561477D01*
X51455698Y-133354825D01*
X51232421Y-133211583D01*
X51141032Y-133143768D01*
X50984811Y-133034557D01*
X50864633Y-133067521D01*
G37*
X50864633Y-133067521D02*
X50821166Y-133215889D01*
X50874086Y-133307208D01*
X50952564Y-133296528D01*
X51041251Y-133288437D01*
X51037391Y-133321458D01*
X51091387Y-133394133D01*
X51295036Y-133542918D01*
X51647114Y-133767047D01*
X52146395Y-134065757D01*
X52791654Y-134438285D01*
X53191833Y-134665068D01*
X53348190Y-134754407D01*
X53626324Y-134914561D01*
X54001590Y-135131286D01*
X54449343Y-135390342D01*
X54944938Y-135677486D01*
X55256975Y-135858473D01*
X55944869Y-136250347D01*
X56496878Y-136548490D01*
X56916930Y-136754695D01*
X57208956Y-136870758D01*
X57376884Y-136898473D01*
X57425166Y-136848859D01*
X57357395Y-136792207D01*
X57181353Y-136681447D01*
X56980666Y-136566148D01*
X56423858Y-136254804D01*
X55820887Y-135913670D01*
X55189425Y-135553101D01*
X54547140Y-135183453D01*
X53911705Y-134815082D01*
X53300787Y-134458343D01*
X52732058Y-134123592D01*
X52223186Y-133821185D01*
X51791843Y-133561477D01*
X51455698Y-133354825D01*
X51232421Y-133211583D01*
X51141032Y-133143768D01*
X50984811Y-133034557D01*
X50864633Y-133067521D01*
G36*
X60294240Y-132361096D02*
G01*
X60242890Y-132468731D01*
X60212730Y-132674418D01*
X60210727Y-132719997D01*
X60200383Y-132902355D01*
X60178996Y-132927809D01*
X60146446Y-132833696D01*
X60114917Y-132769161D01*
X60061354Y-132768419D01*
X59970516Y-132847419D01*
X59827161Y-133022111D01*
X59616048Y-133308445D01*
X59391875Y-133623313D01*
X59146055Y-133982395D01*
X58946164Y-134296340D01*
X58808292Y-134538100D01*
X58748527Y-134680630D01*
X58749571Y-134703032D01*
X58752440Y-134754707D01*
X58716432Y-134738976D01*
X58644184Y-134785370D01*
X58499976Y-134936295D01*
X58310142Y-135158400D01*
X58101016Y-135418332D01*
X57898932Y-135682738D01*
X57730225Y-135918268D01*
X57621230Y-136091569D01*
X57594500Y-136159882D01*
X57662476Y-136214251D01*
X57843374Y-136330036D01*
X58102645Y-136485426D01*
X58196518Y-136539951D01*
X58798536Y-136887041D01*
X60376685Y-136874977D01*
X61954833Y-136862914D01*
X62154715Y-136743722D01*
X61714944Y-136743722D01*
X61703322Y-136794057D01*
X61658500Y-136800167D01*
X61588810Y-136769189D01*
X61602055Y-136743722D01*
X61702535Y-136733589D01*
X61714944Y-136743722D01*
X62154715Y-136743722D01*
X62488834Y-136544483D01*
X62755476Y-136382986D01*
X62961892Y-136253316D01*
X63067467Y-136181055D01*
X63071207Y-136177682D01*
X63066791Y-136165167D01*
X61912500Y-136165167D01*
X61870166Y-136207500D01*
X61827833Y-136165167D01*
X61870166Y-136122834D01*
X61912500Y-136165167D01*
X63066791Y-136165167D01*
X63041966Y-136094817D01*
X62925681Y-135900415D01*
X62738584Y-135616690D01*
X62591497Y-135403167D01*
X59965166Y-135403167D01*
X59922833Y-135445500D01*
X59880500Y-135403167D01*
X59033833Y-135403167D01*
X58991500Y-135445500D01*
X58949166Y-135403167D01*
X58991500Y-135360834D01*
X59033833Y-135403167D01*
X59880500Y-135403167D01*
X59922833Y-135360834D01*
X59965166Y-135403167D01*
X62591497Y-135403167D01*
X62496909Y-135265858D01*
X62474249Y-135233834D01*
X59457166Y-135233834D01*
X59414833Y-135276167D01*
X59372500Y-135233834D01*
X59414833Y-135191500D01*
X59457166Y-135233834D01*
X62474249Y-135233834D01*
X62414337Y-135149167D01*
X61743166Y-135149167D01*
X61700833Y-135191500D01*
X61658500Y-135149167D01*
X61700833Y-135106834D01*
X61743166Y-135149167D01*
X62414337Y-135149167D01*
X62260657Y-134931988D01*
X59521075Y-134931988D01*
X59509493Y-134937500D01*
X59432228Y-134877897D01*
X59420815Y-134861452D01*
X59003783Y-134861452D01*
X58974828Y-134988882D01*
X58922869Y-135100660D01*
X58893703Y-135055365D01*
X58880684Y-134994373D01*
X58877725Y-134839796D01*
X58899349Y-134789762D01*
X58977215Y-134767339D01*
X59003783Y-134861452D01*
X59420815Y-134861452D01*
X59414833Y-134852834D01*
X59393258Y-134773679D01*
X59404840Y-134768167D01*
X59482105Y-134827770D01*
X59499500Y-134852834D01*
X59521075Y-134931988D01*
X62260657Y-134931988D01*
X62216887Y-134870134D01*
X62112685Y-134725834D01*
X59795833Y-134725834D01*
X59753500Y-134768167D01*
X59711166Y-134725834D01*
X59753500Y-134683500D01*
X59795833Y-134725834D01*
X62112685Y-134725834D01*
X61914750Y-134451733D01*
X61898401Y-134429500D01*
X60557833Y-134429500D01*
X60526855Y-134499190D01*
X60501389Y-134485945D01*
X60491256Y-134385465D01*
X60501389Y-134373056D01*
X60551723Y-134384678D01*
X60557833Y-134429500D01*
X61898401Y-134429500D01*
X61680486Y-134133167D01*
X60981166Y-134133167D01*
X60938833Y-134175500D01*
X60896500Y-134133167D01*
X60910765Y-134118902D01*
X59852649Y-134118902D01*
X59834840Y-134173391D01*
X59813952Y-134175500D01*
X59707328Y-134118139D01*
X59576122Y-133993847D01*
X59468972Y-133868506D01*
X59480291Y-133849711D01*
X59600618Y-133909636D01*
X59764563Y-134018506D01*
X59852649Y-134118902D01*
X60910765Y-134118902D01*
X60938833Y-134090834D01*
X60981166Y-134133167D01*
X61680486Y-134133167D01*
X61606731Y-134032871D01*
X61309062Y-133635762D01*
X61300929Y-133625167D01*
X60371621Y-133625167D01*
X60362497Y-133717145D01*
X60327834Y-133654431D01*
X60303833Y-133582834D01*
X60250465Y-133350961D01*
X60236046Y-133201834D01*
X60245169Y-133109856D01*
X60279832Y-133172570D01*
X60303833Y-133244167D01*
X60357202Y-133476039D01*
X60371621Y-133625167D01*
X61300929Y-133625167D01*
X61037975Y-133282622D01*
X60906357Y-133117167D01*
X60727166Y-133117167D01*
X60684833Y-133159500D01*
X60642500Y-133117167D01*
X60684833Y-133074834D01*
X60727166Y-133117167D01*
X60906357Y-133117167D01*
X60809703Y-132995665D01*
X60640477Y-132797107D01*
X60546531Y-132709164D01*
X60535636Y-132707552D01*
X60487827Y-132708590D01*
X60509707Y-132660873D01*
X60517070Y-132533218D01*
X60442153Y-132406489D01*
X60334441Y-132349535D01*
X60294240Y-132361096D01*
G37*
X60294240Y-132361096D02*
X60242890Y-132468731D01*
X60212730Y-132674418D01*
X60210727Y-132719997D01*
X60200383Y-132902355D01*
X60178996Y-132927809D01*
X60146446Y-132833696D01*
X60114917Y-132769161D01*
X60061354Y-132768419D01*
X59970516Y-132847419D01*
X59827161Y-133022111D01*
X59616048Y-133308445D01*
X59391875Y-133623313D01*
X59146055Y-133982395D01*
X58946164Y-134296340D01*
X58808292Y-134538100D01*
X58748527Y-134680630D01*
X58749571Y-134703032D01*
X58752440Y-134754707D01*
X58716432Y-134738976D01*
X58644184Y-134785370D01*
X58499976Y-134936295D01*
X58310142Y-135158400D01*
X58101016Y-135418332D01*
X57898932Y-135682738D01*
X57730225Y-135918268D01*
X57621230Y-136091569D01*
X57594500Y-136159882D01*
X57662476Y-136214251D01*
X57843374Y-136330036D01*
X58102645Y-136485426D01*
X58196518Y-136539951D01*
X58798536Y-136887041D01*
X60376685Y-136874977D01*
X61954833Y-136862914D01*
X62154715Y-136743722D01*
X61714944Y-136743722D01*
X61703322Y-136794057D01*
X61658500Y-136800167D01*
X61588810Y-136769189D01*
X61602055Y-136743722D01*
X61702535Y-136733589D01*
X61714944Y-136743722D01*
X62154715Y-136743722D01*
X62488834Y-136544483D01*
X62755476Y-136382986D01*
X62961892Y-136253316D01*
X63067467Y-136181055D01*
X63071207Y-136177682D01*
X63066791Y-136165167D01*
X61912500Y-136165167D01*
X61870166Y-136207500D01*
X61827833Y-136165167D01*
X61870166Y-136122834D01*
X61912500Y-136165167D01*
X63066791Y-136165167D01*
X63041966Y-136094817D01*
X62925681Y-135900415D01*
X62738584Y-135616690D01*
X62591497Y-135403167D01*
X59965166Y-135403167D01*
X59922833Y-135445500D01*
X59880500Y-135403167D01*
X59033833Y-135403167D01*
X58991500Y-135445500D01*
X58949166Y-135403167D01*
X58991500Y-135360834D01*
X59033833Y-135403167D01*
X59880500Y-135403167D01*
X59922833Y-135360834D01*
X59965166Y-135403167D01*
X62591497Y-135403167D01*
X62496909Y-135265858D01*
X62474249Y-135233834D01*
X59457166Y-135233834D01*
X59414833Y-135276167D01*
X59372500Y-135233834D01*
X59414833Y-135191500D01*
X59457166Y-135233834D01*
X62474249Y-135233834D01*
X62414337Y-135149167D01*
X61743166Y-135149167D01*
X61700833Y-135191500D01*
X61658500Y-135149167D01*
X61700833Y-135106834D01*
X61743166Y-135149167D01*
X62414337Y-135149167D01*
X62260657Y-134931988D01*
X59521075Y-134931988D01*
X59509493Y-134937500D01*
X59432228Y-134877897D01*
X59420815Y-134861452D01*
X59003783Y-134861452D01*
X58974828Y-134988882D01*
X58922869Y-135100660D01*
X58893703Y-135055365D01*
X58880684Y-134994373D01*
X58877725Y-134839796D01*
X58899349Y-134789762D01*
X58977215Y-134767339D01*
X59003783Y-134861452D01*
X59420815Y-134861452D01*
X59414833Y-134852834D01*
X59393258Y-134773679D01*
X59404840Y-134768167D01*
X59482105Y-134827770D01*
X59499500Y-134852834D01*
X59521075Y-134931988D01*
X62260657Y-134931988D01*
X62216887Y-134870134D01*
X62112685Y-134725834D01*
X59795833Y-134725834D01*
X59753500Y-134768167D01*
X59711166Y-134725834D01*
X59753500Y-134683500D01*
X59795833Y-134725834D01*
X62112685Y-134725834D01*
X61914750Y-134451733D01*
X61898401Y-134429500D01*
X60557833Y-134429500D01*
X60526855Y-134499190D01*
X60501389Y-134485945D01*
X60491256Y-134385465D01*
X60501389Y-134373056D01*
X60551723Y-134384678D01*
X60557833Y-134429500D01*
X61898401Y-134429500D01*
X61680486Y-134133167D01*
X60981166Y-134133167D01*
X60938833Y-134175500D01*
X60896500Y-134133167D01*
X60910765Y-134118902D01*
X59852649Y-134118902D01*
X59834840Y-134173391D01*
X59813952Y-134175500D01*
X59707328Y-134118139D01*
X59576122Y-133993847D01*
X59468972Y-133868506D01*
X59480291Y-133849711D01*
X59600618Y-133909636D01*
X59764563Y-134018506D01*
X59852649Y-134118902D01*
X60910765Y-134118902D01*
X60938833Y-134090834D01*
X60981166Y-134133167D01*
X61680486Y-134133167D01*
X61606731Y-134032871D01*
X61309062Y-133635762D01*
X61300929Y-133625167D01*
X60371621Y-133625167D01*
X60362497Y-133717145D01*
X60327834Y-133654431D01*
X60303833Y-133582834D01*
X60250465Y-133350961D01*
X60236046Y-133201834D01*
X60245169Y-133109856D01*
X60279832Y-133172570D01*
X60303833Y-133244167D01*
X60357202Y-133476039D01*
X60371621Y-133625167D01*
X61300929Y-133625167D01*
X61037975Y-133282622D01*
X60906357Y-133117167D01*
X60727166Y-133117167D01*
X60684833Y-133159500D01*
X60642500Y-133117167D01*
X60684833Y-133074834D01*
X60727166Y-133117167D01*
X60906357Y-133117167D01*
X60809703Y-132995665D01*
X60640477Y-132797107D01*
X60546531Y-132709164D01*
X60535636Y-132707552D01*
X60487827Y-132708590D01*
X60509707Y-132660873D01*
X60517070Y-132533218D01*
X60442153Y-132406489D01*
X60334441Y-132349535D01*
X60294240Y-132361096D01*
G36*
X63864527Y-119017266D02*
G01*
X63824910Y-119083724D01*
X63919468Y-119171014D01*
X64055520Y-119245630D01*
X64207524Y-119327653D01*
X64484126Y-119482408D01*
X64863548Y-119697490D01*
X65324014Y-119960494D01*
X65843745Y-120259017D01*
X66400964Y-120580653D01*
X66503925Y-120640253D01*
X67077351Y-120972328D01*
X67627513Y-121290908D01*
X68130326Y-121582047D01*
X68561704Y-121831802D01*
X68897564Y-122026226D01*
X69113820Y-122151375D01*
X69130333Y-122160927D01*
X69617167Y-122442515D01*
X69619852Y-125832507D01*
X69620869Y-127143519D01*
X69621548Y-128295330D01*
X69621650Y-129298075D01*
X69620935Y-130161886D01*
X69619163Y-130896897D01*
X69616093Y-131513241D01*
X69611485Y-132021052D01*
X69605100Y-132430462D01*
X69596697Y-132751605D01*
X69586036Y-132994614D01*
X69572877Y-133169623D01*
X69556979Y-133286765D01*
X69538102Y-133356172D01*
X69516007Y-133387979D01*
X69490453Y-133392318D01*
X69461201Y-133379324D01*
X69441288Y-133367122D01*
X69320888Y-133369345D01*
X69127806Y-133444412D01*
X68904928Y-133565567D01*
X68695140Y-133706057D01*
X68541327Y-133839126D01*
X68486377Y-133938022D01*
X68495624Y-133957068D01*
X68482177Y-133980772D01*
X68407008Y-133958836D01*
X68223713Y-133960459D01*
X68133561Y-134007776D01*
X67984376Y-134110782D01*
X67755328Y-134248358D01*
X67647806Y-134308390D01*
X67442214Y-134437155D01*
X67321332Y-134545857D01*
X67306680Y-134583681D01*
X67259143Y-134654856D01*
X67222013Y-134659001D01*
X67069959Y-134687387D01*
X66869103Y-134762683D01*
X66683281Y-134855840D01*
X66576330Y-134937812D01*
X66569166Y-134956062D01*
X66505527Y-135021356D01*
X66493748Y-135022167D01*
X66402851Y-135062072D01*
X66192110Y-135171760D01*
X65888238Y-135336186D01*
X65517946Y-135540307D01*
X65107946Y-135769079D01*
X64684949Y-136007458D01*
X64275669Y-136240402D01*
X63906816Y-136452865D01*
X63605102Y-136629806D01*
X63397239Y-136756179D01*
X63313733Y-136813099D01*
X63268786Y-136885462D01*
X63347061Y-136899141D01*
X63516411Y-136862790D01*
X63744691Y-136785065D01*
X63999755Y-136674621D01*
X64183124Y-136579028D01*
X64452616Y-136414191D01*
X64659270Y-136265224D01*
X64761213Y-136162541D01*
X64763496Y-136157487D01*
X64844111Y-136078442D01*
X64886067Y-136086825D01*
X64981874Y-136065168D01*
X65184647Y-135973703D01*
X65461894Y-135831078D01*
X65781120Y-135655943D01*
X66109833Y-135466947D01*
X66415540Y-135282737D01*
X66665746Y-135121964D01*
X66827958Y-135003275D01*
X66871555Y-134947298D01*
X66907646Y-134897815D01*
X66977549Y-134888563D01*
X67098710Y-134848217D01*
X67326389Y-134738519D01*
X67632829Y-134575790D01*
X67990276Y-134376351D01*
X68044857Y-134344834D01*
X67839166Y-134344834D01*
X67808188Y-134414524D01*
X67782722Y-134401278D01*
X67772589Y-134300798D01*
X67782722Y-134288389D01*
X67833056Y-134300011D01*
X67839166Y-134344834D01*
X68044857Y-134344834D01*
X68370975Y-134156522D01*
X68747171Y-133932623D01*
X69091109Y-133720974D01*
X69375034Y-133537897D01*
X69571191Y-133399712D01*
X69651825Y-133322740D01*
X69651653Y-133316137D01*
X69674542Y-133279863D01*
X69736262Y-133295183D01*
X69761929Y-133290688D01*
X69783837Y-133248263D01*
X69802221Y-133156292D01*
X69817314Y-133003160D01*
X69829351Y-132777255D01*
X69838563Y-132466960D01*
X69845186Y-132060663D01*
X69849453Y-131546748D01*
X69851597Y-130913601D01*
X69851853Y-130149609D01*
X69850453Y-129243156D01*
X69847632Y-128182628D01*
X69846493Y-127816632D01*
X69828833Y-122289005D01*
X69278500Y-121968204D01*
X68998920Y-121818292D01*
X68767191Y-121717699D01*
X68627870Y-121685364D01*
X68617936Y-121687482D01*
X68545761Y-121682944D01*
X68554743Y-121651451D01*
X68507675Y-121580761D01*
X68346260Y-121455755D01*
X68107373Y-121298310D01*
X67827890Y-121130301D01*
X67544690Y-120973603D01*
X67294647Y-120850092D01*
X67114638Y-120781643D01*
X67077070Y-120774880D01*
X66953405Y-120734175D01*
X66934859Y-120692970D01*
X66875921Y-120609963D01*
X66705158Y-120489936D01*
X66468663Y-120356983D01*
X66212532Y-120235198D01*
X65982859Y-120148675D01*
X65840282Y-120120834D01*
X65699396Y-120095318D01*
X65676165Y-120042641D01*
X65647424Y-119947763D01*
X65513211Y-119819274D01*
X65490662Y-119803195D01*
X65253567Y-119650668D01*
X64971691Y-119485263D01*
X64681108Y-119325923D01*
X64417893Y-119191591D01*
X64218120Y-119101210D01*
X64117864Y-119073723D01*
X64112537Y-119079523D01*
X64077658Y-119085870D01*
X64046802Y-119045803D01*
X63931058Y-118991317D01*
X63864527Y-119017266D01*
G37*
X63864527Y-119017266D02*
X63824910Y-119083724D01*
X63919468Y-119171014D01*
X64055520Y-119245630D01*
X64207524Y-119327653D01*
X64484126Y-119482408D01*
X64863548Y-119697490D01*
X65324014Y-119960494D01*
X65843745Y-120259017D01*
X66400964Y-120580653D01*
X66503925Y-120640253D01*
X67077351Y-120972328D01*
X67627513Y-121290908D01*
X68130326Y-121582047D01*
X68561704Y-121831802D01*
X68897564Y-122026226D01*
X69113820Y-122151375D01*
X69130333Y-122160927D01*
X69617167Y-122442515D01*
X69619852Y-125832507D01*
X69620869Y-127143519D01*
X69621548Y-128295330D01*
X69621650Y-129298075D01*
X69620935Y-130161886D01*
X69619163Y-130896897D01*
X69616093Y-131513241D01*
X69611485Y-132021052D01*
X69605100Y-132430462D01*
X69596697Y-132751605D01*
X69586036Y-132994614D01*
X69572877Y-133169623D01*
X69556979Y-133286765D01*
X69538102Y-133356172D01*
X69516007Y-133387979D01*
X69490453Y-133392318D01*
X69461201Y-133379324D01*
X69441288Y-133367122D01*
X69320888Y-133369345D01*
X69127806Y-133444412D01*
X68904928Y-133565567D01*
X68695140Y-133706057D01*
X68541327Y-133839126D01*
X68486377Y-133938022D01*
X68495624Y-133957068D01*
X68482177Y-133980772D01*
X68407008Y-133958836D01*
X68223713Y-133960459D01*
X68133561Y-134007776D01*
X67984376Y-134110782D01*
X67755328Y-134248358D01*
X67647806Y-134308390D01*
X67442214Y-134437155D01*
X67321332Y-134545857D01*
X67306680Y-134583681D01*
X67259143Y-134654856D01*
X67222013Y-134659001D01*
X67069959Y-134687387D01*
X66869103Y-134762683D01*
X66683281Y-134855840D01*
X66576330Y-134937812D01*
X66569166Y-134956062D01*
X66505527Y-135021356D01*
X66493748Y-135022167D01*
X66402851Y-135062072D01*
X66192110Y-135171760D01*
X65888238Y-135336186D01*
X65517946Y-135540307D01*
X65107946Y-135769079D01*
X64684949Y-136007458D01*
X64275669Y-136240402D01*
X63906816Y-136452865D01*
X63605102Y-136629806D01*
X63397239Y-136756179D01*
X63313733Y-136813099D01*
X63268786Y-136885462D01*
X63347061Y-136899141D01*
X63516411Y-136862790D01*
X63744691Y-136785065D01*
X63999755Y-136674621D01*
X64183124Y-136579028D01*
X64452616Y-136414191D01*
X64659270Y-136265224D01*
X64761213Y-136162541D01*
X64763496Y-136157487D01*
X64844111Y-136078442D01*
X64886067Y-136086825D01*
X64981874Y-136065168D01*
X65184647Y-135973703D01*
X65461894Y-135831078D01*
X65781120Y-135655943D01*
X66109833Y-135466947D01*
X66415540Y-135282737D01*
X66665746Y-135121964D01*
X66827958Y-135003275D01*
X66871555Y-134947298D01*
X66907646Y-134897815D01*
X66977549Y-134888563D01*
X67098710Y-134848217D01*
X67326389Y-134738519D01*
X67632829Y-134575790D01*
X67990276Y-134376351D01*
X68044857Y-134344834D01*
X67839166Y-134344834D01*
X67808188Y-134414524D01*
X67782722Y-134401278D01*
X67772589Y-134300798D01*
X67782722Y-134288389D01*
X67833056Y-134300011D01*
X67839166Y-134344834D01*
X68044857Y-134344834D01*
X68370975Y-134156522D01*
X68747171Y-133932623D01*
X69091109Y-133720974D01*
X69375034Y-133537897D01*
X69571191Y-133399712D01*
X69651825Y-133322740D01*
X69651653Y-133316137D01*
X69674542Y-133279863D01*
X69736262Y-133295183D01*
X69761929Y-133290688D01*
X69783837Y-133248263D01*
X69802221Y-133156292D01*
X69817314Y-133003160D01*
X69829351Y-132777255D01*
X69838563Y-132466960D01*
X69845186Y-132060663D01*
X69849453Y-131546748D01*
X69851597Y-130913601D01*
X69851853Y-130149609D01*
X69850453Y-129243156D01*
X69847632Y-128182628D01*
X69846493Y-127816632D01*
X69828833Y-122289005D01*
X69278500Y-121968204D01*
X68998920Y-121818292D01*
X68767191Y-121717699D01*
X68627870Y-121685364D01*
X68617936Y-121687482D01*
X68545761Y-121682944D01*
X68554743Y-121651451D01*
X68507675Y-121580761D01*
X68346260Y-121455755D01*
X68107373Y-121298310D01*
X67827890Y-121130301D01*
X67544690Y-120973603D01*
X67294647Y-120850092D01*
X67114638Y-120781643D01*
X67077070Y-120774880D01*
X66953405Y-120734175D01*
X66934859Y-120692970D01*
X66875921Y-120609963D01*
X66705158Y-120489936D01*
X66468663Y-120356983D01*
X66212532Y-120235198D01*
X65982859Y-120148675D01*
X65840282Y-120120834D01*
X65699396Y-120095318D01*
X65676165Y-120042641D01*
X65647424Y-119947763D01*
X65513211Y-119819274D01*
X65490662Y-119803195D01*
X65253567Y-119650668D01*
X64971691Y-119485263D01*
X64681108Y-119325923D01*
X64417893Y-119191591D01*
X64218120Y-119101210D01*
X64117864Y-119073723D01*
X64112537Y-119079523D01*
X64077658Y-119085870D01*
X64046802Y-119045803D01*
X63931058Y-118991317D01*
X63864527Y-119017266D01*
M02*
