G04 #@! TF.GenerationSoftware,KiCad,Pcbnew,5.1.5-52549c5~84~ubuntu18.04.1*
G04 #@! TF.CreationDate,2020-01-24T11:05:29-05:00*
G04 #@! TF.ProjectId,landfill_board_rev2,6c616e64-6669-46c6-9c5f-626f6172645f,rev?*
G04 #@! TF.SameCoordinates,Original*
G04 #@! TF.FileFunction,Soldermask,Bot*
G04 #@! TF.FilePolarity,Negative*
%FSLAX46Y46*%
G04 Gerber Fmt 4.6, Leading zero omitted, Abs format (unit mm)*
G04 Created by KiCad (PCBNEW 5.1.5-52549c5~84~ubuntu18.04.1) date 2020-01-24 11:05:29*
%MOMM*%
%LPD*%
G04 APERTURE LIST*
%ADD10R,1.700000X1.700000*%
%ADD11O,1.700000X1.700000*%
%ADD12R,1.350000X1.350000*%
%ADD13O,1.350000X1.350000*%
%ADD14C,2.000000*%
%ADD15R,1.500000X2.300000*%
%ADD16O,1.500000X2.300000*%
%ADD17C,1.700000*%
%ADD18C,1.500000*%
G04 APERTURE END LIST*
D10*
X137287000Y-131191000D03*
D11*
X137287000Y-133731000D03*
X137287000Y-136271000D03*
D12*
X53372000Y-151130000D03*
D13*
X55372000Y-151130000D03*
D12*
X60934272Y-151130000D03*
D13*
X62934272Y-151130000D03*
D12*
X68496544Y-151130000D03*
D13*
X70496544Y-151130000D03*
D12*
X76058816Y-151130000D03*
D13*
X78058816Y-151130000D03*
D12*
X83621088Y-151130000D03*
D13*
X85621088Y-151130000D03*
D12*
X91183360Y-151130000D03*
D13*
X93183360Y-151130000D03*
D12*
X98745632Y-151130000D03*
D13*
X100745632Y-151130000D03*
D10*
X137414000Y-112014000D03*
D11*
X137414000Y-114554000D03*
X137414000Y-117094000D03*
X137414000Y-119634000D03*
X137414000Y-122174000D03*
X137414000Y-124714000D03*
D13*
X108307904Y-151130000D03*
D12*
X106307904Y-151130000D03*
X113870176Y-151130000D03*
D13*
X115870176Y-151130000D03*
D12*
X121432448Y-151130000D03*
D13*
X123432448Y-151130000D03*
D12*
X128994720Y-151130000D03*
D13*
X130994720Y-151130000D03*
D12*
X136557000Y-151130000D03*
D13*
X138557000Y-151130000D03*
X53054000Y-101346000D03*
D12*
X51054000Y-101346000D03*
D13*
X60674000Y-101346000D03*
D12*
X58674000Y-101346000D03*
D13*
X68294000Y-101346000D03*
D12*
X66294000Y-101346000D03*
D13*
X75914000Y-101346000D03*
D12*
X73914000Y-101346000D03*
D13*
X83534000Y-101346000D03*
D12*
X81534000Y-101346000D03*
X89059000Y-101346000D03*
D13*
X91059000Y-101346000D03*
X98774000Y-101346000D03*
D12*
X96774000Y-101346000D03*
D13*
X106394000Y-101346000D03*
D12*
X104394000Y-101346000D03*
D13*
X114014000Y-101346000D03*
D12*
X112014000Y-101346000D03*
D13*
X121634000Y-101346000D03*
D12*
X119634000Y-101346000D03*
D13*
X129254000Y-101346000D03*
D12*
X127254000Y-101346000D03*
D13*
X136874000Y-101346000D03*
D12*
X134874000Y-101346000D03*
D10*
X126238000Y-116078000D03*
D11*
X128778000Y-116078000D03*
X126238000Y-118618000D03*
X128778000Y-118618000D03*
X126238000Y-121158000D03*
X128778000Y-121158000D03*
D14*
X55738000Y-132334000D03*
D15*
X75946000Y-130302000D03*
D16*
X78486000Y-130302000D03*
X81026000Y-130302000D03*
D17*
X64698000Y-115824000D03*
X57698000Y-115824000D03*
D18*
X90424000Y-125158500D03*
X95304000Y-125158500D03*
M02*
