M48
; DRILL file {KiCad 5.1.5-52549c5~84~ubuntu18.04.1} date Fri 24 Jan 2020 11:05:27 AM EST
; FORMAT={-:-/ absolute / metric / decimal}
; #@! TF.CreationDate,2020-01-24T11:05:27-05:00
; #@! TF.GenerationSoftware,Kicad,Pcbnew,5.1.5-52549c5~84~ubuntu18.04.1
FMAT,2
METRIC
T1C0.400
T2C0.800
T3C1.000
T4C1.700
T5C2.000
%
G90
G05
T1
X70.167Y-116.205
X70.675Y-114.236
X71.438Y-121.412
X72.453Y-114.363
X72.644Y-115.868
X73.469Y-113.983
X82.296Y-114.617
X83.82Y-115.316
X85.598Y-112.522
X85.598Y-116.332
X88.138Y-131.255
X89.51Y-140.716
X89.662Y-117.602
X89.776Y-115.456
X92.151Y-132.994
X92.202Y-141.884
X95.758Y-113.919
X101.397Y-134.061
X102.946Y-139.598
X102.997Y-116.586
X103.505Y-115.443
X103.721Y-138.481
X104.496Y-137.109
X104.775Y-128.905
X106.02Y-134.061
X106.185Y-136.209
X106.274Y-137.414
X106.324Y-138.532
X107.696Y-121.31
X107.95Y-119.253
X107.95Y-122.555
X108.255Y-124.358
X109.779Y-124.358
X109.855Y-119.189
X111.1Y-133.96
X116.535Y-132.791
X116.586Y-140.31
X119.807Y-125.277
X120.857Y-125.277
X122.301Y-112.957
X123.38Y-142.939
X123.444Y-122.834
X125.374Y-124.612
X133.858Y-120.904
T2
X58.674Y-101.346
X60.674Y-101.346
X76.059Y-151.13
X78.059Y-151.13
X66.294Y-101.346
X68.294Y-101.346
X96.774Y-101.346
X98.774Y-101.346
X106.308Y-151.13
X108.308Y-151.13
X51.054Y-101.346
X53.054Y-101.346
X68.497Y-151.13
X70.497Y-151.13
X119.634Y-101.346
X121.634Y-101.346
X91.183Y-151.13
X93.183Y-151.13
X121.432Y-151.13
X123.432Y-151.13
X60.934Y-151.13
X62.934Y-151.13
X134.874Y-101.346
X136.874Y-101.346
X136.557Y-151.13
X138.557Y-151.13
X90.424Y-125.158
X95.304Y-125.158
X81.534Y-101.346
X83.534Y-101.346
X53.372Y-151.13
X55.372Y-151.13
X73.914Y-101.346
X75.914Y-101.346
X89.059Y-101.346
X91.059Y-101.346
X113.87Y-151.13
X115.87Y-151.13
X112.014Y-101.346
X114.014Y-101.346
X104.394Y-101.346
X106.394Y-101.346
X83.621Y-151.13
X85.621Y-151.13
X128.995Y-151.13
X130.995Y-151.13
X127.254Y-101.346
X129.254Y-101.346
X98.746Y-151.13
X100.746Y-151.13
T3
X126.238Y-116.078
X126.238Y-118.618
X126.238Y-121.158
X128.778Y-116.078
X128.778Y-118.618
X128.778Y-121.158
X137.287Y-131.191
X137.287Y-133.731
X137.287Y-136.271
X137.414Y-112.014
X137.414Y-114.554
X137.414Y-117.094
X137.414Y-119.634
X137.414Y-122.174
X137.414Y-124.714
X75.946Y-130.302
X78.486Y-130.302
X81.026Y-130.302
T4
X57.698Y-115.824
X64.698Y-115.824
T5
X55.738Y-132.334
T0
M30
